<?xml version="1.0" encoding="UTF-8"?>
<svg version="1.1" xmlns="http://www.w3.org/2000/svg" width="512" height="512">
<path d="M0 0 C1.15048828 0.72896484 1.15048828 0.72896484 2.32421875 1.47265625 C12.67825419 8.711924 16.42701665 19.98981572 20.66464233 31.3973999 C22.25218282 35.66764153 23.87426628 39.9247909 25.4921875 44.18359375 C26.01570045 45.56487457 26.01570045 45.56487457 26.54978943 46.97406006 C30.8527468 58.29811691 35.31298963 69.56007406 39.77828979 80.82089233 C41.16813282 84.32615489 42.55492102 87.83261604 43.94165039 91.33911133 C44.80849339 93.52565772 45.67558796 95.71210439 46.54296875 97.8984375 C46.93408844 98.88759659 47.32520813 99.87675568 47.72817993 100.89588928 C50.0208211 106.65999346 52.43054558 112.35369556 55 118 C55.72960937 117.34515625 56.45921875 116.6903125 57.2109375 116.015625 C104.22955544 74.60268909 166.60244641 59.43900712 228 60 C228.09514893 59.19675293 228.19029785 58.39350586 228.28833008 57.56591797 C229.17471225 53.12458077 230.71539116 49.14359985 232.38671875 44.9453125 C232.89595634 43.65474442 232.89595634 43.65474442 233.41548157 42.33810425 C234.13440334 40.52313085 234.85657412 38.70944144 235.58178711 36.89697266 C236.67912664 34.14599164 237.75694283 31.38788621 238.83398438 28.62890625 C239.53787587 26.85890264 240.24291749 25.0893559 240.94921875 23.3203125 C241.4230323 22.09805466 241.4230323 22.09805466 241.90641785 20.85110474 C245.97007538 10.83015175 252.50819747 2.40789072 262.375 -2.375 C270.65010025 -5.3910396 281.84354827 -5.77102519 290.0625 -2.375 C292.0859375 -1.25390625 292.0859375 -1.25390625 294 0 C294.69351562 0.42410156 295.38703125 0.84820313 296.1015625 1.28515625 C303.62951959 6.34608621 308.26508625 13.50630616 310.48046875 22.27018738 C312.02849393 30.40409398 310.83602259 38.8008876 309.6875 46.91796875 C309.55432373 47.90122635 309.42114746 48.88448395 309.28393555 49.89753723 C308.86279857 52.99517299 308.43158934 56.09130514 308 59.1875 C307.71026618 61.30524681 307.42119768 63.42308475 307.1328125 65.54101562 C306.42955167 70.69509456 305.71726297 75.8478518 305 81 C305.50632462 81.27740021 306.01264923 81.55480042 306.53431702 81.84060669 C308.8696568 83.12239059 311.202407 84.40882048 313.53515625 85.6953125 C314.33135376 86.13141846 315.12755127 86.56752441 315.94787598 87.0168457 C320.92728684 89.7680561 325.73268927 92.67740474 330.4375 95.875 C331.07155762 96.30501312 331.70561523 96.73502625 332.35888672 97.17807007 C332.93268066 97.5679007 333.50647461 97.95773132 334.09765625 98.359375 C359.82160175 117.07197482 359.82160175 117.07197482 390 122 C405.23167027 116.99280725 417.45772061 105.62843283 429 95 C431.01053405 93.21987836 433.03174312 91.45496122 435.0703125 89.70703125 C436.41564688 88.51692776 437.72084901 87.28056442 438.9921875 86.01171875 C444.61545779 80.55255168 444.61545779 80.55255168 449.125 80.3125 C453.38612256 81.06850561 455.6871736 82.25277811 459 85 C464.56135201 96.12270403 458.94235515 115.60358855 456 127 C455.82871582 127.66837891 455.65743164 128.33675781 455.48095703 129.02539062 C449.90544337 149.82778743 437.67124481 167.56835531 423 183 C422.24009766 183.80872559 422.24009766 183.80872559 421.46484375 184.63378906 C403.15758678 204.01221533 384.47311501 214.28993275 357.40405273 215.26879883 C350.5424503 215.42381554 343.67974384 215.43970607 336.81665039 215.43579102 C319.87452847 215.4565653 304.61884172 216.41596915 290 226 C289.26394531 226.46664062 288.52789062 226.93328125 287.76953125 227.4140625 C285.5675965 229.38754045 285.35099736 230.40851277 284.9375 233.3125 C284.72480469 234.76269531 284.72480469 234.76269531 284.5078125 236.2421875 C284.34023438 237.48226562 284.17265625 238.72234375 284 240 C283.72852908 241.7320802 283.45491143 243.46382468 283.1796875 245.1953125 C282.88911734 247.10914671 282.6000719 249.02321298 282.3125 250.9375 C282.09678345 252.29452026 282.09678345 252.29452026 281.87670898 253.67895508 C280.33623429 264.47970635 282.00363944 274.8828004 283.8828125 285.546875 C284.2494726 287.7134107 284.6153331 289.88008185 284.98046875 292.046875 C285.54959457 295.39605565 286.12394511 298.74400214 286.71240234 302.08984375 C288.97001226 314.98613183 290.85156331 326.9521104 289 340 C288.88124512 340.85899902 288.76249023 341.71799805 288.64013672 342.60302734 C288.29508624 344.70043806 287.86988234 346.74580388 287.375 348.8125 C287.11396484 349.92395386 287.11396484 349.92395386 286.84765625 351.05786133 C275.11545023 398.56032645 239.4923625 442.81092753 201 472 C200.00226563 472.79148437 199.00453125 473.58296875 197.9765625 474.3984375 C176.37733682 491.4795084 149.8618606 510.82803945 121 508 C79.40005001 499.43530441 36.08030614 458.59166686 11 426 C9.94970089 424.66628684 8.89887955 423.33298484 7.84765625 422 C1.31353628 413.65692477 -4.80418241 405.25639445 -10 396 C-10.41991211 395.26894043 -10.83982422 394.53788086 -11.27246094 393.78466797 C-17.04400203 383.66091793 -21.86012918 373.5004128 -25.5625 362.4375 C-26.04589844 360.99443481 -26.04589844 360.99443481 -26.5390625 359.5222168 C-33.4364824 337.82408337 -30.76612935 318.18554997 -27 296.1875 C-26.42263105 292.78843407 -25.84958443 289.38886236 -25.28808594 285.98713684 C-24.9415151 283.88957932 -24.5860809 281.7934573 -24.21972656 279.69926453 C-21.85465632 265.44556734 -23.71630874 251.99494936 -25.66210938 237.81982422 C-25.94853098 235.68974697 -26.23422175 233.55957134 -26.51924133 231.42930603 C-27.13198185 226.86009942 -27.74949435 222.29157274 -28.37068176 217.72350693 C-29.35456082 210.48538181 -30.32547285 203.24555313 -31.29431152 196.00540161 C-33.70284275 178.02080831 -36.12588709 160.03817422 -38.55670166 142.05657959 C-40.4460619 128.08015886 -42.33030675 114.10309506 -44.1980443 100.12376606 C-45.15815708 92.94198348 -46.12905233 85.76177067 -47.10832977 78.58257747 C-47.71787568 74.09549273 -48.31743131 69.607113 -48.91435814 65.11833382 C-49.19077565 63.05479826 -49.47117889 60.99179157 -49.75611305 58.92941475 C-54.93459637 21.38944348 -54.93459637 21.38944348 -46.046875 9.35546875 C-35.14050487 -3.66734733 -15.23727983 -10.12813274 0 0 Z " fill="#F9BB3D" transform="translate(52,4)"/>
<path d="M0 0 C1.15048828 0.72896484 1.15048828 0.72896484 2.32421875 1.47265625 C12.67825419 8.711924 16.42701665 19.98981572 20.66464233 31.3973999 C22.25218282 35.66764153 23.87426628 39.9247909 25.4921875 44.18359375 C26.01570045 45.56487457 26.01570045 45.56487457 26.54978943 46.97406006 C30.8527468 58.29811691 35.31298963 69.56007406 39.77828979 80.82089233 C41.16813282 84.32615489 42.55492102 87.83261604 43.94165039 91.33911133 C44.80849339 93.52565772 45.67558796 95.71210439 46.54296875 97.8984375 C46.93408844 98.88759659 47.32520813 99.87675568 47.72817993 100.89588928 C50.0208211 106.65999346 52.43054558 112.35369556 55 118 C55.72960937 117.34515625 56.45921875 116.6903125 57.2109375 116.015625 C104.22955544 74.60268909 166.60244641 59.43900712 228 60 C228.09514893 59.19675293 228.19029785 58.39350586 228.28833008 57.56591797 C229.17471225 53.12458077 230.71539116 49.14359985 232.38671875 44.9453125 C232.89595634 43.65474442 232.89595634 43.65474442 233.41548157 42.33810425 C234.13440334 40.52313085 234.85657412 38.70944144 235.58178711 36.89697266 C236.67912664 34.14599164 237.75694283 31.38788621 238.83398438 28.62890625 C239.53787587 26.85890264 240.24291749 25.0893559 240.94921875 23.3203125 C241.4230323 22.09805466 241.4230323 22.09805466 241.90641785 20.85110474 C245.97007538 10.83015175 252.50819747 2.40789072 262.375 -2.375 C270.65010025 -5.3910396 281.84354827 -5.77102519 290.0625 -2.375 C292.0859375 -1.25390625 292.0859375 -1.25390625 294 0 C294.69351562 0.42410156 295.38703125 0.84820313 296.1015625 1.28515625 C303.62951959 6.34608621 308.26508625 13.50630616 310.48046875 22.27018738 C312.02849393 30.40409398 310.83602259 38.8008876 309.6875 46.91796875 C309.55432373 47.90122635 309.42114746 48.88448395 309.28393555 49.89753723 C308.86279857 52.99517299 308.43158934 56.09130514 308 59.1875 C307.71026618 61.30524681 307.42119768 63.42308475 307.1328125 65.54101562 C306.42955167 70.69509456 305.71726297 75.8478518 305 81 C305.50632462 81.27740021 306.01264923 81.55480042 306.53431702 81.84060669 C308.8696568 83.12239059 311.202407 84.40882048 313.53515625 85.6953125 C314.33135376 86.13141846 315.12755127 86.56752441 315.94787598 87.0168457 C320.92728684 89.7680561 325.73268927 92.67740474 330.4375 95.875 C331.07155762 96.30501312 331.70561523 96.73502625 332.35888672 97.17807007 C332.93268066 97.5679007 333.50647461 97.95773132 334.09765625 98.359375 C359.82160175 117.07197482 359.82160175 117.07197482 390 122 C405.23167027 116.99280725 417.45772061 105.62843283 429 95 C431.01053405 93.21987836 433.03174312 91.45496122 435.0703125 89.70703125 C436.41564688 88.51692776 437.72084901 87.28056442 438.9921875 86.01171875 C444.61545779 80.55255168 444.61545779 80.55255168 449.125 80.3125 C453.38612256 81.06850561 455.6871736 82.25277811 459 85 C464.56135201 96.12270403 458.94235515 115.60358855 456 127 C455.82871582 127.66837891 455.65743164 128.33675781 455.48095703 129.02539062 C449.90544337 149.82778743 437.67124481 167.56835531 423 183 C422.24009766 183.80872559 422.24009766 183.80872559 421.46484375 184.63378906 C403.15758678 204.01221533 384.47311501 214.28993275 357.40405273 215.26879883 C350.5424503 215.42381554 343.67974384 215.43970607 336.81665039 215.43579102 C319.87452847 215.4565653 304.61884172 216.41596915 290 226 C289.26394531 226.46664062 288.52789062 226.93328125 287.76953125 227.4140625 C285.5675965 229.38754045 285.35099736 230.40851277 284.9375 233.3125 C284.72480469 234.76269531 284.72480469 234.76269531 284.5078125 236.2421875 C284.34023438 237.48226562 284.17265625 238.72234375 284 240 C283.72852908 241.7320802 283.45491143 243.46382468 283.1796875 245.1953125 C282.88911734 247.10914671 282.6000719 249.02321298 282.3125 250.9375 C282.09678345 252.29452026 282.09678345 252.29452026 281.87670898 253.67895508 C280.33623429 264.47970635 282.00363944 274.8828004 283.8828125 285.546875 C284.2494726 287.7134107 284.6153331 289.88008185 284.98046875 292.046875 C285.54959457 295.39605565 286.12394511 298.74400214 286.71240234 302.08984375 C288.97001226 314.98613183 290.85156331 326.9521104 289 340 C288.88124512 340.85899902 288.76249023 341.71799805 288.64013672 342.60302734 C288.29508624 344.70043806 287.86988234 346.74580388 287.375 348.8125 C287.11396484 349.92395386 287.11396484 349.92395386 286.84765625 351.05786133 C275.11545023 398.56032645 239.4923625 442.81092753 201 472 C200.00226563 472.79148437 199.00453125 473.58296875 197.9765625 474.3984375 C176.37733682 491.4795084 149.8618606 510.82803945 121 508 C79.40005001 499.43530441 36.08030614 458.59166686 11 426 C9.94970089 424.66628684 8.89887955 423.33298484 7.84765625 422 C1.31353628 413.65692477 -4.80418241 405.25639445 -10 396 C-10.41991211 395.26894043 -10.83982422 394.53788086 -11.27246094 393.78466797 C-17.04400203 383.66091793 -21.86012918 373.5004128 -25.5625 362.4375 C-26.04589844 360.99443481 -26.04589844 360.99443481 -26.5390625 359.5222168 C-33.4364824 337.82408337 -30.76612935 318.18554997 -27 296.1875 C-26.42263105 292.78843407 -25.84958443 289.38886236 -25.28808594 285.98713684 C-24.9415151 283.88957932 -24.5860809 281.7934573 -24.21972656 279.69926453 C-21.85465632 265.44556734 -23.71630874 251.99494936 -25.66210938 237.81982422 C-25.94853098 235.68974697 -26.23422175 233.55957134 -26.51924133 231.42930603 C-27.13198185 226.86009942 -27.74949435 222.29157274 -28.37068176 217.72350693 C-29.35456082 210.48538181 -30.32547285 203.24555313 -31.29431152 196.00540161 C-33.70284275 178.02080831 -36.12588709 160.03817422 -38.55670166 142.05657959 C-40.4460619 128.08015886 -42.33030675 114.10309506 -44.1980443 100.12376606 C-45.15815708 92.94198348 -46.12905233 85.76177067 -47.10832977 78.58257747 C-47.71787568 74.09549273 -48.31743131 69.607113 -48.91435814 65.11833382 C-49.19077565 63.05479826 -49.47117889 60.99179157 -49.75611305 58.92941475 C-54.93459637 21.38944348 -54.93459637 21.38944348 -46.046875 9.35546875 C-35.14050487 -3.66734733 -15.23727983 -10.12813274 0 0 Z M-29 23 C-33.0226022 31.04520441 -29.42425343 44.51969965 -28.3125 53.125 C-28.13247066 54.56441041 -27.95279176 56.00386469 -27.7734375 57.44335938 C-26.37510805 68.54852113 -24.79506301 79.62677079 -23.17861938 90.70196533 C-21.53554032 101.96474352 -20.0874356 113.23797214 -18.76025391 124.54199219 C-17.50261276 135.22046247 -16.05515187 145.86097314 -14.5 156.5 C-12.84559799 167.81801192 -11.33395842 179.13973917 -10 190.5 C-8.37124603 204.36594425 -6.46292435 218.18117084 -4.44642639 231.99572754 C-3.56670334 238.02806272 -2.69755538 244.06167269 -1.87109375 250.1015625 C-1.7105249 251.26768066 -1.54995605 252.43379883 -1.38452148 253.63525391 C0.17044344 267.24193749 -2.17219092 280.09795714 -4.6328125 293.42822266 C-11.81852195 332.38695054 -8.35379557 360.79316406 14.171875 393.9921875 C20.51017498 403.08760414 27.45435238 411.62089526 34.9609375 419.77734375 C36.81250295 421.79562103 38.59833 423.85349135 40.375 425.9375 C47.29796532 433.87240688 54.90644487 441.26859549 63 448 C63.8053418 448.67603271 63.8053418 448.67603271 64.62695312 449.36572266 C93.78384038 475.01420176 93.78384038 475.01420176 129.45703125 487.328125 C154.50624493 484.0959684 177.60678386 462.97544208 196 447 C196.81855469 446.29488281 197.63710937 445.58976562 198.48046875 444.86328125 C210.23677769 434.52481862 221.45130994 423.41824458 231 411 C232.0130911 409.73729196 233.02751599 408.47565337 234.04296875 407.21484375 C253.00411073 383.40030142 270.90048079 352.47679161 267.69338989 320.98971558 C267.26859682 317.91016253 266.78998272 314.84477584 266.28515625 311.77734375 C266.10995956 310.66943985 265.93476288 309.56153595 265.7542572 308.4200592 C265.38613536 306.10267434 265.013656 303.78597774 264.63696289 301.4699707 C264.05915993 297.91696131 263.49426165 294.36208277 262.93164062 290.80664062 C262.57104935 288.5467573 262.20974697 286.28698731 261.84765625 284.02734375 C261.6778273 282.96490952 261.50799835 281.90247528 261.33302307 280.80784607 C261.17293259 279.82574661 261.0128421 278.84364716 260.84790039 277.83178711 C260.70800186 276.96863388 260.56810333 276.10548065 260.42396545 275.21617126 C260.01988972 272.83910307 260.01988972 272.83910307 259 270 C258.62736438 262.23807937 259.75438021 254.84707483 260.9375 247.1875 C262.48130128 237.08775563 262.48130128 237.08775563 263.50390625 226.92578125 C263.89139344 221.79643011 264.599582 216.77499828 265.41552734 211.69775391 C266.65174736 203.87662262 267.71618232 196.02925308 268.8125 188.1875 C268.9428363 187.2570285 269.07317261 186.32655701 269.2074585 185.3678894 C271.24654287 170.77915069 273.14068211 156.17668708 274.93215942 141.55563354 C276.38888064 129.67068694 277.95748128 117.81341497 279.74462891 105.97290039 C280.4845336 100.99883395 281.10714052 96.06245348 281.484375 91.046875 C281.97827613 84.63447871 282.97897217 78.3463207 284 72 C284.7856948 66.89344836 285.53929992 61.78213972 286.28710938 56.66992188 C286.51296221 55.13595027 286.74181987 53.60241817 286.97363281 52.06933594 C290.00006561 36.96348366 290.00006561 36.96348366 287.25 22.4375 C284.64110899 19.6112014 282.66741276 18.26072272 278.8515625 17.6640625 C273.4077714 17.56855739 270.15014538 18.13939964 266 22 C262.60425588 27.59773446 260.36256806 33.88489386 258.0078125 39.96875 C257.44031029 41.4209771 257.44031029 41.4209771 256.86134338 42.90254211 C255.61249153 46.10037817 254.36882698 49.30020652 253.125 52.5 C252.24107346 54.76538678 251.35670597 57.03060155 250.47192383 59.2956543 C248.60480182 64.07598439 246.73922623 68.85691391 244.87451172 73.63818359 C239.2433287 88.06885256 233.56972251 102.48292446 227.90112305 116.89892578 C227.44791183 118.05152893 226.99470062 119.20413208 226.52775574 120.3916626 C225.63054353 122.67338999 224.73325667 124.95508804 223.83589172 127.23675537 C221.39657124 133.44081207 218.96305167 139.64708552 216.53691101 145.85630798 C215.15666498 149.38732585 213.77296971 152.91698547 212.38858032 156.44638062 C211.76660663 158.03461384 211.14623932 159.62347732 210.52767944 161.21304321 C201.68435863 183.93462902 201.68435863 183.93462902 198.03686523 186.24169922 C194.28070076 187.64007473 191.00249007 187.26733068 187.1875 186.25 C185 185 185 185 184.1875 183.375 C183.58780061 175.77880777 184.46301345 170.68216896 187.33984375 163.66796875 C187.69370651 162.77384781 188.04756927 161.87972687 188.41215515 160.95851135 C189.57468492 158.02964753 190.75606634 155.10878327 191.9375 152.1875 C192.74858515 150.15255662 193.55830049 148.11706677 194.36669922 146.08105469 C196.04673091 141.85566705 197.73419886 137.6333715 199.42822266 133.41357422 C203.14433 124.15454769 206.82064787 114.87979662 210.49319458 105.60342407 C211.61369986 102.77848907 212.73982017 99.95584498 213.86694336 97.13354492 C214.54942037 95.41719628 215.231799 93.70080852 215.9140625 91.984375 C216.22881027 91.20010635 216.54355804 90.41583771 216.86784363 89.60780334 C218.44238462 85.91816916 218.44238462 85.91816916 219 82 C168.40906253 79.32951063 113.97308448 97.93279602 75 130 C74.42314453 130.4729248 73.84628906 130.94584961 73.25195312 131.43310547 C71.52243109 132.87071094 69.82032203 134.33479695 68.125 135.8125 C67.32908447 136.47838135 67.32908447 136.47838135 66.51708984 137.15771484 C64.86831369 138.57087087 64.86831369 138.57087087 63 141 C63.38555639 145.06746605 64.96069014 148.64704809 66.50390625 152.40234375 C66.99697266 153.62244141 67.49003906 154.84253906 67.99804688 156.09960938 C68.77951731 158.0212459 69.56412427 159.94143736 70.35522461 161.85913086 C71.12232787 163.72394001 71.87577298 165.59434893 72.62890625 167.46484375 C73.08338135 168.574646 73.53785645 169.68444824 74.00610352 170.82788086 C75.49585229 175.58256174 75.54747292 178.73843196 73.5625 183.3125 C70.42437699 186.60370218 68.60856095 186.92608647 64.18359375 187.0859375 C59.48600029 186.90105905 59.48600029 186.90105905 57 185 C56.31420898 183.31860352 56.31420898 183.31860352 55.68359375 181.19140625 C53.75642771 175.09915262 51.3378161 169.23123162 48.9375 163.3125 C47.84756686 160.60915236 46.7610944 157.90442419 45.67578125 155.19921875 C45.38443298 154.47303345 45.09308472 153.74684814 44.79290771 152.99865723 C41.01450932 143.56269734 37.32246864 134.09288789 33.625 124.625 C32.08870518 120.69264444 30.552201 116.7603707 29.015625 112.828125 C28.42007057 111.30391685 28.42007057 111.30391685 27.81248474 109.74891663 C23.15938385 97.843576 18.48992238 85.9446597 13.81707764 74.04705811 C12.87024239 71.6360686 11.92366033 69.22497966 10.97735596 66.81378174 C8.79505813 61.25342381 6.60897591 55.69465342 4.41308594 50.13964844 C2.8308599 46.13229881 1.27856488 42.11538993 -0.24902344 38.08691406 C-0.77971939 36.70809555 -0.77971939 36.70809555 -1.32113647 35.30142212 C-1.97296179 33.60739765 -2.61496599 31.90954316 -3.24453735 30.2071228 C-5.08044863 25.47939238 -6.98499834 22.30051477 -11 19 C-18.48122661 16.5062578 -23.56672521 17.29506147 -29 23 Z " fill="#31395A" transform="translate(52,4)"/>
<path d="M0 0 C5.36294512 2.26435461 8.19100279 6.23027155 10.57373047 11.44262695 C11.09732383 12.78766839 11.61119952 14.13651846 12.1171875 15.48828125 C12.55151344 16.61393494 12.55151344 16.61393494 12.99461365 17.7623291 C13.62775508 19.40625555 14.25679268 21.05176701 14.88223267 22.69863892 C16.25499534 26.31299124 17.64757496 29.91961721 19.03846741 33.52702332 C19.79744207 35.4963556 20.55533617 37.46610462 21.3122406 39.43623352 C25.77634652 51.04916886 30.33473257 62.62490297 34.89141846 74.20175171 C36.71332213 78.830927 38.53306981 83.46094827 40.35281372 88.0909729 C41.6728718 91.44962866 42.99312876 94.80820617 44.31347656 98.16674805 C44.75171753 99.28149506 45.1899585 100.39624207 45.64147949 101.54476929 C46.57063318 103.90795802 47.49992004 106.27109441 48.42932129 108.63418579 C53.85619692 122.43272058 59.27850042 136.23259798 64.625 150.0625 C65.14448713 151.40301189 65.66401865 152.74350658 66.18359375 154.08398438 C66.67717384 155.35933998 67.1706675 156.63472903 67.6640625 157.91015625 C68.09154785 159.01496338 68.5190332 160.11977051 68.95947266 161.25805664 C69.68015342 163.15715697 70.35766342 165.07299026 71 167 C73.50447516 168.21869929 73.50447516 168.21869929 76 169 C76 172 76 172 74.70581055 173.5871582 C73.80536011 174.43540161 73.80536011 174.43540161 72.88671875 175.30078125 C72.2208374 175.94120361 71.55495605 176.58162598 70.86889648 177.24145508 C70.14903564 177.9248999 69.4291748 178.60834473 68.6875 179.3125 C56.51447038 191.17847677 39.42401685 208.4571152 37 226 C37.06001465 227.77146687 37.12385364 229.54299514 37.21777344 231.31298828 C37.68616314 242.12699598 36.03828345 252.50328321 34.25 263.125 C34.11483978 263.9278241 33.97967957 264.73064819 33.84042358 265.55780029 C33.03477416 270.3138713 32.21039996 275.06655523 31.38000488 279.81835938 C30.43402043 285.24933728 29.52406661 290.6860671 28.625 296.125 C28.37411621 297.55996826 28.37411621 297.55996826 28.11816406 299.02392578 C26.54418475 308.49995824 26.2493724 317.36068163 29 326.625 C29.22147705 327.3878833 29.4429541 328.1507666 29.67114258 328.93676758 C34.05291056 343.30358363 41.22497646 355.89396675 50 368 C50.40476562 368.56170898 50.80953125 369.12341797 51.2265625 369.70214844 C64.79524936 388.35909287 81.69812247 405.99812306 100 420 C101.51787109 421.20849609 101.51787109 421.20849609 103.06640625 422.44140625 C110.191224 428.08589686 117.56204188 433.18274999 125.30224609 437.94628906 C126.97127796 438.98217367 128.62068027 440.04947277 130.26953125 441.1171875 C131.29433594 441.75914062 132.31914062 442.40109375 133.375 443.0625 C134.26960937 443.63097656 135.16421875 444.19945312 136.0859375 444.78515625 C141.3779356 446.99133776 145.4504354 446.55869773 150.68359375 444.671875 C151.94548572 444.05237039 153.19658493 443.41052032 154.4375 442.75 C155.11852783 442.39719971 155.79955566 442.04439941 156.5012207 441.6809082 C169.8662356 434.52331207 181.66429066 424.98242943 193 415 C193.7115625 414.38769531 194.423125 413.77539062 195.15625 413.14453125 C197.1219291 411.44873022 199.0632923 409.72881253 201 408 C201.90105469 407.20335937 202.80210937 406.40671875 203.73046875 405.5859375 C220.38999444 390.71116547 235.09439669 373.56047573 246 354 C246.33870117 353.39365723 246.67740234 352.78731445 247.02636719 352.16259766 C261.37166655 326.10968301 259.83097274 305.529826 254.67578125 276.78027344 C253.65479764 271.06896194 252.67354484 265.35288758 251.75 259.625 C251.57855469 258.57070801 251.40710938 257.51641602 251.23046875 256.43017578 C250.10869794 249.04176455 249.82373756 241.83783134 249.75 234.375 C249.54971699 223.569338 247.08028568 215.89173421 241 207 C240.61102539 206.42749512 240.22205078 205.85499023 239.82128906 205.26513672 C234.68859792 197.89506459 228.68498752 191.27540263 222.55078125 184.734375 C219.77285107 181.75650192 217.09288043 178.7079735 214.4375 175.62109375 C213.00646265 173.95850937 213.00646265 173.95850937 211.3125 172.41015625 C210 171 210 171 210 169 C210.76957031 168.57928223 211.53914062 168.15856445 212.33203125 167.72509766 C215.64160943 165.58513797 216.2501502 164.04112171 217.6875 160.3984375 C217.92968262 159.79760345 218.17186523 159.19676941 218.42138672 158.57772827 C219.29710723 156.39126201 220.14743342 154.19559414 221 152 C221.72653017 150.16906628 222.45448846 148.33869885 223.18359375 146.50878906 C225.33893321 141.08312459 227.47111671 135.64862126 229.59741211 130.21151733 C231.03233308 126.542322 232.46987958 122.87416115 233.90820312 119.20629883 C235.9255977 114.06098456 237.94178854 108.91520041 239.95703125 103.76904297 C242.91690621 96.21098595 245.87952725 88.65400924 248.84375 81.09765625 C249.31615616 79.89334961 249.78856232 78.68904297 250.27528381 77.44824219 C253.93410568 68.1235708 257.60302098 58.80289186 261.27500916 49.48339844 C263.63383958 43.49128879 265.97584942 37.49313458 268.29592896 31.48591614 C269.58289411 28.15869998 270.88072893 24.83580027 272.18115234 21.51382446 C272.75957875 20.02808176 273.33283754 18.54031472 273.90039062 17.05038452 C274.66118091 15.0541488 275.4395443 13.06568774 276.22265625 11.078125 C276.64297119 9.98918945 277.06328613 8.90025391 277.49633789 7.77832031 C279.54154301 3.9993896 282.18616058 1.90691971 286 0 C290.23660902 -0.43281664 293.91394711 -0.44858706 297.875 1.1875 C300.99428134 3.8480635 302.7956634 5.86059325 303.19946289 10.08837891 C303.28147685 18.97523838 301.94947543 27.61565407 300.625 36.375 C300.40033012 37.90093707 300.17636798 39.42697852 299.953125 40.953125 C298.96726799 47.66219487 297.94354911 54.36422473 296.88671875 61.0625 C296.13723647 65.91222452 295.59645478 70.7369375 295.1875 75.625 C294.32259398 85.02643542 292.9929126 94.34940923 291.625 103.6875 C289.92795059 115.2765058 288.3636123 126.86701154 287 138.5 C285.61633699 150.2741319 284.06368535 162.01564117 282.375 173.75 C282.27058594 174.47630615 282.16617187 175.2026123 282.05859375 175.95092773 C281.0502008 182.94665384 280.01351699 189.93645495 278.91015625 196.91796875 C278.10361658 202.12432694 277.52009833 207.31555623 277.0625 212.5625 C276.33236056 220.46827916 275.28786035 228.2848238 273.96508789 236.11352539 C272.42897025 245.57652438 273.13548821 253.3426173 275.13134766 262.74462891 C276.61428505 269.82769642 277.68241764 276.9855181 278.78979492 284.13500977 C279.18887319 286.69631322 279.60118551 289.25527926 280.01367188 291.81445312 C285.22974016 324.893256 274.22337833 353.18657931 255 380 C251.76155646 384.41306543 248.43002257 388.73445911 245 393 C244.57299805 393.53286621 244.14599609 394.06573242 243.70605469 394.61474609 C231.44944326 409.75930442 217.50777225 424.18209702 202 436 C200.43722395 437.29133266 198.87473034 438.5830072 197.3125 439.875 C158.31861845 470.89707376 158.31861845 470.89707376 140 469 C123.6471261 465.04565266 109.22120638 455.0324528 96 445 C95.40944824 444.55366211 94.81889648 444.10732422 94.21044922 443.64746094 C86.98618352 438.15756526 80.09621738 432.437559 73.4453125 426.26171875 C71.3346356 424.3095112 69.18772443 422.42693722 67 420.5625 C59.08668692 413.6728804 51.68717808 406.08146825 45 398 C44.35659668 397.2272876 44.35659668 397.2272876 43.70019531 396.43896484 C21.18607334 369.28330588 2.45857051 338.38229718 5 302 C6.22796593 291.93336347 8.15984812 281.96890924 10 272 C10.62682519 268.50349075 11.22834014 265.00385627 11.8125 261.5 C11.9360083 260.82686768 12.0595166 260.15373535 12.18676758 259.46020508 C14.12263426 247.87483123 12.89480721 236.37943212 11.09228516 224.87548828 C10.4920901 221.03886341 9.92721421 217.19699305 9.359375 213.35546875 C9.24283569 212.57174896 9.12629639 211.78802917 9.00622559 210.9805603 C7.85544138 203.17058629 6.9139105 195.3406013 6 187.5 C4.70425056 176.45244616 3.23906275 165.44293257 1.625 154.4375 C-0.59738784 139.27949746 -2.51410315 124.09121897 -4.38269043 108.88592529 C-5.99866041 95.75700841 -7.70902756 82.65100668 -9.625 69.5625 C-11.19276225 58.8105717 -12.69967647 48.05416704 -14.04388428 37.271698 C-14.21892122 35.87285412 -14.39656764 34.47433352 -14.57720947 33.07620239 C-17.53434089 10.09463257 -17.53434089 10.09463257 -14.96069336 4.90380859 C-10.6464789 -0.43790019 -6.4428563 -0.61520329 0 0 Z " fill="#E3DCEB" transform="translate(38,22)"/>
<path d="M0 0 C0.75023438 -0.02835937 1.50046875 -0.05671875 2.2734375 -0.0859375 C5.6346657 0.57290789 7.2320346 1.95378712 9.625 4.375 C10.63671875 7.1171875 10.63671875 7.1171875 11.3125 10.25 C15.16746294 23.98042576 25.87008706 34.41869232 35.625 44.375 C36.48448242 45.25494629 37.34396484 46.13489258 38.22949219 47.04150391 C40.7008269 49.56693156 43.18198483 52.08242911 45.6690979 54.59231567 C46.66420103 55.59677883 47.65804349 56.60249284 48.65048218 57.60958862 C54.55781611 63.59263671 60.6434336 69.17869049 67.21606445 74.43164062 C70.09352143 76.75297006 72.75838318 79.20343319 75.4375 81.75 C79.86925992 85.88278904 84.44803703 89.78642248 89.1875 93.5625 C89.78344971 94.04444824 90.37939941 94.52639648 90.9934082 95.02294922 C94.38991976 97.77795631 94.38991976 97.77795631 98.625 98.375 C100.71725711 96.78500347 102.66399712 95.17683175 104.625 93.4375 C105.80130681 92.41577197 106.97840174 91.39495066 108.15625 90.375 C109.03603516 89.60929687 109.03603516 89.60929687 109.93359375 88.828125 C112.28549048 86.80755783 114.70395176 84.87433859 117.125 82.9375 C121.8799105 79.07109833 126.39161645 74.98971132 130.859375 70.79907227 C133.63029785 68.2013321 136.43533359 65.66683388 139.31640625 63.19140625 C144.71040086 58.48990564 149.80438071 53.48201718 154.875 48.4375 C155.38123901 47.93421173 155.88747803 47.43092346 156.40905762 46.91238403 C173.11512204 31.10185236 173.11512204 31.10185236 182.0625 10.8125 C182.71529545 6.8231945 183.79223518 5.20776482 186.625 2.375 C189.90214089 0.08100138 192.69051597 -0.24217397 196.625 0.375 C199.79657936 1.78534061 201.68191498 3.49982597 203.625 6.375 C205.19788558 11.28878915 205.94037896 16.27653821 206.625 21.375 C207.77038131 29.74023314 209.07851968 38.05006834 210.58056641 46.35864258 C215.33124287 73.08682852 214.1102711 92.47063226 200.625 116.375 C200.07416748 117.35484863 200.07416748 117.35484863 199.51220703 118.35449219 C184.15916183 145.19751564 160.96615385 168.42416534 136.4296875 187.00732422 C135.21760303 187.92589797 134.0093052 188.84948797 132.8046875 189.77783203 C106.64878156 209.91648833 106.64878156 209.91648833 94.89501953 209.73681641 C90.40868422 209.02174339 86.83428082 206.47439954 83.0625 204.0625 C82.18988525 203.52069092 81.31727051 202.97888184 80.41821289 202.4206543 C72.52901764 197.45787478 64.96769132 192.11133911 57.625 186.375 C56.65304688 185.61574219 55.68109375 184.85648438 54.6796875 184.07421875 C37.2226818 170.07379965 20.06237901 154.16741252 6.84863281 136.04736328 C5.60461518 134.34713966 4.33187549 132.67149794 3.0546875 130.99609375 C-10.67723188 112.72167632 -22.57335492 90.00638472 -20.07427979 66.55276489 C-19.65741016 63.62166817 -19.18819862 60.70441718 -18.6953125 57.78515625 C-18.52248749 56.71937851 -18.34966248 55.65360077 -18.17160034 54.55552673 C-17.62252052 51.18146317 -17.06147939 47.80951983 -16.5 44.4375 C-16.13071762 42.18046811 -15.76222158 39.92330742 -15.39453125 37.66601562 C-14.5575209 32.54010685 -13.71919179 27.41449016 -12.8526001 22.29348755 C-12.51818182 20.24994612 -12.20743488 18.20245501 -11.91448975 16.15255737 C-11.75821106 15.09730865 -11.60193237 14.04205994 -11.44091797 12.95483398 C-11.24101761 11.52988869 -11.24101761 11.52988869 -11.03707886 10.07615662 C-9.53316859 3.94048695 -6.55058778 0.11178477 0 0 Z " fill="#323A5A" transform="translate(84.375,259.625)"/>
<path d="M0 0 C3.86685654 2.8122593 6.8282934 5.98528814 9.9140625 9.58984375 C19.80012522 22.24731273 19.80012522 22.24731273 32 32 C31.55494888 35.02634761 30.9366404 37.11404729 29.4375 39.8125 C26.79905663 45.66296139 27.54632368 50.33415623 29.625 56.1875 C32.18657545 62.10092417 35.99808299 65.54176803 42 68 C48.2700633 68.78790478 54.15816412 69.09271293 59.5625 65.5 C60.14128906 65.0359375 60.72007812 64.571875 61.31640625 64.09375 C63 63 63 63 67 63 C68.95117188 64.25341797 68.95117188 64.25341797 70.96875 65.9921875 C71.70480469 66.61480469 72.44085938 67.23742187 73.19921875 67.87890625 C73.95847656 68.53761719 74.71773438 69.19632812 75.5 69.875 C77.00748207 71.16749311 78.51780248 72.45668479 80.03125 73.7421875 C81.02995117 74.60626221 81.02995117 74.60626221 82.04882812 75.48779297 C85.10434406 77.85589428 87.41037338 78.91283164 91.25 79.48046875 C96.37313965 78.82406648 99.0756049 76.51892626 103 73.3125 C104.35363081 72.24541365 105.70779325 71.17900133 107.0625 70.11328125 C107.71347656 69.59330566 108.36445313 69.07333008 109.03515625 68.53759766 C111.95283644 66.25435339 114.96776532 64.12809179 118 62 C119.69270833 63.26953125 121.38541667 64.5390625 123.078125 65.80859375 C127.81600488 68.74569408 133.6037283 68.62202533 139 68 C141.29034494 67.13164074 143.29943032 66.11836899 145.40625 64.875 C147 64 147 64 149 64 C149.68774405 62.67741528 150.34711373 61.34013497 151 60 C151.804375 58.4840625 151.804375 58.4840625 152.625 56.9375 C154.64975238 52.10924433 154.73414984 47.13904891 154 42 C153.08624443 39.88142068 153.08624443 39.88142068 151.875 38.0625 C151.25625 37.051875 150.6375 36.04125 150 35 C151.13357694 31.41273119 153.42740241 29.55679963 156.25 27.1875 C160.86279449 23.13871532 165.11943823 18.85626562 169.3125 14.375 C169.89870117 13.75391357 170.48490234 13.13282715 171.08886719 12.49291992 C173.89636983 9.46800799 176.45424135 6.44318164 178.79296875 3.0390625 C179.52128906 2.03617187 180.24960937 1.03328125 181 0 C181.66 0 182.32 0 183 0 C183.67812422 4.14404234 184.34039758 8.2904726 185 12.4375 C185.19078125 13.60216797 185.3815625 14.76683594 185.578125 15.96679688 C189.16870126 38.72848569 181.15445391 56.67245321 167.91870117 74.86938477 C163.22833638 81.15427827 158.19952199 87.13277983 153 93 C152.52304688 93.54011719 152.04609375 94.08023438 151.5546875 94.63671875 C138.0513324 109.83701954 122.95181964 122.60727701 106.5 134.5 C105.93676025 134.90943848 105.37352051 135.31887695 104.79321289 135.74072266 C96.06818322 141.95299584 96.06818322 141.95299584 91.25 142.0625 C62.92881017 132.80364948 32.44601576 99.39742449 16 76 C15.57187012 75.40026367 15.14374023 74.80052734 14.70263672 74.18261719 C-1.43415286 51.42424069 -5.59101058 33.7274813 -1.38891602 6.20727539 C-1.0185975 4.1055493 -0.54539441 2.0625023 0 0 Z " fill="#5B6570" transform="translate(90,304)"/>
<path d="M0 0 C3.08002555 1.27218447 4.59345012 2.55139324 6.8125 5 C10.56874902 14.48947122 7.11056213 26.55031602 5.625 36.375 C5.40033012 37.90093707 5.17636798 39.42697852 4.953125 40.953125 C3.96726799 47.66219487 2.94354911 54.36422473 1.88671875 61.0625 C1.13723647 65.91222452 0.59645478 70.7369375 0.1875 75.625 C-0.6774082 85.0264591 -2.00738422 94.34935148 -3.375 103.6875 C-5.08592743 115.38077904 -6.6705119 127.076905 -8.0625 138.8125 C-8.22417138 140.16376019 -8.38603572 141.5149973 -8.5480957 142.86621094 C-8.8695303 145.5484755 -9.19081881 148.23075736 -9.51171875 150.91308594 C-9.63160156 151.91511047 -9.63160156 151.91511047 -9.75390625 152.93737793 C-9.92122194 154.33972578 -10.08786389 155.74215414 -10.25390625 157.14465332 C-10.75876947 161.40706627 -11.2762972 165.66755493 -11.81271362 169.92611694 C-12.05726012 171.89530629 -12.28769778 173.86623142 -12.51782227 175.8371582 C-12.66791748 177.01366943 -12.8180127 178.19018066 -12.97265625 179.40234375 C-13.09906494 180.43866943 -13.22547363 181.47499512 -13.35571289 182.54272461 C-14 185 -14 185 -17 187 C-18.90812457 187.30849918 -20.82756153 187.54914822 -22.75 187.75 C-34.04351543 189.37415105 -44.04832216 193.60939599 -53.046875 200.6796875 C-55 202 -55 202 -58 202 C-59.5078125 200.3828125 -59.5078125 200.3828125 -61.125 198.125 C-65.83877885 191.79704898 -71.15873488 186.08062287 -76.50390625 180.28515625 C-77.30699219 179.40730469 -78.11007813 178.52945313 -78.9375 177.625 C-79.66839844 176.83351562 -80.39929688 176.04203125 -81.15234375 175.2265625 C-82.83045706 173.20431179 -83.95478893 171.39687145 -85 169 C-84.23042969 168.62053223 -83.46085938 168.24106445 -82.66796875 167.85009766 C-79.42792033 165.60329249 -78.7511619 164.04444697 -77.3125 160.3984375 C-76.94922607 159.49718643 -76.94922607 159.49718643 -76.57861328 158.57772827 C-75.70289277 156.39126201 -74.85256658 154.19559414 -74 152 C-73.27346983 150.16906628 -72.54551154 148.33869885 -71.81640625 146.50878906 C-69.66106679 141.08312459 -67.52888329 135.64862126 -65.40258789 130.21151733 C-63.96766692 126.542322 -62.53012042 122.87416115 -61.09179688 119.20629883 C-59.0744023 114.06098456 -57.05821146 108.91520041 -55.04296875 103.76904297 C-52.08309379 96.21098595 -49.12047275 88.65400924 -46.15625 81.09765625 C-45.68384384 79.89334961 -45.21143768 78.68904297 -44.72471619 77.44824219 C-41.06589432 68.1235708 -37.39697902 58.80289186 -33.72499084 49.48339844 C-31.36616042 43.49128879 -29.02415058 37.49313458 -26.70407104 31.48591614 C-25.41710589 28.15869998 -24.11927107 24.83580027 -22.81884766 21.51382446 C-22.24042125 20.02808176 -21.66716246 18.54031472 -21.09960938 17.05038452 C-20.33881909 15.0541488 -19.5604557 13.06568774 -18.77734375 11.078125 C-18.35702881 9.98918945 -17.93671387 8.90025391 -17.50366211 7.77832031 C-13.52565043 0.42813799 -7.68526712 -0.73256446 0 0 Z " fill="#E3DCEB" transform="translate(333,22)"/>
<path d="M0 0 C-2.10437334 6.53329966 -4.46129218 12.93904473 -6.95703125 19.33203125 C-7.52712418 20.80002167 -7.52712418 20.80002167 -8.10873413 22.29766846 C-9.34129292 25.47007241 -10.57686316 28.64129382 -11.8125 31.8125 C-12.66401131 34.00244777 -13.51532813 36.19247118 -14.36645508 38.38256836 C-16.50246985 43.87757434 -18.64088194 49.37164386 -20.77990723 54.86547852 C-22.64399081 59.65446683 -24.50565928 64.44439294 -26.3671875 69.234375 C-29.57601953 77.49040337 -32.78706345 85.74556806 -36 94 C-40.80277918 90.50329273 -45.31592953 86.91667231 -49.625 82.8125 C-54.46581103 78.27813851 -59.51529359 74.12523401 -64.765625 70.07568359 C-69.79638334 66.19221764 -74.64936704 62.12896658 -79.4765625 57.99609375 C-83.69586035 54.65853771 -86.43753311 53.51702279 -91.99267578 53.67871094 C-95.36915706 54.21914506 -97.34952578 55.96430206 -99.9375 58.125 C-100.47834229 58.56730957 -101.01918457 59.00961914 -101.57641602 59.46533203 C-102.76102666 60.43787555 -103.93842255 61.41925741 -105.109375 62.40820312 C-107.09673826 64.08144802 -109.107559 65.72254787 -111.125 67.359375 C-118.11626603 73.0467934 -125.02513378 78.83066976 -131.875 84.6875 C-132.4517749 85.18040527 -133.0285498 85.67331055 -133.62280273 86.18115234 C-136.17086288 88.37310639 -138.67550825 90.56984953 -141 93 C-144 92 -144 92 -145.45800781 89.19604492 C-145.96862291 87.96251648 -146.46615065 86.7235199 -146.953125 85.48046875 C-147.21760437 84.82548904 -147.48208374 84.17050934 -147.75457764 83.49568176 C-148.3113041 82.10829078 -148.86237041 80.71861718 -149.40820312 79.3269043 C-150.24515378 77.19981653 -151.10548629 75.08332043 -151.96875 72.96679688 C-152.50664618 71.61775992 -153.04315104 70.26816721 -153.578125 68.91796875 C-153.83636047 68.28553757 -154.09459595 67.65310638 -154.36065674 67.00151062 C-155.65085135 63.6614096 -156.46526706 61.37422432 -155 58 C-130.70614472 25.19077277 -76.9894608 8.6292331 -39.15234375 2.6796875 C-26.09144093 0.74578741 -13.21088746 -0.6973489 0 0 Z " fill="#E4DCEB" transform="translate(271,86)"/>
<path d="M0 0 C-0.14100857 2.27113803 -0.28796755 4.54190725 -0.4375 6.8125 C-0.55931641 8.70935547 -0.55931641 8.70935547 -0.68359375 10.64453125 C-1 14 -1 14 -2 17 C-2.32285799 19.9790987 -2.61097059 22.95317618 -2.875 25.9375 C-3.62759152 34.05198037 -4.67638842 42.07554103 -6.03466797 50.11108398 C-7.57035365 59.57521638 -6.86476445 67.34142706 -4.86865234 76.74462891 C-3.38571495 83.82769642 -2.31758236 90.9855181 -1.21020508 98.13500977 C-0.81112681 100.69631322 -0.39881449 103.25527926 0.01367188 105.81445312 C5.22974016 138.893256 -5.77662167 167.18657931 -25 194 C-28.23844354 198.41306543 -31.56997743 202.73445911 -35 207 C-35.64050293 207.79929932 -35.64050293 207.79929932 -36.29394531 208.61474609 C-48.55055674 223.75930442 -62.49222775 238.18209702 -78 250 C-79.56277605 251.29133266 -81.12526966 252.5830072 -82.6875 253.875 C-97.63766238 265.76879004 -117.89284217 281.77793826 -137.5234375 283.28515625 C-143.25483273 282.62523219 -148.70147054 280.17820059 -154 278 C-153.42185547 277.72599365 -152.84371094 277.4519873 -152.24804688 277.16967773 C-150.02923665 276.01521207 -148.0686856 274.73310631 -146.03125 273.28515625 C-145.29519531 272.76373047 -144.55914062 272.24230469 -143.80078125 271.70507812 C-142.66189453 270.89200195 -142.66189453 270.89200195 -141.5 270.0625 C-140.74074219 269.52431641 -139.98148438 268.98613281 -139.19921875 268.43164062 C-137.12804162 266.96077841 -135.05877175 265.48817873 -133 264 C-132.27876953 263.50814209 -131.55753906 263.01628418 -130.81445312 262.50952148 C-128.7192323 261.03611792 -128.7192323 261.03611792 -128 258 C-125.3671875 256.34375 -125.3671875 256.34375 -121.875 254.5 C-106.68184951 246.19047756 -93.19472547 234.87020125 -80.453125 223.23046875 C-78.85493442 221.77733687 -77.24090744 220.34137557 -75.609375 218.92578125 C-59.090712 204.51191563 -44.68432145 187.16358081 -34 168 C-33.66129883 167.39365723 -33.32259766 166.78731445 -32.97363281 166.16259766 C-18.62833345 140.10968301 -20.16902726 119.529826 -25.32421875 90.78027344 C-26.34520236 85.06896194 -27.32645516 79.35288758 -28.25 73.625 C-28.50716797 72.04356201 -28.50716797 72.04356201 -28.76953125 70.43017578 C-29.89120647 63.04239418 -30.18035015 55.83756848 -30.25 48.375 C-30.39644737 37.53877669 -33.22078708 30.05110195 -39 21 C-40.00098118 19.33392243 -41.00138577 17.66749735 -42 16 C-29.19190403 7.18603291 -16.06880615 0 0 0 Z " fill="#CDC6D4" transform="translate(318,208)"/>
<path d="M0 0 C4.41585674 1.29765462 7.86121855 2.99939347 11.67578125 5.5625 C12.74272217 6.27229004 13.80966309 6.98208008 14.90893555 7.71337891 C15.46463226 8.08698547 16.02032898 8.46059204 16.59286499 8.84552002 C19.50064819 10.79766537 22.42611006 12.7229114 25.3515625 14.6484375 C25.92821152 15.02833832 26.50486053 15.40823914 27.09898376 15.7996521 C38.90273976 23.55442504 50.97259452 30.51477664 64 36 C64.84433594 36.3609375 65.68867188 36.721875 66.55859375 37.09375 C78.84985306 41.57083602 92.78882735 39.79196515 104.375 34.44140625 C114.46358872 29.4911298 123.20172496 22.93687914 132 16 C133.3094012 19.9282036 132.0748981 22.16796692 130.5625 25.8125 C130.29026611 26.47540039 130.01803223 27.13830078 129.73754883 27.82128906 C120.48113087 49.70434392 101.54457953 75.26933886 79.125 84.8125 C66.38962231 88.73692713 53.24781092 88.364702 40.0625 88.5 C18.20693843 88.51960921 18.20693843 88.51960921 -3.0625 93.0625 C-6.36452968 94.14412901 -9.624193 95.18007735 -13 96 C-11.69122828 82.6776916 -10.02057811 69.43804896 -8.125 56.1875 C-7.5907767 52.41950636 -7.0589201 48.65118036 -6.52734375 44.8828125 C-6.33109154 43.49446953 -6.33109154 43.49446953 -6.13087463 42.07807922 C-5.3137714 36.28178822 -4.52005908 30.48292954 -3.75390625 24.6796875 C-3.66095276 23.97566299 -3.56799927 23.27163849 -3.472229 22.54627991 C-3.0461197 19.30958751 -2.62413817 16.07239273 -2.20556641 12.8347168 C-2.05909668 11.71492432 -1.91262695 10.59513184 -1.76171875 9.44140625 C-1.63756592 8.47920166 -1.51341309 7.51699707 -1.38549805 6.52563477 C-1.04548207 4.29798102 -0.59205292 2.17235177 0 0 Z " fill="#E4DDEC" transform="translate(353,109)"/>
<path d="M0 0 C1.3094012 3.9282036 0.0748981 6.16796692 -1.4375 9.8125 C-1.84585083 10.80685059 -1.84585083 10.80685059 -2.26245117 11.82128906 C-11.51886913 33.70434392 -30.45542047 59.26933886 -52.875 68.8125 C-65.32740255 72.78354176 -78.08894338 72.22403061 -91 72 C-87.84228182 68.7974915 -84.62195709 65.72525626 -81.25 62.75 C-69.7597662 52.41730086 -58.81804299 41.09062217 -52 27 C-52 26.01 -52 25.02 -52 24 C-51.030625 23.9484375 -50.06125 23.896875 -49.0625 23.84375 C-37.93468316 22.998759 -29.56346348 19.61729836 -20 14 C-18.44925781 13.09121094 -18.44925781 13.09121094 -16.8671875 12.1640625 C-10.92944086 8.50879229 -5.409025 4.39399809 0 0 Z " fill="#CDC6D4" transform="translate(485,125)"/>
</svg>
