<?xml version="1.0" encoding="UTF-8"?>
<svg version="1.1" xmlns="http://www.w3.org/2000/svg" width="512" height="512">
<path d="M0 0 C2.99641461 2.6925001 5.91879675 5.45602323 8.83203125 8.23828125 C9.75757813 9.11097656 10.683125 9.98367187 11.63671875 10.8828125 C18.7876106 17.80074329 24.92205637 25.25086065 30.83203125 33.23828125 C31.23164063 33.77710937 31.63125 34.3159375 32.04296875 34.87109375 C55.5313343 66.87202132 70.62749802 106.79497186 64.64453125 146.80078125 C58.87432843 181.32786194 38.72958835 212.26805277 10.83203125 233.23828125 C10.30915527 233.63611816 9.7862793 234.03395508 9.24755859 234.44384766 C-24.83974011 260.23828125 -24.83974011 260.23828125 -38.16796875 260.23828125 C-38.14702148 260.95371094 -38.12607422 261.66914063 -38.10449219 262.40625 C-38.02076042 265.68344777 -37.96912824 268.96041966 -37.91796875 272.23828125 C-37.88445312 273.36363281 -37.8509375 274.48898437 -37.81640625 275.6484375 C-37.71634962 284.20327939 -38.86095968 290.03038584 -44.91796875 296.23828125 C-45.66046875 296.89828125 -46.40296875 297.55828125 -47.16796875 298.23828125 C-46.04261719 297.83996094 -44.91726563 297.44164062 -43.7578125 297.03125 C-30.45769779 292.40746738 -17.31975462 288.92235549 -3.16796875 288.23828125 C-1.91886719 288.17640625 -1.91886719 288.17640625 -0.64453125 288.11328125 C14.54406171 287.74839013 34.41207557 289.48621327 47.83203125 297.23828125 C53.34117427 308.25656728 47.09763155 328.78069583 43.64453125 339.86328125 C36.92662353 358.6533694 26.72943422 374.99931384 12.83203125 389.23828125 C11.95998047 390.20314453 11.95998047 390.20314453 11.0703125 391.1875 C-7.42516022 411.17379167 -37.80476035 422.96094845 -64.57543945 424.36450195 C-78.74879076 424.79136931 -92.42034234 423.90668933 -106.16796875 420.23828125 C-106.1215625 420.99753906 -106.07515625 421.75679688 -106.02734375 422.5390625 C-105.99125 423.53292969 -105.95515625 424.52679688 -105.91796875 425.55078125 C-105.8715625 426.53691406 -105.82515625 427.52304687 -105.77734375 428.5390625 C-106.16796875 431.23828125 -106.16796875 431.23828125 -107.98828125 433.10546875 C-111.05291279 434.6981984 -112.90756895 434.15969858 -116.16796875 433.23828125 C-116.82796875 432.57828125 -117.48796875 431.91828125 -118.16796875 431.23828125 C-118.16796875 430.24828125 -118.16796875 429.25828125 -118.16796875 428.23828125 C-124.10796875 428.23828125 -130.04796875 428.23828125 -136.16796875 428.23828125 C-136.49796875 429.55828125 -136.82796875 430.87828125 -137.16796875 432.23828125 C-140.16796875 434.23828125 -140.16796875 434.23828125 -143.23046875 433.98828125 C-146.16796875 433.23828125 -146.16796875 433.23828125 -148.16796875 431.23828125 C-148.36328125 428.63671875 -148.36328125 428.63671875 -148.29296875 425.61328125 C-148.27492187 424.61039062 -148.256875 423.6075 -148.23828125 422.57421875 C-148.21507812 421.80335938 -148.191875 421.0325 -148.16796875 420.23828125 C-149.08578125 420.44324219 -150.00359375 420.64820313 -150.94921875 420.859375 C-152.79 421.26349609 -152.79 421.26349609 -154.66796875 421.67578125 C-156.4778125 422.07603516 -156.4778125 422.07603516 -158.32421875 422.484375 C-188.17485257 428.33922493 -221.39431017 422.51086482 -247 405.81640625 C-254.23233237 400.87482731 -260.83787193 395.29074224 -267.16796875 389.23828125 C-267.84085938 388.62855469 -268.51375 388.01882813 -269.20703125 387.390625 C-289.53248257 368.32033103 -302.13888431 338.10802036 -303.328125 310.5234375 C-303.36167273 309.15763576 -303.39158201 307.7917401 -303.41796875 306.42578125 C-303.44375 305.14058594 -303.46953125 303.85539062 -303.49609375 302.53125 C-303.16796875 299.23828125 -303.16796875 299.23828125 -302.12109375 297.44921875 C-299.16104914 295.61399109 -295.98280588 294.65482437 -292.66796875 293.67578125 C-291.95036377 293.45889648 -291.23275879 293.24201172 -290.4934082 293.01855469 C-261.74558827 284.53548592 -233.97395549 288.50359688 -206.16796875 298.23828125 C-206.63847656 297.88636719 -207.10898438 297.53445313 -207.59375 297.171875 C-208.21636719 296.67816406 -208.83898437 296.18445313 -209.48046875 295.67578125 C-210.09535156 295.20011719 -210.71023437 294.72445313 -211.34375 294.234375 C-217.22388265 287.80022557 -216.53815041 280.54019249 -216.35546875 272.30078125 C-216.34193359 271.13998047 -216.32839844 269.97917969 -216.31445312 268.78320312 C-216.27928285 265.93441073 -216.23006162 263.08659281 -216.16796875 260.23828125 C-217.42609375 259.85542969 -218.68421875 259.47257812 -219.98046875 259.078125 C-258.34421376 246.24275484 -291.3148065 215.13532061 -309.23046875 179.40234375 C-323.87375708 148.82454689 -323.01035099 114.24821708 -312.09082031 82.75146484 C-293.2296567 31.38722721 -252.43411768 -9.94188605 -203.35351562 -33.15893555 C-134.78007334 -64.54324015 -55.82423406 -49.24226102 0 0 Z M-205.16796875 299.23828125 C-202.26523946 301.55025408 -199.20000264 303.43530702 -195.99169922 305.29394531 C-175.85706493 316.98827813 -160.49680374 332.94399635 -149.16796875 353.23828125 C-148.83796875 353.23828125 -148.50796875 353.23828125 -148.16796875 353.23828125 C-148.16796875 336.07828125 -148.16796875 318.91828125 -148.16796875 301.23828125 C-164.30765648 300.94945766 -164.30765648 300.94945766 -180.44750977 300.67016602 C-182.48063799 300.63201672 -184.5137602 300.59354538 -186.546875 300.5546875 C-187.59065308 300.53821167 -188.63443115 300.52173584 -189.70983887 300.50476074 C-194.95301833 300.4004344 -199.99832942 300.13333279 -205.16796875 299.23828125 Z M-56.16796875 300.23828125 C-57.84696786 300.34993527 -59.52946937 300.41386333 -61.21191406 300.44360352 C-62.22656738 300.4637854 -63.2412207 300.48396729 -64.28662109 300.50476074 C-65.34574707 300.52123657 -66.40487305 300.5377124 -67.49609375 300.5546875 C-68.47497559 300.57333862 -69.45385742 300.59198975 -70.46240234 300.61120605 C-74.11416721 300.67943298 -77.7660786 300.73962684 -81.41796875 300.80078125 C-89.58546875 300.94515625 -97.75296875 301.08953125 -106.16796875 301.23828125 C-106.16796875 318.39828125 -106.16796875 335.55828125 -106.16796875 353.23828125 C-103.34903858 349.71461854 -100.98487459 346.45302378 -98.60546875 342.67578125 C-94.1042904 335.8611481 -88.82045106 330.10816673 -83.16796875 324.23828125 C-82.5234375 323.51898438 -81.87890625 322.7996875 -81.21484375 322.05859375 C-72.49290479 312.61614679 -60.50163987 306.0347118 -49.16796875 300.23828125 C-52.44303018 299.14659411 -53.01309199 299.38521745 -56.16796875 300.23828125 Z " fill="#343739" transform="translate(383.16796875,63.76171875)"/>
<path d="M0 0 C0.82886719 0.62519531 1.65773438 1.25039062 2.51171875 1.89453125 C33.97255479 26.32124468 62.32249611 64.41164157 68.5625 104.625 C67.85274843 108.88350943 66.33584249 110.12484752 63.18286133 112.91088867 C60.83838617 115.15467281 58.89587392 117.52665188 56.88671875 120.07421875 C52.15903052 125.912626 47.07542155 131.26946376 41.75 136.5625 C40.83629639 137.47346436 39.92259277 138.38442871 38.98120117 139.32299805 C21.02851594 157 21.02851594 157 16 157 C16.165 155.783125 16.33 154.56625 16.5 153.3125 C17.76824891 141.05276053 17.58071812 131.15435027 10.390625 120.6484375 C3.30845696 111.974406 -5.53383843 108.06803884 -16.5390625 106.6796875 C-25.75428428 106.24086742 -34.14270469 109.5730564 -41.22265625 115.37890625 C-48.20748572 121.74968478 -52.6757635 128.4162032 -53.3828125 138.0703125 C-53.84605658 149.27932098 -52.24092771 157.37953502 -45 166.25 C-40.06615073 171.45386093 -34.51988949 174.20710957 -28 177 C-26.66182017 177.65688429 -25.32633033 178.31950748 -24 179 C-25 182 -25 182 -28.12736511 183.66125488 C-34.54117625 185.83515438 -41.26963042 185.43534583 -47.9621582 185.41992188 C-49.47257105 185.42727079 -50.98297829 185.43585941 -52.49337769 185.44558716 C-56.57827313 185.46772717 -60.6629664 185.47073757 -64.7479136 185.46883965 C-68.16710787 185.46871958 -71.58625987 185.47729859 -75.00544232 185.48561716 C-83.07779452 185.50482479 -91.15004332 185.50774495 -99.22241211 185.50097656 C-107.52837879 185.49433997 -115.83390093 185.51719065 -124.13977748 185.55429029 C-131.28997126 185.58505984 -138.44002259 185.59633942 -145.59028119 185.59245348 C-149.85236498 185.59039319 -154.1141028 185.59575284 -158.37612343 185.62034607 C-162.38763339 185.64273075 -166.39842454 185.6406393 -170.40993881 185.62041855 C-171.87437062 185.6170289 -173.33885194 185.6220086 -174.80321693 185.63640213 C-184.03456325 185.72081162 -190.9361403 184.63167205 -199 180 C-196.54544565 177.54544565 -194.6963213 177.20855855 -191.375 176.25 C-181.86503129 173.16722306 -174.9316826 167.47140304 -169.7421875 158.9296875 C-165.42299008 150.01945507 -165.23402057 137.9072119 -168.4375 128.5625 C-173.44750345 118.31555914 -181.4651661 111.98734635 -192 108 C-201.46448757 105.64115848 -210.30234286 106.6062057 -219 111 C-228.33523868 117.03288013 -233.83744172 124.3027411 -237 135 C-237.95945953 143.15056021 -236.78641859 151.04086718 -235 159 C-237.69220412 157.03291676 -240.34900884 155.02223044 -243 153 C-243.763125 152.42765625 -244.52625 151.8553125 -245.3125 151.265625 C-258.21173272 141.18809944 -270.27602871 129.11883974 -280.265625 116.15234375 C-281.90317377 114.12016047 -283.6109905 112.4732366 -285.5625 110.75 C-288 108 -288 108 -288.2421875 104.7421875 C-285.77258969 66.58291809 -254.52543514 29.5170096 -227.11083984 5.33349609 C-223.20744828 2.03604233 -219.15488381 -1.02803052 -215 -4 C-214.4210498 -4.41797852 -213.84209961 -4.83595703 -213.24560547 -5.26660156 C-148.65724834 -51.41885237 -62.27062678 -49.62051376 0 0 Z " fill="#FEF700" transform="translate(366,65)"/>
<path d="M0 0 C1.41133756 -0.0067786 2.82266627 -0.0156831 4.23397827 -0.02655029 C8.06056324 -0.04932219 11.88647333 -0.04051657 15.71306992 -0.02465487 C19.7199458 -0.01198469 23.72676439 -0.02373907 27.73364258 -0.03158569 C34.46218223 -0.04067905 41.19044736 -0.02870277 47.91894531 -0.00488281 C55.69503561 0.02232811 63.47047042 0.0135137 71.24654484 -0.01401484 C77.92613105 -0.03671404 84.60552008 -0.03990211 91.28513241 -0.02682149 C95.27317485 -0.01903134 99.2609093 -0.0179731 103.24893188 -0.03450394 C106.99862941 -0.04896154 110.74748293 -0.03890486 114.49708939 -0.01003265 C115.87210311 -0.00342852 117.24718803 -0.00530822 118.62217331 -0.01634598 C129.09664733 -0.09266995 129.09664733 -0.09266995 133.61021423 2.69790649 C135.7023712 6.36445991 135.99069782 9.36354162 135.92407227 13.47900391 C135.93480522 14.63848038 135.93480522 14.63848038 135.945755 15.82138062 C135.96261786 18.36801865 135.94325528 20.91289017 135.921875 23.45947266 C135.92270393 25.23396958 135.92516422 27.00846642 135.92918396 28.78295898 C135.93204029 32.49860802 135.91735721 36.21365372 135.88989258 39.92919922 C135.8558098 44.68756261 135.86182941 49.4448473 135.88055515 54.20326233 C135.8911331 57.86650554 135.88218016 61.52949855 135.86717033 65.19271851 C135.86199388 66.94696306 135.86246382 68.7012338 135.86871529 70.45547485 C135.87417725 72.90920015 135.85376293 75.36139105 135.82641602 77.81494141 C135.83294189 78.53716888 135.83946777 79.25939636 135.84619141 80.00350952 C135.77906017 83.55293736 135.35720467 85.54511193 133.4471283 88.57397461 C130.0401477 91.85259161 127.14422349 91.7753529 122.61294556 91.79414368 C120.83800468 91.80487663 120.83800468 91.80487663 119.02720642 91.81582642 C117.0774868 91.81985977 117.0774868 91.81985977 115.08837891 91.82397461 C113.70690236 91.83024044 112.32542749 91.83688734 110.94395447 91.84388733 C106.40665863 91.86491181 101.86936251 91.87528657 97.33203125 91.88525391 C95.76980954 91.88930173 94.20758801 91.89341866 92.64536667 91.89760399 C85.30748781 91.91665024 77.969619 91.9308838 70.63172019 91.93921596 C62.1605666 91.94899387 53.68967394 91.97533 45.21861231 92.01571685 C38.67075491 92.04586401 32.12297237 92.0606834 25.5750469 92.06399697 C21.66409627 92.06634862 17.75342457 92.07532392 13.84254837 92.10045815 C10.16363959 92.1237204 6.48519378 92.12797989 2.80623055 92.11769676 C0.81404283 92.11696456 -1.17812129 92.13606771 -3.17021179 92.15576172 C-4.35914536 92.1488179 -5.54807892 92.14187408 -6.77304077 92.13471985 C-7.80431784 92.1371082 -8.8355949 92.13949656 -9.89812279 92.14195728 C-13.44872051 91.5162725 -15.12693141 90.11274961 -17.70703125 87.64697266 C-19.22028054 84.62047408 -18.88059902 81.47705914 -18.89990234 78.15551758 C-18.90807983 77.38297134 -18.91625732 76.61042511 -18.92468262 75.81446838 C-18.94954054 73.25213398 -18.96605348 70.68985498 -18.98046875 68.12744141 C-18.98579243 67.25291132 -18.9911161 66.37838123 -18.9966011 65.47735023 C-19.02333428 60.84859722 -19.04270872 56.21987119 -19.05712891 51.59106445 C-19.07377842 46.80909963 -19.11855786 42.02782378 -19.16950035 37.2461195 C-19.20314978 33.5700857 -19.21470376 29.89421591 -19.22035599 26.21804237 C-19.22707475 24.45536343 -19.24231312 22.6926955 -19.2662468 20.93016624 C-19.29785364 18.46174283 -19.29794263 15.99518381 -19.29052734 13.52661133 C-19.30693268 12.79967072 -19.32333801 12.0727301 -19.34024048 11.32376099 C-19.2979701 7.88299831 -18.73175576 5.69042348 -17.0272522 2.69493103 C-11.67832977 -0.60435858 -6.13139947 -0.04922009 0 0 Z " fill="#C48410" transform="translate(197.70703125,261.35302734375)"/>
<path d="M0 0 C0.33 0 0.66 0 1 0 C8.16422734 27.88931356 0.21477442 56.51799415 -13.67382812 80.79785156 C-16.97003753 86.2713068 -20.84318249 91.15037958 -25 96 C-25.42893555 96.5057959 -25.85787109 97.0115918 -26.29980469 97.53271484 C-42.22788623 116.17057749 -65.12926407 134.43877866 -89 141 C-89.00410889 139.71947754 -89.00821777 138.43895508 -89.01245117 137.11962891 C-89.03436471 132.32951627 -89.0887803 127.54021083 -89.15258789 122.75048828 C-89.17566176 120.68481228 -89.19013848 118.61902041 -89.19555664 116.55322266 C-89.20492409 113.56861031 -89.24608399 110.58579403 -89.29296875 107.6015625 C-89.2890361 106.69072906 -89.28510345 105.77989563 -89.28105164 104.84146118 C-89.43185322 98.08442144 -91.09975959 92.58579806 -95 87 C-97.52656275 84.94143854 -100.09693546 83.45760563 -103 82 C-104.485 81.01 -104.485 81.01 -106 80 C-101.71 78.68 -97.42 77.36 -93 76 C-93 75.34 -93 74.68 -93 74 C-94.16015625 73.58041016 -94.16015625 73.58041016 -95.34375 73.15234375 C-107.27159783 68.56130331 -114.76918754 61.75648952 -120.875 50.5625 C-124.06240082 40.82748666 -123.12808259 28.75104831 -118.6640625 19.6484375 C-112.86593813 10.42043674 -104.31903805 4.5488782 -93.921875 1.36328125 C-84.43734885 -0.42952552 -74.65936482 1.6635088 -66.3828125 6.54296875 C-58.35630871 12.44798922 -52.41936861 20.24004708 -50 30 C-49.25769645 37.62716894 -50.00212351 44.63283044 -52 52 C-35.56345888 41.35886153 -20.8253329 26.62503763 -8.80078125 11.23828125 C-7.13795337 9.17146916 -5.40902203 7.33748959 -3.5 5.5 C-0.813661 3.186339 -0.813661 3.186339 0 0 Z " fill="#E9DE11" transform="translate(434,170)"/>
<path d="M0 0 C0.54011719 0.69480469 1.08023438 1.38960937 1.63671875 2.10546875 C4.24380833 5.29861483 6.99788763 8.30342511 9.8125 11.3125 C13.0633608 14.80447199 16.29222839 18.29494122 19.375 21.9375 C28.02495744 31.89549978 37.59358384 40.9117611 48 49 C49.66802381 50.33163514 51.33507199 51.66449625 53 53 C52.855625 52.42894531 52.71125 51.85789063 52.5625 51.26953125 C49.81671416 39.27578616 49.81867984 28.90729153 56 18 C61.83914931 9.40790189 70.73929253 3.02181428 81 1 C91.33421945 -0.0926047 100.38385905 2.14021553 108.83203125 8.2109375 C116.14364271 14.24466372 122.12608684 21.24402072 123.21875 30.94140625 C124.10321699 42.9480457 122.73043548 51.91240156 114.75 61.3125 C107.95335855 68.38632911 101.45825287 71.61605512 92 74 C96.80170043 77.70764211 100.97920683 79.15988932 107 80 C104 82 104 82 102.1328125 82.9375 C95.89738202 86.23718305 93.38927035 90.45909129 91 97 C90.3557264 100.55332236 90.27740233 103.99625235 90.29296875 107.6015625 C90.27028679 109.04527725 90.27028679 109.04527725 90.24714661 110.51815796 C90.20459477 113.55401637 90.19546313 116.58887432 90.1875 119.625 C90.16433042 121.69924475 90.13896001 123.77346615 90.11132812 125.84765625 C90.0487971 130.89852468 90.01620815 135.94877917 90 141 C80.44241511 137.94129348 80.44241511 137.94129348 76.67578125 135.87109375 C75.96454102 135.48131348 75.25330078 135.0915332 74.52050781 134.68994141 C73.42754395 134.06998291 73.42754395 134.06998291 72.3125 133.4375 C71.53358398 132.99841309 70.75466797 132.55932617 69.95214844 132.10693359 C43.49660899 116.92992232 21.40945173 95.90373339 8.0625 68.3125 C7.60166016 67.36270264 7.14082031 66.41290527 6.66601562 65.43432617 C-2.4479504 45.93212665 -5.51239117 21.01599133 0 0 Z " fill="#E9DE11" transform="translate(77,170)"/>
<path d="M0 0 C0.82886719 0.62519531 1.65773438 1.25039062 2.51171875 1.89453125 C20.09670167 15.54780283 34.82773059 32.43944735 47 51 C46.67 51.66 46.34 52.32 46 53 C45.13375 52.071875 44.2675 51.14375 43.375 50.1875 C37.72023169 44.5554416 31.39067178 39.75588756 25 35 C24.42781738 34.57283691 23.85563477 34.14567383 23.26611328 33.70556641 C-15.96244195 4.88987674 -65.13476215 -3.21137751 -112.625 -3.3125 C-113.60723541 -3.31626648 -114.58947083 -3.32003296 -115.60147095 -3.32391357 C-133.62495866 -3.35895856 -150.70812413 -1.61313825 -168.3125 2.1875 C-169.02744629 2.34094879 -169.74239258 2.49439758 -170.47900391 2.65249634 C-207.34046143 10.63426365 -238.43453899 27.42596013 -266 53 C-266 40.70395967 -245.90049671 23.68967446 -237.6875 15.375 C-230.56070977 8.28045413 -223.17683816 1.84885512 -215 -4 C-214.4210498 -4.41797852 -213.84209961 -4.83595703 -213.24560547 -5.26660156 C-148.65724834 -51.41885237 -62.27062678 -49.62051376 0 0 Z " fill="#FDFABD" transform="translate(366,65)"/>
<path d="M0 0 C0.82858521 -0.00700928 1.65717041 -0.01401855 2.51086426 -0.02124023 C5.23154887 -0.03874915 7.95118104 -0.0272231 10.671875 -0.01367188 C12.5732442 -0.01636884 14.47461206 -0.02025296 16.37597656 -0.02526855 C20.35364969 -0.03115398 24.33096261 -0.0226315 28.30859375 -0.00390625 C33.39622676 0.0188827 38.48301561 0.00575449 43.57061768 -0.01819611 C47.4946931 -0.03267995 51.41856981 -0.02803624 55.34265137 -0.01768494 C57.2180593 -0.0150248 59.09348552 -0.01826223 60.96887207 -0.02760315 C63.59431452 -0.03781151 66.21840755 -0.02220864 68.84375 0 C69.61174927 -0.00809692 70.37974854 -0.01619385 71.17102051 -0.02453613 C76.66666402 0.06118501 79.86910087 1.41937831 84.421875 4.51757812 C88.49585874 8.96963005 87.8555567 14.3685693 87.8203125 20.07617188 C87.82318268 21.09808121 87.82605286 22.11999054 87.82901001 23.17286682 C87.83104824 25.33050085 87.82553526 27.48815345 87.81298828 29.64575195 C87.79694823 32.94003865 87.81283715 36.23309539 87.83203125 39.52734375 C87.83004845 41.62695582 87.82620402 43.72656713 87.8203125 45.82617188 C87.82638519 46.80758652 87.83245789 47.78900116 87.8387146 48.80015564 C87.78500449 54.05039065 87.65667847 58.15096506 84.421875 62.51757812 C79.07077289 66.21237916 75.26747201 67.10288078 68.84375 67.03515625 C68.01516479 67.04216553 67.18657959 67.0491748 66.33288574 67.05639648 C63.61220113 67.0739054 60.89256896 67.06237935 58.171875 67.04882812 C56.2705058 67.05152509 54.36913794 67.05540921 52.46777344 67.0604248 C48.49010031 67.06631023 44.51278739 67.05778775 40.53515625 67.0390625 C35.44752324 67.01627355 30.36073439 67.02940176 25.27313232 67.05335236 C21.3490569 67.0678362 17.42518019 67.06319249 13.50109863 67.05284119 C11.6256907 67.05018105 9.75026448 67.05341848 7.87487793 67.0627594 C5.24943548 67.07296776 2.62534245 67.05736489 0 67.03515625 C-1.1519989 67.04730164 -1.1519989 67.04730164 -2.32727051 67.05969238 C-7.81954292 66.97402383 -11.04474453 65.64776299 -15.578125 62.51757812 C-19.37846855 57.38755093 -19.01448934 51.9555704 -18.9765625 45.82617188 C-18.97943268 44.80330582 -18.98230286 43.78043976 -18.98526001 42.72657776 C-18.98729592 40.57072392 -18.98179926 38.41485141 -18.96923828 36.2590332 C-18.95316185 32.96263316 -18.96911207 29.66745612 -18.98828125 26.37109375 C-18.98629906 24.27278376 -18.98245588 22.17447453 -18.9765625 20.07617188 C-18.98263519 19.092733 -18.98870789 18.10929413 -18.9949646 17.09605408 C-18.90314489 8.1511619 -18.90314489 8.1511619 -15.578125 4.51757812 C-10.19863403 0.85679078 -6.43606415 -0.06785465 0 0 Z " fill="#653B17" transform="translate(221.578125,274.482421875)"/>
<path d="M0 0 C-1.12938245 3.38814736 -1.68975265 3.74794896 -4.55078125 5.64453125 C-5.30133789 6.14895752 -6.05189453 6.65338379 -6.82519531 7.1730957 C-7.64600586 7.71409912 -8.46681641 8.25510254 -9.3125 8.8125 C-11.06452154 9.98851219 -12.81580105 11.16563049 -14.56640625 12.34375 C-15.92209717 13.25253906 -15.92209717 13.25253906 -17.30517578 14.1796875 C-21.4895064 17.00613877 -25.62022004 19.90717304 -29.75 22.8125 C-31.4164919 23.98201991 -33.08316204 25.15128586 -34.75 26.3203125 C-35.59949219 26.91618164 -36.44898438 27.51205078 -37.32421875 28.12597656 C-48.57793829 36.00768744 -59.85522163 43.85661375 -71.1875 51.625 C-77.00309698 55.61198528 -82.78868871 59.64025163 -88.5625 63.6875 C-133.23807497 95 -133.23807497 95 -135 95 C-136.86244573 75.46501364 -124.99515083 53.18509961 -112.9140625 38.45703125 C-110.66529478 35.91237304 -108.35012648 33.45112365 -106 31 C-105.25105469 30.17628906 -104.50210937 29.35257812 -103.73046875 28.50390625 C-77.51698433 0.63849412 -36.49981553 -8.67322349 0 0 Z " fill="#8FE756" transform="translate(412,367)"/>
<path d="M0 0 C20.1184353 16.7568416 34.26206382 38.03288918 40.171875 63.6953125 C40.50017841 67.4160845 40.52622284 70.97859738 40.171875 74.6953125 C34.03476817 71.35699615 28.38262676 67.4618358 22.671875 63.4453125 C20.60942985 62.00252576 18.54692828 60.55981966 16.484375 59.1171875 C14.91042969 58.01407227 14.91042969 58.01407227 13.3046875 56.88867188 C8.43509795 53.47935201 3.5532304 50.08775379 -1.328125 46.6953125 C-3.24485811 45.36207468 -5.16152459 44.02874107 -7.078125 42.6953125 C-8.026875 42.0353125 -8.975625 41.3753125 -9.953125 40.6953125 C-18.578125 34.6953125 -18.578125 34.6953125 -21.45483398 32.6940918 C-23.3657642 31.36477021 -25.27673407 30.03550561 -27.18774414 28.70629883 C-32.06751002 25.31205902 -36.94651966 21.9167406 -41.82421875 18.51953125 C-50.20715264 12.68226135 -58.59078096 6.84697918 -67.015625 1.0703125 C-68.90460035 -0.22865355 -70.79302658 -1.52841262 -72.68115234 -2.82861328 C-74.26868994 -3.92006795 -75.85779713 -5.00924042 -77.44775391 -6.09716797 C-80.24577606 -8.01396164 -83.03736955 -9.93983354 -85.828125 -11.8671875 C-86.72039795 -12.47578613 -87.6126709 -13.08438477 -88.53198242 -13.71142578 C-89.35158447 -14.27974121 -90.17118652 -14.84805664 -91.015625 -15.43359375 C-91.75167969 -15.93963135 -92.48773438 -16.44566895 -93.24609375 -16.96704102 C-93.76816406 -17.40846436 -94.29023437 -17.8498877 -94.828125 -18.3046875 C-94.828125 -18.9646875 -94.828125 -19.6246875 -94.828125 -20.3046875 C-61.58519777 -28.3058505 -27.0645379 -21.12179545 0 0 Z " fill="#8FE756" transform="translate(194.828125,387.3046875)"/>
<path d="M0 0 C4.98186771 2.55858885 9.62253846 5.36245261 14.125 8.69921875 C19.74986197 12.83024945 25.45191154 16.83714555 31.1875 20.8125 C32.19143799 21.50972168 33.19537598 22.20694336 34.22973633 22.92529297 C40.49773422 27.27513005 46.77971264 31.60409899 53.07299805 35.91723633 C59.27144903 40.17197748 65.4241004 44.49148764 71.57885742 48.80908203 C76.70120613 52.39949042 81.83930399 55.96496255 87 59.5 C94.63209278 64.72993308 102.21312239 70.03123067 109.78515625 75.34765625 C113.40845778 77.89023935 117.04254158 80.41649963 120.68359375 82.93359375 C121.60495117 83.57256592 122.52630859 84.21153809 123.47558594 84.86987305 C125.25378552 86.10267058 127.03430997 87.33212289 128.81738281 88.55786133 C130.01186035 89.3877356 130.01186035 89.3877356 131.23046875 90.234375 C131.93582764 90.72131836 132.64118652 91.20826172 133.36791992 91.70996094 C135 93 135 93 136 95 C109.51637421 103.08954388 80.62409106 97.76522527 56.5 85.3125 C33.19556773 72.76739945 15.74412258 52.52057163 6 28 C5.62488281 27.05809814 5.62488281 27.05809814 5.2421875 26.09716797 C1.89796285 17.47478876 0.17205334 9.27523941 0 0 Z " fill="#33BF65" transform="translate(93,378)"/>
<path d="M0 0 C0.31427599 24.60332006 -13.85963456 48.26255007 -30.26538086 65.66625977 C-41.50884607 77.18706748 -54.24688201 84.7647343 -69 91 C-69.97710937 91.42152344 -70.95421875 91.84304688 -71.9609375 92.27734375 C-92.06051255 100.27492241 -115.22230057 100.13331398 -136 95 C-132.37378125 91.14799781 -128.5314879 88.12085776 -124.125 85.1875 C-122.69084491 84.21697481 -121.25728679 83.24556709 -119.82421875 82.2734375 C-118.662854 81.48791504 -118.662854 81.48791504 -117.47802734 80.68652344 C-112.93964914 77.59774347 -108.44083235 74.45205076 -103.9375 71.3125 C-101.95707139 69.9335361 -99.97660215 68.55463055 -97.99609375 67.17578125 C-97.00335449 66.48436035 -96.01061523 65.79293945 -94.98779297 65.08056641 C-90.15979227 61.71856102 -85.32982013 58.35939081 -80.5 55 C-78.58332338 53.66668098 -76.66665672 52.33334763 -74.75 51 C-69 47 -69 47 -63.25 43 C-62.30068604 42.33959717 -61.35137207 41.67919434 -60.37329102 40.9987793 C-58.4623608 39.66945771 -56.55139093 38.34019311 -54.64038086 37.01098633 C-49.76061498 33.61674652 -44.88160534 30.2214281 -40.00390625 26.82421875 C-31.32706045 20.7821116 -22.64907582 14.74197481 -13.9375 8.75 C-13.31302979 8.32033936 -12.68855957 7.89067871 -12.04516602 7.44799805 C-10.3658582 6.29514082 -8.68302404 5.14742521 -7 4 C-6.43039551 3.61005859 -5.86079102 3.22011719 -5.27392578 2.81835938 C-1.11672231 0 -1.11672231 0 0 0 Z " fill="#33BF65" transform="translate(419,378)"/>
<path d="M0 0 C8.04715029 5.9202099 13.92396567 13.69071266 16.3828125 23.45703125 C17.67893492 33.97149375 15.74631784 44.10614703 9.5703125 52.83203125 C8.53797663 54.06623478 7.47594711 55.27633975 6.3828125 56.45703125 C5.89296875 56.99972656 5.403125 57.54242188 4.8984375 58.1015625 C-1.42382325 64.28298081 -10.5344724 67.68335078 -19.3046875 67.95703125 C-30.70978823 67.34367554 -40.14446533 62.68349254 -48.01171875 54.4921875 C-55.55494868 44.93008825 -56.78431064 34.21105628 -55.6171875 22.45703125 C-53.56308772 13.54925221 -48.86693837 6.94860901 -41.6171875 1.45703125 C-27.88419888 -6.72065293 -14.37686548 -8.47591323 0 0 Z " fill="#353839" transform="translate(367.6171875,176.54296875)"/>
<path d="M0 0 C7.82337838 5.62175508 14.36950545 12.74862617 16.375 22.375 C17.59590899 33.21056724 17.10904035 43.06914664 10.38671875 52.0234375 C2.76820857 60.99722669 -5.50662534 66.29136707 -17.3203125 67.6953125 C-27.4643153 68.12881689 -35.88185091 64.76630255 -43.62109375 58.30078125 C-51.92772627 50.31799405 -55.62608458 41.72632712 -56 30.25 C-55.89982377 20.48838327 -52.33029592 12.15908515 -45.5703125 5.12109375 C-32.30160181 -6.78877308 -15.56383669 -9.5941459 0 0 Z " fill="#353839" transform="translate(183.625,176.625)"/>
<path d="M0 0 C0.82858521 -0.00700928 1.65717041 -0.01401855 2.51086426 -0.02124023 C5.23154887 -0.03874915 7.95118104 -0.0272231 10.671875 -0.01367188 C12.5732442 -0.01636884 14.47461206 -0.02025296 16.37597656 -0.02526855 C20.35364969 -0.03115398 24.33096261 -0.0226315 28.30859375 -0.00390625 C33.39622676 0.0188827 38.48301561 0.00575449 43.57061768 -0.01819611 C47.4946931 -0.03267995 51.41856981 -0.02803624 55.34265137 -0.01768494 C57.2180593 -0.0150248 59.09348552 -0.01826223 60.96887207 -0.02760315 C63.59431452 -0.03781151 66.21840755 -0.02220864 68.84375 0 C69.61174927 -0.00809692 70.37974854 -0.01619385 71.17102051 -0.02453613 C76.66666402 0.06118501 79.86910087 1.41937831 84.421875 4.51757812 C88.49585874 8.96963005 87.8555567 14.3685693 87.8203125 20.07617188 C87.82318268 21.09808121 87.82605286 22.11999054 87.82901001 23.17286682 C87.83104824 25.33050085 87.82553526 27.48815345 87.81298828 29.64575195 C87.79694823 32.94003865 87.81283715 36.23309539 87.83203125 39.52734375 C87.83004845 41.62695582 87.82620402 43.72656713 87.8203125 45.82617188 C87.82638519 46.80758652 87.83245789 47.78900116 87.8387146 48.80015564 C87.78500449 54.05039065 87.65667847 58.15096506 84.421875 62.51757812 C79.07077289 66.21237916 75.26747201 67.10288078 68.84375 67.03515625 C68.01516479 67.04216553 67.18657959 67.0491748 66.33288574 67.05639648 C63.61220113 67.0739054 60.89256896 67.06237935 58.171875 67.04882812 C56.2705058 67.05152509 54.36913794 67.05540921 52.46777344 67.0604248 C48.49010031 67.06631023 44.51278739 67.05778775 40.53515625 67.0390625 C35.44752324 67.01627355 30.36073439 67.02940176 25.27313232 67.05335236 C21.3490569 67.0678362 17.42518019 67.06319249 13.50109863 67.05284119 C11.6256907 67.05018105 9.75026448 67.05341848 7.87487793 67.0627594 C5.24943548 67.07296776 2.62534245 67.05736489 0 67.03515625 C-1.1519989 67.04730164 -1.1519989 67.04730164 -2.32727051 67.05969238 C-7.81954292 66.97402383 -11.04474453 65.64776299 -15.578125 62.51757812 C-19.37846855 57.38755093 -19.01448934 51.9555704 -18.9765625 45.82617188 C-18.97943268 44.80330582 -18.98230286 43.78043976 -18.98526001 42.72657776 C-18.98729592 40.57072392 -18.98179926 38.41485141 -18.96923828 36.2590332 C-18.95316185 32.96263316 -18.96911207 29.66745612 -18.98828125 26.37109375 C-18.98629906 24.27278376 -18.98245588 22.17447453 -18.9765625 20.07617188 C-18.98263519 19.092733 -18.98870789 18.10929413 -18.9949646 17.09605408 C-18.90314489 8.1511619 -18.90314489 8.1511619 -15.578125 4.51757812 C-10.19863403 0.85679078 -6.43606415 -0.06785465 0 0 Z M-7.578125 13.51757812 C-7.67922853 16.46293383 -7.71781779 19.38435372 -7.7109375 22.33007812 C-7.71189423 23.2141333 -7.71285095 24.09818848 -7.71383667 25.0090332 C-7.71451851 26.88199942 -7.71266393 28.75496798 -7.70849609 30.62792969 C-7.70314789 33.505262 -7.70844093 36.3824382 -7.71484375 39.25976562 C-7.71418297 41.07487014 -7.71290181 42.88997455 -7.7109375 44.70507812 C-7.71296173 45.57173096 -7.71498596 46.43838379 -7.71707153 47.33129883 C-8.09072914 51.23761032 -8.09072914 51.23761032 -6.578125 54.51757812 C-4.02761026 54.61795543 -1.50415321 54.653753 1.046875 54.64697266 C1.84520752 54.64872498 2.64354004 54.65047729 3.46606445 54.65228271 C6.1180231 54.6567018 8.76991562 54.65376305 11.421875 54.65039062 C13.25651055 54.65106365 15.09114601 54.65203366 16.92578125 54.65328979 C20.77605028 54.65476684 24.62629616 54.65261199 28.4765625 54.64794922 C33.42343997 54.64225193 38.37026319 54.64553089 43.31713867 54.65152168 C47.10710055 54.65512711 50.89704946 54.6539888 54.68701172 54.65139389 C56.51155605 54.65072457 58.33610155 54.65155322 60.16064453 54.65387344 C62.70608661 54.65639966 65.25143959 54.65255982 67.796875 54.64697266 C68.93926636 54.650009 68.93926636 54.650009 70.10473633 54.65310669 C73.55284049 54.95076907 73.55284049 54.95076907 76.421875 53.51757812 C76.52297853 50.57222242 76.56156779 47.65080253 76.5546875 44.70507812 C76.55612259 43.37899536 76.55612259 43.37899536 76.55758667 42.02612305 C76.55826851 40.15315683 76.55641393 38.28018827 76.55224609 36.40722656 C76.54689789 33.52989425 76.55219093 30.65271805 76.55859375 27.77539062 C76.55793297 25.96028611 76.55665181 24.1451817 76.5546875 22.33007812 C76.55772385 21.03009888 76.55772385 21.03009888 76.56082153 19.70385742 C76.93447914 15.79754593 76.93447914 15.79754593 75.421875 12.51757812 C72.87136026 12.41720082 70.34790321 12.38140325 67.796875 12.38818359 C66.99854248 12.38643127 66.20020996 12.38467896 65.37768555 12.38287354 C62.7257269 12.37845445 60.07383438 12.3813932 57.421875 12.38476562 C55.58723945 12.3840926 53.75260399 12.38312259 51.91796875 12.38186646 C48.06769972 12.38038941 44.21745384 12.38254426 40.3671875 12.38720703 C35.42031003 12.39290432 30.47348681 12.38962536 25.52661133 12.38363457 C21.73664945 12.38002914 17.94670054 12.38116745 14.15673828 12.38376236 C12.33219395 12.38443168 10.50764845 12.38360303 8.68310547 12.38128281 C6.13766339 12.37875659 3.59231041 12.38259643 1.046875 12.38818359 C-0.09551636 12.38514725 -0.09551636 12.38514725 -1.26098633 12.38204956 C-4.70909049 12.08438718 -4.70909049 12.08438718 -7.578125 13.51757812 Z " fill="#373838" transform="translate(221.578125,274.482421875)"/>
<path d="M0 0 C5.94 0 11.88 0 18 0 C18 42.24 18 84.48 18 128 C12.06 128 6.12 128 0 128 C0 85.76 0 43.52 0 0 Z " fill="#653B17" transform="translate(247,364)"/>
<path d="M0 0 C1.41133756 -0.0067786 2.82266627 -0.0156831 4.23397827 -0.02655029 C8.06056324 -0.04932219 11.88647333 -0.04051657 15.71306992 -0.02465487 C19.7199458 -0.01198469 23.72676439 -0.02373907 27.73364258 -0.03158569 C34.46218223 -0.04067905 41.19044736 -0.02870277 47.91894531 -0.00488281 C55.69503561 0.02232811 63.47047042 0.0135137 71.24654484 -0.01401484 C77.92613105 -0.03671404 84.60552008 -0.03990211 91.28513241 -0.02682149 C95.27317485 -0.01903134 99.2609093 -0.0179731 103.24893188 -0.03450394 C106.99862941 -0.04896154 110.74748293 -0.03890486 114.49708939 -0.01003265 C115.87210311 -0.00342852 117.24718803 -0.00530822 118.62217331 -0.01634598 C130.30646291 -0.10148547 130.30646291 -0.10148547 133.61914062 2.97915649 C135.74769021 6.37172644 135.80620183 8.48495768 135.60546875 12.45947266 C135.56035156 13.62091797 135.51523437 14.78236328 135.46875 15.97900391 C135.41074219 16.85943359 135.35273438 17.73986328 135.29296875 18.64697266 C133.95685547 18.169375 133.95685547 18.169375 132.59375 17.68212891 C127.00779596 16.08553917 121.24960005 16.22002245 115.48046875 16.08447266 C113.22384748 16.02471987 110.96732375 15.96111827 108.7109375 15.89306641 C107.22243286 15.85717407 107.22243286 15.85717407 105.70385742 15.82055664 C103.29296875 15.64697266 103.29296875 15.64697266 101.29296875 14.64697266 C98.58785429 14.54860185 95.90849439 14.51067956 93.203125 14.51757812 C92.36723846 14.51582581 91.53135193 14.51407349 90.6701355 14.51226807 C87.89855899 14.50785569 85.12704594 14.5107854 82.35546875 14.51416016 C80.43497709 14.51348694 78.51448551 14.51251677 76.59399414 14.51126099 C72.56558421 14.50978485 68.53719642 14.51193589 64.50878906 14.51660156 C59.33671811 14.5222988 54.16469905 14.51901935 48.99263 14.5130291 C45.0259156 14.50942124 41.05921355 14.51056311 37.09249878 14.51315689 C35.18504836 14.51382553 33.27759683 14.51299991 31.37014771 14.51067734 C28.70767223 14.50814715 26.04528163 14.51199663 23.3828125 14.51757812 C22.58898163 14.51555389 21.79515076 14.51352966 20.9772644 14.51144409 C17.00566369 14.44083322 17.00566369 14.44083322 13.29296875 15.64697266 C11.40504373 15.77709234 9.5129974 15.84956258 7.62109375 15.89306641 C5.91179687 15.94237305 5.91179687 15.94237305 4.16796875 15.99267578 C1.76701336 16.05347584 -0.6340324 16.11081384 -3.03515625 16.16455078 C-4.7521875 16.21579102 -4.7521875 16.21579102 -6.50390625 16.26806641 C-8.07156738 16.30565063 -8.07156738 16.30565063 -9.67089844 16.34399414 C-12.92329989 16.6685543 -15.65337253 17.50570338 -18.70703125 18.64697266 C-18.84279955 16.58631162 -18.93937028 14.52304508 -19.01953125 12.45947266 C-19.07753906 11.31091797 -19.13554687 10.16236328 -19.1953125 8.97900391 C-18.70636875 5.64245172 -18.11635593 3.98644011 -15.64265442 1.68600845 C-10.97780201 -0.81806812 -5.16575901 -0.04146837 0 0 Z " fill="#E7A013" transform="translate(197.70703125,261.35302734375)"/>
<path d="M0 0 C27.72 0 55.44 0 84 0 C84 5.94 84 11.88 84 18 C82.25966645 19.74033355 80.00226453 19.12604835 77.68286133 19.13552856 C76.54046997 19.13249222 76.54046997 19.13249222 75.375 19.12939453 C74.57666748 19.13114685 73.77833496 19.13289917 72.95581055 19.13470459 C70.3038519 19.13912367 67.65195938 19.13618492 65 19.1328125 C63.16536445 19.13348552 61.33072899 19.13445553 59.49609375 19.13571167 C55.64582472 19.13718872 51.79557884 19.13503386 47.9453125 19.13037109 C42.99843503 19.1246738 38.05161181 19.12795277 33.10473633 19.13394356 C29.31477445 19.13754898 25.52482554 19.13641067 21.73486328 19.13381577 C19.91031895 19.13314644 18.08577345 19.1339751 16.26123047 19.13629532 C13.71578839 19.13882154 11.17043541 19.1349817 8.625 19.12939453 C7.86340576 19.13141876 7.10181152 19.13344299 6.31713867 19.13552856 C1.11426258 19.11426258 1.11426258 19.11426258 0 18 C0 12.06 0 6.12 0 0 Z " fill="#945414" transform="translate(214,310)"/>
<path d="M0 0 C2.3125 1.8125 2.3125 1.8125 3.3125 3.8125 C-19.7875 3.8125 -42.8875 3.8125 -66.6875 3.8125 C-61.69011008 -1.18488992 -58.00630934 -3.47544466 -51.6875 -6.1875 C-50.93726563 -6.51105469 -50.18703125 -6.83460938 -49.4140625 -7.16796875 C-33.46054251 -12.9667738 -13.97816186 -8.97156062 0 0 Z " fill="#FFFBBD" transform="translate(287.6875,246.1875)"/>
<path d="M0 0 C-1.81611308 3.9808299 -3.48799936 6.89106059 -6.8125 9.75 C-7.45832031 10.32234375 -8.10414063 10.8946875 -8.76953125 11.484375 C-15.16507898 15.83021128 -22.55008842 15.85754378 -30 15 C-36.4418128 12.85910079 -41.26959544 8.62225258 -45 3 C-45.33 2.01 -45.66 1.02 -46 0 C-30.07507685 -3.7948753 -15.93339378 -3.51749035 0 0 Z " fill="#6B5B4C" transform="translate(187,217)"/>
<path d="M0 0 C-1.06232254 5.50476228 -4.38398039 9.19457802 -8.94140625 12.33984375 C-15.86963001 15.92516765 -23.84947898 16.36212126 -31.36328125 14.375 C-36.78613953 12.01631989 -40.62158527 7.76895065 -44 3 C-44.33 2.01 -44.66 1.02 -45 0 C-29.30708374 -3.69245089 -15.69965473 -3.42537921 0 0 Z " fill="#6C5B4C" transform="translate(370,217)"/>
<path d="M0 0 C2.7912125 1.98322993 3.82597224 3.12986121 4.5 6.5 C3.82597224 9.87013879 2.7912125 11.01677007 0 13 C-3.70758991 13.61793165 -5.2935202 13.50197249 -8.375 11.3125 C-10 9 -10 9 -10.5 6.5 C-9.33827182 0.69135908 -5.5534724 -0.92557873 0 0 Z " fill="#F5F5F5" transform="translate(152,191)"/>
<path d="M0 0 C3.4375 0.75 3.4375 0.75 5.4375 2.75 C5.98337156 8.75458716 5.98337156 8.75458716 4.375 11.6875 C1.28256242 13.38335287 -1.11764741 13.18060657 -4.5625 12.75 C-6.5625 11.1875 -6.5625 11.1875 -7.5625 8.75 C-7.4375 5.125 -7.4375 5.125 -6.5625 1.75 C-3.5625 -0.25 -3.5625 -0.25 0 0 Z " fill="#F9F9F9" transform="translate(333.5625,191.25)"/>
<path d="M0 0 C0.66 0.33 1.32 0.66 2 1 C-1.63 4.63 -5.26 8.26 -9 12 C-9.66 11.67 -10.32 11.34 -11 11 C-7.33333333 7.33333333 -3.66666667 3.66666667 0 0 Z " fill="#F5EF29" transform="translate(107,110)"/>
</svg>
