<?xml version="1.0" encoding="UTF-8"?>
<svg version="1.1" xmlns="http://www.w3.org/2000/svg" width="512" height="512">
<path d="M0 0 C0.63679688 0.30953613 1.27359375 0.61907227 1.9296875 0.93798828 C11.65665535 5.71958702 20.36018418 11.48189222 29 18 C30.07935696 18.80087576 31.15878298 19.60165846 32.23828125 20.40234375 C43.5548158 28.87982695 54.10574415 38.29509689 64.55859375 47.8046875 C66.61577332 49.65450337 68.69302042 51.47462812 70.78125 53.2890625 C74.95885732 56.93905908 79.02595205 60.69511563 83.0625 64.5 C83.79202881 65.18634521 84.52155762 65.87269043 85.27319336 66.57983398 C90.90039191 71.90039311 96.40736106 77.33096992 101.82641602 82.86328125 C104.63829986 85.71734938 107.48666031 88.45006309 110.54052734 91.04492188 C115.86811148 95.6849577 120.82896012 100.68441337 125.81640625 105.68359375 C126.84180924 106.70832108 127.86736046 107.73290011 128.89305115 108.75733948 C131.03018063 110.8930043 133.16551609 113.03044208 135.29956055 115.16918945 C138.01475875 117.89008416 140.73442333 120.6064631 143.45546055 123.32151699 C145.57042075 125.43283814 147.68296207 127.54656675 149.79481316 129.66099739 C150.79586663 130.66271091 151.79764385 131.66370177 152.80020332 132.663908 C158.41910685 138.27250957 163.85220497 143.95619031 169 150 C170.0069561 151.14253098 171.01576381 152.28343587 172.02734375 153.421875 C178.32665317 160.59119022 183.98462868 167.85370216 189 176 C189.39429199 176.62745117 189.78858398 177.25490234 190.19482422 177.90136719 C203.80787371 199.64246968 212.41118443 222.67747746 212.375 248.5625 C212.37418427 249.55120087 212.37418427 249.55120087 212.37335205 250.55987549 C212.3318351 261.53463205 211.39756859 271.56424138 208 282 C207.67854004 283.00643555 207.67854004 283.00643555 207.35058594 284.03320312 C198.96903962 309.58044911 183.70081683 334.00755776 164.26953125 352.61328125 C158.91808824 357.9141196 157.42277082 363.75850136 155.75 370.875 C150.47797952 391.87602473 139.96074937 410.55664713 126 427 C125.236875 427.90492188 124.47375 428.80984375 123.6875 429.7421875 C111.16995728 444.09265612 96.32471133 455.37105007 80 465 C79.09378906 465.57234375 78.18757813 466.1446875 77.25390625 466.734375 C49.52964474 483.88015942 16.06102076 492.21269773 -16 496 C-16.73814941 496.09571289 -17.47629883 496.19142578 -18.23681641 496.29003906 C-26.46435013 497.25880121 -34.72718426 497.24365136 -43 497.25 C-44.18919037 497.25101212 -44.18919037 497.25101212 -45.40240479 497.25204468 C-67.45507425 497.22241218 -88.66518617 494.66474712 -110 489 C-110.85287598 488.77441406 -111.70575195 488.54882812 -112.58447266 488.31640625 C-140.69857758 480.72350666 -168.72412877 467.9989825 -191 449 C-192.07065118 448.11211825 -193.14233147 447.2254765 -194.21484375 446.33984375 C-211.04286717 432.3838934 -224.05099036 416.52953744 -234 397 C-234.84498047 395.36998047 -234.84498047 395.36998047 -235.70703125 393.70703125 C-240.33304538 384.27933158 -243.08915816 374.32659679 -245.73046875 364.19921875 C-247.45560786 358.14554879 -250.66814708 354.47972741 -255 350 C-273.95167324 329.43625497 -288.86721898 305.8718166 -297 279 C-297.34160156 277.89398438 -297.68320312 276.78796875 -298.03515625 275.6484375 C-302.77599862 256.8173706 -301.95549337 234.46461132 -296 216 C-295.65388672 214.87972412 -295.65388672 214.87972412 -295.30078125 213.73681641 C-289.29866066 194.6943743 -279.44626124 177.54439533 -267 162 C-266.3512793 161.18789063 -266.3512793 161.18789063 -265.68945312 160.359375 C-252.18440426 143.62529942 -236.71179306 128.54571056 -221.5090332 113.37866211 C-219.03271457 110.90810355 -216.56100308 108.4329914 -214.09053135 105.95658779 C-211.68909546 103.55064647 -209.28383299 101.14854574 -206.87890625 98.74609375 C-206.00480606 97.86996933 -205.13070587 96.99384491 -204.2301178 96.09117126 C-199.849026 91.72668003 -195.39987213 87.52018277 -190.71080017 83.48841858 C-188.56634752 81.62271666 -186.55447829 79.65192528 -184.5625 77.625 C-183.81226563 76.86703125 -183.06203125 76.1090625 -182.2890625 75.328125 C-181.53367187 74.55984375 -180.77828125 73.7915625 -180 73 C-175.11745702 68.03413718 -170.20357313 63.2105245 -164.92041016 58.67089844 C-161.75455279 55.91636909 -158.73285129 53.01115695 -155.6875 50.125 C-150.51995253 45.26576193 -145.26401254 40.61607388 -139.71484375 36.19140625 C-137.27090608 34.21867383 -134.89374698 32.18475465 -132.5246582 30.12329102 C-119.43020791 18.79329826 -105.41250403 8.90956257 -90 1 C-89.3699707 0.67273926 -88.73994141 0.34547852 -88.09082031 0.00830078 C-59.04455093 -14.90391325 -29.00602742 -14.2773142 0 0 Z " fill="#69DA99" transform="translate(300,13)"/>
<path d="M0 0 C0.63679688 0.30953613 1.27359375 0.61907227 1.9296875 0.93798828 C11.65665535 5.71958702 20.36018418 11.48189222 29 18 C30.07935696 18.80087576 31.15878298 19.60165846 32.23828125 20.40234375 C43.5548158 28.87982695 54.10574415 38.29509689 64.55859375 47.8046875 C66.61577332 49.65450337 68.69302042 51.47462812 70.78125 53.2890625 C74.95885732 56.93905908 79.02595205 60.69511563 83.0625 64.5 C83.79202881 65.18634521 84.52155762 65.87269043 85.27319336 66.57983398 C90.90039191 71.90039311 96.40736106 77.33096992 101.82641602 82.86328125 C104.63829986 85.71734938 107.48666031 88.45006309 110.54052734 91.04492188 C115.86811148 95.6849577 120.82896012 100.68441337 125.81640625 105.68359375 C126.84180924 106.70832108 127.86736046 107.73290011 128.89305115 108.75733948 C131.03018063 110.8930043 133.16551609 113.03044208 135.29956055 115.16918945 C138.01475875 117.89008416 140.73442333 120.6064631 143.45546055 123.32151699 C145.57042075 125.43283814 147.68296207 127.54656675 149.79481316 129.66099739 C150.79586663 130.66271091 151.79764385 131.66370177 152.80020332 132.663908 C158.41910685 138.27250957 163.85220497 143.95619031 169 150 C170.0069561 151.14253098 171.01576381 152.28343587 172.02734375 153.421875 C178.32665317 160.59119022 183.98462868 167.85370216 189 176 C189.39429199 176.62745117 189.78858398 177.25490234 190.19482422 177.90136719 C203.80787371 199.64246968 212.41118443 222.67747746 212.375 248.5625 C212.37418427 249.55120087 212.37418427 249.55120087 212.37335205 250.55987549 C212.3318351 261.53463205 211.39756859 271.56424138 208 282 C207.67854004 283.00643555 207.67854004 283.00643555 207.35058594 284.03320312 C198.96903962 309.58044911 183.70081683 334.00755776 164.26953125 352.61328125 C158.91808824 357.9141196 157.42277082 363.75850136 155.75 370.875 C150.47797952 391.87602473 139.96074937 410.55664713 126 427 C125.236875 427.90492188 124.47375 428.80984375 123.6875 429.7421875 C111.16995728 444.09265612 96.32471133 455.37105007 80 465 C79.09378906 465.57234375 78.18757813 466.1446875 77.25390625 466.734375 C49.52964474 483.88015942 16.06102076 492.21269773 -16 496 C-16.73814941 496.09571289 -17.47629883 496.19142578 -18.23681641 496.29003906 C-26.46435013 497.25880121 -34.72718426 497.24365136 -43 497.25 C-44.18919037 497.25101212 -44.18919037 497.25101212 -45.40240479 497.25204468 C-67.45507425 497.22241218 -88.66518617 494.66474712 -110 489 C-110.85287598 488.77441406 -111.70575195 488.54882812 -112.58447266 488.31640625 C-140.69857758 480.72350666 -168.72412877 467.9989825 -191 449 C-192.07065118 448.11211825 -193.14233147 447.2254765 -194.21484375 446.33984375 C-211.04286717 432.3838934 -224.05099036 416.52953744 -234 397 C-234.84498047 395.36998047 -234.84498047 395.36998047 -235.70703125 393.70703125 C-240.33304538 384.27933158 -243.08915816 374.32659679 -245.73046875 364.19921875 C-247.45560786 358.14554879 -250.66814708 354.47972741 -255 350 C-273.95167324 329.43625497 -288.86721898 305.8718166 -297 279 C-297.34160156 277.89398438 -297.68320312 276.78796875 -298.03515625 275.6484375 C-302.77599862 256.8173706 -301.95549337 234.46461132 -296 216 C-295.65388672 214.87972412 -295.65388672 214.87972412 -295.30078125 213.73681641 C-289.29866066 194.6943743 -279.44626124 177.54439533 -267 162 C-266.3512793 161.18789063 -266.3512793 161.18789063 -265.68945312 160.359375 C-252.18440426 143.62529942 -236.71179306 128.54571056 -221.5090332 113.37866211 C-219.03271457 110.90810355 -216.56100308 108.4329914 -214.09053135 105.95658779 C-211.68909546 103.55064647 -209.28383299 101.14854574 -206.87890625 98.74609375 C-206.00480606 97.86996933 -205.13070587 96.99384491 -204.2301178 96.09117126 C-199.849026 91.72668003 -195.39987213 87.52018277 -190.71080017 83.48841858 C-188.56634752 81.62271666 -186.55447829 79.65192528 -184.5625 77.625 C-183.81226563 76.86703125 -183.06203125 76.1090625 -182.2890625 75.328125 C-181.53367187 74.55984375 -180.77828125 73.7915625 -180 73 C-175.11745702 68.03413718 -170.20357313 63.2105245 -164.92041016 58.67089844 C-161.75455279 55.91636909 -158.73285129 53.01115695 -155.6875 50.125 C-150.51995253 45.26576193 -145.26401254 40.61607388 -139.71484375 36.19140625 C-137.27090608 34.21867383 -134.89374698 32.18475465 -132.5246582 30.12329102 C-119.43020791 18.79329826 -105.41250403 8.90956257 -90 1 C-89.3699707 0.67273926 -88.73994141 0.34547852 -88.09082031 0.00830078 C-59.04455093 -14.90391325 -29.00602742 -14.2773142 0 0 Z M-200.484375 172.97265625 C-209.53486953 185.07885898 -215.5319241 197.54558925 -214 213 C-212.48407406 220.35428937 -209.62770239 225.52246477 -203.7890625 230.27734375 C-199.3869772 232.99627879 -194.74622159 234.54472717 -189.84375 236.08984375 C-187 237 -187 237 -186 238 C-185.8125 240.9375 -185.8125 240.9375 -186 244 C-186.66 244.66 -187.32 245.32 -188 246 C-189.73301674 245.91090627 -191.46292457 245.7551767 -193.1875 245.5625 C-197.42690389 245.49806824 -197.42690389 245.49806824 -201 247.5390625 C-202.87915517 249.93150543 -204.44212797 252.38656048 -206 255 C-206.63421875 255.96679688 -207.2684375 256.93359375 -207.921875 257.9296875 C-224.96755643 284.42316911 -236.57561838 315.13184756 -235 347 C-234.97035156 347.83917969 -234.94070312 348.67835938 -234.91015625 349.54296875 C-232.91149051 382.54532742 -213.15042786 413.51150963 -189 435 C-162.67198015 457.2259763 -131.26974402 471.40850545 -97.875 479.25 C-96.83972168 479.49613037 -95.80444336 479.74226074 -94.73779297 479.99584961 C-79.33552677 483.48672468 -64.43535688 484.32592524 -48.70117188 484.26074219 C-45.63651642 484.25004022 -42.57245008 484.26068861 -39.5078125 484.2734375 C-24.10101243 484.28499683 -8.99195977 483.34761671 6.125 480.1875 C6.95572021 480.01645752 7.78644043 479.84541504 8.64233398 479.66918945 C16.61535164 477.9670674 24.30538917 475.67638638 32 473 C32.7513623 472.74347656 33.50272461 472.48695313 34.27685547 472.22265625 C45.65991468 468.31053395 56.40175038 463.69903247 67 458 C67.59087402 457.68981934 68.18174805 457.37963867 68.79052734 457.06005859 C83.80245119 449.15046038 96.81644135 438.73301102 109 427 C109.64066406 426.41089844 110.28132813 425.82179688 110.94140625 425.21484375 C132.58183401 404.77945141 145.59874874 373.92100899 147.12890625 344.5234375 C147.95665581 308.8750232 133.37241785 274.93526131 112 247 C110.94886751 245.7158283 110.94886751 245.7158283 108.56640625 245.97265625 C106.56632431 246.03247665 104.5663205 246.09497 102.56640625 246.16015625 C100 246 100 246 98 244 C97.875 240.875 97.875 240.875 98 238 C101.56976605 236.12117576 105.07508963 234.61046174 108.875 233.25 C115.16332275 230.72141239 120.08791535 227.52169264 123.3828125 221.453125 C127.55442192 211.12620378 126.98193007 200.26904998 122.77734375 190.01953125 C119.07754295 182.23515036 114.37341529 172.50515059 106 169 C92.11153081 164.15684151 78.69363446 162.97798078 65 169 C58.40475488 172.2300735 55.24701134 177.57135338 52 184 C50.49453392 188.51639823 50.64249038 193.19985745 50.48242188 197.92773438 C50.21455414 203.78544586 50.21455414 203.78544586 48 206 C45.5625 206.375 45.5625 206.375 43 206 C41.3203125 204.4609375 41.3203125 204.4609375 40 202 C40.02644157 200.12061463 40.06173353 198.23940695 40.19750977 196.36474609 C40.39445888 192.74272232 40.33636738 189.40899078 39 186 C34.25950474 181.84275939 28.90847593 180.00798772 23 178 C21.53321145 177.45876991 20.06705547 176.91582214 18.6015625 176.37109375 C14.1131618 174.75427207 9.57379097 173.35331194 5 172 C4.2275293 171.76651855 3.45505859 171.53303711 2.65917969 171.29248047 C-39.85092233 158.60645044 -85.97468746 164.74646334 -125.51171875 184.23828125 C-127.91983772 187.08883678 -127.55930956 190.37378406 -127.5625 193.9375 C-127.60882728 201.29030092 -127.60882728 201.29030092 -129.3671875 204.48046875 C-131 206 -131 206 -133.5625 206.375 C-136 206 -136 206 -138 204 C-138.17941556 201.31759033 -138.27007318 198.68435622 -138.3125 196 C-138.64589146 187.08084206 -140.60645598 180.89016022 -146.5625 174.0625 C-155.06943266 166.86432621 -164.10284621 164.24537779 -175.26953125 164.6171875 C-183.68798266 165.48107047 -194.3403161 166.61840586 -200.484375 172.97265625 Z " fill="#33373A" transform="translate(300,13)"/>
<path d="M0 0 C0.58136719 0.74636719 1.16273437 1.49273437 1.76171875 2.26171875 C3.68281858 4.61196479 5.63500173 6.70595891 7.8125 8.8125 C10.3955666 11.3623896 12.87890912 13.93958538 15.25 16.6875 C32.13563376 36.20912636 50.36768128 51.93749682 72 66 C70.36487423 60.15657685 67.41533089 56.36976561 63.6796875 51.68359375 C61.84626664 48.75438414 61.53527447 47.38087826 62 44 C63.125 42.1875 63.125 42.1875 65 41 C67.8515625 40.61328125 67.8515625 40.61328125 71 41 C73.203125 43.125 73.203125 43.125 75.25 46 C83.96176484 57.35302017 95.24565427 64.27621 109 68 C110.2271875 68.34804688 111.454375 68.69609375 112.71875 69.0546875 C119.26127137 70.48269601 125.94515414 70.32468391 132.61001587 70.40536499 C176.00450215 71.00450215 176.00450215 71.00450215 186 81 C190.75107045 81.41640129 193.41162051 80.54750557 197.5 78.1875 C207.85559012 72.71954208 219.97974213 70.97386987 231.61328125 70.7890625 C267.69118746 70.18642697 267.69118746 70.18642697 298 52 C300.33839396 49.1044719 302.59756432 46.1883422 304.76171875 43.16015625 C307 41 307 41 310.1484375 40.6171875 C313 41 313 41 314.9375 42.0625 C316.24588532 44.44837911 316.3365703 46.23647514 315.85546875 48.90234375 C314.31243422 52.68594897 311.51238135 55.55223085 308.8125 58.5703125 C306.89523754 61.14043588 306.35880614 62.84923363 306 66 C325.91608268 53.04042138 344.56017435 38.32073328 360.07421875 20.21484375 C362.58464311 17.32760113 365.16382637 14.50685669 367.75 11.6875 C368.45854126 10.9133374 368.45854126 10.9133374 369.18139648 10.12353516 C370.98842077 8.15593674 372.7941831 6.20156839 374.703125 4.33203125 C376.24732605 2.82724631 376.24732605 2.82724631 378 0 C380.4421901 21.04208437 380.4421901 21.04208437 380 30 C379.97035156 30.85078125 379.94070313 31.7015625 379.91015625 32.578125 C377.94045019 65.43858705 357.970475 96.62505414 334 118 C323.45378944 126.96387737 312.1465016 134.4051914 300 141 C299.36835938 141.34869141 298.73671875 141.69738281 298.0859375 142.05664062 C268.4342568 158.27821908 234.16129499 167.04457409 200.3828125 167.203125 C199.40496796 167.20882507 198.42712341 167.21452515 197.41964722 167.22039795 C195.36083024 167.22977715 193.30199874 167.23635344 191.24316406 167.24023438 C188.16703493 167.24986835 185.09159607 167.28093134 182.015625 167.3125 C164.50472563 167.40698533 147.58132489 165.52337365 130.5625 161.3125 C129.52810791 161.05903809 128.49371582 160.80557617 127.42797852 160.54443359 C111.55250727 156.50807112 96.31306207 150.83164171 81.90332031 143.02978516 C79.95253123 141.97431718 77.98853481 140.946507 76.0234375 139.91796875 C61.08826305 131.95725608 48.16154681 121.71181319 36 110 C35.35933594 109.41089844 34.71867187 108.82179688 34.05859375 108.21484375 C12.41816599 87.77945141 -0.59874874 56.92100899 -2.12890625 27.5234375 C-2.34299167 18.30349216 -1.06103187 9.1419264 0 0 Z " fill="#46C57A" transform="translate(67,330)"/>
<path d="M0 0 C3.17512766 1.51674314 5.48551831 3.56005828 8 6 C8.67289062 6.62261719 9.34578125 7.24523437 10.0390625 7.88671875 C39.3661823 37.5870928 56.17472676 87.11447779 73.41064453 124.56396484 C75.04996655 128.10802293 76.70840628 131.64263036 78.37109375 135.17578125 C79.19057495 136.92604614 79.19057495 136.92604614 80.02661133 138.71166992 C81.05644876 140.91086911 82.0910777 143.10783408 83.1315918 145.30200195 C89.28446932 158.49680245 89.28446932 158.49680245 90 164 C88.76171875 166.7265625 88.76171875 166.7265625 86.6875 168.625 C86.01074219 169.27726563 85.33398438 169.92953125 84.63671875 170.6015625 C84.09660156 171.06304687 83.55648437 171.52453125 83 172 C78.98877744 171.44618229 75.68075987 170.06335102 72.02490234 168.42260742 C27.43500696 148.43772743 -23.73587934 146.13218269 -69.77978516 163.01953125 C-75.98767593 165.45356435 -82.21394102 167.98629756 -88.10644531 171.12036133 C-90 172 -90 172 -92.03515625 171.80859375 C-95.87827215 170.22703313 -98.14162531 167.67208668 -100 164 C-99.24911213 156.31603031 -94.70452072 148.62021242 -91.4375 141.75 C-90.59626587 139.96033813 -90.59626587 139.96033813 -89.73803711 138.13452148 C-88.17329578 134.80702424 -86.59931183 131.48397009 -85.02380371 128.16156006 C-83.59613368 125.14731574 -82.17445934 122.13025617 -80.75244141 119.11334229 C-76.20978759 109.47704224 -71.64126926 99.8531947 -67.06237793 90.23406982 C-66.05303595 88.11152907 -65.04604473 85.98789325 -64.04003906 83.86376953 C-34.44902983 21.4124538 -34.44902983 21.4124538 -17 5 C-16.42121094 4.43925781 -15.84242188 3.87851562 -15.24609375 3.30078125 C-10.64332005 -0.59715935 -5.8556715 -1.26534226 0 0 Z " fill="#1A8D1C" transform="translate(261,15)"/>
<path d="M0 0 C18.52192572 5.10949675 35.61750083 18.67214357 50 31 C51.0975542 31.93501564 52.19521615 32.8699048 53.29296875 33.8046875 C55.65800737 35.82292004 58.01654637 37.84844706 60.37109375 39.87890625 C62.81138734 41.98237989 65.26224457 44.07244135 67.72265625 46.15234375 C73.44021731 50.9952401 79.01353911 55.84511072 84.234375 61.23046875 C85.96369618 62.96361586 87.75697668 64.54345925 89.625 66.125 C94.24192617 70.08497225 98.47297768 74.41861773 102.72509766 78.76220703 C105.54125019 81.62011603 108.38696608 84.36356037 111.45092773 86.95532227 C117.35274712 92.09514208 122.82247812 97.67844636 128.34765625 103.21484375 C129.53000077 104.396513 130.71249357 105.57803391 131.89512634 106.75941467 C134.36180534 109.22462723 136.82668703 111.69161886 139.2902832 114.15991211 C142.42921932 117.30454484 145.57262471 120.44466556 148.71740055 123.58345699 C151.15662006 126.01904232 153.59342741 128.45702989 156.02953911 130.89572334 C157.18689277 132.05373839 158.34497387 133.21102693 159.50383186 134.36753654 C178.32815507 153.1620668 195.04278702 173.58687517 206 198 C206.4333667 198.95229492 206.4333667 198.95229492 206.87548828 199.92382812 C218.01518455 224.96406759 217.47837189 253.67647536 207.83984375 279.0546875 C206.62268793 282.06822442 205.33234711 285.03572477 204 288 C203.60554687 288.9075 203.21109375 289.815 202.8046875 290.75 C195.96640698 305.49120352 185.72554751 318.87020474 175 331 C172.21311755 328.21311755 172.73347713 326.40517672 172.625 322.5 C171.0858304 290.0028933 155.16464754 258.60620965 136 233 C137.12728516 231.89011719 137.12728516 231.89011719 138.27734375 230.7578125 C147.15272746 221.76782556 152.15457762 213.31276007 152.375 200.4375 C151.83188321 183.09280245 145.29281031 166.67297235 132.6875 154.4375 C128.09186242 150.89502937 122.52548186 149.48488401 117 148 C116.20851563 147.773125 115.41703125 147.54625 114.6015625 147.3125 C109.37396864 146.02790356 104.11657888 145.74298648 98.75 145.625 C98.09555908 145.59889648 97.44111816 145.57279297 96.7668457 145.54589844 C89.53839628 145.52158654 82.83443533 147.86196768 76 150 C75.58862793 149.09161377 75.17725586 148.18322754 74.75341797 147.24731445 C65.93510183 127.79174038 56.93268827 108.45124024 47.57568359 89.24853516 C45.63764171 85.2529378 43.73049761 81.24317857 41.82666016 77.23120117 C30.64542299 53.68558157 19.14155409 30.54992474 5.19921875 8.49609375 C3.42489898 5.68795417 1.69458369 2.85721069 0 0 Z " fill="#1A8D1C" transform="translate(285,21)"/>
<path d="M0 0 C0.99 0.495 0.99 0.495 2 1 C1.34773437 1.96679688 0.69546875 2.93359375 0.0234375 3.9296875 C-11.83365299 21.56540601 -21.57482207 39.94504168 -31.0625 58.9375 C-31.57611084 59.96466125 -32.08972168 60.99182251 -32.61889648 62.05010986 C-40.13456358 77.09403459 -47.42782097 92.20337948 -54.39746094 107.50830078 C-56.24576012 111.53547551 -58.12315582 115.54833634 -60.0078125 119.55859375 C-60.52199738 120.6527359 -60.52199738 120.6527359 -61.04656982 121.76898193 C-62.4000705 124.64759425 -63.75445809 127.52578735 -65.10986328 130.40350342 C-66.03520136 132.36878405 -66.95910052 134.33473593 -67.8828125 136.30078125 C-68.41277832 137.42653564 -68.94274414 138.55229004 -69.48876953 139.7121582 C-71.05448491 143.11853768 -72.53786353 146.54814358 -74 150 C-75.01320312 149.69255859 -75.01320312 149.69255859 -76.046875 149.37890625 C-77.38492188 148.97478516 -77.38492188 148.97478516 -78.75 148.5625 C-79.63171875 148.29566406 -80.5134375 148.02882812 -81.421875 147.75390625 C-82.27265625 147.50511719 -83.1234375 147.25632813 -84 147 C-84.60972656 146.80921875 -85.21945313 146.6184375 -85.84765625 146.421875 C-98.97840939 143.84815206 -116.64221607 145.98389157 -128.30859375 152.69140625 C-139.37985998 161.25693555 -147.17299224 175.81269722 -149.6171875 189.44140625 C-151.00717732 202.36263816 -150.56640357 213.24973064 -142.5625 223.875 C-139.87404196 227.10230847 -137.06063764 230.12485555 -134 233 C-134.46148437 233.59683594 -134.92296875 234.19367188 -135.3984375 234.80859375 C-144.99596087 247.57367918 -152.64705653 261.3694948 -159 276 C-159.58201172 277.33611328 -159.58201172 277.33611328 -160.17578125 278.69921875 C-167.19452342 295.52794032 -170.12646064 312.99198052 -172 331 C-191.0898679 312.27660425 -208.4371442 284.97590818 -212 258 C-212.10957031 257.21753906 -212.21914062 256.43507813 -212.33203125 255.62890625 C-214.69229395 235.96005045 -212.23330352 216.03507182 -204 198 C-203.69400879 197.32598145 -203.38801758 196.65196289 -203.07275391 195.95751953 C-198.82600669 186.75731449 -193.92687749 178.23925772 -188 170 C-187.278125 168.99195313 -186.55625 167.98390625 -185.8125 166.9453125 C-181.60137491 161.19888139 -177.17499853 155.77528577 -172.3359375 150.546875 C-171.09727543 149.1963605 -169.86399185 147.83985239 -168.67774963 146.44306946 C-162.99211571 139.7641422 -156.76954947 133.6244073 -150.56640625 127.43359375 C-149.36231673 126.228829 -148.15837556 125.02391598 -146.95457458 123.81886292 C-144.44228375 121.30510542 -141.9282131 118.79314563 -139.4128418 116.2824707 C-136.20767504 113.08300058 -133.00701984 109.87906082 -129.80769444 106.67375088 C-127.3257857 104.18820855 -124.84147536 101.70507758 -122.35645866 99.2226429 C-121.17611485 98.04296062 -119.996498 96.86255046 -118.81765938 95.68136406 C-113.24249446 90.09753106 -107.68729757 84.53450106 -101.65611267 79.43592834 C-98.60735406 76.79250982 -95.8212956 73.88154388 -93 71 C-88.82516043 66.78162085 -84.64287481 62.6641633 -80.109375 58.828125 C-77.81350514 56.83837112 -75.59674502 54.77739446 -73.37719727 52.70336914 C-68.00089848 47.6812955 -62.53408431 42.86826495 -56.7890625 38.265625 C-54.30431057 36.24719906 -51.88290143 34.17049697 -49.46923828 32.06811523 C-35.01756201 19.55291932 -18.0409638 6.72713904 0 0 Z " fill="#1A8D1C" transform="translate(225,21)"/>
<path d="M0 0 C2.41326712 2.24937801 3.91441788 4.35200778 5.55078125 7.20703125 C6.0509375 8.06425781 6.55109375 8.92148438 7.06640625 9.8046875 C9.81766856 15.01989675 9.62367881 20.32206659 9.81835938 26.07226562 C9.84396548 30.58062184 9.84396548 30.58062184 12.30078125 34.14453125 C14.75819662 34.64468078 14.75819662 34.64468078 17.30078125 34.14453125 C20.03896743 31.60749145 20.29703286 30.20495029 20.53125 26.4296875 C20.52925663 24.30675323 20.48780621 22.19686918 20.38867188 20.07617188 C20.40625 17.9921875 20.40625 17.9921875 21.30078125 14.14453125 C23.67610404 11.86178247 26.33154632 10.5279654 29.30078125 9.14453125 C29.93089111 8.83942627 30.56100098 8.53432129 31.21020508 8.2199707 C69.2085314 -9.12091139 113.48682282 -11.8893498 153.30078125 0.14453125 C154.0680957 0.37156738 154.83541016 0.59860352 155.62597656 0.83251953 C160.16812844 2.19247402 164.64245357 3.67561665 169.08691406 5.32763672 C170.5920857 5.88302978 172.1049796 6.41783699 173.62402344 6.93408203 C178.78694372 8.72841909 183.16195757 10.51493456 187.30078125 14.14453125 C188.89028411 18.19925504 188.66106606 22.26184419 188.3515625 26.53515625 C188.00980757 30.07980057 188.00980757 30.07980057 189.62109375 32.60546875 C191.24332861 34.38114923 191.24332861 34.38114923 193.86328125 34.51953125 C196.47606234 34.36349261 196.47606234 34.36349261 198.30078125 32.14453125 C198.48019681 29.46212158 198.57085443 26.82888747 198.61328125 24.14453125 C198.94502945 15.26933503 200.91703752 9.1356136 206.73828125 2.26953125 C216.17488064 -5.55594141 225.17761533 -7.73128682 237.30078125 -6.85546875 C246.1301099 -5.95813422 255.25314852 -4.57783673 261.48828125 2.26953125 C270.39090613 13.81821409 275.78842462 26.33277768 274.30078125 41.14453125 C272.78146312 48.17984516 270.29574402 53.25224692 264.58203125 57.71875 C260.70835763 60.13979601 256.58398785 61.61430385 252.30078125 63.14453125 C248.01056065 64.8135504 248.01056065 64.8135504 245.30078125 68.14453125 C241.02534578 67.5791204 238.36631613 66.08884689 234.80078125 63.70703125 C221.66722517 55.28000645 207.11934463 48.93586674 192.30078125 44.14453125 C190.98228707 43.6740716 189.66462003 43.20128936 188.34765625 42.7265625 C178.08683602 39.13904992 167.6501294 36.84520986 156.98828125 34.83203125 C155.97849213 34.63844528 155.97849213 34.63844528 154.94830322 34.44094849 C138.31492855 31.28324864 121.86378252 30.90457427 104.98828125 30.89453125 C103.96610504 30.89385651 102.94392883 30.89318176 101.89077759 30.89248657 C86.46696879 30.90863905 71.52033164 31.45054509 56.30078125 34.14453125 C54.81553955 34.38598877 54.81553955 34.38598877 53.30029297 34.63232422 C23.38294374 39.5422975 -6.14469347 49.86002656 -31.44140625 66.81640625 C-33.69921875 68.14453125 -33.69921875 68.14453125 -36.69921875 68.14453125 C-37.30378906 67.520625 -37.90835938 66.89671875 -38.53125 66.25390625 C-41.10383024 63.75085521 -42.93839427 63.27802354 -46.38671875 62.39453125 C-53.82135845 60.04340587 -59.30984719 56.47648131 -63.140625 49.53125 C-67.30403502 39.27504483 -66.64812773 28.33308572 -62.4765625 18.1640625 C-58.78385904 10.39461443 -54.22724068 1.79726703 -46.69921875 -2.85546875 C-31.12313002 -8.20863028 -14.28849228 -9.82204607 0 0 Z " fill="#7FECAB" transform="translate(151.69921875,184.85546875)"/>
<path d="M0 0 C2.203125 2.125 2.203125 2.125 4.25 5 C12.96176484 16.35302017 24.24565427 23.27621 38 27 C39.2271875 27.34804688 40.454375 27.69609375 41.71875 28.0546875 C48.26127137 29.48269601 54.94515414 29.32468391 61.61001587 29.40536499 C105.00450215 30.00450215 105.00450215 30.00450215 115 40 C119.75107045 40.41640129 122.41162051 39.54750557 126.5 37.1875 C136.85559012 31.71954208 148.97974213 29.97386987 160.61328125 29.7890625 C196.69118746 29.18642697 196.69118746 29.18642697 227 11 C229.33839396 8.1044719 231.59756432 5.1883422 233.76171875 2.16015625 C236 0 236 0 239.1484375 -0.3828125 C242 0 242 0 243.9375 1.0625 C245.2426885 3.44254963 245.33960891 5.22679576 244.85546875 7.88671875 C242.83883042 12.86846002 238.77596969 17.22403031 235 21 C234.79535705 22.94985008 234.65221603 24.9062194 234.53515625 26.86328125 C234.45716797 28.06017578 234.37917969 29.25707031 234.29882812 30.49023438 C234.1420126 33.02649872 233.98833661 35.56295924 233.83789062 38.09960938 C233.75861328 39.30037109 233.67933594 40.50113281 233.59765625 41.73828125 C233.49723022 43.39404175 233.49723022 43.39404175 233.39477539 45.08325195 C232.75543986 49.80690165 232.75543986 49.80690165 231 52 C227.59163676 53.12072006 225.77672828 53.33480182 222.45800781 51.90429688 C221.63139648 51.34806641 220.80478516 50.79183594 219.953125 50.21875 C218.5609375 49.32736328 218.5609375 49.32736328 217.140625 48.41796875 C215.22437696 47.14651228 213.31283678 45.86792975 211.40625 44.58203125 C205.6585932 40.92226635 201.96101698 39.23879446 195.14599609 40.49780273 C194.43781738 40.66352783 193.72963867 40.82925293 193 41 C187.89123477 41.79273943 183.15578787 42.09045242 178 42 C177.938125 42.99 177.87625 43.98 177.8125 45 C176.73102751 52.24878858 172.00375343 57.75043097 166.46875 62.2734375 C146.48882871 76.24673689 121.37496214 77.86277947 97.78125 74.33984375 C84.3213655 71.78259865 70.99585579 65.52444847 62 55 C59.27462011 50.57835502 58 47.21382173 58 42 C56.845 42.04125 55.69 42.0825 54.5 42.125 C51.27122813 42.20008772 48.75500643 41.9347249 45.61328125 41.09765625 C36.8205772 38.99210636 32.18676276 39.88673525 24.3190918 44.55786133 C22.37482479 45.79916754 20.44719629 47.06697557 18.53833008 48.36206055 C17.20064575 49.26371948 17.20064575 49.26371948 15.8359375 50.18359375 C15.04751465 50.74618896 14.2590918 51.30878418 13.44677734 51.88842773 C10.20178135 53.36263116 8.37000536 53.03093833 5 52 C2.67895506 48.51843259 2.72037748 46.9830363 2.61328125 42.86328125 C2.56107422 41.64576172 2.50886719 40.42824219 2.45507812 39.17382812 C2.36077029 36.61976516 2.28494745 34.06494606 2.22851562 31.50976562 C1.87481804 24.12875784 1.14831863 19.68800739 -4.32568359 14.50927734 C-4.87820801 14.01121582 -5.43073242 13.5131543 -6 13 C-8.4855778 9.55226305 -9.67624557 7.28288864 -9 3 C-6.72307687 -0.66837616 -4.04919683 -0.49735792 0 0 Z " fill="#34383B" transform="translate(138,371)"/>
<path d="M0 0 C3.17512766 1.51674314 5.48551831 3.56005828 8 6 C8.67289062 6.62261719 9.34578125 7.24523437 10.0390625 7.88671875 C39.3661823 37.5870928 56.17472676 87.11447779 73.41064453 124.56396484 C75.04996655 128.10802293 76.70840628 131.64263036 78.37109375 135.17578125 C79.19057495 136.92604614 79.19057495 136.92604614 80.02661133 138.71166992 C81.05644876 140.91086911 82.0910777 143.10783408 83.1315918 145.30200195 C89.28446932 158.49680245 89.28446932 158.49680245 90 164 C88.76171875 166.7265625 88.76171875 166.7265625 86.6875 168.625 C86.01074219 169.27726563 85.33398438 169.92953125 84.63671875 170.6015625 C83 172 83 172 80.73046875 171.9765625 C78 171 78 171 76.17578125 167.8984375 C75.53722277 166.3979379 74.91810873 164.88909843 74.3125 163.375 C73.52950468 161.5336798 72.74269179 159.69398065 71.953125 157.85546875 C71.49873047 156.7886084 71.04433594 155.72174805 70.57617188 154.62255859 C67.73383261 148.08993313 64.71544336 141.63802275 61.71697998 135.17593384 C59.75270589 130.94202229 57.79457924 126.70526928 55.8359375 122.46875 C55.43746613 121.60735916 55.03899475 120.74596832 54.62844849 119.85847473 C51.8355503 113.8178659 49.05895307 107.7699379 46.2890625 101.71875 C29.34414527 55.81218333 29.34414527 55.81218333 -1 21 C-6.16952104 20.06779129 -9.01266692 20.56869682 -13.375 23.5 C-37.33516923 44.14260734 -49.44984428 86.01498584 -62.25292969 114.34204102 C-66.78572062 124.36557781 -71.39419487 134.35136485 -76.0625 144.3125 C-76.5241153 145.29964493 -76.5241153 145.29964493 -76.99505615 146.30673218 C-78.43830009 149.39143903 -79.89038091 152.47120283 -81.35595703 155.54541016 C-82.46243322 157.87042324 -83.5516895 160.20370125 -84.62451172 162.54443359 C-85.13900879 163.6370752 -85.65350586 164.7297168 -86.18359375 165.85546875 C-86.6314624 166.82508545 -87.07933105 167.79470215 -87.54077148 168.79370117 C-89 171 -89 171 -91.17602539 171.8215332 C-92.07889282 171.90987427 -92.07889282 171.90987427 -93 172 C-94.26683686 170.91759524 -95.4877553 169.78132537 -96.6875 168.625 C-97.37199219 167.99851563 -98.05648437 167.37203125 -98.76171875 166.7265625 C-100.51130637 162.87415821 -99.48683714 160.71299378 -98.12475586 156.81591797 C-96.08198018 151.70166257 -93.8021481 146.72261455 -91.4375 141.75 C-90.59626587 139.96033813 -90.59626587 139.96033813 -89.73803711 138.13452148 C-88.17329578 134.80702424 -86.59931183 131.48397009 -85.02380371 128.16156006 C-83.59613368 125.14731574 -82.17445934 122.13025617 -80.75244141 119.11334229 C-76.20978759 109.47704224 -71.64126926 99.8531947 -67.06237793 90.23406982 C-66.05303595 88.11152907 -65.04604473 85.98789325 -64.04003906 83.86376953 C-34.44902983 21.4124538 -34.44902983 21.4124538 -17 5 C-16.42121094 4.43925781 -15.84242188 3.87851562 -15.24609375 3.30078125 C-10.64332005 -0.59715935 -5.8556715 -1.26534226 0 0 Z " fill="#42B32F" transform="translate(261,15)"/>
<path d="M0 0 C9.59493019 5.31483878 16.89473746 12.90009001 20.69140625 23.296875 C23.23181038 34.29583143 22.34958287 45.60244476 16.390625 55.32421875 C10.04007396 64.43531545 1.86016864 69.57436346 -8.734375 72.69921875 C-19.3279529 74.40786035 -27.59273043 72.84338822 -36.921875 67.38671875 C-37.80875 66.70609375 -38.695625 66.02546875 -39.609375 65.32421875 C-41.094375 64.27234375 -41.094375 64.27234375 -42.609375 63.19921875 C-50.76822167 56.15391545 -53.65830512 45.85880571 -54.9609375 35.5390625 C-55.51938548 25.32534282 -51.13862144 16.12539319 -44.703125 8.36328125 C-32.76444222 -3.26357026 -15.42901956 -6.74428002 0 0 Z " fill="#33373A" transform="translate(175.609375,303.67578125)"/>
<path d="M0 0 C9.89764637 5.95536349 16.16791871 13.10882158 20 24 C20.6875 27.25 20.6875 27.25 21 31 C21.08765625 31.79019531 21.1753125 32.58039063 21.265625 33.39453125 C21.88822894 43.05904242 18.17052844 52.42484914 12.1875 60 C3.8884591 68.60319424 -6.01523962 72.46768264 -17.75 73.25 C-29.52523118 72.99994683 -38.77298506 67.64720231 -46.8125 59.3125 C-54.37802754 49.91833784 -56.35669598 39.74804268 -55.27783203 27.99951172 C-53.92008912 18.2280579 -48.41671374 10.26324227 -41 4 C-29.65296725 -4.06160363 -12.75146689 -7.14273897 0 0 Z " fill="#33373A" transform="translate(370,304)"/>
<path d="M0 0 C0.99 0.495 0.99 0.495 2 1 C1.34773437 1.96679688 0.69546875 2.93359375 0.0234375 3.9296875 C-0.85954322 5.24467873 -1.74234325 6.55979129 -2.625 7.875 C-3.08648437 8.55884766 -3.54796875 9.24269531 -4.0234375 9.94726562 C-6.5478797 13.7162011 -8.85639049 17.49776952 -11 21.5 C-14.26028581 26.98484546 -18.6798123 29.66291568 -24 33 C-26.68260685 34.78934534 -29.34241057 36.61125905 -32 38.4375 C-32.69641602 38.91509766 -33.39283203 39.39269531 -34.11035156 39.88476562 C-42.7940156 45.87604303 -50.77236744 52.61151741 -58.74731445 59.50097656 C-62.3808812 62.63597379 -66.06651597 65.6865156 -69.8125 68.6875 C-74.11582304 72.17685138 -78.01585897 75.90866269 -81.87890625 79.875 C-84.50274481 82.50367068 -87.2839608 84.90363436 -90.1015625 87.3203125 C-92.55562292 89.49160052 -94.82881076 91.81530276 -97.1216116 94.15424728 C-98.94916133 95.95004461 -100.83540564 97.62319978 -102.78077698 99.28985596 C-106.67259053 102.67537495 -110.36253919 106.21448965 -114.00756836 109.86230469 C-114.98249992 110.83219833 -114.98249992 110.83219833 -115.97712708 111.82168579 C-118.10065469 113.93580353 -120.22047647 116.05358717 -122.33984375 118.171875 C-123.83135474 119.66016662 -125.32293825 121.14838556 -126.81459045 122.63653564 C-129.93212574 125.74810463 -133.04760904 128.86171177 -136.16186523 131.9765625 C-140.12842179 135.94322056 -144.10181013 139.90295711 -148.07701778 143.86094284 C-151.15791574 146.9306554 -154.23419017 150.00497023 -157.30923653 153.08054352 C-158.77106528 154.54120199 -160.23449301 156.00026221 -161.69962883 157.45760345 C-169.59769146 165.31756829 -177.19388727 173.15638392 -184 182 C-184.54021286 182.69452774 -185.08042572 183.38905548 -185.63700867 184.10462952 C-196.21600717 197.79561867 -204.45808537 211.99229249 -211 228 C-214.77694907 216.6691528 -205.17531183 200.10792248 -200.1875 189.9375 C-196.64988704 182.91395456 -192.59564574 176.38864388 -188 170 C-187.278125 168.99195313 -186.55625 167.98390625 -185.8125 166.9453125 C-181.60137491 161.19888139 -177.17499853 155.77528577 -172.3359375 150.546875 C-171.09727543 149.1963605 -169.86399185 147.83985239 -168.67774963 146.44306946 C-162.99211571 139.7641422 -156.76954947 133.6244073 -150.56640625 127.43359375 C-149.36231673 126.228829 -148.15837556 125.02391598 -146.95457458 123.81886292 C-144.44228375 121.30510542 -141.9282131 118.79314563 -139.4128418 116.2824707 C-136.20767504 113.08300058 -133.00701984 109.87906082 -129.80769444 106.67375088 C-127.3257857 104.18820855 -124.84147536 101.70507758 -122.35645866 99.2226429 C-121.17611485 98.04296062 -119.996498 96.86255046 -118.81765938 95.68136406 C-113.24249446 90.09753106 -107.68729757 84.53450106 -101.65611267 79.43592834 C-98.60735406 76.79250982 -95.8212956 73.88154388 -93 71 C-88.82516043 66.78162085 -84.64287481 62.6641633 -80.109375 58.828125 C-77.81350514 56.83837112 -75.59674502 54.77739446 -73.37719727 52.70336914 C-68.00089848 47.6812955 -62.53408431 42.86826495 -56.7890625 38.265625 C-54.30431057 36.24719906 -51.88290143 34.17049697 -49.46923828 32.06811523 C-35.01756201 19.55291932 -18.0409638 6.72713904 0 0 Z " fill="#42B32F" transform="translate(225,21)"/>
<path d="M0 0 C18.52192572 5.10949675 35.61750083 18.67214357 50 31 C51.0975542 31.93501564 52.19521615 32.8699048 53.29296875 33.8046875 C55.65800737 35.82292004 58.01654637 37.84844706 60.37109375 39.87890625 C62.81138734 41.98237989 65.26224457 44.07244135 67.72265625 46.15234375 C73.44021731 50.9952401 79.01353911 55.84511072 84.234375 61.23046875 C85.96369618 62.96361586 87.75697668 64.54345925 89.625 66.125 C94.24192617 70.08497225 98.47297768 74.41861773 102.72509766 78.76220703 C105.54125019 81.62011603 108.38696608 84.36356037 111.45092773 86.95532227 C117.35274712 92.09514208 122.82247812 97.67844636 128.34765625 103.21484375 C129.53000077 104.396513 130.71249357 105.57803391 131.89512634 106.75941467 C134.36180534 109.22462723 136.82668703 111.69161886 139.2902832 114.15991211 C142.42921932 117.30454484 145.57262471 120.44466556 148.71740055 123.58345699 C151.15662006 126.01904232 153.59342741 128.45702989 156.02953911 130.89572334 C157.18689277 132.05373839 158.34497387 133.21102693 159.50383186 134.36753654 C184.79605114 159.61972623 210.64957939 191.02984159 214 228 C211.8227907 225.8227907 210.99115363 223.76728178 209.84448242 220.94848633 C198.60561804 193.3533215 177.62160092 171.28248888 156.796875 150.56640625 C155.26340708 149.03413442 153.73031303 147.50148834 152.1975708 145.9684906 C149.01045591 142.78292635 145.82005341 139.60070702 142.62695312 136.42114258 C138.55140476 132.36266169 134.48254937 128.29754997 130.415905 124.23014927 C127.26079628 121.07531331 124.10308215 117.9230961 120.94449615 114.77174187 C119.44332367 113.27373045 117.94273749 111.77513123 116.44277191 110.27591133 C114.34552612 108.18085205 112.24500987 106.089127 110.14355469 103.99829102 C109.53661774 103.39090088 108.92968079 102.78351074 108.30435181 102.15771484 C104.60938029 98.48979061 100.79519698 95.01389254 96.84065628 91.62701321 C94.98262488 89.9846416 93.23575305 88.27039757 91.5 86.5 C88.55399785 83.50765625 85.47016993 80.74675828 82.2890625 78.0078125 C80.0643975 76.05648518 77.88850699 74.05845513 75.71948242 72.0456543 C70.54227187 67.24466813 65.25956467 62.65220744 59.75 58.23046875 C57.91371485 56.74109543 56.10084605 55.22238866 54.3125 53.67578125 C48.2532865 48.4497096 41.98734888 43.81036038 35.375 39.3125 C34.54742187 38.74587646 33.71984375 38.17925293 32.8671875 37.59545898 C29.60469739 35.37635138 26.37026943 33.21212367 22.9453125 31.25 C14.68474741 26.39394896 10.87148484 18.25567934 6.28271484 10.1484375 C5.00864783 8.01448438 3.63516708 6.01082336 2.17578125 4 C0 1 0 1 0 0 Z " fill="#42B32F" transform="translate(285,21)"/>
<path d="M0 0 C7.54327723 9.25765842 6.62928981 21.41665945 5.69140625 32.71875 C4.18735786 45.60298758 0.29915992 57.21015308 -5 69 C-5.39445312 69.9075 -5.78890625 70.815 -6.1953125 71.75 C-13.03359302 86.49120352 -23.27445249 99.87020474 -34 112 C-36.78688245 109.21311755 -36.26652287 107.40517672 -36.375 103.5 C-37.06840997 88.84367222 -41.39781971 74.84426367 -46 61 C-45.40481567 60.42838135 -45.40481567 60.42838135 -44.79760742 59.84521484 C-36.22376095 51.56454419 -28.27265171 43.16138839 -21.17285156 33.57861328 C-20.09821601 32.13219499 -18.99946842 30.70377228 -17.8984375 29.27734375 C-11.02571571 20.20042234 -5.0243863 10.22246555 0 0 Z " fill="#107410" transform="translate(494,240)"/>
<path d="M0 0 C2.60313402 3.26386835 4.55808692 6.71767844 6.5625 10.375 C17.15899795 29.26549165 31.54793678 45.92687021 47 61 C46.68546875 61.94617188 46.3709375 62.89234375 46.046875 63.8671875 C40.88127829 79.70064393 37.59467182 95.42380605 36 112 C16.9101321 93.27660425 -0.4371442 65.97590818 -4 39 C-4.10957031 38.21753906 -4.21914062 37.43507813 -4.33203125 36.62890625 C-5.88614582 23.67795148 -5.56681966 11.89275109 0 0 Z " fill="#107410" transform="translate(17,240)"/>
<path d="M0 0 C5.33840496 6.95610343 4.64665803 15.32055967 4.0625 23.6875 C2.27569632 32.17807807 -2.98400112 38.76028277 -9.9375 43.6875 C-18.07437751 48.1636501 -25.94781974 48.09145733 -34.9375 46.6875 C-43.70781615 43.83501853 -49.71370461 37.70474181 -53.9375 29.6875 C-56.56130397 23.94011988 -57.02334478 17.57729838 -55.3203125 11.4765625 C-52.39001638 4.70835641 -46.81925441 0.70042636 -40.125 -2.0625 C-27.5162131 -6.20819063 -11.10186985 -8.73976988 0 0 Z " fill="#47C67B" transform="translate(255.9375,228.3125)"/>
<path d="M0 0 C2.74042951 2.44562573 4.97922087 4.93623809 7 8 C5.56201287 11.46976995 5.16559371 11.91870854 1.5625 13.6875 C-9.09549419 17.17755581 -21.09052096 16.15539406 -32.16992188 16.13037109 C-34.9935442 16.12501225 -37.81700751 16.13034157 -40.640625 16.13671875 C-65.43348425 16.14833581 -65.43348425 16.14833581 -76 12 C-76.8125 9.8125 -76.8125 9.8125 -77 7 C-75.38296989 4.88113296 -74.06997046 3.61858924 -72 2 C-71.27039063 1.42894531 -70.54078125 0.85789062 -69.7890625 0.26953125 C-48.26969033 -15.6493734 -21.98254268 -14.22143546 0 0 Z " fill="#7FECAB" transform="translate(291,357)"/>
<path d="M0 0 C12.38446635 -1.00188941 29.86702301 1.19222304 40 9 C40.495 10.485 40.495 10.485 41 12 C45.62 12 50.24 12 55 12 C55.66 10.68 56.32 9.36 57 8 C67.92225404 0.61387801 83.18920601 -0.65509742 96 0 C95.18179651 5.82720532 92.57226841 8.48411106 88 12 C69.59255559 22.45430431 44.50041949 24.46732115 24.140625 19.1015625 C14.85496873 15.84465321 5.1564684 11.91720098 0 3 C0 2.01 0 1.02 0 0 Z " fill="#B64F3A" transform="translate(208,413)"/>
<path d="M0 0 C2.99226401 0.42881264 5.98912789 0.73515477 9 1 C7.22217022 6.49511022 4.50452165 10.50768917 -0.4453125 13.45703125 C-8.29352186 17.42689808 -15.29531652 19.72130385 -24 17 C-29.09359852 14.8418689 -33.45083459 11.20450924 -37 7 C-38.2578125 3.73828125 -38.2578125 3.73828125 -39 1 C-25.80542618 -1.68364213 -13.20227473 -3.80404526 0 0 Z " fill="#A82708" transform="translate(368,347)"/>
<path d="M0 0 C2.94972853 0.77749384 5.91839709 1.12580269 8.94140625 1.51171875 C7.770992 8.19980019 3.17417172 11.69458066 -2.05859375 15.51171875 C-7.66345933 18.77489968 -13.68532383 19.39249674 -20.05859375 18.51171875 C-27.4811493 16.36499925 -33.5541885 12.06635847 -37.99609375 5.76171875 C-39.05859375 3.51171875 -39.05859375 3.51171875 -39.05859375 1.51171875 C-26.0954085 -1.15390563 -13.06949303 -3.49677138 0 0 Z " fill="#A82708" transform="translate(174.05859375,346.48828125)"/>
<path d="M0 0 C0.81984375 0.70576172 0.81984375 0.70576172 1.65625 1.42578125 C0.74746094 1.43996094 -0.16132813 1.45414063 -1.09765625 1.46875 C-13.78726692 1.95030446 -26.2761451 3.88771444 -35.609375 13.34375 C-41.62732786 20.56800423 -42.36156931 28.22429896 -43.34375 37.42578125 C-46.71875 36.86328125 -46.71875 36.86328125 -50.34375 35.42578125 C-51.63151114 32.73827973 -52.04715489 31.2911019 -52.34375 28.42578125 C-52.4365625 27.65621094 -52.529375 26.88664062 -52.625 26.09375 C-53.14099181 17.90237996 -50.1424081 11.7267626 -44.90625 5.55078125 C-33.72458331 -3.7218204 -13.1497134 -8.83222417 0 0 Z " fill="#99FAC0" transform="translate(403.34375,181.57421875)"/>
<path d="M0 0 C2.41326712 2.24937801 3.91441788 4.35200778 5.55078125 7.20703125 C6.0509375 8.06425781 6.55109375 8.92148438 7.06640625 9.8046875 C10.2494842 15.83843335 9.41673389 21.95583352 9.17578125 28.58203125 C8.30078125 31.14453125 8.30078125 31.14453125 5.36328125 33.01953125 C2.30078125 34.14453125 2.30078125 34.14453125 0.30078125 34.14453125 C0.29691406 33.16226563 0.29691406 33.16226563 0.29296875 32.16015625 C-0.11601178 22.50821569 -3.32622644 13.94352384 -10.38671875 7.14453125 C-19.53170303 0.06621009 -30.58512096 -0.79565516 -41.69921875 -1.85546875 C-41.36921875 -2.84546875 -41.03921875 -3.83546875 -40.69921875 -4.85546875 C-26.7574203 -8.45335222 -12.27696827 -8.43930525 0 0 Z " fill="#98F9C0" transform="translate(151.69921875,184.85546875)"/>
<path d="M0 0 C4.00429845 0.26695323 5.65934743 0.76030765 8.75 3.25 C11.2790797 6.28489564 11.75 7.76887435 11.75 11.75 C10.53669043 15.99658348 9.29281383 17.63139847 5.75 20.25 C1.58911606 21.46043896 -0.49708461 21.53411902 -4.5625 20 C-7.25 18.25 -7.25 18.25 -9.25 15.25 C-9.79522803 12.18524457 -9.79842924 9.31475161 -9.25 6.25 C-6.8125 3.25 -6.8125 3.25 -4.25 1.25 C-3.25 0.25 -3.25 0.25 0 0 Z " fill="#47C67B" transform="translate(289.25,254.75)"/>
<path d="M0 0 C3.20879247 2.03005238 4.62927537 3.42299447 5.5078125 7.16015625 C5.85371888 11.66445895 5.42003298 13.4854596 2.5 17.0625 C-1.41039951 19.71565523 -4.38198045 19.73301898 -9 19 C-12.13836313 16.97314048 -13.65870267 15.54702808 -14.4765625 11.83984375 C-14.74016844 7.68458176 -14.31813896 5.50286481 -12.0625 1.9375 C-7.94141507 -0.669717 -4.75058323 -1.03945854 0 0 Z " fill="#47C67B" transform="translate(190,258)"/>
<path d="M0 0 C1.875 1.1875 1.875 1.1875 3 3 C3.36390404 6.08549621 3.30084126 7.54255644 1.57421875 10.16796875 C0.95160156 10.83441406 0.32898438 11.50085938 -0.3125 12.1875 C-0.92738281 12.86167969 -1.54226563 13.53585937 -2.17578125 14.23046875 C-4 16 -4 16 -7 18 C-10.0625 17.8125 -10.0625 17.8125 -13 17 C-15.17356492 13.73965263 -15.4925796 12.78026206 -15 9 C-13.5390625 6.796875 -13.5390625 6.796875 -11.625 4.75 C-10.99851562 4.06421875 -10.37203125 3.3784375 -9.7265625 2.671875 C-6.62568766 -0.33078209 -4.22935453 -0.34525343 0 0 Z " fill="#353C3D" transform="translate(275,375)"/>
<path d="M0 0 C3.71312948 2.38701181 6.71309487 5.21781075 9 9 C8.9375 12.6875 8.9375 12.6875 8 16 C5 18 5 18 2.625 17.9375 C-0.86119488 16.6924304 -2.52889094 14.72455615 -5 12 C-5.763125 11.34 -6.52625 10.68 -7.3125 10 C-9 8 -9 8 -9.4375 5.4375 C-9 3 -9 3 -7.875 1.1875 C-5.07306524 -0.58705868 -3.25598452 -0.45583783 0 0 Z " fill="#343B3D" transform="translate(243,375)"/>
<path d="M0 0 C2.4375 1.5625 2.4375 1.5625 4 4 C4.56288002 7.94016013 4.60396028 10.05782196 2.4375 13.4375 C-0.94217804 15.60396028 -3.05983987 15.56288002 -7 15 C-9.4375 13.4375 -9.4375 13.4375 -11 11 C-11.56288002 7.05983987 -11.60396028 4.94217804 -9.4375 1.5625 C-6.05782196 -0.60396028 -3.94016013 -0.56288002 0 0 Z " fill="#47C67B" transform="translate(335,250)"/>
<path d="M0 0 C2.375 1.625 2.375 1.625 4 4 C4.61195145 7.6717087 4.48706506 9.28813568 2.375 12.375 C-0.71186432 14.48706506 -2.3282913 14.61195145 -6 14 C-8.375 12.375 -8.375 12.375 -10 10 C-10.61195145 6.3282913 -10.48706506 4.71186432 -8.375 1.625 C-5.28813568 -0.48706506 -3.6717087 -0.61195145 0 0 Z " fill="#F6F6F6" transform="translate(340,321)"/>
<path d="M0 0 C2.375 1.625 2.375 1.625 4 4 C4.61195145 7.6717087 4.48706506 9.28813568 2.375 12.375 C-0.71186432 14.48706506 -2.3282913 14.61195145 -6 14 C-8.375 12.375 -8.375 12.375 -10 10 C-10.61195145 6.3282913 -10.48706506 4.71186432 -8.375 1.625 C-5.28813568 -0.48706506 -3.6717087 -0.61195145 0 0 Z " fill="#F6F6F6" transform="translate(146,321)"/>
<path d="M0 0 C1.05058594 0.13277344 2.10117188 0.26554687 3.18359375 0.40234375 C10.4508654 1.31767392 17.71672222 2.21964881 25 3 C25.33 5.31 25.66 7.62 26 10 C19.78972353 9.43737174 14.37169827 7.99833221 8.5 5.9375 C7.67757812 5.65583984 6.85515625 5.37417969 6.0078125 5.08398438 C4.00282657 4.39622757 2.00106277 3.69908924 0 3 C0 2.01 0 1.02 0 0 Z " fill="#67D797" transform="translate(171,410)"/>
<path d="M0 0 C0.33 0.66 0.66 1.32 1 2 C-1.99453629 3.16047323 -4.99644376 4.30059834 -8 5.4375 C-8.83917969 5.76298828 -9.67835938 6.08847656 -10.54296875 6.42382812 C-15.75222815 8.38234813 -20.44958754 9.54388972 -26 10 C-25.67 7.69 -25.34 5.38 -25 3 C-21.77176021 2.49389097 -18.54227635 1.99620093 -15.3125 1.5 C-14.40048828 1.35691406 -13.48847656 1.21382813 -12.54882812 1.06640625 C-11.21948242 0.86337891 -11.21948242 0.86337891 -9.86328125 0.65625 C-9.05157471 0.53056641 -8.23986816 0.40488281 -7.40356445 0.27539062 C-4.91466595 -0.00977723 -2.50293311 -0.04674739 0 0 Z " fill="#68D797" transform="translate(341,410)"/>
<path d="M0 0 C2.4375 0.8125 2.4375 0.8125 4.4375 2.8125 C4.6875 5.3125 4.6875 5.3125 4.4375 7.8125 C2.4375 9.8125 2.4375 9.8125 -0.5625 10.0625 C-3.5625 9.8125 -3.5625 9.8125 -5.5625 7.8125 C-5.93046448 4.94237704 -5.93759409 3.40475382 -4.375 0.9375 C-2.5625 -0.1875 -2.5625 -0.1875 0 0 Z " fill="#48C67C" transform="translate(277.5625,317.1875)"/>
<path d="M0 0 C0.886875 0.12375 1.77375 0.2475 2.6875 0.375 C1.15044916 4.15718127 -1.15779742 6.3119256 -4.1875 9 C-5.48300781 10.16402344 -5.48300781 10.16402344 -6.8046875 11.3515625 C-8.94404679 13.07771221 -10.80589953 14.29074957 -13.3125 15.375 C-5.61530749 0.63569519 -5.61530749 0.63569519 0 0 Z " fill="#7BE3A6" transform="translate(104.3125,258.625)"/>
<path d="M0 0 C2.5625 -0.5625 2.5625 -0.5625 6 0 C9.55860763 3.58071078 12.21000123 7.81500184 15 12 C14.67 12.99 14.34 13.98 14 15 C13.40832031 14.39671875 12.81664062 13.7934375 12.20703125 13.171875 C7.26179045 8.15955169 7.26179045 8.15955169 1.9375 3.5625 C1.298125 3.046875 0.65875 2.53125 0 2 C0 1.34 0 0.68 0 0 Z " fill="#7BE4A6" transform="translate(405,259)"/>
<path d="M0 0 C2.475 0.99 2.475 0.99 5 2 C3.625 3.5 3.625 3.5 2 5 C1.34 5 0.68 5 0 5 C0 3.35 0 1.7 0 0 Z " fill="#F2F2F3" transform="translate(152,402)"/>
<path d="M0 0 C0 1.65 0 3.3 0 5 C-2.475 4.01 -2.475 4.01 -5 3 C-2.25 0 -2.25 0 0 0 Z " fill="#F2F2F2" transform="translate(360,402)"/>
</svg>
