<?xml version="1.0" encoding="UTF-8"?>
<svg version="1.1" xmlns="http://www.w3.org/2000/svg" width="512" height="512">
<path d="M0 0 C8.56760821 5.1648702 15.46228865 12.77733769 21 21 C21.969375 20.60167969 22.93875 20.20335938 23.9375 19.79296875 C46.82813599 10.64477951 46.82813599 10.64477951 55.79296875 12.61328125 C61.19248034 16.00589472 62.49424586 24.01526763 63.98046875 29.84765625 C65.35595198 36.29886633 66.40385541 42.40369502 66 49 C66.54785156 48.96519531 67.09570312 48.93039063 67.66015625 48.89453125 C79.29246825 48.49733035 91.09476605 50.6815034 101 57 C103 59 103 59 103.15234375 61.73046875 C101.82761317 83.04658813 91.91784898 101.44829569 76.08203125 115.609375 C59.29112602 128.829163 38.47061154 134.60373276 17.3125 132.25 C10.99740519 131.46668874 4.98978983 130.20753925 -1 128 C-1.26167969 128.68320313 -1.52335937 129.36640625 -1.79296875 130.0703125 C-2.90511131 132.76968765 -4.13363998 135.38529599 -5.41113281 138.00952148 C-13.7682982 155.30559426 -18.04760487 172.82073259 -19 192 C-17.74123047 191.27296875 -17.74123047 191.27296875 -16.45703125 190.53125 C4.66416075 178.63953677 28.05064222 171.39865671 52 168 C52.65242676 167.90428711 53.30485352 167.80857422 53.97705078 167.70996094 C61.2084187 166.77047239 68.46774555 166.75648112 75.75 166.75 C76.43430084 166.74932526 77.11860168 166.74865051 77.82363892 166.74795532 C89.75481231 166.76654701 101.29562999 167.59278544 113 170 C113.81404297 170.16628906 114.62808594 170.33257812 115.46679688 170.50390625 C155.16122335 178.9229912 189.91600746 199.04778273 219 227 C219.59989746 227.57266602 220.19979492 228.14533203 220.81787109 228.73535156 C229.37918475 236.94914189 237.17382251 245.26300754 244 255 C244.70503662 255.99507568 244.70503662 255.99507568 245.42431641 257.01025391 C260.9189306 279.03528111 272.29704545 302.59743262 278 329 C278.31904297 330.27423828 278.31904297 330.27423828 278.64453125 331.57421875 C285.8031099 361.90805204 277.88854838 395.73658841 262 422 C232.84482964 467.86268733 184.41044518 495.19134424 132.26953125 506.90234375 C118.06394284 509.94959101 103.62711757 512.12921908 89.0859375 512.203125 C88.16169479 512.21013931 87.23745209 512.21715363 86.28520203 512.22438049 C83.3150847 512.24180807 80.34516659 512.24823363 77.375 512.25 C76.3617868 512.25067474 75.34857361 512.25134949 74.30465698 512.25204468 C59.65245128 512.23651205 45.40512027 511.93505381 31 509 C30.0836377 508.81775879 29.16727539 508.63551758 28.22314453 508.44775391 C21.7698986 507.1360651 15.37995177 505.62879067 9 504 C8.26652344 503.81743652 7.53304687 503.63487305 6.77734375 503.44677734 C-40.23475508 491.55095888 -84.30113791 462.08207586 -109.8125 420.5625 C-121.48041043 400.9060782 -127.40728039 378.85245633 -127.375 356.0625 C-127.37412384 355.38125061 -127.37324768 354.70000122 -127.37234497 353.99810791 C-127.32285527 342.28463207 -126.25372355 331.28591841 -123 320 C-122.75862305 319.15324707 -122.51724609 318.30649414 -122.26855469 317.43408203 C-117.77692684 302.1088738 -111.85231652 287.08176068 -102.875 273.8125 C-98.90851871 267.26552628 -99.87737819 261.24347847 -100.78027344 254.00830078 C-104.49761388 220.03180916 -91.97527986 184.38989645 -71 158 C-56.07371296 140.20097526 -38.91352568 127.83842601 -18 118 C-18.825 117.113125 -19.65 116.22625 -20.5 115.3125 C-33.63321001 99.82522404 -41.60376887 79.48146494 -40 59 C-38.08411383 39.14662951 -31.02841432 23.13611807 -17 9 C-16.0925 8.05125 -15.185 7.1025 -14.25 6.125 C-13.5075 5.42375 -12.765 4.7225 -12 4 C-11.21625 3.236875 -10.4325 2.47375 -9.625 1.6875 C-5.98316365 -0.65368051 -4.27482641 -0.78371818 0 0 Z " fill="#F67719" transform="translate(159,0)"/>
<path d="M0 0 C8.56760821 5.1648702 15.46228865 12.77733769 21 21 C21.969375 20.60167969 22.93875 20.20335938 23.9375 19.79296875 C46.82813599 10.64477951 46.82813599 10.64477951 55.79296875 12.61328125 C61.19248034 16.00589472 62.49424586 24.01526763 63.98046875 29.84765625 C65.35595198 36.29886633 66.40385541 42.40369502 66 49 C66.54785156 48.96519531 67.09570312 48.93039063 67.66015625 48.89453125 C79.29246825 48.49733035 91.09476605 50.6815034 101 57 C103 59 103 59 103.15234375 61.73046875 C101.82761317 83.04658813 91.91784898 101.44829569 76.08203125 115.609375 C59.29112602 128.829163 38.47061154 134.60373276 17.3125 132.25 C10.99740519 131.46668874 4.98978983 130.20753925 -1 128 C-1.26167969 128.68320313 -1.52335937 129.36640625 -1.79296875 130.0703125 C-2.90511131 132.76968765 -4.13363998 135.38529599 -5.41113281 138.00952148 C-13.7682982 155.30559426 -18.04760487 172.82073259 -19 192 C-17.74123047 191.27296875 -17.74123047 191.27296875 -16.45703125 190.53125 C4.66416075 178.63953677 28.05064222 171.39865671 52 168 C52.65242676 167.90428711 53.30485352 167.80857422 53.97705078 167.70996094 C61.2084187 166.77047239 68.46774555 166.75648112 75.75 166.75 C76.43430084 166.74932526 77.11860168 166.74865051 77.82363892 166.74795532 C89.75481231 166.76654701 101.29562999 167.59278544 113 170 C113.81404297 170.16628906 114.62808594 170.33257812 115.46679688 170.50390625 C155.16122335 178.9229912 189.91600746 199.04778273 219 227 C219.59989746 227.57266602 220.19979492 228.14533203 220.81787109 228.73535156 C229.37918475 236.94914189 237.17382251 245.26300754 244 255 C244.70503662 255.99507568 244.70503662 255.99507568 245.42431641 257.01025391 C260.9189306 279.03528111 272.29704545 302.59743262 278 329 C278.31904297 330.27423828 278.31904297 330.27423828 278.64453125 331.57421875 C285.8031099 361.90805204 277.88854838 395.73658841 262 422 C232.84482964 467.86268733 184.41044518 495.19134424 132.26953125 506.90234375 C118.06394284 509.94959101 103.62711757 512.12921908 89.0859375 512.203125 C88.16169479 512.21013931 87.23745209 512.21715363 86.28520203 512.22438049 C83.3150847 512.24180807 80.34516659 512.24823363 77.375 512.25 C76.3617868 512.25067474 75.34857361 512.25134949 74.30465698 512.25204468 C59.65245128 512.23651205 45.40512027 511.93505381 31 509 C30.0836377 508.81775879 29.16727539 508.63551758 28.22314453 508.44775391 C21.7698986 507.1360651 15.37995177 505.62879067 9 504 C8.26652344 503.81743652 7.53304687 503.63487305 6.77734375 503.44677734 C-40.23475508 491.55095888 -84.30113791 462.08207586 -109.8125 420.5625 C-121.48041043 400.9060782 -127.40728039 378.85245633 -127.375 356.0625 C-127.37412384 355.38125061 -127.37324768 354.70000122 -127.37234497 353.99810791 C-127.32285527 342.28463207 -126.25372355 331.28591841 -123 320 C-122.75862305 319.15324707 -122.51724609 318.30649414 -122.26855469 317.43408203 C-117.77692684 302.1088738 -111.85231652 287.08176068 -102.875 273.8125 C-98.90851871 267.26552628 -99.87737819 261.24347847 -100.78027344 254.00830078 C-104.49761388 220.03180916 -91.97527986 184.38989645 -71 158 C-56.07371296 140.20097526 -38.91352568 127.83842601 -18 118 C-18.825 117.113125 -19.65 116.22625 -20.5 115.3125 C-33.63321001 99.82522404 -41.60376887 79.48146494 -40 59 C-38.08411383 39.14662951 -31.02841432 23.13611807 -17 9 C-16.0925 8.05125 -15.185 7.1025 -14.25 6.125 C-13.5075 5.42375 -12.765 4.7225 -12 4 C-11.21625 3.236875 -10.4325 2.47375 -9.625 1.6875 C-5.98316365 -0.65368051 -4.27482641 -0.78371818 0 0 Z M-71.4375 250.125 C-77.03663913 256.78659796 -82.14953032 263.77912687 -87 271 C-87.67546875 272.0003125 -88.3509375 273.000625 -89.046875 274.03125 C-107.70921838 302.99520693 -120.62515522 340.36422338 -113.87304688 375.08032227 C-108.04376064 401.20638308 -95.24456651 422.65071662 -77 442 C-76.39027344 442.66257812 -75.78054687 443.32515625 -75.15234375 444.0078125 C-64.69104775 454.97995735 -52.02693694 463.39852848 -39 471 C-38.39075684 471.35690918 -37.78151367 471.71381836 -37.15380859 472.08154297 C-3.76960157 491.37966318 33.89350496 498.71861676 72 500 C73.14210937 500.04253906 74.28421875 500.08507812 75.4609375 500.12890625 C114.91807496 500.85959398 153.2783482 491.61781948 188 473 C188.61891113 472.6685498 189.23782227 472.33709961 189.87548828 471.99560547 C213.58583877 459.16581761 233.86524046 441.28064858 249 419 C249.58523438 418.14921875 250.17046875 417.2984375 250.7734375 416.421875 C258.17026532 404.91569839 262.82796897 391.21413933 266 378 C266.22558594 377.06542969 266.45117188 376.13085938 266.68359375 375.16796875 C271.51746005 351.33200736 266.34772692 327.33699593 258 305 C257.5875 303.86949219 257.175 302.73898437 256.75 301.57421875 C238.71356426 255.29322565 197.11342666 215.84175396 152.2890625 195.84375 C128.46388192 185.50307392 105.10467244 179.43444354 79.01733398 179.55395508 C76.20026291 179.56246146 73.38523202 179.53357584 70.56835938 179.50195312 C16.25885598 179.29453055 -36.58378457 209.65488343 -71.4375 250.125 Z " fill="#343639" transform="translate(159,0)"/>
<path d="M0 0 C0.33 0 0.66 0 1 0 C6.53816312 32.63560411 0.52359354 64.78880768 -18.75 92.125 C-23.66160931 98.89378212 -29.20049282 104.98928164 -35 111 C-35.98033203 112.05767578 -35.98033203 112.05767578 -36.98046875 113.13671875 C-73.67903531 151.71325034 -131.57790153 167.52435339 -183.0546875 169.15234375 C-186.3787013 169.18753919 -189.67804986 169.12066107 -193 169 C-193.70656738 168.98066406 -194.41313477 168.96132813 -195.14111328 168.94140625 C-251.86875276 167.32570804 -306.30380218 147.98534014 -346.37890625 106.86328125 C-355.26327483 97.1580023 -361.95837908 86.65192238 -368 75 C-368.74056641 73.58267578 -368.74056641 73.58267578 -369.49609375 72.13671875 C-376.24286346 58.28587377 -380.41117416 42.14644955 -380.25 26.75 C-380.24613281 25.84483643 -380.24226563 24.93967285 -380.23828125 24.00708008 C-380.14293043 16.53991902 -379.38294608 9.34690105 -378 2 C-377.67 2.66 -377.34 3.32 -377 4 C-376.01 4.33 -375.02 4.66 -374 5 C-372.59765625 6.390625 -372.59765625 6.390625 -371.0625 8.25 C-367.84124564 12.05012671 -364.51573199 15.72700701 -361.125 19.375 C-357.50735686 23.26752131 -353.94207602 27.1921575 -350.4375 31.1875 C-314.98719971 70.49246753 -261.56017512 93.91084454 -209.1600647 96.8999939 C-201.59243494 97.25035802 -194.01172187 97.24429557 -186.4375 97.25 C-185.03961746 97.25151062 -185.03961746 97.25151062 -183.61349487 97.25305176 C-170.97254983 97.24381597 -158.60318678 97.02399554 -146.17871094 94.44873047 C-143.91981286 93.98348454 -141.65530552 93.58444749 -139.3828125 93.19140625 C-111.93693559 88.21424879 -84.74357412 77.19745316 -62 61 C-61.11707275 60.38439209 -61.11707275 60.38439209 -60.21630859 59.75634766 C-44.74494918 48.95359578 -30.33679528 36.65329686 -18.02734375 22.31640625 C-15.32099482 19.22418098 -12.53838144 16.20570914 -9.75 13.1875 C-9.23010498 12.62385742 -8.71020996 12.06021484 -8.17456055 11.47949219 C-6.21446523 9.36112435 -4.26247377 7.25287796 -2.18359375 5.25 C-0.64840949 3.62868329 -0.37384902 2.1683243 0 0 Z " fill="#E76107" transform="translate(424,331)"/>
<path d="M0 0 C0.91504303 -0.0066568 1.83008606 -0.0133136 2.77285767 -0.02017212 C4.70060237 -0.03023092 6.62838142 -0.03499126 8.55615234 -0.03466797 C11.43519119 -0.03900025 14.31264166 -0.07527939 17.19140625 -0.11328125 C68.56619419 -0.42172441 115.37926261 25.50162834 151.33154297 60.5859375 C161.64227874 70.78005529 170.14494682 82.25298391 178.1015625 94.3359375 C177.7715625 94.9959375 177.4415625 95.6559375 177.1015625 96.3359375 C176.28816406 95.53671875 175.47476562 94.7375 174.63671875 93.9140625 C143.23763517 63.60348048 102.66254266 47.52962801 60.1015625 40.3359375 C59.18294434 40.17077637 58.26432617 40.00561523 57.31787109 39.83544922 C42.10407483 37.17942088 26.87721305 37.02595432 11.4765625 36.9609375 C10.00071686 36.94901871 10.00071686 36.94901871 8.49505615 36.93685913 C-11.09934189 36.81539191 -30.2223493 39.01163309 -49.3984375 43.0234375 C-50.61055908 43.27689941 -51.82268066 43.53036133 -53.0715332 43.79150391 C-64.72096127 46.33950582 -75.82833087 49.92774965 -86.8984375 54.3359375 C-88.09750732 54.81135986 -88.09750732 54.81135986 -89.32080078 55.29638672 C-112.93137263 64.83456328 -133.59145687 78.72240311 -151.8984375 96.3359375 C-151.8984375 86.77707675 -139.0828976 75.32058927 -132.8984375 68.3359375 C-132.2192627 67.5620166 -132.2192627 67.5620166 -131.52636719 66.77246094 C-110.92300493 43.37642953 -85.59587149 25.51841615 -56.8984375 13.3359375 C-56.25519531 13.06056152 -55.61195313 12.78518555 -54.94921875 12.50146484 C-43.62514998 7.7381205 -31.89895197 4.85994628 -19.8984375 2.3359375 C-19.17536407 2.1707663 -18.45229065 2.00559509 -17.70730591 1.8354187 C-11.74525077 0.53528728 -6.0938131 0.01599198 0 0 Z " fill="#FDAB3F" transform="translate(222.8984375,179.6640625)"/>
<path d="M0 0 C3.2716729 2.03730547 6.12450427 4.44176562 9 7 C9.62261719 7.55171875 10.24523437 8.1034375 10.88671875 8.671875 C25.15211598 22.13584542 32.82039502 40.93654373 33.40039062 60.29711914 C33.69576189 84.29797729 26.06824346 102.51013204 9.4375 119.875 C5.81737459 123.37694262 2.70483815 126.13581885 -2 128 C-8.97985432 126.39575929 -13.03243233 121.8773849 -18 117 C-18.77988281 116.25621094 -19.55976563 115.51242188 -20.36328125 114.74609375 C-27.17744387 107.79070496 -31.13547515 99.8196069 -35 91 C-35.3609375 90.18660156 -35.721875 89.37320313 -36.09375 88.53515625 C-42.8623259 70.90301602 -40.78368702 49.27846592 -33.4609375 32.296875 C-28.53457133 21.90426691 -14.3058767 -3.08558125 0 0 Z " fill="#343639" transform="translate(447,132)"/>
<path d="M0 0 C2.55501345 1.42375329 4.46458022 3.29179156 6.5 5.375 C7.05896973 5.9230127 7.61793945 6.47102539 8.19384766 7.03564453 C23.27221747 22.0617043 32.0627293 39.90509042 33.03125 61.40625 C32.83605895 83.85322086 24.9412814 102.97710794 9 119 C8.24460937 119.79019531 7.48921875 120.58039063 6.7109375 121.39453125 C5.96070313 122.13058594 5.21046875 122.86664063 4.4375 123.625 C3.77621094 124.27726562 3.11492187 124.92953125 2.43359375 125.6015625 C-1.02573919 127.58942958 -4.16723487 127.81687236 -8 127 C-10.42522844 125.36919126 -12.08070254 124.04763457 -14.0625 122 C-14.83327881 121.24505249 -14.83327881 121.24505249 -15.61962891 120.47485352 C-17.10392344 119.00483554 -18.55553972 117.50905209 -20 116 C-20.69738281 115.28714844 -21.39476562 114.57429688 -22.11328125 113.83984375 C-34.86744522 100.06760904 -40.82188325 81.54393268 -41 63 C-39.9182391 39.20692385 -30.2668374 20.25554757 -13 4 C-12.175 3.175 -11.35 2.35 -10.5 1.5 C-7.04332594 -0.57400444 -3.88752625 -0.71060363 0 0 Z " fill="#343639" transform="translate(369,37)"/>
<path d="M0 0 C7.90697023 5.64407692 13.80599262 13.74000653 15.47265625 23.42578125 C16.54333422 35.38168527 15.73298891 45.18137727 8.453125 55.20703125 C2.28576873 62.55169371 -5.71444112 68.56869347 -15.5480957 69.64746094 C-17.81650445 69.76601094 -20.06835617 69.80551944 -22.33984375 69.80078125 C-23.53915527 69.79836426 -23.53915527 69.79836426 -24.76269531 69.79589844 C-30.78139694 69.6706623 -35.41022354 68.74158336 -40.52734375 65.42578125 C-41.55859375 64.82765625 -42.58984375 64.22953125 -43.65234375 63.61328125 C-52.18068956 57.12432248 -57.11385743 49.66624021 -60.52734375 39.42578125 C-61.47508317 26.74782436 -59.87896113 16.45315703 -51.50390625 6.4921875 C-36.95149268 -8.72169941 -17.92515865 -11.16512973 0 0 Z " fill="#34363A" transform="translate(160.52734375,267.57421875)"/>
<path d="M0 0 C9.66134812 8.01977392 14.16697957 17.08282649 15.62109375 29.43359375 C16.07781583 39.41227919 13.13854455 47.79791107 7.07421875 55.74609375 C0.39147494 62.9191186 -8.31936623 68.32744084 -18.27734375 69.0859375 C-30.08135694 69.47940461 -39.14519931 67.83717481 -48.5625 60.125 C-55.75632773 53.20534719 -60.13840415 45.01856008 -61.0234375 35.015625 C-61.1390473 23.31591304 -59.50557495 14.13336529 -51.73046875 4.8828125 C-37.5304328 -9.50728129 -16.53227575 -11.94769508 0 0 Z " fill="#34363A" transform="translate(355.6875,268.1875)"/>
<path d="M0 0 C3.96315724 0.47557887 4.65083828 1.28229785 7.125 4.375 C7.52976562 4.96925781 7.93453125 5.56351562 8.3515625 6.17578125 C16.96808138 18.57105283 31.79502638 24.98761342 46.125 28.375 C52.45307706 29.41935398 58.81252585 29.52334853 65.21264648 29.66479492 C109.426168 30.676168 109.426168 30.676168 120.125 41.375 C123.56838304 40.99652471 126.16314505 39.26298358 129.125 37.5625 C143.97405821 30.17349496 160.34290123 29.87474551 176.61816406 29.7019043 C187.83284109 29.54973489 198.78869738 28.8354977 209.3125 24.6875 C210.318573 24.2999353 210.318573 24.2999353 211.3449707 23.90454102 C222.21086176 19.52290148 230.05007322 12.51183653 236.79296875 3.046875 C238.125 1.375 238.125 1.375 240.125 0.375 C245.41423988 -0.07514808 245.41423988 -0.07514808 248 1.5625 C249.51995899 4.01132282 249.38696206 5.52299369 249.125 8.375 C247.953125 10.4375 247.953125 10.4375 246.375 12.375 C245.60929687 13.3340625 245.60929687 13.3340625 244.828125 14.3125 C243.61725862 15.7788703 242.35631446 17.20450301 241.0637207 18.59936523 C238.74631953 21.91715064 238.55886882 23.83536819 238.40234375 27.84765625 C238.33853516 29.07677734 238.27472656 30.30589844 238.20898438 31.57226562 C238.16064453 32.84779297 238.11230469 34.12332031 238.0625 35.4375 C237.95913445 37.97059397 237.84376576 40.50323433 237.71484375 43.03515625 C237.67222412 44.15543213 237.62960449 45.27570801 237.58569336 46.42993164 C237.08322111 49.64207937 236.39309575 51.07822874 234.125 53.375 C229.72807089 54.44890435 226.95789417 52.91703773 223.19921875 50.78515625 C221.39535588 49.68272208 219.59995125 48.56634914 217.8125 47.4375 C216.89404297 46.87353516 215.97558594 46.30957031 215.02929688 45.72851562 C208.36673504 41.61673504 208.36673504 41.61673504 207.125 40.375 C205.26777486 40.44037432 203.41295601 40.57861859 201.5625 40.75 C200.04462891 40.88535156 200.04462891 40.88535156 198.49609375 41.0234375 C196.18571662 41.26438065 193.8803596 41.55751067 191.58203125 41.89453125 C186.77251115 42.50897596 181.96663294 42.52837404 177.1237793 42.61425781 C166.91121551 42.8137869 156.8560791 43.15721109 146.8125 45.125 C146.03874023 45.26977783 145.26498047 45.41455566 144.46777344 45.5637207 C138.14136451 46.94928547 132.72413888 49.77586112 128.125 54.375 C122.2921662 55.14035803 116.87545573 55.63532813 112 52.125 C111.05125 51.2175 110.1025 50.31 109.125 49.375 C95.65503089 42.53568694 79.40399357 43.06641484 64.65185547 42.84326172 C56.90874371 42.71502264 49.63880465 42.39977262 42.125 40.375 C36.64600227 39.46183371 34.00171552 41.51834805 29.69140625 44.57421875 C26.83353674 46.57951227 23.92009968 48.435308 20.9375 50.25 C19.97457031 50.84554687 19.01164062 51.44109375 18.01953125 52.0546875 C14.71313056 53.56287027 12.71410346 53.94091673 9.125 53.375 C5.85294615 50.14607601 5.74335831 47.43329772 5.67578125 42.95703125 C5.63130859 41.70212891 5.58683594 40.44722656 5.54101562 39.15429688 C5.47252603 36.52972408 5.42275391 33.90458974 5.39257812 31.27929688 C5.06741009 23.2241848 4.03087628 18.77706033 -1.97583008 13.21362305 C-3.91470804 11.33655788 -4.92082867 9.88539071 -5.875 7.375 C-5.4523856 2.93754884 -4.75030059 0.61960442 0 0 Z " fill="#363739" transform="translate(113.875,342.625)"/>
<path d="M0 0 C11.38281953 5.18302676 17.68836554 18.08857516 22 29.1796875 C27.85014617 45.67892786 25.39930495 62.24472527 18.51171875 78.046875 C14.3893064 86.09995959 8.64643452 92.91435839 2 99 C-1.80618818 97.22538483 -4.11662473 95.08933065 -7 92 C-7.4640625 91.54109375 -7.928125 91.0821875 -8.40625 90.609375 C-19.76140845 78.65021876 -23.51606637 62.50497731 -23.42211914 46.50561523 C-22.92995262 29.40242521 -15.53282768 15.41351634 -4 3 C-2.69680618 1.96102761 -1.37322188 0.9444784 0 0 Z " fill="#FE7800" transform="translate(155,14)"/>
<path d="M0 0 C11.34516726 5.16588226 17.69471744 18.05267045 22 29.11328125 C27.44913042 44.84338822 26.07247503 61.30439696 19.4921875 76.4765625 C15.696991 84.01399928 10.93798319 90.03900137 5 96 C4.12601562 96.87785156 4.12601562 96.87785156 3.234375 97.7734375 C2.82703125 98.17820312 2.4196875 98.58296875 2 99 C-1.85725177 97.42852706 -4.1776383 95.02395896 -7 92 C-7.4640625 91.54109375 -7.928125 91.0821875 -8.40625 90.609375 C-19.61611415 78.80324148 -23.49885258 62.82393 -23.35180664 47.00488281 C-22.79867036 27.8269398 -13.67020463 12.9222907 0 0 Z " fill="#FE7800" transform="translate(443,146)"/>
<path d="M0 0 C10.04301492 4.47593348 15.96480074 15.03800145 20.75 24.4375 C25.87148181 39.03372315 27.73887878 55.24640175 22 70 C21.70996094 70.76183594 21.41992188 71.52367188 21.12109375 72.30859375 C20.17273691 74.59814145 19.12661691 76.79290748 18 79 C17.59136719 79.80179687 17.18273437 80.60359375 16.76171875 81.4296875 C12.90879826 88.39750427 7.8075534 93.60563221 2 99 C-8.9019208 94.07966406 -15.09807428 82.26735865 -19.35546875 71.60546875 C-25.30029924 54.20020692 -24.43121948 37.38008735 -16.6875 20.6875 C-12.4141441 12.71579632 -6.5381238 6.18041489 0 0 Z " fill="#FE7900" transform="translate(364,51)"/>
<path d="M0 0 C0.99 0.495 0.99 0.495 2 1 C1.54109375 1.969375 1.0821875 2.93875 0.609375 3.9375 C-3.49995272 12.82946678 -6.54285838 21.49118149 -8.58251953 31.06933594 C-8.98270125 32.92000085 -9.42597106 34.76118976 -9.87109375 36.6015625 C-11.17324434 42.32105648 -12.11683365 47.30008167 -11.80859375 53.15234375 C-11.24160712 66.6258319 -11.24160712 66.6258319 -14.52539062 71.05957031 C-18.5398697 74.92152359 -23.15761468 77.84856633 -27.91015625 80.71972656 C-36.4926032 85.97747794 -43.58866367 93.3958355 -50.6875 100.4375 C-51.48397949 101.22463379 -52.28045898 102.01176758 -53.10107422 102.82275391 C-57.9313904 107.67918534 -62.30562337 112.71646016 -66.47973633 118.14868164 C-66.98142334 118.7596167 -67.48311035 119.37055176 -68 120 C-68.33 120 -68.66 120 -69 120 C-69.70189813 81.59057443 -58.5943377 50.43491159 -31.8125 22.4375 C-22.74557393 13.5605235 -11.53274386 5.36001686 0 0 Z " fill="#E56107" transform="translate(140,132)"/>
<path d="M0 0 C-2.59941967 17.53638343 -10.9946277 32.1439839 -25 43 C-37.53216117 51.6531589 -50.02787343 54.98904567 -65.0625 55.1875 C-66.07231934 55.20731934 -66.07231934 55.20731934 -67.10253906 55.22753906 C-71.80858867 55.23444956 -75.58082098 54.45390415 -80 53 C-79.64808594 52.53851563 -79.29617187 52.07703125 -78.93359375 51.6015625 C-77.87428327 50.2020557 -76.82297476 48.79647539 -75.77734375 47.38671875 C-74.62103361 45.83395942 -73.44729797 44.29397571 -72.25390625 42.76953125 C-65.36627077 33.61158386 -61.42395786 23.72106228 -59.875 12.4375 C-59.09940023 8.37133788 -58.69685751 6.58671258 -55.50390625 3.8984375 C-52.38067147 2.28310843 -49.34288507 1.0843993 -46 0 C-45.08734375 -0.32226562 -44.1746875 -0.64453125 -43.234375 -0.9765625 C-29.32018052 -5.54349136 -13.71212763 -5.33249408 0 0 Z " fill="#FD7800" transform="translate(249,65)"/>
<path d="M0 0 C1.14210938 0.51046875 2.28421875 1.0209375 3.4609375 1.546875 C9.96267804 4.57189534 16.10523354 7.64990642 21 13 C21.9375 16.375 21.9375 16.375 22 19 C10.21724495 25.56920631 -5.23620521 24.32187599 -18.38232422 24.26074219 C-21.12880374 24.2499851 -23.87463341 24.26072467 -26.62109375 24.2734375 C-53.7606564 24.2990783 -53.7606564 24.2990783 -61 19 C-61.53515625 16.5546875 -61.53515625 16.5546875 -61 14 C-48.80900899 -2.84933716 -18.15576685 -8.18450442 0 0 Z " fill="#FEAB3F" transform="translate(255,315)"/>
<path d="M0 0 C0.66 0.33 1.32 0.66 2 1 C1.54109375 1.969375 1.0821875 2.93875 0.609375 3.9375 C-3.49995272 12.82946678 -6.54285838 21.49118149 -8.58251953 31.06933594 C-8.98270125 32.92000085 -9.42597106 34.76118976 -9.87109375 36.6015625 C-11.17324434 42.32105648 -12.11683365 47.30008167 -11.80859375 53.15234375 C-11.24658936 66.68657471 -11.24658936 66.68657471 -14.62207031 71.14013672 C-18.66258631 74.9980469 -23.21376666 77.96875783 -28.01757812 80.78955078 C-30.23029407 82.08313831 -30.23029407 82.08313831 -32.921875 84.33984375 C-35 86 -35 86 -37 86 C-39.77060653 80.45878695 -38.11325516 71.18239925 -38 65 C-37.97486328 63.515 -37.97486328 63.515 -37.94921875 62 C-37.23855759 49.32992673 -33.22822256 36.37896059 -28.625 24.625 C-28.36960449 23.94228027 -28.11420898 23.25956055 -27.85107422 22.55615234 C-24.41193061 14.27780487 -17.08137949 10.17590692 -9.6875 5.6875 C-8.97271484 5.24599609 -8.25792969 4.80449219 -7.52148438 4.34960938 C-2.42117347 1.21058673 -2.42117347 1.21058673 0 0 Z " fill="#F57719" transform="translate(140,132)"/>
<path d="M0 0 C11.34516726 5.16588226 17.69471744 18.05267045 22 29.11328125 C26.63848706 42.50328882 26.27053868 56.578307 22 70 C21.67 70 21.34 70 21 70 C20.98582031 69.15179688 20.97164063 68.30359375 20.95703125 67.4296875 C20.26517871 50.41385482 14.20736726 38.61188593 2 27 C-5.17938249 29.42630778 -9.24350348 34.79363674 -12.8125 41.30859375 C-16.37875767 48.86117309 -18.01815271 54.99176293 -18.5625 63.3125 C-18.64628906 64.56675781 -18.73007812 65.82101563 -18.81640625 67.11328125 C-18.90728516 68.54220703 -18.90728516 68.54220703 -19 70 C-23.11044587 63.8343312 -23.36377109 56.95212349 -23.3125 49.75 C-23.30686035 48.915896 -23.3012207 48.08179199 -23.29541016 47.22241211 C-22.93240219 28.64970278 -14.40154726 13.9276535 -1.28515625 1.21484375 C-0.86105469 0.81394531 -0.43695313 0.41304687 0 0 Z " fill="#FACF01" transform="translate(443,146)"/>
<path d="M0 0 C10.04301492 4.47593348 15.96480074 15.03800145 20.75 24.4375 C25.91003232 39.14359211 27.62120314 55.1105036 22 70 C21.67 70 21.34 70 21 70 C20.97421875 69.04480469 20.9484375 68.08960937 20.921875 67.10546875 C20.1771403 50.12890271 14.4805269 38.62526236 2 27 C-7.60790501 30.34473144 -11.42748718 39.22326964 -15.6171875 47.828125 C-17.80110836 52.83757059 -18.24936563 57.31891534 -18.5625 62.75 C-18.62727539 63.79607422 -18.62727539 63.79607422 -18.69335938 64.86328125 C-18.79889596 66.57531922 -18.8998991 68.28763561 -19 70 C-24.71714577 60.19917869 -24.26608234 46.88475044 -22.27734375 36.0703125 C-18.30590841 21.37439388 -10.98751332 10.38637277 0 0 Z " fill="#FBCF01" transform="translate(364,51)"/>
<path d="M0 0 C11.38281953 5.18302676 17.68836554 18.08857516 22 29.1796875 C26.64822917 42.28914633 26.19523169 55.81498613 22 69 C21.67 69 21.34 69 21 69 C20.98582031 68.22398438 20.97164062 67.44796875 20.95703125 66.6484375 C20.21548857 49.8534978 13.93234234 38.35027686 2 27 C-6.03582886 29.66465853 -11.17699475 37.24558586 -14.97265625 44.54296875 C-17.81546121 51.34192055 -19.17074011 58.70251301 -20 66 C-24.59340784 61.40659216 -23.30691498 52.98518854 -23.31689453 46.86938477 C-23.06439082 29.59781952 -15.63971823 15.52856944 -4 3 C-2.69680618 1.96102761 -1.37322188 0.9444784 0 0 Z " fill="#FACF01" transform="translate(155,14)"/>
<path d="M0 0 C-2.59555884 17.51033724 -10.98221311 32.18312507 -25 43 C-39.36170213 52.57446809 -39.36170213 52.57446809 -45.375 51.625 C-45.91125 51.41875 -46.4475 51.2125 -47 51 C-46.28714844 50.53851563 -45.57429687 50.07703125 -44.83984375 49.6015625 C-35.38970064 43.16579882 -28.40578054 35.09685639 -25 24 C-24.44789069 20.66394967 -24.17636836 17.37314562 -24 14 C-30.37624436 11.46441745 -35.85004098 10.57453994 -42.6875 10.75 C-43.91049805 10.75773437 -43.91049805 10.75773437 -45.15820312 10.765625 C-49.53669161 10.82225864 -53.69155785 11.1369195 -58 12 C-58 10.02 -58 8.04 -58 6 C-39.59922544 -3.7694834 -20.1086181 -7.82001815 0 0 Z " fill="#FBBF00" transform="translate(249,65)"/>
<path d="M0 0 C9.85786054 4.92893027 15.62029558 14.07423954 19.1328125 24.296875 C21.55918202 34.65812862 21.51223939 45.83916849 16.05078125 55.171875 C11.35096517 61.65314517 6.23734121 68.3813294 -1 72 C-0.67 48.24 -0.34 24.48 0 0 Z " fill="#FE5B00" transform="translate(365,78)"/>
<path d="M0 0 C9.25046172 4.62523086 14.62991585 13.01214476 18.3125 22.4375 C21.43144928 32.64497036 21.96804137 43.2633161 17.0625 52.9375 C12.47311987 60.37192269 6.98852079 66.75860941 0 72 C0 48.24 0 24.48 0 0 Z " fill="#FE5B00" transform="translate(444,173)"/>
<path d="M0 0 C7.87629983 3.93814991 12.33234931 10.14616869 16 18 C16.39445312 18.81082031 16.78890625 19.62164062 17.1953125 20.45703125 C21.08991043 29.53988725 21.82012728 39.30611498 18.8125 48.71484375 C15.0668906 56.86334497 8.34327182 67.82836409 0 72 C0 48.24 0 24.48 0 0 Z " fill="#FE5B00" transform="translate(156,41)"/>
<path d="M0 0 C-1.02694333 5.82367861 -5.27498472 9.76536333 -9.71484375 13.40625 C-16.1086467 17.3236785 -23.78909603 16.76694922 -31 16 C-37.08070061 14.394315 -42.35522323 10.08155834 -46 5 C-46.69140625 2.27734375 -46.69140625 2.27734375 -47 0 C-30.74064825 -3.92467111 -16.27433532 -3.63575576 0 0 Z " fill="#1361A6" transform="translate(162,309)"/>
<path d="M0 0 C-2.28665524 6.47145633 -6.68190101 10.85517704 -12.5 14.4375 C-19.21344669 17.44742736 -27.83469916 17.33336826 -34.7578125 15.1171875 C-39.79539696 12.53862732 -43.98493378 8.81333787 -47 4 C-47.65625 1.78515625 -47.65625 1.78515625 -48 0 C-31.43850414 -4.40939985 -16.62945337 -3.4965559 0 0 Z " fill="#1361A5" transform="translate(357,309)"/>
<path d="M0 0 C0.66 0.33 1.32 0.66 2 1 C2.09418536 5.00175121 2.08704242 8.99735455 2.0625 13 C2.09021484 14.12535156 2.11792969 15.25070313 2.14648438 16.41015625 C2.02481586 24.73228283 2.02481586 24.73228283 -0.95605469 28.41967773 C-3.23493081 30.39178207 -5.59329711 32.18857274 -8 34 C-10.08087852 36.57540044 -10.08087852 36.57540044 -11.375 39.0625 C-12.07302734 40.32320312 -12.07302734 40.32320312 -12.78515625 41.609375 C-16.47957188 48.87941477 -18.02800747 55.14239987 -18.5625 63.3125 C-18.64628906 64.56675781 -18.73007812 65.82101563 -18.81640625 67.11328125 C-18.90728516 68.54220703 -18.90728516 68.54220703 -19 70 C-23.11044587 63.8343312 -23.36377109 56.95212349 -23.3125 49.75 C-23.30686035 48.915896 -23.3012207 48.08179199 -23.29541016 47.22241211 C-22.93240219 28.64970278 -14.40154726 13.9276535 -1.28515625 1.21484375 C-0.86105469 0.81394531 -0.43695313 0.41304687 0 0 Z " fill="#FBBE01" transform="translate(443,146)"/>
<path d="M0 0 C0.66 0.33 1.32 0.66 2 1 C2.09418536 5.00175121 2.08704242 8.99735455 2.0625 13 C2.09021484 14.12535156 2.11792969 15.25070313 2.14648438 16.41015625 C2.02462419 24.74539272 2.02462419 24.74539272 -0.91870117 28.34936523 C-2.49145366 29.69079724 -4.10384425 30.98716597 -5.75268555 32.23388672 C-9.01872825 34.80059535 -10.46126328 37.41817158 -12.4375 41.0625 C-13.07558594 42.20847656 -13.71367187 43.35445312 -14.37109375 44.53515625 C-17.2482252 50.65509773 -18.2677153 56.20863809 -18.625 62.9375 C-18.66367187 63.62134766 -18.70234375 64.30519531 -18.7421875 65.00976562 C-18.83522412 66.67279513 -18.91863787 68.33635847 -19 70 C-24.71714577 60.19917869 -24.26608234 46.88475044 -22.27734375 36.0703125 C-18.30590841 21.37439388 -10.98751332 10.38637277 0 0 Z " fill="#FABE01" transform="translate(364,51)"/>
<path d="M0 0 C0.66 0.33 1.32 0.66 2 1 C2.69369522 23.31723849 2.69369522 23.31723849 -1.046875 29.2421875 C-3.625 31.3125 -3.625 31.3125 -6.35546875 33.125 C-15.17226821 39.37620198 -17.67693104 51.25808165 -19.39453125 61.30859375 C-19.62981082 62.86771304 -19.82196718 64.43331121 -20 66 C-24.59340784 61.40659216 -23.30691498 52.98518854 -23.31689453 46.86938477 C-23.06439082 29.59781952 -15.63971823 15.52856944 -4 3 C-2.69680618 1.96102761 -1.37322188 0.9444784 0 0 Z " fill="#FBBF01" transform="translate(155,14)"/>
<path d="M0 0 C-1.52890863 4.58672588 -5.08433004 5.8191809 -9.125 8.1875 C-9.87265625 8.65091797 -10.6203125 9.11433594 -11.390625 9.59179688 C-16.09940735 12.37686936 -19.39121092 13.71924472 -25 13 C-25.9384375 12.67386719 -26.876875 12.34773438 -27.84375 12.01171875 C-32.11514485 10.64254639 -36.04622158 10.74669768 -40.5 10.8125 C-41.74330078 10.8134668 -41.74330078 10.8134668 -43.01171875 10.81445312 C-47.44691595 10.84618347 -51.63556698 11.11436018 -56 12 C-56 10.02 -56 8.04 -56 6 C-39.84682034 -2.57617271 -17.46050841 -9.82411584 0 0 Z " fill="#FACE01" transform="translate(247,65)"/>
<path d="M0 0 C2.89452883 8.44237574 3.35021655 16.11487651 3 25 C0.43848317 25.81571218 -2.12412628 26.62766131 -4.6875 27.4375 C-5.40873047 27.66759766 -6.12996094 27.89769531 -6.87304688 28.13476562 C-10.56180375 29.2969767 -14.17959607 30.34442773 -18 31 C-18.19335938 29.90300781 -18.38671875 28.80601563 -18.5859375 27.67578125 C-18.84868175 26.22130418 -19.11171801 24.76687983 -19.375 23.3125 C-19.50132812 22.59126953 -19.62765625 21.87003906 -19.7578125 21.12695312 C-20.33442383 17.97000608 -20.91488333 15.20250914 -22.1640625 12.23046875 C-23 10 -23 10 -22.9921875 7.85546875 C-21.42997942 4.93401663 -19.1563839 4.46471666 -16.125 3.3125 C-14.52011719 2.68794922 -14.52011719 2.68794922 -12.8828125 2.05078125 C-8.30158022 0.38092829 -4.89176934 -0.09229753 0 0 Z " fill="#FBBF01" transform="translate(209,26)"/>
<path d="M0 0 C0.66 0.33 1.32 0.66 2 1 C2.67417969 0.86078125 3.34835938 0.7215625 4.04296875 0.578125 C8.14137801 -0.2231492 12.14588153 -0.22405996 16.3125 -0.25 C17.12912109 -0.270625 17.94574219 -0.29125 18.78710938 -0.3125 C24.53626878 -0.34914803 28.72955708 0.6953184 34 3 C32.51902512 6.92697211 30.53921339 8.14722562 26.8984375 10.1015625 C25.8576001 10.6699585 24.8167627 11.23835449 23.74438477 11.82397461 C22.63248779 12.41831299 21.52059082 13.01265137 20.375 13.625 C11.92299203 18.22886059 3.6172881 22.91651898 -4.40283203 28.24267578 C-5.90020332 29.21779418 -7.44576669 30.11833367 -9 31 C-9.66 30.67 -10.32 30.34 -11 30 C-10.54109375 29.175 -10.0821875 28.35 -9.609375 27.5 C-4.84650497 18.53459759 -2.07414424 9.91982027 0 0 Z " fill="#FC5B00" transform="translate(190,75)"/>
<path d="M0 0 C-1.50474539 5.32965685 -3.9393868 9.69508365 -6.8125 14.375 C-7.45155273 15.47908203 -7.45155273 15.47908203 -8.10351562 16.60546875 C-9.30326313 18.56209176 -10.42845632 20.32655927 -12 22 C-14.82421875 22.4765625 -14.82421875 22.4765625 -17 22 C-17.70045456 20.08802961 -18.384919 18.17019565 -19.0625 16.25 C-19.44535156 15.18265625 -19.82820312 14.1153125 -20.22265625 13.015625 C-21.38775139 8.49575843 -21.38775139 8.49575843 -20 6 C-17.3828125 4.55078125 -17.3828125 4.55078125 -14.125 3.3125 C-12.52011719 2.68794922 -12.52011719 2.68794922 -10.8828125 2.05078125 C-7.00246471 0.63639974 -4.12529315 -0.11149441 0 0 Z " fill="#FAD001" transform="translate(207,26)"/>
<path d="M0 0 C1.8125 1.125 1.8125 1.125 3 3 C3.625 5.6875 3.625 5.6875 3 9 C0.63028837 12.29227112 -2.13778188 15.13778188 -5 18 C-8.4375 18.1875 -8.4375 18.1875 -12 18 C-14 16 -14 16 -14.6875 12.9375 C-13.76112449 7.63189479 -11.1957179 5.43654233 -7.45703125 1.72265625 C-4.64816481 -0.24667619 -3.35429501 -0.47028123 0 0 Z " fill="#383739" transform="translate(254,346)"/>
<path d="M0 0 C3.56560326 2.49989036 6.39951736 5.51424668 9 9 C9.6875 12.9375 9.6875 12.9375 9 16 C7 18 7 18 3.8125 18.5625 C-1.46448237 17.78392883 -3.74821859 15.06013385 -7 11 C-8.39935013 8.20129973 -8.25265405 6.09501208 -8 3 C-5.87220122 -0.35968228 -3.79685672 -0.45805103 0 0 Z " fill="#383739" transform="translate(222,346)"/>
<path d="M0 0 C1.9375 1.0625 1.9375 1.0625 3 3 C3.49891602 6.92005446 3.55253414 9.11594538 1.4375 12.5 C-1 14 -1 14 -4.5625 14 C-8 13 -8 13 -9.9375 11.25 C-11.23370853 8.50508782 -11.52487013 6.99925788 -11 4 C-7.99829475 -0.44252378 -5.15110438 -0.6555951 0 0 Z " fill="#F5F5F5" transform="translate(126,282)"/>
<path d="M0 0 C2.5 1.5625 2.5 1.5625 4 4 C4 7.82389746 3.85254277 10.05611336 1.25 12.9375 C-1.49491218 14.23370853 -3.00074212 14.52487013 -6 14 C-8.3125 12.4375 -8.3125 12.4375 -10 10 C-10.42519574 6.53769185 -10.63902633 4.1652833 -8.9375 1.0625 C-5.8347167 -0.63902633 -3.46230815 -0.42519574 0 0 Z " fill="#F5F5F6" transform="translate(320,282)"/>
<path d="M0 0 C1.65 0 3.3 0 5 0 C5.28875 0.969375 5.5775 1.93875 5.875 2.9375 C6.64214682 6.10664203 6.64214682 6.10664203 9 7 C6.09399739 8.25664978 4.20395416 9 1 9 C0.67 6.03 0.34 3.06 0 0 Z " fill="#F37503" transform="translate(190,48)"/>
<path d="M0 0 C0.66 0.33 1.32 0.66 2 1 C-0.97 3.97 -3.94 6.94 -7 10 C-7.33 9.34 -7.66 8.68 -8 8 C-5.33333333 5.33333333 -2.66666667 2.66666667 0 0 Z " fill="#F48121" transform="translate(75,271)"/>
<path d="M0 0 C1.98 0.99 3.96 1.98 6 3 C4.71034824 4.37562854 3.37310707 5.70766393 2 7 C1.34 7 0.68 7 0 7 C0 4.69 0 2.38 0 0 Z " fill="#E1E1E1" transform="translate(131,373)"/>
<path d="M0 0 C0 2.31 0 4.62 0 7 C-2.475 6.01 -2.475 6.01 -5 5 C-5 4.01 -5 3.02 -5 2 C-1.125 0 -1.125 0 0 0 Z " fill="#E2E2E3" transform="translate(340,373)"/>
</svg>
