<?xml version="1.0" encoding="UTF-8"?>
<svg version="1.1" xmlns="http://www.w3.org/2000/svg" width="512" height="512">
<path d="M0 0 C14.33101995 8.09281126 20.53228269 24.66854856 24.8046875 39.71484375 C28.96495981 55.54898362 30.61676967 71.80827909 31.69604492 88.10058594 C31.87764995 90.37924237 31.87764995 90.37924237 32.9296875 93.1875 C33.54972656 92.65382813 34.16976562 92.12015625 34.80859375 91.5703125 C59.42639223 70.85839471 88.56477462 57.08337783 119.9296875 50.1875 C120.67669922 50.02233887 121.42371094 49.85717773 122.19335938 49.68701172 C169.36391062 39.79674219 219.39361746 52.05634716 259.28125 78.0234375 C265.40216108 82.12657585 271.18601502 86.57572389 276.9296875 91.1875 C277.9196875 91.8475 278.9096875 92.5075 279.9296875 93.1875 C279.96932617 92.52032959 280.00896484 91.85315918 280.04980469 91.16577148 C284.06658883 26.23700792 284.06658883 26.23700792 304.15625 5.73828125 C309.34904333 1.19744655 313.65669882 -1.69017765 320.76953125 -1.2265625 C324.36468002 -0.53743814 327.08583187 0.98666068 329.9296875 3.1875 C330.49300781 3.61546875 331.05632812 4.0434375 331.63671875 4.484375 C351.89012676 22.22325154 354.848557 58.68799631 356.59375 83.5859375 C357.1470539 92.44817792 357.58174528 101.31497333 357.9296875 110.1875 C358.37119141 109.79208008 358.81269531 109.39666016 359.26757812 108.98925781 C366.20145101 102.89325893 375.32963914 96.15821272 384.95703125 96.1953125 C389.2810766 96.56571489 392.58257748 97.41418027 395.9296875 100.1875 C400.60712341 107.20365387 400.30023146 114.21285952 398.9296875 122.25 C397.16974337 130.76194456 393.75238958 138.4232355 389.9296875 146.1875 C389.61870117 146.82719727 389.30771484 147.46689453 388.98730469 148.12597656 C381.05728804 164.25775497 370.17087449 178.1151355 358.2421875 191.5 C357.50871094 192.32757813 356.77523438 193.15515625 356.01953125 194.0078125 C353.9296875 196.1875 353.9296875 196.1875 351.99609375 197.6171875 C350.05162097 199.06319266 349.01565475 200.00666412 347.9296875 202.1875 C347.73223894 206.54233777 348.2306349 210.77297734 348.72167969 215.09033203 C351.82583754 246.38694701 341.14157449 277.67010048 321.9296875 302.1875 C318.46565374 306.38869184 314.7343473 310.29575214 310.9296875 314.1875 C309.65544922 315.55455078 309.65544922 315.55455078 308.35546875 316.94921875 C300.51743994 325.16216075 291.59437221 332.22434359 282.06225586 338.39672852 C277.47732419 341.42178064 274.78462596 344.67056933 271.9921875 349.375 C271.5696167 350.07423584 271.1470459 350.77347168 270.71166992 351.49389648 C251.27641688 384.46617808 245.27622837 424.28044347 242.37890625 461.90625 C242.29987061 462.92243408 242.22083496 463.93861816 242.1394043 464.9855957 C242.00388939 466.85267246 241.88564336 468.72111902 241.78833008 470.59057617 C241.52416483 474.42417542 241.35852327 476.58439267 239.09375 479.76953125 C236.9296875 481.1875 236.9296875 481.1875 233.3046875 481.1875 C232.1909375 480.8575 231.0771875 480.5275 229.9296875 480.1875 C229.2696875 478.8675 228.6096875 477.5475 227.9296875 476.1875 C180.4096875 476.1875 132.8896875 476.1875 83.9296875 476.1875 C83.2696875 477.5075 82.6096875 478.8275 81.9296875 480.1875 C78.5546875 481.1875 78.5546875 481.1875 74.9296875 481.1875 C71.69864537 478.92968094 70.99833635 477.5167163 70.18774414 473.62939453 C70.05395664 472.19458402 69.93920797 470.75791712 69.83984375 469.3203125 C69.77048111 468.54162811 69.70111847 467.76294373 69.62965393 466.96066284 C69.48100845 465.28526582 69.33975035 463.60920017 69.20513916 461.93261719 C68.84447898 457.4951222 68.41633328 453.06423822 67.98828125 448.6328125 C67.86030151 447.29685028 67.86030151 447.29685028 67.72973633 445.93389893 C64.53435883 413.38565244 57.91295171 379.55876696 40.9296875 351.1875 C40.32640625 350.17945313 39.723125 349.17140625 39.1015625 348.1328125 C34.79586233 341.60189754 29.66743161 337.52961747 23.2109375 333.33984375 C7.25038085 322.87047862 -6.94632529 308.34729447 -17.0703125 292.1875 C-17.61075195 291.32560059 -17.61075195 291.32560059 -18.16210938 290.44628906 C-30.22418028 270.89177447 -37.31345986 249.15343912 -37.1953125 226.0625 C-37.20280518 225.33385742 -37.21029785 224.60521484 -37.21801758 223.85449219 C-37.22550968 220.21569749 -37.06922791 216.78940207 -36.38671875 213.2109375 C-35.13592109 206.6537533 -35.13592109 206.6537533 -37.12158203 200.50146484 C-40.16304817 196.90020656 -43.74914256 193.90431199 -47.30126953 190.82324219 C-51.72267419 186.73499886 -55.19825203 181.73123098 -58.77929688 176.9140625 C-60.01699838 175.25880058 -61.28260981 173.62890455 -62.5546875 172 C-74.92915576 155.81781396 -89.24263385 132.35627417 -88.0703125 111.1875 C-87.07352597 105.93613683 -85.55801171 101.39299943 -81.0703125 98.1875 C-76.2822029 95.90226587 -72.10291257 95.69282573 -67.0703125 97.1875 C-59.08760992 100.54669507 -52.46577486 104.33297756 -46.0703125 110.1875 C-46.03067383 109.26864014 -45.99103516 108.34978027 -45.95019531 107.40307617 C-42.33949634 27.27448447 -42.33949634 27.27448447 -20.22265625 5.08203125 C-14.20839952 -0.2118245 -7.89927188 -3.10009161 0 0 Z " fill="#1A92D5" transform="translate(100.0703125,15.8125)"/>
<path d="M0 0 C0.85534332 0.00304138 1.71068665 0.00608276 2.59194946 0.00921631 C15.3777637 0.07637888 27.35704771 0.83860744 39.6875 4.4375 C41.34080868 4.87886904 42.99446806 5.31892606 44.6484375 5.7578125 C68.42113244 12.28289115 90.45411136 23.06811473 109.9609375 38.18359375 C111.78872359 39.51101306 113.67821985 40.6367562 115.625 41.78125 C120.67467096 45.00123906 124.91307987 48.09814802 126.32275391 54.17675781 C127.03937867 61.03852149 126.77045519 67.9073754 126.65185547 74.79443359 C126.88835976 98.96646842 133.3377917 133.1752825 150.52734375 151.38671875 C155.67551078 155.73476166 161.10018179 156.73517563 167.6875 157.4375 C165.56592911 161.55584349 162.84498545 164.3893332 159.55859375 167.56640625 C157.75784461 169.36715539 156.13310688 171.23495901 154.5 173.1875 C147.0138114 181.84865093 137.91261301 189.68788901 128.6875 196.4375 C128.3575 196.4375 128.0275 196.4375 127.6875 196.4375 C127.74550781 195.20515625 127.80351562 193.9728125 127.86328125 192.703125 C128.26851513 180.45564366 127.33497886 170.94088248 119.4375 161 C112.79832015 154.04260238 103.91715037 150.28310404 94.36865234 149.95507812 C82.97011081 149.86819532 74.96282885 152.33572413 66.25 160.0625 C58.52175114 168.62972369 56.70846565 178.28055335 57.28125 189.44921875 C58.14450247 199.6811584 63.15134376 206.64773623 70.6875 213.4375 C74.79861583 216.30083307 78.78217865 218.36825018 83.6875 219.4375 C83.6875 220.0975 83.6875 220.7575 83.6875 221.4375 C81.962273 222.11429658 80.23211061 222.77852 78.5 223.4375 C77.05560547 223.994375 77.05560547 223.994375 75.58203125 224.5625 C72.71681294 225.42863887 70.65392522 225.74367925 67.6875 225.4375 C65.68051025 224.1147113 63.68158077 222.77966975 61.6875 221.4375 C49.27728111 215.9740371 35.71311108 216.11316078 22.4296875 216.1015625 C20.67391864 216.09511547 18.9181508 216.08838579 17.16238403 216.08139038 C13.49625158 216.06948113 9.83021289 216.06570284 6.1640625 216.06689453 C1.51824939 216.06709708 -3.12694768 216.03983224 -7.77261543 216.00535011 C-11.39684688 215.98286174 -15.02093535 215.97906366 -18.64522934 215.98011398 C-20.3552652 215.9777894 -22.065307 215.96914875 -23.77527237 215.95344925 C-32.79670249 215.87838452 -41.35531728 216.33646574 -50.19482422 218.25146484 C-50.93858873 218.41133188 -51.68235325 218.57119892 -52.44865608 218.73591042 C-56.71267444 219.75872469 -59.8379018 221.12643055 -63.25 223.875 C-65.88507628 225.95175319 -66.7774537 226.47098589 -70.18359375 226.2578125 C-74.72792799 225.11138748 -78.1953239 224.06044308 -81.3125 220.4375 C-80.52746094 220.01339844 -79.74242187 219.58929688 -78.93359375 219.15234375 C-67.28741173 212.65048753 -60.59227796 206.27683387 -56.3125 193.4375 C-55.4898561 180.80115026 -56.02897747 171.33519094 -64.3125 161.1875 C-71.42587741 153.70903203 -80.56102943 149.45658281 -90.875 149.125 C-101.17307763 149.2782452 -109.97121241 153.31822716 -117.3125 160.4375 C-126.81580201 171.42346004 -126.9618333 182.6427748 -126.3125 196.4375 C-132.70715452 191.83532471 -138.50575772 186.75606483 -144.3125 181.4375 C-145.24835938 180.60605469 -146.18421875 179.77460938 -147.1484375 178.91796875 C-152.61072056 174.04680948 -157.678334 169.10427907 -162.3125 163.4375 C-163.116875 162.468125 -163.92125 161.49875 -164.75 160.5 C-166.3125 158.4375 -166.3125 158.4375 -166.3125 157.4375 C-165.38630859 157.32535156 -165.38630859 157.32535156 -164.44140625 157.2109375 C-156.4839336 155.97553079 -150.49894836 153.40613488 -145.37109375 147.01953125 C-131.16753838 125.76021403 -125.28869595 96.24393738 -125.19921875 71.03125 C-125.19124268 69.82227051 -125.1832666 68.61329102 -125.17504883 67.36767578 C-125.18311936 65.06330264 -125.23619094 62.75847539 -125.3425293 60.45654297 C-125.37932879 55.70612863 -125.28180751 52.66274825 -122.27001953 48.85571289 C-119.72117386 46.52686118 -117.10679313 44.46280283 -114.3125 42.4375 C-113.12673714 41.48415031 -111.94170662 40.5298881 -110.7578125 39.57421875 C-91.12916742 24.85931192 -69.70811202 12.76852612 -45.9140625 6.41015625 C-43.77876404 5.83348671 -41.65429979 5.20715626 -39.56665039 4.4765625 C-26.69316637 0.36601047 -13.39799974 -0.10153339 0 0 Z " fill="#42B0E7" transform="translate(255.3125,74.5625)"/>
<path d="M0 0 C14.33101995 8.09281126 20.53228269 24.66854856 24.8046875 39.71484375 C28.96495981 55.54898362 30.61676967 71.80827909 31.69604492 88.10058594 C31.87764995 90.37924237 31.87764995 90.37924237 32.9296875 93.1875 C33.54972656 92.65382813 34.16976562 92.12015625 34.80859375 91.5703125 C59.42639223 70.85839471 88.56477462 57.08337783 119.9296875 50.1875 C120.67669922 50.02233887 121.42371094 49.85717773 122.19335938 49.68701172 C169.36391062 39.79674219 219.39361746 52.05634716 259.28125 78.0234375 C265.40216108 82.12657585 271.18601502 86.57572389 276.9296875 91.1875 C277.9196875 91.8475 278.9096875 92.5075 279.9296875 93.1875 C279.96932617 92.52032959 280.00896484 91.85315918 280.04980469 91.16577148 C284.06658883 26.23700792 284.06658883 26.23700792 304.15625 5.73828125 C309.34904333 1.19744655 313.65669882 -1.69017765 320.76953125 -1.2265625 C324.36468002 -0.53743814 327.08583187 0.98666068 329.9296875 3.1875 C330.49300781 3.61546875 331.05632812 4.0434375 331.63671875 4.484375 C351.89012676 22.22325154 354.848557 58.68799631 356.59375 83.5859375 C357.1470539 92.44817792 357.58174528 101.31497333 357.9296875 110.1875 C358.37119141 109.79208008 358.81269531 109.39666016 359.26757812 108.98925781 C366.20145101 102.89325893 375.32963914 96.15821272 384.95703125 96.1953125 C389.2810766 96.56571489 392.58257748 97.41418027 395.9296875 100.1875 C400.60712341 107.20365387 400.30023146 114.21285952 398.9296875 122.25 C397.16974337 130.76194456 393.75238958 138.4232355 389.9296875 146.1875 C389.61870117 146.82719727 389.30771484 147.46689453 388.98730469 148.12597656 C381.05728804 164.25775497 370.17087449 178.1151355 358.2421875 191.5 C357.50871094 192.32757813 356.77523438 193.15515625 356.01953125 194.0078125 C353.9296875 196.1875 353.9296875 196.1875 351.99609375 197.6171875 C350.05162097 199.06319266 349.01565475 200.00666412 347.9296875 202.1875 C347.73223894 206.54233777 348.2306349 210.77297734 348.72167969 215.09033203 C351.82583754 246.38694701 341.14157449 277.67010048 321.9296875 302.1875 C318.46565374 306.38869184 314.7343473 310.29575214 310.9296875 314.1875 C309.65544922 315.55455078 309.65544922 315.55455078 308.35546875 316.94921875 C300.51743994 325.16216075 291.59437221 332.22434359 282.06225586 338.39672852 C277.47732419 341.42178064 274.78462596 344.67056933 271.9921875 349.375 C271.5696167 350.07423584 271.1470459 350.77347168 270.71166992 351.49389648 C251.27641688 384.46617808 245.27622837 424.28044347 242.37890625 461.90625 C242.29987061 462.92243408 242.22083496 463.93861816 242.1394043 464.9855957 C242.00388939 466.85267246 241.88564336 468.72111902 241.78833008 470.59057617 C241.52423407 474.4231706 241.34978675 476.5905641 239.1015625 479.78515625 C236.9296875 481.1875 236.9296875 481.1875 233.1796875 480.9375 C231.5709375 480.56625 231.5709375 480.56625 229.9296875 480.1875 C228.22194868 476.52540766 227.73595414 474.06146856 228.18994141 470.05615234 C228.29730621 469.05675629 228.40467102 468.05736023 228.51528931 467.02767944 C228.64430634 465.9537796 228.77332336 464.87987976 228.90625 463.7734375 C229.03276947 462.64918365 229.15928894 461.52492981 229.28964233 460.36660767 C229.5611799 457.98035658 229.83898425 455.59481155 230.12255859 453.20996094 C230.54716442 449.62599987 230.94905292 446.04005985 231.34765625 442.453125 C232.86072618 429.17675841 234.85898196 416.19201265 237.9296875 403.1875 C238.1570459 402.17703613 238.3844043 401.16657227 238.61865234 400.12548828 C242.52303784 382.95206335 248.15931638 366.98112415 255.9296875 351.1875 C254.2796875 350.8575 252.6296875 350.5275 250.9296875 350.1875 C250.2421875 346.875 250.2421875 346.875 249.9296875 343.1875 C252.01941887 340.42244449 254.78152792 339.0240265 257.796875 337.40234375 C258.75891846 336.87672852 259.72096191 336.35111328 260.7121582 335.80957031 C261.73269287 335.25366211 262.75322754 334.69775391 263.8046875 334.125 C272.84709291 329.10354188 281.07982709 323.93047362 288.9296875 317.1875 C289.81527344 316.42824219 290.70085937 315.66898437 291.61328125 314.88671875 C294.09733784 312.69757299 296.52074159 310.45879186 298.9296875 308.1875 C299.66574219 307.51589844 300.40179688 306.84429687 301.16015625 306.15234375 C319.91771869 288.39075807 334.56903584 261.25331707 335.9296875 235.1875 C336.10875035 226.85355947 336.05633352 218.52178216 335.9296875 210.1875 C335.24261719 210.53683594 334.55554688 210.88617188 333.84765625 211.24609375 C332.94660156 211.70113281 332.04554688 212.15617188 331.1171875 212.625 C330.22386719 213.07746094 329.33054687 213.52992188 328.41015625 213.99609375 C323.90051805 216.16214044 319.88122263 216.70623225 314.9296875 216.1875 C304.52882667 212.23517289 299.44176386 204.09934795 294.5859375 194.54296875 C285.77846227 174.81083675 280.58536292 151.46941229 280.95703125 129.88671875 C281.80775699 117.41082808 281.80775699 117.41082808 277.39453125 106.25 C274.58390535 103.49829974 271.44733435 101.43411313 268.06103516 99.45458984 C265.83122597 98.12896445 263.7401158 96.68242798 261.62890625 95.17578125 C231.1973367 73.67147945 195.83777222 59.77463208 158.2956543 59.87182617 C155.76371616 59.87497324 153.23296547 59.85149227 150.70117188 59.82617188 C135.81463923 59.76672904 121.86046704 61.85836654 107.6171875 66.3125 C106.65280762 66.6118042 105.68842773 66.9111084 104.69482422 67.21948242 C83.63763144 73.97689878 64.17592586 84.53261251 46.64111328 97.96484375 C44.88675981 99.21816789 43.08682673 100.25875687 41.20703125 101.3125 C37.29498837 103.70304754 34.08035772 106.04852932 31.9296875 110.1875 C30.51821516 116.65049586 30.85495285 123.27308756 30.9375 129.8515625 C31.24112647 155.25497691 24.95583285 187.73351243 8.9296875 208.1875 C4.17704174 212.70477663 -0.68296082 215.78898804 -7.2578125 216.5625 C-13.4462989 215.95379642 -18.9130743 213.6256588 -24.0703125 210.1875 C-24.68526005 230.90537455 -24.68526005 230.90537455 -21.0703125 251.1875 C-20.87163574 251.88746094 -20.67295898 252.58742188 -20.46826172 253.30859375 C-9.25692761 292.07377595 18.84480077 317.83505027 53.13500977 337.22558594 C54.83559137 338.13706622 56.59135669 338.9433221 58.34765625 339.7421875 C60.9296875 341.1875 60.9296875 341.1875 61.9921875 344.6875 C61.9296875 348.1875 61.9296875 348.1875 60.6796875 350.125 C58.9296875 351.1875 58.9296875 351.1875 55.9296875 351.1875 C56.67412109 352.64542969 56.67412109 352.64542969 57.43359375 354.1328125 C73.15403852 385.72175084 78.27216013 420.68207412 82.01705933 455.40045166 C82.20809532 457.16852271 82.40250812 458.93623231 82.60037231 460.70355225 C82.87652717 463.19444489 83.13606403 465.68650657 83.390625 468.1796875 C83.4757283 468.92959961 83.5608316 469.67951172 83.64851379 470.45214844 C84.30233863 477.20981817 84.30233863 477.20981817 81.9296875 480.1875 C78.5546875 481.1875 78.5546875 481.1875 74.9296875 481.1875 C71.69864537 478.92968094 70.99833635 477.5167163 70.18774414 473.62939453 C70.05395664 472.19458402 69.93920797 470.75791712 69.83984375 469.3203125 C69.77048111 468.54162811 69.70111847 467.76294373 69.62965393 466.96066284 C69.48100845 465.28526582 69.33975035 463.60920017 69.20513916 461.93261719 C68.84447898 457.4951222 68.41633328 453.06423822 67.98828125 448.6328125 C67.86030151 447.29685028 67.86030151 447.29685028 67.72973633 445.93389893 C64.53435883 413.38565244 57.91295171 379.55876696 40.9296875 351.1875 C40.32640625 350.17945313 39.723125 349.17140625 39.1015625 348.1328125 C34.79586233 341.60189754 29.66743161 337.52961747 23.2109375 333.33984375 C7.25038085 322.87047862 -6.94632529 308.34729447 -17.0703125 292.1875 C-17.61075195 291.32560059 -17.61075195 291.32560059 -18.16210938 290.44628906 C-30.22418028 270.89177447 -37.31345986 249.15343912 -37.1953125 226.0625 C-37.20280518 225.33385742 -37.21029785 224.60521484 -37.21801758 223.85449219 C-37.22550968 220.21569749 -37.06922791 216.78940207 -36.38671875 213.2109375 C-35.13592109 206.6537533 -35.13592109 206.6537533 -37.12158203 200.50146484 C-40.16304817 196.90020656 -43.74914256 193.90431199 -47.30126953 190.82324219 C-51.72267419 186.73499886 -55.19825203 181.73123098 -58.77929688 176.9140625 C-60.01699838 175.25880058 -61.28260981 173.62890455 -62.5546875 172 C-74.92915576 155.81781396 -89.24263385 132.35627417 -88.0703125 111.1875 C-87.07352597 105.93613683 -85.55801171 101.39299943 -81.0703125 98.1875 C-76.2822029 95.90226587 -72.10291257 95.69282573 -67.0703125 97.1875 C-59.08760992 100.54669507 -52.46577486 104.33297756 -46.0703125 110.1875 C-46.03067383 109.26864014 -45.99103516 108.34978027 -45.95019531 107.40307617 C-42.33949634 27.27448447 -42.33949634 27.27448447 -20.22265625 5.08203125 C-14.20839952 -0.2118245 -7.89927188 -3.10009161 0 0 Z " fill="#33373B" transform="translate(100.0703125,15.8125)"/>
<path d="M0 0 C1.06734375 0.12117188 2.1346875 0.24234375 3.234375 0.3671875 C6.42093766 0.72777986 9.60860603 1.07672183 12.796875 1.421875 C16.02112192 1.77269979 19.23753838 2.15570209 22.453125 2.578125 C45.30009135 5.42589845 68.97337198 5.29070641 91.66015625 1.36376953 C95.75355928 0.72737862 99.87479796 0.3645957 104 0 C103.05347792 8.35679364 101.91742959 16.65145948 100.52978516 24.9465332 C97.09254839 45.56836984 95.7341155 66.13814696 94.69677734 86.99511719 C94.65765732 87.77045303 94.61853729 88.54578888 94.57823181 89.34461975 C94.50585488 90.78774631 94.4353226 92.23096737 94.36720276 93.67430115 C94.07596566 99.47935963 93.527783 105.19438697 93 111 C65.94 111 38.88 111 11 111 C10.34 99.45 9.68 87.9 9 76 C7.5527785 55.81126008 5.53915672 36.32909419 1.98144531 16.45922852 C1.78584267 15.36214821 1.78584267 15.36214821 1.58628845 14.24290466 C1.23106217 12.26651452 0.86742185 10.29164188 0.50317383 8.31689453 C0.07121855 5.4694688 -0.10541188 2.87034171 0 0 Z " fill="#FEFEFE" transform="translate(204,380)"/>
<path d="M0 0 C6.60262068 2.09082988 9.18184881 7.26974193 12.34765625 13.16015625 C17.11624094 23.39249016 19.46216549 34.18530596 21.75 45.1875 C21.91129395 45.94498535 22.07258789 46.7024707 22.23876953 47.48291016 C26.69480548 68.76324583 26.02839067 90.55299111 25.75 112.1875 C25.73743164 113.20086426 25.72486328 114.21422852 25.71191406 115.25830078 C25.66799694 117.77815755 25.59384112 120.29407252 25.5 122.8125 C25.48598145 123.50931885 25.47196289 124.2061377 25.45751953 124.92407227 C25.22380543 129.5140544 24.01999711 131.97717437 20.75 135.1875 C17.02099684 136.43050105 13.61650786 136.8586674 9.75 136.1875 C6.72608448 134.44842412 4.33251339 132.35252678 2.75 129.1875 C2.59932786 127.7409758 2.50138964 126.2887066 2.43359375 124.8359375 C2.39169922 123.98515625 2.34980469 123.134375 2.30664062 122.2578125 C2.26732422 121.36835938 2.22800781 120.47890625 2.1875 119.5625 C2.14431641 118.6653125 2.10113281 117.768125 2.05664062 116.84375 C1.95043139 114.62515717 1.84838806 112.4064512 1.75 110.1875 C-1.66656024 110.02072718 -1.66656024 110.02072718 -5.25 110.1875 C-8.39764682 113.33514682 -7.67692063 116.89674991 -7.6875 121.1875 C-7.68325601 128.74251385 -7.23930311 135.1169641 -2.25 141.1875 C4.13103111 146.52673012 10.16591126 146.59854232 18.2578125 146.53125 C23.14347307 146.05033487 26.2404269 144.58215005 29.75 141.1875 C32.81493802 137.25809229 34.75 134.21190038 34.75 129.1484375 C34.75 122.79634467 34.87725033 118.14104772 39.4375 113.4375 C41.16068772 111.96324791 42.93843958 110.55170086 44.75 109.1875 C45.31605957 108.7538916 45.88211914 108.3202832 46.46533203 107.87353516 C60.50370109 97.1875 60.50370109 97.1875 67.75 97.1875 C69.92324026 101.53398051 68.92322845 106.49669874 67.7890625 111.01953125 C67.33588786 112.35267286 66.86355358 113.67941331 66.375 115 C66.11025879 115.72574219 65.84551758 116.45148438 65.57275391 117.19921875 C57.40413438 138.70089664 44.14511664 157.28317029 28.75 174.1875 C28.04230469 174.96738281 27.33460938 175.74726563 26.60546875 176.55078125 C20.03254307 183.44499047 9.7774099 193.35291038 -0.25 193.8125 C-3.56961864 193.64841239 -5.11458011 192.86360512 -7.375 190.4375 C-32.9822439 155.48707252 -30.98728664 96.00300279 -25.25 55.1875 C-22.50781346 37.44827264 -18.85940829 15.88930752 -6.25 2.1875 C-3.25 0.1875 -3.25 0.1875 0 0 Z " fill="#D7E5E6" transform="translate(419.25,26.8125)"/>
<path d="M0 0 C5.57374707 1.88940579 7.77834392 5.25617216 10.6875 10.25 C17.43045476 24.46182569 21.34949275 39.73477297 23.6875 55.25 C23.79336426 55.93658691 23.89922852 56.62317383 24.00830078 57.33056641 C25.93813834 70.64980976 25.89722637 84.0714527 25.9375 97.5 C25.94276703 98.39620056 25.94803406 99.29240112 25.95346069 100.21575928 C26.0071634 112.05280938 25.37028937 123.53291273 23.6875 135.25 C23.54683105 136.28608398 23.40616211 137.32216797 23.26123047 138.38964844 C20.69587464 156.52655676 17.14448175 177.98863504 4.25 191.875 C0.67678264 193.79233614 -1.28765113 193.85372733 -5.3125 193.25 C-32.15031093 182.67752903 -53.25266076 148.83609889 -64.46484375 123.61328125 C-71.13069609 108.08651778 -71.13069609 108.08651778 -70.3125 99.25 C-69.8175 98.26 -69.8175 98.26 -69.3125 97.25 C-57.97135803 98.3841142 -50.39669842 105.97849878 -42.3125 113.25 C-41.14460938 114.23613281 -41.14460938 114.23613281 -39.953125 115.2421875 C-37.80206799 117.87467155 -37.84803004 119.50852902 -37.8125 122.875 C-37.4503547 129.46604438 -36.34105304 135.79923581 -31.85546875 140.91015625 C-25.66407128 146.28648367 -20.73599049 146.6328069 -12.734375 146.5 C-7.07919752 146.08683635 -3.99246652 144.62451806 0.4375 141 C5.5396066 134.76409194 6.14973786 129.22985817 6 121.4375 C6.00483398 120.15069336 6.00483398 120.15069336 6.00976562 118.83789062 C6.22745124 114.03258505 6.22745124 114.03258505 3.6875 110.25 C0.10406024 110.08322718 0.10406024 110.08322718 -3.3125 110.25 C-3.32667969 111.55195313 -3.34085937 112.85390625 -3.35546875 114.1953125 C-3.40238715 115.92190966 -3.45063444 117.64847107 -3.5 119.375 C-3.50870117 120.65890625 -3.50870117 120.65890625 -3.51757812 121.96875 C-3.73035585 128.11566217 -4.82634192 130.9884902 -9.3125 135.25 C-12.76989557 136.97869779 -16.53225568 136.73966895 -20.3125 136.25 C-23.18279869 134.45606332 -24.80381638 133.26736724 -26.3125 130.25 C-26.54989831 127.61018321 -26.73036689 124.99319975 -26.86328125 122.34765625 C-26.90512039 121.5475563 -26.94695953 120.74745636 -26.99006653 119.92311096 C-27.38995442 111.67090625 -27.49861879 103.42423229 -27.49780273 95.16333008 C-27.50000232 92.6848869 -27.51830612 90.20688171 -27.53710938 87.72851562 C-27.63436395 60.70611536 -25.02861467 25.0108897 -7.3125 3.25 C-4.57994416 0.83171472 -3.73131352 0.28160857 0 0 Z " fill="#D7E5E6" transform="translate(94.3125,26.75)"/>
<path d="M0 0 C0.85534332 0.00304138 1.71068665 0.00608276 2.59194946 0.00921631 C15.3777637 0.07637888 27.35704771 0.83860744 39.6875 4.4375 C41.34080868 4.87886904 42.99446806 5.31892606 44.6484375 5.7578125 C68.40392259 12.27816743 90.43179475 23.06643142 109.95654297 38.13085938 C111.82399489 39.54053535 113.7394 40.86718909 115.66015625 42.203125 C124.94916666 48.98697643 124.94916666 48.98697643 126.2890625 53.43408203 C126.86389637 57.85106445 126.44285581 62.04924246 125.6875 66.4375 C124.74132812 65.9528125 123.79515625 65.468125 122.8203125 64.96875 C105.16629319 55.98672171 87.81549228 48.73410094 68.6875 43.4375 C67.96836426 43.23141113 67.24922852 43.02532227 66.50830078 42.81298828 C5.27209084 25.46197111 -62.27637575 35.20606072 -118.3125 63.4375 C-119.55318417 64.05769442 -120.79402394 64.67757789 -122.03515625 65.296875 C-122.78667969 65.67328125 -123.53820312 66.0496875 -124.3125 66.4375 C-125.81682277 53.75104467 -125.81682277 53.75104467 -122.61328125 48.82421875 C-119.97849026 46.44201929 -117.24053833 44.44893503 -114.3125 42.4375 C-113.20706645 41.58872651 -112.10697968 40.7329541 -111.01171875 39.87109375 C-91.60482829 24.80571686 -69.70388662 12.76739698 -45.9140625 6.41015625 C-43.77876404 5.83348671 -41.65429979 5.20715626 -39.56665039 4.4765625 C-26.69316637 0.36601047 -13.39799974 -0.10153339 0 0 Z " fill="#76D4FA" transform="translate(255.3125,74.5625)"/>
<path d="M0 0 C1.24278214 -0.0033284 2.48556427 -0.0066568 3.76600647 -0.01008606 C6.38379551 -0.01511997 9.00159089 -0.01749549 11.61938477 -0.01733398 C15.55561341 -0.01950803 19.49155559 -0.03766812 23.42773438 -0.05664062 C66.99165221 -0.15540554 66.99165221 -0.15540554 76.66015625 6.16796875 C80.10696233 9.69884327 81.81037055 12.39023222 81.97265625 17.29296875 C81.83089203 25.3606419 77.54487364 31.17971029 72.16796875 36.93359375 C54.509841 52.66638047 29.24669488 55.17912986 6.67138672 54.35449219 C-8.68324932 53.40338614 -26.15392887 47.05450391 -37.33984375 36.16796875 C-42.78344732 29.96100928 -47.02677345 23.85174682 -46.68359375 15.34375 C-46.12036449 11.77876478 -44.74328602 9.81791792 -42.33984375 7.16796875 C-30.65344695 -1.24623694 -13.75350412 0.01316307 0 0 Z " fill="#FDFDFD" transform="translate(238.33984375,300.83203125)"/>
<path d="M0 0 C7.82337838 5.62175508 14.36950545 12.74862617 16.375 22.375 C17.59590899 33.21056724 17.10904035 43.06914664 10.38671875 52.0234375 C2.86248959 60.88617374 -5.42002179 66.32832802 -17.1328125 67.66015625 C-28.26577896 68.06150144 -37.47314237 64.02838695 -45.6015625 56.55859375 C-53.5121282 48.22725328 -56.0895018 37.89749561 -55.96484375 26.63671875 C-54.89115753 16.33179924 -49.39301504 8.09037914 -41.52734375 1.66015625 C-28.75760698 -7.55117062 -13.44960297 -8.30507216 0 0 Z " fill="#33373B" transform="translate(183.625,228.625)"/>
<path d="M0 0 C10.0040624 5.98756151 17.14353445 13.70980469 20.1015625 25.2578125 C21.38742166 36.05036077 19.26696769 46.37945419 12.8125 55.1953125 C6.05105132 63.34609994 -2.19792104 68.1797402 -12.828125 69.66796875 C-24.3901293 70.04463461 -34.15354884 65.79394435 -42.5859375 58.0703125 C-49.94358623 50.40960273 -52.25394418 41.32104752 -52.27905273 31.015625 C-52.08166256 21.60437895 -49.22191705 14.37255739 -42.8359375 7.3828125 C-31.1096145 -3.1708782 -14.72503664 -7.23601457 0 0 Z " fill="#33373B" transform="translate(363.8984375,226.7421875)"/>
<path d="M0 0 C1.76198933 -0.00389766 3.52397773 -0.00823449 5.28596497 -0.01298523 C8.9664719 -0.020411 12.64688286 -0.02018364 16.32739258 -0.01489258 C20.99911565 -0.00911551 25.67043997 -0.02600415 30.34209728 -0.04923725 C33.97911298 -0.06411192 37.61603581 -0.06482762 41.25307655 -0.06172752 C42.97312519 -0.06223429 44.69317995 -0.06734792 46.41319847 -0.07753944 C79.65630767 -0.25031825 79.65630767 -0.25031825 90.859375 10.26171875 C97.06260935 17.08654509 98.41967535 22.0971722 98.13671875 31.34375 C96.93818035 44.25991379 89.10810131 52.99567736 79.51953125 61.05078125 C64.04740764 72.41478928 44.25569808 76.48935057 25.46899414 76.54101562 C23.36888322 76.55061284 21.26979928 76.5816335 19.16992188 76.61328125 C-2.39607534 76.78396784 -24.51094558 70.6044541 -40.60546875 55.61328125 C-49.24269132 46.54489298 -52.84553223 36.38620171 -52.5703125 24.04296875 C-52.10531699 18.92267339 -50.7071569 16.00747931 -47.23046875 12.30078125 C-46.48603516 11.47513672 -46.48603516 11.47513672 -45.7265625 10.6328125 C-34.01000055 -0.80142265 -15.20652356 -0.01412975 0 0 Z M-38.79296875 19.92578125 C-41.49762469 24.39434324 -42.01293045 28.13039707 -41.23046875 33.30078125 C-36.3790054 46.37380845 -26.40185354 52.90145347 -14.31640625 58.5390625 C5.17605748 67.20084801 28.2915287 68.09832025 48.76953125 62.30078125 C50.34541016 61.86572266 50.34541016 61.86572266 51.953125 61.421875 C64.52467632 57.5943581 77.12640364 51.2505484 83.76953125 39.42578125 C84.45481831 38.05996607 85.12552706 36.68654027 85.76953125 35.30078125 C86.09953125 34.64078125 86.42953125 33.98078125 86.76953125 33.30078125 C87.32557404 28.74305345 87.17646506 25.19942674 85.26953125 20.98828125 C76.65193929 11.72436989 62.59862045 12.0702723 50.76953125 11.30078125 C46.28731322 11.15963057 41.80845813 11.13706977 37.32421875 11.1328125 C35.44937302 11.1278199 35.44937302 11.1278199 33.53665161 11.12272644 C30.90627405 11.11769345 28.27589018 11.11531698 25.64550781 11.11547852 C21.67635503 11.11559959 17.70738859 11.09512161 13.73828125 11.07617188 C-14.27295162 9.44730734 -14.27295162 9.44730734 -38.79296875 19.92578125 Z " fill="#34383D" transform="translate(233.23046875,289.69921875)"/>
<path d="M0 0 C1.06734375 0.12117188 2.1346875 0.24234375 3.234375 0.3671875 C6.42093766 0.72777986 9.60860603 1.07672183 12.796875 1.421875 C16.02112192 1.77269979 19.23753838 2.15570209 22.453125 2.578125 C45.30009135 5.42589845 68.97337198 5.29070641 91.66015625 1.36376953 C95.75355928 0.72737862 99.87479796 0.3645957 104 0 C102.73183323 11.08526957 101.01729518 22.02761789 99 33 C84.39001861 35.5532571 70.17698055 36.47556453 55.35253906 36.39111328 C52.00284124 36.37501366 48.65434944 36.39107404 45.3046875 36.41015625 C31.61762085 36.42145916 18.48265253 35.35624381 5 33 C4.28229713 29.10493492 3.57040815 25.20885554 2.86376953 21.31176758 C2.50466687 19.33814901 2.1410348 17.36535632 1.77734375 15.39257812 C1.55175781 14.14541016 1.32617188 12.89824219 1.09375 11.61328125 C0.88427734 10.46641846 0.67480469 9.31955566 0.45898438 8.13793945 C0.05301154 5.36242409 -0.09164953 2.79760186 0 0 Z " fill="#D7E6E8" transform="translate(204,380)"/>
<path d="M0 0 C1.69140625 0.984375 1.69140625 0.984375 3.4375 2.25 C4.26507813 2.84039062 5.09265625 3.43078125 5.9453125 4.0390625 C10.78932923 8.33641903 13.71910851 14.57702095 14.95703125 20.90625 C15.27695244 28.39477573 12.60302928 34.92952177 8.5625 41.125 C2.66816898 47.01933102 -3.6676942 49.52488129 -11.9375 49.625 C-19.39366339 49.4976168 -23.73917234 47.68832844 -29.3125 42.875 C-35.21185807 35.99241558 -38.07436923 29.92901186 -37.8828125 20.84375 C-37.10982632 14.5844473 -34.00001726 8.68751726 -29.5625 4.25 C-20.98759792 -1.8724453 -10.0708203 -4.9196536 0 0 Z " fill="#34383D" transform="translate(267.5625,156.75)"/>
<path d="M0 0 C2.25976368 1.96156806 3.43690656 3.39484426 5 6 C5.125 8.25 5.125 8.25 4 10 C-7.94309154 16.0859432 -25.40288121 14.21887152 -38.54125977 14.29754639 C-40.16157486 14.30740085 -41.78186959 14.32181743 -43.40209961 14.34112549 C-66.6254839 14.58301073 -66.6254839 14.58301073 -75 9 C-74.41778418 5.07004324 -72.63535021 2.91413106 -70 0 C-48.31744663 -15.08111355 -21.82491584 -15.40778898 0 0 Z " fill="#76D5FB" transform="translate(291,274)"/>
<path d="M0 0 C6.60262068 2.09082988 9.18184881 7.26974193 12.34765625 13.16015625 C15.6579855 20.26339471 17.77337958 27.46726735 19.625 35.0625 C19.84043457 35.94196289 20.05586914 36.82142578 20.27783203 37.72753906 C21.48533581 43.00774199 21.96355576 47.77323326 21.75 53.1875 C20.03650095 50.61725142 18.71084905 48.08148926 17.38989258 45.29980469 C12.25540595 34.25752236 12.25540595 34.25752236 2.75 27.1875 C-1.0842637 26.68464574 -3.67393826 26.34825538 -7.11328125 28.1796875 C-15.01815203 34.38439761 -18.92243269 43.98775509 -22.25 53.1875 C-22.58 53.1875 -22.91 53.1875 -23.25 53.1875 C-23.41166379 47.61631701 -22.96199217 42.61570105 -21.625 37.1875 C-21.44751221 36.45909912 -21.27002441 35.73069824 -21.0871582 34.98022461 C-12.38314704 0.71441233 -12.38314704 0.71441233 0 0 Z " fill="#FAFAFA" transform="translate(419.25,26.8125)"/>
<path d="M0 0 C11.01353103 9.44016945 16.09051838 30.24050007 18 44 C18.11196073 46.67810075 18.04625299 49.31732686 18 52 C15.60716098 49.60716098 14.99632272 47.6010945 13.8125 44.4375 C10.96745888 37.4549802 7.34068416 31.82673275 1.5625 26.9375 C-2.07690999 25.60600854 -5.23400133 25.15751081 -9 26 C-17.8993113 30.51635285 -22.5787954 42.14511751 -26 51 C-26.33 51 -26.66 51 -27 51 C-26.66482169 33.4793155 -21.22540391 12.96447115 -9 0 C-5.59594693 -1.70202654 -3.61470485 -1.06663422 0 0 Z " fill="#FAFAFA" transform="translate(98,28)"/>
<path d="M0 0 C1.24278214 -0.0033284 2.48556427 -0.0066568 3.76600647 -0.01008606 C6.38379551 -0.01511997 9.00159089 -0.01749549 11.61938477 -0.01733398 C15.55561341 -0.01950803 19.49155559 -0.03766812 23.42773438 -0.05664062 C34.87436006 -0.08272687 46.25962993 -0.01020625 57.6640625 1.0546875 C58.4997728 1.13241898 59.33548309 1.21015045 60.19651794 1.29023743 C64.59310576 1.76262794 68.49871709 2.57966183 72.66015625 4.16796875 C72.66015625 4.49796875 72.66015625 4.82796875 72.66015625 5.16796875 C70.69949219 5.44060547 70.69949219 5.44060547 68.69921875 5.71875 C67.41857544 5.89893677 67.41857544 5.89893677 66.11206055 6.08276367 C64.19718177 6.35215978 62.28196724 6.6191782 60.36645508 6.8840332 C56.01263263 7.49697959 51.68510762 8.12320617 47.3828125 9.03515625 C19.09801934 14.93914665 -9.33985106 10.187675 -37.33984375 5.16796875 C-29.82117395 -2.35070105 -9.84701252 0.00942428 0 0 Z " fill="#D4E1E2" transform="translate(238.33984375,300.83203125)"/>
<path d="M0 0 C2.49305871 4.98611742 0.98189741 11.31297524 -0.5222168 16.44335938 C-3.70232464 25.97621537 -3.70232464 25.97621537 -7.68359375 29.1171875 C-9.7045104 30.04749244 -11.75960723 30.90652393 -13.83984375 31.6953125 C-21.997304 35.06316383 -28.52212705 42.26704321 -34.5390625 48.56640625 C-36 50 -36 50 -37 50 C-36.56489965 45.03985603 -35.86999732 41.66620949 -33.6640625 37.171875 C-32.73813149 34.14353592 -32.89534423 31.28513756 -32.875 28.125 C-32.57097626 22.89579174 -31.98254115 20.04845879 -28.3125 16.25 C-26.58931228 14.77574791 -24.81156042 13.36420086 -23 12 C-22.43394043 11.5663916 -21.86788086 11.1327832 -21.28466797 10.68603516 C-7.24629891 0 -7.24629891 0 0 0 Z " fill="#F9F9F9" transform="translate(487,124)"/>
<path d="M0 0 C11.34114197 1.1341142 18.91580158 8.72849878 27 16 C27.77859375 16.65742188 28.5571875 17.31484375 29.359375 17.9921875 C31.51043201 20.62467155 31.46446996 22.25852902 31.5 25.625 C31.7589915 30.94727538 32.92101563 34.83401325 35.078125 39.6640625 C36.43655823 43.10619417 36.72769483 46.32388023 37 50 C30.6377607 44.60592755 30.6377607 44.60592755 27.73046875 41.84375 C21.08278934 35.57194907 13.77179173 29.92393058 5 27 C3.7763368 24.30555914 2.76258949 21.72677507 1.8125 18.9375 C1.53986328 18.19822266 1.26722656 17.45894531 0.98632812 16.69726562 C-0.79382667 11.59772444 -1.36069035 7.39852933 -1 2 C-0.67 1.34 -0.34 0.68 0 0 Z " fill="#FAFBFB" transform="translate(25,124)"/>
<path d="M0 0 C3.79832848 2.18201849 6.3444017 4.93625872 8 9 C8.57865799 13.2009067 8.46725091 16.8933531 6.8125 20.8125 C3.0286656 25.37919669 -0.35586369 27.75055318 -6.3125 28.3125 C-11.38517063 27.88261266 -14.04686239 25.68373932 -17.8125 22.4375 C-20.50639699 19.1764668 -20.33868033 15.30020817 -20.2734375 11.28125 C-19.76197916 7.01422613 -17.69134713 4.44597034 -14.4921875 1.7109375 C-9.78182749 -1.50963423 -5.3940463 -1.7064801 0 0 Z " fill="#FBFCFC" transform="translate(262,167)"/>
<path d="M0 0 C-1.81611308 3.9808299 -3.48799936 6.89106059 -6.8125 9.75 C-7.45832031 10.32234375 -8.10414063 10.8946875 -8.76953125 11.484375 C-15.205417 15.85762136 -22.51035374 15.71592207 -30 15 C-36.68734772 13.26216951 -41.09336255 8.51458677 -45 3 C-45.33 2.01 -45.66 1.02 -46 0 C-30.07507685 -3.7948753 -15.93339378 -3.51749035 0 0 Z " fill="#455551" transform="translate(187,269)"/>
<path d="M0 0 C-3.27211757 6.54423515 -7.10390783 11.00665052 -13.6875 14.375 C-21.45435624 15.84044457 -30.04644653 16.26185535 -37 12 C-41.37706235 8.48968267 -44.11383392 5.328877 -46 0 C-29.98270229 -3.72186171 -16.14271446 -3.29382593 0 0 Z " fill="#455551" transform="translate(371,269)"/>
<path d="M0 0 C3.67742098 2.10026803 6.6767662 4.89797522 8 9 C8 10.32 8 11.64 8 13 C-1.24 13 -10.48 13 -20 13 C-18.8 5.8 -18.8 5.8 -15 2 C-10.0427616 -1.45853842 -5.67358075 -1.67467053 0 0 Z " fill="#D5E3E4" transform="translate(262,167)"/>
<path d="M0 0 C2.7912125 1.98322993 3.82597224 3.12986121 4.5 6.5 C3.82597224 9.87013879 2.7912125 11.01677007 0 13 C-3.70758991 13.61793165 -5.2935202 13.50197249 -8.375 11.3125 C-10 9 -10 9 -10.5 6.5 C-9.33827182 0.69135908 -5.5534724 -0.92557873 0 0 Z " fill="#F5F5F5" transform="translate(152,243)"/>
<path d="M0 0 C3.4375 0.75 3.4375 0.75 5.4375 2.75 C5.98337156 8.75458716 5.98337156 8.75458716 4.375 11.6875 C1.28256242 13.38335287 -1.11764741 13.18060657 -4.5625 12.75 C-6.5625 11.1875 -6.5625 11.1875 -7.5625 8.75 C-7.4375 5.125 -7.4375 5.125 -6.5625 1.75 C-3.5625 -0.25 -3.5625 -0.25 0 0 Z " fill="#F9F9F9" transform="translate(333.5625,243.25)"/>
</svg>
