<?xml version="1.0" encoding="UTF-8"?>
<svg version="1.1" xmlns="http://www.w3.org/2000/svg" width="512" height="512">
<path d="M0 0 C23.17322818 14.64442238 35.0777839 46.84767804 41 72 C45.59063781 92.73701907 45.10243344 114.97322091 43 136 C43.37809814 135.13197754 43.75619629 134.26395508 44.14575195 133.36962891 C45.55326145 130.14981337 46.96860347 126.93368647 48.3894043 123.71972656 C49.00260826 122.32821902 49.61266031 120.93531805 50.21948242 119.54101562 C51.09248362 117.53661058 51.97671256 115.53749678 52.86328125 113.5390625 C53.39219971 112.33459473 53.92111816 111.13012695 54.46606445 109.88916016 C56 107 56 107 59 105 C65.58719482 104.03649986 70.83447681 107.48239634 76.54296875 110.33203125 C77.70119141 110.88310547 77.70119141 110.88310547 78.8828125 111.4453125 C79.57777832 111.79094238 80.27274414 112.13657227 80.98876953 112.49267578 C82.99665004 113.18361955 82.99665004 113.18361955 84.93652344 112.40795898 C87.66054785 110.54929254 89.82243299 108.38153285 92.1328125 106.02734375 C92.61072235 105.54423233 93.0886322 105.06112091 93.58102417 104.56336975 C95.10053614 103.02610959 96.6131639 101.48230674 98.125 99.9375 C99.64484559 98.39002523 101.16613419 96.84404074 102.69039917 95.30091858 C104.06918742 93.90429199 105.44316065 92.50291677 106.81689453 91.10131836 C109.24751753 88.76175538 110.33922065 88.12586273 113.625 87.5 C122.6459918 88.83644323 130.59189188 100.65201642 136.55273438 107.03125 C137.31263672 107.815 138.07253906 108.59875 138.85546875 109.40625 C139.87096802 110.47842773 139.87096802 110.47842773 140.90698242 111.57226562 C142.92878644 113.26762511 142.92878644 113.26762511 145.53662109 112.82641602 C149.67315994 111.43868718 153.51050477 109.42515753 157.38476562 107.43945312 C161.4156292 105.46289769 164.51498681 104.24934378 169 105 C172.57733131 107.94730568 174.18708414 111.08328085 176.015625 115.296875 C176.54414063 116.50214844 177.07265625 117.70742187 177.6171875 118.94921875 C178.16166298 120.2160579 178.70593124 121.48298613 179.25 122.75 C179.809034 124.03292797 180.36892137 125.31548445 180.9296875 126.59765625 C182.29489541 129.72821923 183.65128568 132.86230433 185 136 C184.93071289 135.30704834 184.86142578 134.61409668 184.79003906 133.90014648 C181.09649005 93.97104141 185.30602157 50.32541003 211 17.75 C212.32339435 16.15835004 213.65639196 14.57462365 215 13 C215.61101562 12.26652344 216.22203125 11.53304688 216.8515625 10.77734375 C225.64686958 0.4128299 225.64686958 0.4128299 231.5625 -0.625 C239.00179011 0.7275982 243.21591788 9.10148048 247.3203125 15.01171875 C264.65512447 40.560739 274.60172489 68.75132361 280 99 C280.13422363 99.74008301 280.26844727 100.48016602 280.40673828 101.24267578 C285.81806691 132.59184964 282.71271935 167.61970718 269.66967773 196.76464844 C268.88272177 199.39146902 268.99691615 200.46919511 270 203 C271.24126765 205.14091876 271.24126765 205.14091876 272.80859375 207.31640625 C273.38593262 208.15292725 273.96327148 208.98944824 274.55810547 209.85131836 C275.17830566 210.7460083 275.79850586 211.64069824 276.4375 212.5625 C293.64124568 237.97841799 308.03669029 268.44818622 306.83349609 299.88745117 C306.49809288 309.37779296 307.99532625 316.29802025 312 325 C318.4640178 342.79305954 314.67404176 364.39062713 307.03369141 381.11523438 C302.36452648 390.8591993 296.88131042 399.64333663 290 408 C289.31333252 408.84473877 289.31333252 408.84473877 288.61279297 409.70654297 C256.54314113 449.00285657 208.199699 471.84038403 159 481 C158.1843457 481.16226074 157.36869141 481.32452148 156.52832031 481.49169922 C128.9405433 486.80209968 96.51690828 486.58263196 69 481 C67.98454102 480.80132324 66.96908203 480.60264648 65.92285156 480.39794922 C17.82469276 470.7768761 -31.4539023 447.63328806 -62 408 C-62.73992187 407.08734375 -63.47984375 406.1746875 -64.2421875 405.234375 C-79.76314605 385.57807455 -88.81267022 362.06445749 -86.6171875 336.81640625 C-85.3474184 328.96473276 -82.74441571 321.43128421 -79.8359375 314.04296875 C-78.79626159 310.25835411 -78.91465175 306.75238435 -79.0625 302.875 C-79.61157608 268.29746896 -65.34551341 233.39697948 -43.95922852 206.55126953 C-41.59285439 203.45789138 -41.59285439 203.45789138 -41.0234375 199.70703125 C-41.34570312 198.81371094 -41.66796875 197.92039063 -42 197 C-42.2280835 196.32855957 -42.45616699 195.65711914 -42.69116211 194.96533203 C-43.24277764 193.34309241 -43.8045831 191.72429523 -44.37451172 190.10839844 C-61.70415888 140.76265664 -55.65363367 86.18948599 -33.48242188 39.33618164 C-13.68824445 -1.19718049 -13.68824445 -1.19718049 0 0 Z " fill="#D2954B" transform="translate(142,14)"/>
<path d="M0 0 C23.17322818 14.64442238 35.0777839 46.84767804 41 72 C45.59063781 92.73701907 45.10243344 114.97322091 43 136 C43.37809814 135.13197754 43.75619629 134.26395508 44.14575195 133.36962891 C45.55326145 130.14981337 46.96860347 126.93368647 48.3894043 123.71972656 C49.00260826 122.32821902 49.61266031 120.93531805 50.21948242 119.54101562 C51.09248362 117.53661058 51.97671256 115.53749678 52.86328125 113.5390625 C53.39219971 112.33459473 53.92111816 111.13012695 54.46606445 109.88916016 C56 107 56 107 59 105 C65.58719482 104.03649986 70.83447681 107.48239634 76.54296875 110.33203125 C77.70119141 110.88310547 77.70119141 110.88310547 78.8828125 111.4453125 C79.57777832 111.79094238 80.27274414 112.13657227 80.98876953 112.49267578 C82.99665004 113.18361955 82.99665004 113.18361955 84.93652344 112.40795898 C87.66054785 110.54929254 89.82243299 108.38153285 92.1328125 106.02734375 C92.61072235 105.54423233 93.0886322 105.06112091 93.58102417 104.56336975 C95.10053614 103.02610959 96.6131639 101.48230674 98.125 99.9375 C99.64484559 98.39002523 101.16613419 96.84404074 102.69039917 95.30091858 C104.06918742 93.90429199 105.44316065 92.50291677 106.81689453 91.10131836 C109.24751753 88.76175538 110.33922065 88.12586273 113.625 87.5 C122.6459918 88.83644323 130.59189188 100.65201642 136.55273438 107.03125 C137.31263672 107.815 138.07253906 108.59875 138.85546875 109.40625 C139.87096802 110.47842773 139.87096802 110.47842773 140.90698242 111.57226562 C142.92878644 113.26762511 142.92878644 113.26762511 145.53662109 112.82641602 C149.67315994 111.43868718 153.51050477 109.42515753 157.38476562 107.43945312 C161.4156292 105.46289769 164.51498681 104.24934378 169 105 C172.57733131 107.94730568 174.18708414 111.08328085 176.015625 115.296875 C176.54414063 116.50214844 177.07265625 117.70742187 177.6171875 118.94921875 C178.16166298 120.2160579 178.70593124 121.48298613 179.25 122.75 C179.809034 124.03292797 180.36892137 125.31548445 180.9296875 126.59765625 C182.29489541 129.72821923 183.65128568 132.86230433 185 136 C184.93071289 135.30704834 184.86142578 134.61409668 184.79003906 133.90014648 C181.09649005 93.97104141 185.30602157 50.32541003 211 17.75 C212.32339435 16.15835004 213.65639196 14.57462365 215 13 C215.61101562 12.26652344 216.22203125 11.53304688 216.8515625 10.77734375 C225.64686958 0.4128299 225.64686958 0.4128299 231.5625 -0.625 C239.00179011 0.7275982 243.21591788 9.10148048 247.3203125 15.01171875 C264.65512447 40.560739 274.60172489 68.75132361 280 99 C280.13422363 99.74008301 280.26844727 100.48016602 280.40673828 101.24267578 C285.81806691 132.59184964 282.71271935 167.61970718 269.66967773 196.76464844 C268.88272177 199.39146902 268.99691615 200.46919511 270 203 C271.24126765 205.14091876 271.24126765 205.14091876 272.80859375 207.31640625 C273.38593262 208.15292725 273.96327148 208.98944824 274.55810547 209.85131836 C275.17830566 210.7460083 275.79850586 211.64069824 276.4375 212.5625 C293.64124568 237.97841799 308.03669029 268.44818622 306.83349609 299.88745117 C306.49809288 309.37779296 307.99532625 316.29802025 312 325 C318.4640178 342.79305954 314.67404176 364.39062713 307.03369141 381.11523438 C302.36452648 390.8591993 296.88131042 399.64333663 290 408 C289.31333252 408.84473877 289.31333252 408.84473877 288.61279297 409.70654297 C256.54314113 449.00285657 208.199699 471.84038403 159 481 C158.1843457 481.16226074 157.36869141 481.32452148 156.52832031 481.49169922 C128.9405433 486.80209968 96.51690828 486.58263196 69 481 C67.98454102 480.80132324 66.96908203 480.60264648 65.92285156 480.39794922 C17.82469276 470.7768761 -31.4539023 447.63328806 -62 408 C-62.73992187 407.08734375 -63.47984375 406.1746875 -64.2421875 405.234375 C-79.76314605 385.57807455 -88.81267022 362.06445749 -86.6171875 336.81640625 C-85.3474184 328.96473276 -82.74441571 321.43128421 -79.8359375 314.04296875 C-78.79626159 310.25835411 -78.91465175 306.75238435 -79.0625 302.875 C-79.61157608 268.29746896 -65.34551341 233.39697948 -43.95922852 206.55126953 C-41.59285439 203.45789138 -41.59285439 203.45789138 -41.0234375 199.70703125 C-41.34570312 198.81371094 -41.66796875 197.92039063 -42 197 C-42.2280835 196.32855957 -42.45616699 195.65711914 -42.69116211 194.96533203 C-43.24277764 193.34309241 -43.8045831 191.72429523 -44.37451172 190.10839844 C-61.70415888 140.76265664 -55.65363367 86.18948599 -33.48242188 39.33618164 C-13.68824445 -1.19718049 -13.68824445 -1.19718049 0 0 Z M-4 14 C-5.60410162 16.09150173 -7.06307032 18.17124991 -8.5 20.375 C-8.94069824 21.04764893 -9.38139648 21.72029785 -9.83544922 22.41333008 C-23.12746942 42.99307665 -32.32831546 64.62126976 -38.125 88.4375 C-38.28387695 89.08098389 -38.44275391 89.72446777 -38.60644531 90.38745117 C-41.53864729 102.92647277 -42.37278574 115.30741865 -42.3125 128.125 C-42.31134186 128.8904715 -42.31018372 129.65594299 -42.30899048 130.4446106 C-42.27295378 142.51501574 -41.55775585 154.17037918 -39 166 C-38.7834375 167.08925781 -38.566875 168.17851562 -38.34375 169.30078125 C-35.58863319 181.6824074 -30.77511905 193.34671486 -24.3203125 204.23046875 C-22.92620024 207.15480483 -22.46040446 208.81198144 -23 212 C-27.1795645 214.78637633 -29.14668677 213.79562512 -34 213 C-56.90549302 242.62358455 -71.05060194 279.32988553 -66.22827148 317.14892578 C-64.78704699 326.99546712 -62.03007286 335.92045496 -58 345 C-57.4740625 346.19238281 -56.948125 347.38476562 -56.40625 348.61328125 C-38.19912935 387.21752999 -0.37211478 412.27669066 38.62744141 426.55810547 C62.8207908 435.02749221 88.00118132 438.22368433 113.5 438.1875 C114.34926056 438.18656342 115.19852112 438.18562683 116.07351685 438.18466187 C134.11363389 438.14290581 134.11363389 438.14290581 152 436 C152.8751123 435.84402344 153.75022461 435.68804687 154.65185547 435.52734375 C188.79757078 429.19646435 222.50832347 415.88654012 249 393 C249.53206055 392.54093262 250.06412109 392.08186523 250.61230469 391.60888672 C274.85690684 370.46706047 292.48790833 342.67284343 295 310 C296.84769205 275.81373204 284.51277407 240.60455492 263 214 C259.95033781 212.72771418 259.95033781 212.72771418 256.4375 213.5625 C254.7359375 213.7790625 254.7359375 213.7790625 253 214 C251 212 251 212 250.65234375 209.78515625 C251.10656483 206.14628398 252.72693204 203.53157611 254.5625 200.4375 C268.61551965 175.16341416 271.15172283 147.45856314 270 119 C269.96132813 118.01370605 269.92265625 117.02741211 269.8828125 116.01123047 C268.59249824 88.53987053 260.04843844 62.08030002 247 38 C246.66323242 37.37722168 246.32646484 36.75444336 245.97949219 36.11279297 C241.7778837 28.41252966 237.20870417 21.06430502 232 14 C220.49602934 18.55420349 211.7654393 36.57906537 207.0234375 47.359375 C198.79628723 67.08608143 195.57797876 87.62371894 195.75 108.9375 C195.75343414 109.63954559 195.75686829 110.34159119 195.76040649 111.06491089 C195.81831304 121.17729028 196.08908105 131.03304904 198 141 C198.1453418 141.82097168 198.29068359 142.64194336 198.44042969 143.48779297 C200.73215898 156.26155355 204.18879534 168.15595655 209.05297852 180.1953125 C209.43381592 181.1440625 209.81465332 182.0928125 210.20703125 183.0703125 C210.72487183 184.31965576 210.72487183 184.31965576 211.25317383 185.59423828 C212.07325514 188.23597782 212.28130754 190.25066063 212 193 C211.34 193.66 210.68 194.32 210 195 C206.375 194.625 206.375 194.625 203 194 C202.69147095 193.06148193 202.69147095 193.06148193 202.37670898 192.10400391 C201.42586292 189.26701879 200.4324595 186.44680043 199.4375 183.625 C199.11458984 182.64015625 198.79167969 181.6553125 198.45898438 180.640625 C197.95141602 179.22910156 197.95141602 179.22910156 197.43359375 177.7890625 C197.13509521 176.91975098 196.83659668 176.05043945 196.52905273 175.15478516 C195.08348406 172.62788958 195.08348406 172.62788958 191.5612793 172.10571289 C188 171 188 171 186.07958984 168.16723633 C185.58668457 166.96349365 185.0937793 165.75975098 184.5859375 164.51953125 C184.00415446 163.15291317 183.42177099 161.78655058 182.83886719 160.42041016 C182.54137573 159.69887756 182.24388428 158.97734497 181.93737793 158.23394775 C180.3402561 154.42770632 178.58480952 150.69488782 176.8515625 146.94921875 C176.14873601 145.41256799 175.44691647 143.87545628 174.74609375 142.33789062 C174.39788574 141.57452393 174.04967773 140.81115723 173.69091797 140.0246582 C173.16328857 138.86776489 173.16328857 138.86776489 172.625 137.6875 C171.54131055 135.31220114 170.45743527 132.9369876 169.37313843 130.56196594 C168.70611651 129.10086416 168.03945401 127.63959822 167.37319946 126.17814636 C165.72897737 122.56896065 165.72897737 122.56896065 164 119 C158.57701368 119.79631212 154.19460176 122.26646092 149.3515625 124.72265625 C145.4774209 126.19916476 143.1224308 126.45933066 139 126 C136.67969376 124.29477616 134.99362625 122.81965573 133.06640625 120.75 C132.5436058 120.21729492 132.02080536 119.68458984 131.48216248 119.13574219 C129.82504648 117.43961057 128.19399355 115.72075532 126.5625 114 C125.43978937 112.84215913 124.31545582 111.68588959 123.18945312 110.53125 C120.44050817 107.70535125 117.71467497 104.8588198 115 102 C111.14731271 103.56600636 108.86811704 106.00109121 106.04296875 109.0078125 C105.08604468 110.00463468 104.12833784 111.0007059 103.16992188 111.99609375 C101.67408221 113.55998196 100.18435932 115.12836505 98.70776367 116.71044922 C97.2729511 118.2424118 95.81662532 119.75101293 94.35546875 121.2578125 C93.06612427 122.62123779 93.06612427 122.62123779 91.75073242 124.01220703 C88.23586873 126.55219285 86.25161327 126.49242365 82 126 C79.8918457 125.34155273 79.8918457 125.34155273 78.17578125 124.43359375 C77.53962891 124.11326172 76.90347656 123.79292969 76.24804688 123.46289062 C75.28995117 122.95532227 75.28995117 122.95532227 74.3125 122.4375 C69.89017429 119.95051711 69.89017429 119.95051711 65.01147461 118.94726562 C61.66550119 120.69842929 60.77643807 124.07542026 59.390625 127.41015625 C58.89486969 128.54970009 58.89486969 128.54970009 58.38909912 129.71226501 C57.32856749 132.15651312 56.28846341 134.60880477 55.25 137.0625 C52.53804592 143.39189236 49.79359158 149.70620056 47 156 C46.65509521 156.78413269 46.31019043 157.56826538 45.95483398 158.37615967 C44.94824519 160.63709574 43.90969 162.88019414 42.859375 165.12109375 C42.56001038 165.80269058 42.26064575 166.48428741 41.95220947 167.1865387 C41.04589844 169.06811523 41.04589844 169.06811523 39 172 C35.90478516 172.65478516 35.90478516 172.65478516 33 173 C31.46021609 174.90049944 31.46021609 174.90049944 30.6640625 177.40234375 C30.32246094 178.29244141 29.98085937 179.18253906 29.62890625 180.09960938 C29.29761719 181.03611328 28.96632813 181.97261719 28.625 182.9375 C28.27050781 183.87013672 27.91601562 184.80277344 27.55078125 185.76367188 C25.70222743 190.26477036 25.70222743 190.26477036 25 195 C21.625 195.125 21.625 195.125 18 195 C17.34 194.34 16.68 193.68 16 193 C16.28298215 186.69948569 18.64067859 181.15074248 20.875 175.3125 C23.73979059 167.61625492 26.39430256 160.07159315 28 152 C28.12713379 151.37399902 28.25426758 150.74799805 28.38525391 150.10302734 C36.52178642 109.76456592 33.88264026 66.68234789 12 31 C9.52935256 27.45553759 6.88680219 24.20893462 4 21 C2.875 19.625 1.75 18.25 0.625 16.875 C-0.24125 15.92625 -1.1075 14.9775 -2 14 C-2.66 14 -3.32 14 -4 14 Z " fill="#34373A" transform="translate(142,14)"/>
<path d="M0 0 C0.55042969 0.70511719 1.10085937 1.41023438 1.66796875 2.13671875 C4.10956092 5.13451952 6.68167563 7.98242666 9.3125 10.8125 C12.38953219 14.12861095 15.41940653 17.47266186 18.37890625 20.89453125 C28.19334243 32.14489968 38.83626139 42.33541907 51 51 C50.95359375 49.90042969 50.9071875 48.80085938 50.859375 47.66796875 C50.50657609 35.92176201 51.28401835 27.04116661 59.125 17.6875 C65.69149581 10.88300928 73.68940085 5.64995392 83.26171875 4.6640625 C94.55783385 4.53525845 103.23502181 6.66900756 111.99609375 14.01953125 C119.82298342 21.75487835 123.07983846 30.46569807 123.5 41.3125 C123.24582011 51.89273795 119.69252298 60.33755736 112.40234375 68.01953125 C108.0799912 71.58283652 103.12803317 73.8205859 98 76 C98 76.66 98 77.32 98 78 C107.28478934 81.29765444 116.51046323 83.96864751 126.125 86.10546875 C129.80079883 86.95401505 133.38419346 87.93126552 137 89 C136.938125 88.071875 136.87625 87.14375 136.8125 86.1875 C137 83 137 83 138.0625 81.0625 C141.12469653 79.38323093 143.69370941 80.31378875 147 81 C147.25394531 81.77085937 147.50789062 82.54171875 147.76953125 83.3359375 C148.28580078 84.84027344 148.28580078 84.84027344 148.8125 86.375 C149.14894531 87.37273437 149.48539063 88.37046875 149.83203125 89.3984375 C150.8506575 92.2845709 150.8506575 92.2845709 154 94 C159.79963577 94.72686728 165.15468592 95.0445174 170.3125 92.125 C172.6895307 87.72309129 172.42797259 83.89790853 172 79 C170.84371094 78.38511719 170.84371094 78.38511719 169.6640625 77.7578125 C168.15972656 76.94957031 168.15972656 76.94957031 166.625 76.125 C165.62726563 75.59132813 164.62953125 75.05765625 163.6015625 74.5078125 C161 73 161 73 159 71 C158.45443865 65.87172327 158.45443865 65.87172327 160.04296875 63.33349609 C163.04048107 61.29102949 166.12214702 61.57196963 169.625 61.6015625 C170.7399585 61.59725723 170.7399585 61.59725723 171.87744141 61.59286499 C173.4475989 61.59082524 175.01778186 61.596349 176.58789062 61.60888672 C178.99146332 61.62494297 181.39335461 61.60903648 183.796875 61.58984375 C185.32292038 61.5918262 186.84896471 61.59566991 188.375 61.6015625 C189.09381348 61.59548981 189.81262695 61.58941711 190.55322266 61.5831604 C193.46936054 61.62427038 195.50394112 61.65796342 197.9453125 63.34130859 C199.65947815 66.03715151 199.50700768 67.89457797 199 71 C195.42814304 74.79509802 190.67003336 76.82142364 186 79 C185.56935637 83.92847709 185.28758717 87.72783423 187.75 92.125 C192.6438757 94.94838983 197.47266039 94.72227959 203 94 C205.27201013 93.45013868 205.27201013 93.45013868 207 92 C208.34817985 89.38038729 208.34817985 89.38038729 209.25 86.375 C209.58515625 85.37210937 209.9203125 84.36921875 210.265625 83.3359375 C210.62914062 82.17964844 210.62914062 82.17964844 211 81 C217.40096618 79.67149758 217.40096618 79.67149758 219.9375 81.0625 C221.40238381 83.73375871 221.06922933 85.99870475 221 89 C231.4454416 86.82704317 241.56512102 83.80423644 251.75683594 80.67919922 C254.82792557 79.74931553 257.91144544 78.86995674 261 78 C261 77.34 261 76.68 261 76 C260.030625 75.814375 259.06125 75.62875 258.0625 75.4375 C248.75431838 72.74302637 242.46165539 64.88804935 237.74609375 56.8671875 C233.81658974 48.78911305 233.22678356 38.69225018 235.52734375 30.00976562 C239.04988587 19.86942989 245.8663546 13.02102484 255.0859375 7.82421875 C263.11748514 4.12409527 273.24617806 3.60298817 281.6875 6.125 C292.37260249 10.27924419 300.29833362 17.7682977 305.2734375 28.04296875 C307.14061667 33.07230618 307.12413898 38.0068061 307.0625 43.3125 C307.05798828 44.05306641 307.05347656 44.79363281 307.04882812 45.55664062 C307.03712175 47.37112899 307.01918898 49.18557534 307 51 C322.48124694 39.37036764 337.24062462 25.67658527 349.10546875 10.33203125 C351.24058607 7.70385591 353.60704125 5.39295875 356 3 C356.66 2.01 357.32 1.02 358 0 C363.3719514 30.26519049 357.86029053 59.79214969 340.48120117 85.44262695 C320.00140016 114.46684623 290.59866395 133.14921346 258 146 C256.5459375 146.59748047 256.5459375 146.59748047 255.0625 147.20703125 C231.09934806 156.6050799 205.00176343 159.22368851 179.5 159.1875 C178.22610916 159.18609512 178.22610916 159.18609512 176.92648315 159.18466187 C152.89268949 159.12710574 152.89268949 159.12710574 141 157 C140.1248877 156.84402344 139.24977539 156.68804687 138.34814453 156.52734375 C92.02723173 147.93908867 45.58616428 125.4595075 18 86 C11.58838892 76.52185512 6.81648391 66.77233362 3 56 C2.68289062 55.12988281 2.36578125 54.25976562 2.0390625 53.36328125 C-3.65788343 36.30064616 -3.10456846 17.49091695 0 0 Z " fill="#C3823D" transform="translate(77,293)"/>
<path d="M0 0 C2.64744769 2.64744769 3.37343014 5.66177287 4.5625 9.125 C18.93175076 48.88383342 53.23523255 75.77958396 90.13916016 93.66308594 C105.175724 100.6899014 120.85308717 105.29194069 137 109 C137.74717285 109.17692383 138.4943457 109.35384766 139.26416016 109.53613281 C155.48430865 113.10366494 171.96700182 113.40564308 188.5 113.375 C189.55626587 113.37478851 190.61253174 113.37457703 191.70080566 113.37435913 C207.82169212 113.3421808 223.2221607 112.56047292 239 109 C239.87285645 108.81808105 240.74571289 108.63616211 241.64501953 108.44873047 C274.57006076 101.55314351 306.72118164 86.2484289 332 64 C332.98355469 63.14921875 333.96710938 62.2984375 334.98046875 61.421875 C354.03151287 44.67207605 366.98265144 23.95245128 375 0 C379.42179973 6.63269959 377.24078668 17.86717427 375.9375 25.4375 C368.91333491 56.81648051 344.48855585 81.46312708 318.3125 98.5 C315.8930883 100.03067574 313.45215911 101.52244104 311 103 C310.34467285 103.39687012 309.6893457 103.79374023 309.01416016 104.20263672 C296.24465016 111.84373207 282.83560705 117.5762783 269 123 C268.30390625 123.27714844 267.6078125 123.55429687 266.890625 123.83984375 C230.52327138 138.21582755 185.26233132 142.46493319 147 134 C145.33952637 133.64542725 145.33952637 133.64542725 143.64550781 133.28369141 C128.34056728 129.965652 113.42284026 126.14626027 99 120 C98.07413086 119.60828613 97.14826172 119.21657227 96.19433594 118.81298828 C71.73315834 108.33591761 50.37441968 95.25470716 31 77 C30.31550781 76.36835938 29.63101563 75.73671875 28.92578125 75.0859375 C12.52489696 59.42615407 -0.27592005 37.07379035 -1.1484375 14.08984375 C-1.29772796 3.89318388 -1.29772796 3.89318388 0 0 Z " fill="#EBC698" transform="translate(68,349)"/>
<path d="M0 0 C3.85268729 1.56600636 6.13188296 4.00109121 8.95703125 7.0078125 C9.91395532 8.00463468 10.87166216 9.0007059 11.83007812 9.99609375 C13.32591779 11.55998196 14.81564068 13.12836505 16.29223633 14.71044922 C17.7270489 16.2424118 19.18337468 17.75101293 20.64453125 19.2578125 C21.50409424 20.1667627 22.36365723 21.07571289 23.24926758 22.01220703 C26.76427852 24.55229926 28.74806114 24.48940112 33 24 C35.10585114 23.43190893 35.10585114 23.43190893 36.859375 22.46875 C37.50003906 22.15292969 38.14070313 21.83710938 38.80078125 21.51171875 C39.44402344 21.17785156 40.08726562 20.84398437 40.75 20.5 C47.65540541 17 47.65540541 17 51 17 C55.39682638 26.02628909 59.64094698 35.10867886 63.64453125 44.31640625 C63.95731018 45.03553192 64.27008911 45.75465759 64.59234619 46.49557495 C66.17014183 50.1290051 67.73966122 53.76583515 69.30126953 57.40625 C69.88697969 58.76174666 70.47275167 60.1172166 71.05859375 61.47265625 C71.83674438 63.28648804 71.83674438 63.28648804 72.63061523 65.13696289 C73.82938203 68.05124314 73.82938203 68.05124314 76 70 C76.99 70.103125 77.98 70.20625 79 70.3125 C79.99 70.539375 80.98 70.76625 82 71 C83.93720146 74.25802063 84 76.15044673 84 80 C81.67336206 79.60084767 79.36972321 79.15377152 77.0625 78.65234375 C74.95067289 78.20250303 72.8228911 77.82371129 70.6875 77.50390625 C62.40343149 75.80682277 62.40343149 75.80682277 59.74121094 72.37939453 C57.13297031 67.95490293 54 62.20054503 54 57 C53.32420898 57.3081665 52.64841797 57.61633301 51.95214844 57.93383789 C48.89005515 59.32208853 45.82026967 60.69243343 42.75 62.0625 C41.68652344 62.54783203 40.62304688 63.03316406 39.52734375 63.53320312 C38.50253906 63.98759766 37.47773438 64.44199219 36.421875 64.91015625 C35.47924805 65.33433838 34.53662109 65.75852051 33.56542969 66.19555664 C30.64875418 67.11014037 29.73704237 67.32105802 27 66 C24.93942935 64.1947132 23.04348368 62.39244564 21.140625 60.43359375 C20.59138367 59.88010757 20.04214233 59.3266214 19.47625732 58.75636292 C17.72699536 56.99033441 15.98846356 55.21415308 14.25 53.4375 C13.064495 52.23694559 11.87830476 51.0370674 10.69140625 49.83789062 C7.78626707 46.89970905 4.89070663 43.95237926 2 41 C-2.00519733 42.58781045 -4.5691058 45.41201482 -7.46484375 48.48046875 C-8.52219761 49.5728359 -9.58015879 50.66461548 -10.63867188 51.75585938 C-12.2954983 53.47475214 -13.94721793 55.19776396 -15.58862305 56.93139648 C-17.17980193 58.60710898 -18.78918103 60.26344732 -20.40234375 61.91796875 C-20.88895981 62.44182663 -21.37557587 62.96568451 -21.87693787 63.50541687 C-23.29272461 64.94213867 -23.29272461 64.94213867 -26 67 C-28.53222656 66.94677734 -28.53222656 66.94677734 -31 66 C-31.82346924 65.6898999 -32.64693848 65.3797998 -33.49536133 65.06030273 C-34.77576294 64.50258179 -34.77576294 64.50258179 -36.08203125 63.93359375 C-37.01337891 63.53076172 -37.94472656 63.12792969 -38.90429688 62.71289062 C-39.86400391 62.29201172 -40.82371094 61.87113281 -41.8125 61.4375 C-42.79154297 61.01275391 -43.77058594 60.58800781 -44.77929688 60.15039062 C-47.18812907 59.10460494 -49.59490803 58.05435216 -52 57 C-52.19770996 57.59893066 -52.39541992 58.19786133 -52.59912109 58.81494141 C-52.86289551 59.61077637 -53.12666992 60.40661133 -53.3984375 61.2265625 C-53.65802246 62.01111816 -53.91760742 62.79567383 -54.18505859 63.60400391 C-57.3933804 73.03673913 -57.3933804 73.03673913 -60.765625 75.05859375 C-63.16262955 75.91530093 -65.50724654 76.47704473 -68 77 C-69.22074219 77.27585937 -70.44148437 77.55171875 -71.69921875 77.8359375 C-75.12682978 78.59146754 -78.55872995 79.30978794 -82 80 C-81.125 73.25 -81.125 73.25 -80 71 C-78.90816406 70.78601563 -77.81632813 70.57203125 -76.69140625 70.3515625 C-72.75679125 69.32192708 -72.75679125 69.32192708 -70.83984375 65.7734375 C-70.18000467 64.31868759 -69.54797072 62.85114715 -68.9375 61.375 C-68.57954346 60.57336426 -68.22158691 59.77172852 -67.8527832 58.94580078 C-66.53689557 55.97668818 -65.26644104 52.99054766 -64 50 C-61.88635804 45.01922741 -59.7622124 40.04318463 -57.62478638 35.0725708 C-56.69351148 32.88909458 -55.78250155 30.69790876 -54.87280273 28.50537109 C-54.29477369 27.14652656 -53.71610734 25.7879529 -53.13671875 24.4296875 C-52.62842529 23.21522949 -52.12013184 22.00077148 -51.59643555 20.74951172 C-50 18 -50 18 -48.01806641 17.00854492 C-43.95783986 16.99135306 -40.27346324 19.59730757 -36.75195312 21.46289062 C-35.79772461 21.94338867 -35.79772461 21.94338867 -34.82421875 22.43359375 C-34.25791748 22.73322021 -33.69161621 23.03284668 -33.1081543 23.34155273 C-29.85150587 24.35871322 -27.39565336 24.39832046 -24 24 C-21.67969376 22.29477616 -19.99362625 20.81965573 -18.06640625 18.75 C-17.5436058 18.21729492 -17.02080536 17.68458984 -16.48216248 17.13574219 C-14.82504648 15.43961057 -13.19399355 13.72075532 -11.5625 12 C-10.43978937 10.84215913 -9.31545582 9.68588959 -8.18945312 8.53125 C-5.44050817 5.70535125 -2.71467497 2.8588198 0 0 Z " fill="#E3AE75" transform="translate(255,116)"/>
<path d="M0 0 C9.128362 2.98427219 14.38012842 13.44753386 18.5078125 21.5234375 C28.15782722 42.46754352 26.23762783 69.14312716 18.4375 90.375 C14.38542884 100.81673044 9.26333306 111.04916694 1.25 119.0625 C-1.8712459 119.67152359 -3.93325673 119.56015126 -6.6796875 117.88671875 C-17.49419062 109.07100512 -24.01737886 94.59948471 -26.75 81.0625 C-28.58854806 51.60616729 -24.32311197 25.86573441 -5.75 2.0625 C-2.75 0.0625 -2.75 0.0625 0 0 Z " fill="#353739" transform="translate(137.75,101.9375)"/>
<path d="M0 0 C1.96125942 2.04310487 3.39551747 3.8006675 4.9375 6.125 C5.36571045 6.75317627 5.7939209 7.38135254 6.23510742 8.02856445 C10.64507465 14.68273519 14.1801736 21.5352227 17 29 C17.2568457 29.67530762 17.51369141 30.35061523 17.77832031 31.04638672 C24.86005472 50.65070025 25.57962815 76.84856587 16.875 96.0625 C16.57223145 96.74151367 16.26946289 97.42052734 15.95751953 98.12011719 C12.22215572 106.13943471 7.17476918 112.75689945 0 118 C-2.875 118.75 -2.875 118.75 -6 118 C-19.02435943 108.36511242 -25.70354332 85.87690873 -28.61401367 70.76391602 C-29.32620562 65.66415321 -29.24643186 60.57697863 -29.1875 55.4375 C-29.18685547 54.36564453 -29.18621094 53.29378906 -29.18554688 52.18945312 C-29.0856443 34.04048621 -24.81529195 16.7018965 -11.6875 3.3125 C-7.60654375 -0.55999876 -5.64440646 -1.67600781 0 0 Z " fill="#353739" transform="translate(379,103)"/>
<path d="M0 0 C7.30123447 5.91306558 12.65433609 13.35128128 14.13671875 22.73046875 C15.10801196 34.73628975 12.94633385 44.39502132 5.1171875 53.7265625 C-2.81072453 61.74829597 -11.73841968 64.98343009 -22.86328125 65.16796875 C-29.31755634 65.12034122 -34.40213754 64.25449335 -39.86328125 60.73046875 C-40.90548828 60.07691406 -40.90548828 60.07691406 -41.96875 59.41015625 C-49.91992456 53.95025027 -55.65128541 46.17727971 -57.86328125 36.73046875 C-59.33352644 24.9096974 -58.0533192 15.60280065 -50.86328125 5.73046875 C-36.65972264 -8.97219001 -16.96920426 -11.99394018 0 0 Z " fill="#34373A" transform="translate(369.86328125,305.26953125)"/>
<path d="M0 0 C8.51237628 5.19901463 14.7237193 12.69919373 17.5234375 22.36328125 C19.68771176 34.33774947 17.98135594 44.32991218 11.37890625 54.49609375 C5.77420287 61.6435972 -2.21193231 66.8013971 -11.20117188 68.38867188 C-23.61685023 69.75875101 -33.03583319 66.82629641 -42.9375 59.125 C-50.92563173 51.60332852 -54.01809161 41.79277603 -54.4375 31 C-54.09499793 20.80397688 -50.55119063 13.53317366 -43.50390625 6.23046875 C-31.12605506 -4.79566703 -15.00025846 -7.82420889 0 0 Z " fill="#34373A" transform="translate(182,302)"/>
<path d="M0 0 C0.33 0 0.66 0 1 0 C1 23.76 1 47.52 1 72 C-0.98 72.99 -2.96 73.98 -5 75 C-6.54328617 76.52081135 -6.54328617 76.52081135 -7.5625 78.30078125 C-7.96388184 78.94080078 -8.36526367 79.58082031 -8.77880859 80.24023438 C-9.18180176 80.92408203 -9.58479492 81.60792969 -10 82.3125 C-10.43006348 83.02599609 -10.86012695 83.73949219 -11.30322266 84.47460938 C-15.20320795 91.08654383 -18.40795521 97.75847485 -21 105 C-21.4125 106.09054688 -21.825 107.18109375 -22.25 108.3046875 C-27.93518234 126.34724533 -28.13630984 151.78279553 -20 169 C-19.54238281 170.01320312 -19.08476563 171.02640625 -18.61328125 172.0703125 C-15.34175023 178.64922693 -10.77958551 186.68700588 -3.93359375 190 C-1.84693609 190.65520909 -1.84693609 190.65520909 1 191 C0.34 191.33 -0.32 191.66 -1 192 C-1 200.58 -1 209.16 -1 218 C-6.71747413 213.7118944 -10.16252889 211.03884385 -14.375 205.75 C-17.54691988 201.75232811 -17.54691988 201.75232811 -21 198 C-19.515 197.01 -19.515 197.01 -18 196 C-17.14625916 191.38979945 -19.29231783 188.26091033 -21.5625 184.4375 C-29.49726871 170.26611321 -33.90719732 155.05018671 -36 139 C-36.18304688 137.70191406 -36.36609375 136.40382812 -36.5546875 135.06640625 C-38.59629101 115.97680216 -38.53997226 94.68172492 -34 76 C-33.79068848 75.12633789 -33.58137695 74.25267578 -33.36572266 73.35253906 C-27.24459446 48.39150534 -17.51107119 19.51060528 0 0 Z " fill="#C2823D" transform="translate(137,30)"/>
<path d="M0 0 C3.89210493 3.89210493 6.61310495 7.1769408 9.3125 11.8125 C9.69639893 12.46412109 10.08029785 13.11574219 10.47583008 13.78710938 C19.69825839 29.65870574 27.1270085 46.27449344 32 64 C32.350625 65.25941406 32.70125 66.51882812 33.0625 67.81640625 C42.94966047 105.19744368 41.59590147 150.20629316 22.5625 184.4375 C22.20833008 185.03449707 21.85416016 185.63149414 21.48925781 186.24658203 C19.50351452 189.64635561 18.39650871 192.04679304 19 196 C19.66 196.99 20.32 197.98 21 199 C18.97066681 201.42725935 16.92442787 203.83969461 14.875 206.25 C14.02035156 207.27287109 14.02035156 207.27287109 13.1484375 208.31640625 C12.58125 208.98027344 12.0140625 209.64414063 11.4296875 210.328125 C10.91647949 210.9355957 10.40327148 211.54306641 9.87451172 212.16894531 C8 214 8 214 2 218 C2 209.42 2 200.84 2 192 C1.34 191.67 0.68 191.34 0 191 C1.485 190.7834375 1.485 190.7834375 3 190.5625 C9.78032684 188.55300797 13.58160695 182.45741551 16.95703125 176.609375 C27.79142193 156.04310932 29.92493881 130.84098912 23.3347168 108.42456055 C19.42577494 96.51518541 13.24507477 83.51228187 5 74 C3.35 73.34 1.7 72.68 0 72 C0 48.24 0 24.48 0 0 Z " fill="#C2823D" transform="translate(374,30)"/>
<path d="M0 0 C3.88879785 1.38776708 7.31582998 3.26761483 10.87402344 5.32543945 C17.99184809 9.43478659 25.16493586 13.14079012 32.75 16.3125 C33.46816895 16.6130127 34.18633789 16.91352539 34.92626953 17.22314453 C37.27318289 18.18007208 39.63195633 19.096569 42 20 C43.04478516 20.40057617 44.08957031 20.80115234 45.16601562 21.21386719 C53.65836721 24.3668735 62.16424332 26.65745006 71 28.625 C72.25039062 28.91117187 73.50078125 29.19734375 74.7890625 29.4921875 C77.29752423 30.06347278 79.80770998 30.62724191 82.31958008 31.18334961 C84.71566294 31.71501775 87.10895841 32.25946114 89.4987793 32.81860352 C98.2202447 34.80751479 106.9120708 35.93879371 115.8125 36.6875 C116.90174774 36.78130951 116.90174774 36.78130951 118.01300049 36.87701416 C143.87945509 39.05879276 169.25570976 38.57656882 195 35 C196.01819824 34.86609863 197.03639648 34.73219727 198.08544922 34.59423828 C231.04703154 30.17471847 265.61168754 19.87411426 293.55859375 1.37109375 C294.36425781 0.91863281 295.16992188 0.46617187 296 0 C296.66 0.33 297.32 0.66 298 1 C279.07957578 19.35640073 254.2301812 30.53380978 230 40 C229.30680664 40.27569824 228.61361328 40.55139648 227.89941406 40.83544922 C191.52924767 55.214578 146.26637349 59.46582746 108 51 C106.89301758 50.76361816 105.78603516 50.52723633 104.64550781 50.28369141 C89.34056728 46.965652 74.42284026 43.14626027 60 37 C59.07413086 36.60828613 58.14826172 36.21657227 57.19433594 35.81298828 C10.55891589 15.83837384 10.55891589 15.83837384 0 0 Z " fill="#FCE9CF" transform="translate(107,432)"/>
<path d="M0 0 C0.74330566 -0.00287018 1.48661133 -0.00574036 2.25244141 -0.00869751 C3.8225989 -0.01073726 5.39278186 -0.0052135 6.96289062 0.00732422 C9.36646332 0.02338047 11.76835461 0.00747398 14.171875 -0.01171875 C15.69792038 -0.0097363 17.22396471 -0.00589259 18.75 0 C19.46881348 -0.00607269 20.18762695 -0.01214539 20.92822266 -0.0184021 C23.84436054 0.02270788 25.87894112 0.05640092 28.3203125 1.73974609 C30.03447815 4.43558901 29.88200768 6.29301547 29.375 9.3984375 C25.80314304 13.19353552 21.04503336 15.21986114 16.375 17.3984375 C15.94435637 22.32691459 15.66258717 26.12627173 18.125 30.5234375 C23.0188757 33.34682733 27.84766039 33.12071709 33.375 32.3984375 C35.64701013 31.84857618 35.64701013 31.84857618 37.375 30.3984375 C38.72317985 27.77882479 38.72317985 27.77882479 39.625 24.7734375 C39.96015625 23.77054687 40.2953125 22.76765625 40.640625 21.734375 C41.00414062 20.57808594 41.00414062 20.57808594 41.375 19.3984375 C47.74926409 18.07547703 47.74926409 18.07547703 50.3125 19.3984375 C51.97980639 22.53689659 51.72578023 24.89063522 51.375 28.3984375 C49.24340672 34.58005801 46.67966528 39.35283456 40.828125 42.5078125 C36.13734208 44.77535195 31.96000875 45.03077601 26.8125 44.9609375 C26.00103516 44.98478516 25.18957031 45.00863281 24.35351562 45.03320312 C18.15314691 45.01819013 15.09060179 43.39245727 10.375 39.3984375 C9.83875 39.6665625 9.3025 39.9346875 8.75 40.2109375 C7.96625 40.6028125 7.1825 40.9946875 6.375 41.3984375 C5.52808594 41.90632813 4.68117187 42.41421875 3.80859375 42.9375 C-0.56052843 44.79648941 -4.23478883 44.97480026 -8.9375 44.9609375 C-9.78256104 44.95852051 -10.62762207 44.95610352 -11.49829102 44.95361328 C-17.31468103 44.78153406 -21.45974668 43.96740849 -26.02734375 40.1171875 C-30.48135406 35.32558717 -32.41569102 31.38109047 -32.875 24.8359375 C-32.625 21.3984375 -32.625 21.3984375 -31.5625 19.3984375 C-28.49164787 17.81348156 -25.90313225 18.71807043 -22.625 19.3984375 C-22.37105469 20.16929687 -22.11710938 20.94015625 -21.85546875 21.734375 C-21.51128906 22.73726563 -21.16710937 23.74015625 -20.8125 24.7734375 C-20.47605469 25.77117187 -20.13960937 26.76890625 -19.79296875 27.796875 C-18.7743425 30.6830084 -18.7743425 30.6830084 -15.625 32.3984375 C-9.82536423 33.12530478 -4.47031408 33.4429549 0.6875 30.5234375 C3.0645307 26.12152879 2.80297259 22.29634603 2.375 17.3984375 C1.60414063 16.98851562 0.83328125 16.57859375 0.0390625 16.15625 C-0.96382812 15.61742187 -1.96671875 15.07859375 -3 14.5234375 C-3.99773437 13.98976563 -4.99546875 13.45609375 -6.0234375 12.90625 C-8.625 11.3984375 -8.625 11.3984375 -10.625 9.3984375 C-11.17056135 4.27016077 -11.17056135 4.27016077 -9.58203125 1.73193359 C-6.58451893 -0.31053301 -3.50285298 -0.02959287 0 0 Z " fill="#36373A" transform="translate(246.625,354.6015625)"/>
<path d="M0 0 C3.39275369 1.38071486 4.67694125 2.60601448 6.25390625 5.89453125 C6.63224609 6.67924805 7.01058594 7.46396484 7.40039062 8.27246094 C7.78388672 9.11067383 8.16738281 9.94888672 8.5625 10.8125 C8.96017578 11.6674707 9.35785156 12.52244141 9.76757812 13.40332031 C12.81985805 20.16556776 14.87453845 26.6443049 16 34 C16.27070313 35.64548828 16.27070313 35.64548828 16.546875 37.32421875 C18.90373406 56.44322198 15.76416994 73.85374509 5 90 C4.34 90 3.68 90 3 90 C-10.06071634 72.52960881 -13.93519183 49.38154116 -11.5703125 28.140625 C-9.8122384 17.6789989 -5.87391623 8.81087434 0 0 Z " fill="#86400B" transform="translate(373,117)"/>
<path d="M0 0 C0.66 0 1.32 0 2 0 C13.68309568 15.68872848 15.85008394 35.10205307 13.32910156 54.07177734 C11.38882712 66.54538143 6.72333574 79.89033088 -1 90 C-1.66 90 -2.32 90 -3 90 C-14.66120277 74.64053006 -16.82586722 55.10618338 -14.5 36.515625 C-12.54639106 23.30473278 -8.42784411 10.59318441 0 0 Z " fill="#66310E" transform="translate(137,117)"/>
<path d="M0 0 C0.75168457 0.00676758 1.50336914 0.01353516 2.27783203 0.02050781 C7.62315687 0.12011733 12.51975235 0.58298036 17.625 2.25 C18.51574219 2.518125 19.40648437 2.78625 20.32421875 3.0625 C26.69121439 5.14719162 31.58731432 7.84913237 36.625 12.25 C37.43517578 12.92095703 37.43517578 12.92095703 38.26171875 13.60546875 C40.3087184 15.42813967 41.56585072 16.57964149 41.8125 19.375 C39.60765317 22.8563371 36.05496347 23.91667883 32.1730957 24.8215332 C26.96350185 25.45064194 21.78596014 25.41276856 16.54296875 25.41796875 C15.37421707 25.42129715 14.20546539 25.42462555 13.001297 25.42805481 C10.53268832 25.43310877 8.06407283 25.43546361 5.59545898 25.43530273 C1.8363101 25.43748617 -1.92254373 25.45565015 -5.68164062 25.47460938 C-8.0859365 25.47754429 -10.49023377 25.47952843 -12.89453125 25.48046875 C-14.01044144 25.48765427 -15.12635162 25.49483978 -16.27607727 25.50224304 C-32.934516 25.45394121 -32.934516 25.45394121 -38.375 20.25 C-37.64568508 15.42365127 -34.75258542 13.3404725 -31.1796875 10.28125 C-22.00149414 3.63409046 -11.29806198 -0.14728874 0 0 Z " fill="#E4AF75" transform="translate(254.375,311.75)"/>
<path d="M0 0 C0.33 0 0.66 0 1 0 C1.10028381 17.78923327 0.80894827 35.57262146 0.53643799 53.35906982 C0.47501992 57.38910314 0.4153263 61.41916201 0.35546875 65.44921875 C0.23862542 73.29950451 0.11993341 81.14976078 0 89 C-0.66 89 -1.32 89 -2 89 C-13.66120277 73.64053006 -15.82586722 54.10618338 -13.5 35.515625 C-11.60608077 22.71662773 -7.57996486 10.62634315 0 0 Z " fill="#87400B" transform="translate(136,118)"/>
<path d="M0 0 C1.32 0.66 2.64 1.32 4 2 C3.01 2.495 3.01 2.495 2 3 C2.01252808 3.78466141 2.02505615 4.56932281 2.03796387 5.37776184 C2.15719422 12.86233929 2.27495054 20.34693794 2.39115143 27.831563 C2.45090518 31.67719089 2.51118044 35.52280898 2.57275391 39.3684082 C3.09501517 72.03085376 3.09501517 72.03085376 3 88 C-6.43101594 79.00228792 -11.48049881 60.70613316 -12 48 C-12.0515625 46.84113281 -12.103125 45.68226563 -12.15625 44.48828125 C-12.65073863 27.97276786 -9.21063363 13.81595044 0 0 Z " fill="#65310E" transform="translate(373,117)"/>
<path d="M0 0 C-2.11726363 5.80790666 -5.78496358 9.68134046 -11 13 C-17.18893129 15.86804133 -24.24293798 16.20743457 -30.72265625 14.125 C-36.36882072 11.53611011 -40.62333875 8.25812195 -44 3 C-44.33 2.01 -44.66 1.02 -45 0 C-29.77091412 -4.11332223 -15.17985503 -4.50568135 0 0 Z " fill="#87400B" transform="translate(370,344)"/>
<path d="M0 0 C-3.37600317 7.03333993 -7.81195886 10.95251322 -14.8125 14.375 C-23.08462362 15.99698502 -29.88625218 15.71549115 -37 11 C-40.72809852 8.43175435 -42.969516 6.060968 -45 2 C-45 1.34 -45 0.68 -45 0 C-29.61569313 -4.49489314 -15.4469247 -3.7774139 0 0 Z " fill="#87400B" transform="translate(187,344)"/>
<path d="M0 0 C2.4375 1.625 2.4375 1.625 4 4 C4 7.53156157 3.67698902 9.27465462 1.25 11.875 C-1.49727007 13.24863504 -2.96787906 13.53062116 -6 13 C-8.375 11.4375 -8.375 11.4375 -10 9 C-9.9375 5.375 -9.9375 5.375 -9 2 C-5.50875983 -0.32749345 -4.10777749 -0.50299316 0 0 Z " fill="#F5F5F6" transform="translate(152,318)"/>
<path d="M0 0 C1.9375 1.0625 1.9375 1.0625 3 3 C3.4375 6.5 3.4375 6.5 3 10 C1.4375 12 1.4375 12 -1 13 C-4.625 12.875 -4.625 12.875 -8 12 C-10.31282587 8.53076119 -10.42478586 7.07794425 -10 3 C-7.72054654 -1.02256493 -4.21158603 -0.45124136 0 0 Z " fill="#F8F8F8" transform="translate(336,318)"/>
<path d="M0 0 C6.6 0.33 13.2 0.66 20 1 C16.41562211 4.58437789 15.458157 4.43194307 10.5625 4.4375 C9.42941406 4.45683594 8.29632813 4.47617187 7.12890625 4.49609375 C4 4 4 4 0 0 Z " fill="#BE803D" transform="translate(227,384)"/>
<path d="M0 0 C1.32 0.33 2.64 0.66 4 1 C2.71480435 3.86697492 1.42870746 5.97607712 -1 8 C-1.66 8 -2.32 8 -3 8 C-3 8.66 -3 9.32 -3 10 C-7.31818182 14.65909091 -7.31818182 14.65909091 -10 16 C-8.55797524 11.84848662 -6.4989562 8.70021555 -3.875 5.1875 C-3.15054688 4.21167969 -2.42609375 3.23585937 -1.6796875 2.23046875 C-0.84824219 1.12638672 -0.84824219 1.12638672 0 0 Z " fill="#DAA76F" transform="translate(108,227)"/>
<path d="M0 0 C-3.83509798 2.67466243 -6.46299549 3.41005267 -11.125 3.375 C-12.15882813 3.38273437 -13.19265625 3.39046875 -14.2578125 3.3984375 C-17.2834498 2.95881499 -18.17233014 2.38227313 -20 0 C-17.41703983 -0.19522373 -14.83395921 -0.38144403 -12.25 -0.5625 C-11.52039063 -0.61857422 -10.79078125 -0.67464844 -10.0390625 -0.73242188 C-6.45046349 -0.97709908 -3.44972775 -0.99666259 0 0 Z " fill="#BE803D" transform="translate(285,385)"/>
<path d="M0 0 C2.81963936 1.87628497 4.13649986 4.04339977 5.92578125 6.90625 C6.55097656 7.8859375 7.17617188 8.865625 7.8203125 9.875 C8.24699219 10.7103125 8.67367188 11.545625 9.11328125 12.40625 C8.78328125 13.06625 8.45328125 13.72625 8.11328125 14.40625 C7.43265625 13.54 6.75203125 12.67375 6.05078125 11.78125 C3.48924304 8.67501688 0.61658037 6.19991157 -2.53125 3.703125 C-2.97855469 3.27515625 -3.42585938 2.8471875 -3.88671875 2.40625 C-3.88671875 1.74625 -3.88671875 1.08625 -3.88671875 0.40625 C-1.88671875 -0.59375 -1.88671875 -0.59375 0 0 Z " fill="#DBA870" transform="translate(403.88671875,227.59375)"/>
</svg>
