<?xml version="1.0" encoding="UTF-8"?>
<svg version="1.1" xmlns="http://www.w3.org/2000/svg" width="512" height="512">
<path d="M0 0 C10.72643328 9.95402535 21.06652145 20.29222382 29.66650391 32.16162109 C31.16890439 34.23285428 32.69960312 36.28175677 34.23046875 38.33203125 C41.0770202 47.5753201 47.31862727 57.00224276 53 67 C53.3707666 67.64678711 53.7415332 68.29357422 54.12353516 68.95996094 C56.79087391 73.61729124 59.42588981 78.290468 62 83 C62.60013916 84.093125 63.20027832 85.18625 63.81860352 86.3125 C68.56804922 95.03776018 72.85513422 103.88974647 76.8125 113 C77.10892395 113.67986969 77.4053479 114.35973938 77.71075439 115.06021118 C106.35794285 181.0284738 126.38614224 259.42028697 99.36450195 329.10595703 C89.1855095 354.16302068 74.36869677 376.11552065 55 395 C54.3915625 395.64195312 53.783125 396.28390625 53.15625 396.9453125 C19.74102753 431.69230108 -29.6812811 448.29349795 -77 449.25 C-115.10330654 448.47977858 -152.64554378 438.11643915 -184 416 C-185.53333984 414.92298828 -185.53333984 414.92298828 -187.09765625 413.82421875 C-196.48591969 407.00409963 -204.81060617 399.2026883 -213 391 C-214.00740234 390.06220703 -214.00740234 390.06220703 -215.03515625 389.10546875 C-246.94873536 358.91362415 -264.38072264 311.49639195 -266.109375 268.26464844 C-268.41380093 184.6427926 -232.13034091 93.93536039 -181 29 C-180.56252441 28.44393066 -180.12504883 27.88786133 -179.67431641 27.31494141 C-156.39516696 -1.93276524 -125.6045563 -27.61683184 -87.4375 -32.6875 C-54.41838233 -35.56916845 -24.36638876 -21.53916099 0 0 Z " fill="#F8F8E3" transform="translate(333,48)"/>
<path d="M0 0 C0 28.38 0 56.76 0 86 C-7.425 86.99 -7.425 86.99 -15 88 C-24.85005891 90.88708623 -32.16939854 94.39772818 -40 101 C-40.96679688 101.78117187 -40.96679688 101.78117187 -41.953125 102.578125 C-51.56996404 111.15530577 -57.43295565 124.4962086 -58.34375 137.15625 C-59.01716703 151.68326489 -55.42852418 163.98196956 -47 176 C-46.278125 177.03125 -45.55625 178.0625 -44.8125 179.125 C-34.62290996 190.61677407 -20.14609205 196.25078842 -5.21875 197.546875 C-4.23841797 197.63291992 -3.25808594 197.71896484 -2.24804688 197.80761719 C-1.50619141 197.87110352 -0.76433594 197.93458984 0 198 C0.28063127 210.84953943 0.49254741 223.69832565 0.62174606 236.55032921 C0.68382266 242.52116092 0.76771346 248.48986514 0.90527344 254.45947266 C2.01577186 303.93562236 2.01577186 303.93562236 -10.55282593 323.5506897 C-12.99075617 327.67683303 -14.54185267 332.11679785 -16.125 336.625 C-16.40667023 337.40294418 -16.68834045 338.18088837 -16.97854614 338.98240662 C-20.82098725 349.67267753 -23.89002564 362.03225021 -19.375 373 C-15.02385748 381.09373363 -8.80990643 387.06336452 0 390 C0 411.78 0 433.56 0 456 C-23.81609195 456 -23.81609195 456 -34 454 C-35.92972656 453.63261719 -35.92972656 453.63261719 -37.8984375 453.2578125 C-53.88674794 449.98113013 -68.86498956 443.8793516 -83.3125 436.375 C-84.16553711 435.93212646 -85.01857422 435.48925293 -85.89746094 435.03295898 C-91.26642742 432.15444874 -96.38233424 429.00096382 -101 425 C-101 424.67 -101 424.34 -101 424 C-100.11248047 423.83564453 -100.11248047 423.83564453 -99.20703125 423.66796875 C-92.59962883 422.45550339 -92.59962883 422.45550339 -87 419 C-85.56255458 415.78257775 -85.56255458 415.78257775 -86 412 C-89.32972031 406.18505366 -94.24728916 401.6193666 -99.1875 397.1875 C-100.52319793 395.95948802 -101.85782594 394.73031132 -103.19140625 393.5 C-103.84125488 392.90316406 -104.49110352 392.30632812 -105.16064453 391.69140625 C-113.09061642 384.3992845 -119.91411352 376.84417468 -126.32275391 368.18823242 C-132.83002498 358.5504967 -132.83002498 358.5504967 -142 352 C-145.05270463 351.84188612 -145.05270463 351.84188612 -148 353 C-152.00868456 357.44205587 -152.60369144 361.25352594 -153 367 C-169.41307894 351.85260625 -175.92778804 315.52541609 -176.90234375 294.16015625 C-176.93602713 292.77346452 -176.96840794 291.38674095 -177 290 C-177.04664795 288.58630127 -177.04664795 288.58630127 -177.09423828 287.14404297 C-178.2347627 249.46088687 -170.33180323 212.48234483 -158 177 C-157.51974365 175.57494141 -157.51974365 175.57494141 -157.02978516 174.12109375 C-143.04682269 132.65204703 -123.03205688 92.51836799 -96 58 C-95.54093262 57.41105957 -95.08186523 56.82211914 -94.60888672 56.21533203 C-75.42748184 31.89103452 -52.33047787 12.48995915 -23 2 C-22.27554688 1.731875 -21.55109375 1.46375 -20.8046875 1.1875 C-13.96811918 -0.94337844 -7.27514976 0 0 0 Z " fill="#FEFEF9" transform="translate(256,28)"/>
<path d="M0 0 C10.72643328 9.95402535 21.06652145 20.29222382 29.66650391 32.16162109 C31.16890439 34.23285428 32.69960312 36.28175677 34.23046875 38.33203125 C41.0770202 47.5753201 47.31862727 57.00224276 53 67 C53.3707666 67.64678711 53.7415332 68.29357422 54.12353516 68.95996094 C56.79087391 73.61729124 59.42588981 78.290468 62 83 C62.60013916 84.093125 63.20027832 85.18625 63.81860352 86.3125 C68.56804922 95.03776018 72.85513422 103.88974647 76.8125 113 C77.10892395 113.67986969 77.4053479 114.35973938 77.71075439 115.06021118 C106.35794285 181.0284738 126.38614224 259.42028697 99.36450195 329.10595703 C89.1855095 354.16302068 74.36869677 376.11552065 55 395 C54.3915625 395.64195312 53.783125 396.28390625 53.15625 396.9453125 C19.74102753 431.69230108 -29.6812811 448.29349795 -77 449.25 C-115.10330654 448.47977858 -152.64554378 438.11643915 -184 416 C-185.53333984 414.92298828 -185.53333984 414.92298828 -187.09765625 413.82421875 C-196.48591969 407.00409963 -204.81060617 399.2026883 -213 391 C-214.00740234 390.06220703 -214.00740234 390.06220703 -215.03515625 389.10546875 C-246.94873536 358.91362415 -264.38072264 311.49639195 -266.109375 268.26464844 C-268.41380093 184.6427926 -232.13034091 93.93536039 -181 29 C-180.56252441 28.44393066 -180.12504883 27.88786133 -179.67431641 27.31494141 C-156.39516696 -1.93276524 -125.6045563 -27.61683184 -87.4375 -32.6875 C-54.41838233 -35.56916845 -24.36638876 -21.53916099 0 0 Z M-150.44189453 13.49316406 C-151.51187673 14.52793845 -152.58878343 15.55558588 -153.67138672 16.57714844 C-163.2380657 25.60679805 -171.33608995 35.31889872 -179 46 C-179.49129395 46.68384766 -179.98258789 47.36769531 -180.48876953 48.07226562 C-187.15628546 57.4224762 -193.3092596 67.02693751 -199 77 C-199.44424316 77.7748877 -199.88848633 78.54977539 -200.34619141 79.34814453 C-213.94190133 103.22342382 -225.04356974 128.03398557 -234 154 C-234.23050049 154.6583786 -234.46100098 155.3167572 -234.69848633 155.99508667 C-238.81773962 167.78963017 -242.19259482 179.6705232 -245.125 191.8125 C-245.44800079 193.14503311 -245.44800079 193.14503311 -245.77752686 194.50448608 C-251.84600306 219.72389699 -254.82285725 244.00397181 -254 270 C-253.97845255 271.33983246 -253.95748188 272.67967453 -253.9375 274.01953125 C-252.94977388 299.54607808 -243.86109058 325.13264163 -231 347 C-230.67 347 -230.34 347 -230 347 C-229.91363281 346.33613281 -229.82726562 345.67226563 -229.73828125 344.98828125 C-229.02950153 340.5340234 -228.38706331 337.54833968 -225.75 333.8125 C-223 332 -223 332 -220.125 331.8125 C-212.72190462 334.62567624 -208.15772492 341.03900178 -203.625 347.25 C-193.89366754 360.24915163 -182.87730809 372.44721407 -170.4375 382.9375 C-167.27346579 385.66580916 -164.83407859 388.17235772 -163 392 C-162.8125 395.625 -162.8125 395.625 -164 399 C-168.57377853 402.47607168 -172.34071597 403.53801763 -178 404 C-174.25546942 408.08885523 -170.48172419 410.73832398 -165.625 413.375 C-164.5743335 413.95362793 -164.5743335 413.95362793 -163.50244141 414.54394531 C-122.29839865 436.95494723 -74.52198152 444.04079697 -29.06201172 430.62304688 C-28.38154785 430.41744141 -27.70108398 430.21183594 -27 430 C-26.25637207 429.77892578 -25.51274414 429.55785156 -24.74658203 429.33007812 C-7.82908489 424.1805162 10.55102728 416.77622683 24 405 C24 404.67 24 404.34 24 404 C23.11248047 403.83564453 23.11248047 403.83564453 22.20703125 403.66796875 C13.14428148 401.84950509 13.14428148 401.84950509 10 399 C8.9375 395.6875 8.9375 395.6875 9 392 C12.04377634 386.41312071 16.46486255 382.50585883 21.125 378.25 C22.66479765 376.81719589 24.20386421 375.38360569 25.7421875 373.94921875 C28.12062269 371.74156164 30.50114545 369.53620279 32.8828125 367.33203125 C38.69429577 361.76029564 43.48361734 355.6235729 48.30322266 349.20117188 C58.42029404 335.71980397 58.42029404 335.71980397 64 332 C67.4375 332 67.4375 332 71 333 C75.05692636 337.37721002 75.60526418 341.27633055 76 347 C92.63325318 331.64941063 98.65276005 295.62393734 100 274 C100.1600034 268.81178156 100.19630144 263.62756349 100.1875 258.4375 C100.18656342 257.72391327 100.18562683 257.01032654 100.18466187 256.27511597 C100.15466181 245.72943099 99.90642094 235.40833381 98 225 C97.75008301 223.62400635 97.75008301 223.62400635 97.49511719 222.22021484 C96.11812349 214.78706494 94.59551499 207.38907495 93 200 C92.80003418 199.07074707 92.60006836 198.14149414 92.39404297 197.18408203 C89.40744729 183.5115018 85.48022501 170.25286762 81 157 C80.68611328 156.05237793 80.37222656 155.10475586 80.04882812 154.12841797 C64.18877699 106.5243309 39.79223141 58.60100185 5 22 C4.46922852 21.43667969 3.93845703 20.87335938 3.39160156 20.29296875 C-17.2149606 -1.44632504 -42.77520488 -19.02674192 -73.44921875 -21.25 C-103.5579327 -21.83110908 -129.39922487 -6.89898375 -150.44189453 13.49316406 Z " fill="#34373B" transform="translate(333,48)"/>
<path d="M0 0 C4.10454352 2.39903492 7.70146738 5.18698382 11.265625 8.32421875 C11.94496094 8.89785156 12.62429688 9.47148437 13.32421875 10.0625 C25.49165277 21.13889705 32.6067516 39.25157147 33.42675781 55.52124023 C33.47270965 59.26818532 33.51228584 63.01450382 33.515625 66.76171875 C33.51629974 67.43817444 33.51697449 68.11463013 33.51766968 68.81158447 C33.50199872 78.67901275 33.08459933 87.80310465 30.265625 97.32421875 C29.91008874 98.61716894 29.55462327 99.91013859 29.19921875 101.203125 C20.04748793 133.26905398 0.5321425 164.38623416 -28.90527344 181.32958984 C-34.00948136 184.10515619 -39.27521791 186.33369577 -44.734375 188.32421875 C-45.60964844 188.66324219 -46.48492187 189.00226563 -47.38671875 189.3515625 C-58.7236146 193.14217328 -73.74980368 193.18881462 -84.734375 188.32421875 C-85.559375 187.98390625 -86.384375 187.64359375 -87.234375 187.29296875 C-96.75844366 182.99552314 -103.76991101 177.07019272 -107.734375 167.32421875 C-114.12450135 148.1538397 -101.4002531 126.15521429 -93.734375 109.32421875 C-93.11935195 107.96994118 -92.50444865 106.61560922 -91.88964844 105.26123047 C-88.15049503 97.0302282 -84.38637703 88.81094199 -80.60832214 80.59773254 C-78.61017491 76.2485107 -76.63597659 71.88955679 -74.68359375 67.51953125 C-66.32027655 48.84955958 -57.39917979 30.4934704 -44.734375 14.32421875 C-43.83138672 13.14666016 -43.83138672 13.14666016 -42.91015625 11.9453125 C-32.21242384 -1.19619095 -16.06668241 -7.58113325 0 0 Z " fill="#54AF79" transform="translate(342.734375,231.67578125)"/>
<path d="M0 0 C0.90411621 -0.01023193 1.80823242 -0.02046387 2.73974609 -0.03100586 C7.9342877 0.03801658 11.64612788 0.53285043 16.125 3.4375 C20.78022569 8.47017642 21.31841135 12.48507449 21.3125 19.125 C21.31314453 19.88248535 21.31378906 20.6399707 21.31445312 21.42041016 C21.26824466 26.47288606 20.83800966 31.31131879 20.125 36.3125 C18.26288898 49.42371311 18.8635494 62.31294032 20.40209961 75.42382812 C21.0195398 80.87136293 21.37510071 86.2672625 21.4375 91.75 C21.45490234 92.43723145 21.47230469 93.12446289 21.49023438 93.83251953 C21.4846383 99.47196307 19.79678593 103.28806095 16.375 107.6875 C9.78712555 112.81140235 1.0540198 111.98643214 -6.875 111.4375 C-21.64682079 109.09370443 -35.83354341 100.62273749 -44.75 88.625 C-53.81817807 74.6639201 -57.14972799 59.13238912 -54.22265625 42.796875 C-49.74327745 26.87873919 -39.93445166 14.28024035 -25.6875 5.91015625 C-17.11941884 1.42381376 -9.60011037 0.085081 0 0 Z " fill="#7BC67B" transform="translate(251.875,114.5625)"/>
<path d="M0 0 C3.5625 0.9375 3.5625 0.9375 5.875 2.875 C8.28153802 7.24242085 9.78807925 10.88311487 9.5625 15.9375 C7.83802432 20.37443222 5.31445579 24.07200773 2.5625 27.9375 C1.84964844 28.95328125 1.13679688 29.9690625 0.40234375 31.015625 C-3.86610657 36.88756725 -8.45524693 42.36644068 -13.39453125 47.68359375 C-14.81369413 49.24928587 -16.17408024 50.86947079 -17.484375 52.52734375 C-19.18632405 54.62754888 -20.82486892 56.31829049 -22.875 58.0625 C-23.55820312 58.64515625 -24.24140625 59.2278125 -24.9453125 59.828125 C-25.76773438 60.52421875 -26.59015625 61.2203125 -27.4375 61.9375 C-28.53965184 62.88994345 -29.64117055 63.84311985 -30.7421875 64.796875 C-31.91113478 65.80245957 -33.08040618 66.80766749 -34.25 67.8125 C-34.81323975 68.30121582 -35.37647949 68.78993164 -35.95678711 69.29345703 C-38.44436081 71.41520008 -40.30379249 72.89293083 -43.4375 73.9375 C-49.09813383 73.38760986 -54.21095283 71.84705614 -58.4375 67.9375 C-59.5625 64.5625 -59.5625 64.5625 -59.4375 60.9375 C-56.15778778 54.37807555 -50.2550017 49.46530292 -44.75 44.75 C-35.41688873 36.61942422 -27.50555038 28.02102473 -20.10522461 18.10961914 C-6.47961575 -0.1178112 -6.47961575 -0.1178112 0 0 Z " fill="#55AF79" transform="translate(400.4375,379.0625)"/>
<path d="M0 0 C5.86379509 4.22925545 10.22175381 9.51035888 14.4375 15.3125 C23.82680286 27.88425107 34.40519634 39.68720296 46.4375 49.8125 C51.12043915 53.8586378 54.76365282 57.25837271 55.3125 63.625 C53.70497214 67.75864306 52.08702978 69.00482177 48.23828125 71.03515625 C41.81114834 73.80566555 41.81114834 73.80566555 38 73 C34.26377364 70.76932538 31.18806582 67.9443299 28 65 C27.21882813 64.32453125 26.43765625 63.6490625 25.6328125 62.953125 C23.03548097 60.68791127 20.51415812 58.35724613 18 56 C17.47390137 55.51321777 16.94780273 55.02643555 16.40576172 54.52490234 C-13.21022491 26.9272157 -13.21022491 26.9272157 -14.19140625 12.109375 C-12.89694323 7.25312863 -11.72242963 3.6061037 -8 0 C-4.89303638 -1.55348181 -3.33143054 -0.98709053 0 0 Z " fill="#7CC57C" transform="translate(116,380)"/>
<path d="M0 0 C10.49577465 1.16619718 10.49577465 1.16619718 15 6 C17.19850612 10.19441952 17.30917878 14.17436289 17.25 18.8125 C17.24613281 19.56096191 17.24226563 20.30942383 17.23828125 21.08056641 C17.15227827 26.7603465 16.51836932 32.22104001 15.72070312 37.84375 C14.06246318 50.26239365 14.82260775 62.59175079 16.27709961 74.98632812 C16.8945398 80.43386293 17.25010071 85.8297625 17.3125 91.3125 C17.33860352 92.34334717 17.33860352 92.34334717 17.36523438 93.39501953 C17.35955515 99.11825813 15.71500428 103.01702631 12 107.3125 C7.99252893 110.69380372 5.54918009 110 0 110 C0 73.7 0 37.4 0 0 Z " fill="#55AF79" transform="translate(256,115)"/>
<path d="M0 0 C0.33 0 0.66 0 1 0 C1 29.7 1 59.4 1 90 C-7.4012961 88.31974078 -12.79926903 82.84030128 -17.80859375 76.08984375 C-22.79427673 67.34446541 -22.15155526 56.53027208 -19.71533203 47.04516602 C-16.31630523 35.26946398 -11.07317597 24.1267061 -6 13 C-5.48493896 11.86618896 -5.48493896 11.86618896 -4.95947266 10.70947266 C-3.32950213 7.12861792 -1.67984836 3.55772762 0 0 Z " fill="#7CC67C" transform="translate(255,328)"/>
<path d="M0 0 C3.20887887 2.06794416 4.92612398 3.4750655 6.8125 6.8125 C7.73983689 12.44945794 7.01966801 17.00174798 3.8125 21.8125 C0.57203856 24.74916818 -2.12264935 25.71204239 -6.5 26.125 C-11.78342627 25.67725201 -14.60234093 23.60901361 -18.0625 19.6875 C-19.75414673 15.36440281 -19.97769485 11.38538687 -19.1875 6.8125 C-17.53866481 3.61297457 -15.21313708 1.56463386 -12.3125 -0.5625 C-7.90416955 -1.85906778 -4.27897212 -1.59412687 0 0 Z " fill="#57B07B" transform="translate(340.1875,117.1875)"/>
<path d="M0 0 C4.12326498 1.7409341 6.69835882 4.16393137 9 8 C9.81972887 14.35289872 8.82138744 17.8712958 5 23 C0.68782093 25.97061225 -2.81855083 26.72722094 -8 26 C-11.63618109 24.21135222 -14.29260798 22.13797847 -16.4375 18.6875 C-18.25471749 10.00523868 -18.25471749 10.00523868 -15.7265625 5.96484375 C-10.89851811 0.23006907 -7.4276251 -0.70923504 0 0 Z " fill="#57B07B" transform="translate(376,174)"/>
<path d="M0 0 C3.16961356 1.28133314 4.57820229 2.5200233 6.8125 5.0625 C8.56499392 9.39761655 8.67598228 13.38964897 8 18 C5.591025 22.35468558 2.61248929 24.24725407 -2 26 C-5.89829563 26.56850145 -7.60983106 26.20288785 -11.125 24.375 C-15.37247239 20.86621846 -17.70972347 18.03193569 -18.5 12.5 C-17.80193498 7.61354487 -15.8149702 4.63308619 -12.16796875 1.3515625 C-8.3604418 -1.02213899 -4.3366839 -0.5139252 0 0 Z " fill="#7DC77D" transform="translate(190,350)"/>
<path d="M0 0 C2.93423195 1.79646854 4.47205355 2.9441071 6 6 C6.53118252 10.91996928 6.75105553 14.77327597 4.125 19.0625 C0.38214851 22.47509989 -2.60769925 22.32843064 -7.515625 22.29296875 C-10.97198834 21.88537873 -12.68663869 20.53723498 -15 18 C-16.84862688 14.30274625 -16.47587094 10.03538558 -16 6 C-11.95766104 -0.60248696 -7.2842127 -0.85898735 0 0 Z " fill="#7DC77D" transform="translate(156,151)"/>
<path d="M0 0 C3.4375 0.8125 3.4375 0.8125 5.4375 3.8125 C5.25 7.375 5.25 7.375 4.4375 10.8125 C1.4375 12.8125 1.4375 12.8125 -2.125 12.625 C-5.5625 11.8125 -5.5625 11.8125 -7.5625 8.8125 C-7.375 5.25 -7.375 5.25 -6.5625 1.8125 C-3.5625 -0.1875 -3.5625 -0.1875 0 0 Z " fill="#80C880" transform="translate(241.5625,432.1875)"/>
<path d="M0 0 C2 1.625 2 1.625 3 4 C2.87046154 7.17369216 2.51878767 9.22181849 0.75 11.875 C-1.71846913 13.46187301 -3.11780274 13.49208246 -6 13 C-8.3125 11.375 -8.3125 11.375 -10 9 C-10.45319325 5.82764724 -10.52990283 3.93512264 -8.9375 1.125 C-5.85928089 -0.66235303 -3.47093932 -0.43386742 0 0 Z " fill="#5AB17D" transform="translate(275,439)"/>
<path d="M0 0 C1.875 1.0625 1.875 1.0625 3 3 C3.63316583 8.90954774 3.63316583 8.90954774 1.875 11.9375 C-0.88980433 13.50422245 -2.88188517 13.38976435 -6 13 C-7.875 11.9375 -7.875 11.9375 -9 10 C-9.63316583 4.09045226 -9.63316583 4.09045226 -7.875 1.0625 C-5.11019567 -0.50422245 -3.11811483 -0.38976435 0 0 Z " fill="#7FC77E" transform="translate(172,222)"/>
<path d="M0 0 C2.375 0.75 2.375 0.75 3.375 1.75 C3.5625 4.1875 3.5625 4.1875 3.375 6.75 C2.715 7.41 2.055 8.07 1.375 8.75 C-1.75 8.375 -1.75 8.375 -4.625 7.75 C-5.3125 5.4375 -5.3125 5.4375 -5.625 2.75 C-3.9659358 -0.015107 -3.22812218 -0.30744021 0 0 Z " fill="#82C981" transform="translate(193.625,102.25)"/>
</svg>
