<?xml version="1.0" encoding="UTF-8"?>
<svg version="1.1" xmlns="http://www.w3.org/2000/svg" width="512" height="512">
<path d="M0 0 C4.4115635 1.57146403 8.6864777 3.39760584 12.95654297 5.32275391 C14.00455078 5.78552734 15.05255859 6.24830078 16.13232422 6.72509766 C41.53360044 18.61856162 60.477154 41.18893385 71.95654297 66.32275391 C72.47216797 65.64212891 72.98779297 64.96150391 73.51904297 64.26025391 C75.95654297 62.32275391 75.95654297 62.32275391 79.20581055 62.52709961 C82.96124719 63.32375183 85.94833386 64.46556887 89.40576172 66.11572266 C90.58332031 66.66292969 91.76087891 67.21013672 92.97412109 67.77392578 C94.82005515 68.64421176 96.66334549 69.51950604 98.50366211 70.40161133 C100.29797199 71.25734451 102.10176883 72.0930958 103.90576172 72.92822266 C105.5042395 73.68848755 105.5042395 73.68848755 107.13500977 74.46411133 C109.82874203 75.5963213 109.82874203 75.5963213 111.90965271 74.59141541 C114.1222548 73.2200458 115.7228733 71.75667336 117.52832031 69.8828125 C118.20937836 69.18223724 118.8904364 68.48166199 119.59213257 67.75985718 C120.31824738 67.00459747 121.04436218 66.24933777 121.79248047 65.47119141 C123.34657624 63.88207084 124.90128258 62.29354719 126.45654297 60.70556641 C128.90115702 58.19895127 131.34084912 55.68809369 133.77001953 53.16650391 C136.11823653 50.73370928 138.48486761 48.32013302 140.85498047 45.90869141 C141.57704681 45.14938324 142.29911316 44.39007507 143.0430603 43.60775757 C145.90620682 40.71583403 148.02510246 38.63072773 151.92041016 37.34277344 C156.96675047 38.9715938 160.01915566 42.6555211 163.63623047 46.41650391 C164.85537643 47.6483844 164.85537643 47.6483844 166.09915161 48.90515137 C168.69103094 51.53060806 171.26127378 54.17615434 173.83154297 56.82275391 C175.58536539 58.60666959 177.3405581 60.38923919 179.09716797 62.17041016 C183.39964693 66.53903162 187.68454588 70.92433132 191.95654297 75.32275391 C196.91634445 73.7382132 201.72269968 72.11627548 206.40185547 69.80712891 C207.33384766 69.36111328 208.26583984 68.91509766 209.22607422 68.45556641 C211.14220173 67.52764693 213.05364649 66.58999965 214.96044922 65.64306641 C220.41797931 63.05433507 224.0740235 61.35671292 229.95654297 63.32275391 C230.61654297 64.31275391 231.27654297 65.30275391 231.95654297 66.32275391 C232.51341797 65.22318359 233.07029297 64.12361328 233.64404297 62.99072266 C240.31532342 49.99144982 247.92348119 39.00132517 257.95654297 28.32275391 C258.47216797 27.73107422 258.98779297 27.13939453 259.51904297 26.52978516 C278.00999934 6.25714809 307.92731572 -3.79823342 334.51904297 -5.61474609 C335.37651123 -5.68467773 336.23397949 -5.75460938 337.11743164 -5.82666016 C341.08393215 -6.0322637 343.30242005 -6.05410703 346.80419922 -4.03662109 C364.88538898 15.78377567 371.13353635 46.96774142 370.10449219 72.86279297 C369.32118012 85.8869718 366.18469756 97.89634076 361.75242615 110.11546326 C359.35846288 116.75484562 357.40163853 123.24110383 356.13232422 130.18994141 C355.98119675 130.99134552 355.83006927 131.79274963 355.67436218 132.61843872 C355.35976986 134.29341014 355.04817536 135.96894724 354.73950195 137.64501953 C354.26615151 140.21344311 353.78300582 142.77988142 353.29833984 145.34619141 C352.99243292 146.98150185 352.68707445 148.61691501 352.38232422 150.25244141 C352.23861893 151.01805389 352.09491364 151.78366638 351.94685364 152.57247925 C351.4035899 155.53523656 350.95654297 158.30342792 350.95654297 161.32275391 C351.72844971 161.66532227 352.50035645 162.00789062 353.2956543 162.36083984 C356.16784675 163.64179054 359.03537589 164.9325259 361.90014648 166.22998047 C363.1389366 166.78860927 364.37948875 167.34334813 365.62182617 167.89404297 C367.41120666 168.68804921 369.19374137 169.49742645 370.97607422 170.30712891 C372.58639526 171.02980957 372.58639526 171.02980957 374.22924805 171.76708984 C377.09396257 173.40113881 378.51515503 174.35991929 379.95654297 177.32275391 C379.77074215 181.99590205 378.13247325 185.26119494 375.78857422 189.24462891 C375.14210938 190.35322266 374.49564453 191.46181641 373.82958984 192.60400391 C373.14292124 193.76036102 372.45607142 194.91661055 371.76904297 196.07275391 C371.10839844 197.20197266 370.44775391 198.33119141 369.76708984 199.49462891 C365.87636965 206.13151389 361.92825488 212.73406598 357.95654297 219.32275391 C363.90220938 224.83888549 369.88805879 230.15863713 376.26513672 235.17431641 C379.52173175 237.77392057 382.7121767 240.44505015 385.89404297 243.13525391 C386.4501123 243.60374756 387.00618164 244.07224121 387.57910156 244.55493164 C389.04763952 245.79987895 390.50274718 247.06062264 391.95654297 248.32275391 C392.59720703 248.78037109 393.23787109 249.23798828 393.89794922 249.70947266 C394.95654297 251.32275391 394.95654297 251.32275391 394.80224609 254.60742188 C393.82623901 258.89520359 392.6184353 260.36508393 389.48388672 263.38134766 C388.58476562 264.26113281 387.68564453 265.14091797 386.75927734 266.04736328 C385.81375 266.94261719 384.86822266 267.83787109 383.89404297 268.76025391 C382.93368787 269.69048149 381.97468804 270.62211042 381.01708984 271.55517578 C378.67652924 273.82516672 376.32313518 276.07996732 373.95654297 278.32275391 C375.42305021 282.93441694 377.28210926 286.85269791 379.83154297 290.94775391 C380.63105665 292.26023288 381.43053374 293.57273415 382.22998047 294.88525391 C383.66359423 297.22088079 385.09949835 299.55508956 386.53564453 301.88916016 C388.18233774 304.57150334 389.8196068 307.25944824 391.45654297 309.94775391 C391.98489746 310.80062988 392.51325195 311.65350586 393.05761719 312.53222656 C393.5502002 313.34224121 394.0427832 314.15225586 394.55029297 314.98681641 C394.99050781 315.70305176 395.43072266 316.41928711 395.88427734 317.15722656 C397.12452929 319.66201589 397.77792335 321.52240722 397.95654297 324.32275391 C396.60172818 328.28691223 394.52971519 329.74852362 390.91577148 331.52685547 C389.22933378 332.2717574 387.5353137 332.99964804 385.83544922 333.71337891 C384.93914291 334.1034613 384.04283661 334.4935437 383.11936951 334.89544678 C380.25864092 336.1358038 377.38905326 337.35405159 374.51904297 338.57275391 C372.59072292 339.4073395 370.66298108 340.24326241 368.73583984 341.08056641 C365.20273799 342.60683045 361.66948866 344.13255168 358.12670898 345.63623047 C357.41627945 345.9386969 356.70584991 346.24116333 355.97389221 346.55279541 C353.98629869 347.31139709 352.02947602 347.85248828 349.95654297 348.32275391 C350.25173828 349.60794922 350.54693359 350.89314453 350.85107422 352.21728516 C351.93962441 357.12584906 352.83631309 362.04848464 353.64404297 367.01025391 C353.78648437 367.82558594 353.92892578 368.64091797 354.07568359 369.48095703 C354.80621818 373.97683404 355.30377048 377.87074828 353.95654297 382.32275391 C350.42152991 384.67942928 347.64103999 384.80483075 343.53857422 385.06884766 C342.78559052 385.124086 342.03260681 385.17932434 341.25680542 385.23623657 C339.62047713 385.35526079 337.98386097 385.47037675 336.34701538 385.58206177 C333.74097415 385.76219405 331.1365663 385.95840978 328.53198242 386.15844727 C320.28637229 386.78277602 312.04532734 387.34075263 303.78405762 387.7102356 C278.56595969 388.49246652 278.56595969 388.49246652 256.1484375 398.94677734 C229.2309373 415.84441948 191.18793404 421.53855959 159.95654297 422.32275391 C158.75513672 422.36271484 157.55373047 422.40267578 156.31591797 422.44384766 C123.21128388 423.02283817 90.02176131 417.04301698 59.39404297 404.44775391 C58.48025879 404.07376465 57.56647461 403.69977539 56.625 403.31445312 C52.42687416 401.5163271 48.61835524 399.80490112 44.90966797 397.10302734 C31.55328048 387.55919144 15.24943018 388.22867132 -0.54498291 387.44525146 C-4.50449474 387.24089679 -8.46127512 386.99334 -12.41845703 386.74853516 C-17.5600273 386.43280018 -22.70178619 386.13202042 -27.84580231 385.85897923 C-46.09917202 384.87797134 -46.09917202 384.87797134 -49.70751953 382.75634766 C-51.65214314 379.21394851 -51.05698411 376.21259286 -50.41845703 372.38525391 C-50.31090088 371.63687256 -50.20334473 370.88849121 -50.0925293 370.11743164 C-49.86976801 368.58804278 -49.63709694 367.06006448 -49.39453125 365.53369141 C-49.06962307 363.48753806 -48.77586405 361.43650411 -48.48486328 359.38525391 C-47.23536534 350.70657052 -47.23536534 350.70657052 -46.04345703 348.32275391 C-46.84759033 348.07058105 -47.65172363 347.8184082 -48.48022461 347.55859375 C-52.76020315 346.07416406 -56.89414368 344.33611846 -61.05517578 342.54931641 C-61.90521683 342.18430023 -62.75525787 341.81928406 -63.63105774 341.44320679 C-65.41934724 340.6731799 -67.20694855 339.90155304 -68.99389648 339.12841797 C-70.82183647 338.33991402 -72.65193563 337.55639721 -74.48413086 336.77783203 C-77.1376837 335.65013744 -79.78445322 334.50774107 -82.43017578 333.36181641 C-83.6583326 332.84441391 -83.6583326 332.84441391 -84.91130066 332.31655884 C-92.10174342 329.16542184 -92.10174342 329.16542184 -94.04345703 325.32275391 C-94.18225609 319.15082246 -90.21850011 314.08277373 -87.10595703 309.01025391 C-86.5270874 308.04490723 -85.94821777 307.07956055 -85.35180664 306.08496094 C-82.56821459 301.4462782 -79.74394858 296.83464728 -76.88720703 292.24072266 C-76.41532959 291.46962158 -75.94345215 290.69852051 -75.45727539 289.90405273 C-74.57377036 288.4615532 -73.67661981 287.02730028 -72.7644043 285.6027832 C-71.41857202 283.48095759 -71.41857202 283.48095759 -70.04345703 280.32275391 C-71.21047385 276.80851186 -73.48744679 274.70698998 -76.14111328 272.20556641 C-76.94226563 271.43341797 -77.74341797 270.66126953 -78.56884766 269.86572266 C-80.25840998 268.25550083 -81.95373176 266.65130041 -83.65478516 265.05322266 C-84.45464844 264.27849609 -85.25451172 263.50376953 -86.07861328 262.70556641 C-86.81474854 262.00834473 -87.55088379 261.31112305 -88.30932617 260.59277344 C-90.43425331 257.81119206 -90.81661818 255.7870132 -91.04345703 252.32275391 C-87.38851987 245.27199826 -79.13224513 240.13314235 -73.04345703 235.32275391 C-71.14422295 233.78527869 -69.24832664 232.24367027 -67.35595703 230.69775391 C-66.52708984 230.02486328 -65.69822266 229.35197266 -64.84423828 228.65869141 C-61.18829425 225.60952191 -57.61509941 222.46990467 -54.04345703 219.32275391 C-56.05111786 215.83945269 -58.05919769 212.35639336 -60.06762695 208.87353516 C-61.07735777 207.12235376 -62.0867791 205.37099392 -63.09619141 203.61962891 C-64.07749023 201.91806641 -64.07749023 201.91806641 -65.07861328 200.18212891 C-65.73104004 199.04195312 -66.3834668 197.90177734 -67.05566406 196.72705078 C-68.37864025 194.46132002 -69.7392521 192.21714251 -71.13671875 189.99658203 C-72.10955811 188.43327148 -72.10955811 188.43327148 -73.10205078 186.83837891 C-73.69171631 185.91831055 -74.28138184 184.99824219 -74.88891602 184.05029297 C-76.35448682 180.5879633 -76.28324618 178.86014788 -75.04345703 175.32275391 C-72.82592773 173.61645508 -72.82592773 173.61645508 -70.04345703 172.32275391 C-68.71737427 171.65433472 -68.71737427 171.65433472 -67.36450195 170.97241211 C-65.95841675 170.30471802 -65.95841675 170.30471802 -64.52392578 169.62353516 C-63.50234375 169.13691406 -62.48076172 168.65029297 -61.42822266 168.14892578 C-60.373125 167.64941406 -59.31802734 167.14990234 -58.23095703 166.63525391 C-57.15652344 166.12414062 -56.08208984 165.61302734 -54.97509766 165.08642578 C-52.33227665 163.82961757 -49.68837502 162.57514148 -47.04345703 161.32275391 C-48.38019871 152.35815822 -49.81696605 143.41359684 -51.42822266 134.49414062 C-51.67087443 133.13457701 -51.9072514 131.7738779 -52.13720703 130.41210938 C-53.68077112 121.29324143 -56.06652048 113.16719646 -59.67480469 104.65332031 C-61.32514926 100.63726597 -62.46169022 96.68598523 -63.35595703 92.44775391 C-63.51128906 91.78001953 -63.66662109 91.11228516 -63.82666016 90.42431641 C-70.38534373 61.14950559 -64.27097753 29.95439874 -49.04345703 4.32275391 C-38.25404955 -11.68188577 -16.49217064 -5.46586396 0 0 Z " fill="#E1BE90" transform="translate(104.04345703125,47.67724609375)"/>
<path d="M0 0 C2.98889217 1.33746159 5.0177606 2.79121553 7.28051758 5.14868164 C7.89828568 5.78596695 8.51605377 6.42325226 9.15254211 7.07984924 C10.13857674 8.10960121 10.13857674 8.10960121 11.14453125 9.16015625 C12.55734662 10.60800378 13.97077732 12.05525108 15.38476562 13.50195312 C17.60328649 15.78239306 19.81685068 18.06703354 22.01977539 20.36254883 C24.15198248 22.57955825 26.30275338 24.77711572 28.45703125 26.97265625 C29.10831497 27.66118179 29.75959869 28.34970734 30.43061829 29.05909729 C33.45643685 32.11824376 35.39150887 33.81241627 39.56616211 35.09936523 C43.50894085 34.98527274 45.93290601 34.13607492 49.484375 32.4375 C51.25748047 31.61378906 51.25748047 31.61378906 53.06640625 30.7734375 C54.29489099 30.18358152 55.52275007 29.59242083 56.75 29 C59.17693076 27.84190788 61.60988584 26.69958366 64.046875 25.5625 C65.11776367 25.04816406 66.18865234 24.53382812 67.29199219 24.00390625 C70 23 70 23 73 24 C74.16796875 25.9609375 74.16796875 25.9609375 75.1875 28.375 C75.53167969 29.16648438 75.87585938 29.95796875 76.23046875 30.7734375 C77 33 77 33 77 36 C76.05898438 36.26554687 75.11796875 36.53109375 74.1484375 36.8046875 C72.90320313 37.15789062 71.65796875 37.51109375 70.375 37.875 C69.14523437 38.22304687 67.91546875 38.57109375 66.6484375 38.9296875 C63.40337981 39.88166374 60.19989678 40.90711218 57 42 C56.32326553 45.40320934 56.32326553 45.40320934 56 49 C56.66 49.66 57.32 50.32 58 51 C63.40970375 50.63357117 68.31303401 49.48878012 73.5234375 47.9609375 C74.56688324 47.65835274 74.56688324 47.65835274 75.63140869 47.34965515 C77.1146591 46.91902842 78.59714956 46.4857766 80.07891846 46.05007935 C83.98136832 44.90270577 87.88926191 43.77417128 91.796875 42.64453125 C92.96864792 42.30508736 92.96864792 42.30508736 94.16409302 41.95878601 C102.32452818 39.60232947 110.52374697 37.40038937 118.73974609 35.24560547 C123.95287051 33.86768329 129.06224855 32.37280308 134.13818359 30.54858398 C136 30 136 30 139 30 C139.13575439 30.79696289 139.27150879 31.59392578 139.41137695 32.41503906 C140.03359153 36.02878129 140.67283914 39.63930689 141.3125 43.25 C141.52583984 44.50425781 141.73917969 45.75851563 141.95898438 47.05078125 C142.17490234 48.25605469 142.39082031 49.46132812 142.61328125 50.703125 C142.80704346 51.81333008 143.00080566 52.92353516 143.20043945 54.06738281 C144.04235177 57.15533724 144.8393363 58.67188577 147 61 C149.07563317 61.67227498 149.07563317 61.67227498 151.42382812 61.69775391 C152.31485229 61.75105865 153.20587646 61.8043634 154.12390137 61.85928345 C155.08332642 61.89798553 156.04275146 61.93668762 157.03125 61.9765625 C158.51244324 62.06084 158.51244324 62.06084 160.02355957 62.14682007 C163.18170762 62.32415474 166.34039266 62.47612049 169.5 62.625 C172.65926351 62.7844278 175.81801651 62.94931205 178.97644043 63.12460327 C180.94246647 63.23265731 182.90905724 63.33096119 184.87609863 63.41860962 C185.7671228 63.46561005 186.65814697 63.51261047 187.57617188 63.56103516 C188.35988159 63.59782379 189.14359131 63.63461243 189.9510498 63.67251587 C192 64 192 64 195 66 C194.79318604 67.06323486 194.58637207 68.12646973 194.37329102 69.22192383 C193.598116 73.21485487 192.83014784 77.20914531 192.06420898 81.20385742 C191.73345254 82.92362997 191.40081358 84.64304169 191.06616211 86.36206055 C188.80533651 97.89645664 188.80533651 97.89645664 187.02734375 109.51171875 C186.920271 110.32471436 186.81319824 111.13770996 186.70288086 111.9753418 C186.81133378 114.14384545 186.81133378 114.14384545 188.65942383 115.61181641 C191.1979749 117.11741789 193.75250925 118.43868492 196.421875 119.69921875 C197.44667969 120.18583984 198.47148437 120.67246094 199.52734375 121.17382812 C200.59082031 121.67333984 201.65429688 122.17285156 202.75 122.6875 C203.82894531 123.19861328 204.90789062 123.70972656 206.01953125 124.23632812 C208.67782224 125.49489953 211.33800229 126.74929268 214 128 C212.75329685 132.09855533 211.25158972 135.5613144 209.015625 139.2109375 C208.41693604 140.19674805 207.81824707 141.18255859 207.20141602 142.19824219 C206.23546509 143.7707373 206.23546509 143.7707373 205.25 145.375 C203.88798641 147.61637589 202.52734392 149.85858545 201.16796875 152.1015625 C200.82148788 152.67221436 200.47500702 153.24286621 200.11802673 153.83081055 C196.52431011 159.76013229 193.03931513 165.75151781 189.5625 171.75 C184.82573697 179.90959264 180.02307757 188.01299467 175 196 C169.86417064 195.477023 165.95679839 194.29540592 161.33203125 192.0234375 C160.09703825 191.42961877 158.86201123 190.83587081 157.62695312 190.2421875 C155.70966706 189.30610803 153.79438516 188.36608333 151.88012695 187.42382812 C150.01452695 186.509677 148.14250953 185.60984998 146.26953125 184.7109375 C145.16198486 184.16743652 144.05443848 183.62393555 142.91333008 183.06396484 C140.184447 181.85749501 140.184447 181.85749501 137.88085938 182.0871582 C133.43176342 184.24644815 130.13705874 188.35222002 126.6875 191.8125 C125.83865234 192.63298828 124.98980469 193.45347656 124.11523438 194.29882812 C123.31794922 195.09353516 122.52066406 195.88824219 121.69921875 196.70703125 C120.96533936 197.4338208 120.23145996 198.16061035 119.4753418 198.90942383 C118.988479 199.59931396 118.50161621 200.2892041 118 201 C118.33989759 203.11821403 118.33989759 203.11821403 119 205 C118.34 205.66 117.68 206.32 117 207 C113.61221476 206.59581738 110.83757867 204.93510594 107.8125 203.4375 C99.40105737 199.89149968 90.06598001 199.48772922 81.1953125 201.69921875 C78.94475382 202.62202568 77.0309777 203.66535751 75 205 C74.30648438 205.43570313 73.61296875 205.87140625 72.8984375 206.3203125 C66.46712864 210.72828823 60.94181715 216.88854642 58.4765625 224.41796875 C56.08760147 237.36143792 58.00381402 248.21182773 65.125 259.3125 C72.45169785 266.16136973 80.20793705 270.01128315 90 272 C87.51472929 273.65684714 85.64964422 274.61019837 82.90234375 275.62109375 C81.70665771 276.06291992 81.70665771 276.06291992 80.48681641 276.51367188 C79.64554199 276.81853516 78.80426758 277.12339844 77.9375 277.4375 C77.08075684 277.74880859 76.22401367 278.06011719 75.34130859 278.38085938 C57.91074921 284.66870119 57.91074921 284.66870119 53 283 C51.515625 281.1796875 51.515625 281.1796875 50.25 278.875 C43.0728164 267.36959117 30.3110009 262.34962654 17.60717773 259.18481445 C-0.82941118 255.1947584 -19.84452362 257.66018082 -36.15625 267.1484375 C-43.20830407 271.74002215 -47.99261316 276.5824811 -52 284 C-64.16890038 283.04557644 -77.81669641 278.78886906 -88 272 C-86.53240234 271.58041016 -86.53240234 271.58041016 -85.03515625 271.15234375 C-73.33151857 267.64558547 -65.43761233 263.5071419 -59.19140625 252.52734375 C-55.08122432 243.80836765 -54.40239305 233.57197403 -56.6875 224.171875 C-57.62292698 221.94244069 -58.67609567 220.02091315 -60 218 C-60.63615234 216.95972656 -60.63615234 216.95972656 -61.28515625 215.8984375 C-65.80141178 209.18066465 -72.7261512 204.0303701 -80.453125 201.48046875 C-91.12836024 199.46658235 -100.20956115 199.92043217 -109.484375 205.8828125 C-112 207 -112 207 -114.828125 206.1796875 C-115.54484375 205.79039062 -116.2615625 205.40109375 -117 205 C-116.75491699 204.43450439 -116.50983398 203.86900879 -116.25732422 203.28637695 C-115.72956984 200.86630625 -115.72956984 200.86630625 -117.55126953 198.78588867 C-120.06110566 196.23689385 -122.57434125 193.69577064 -125.125 191.1875 C-125.99382812 190.29095703 -126.86265625 189.39441406 -127.7578125 188.47070312 C-128.6034375 187.62830078 -129.4490625 186.78589844 -130.3203125 185.91796875 C-131.09648926 185.14219482 -131.87266602 184.3664209 -132.67236328 183.56713867 C-134.86739976 181.75736042 -134.86739976 181.75736042 -137.41967773 182.08935547 C-140.36061837 183.12726905 -143.14459382 184.31837285 -145.96484375 185.65234375 C-147.09470703 186.18150391 -148.22457031 186.71066406 -149.38867188 187.25585938 C-150.55978516 187.81080078 -151.73089844 188.36574219 -152.9375 188.9375 C-155.25771861 190.03290967 -157.57929086 191.12545769 -159.90234375 192.21484375 C-161.44136353 192.94368774 -161.44136353 192.94368774 -163.01147461 193.68725586 C-165.96521261 194.98471924 -168.92482281 196.03017391 -172 197 C-176.97461514 189.79611131 -181.41699204 182.31657192 -185.8125 174.75 C-186.9243313 172.84176928 -188.03690444 170.93397237 -189.14952087 169.02619934 C-189.91798384 167.70835684 -190.68609797 166.39031086 -191.45387268 165.07206726 C-194.24782098 160.2780191 -197.06475911 155.4979462 -199.890625 150.72265625 C-201.06729258 148.73043409 -202.24359563 146.73799719 -203.41976929 144.7454834 C-204.18007184 143.45939544 -204.94180615 142.17415279 -205.70498657 140.88977051 C-206.76690743 139.10198965 -207.82347001 137.31114566 -208.87890625 135.51953125 C-209.4829126 134.49964111 -210.08691895 133.47975098 -210.70922852 132.42895508 C-212 130 -212 130 -212 128 C-210.87972412 127.47829224 -210.87972412 127.47829224 -209.73681641 126.94604492 C-206.36208286 125.36852386 -202.99354045 123.77819966 -199.625 122.1875 C-197.8615625 121.36668945 -197.8615625 121.36668945 -196.0625 120.52929688 C-194.94101563 119.99755859 -193.81953125 119.46582031 -192.6640625 118.91796875 C-191.62717285 118.43094482 -190.5902832 117.9439209 -189.52197266 117.44213867 C-186.74692556 116.10457682 -186.74692556 116.10457682 -185 113 C-185.37311248 103.21297267 -187.69875737 93.53123665 -189.5625 83.9375 C-190.05616196 81.37598297 -190.54859408 78.81423394 -191.04026794 76.25233459 C-191.34488511 74.66729274 -191.65088337 73.08251557 -191.95838928 71.49803162 C-193 66.10870842 -193 66.10870842 -193 65 C-191.83017578 64.91435791 -190.66035156 64.82871582 -189.45507812 64.74047852 C-185.08643546 64.42010798 -180.71799537 64.09704343 -176.34960938 63.77319336 C-174.46424635 63.63379409 -172.57883022 63.49511101 -170.69335938 63.35717773 C-167.97251098 63.15800358 -165.25186833 62.95619589 -162.53125 62.75390625 C-161.69758911 62.6934462 -160.86392822 62.63298615 -160.00500488 62.57069397 C-158.42140844 62.45198403 -156.83837025 62.32549995 -155.25610352 62.19021606 C-153.750372 62.06326519 -152.24276408 61.95691033 -150.73413086 61.87106323 C-147.59412325 61.62455922 -145.50348023 61.43917198 -143.08666992 59.33105469 C-141.74877002 56.46107754 -141.15812212 53.82491595 -140.61328125 50.703125 C-140.39736328 49.49785156 -140.18144531 48.29257813 -139.95898438 47.05078125 C-139.74564453 45.79652344 -139.53230469 44.54226562 -139.3125 43.25 C-138.97508789 41.34541016 -138.97508789 41.34541016 -138.63085938 39.40234375 C-138.07736857 36.26982131 -137.53416241 33.13586619 -137 30 C-116.8739762 34.92220795 -96.88558619 40.28664351 -77.09375 46.421875 C-76.25392578 46.68202393 -75.41410156 46.94217285 -74.54882812 47.21020508 C-72.78138969 47.75787398 -71.01449925 48.30731327 -69.24804688 48.8581543 C-68.36181641 49.13054932 -67.47558594 49.40294434 -66.5625 49.68359375 C-65.76972656 49.92907959 -64.97695312 50.17456543 -64.16015625 50.42749023 C-61.3466945 51.17314663 -58.88729526 51.36091191 -56 51 C-53.58878141 49.04366025 -53.58878141 49.04366025 -53.875 45.375 C-53.91625 44.26125 -53.9575 43.1475 -54 42 C-60.96640656 39.86927695 -67.96354423 37.88619822 -75 36 C-74.42655667 32.55330375 -73.56138422 29.77811835 -71.9375 26.6875 C-71.57527344 25.99011719 -71.21304688 25.29273437 -70.83984375 24.57421875 C-70.56269531 24.05472656 -70.28554687 23.53523438 -70 23 C-63.0297511 25.04868802 -56.58222144 28.40040267 -50.0546875 31.54296875 C-49.10851562 31.98511719 -48.16234375 32.42726562 -47.1875 32.8828125 C-46.33542969 33.28902832 -45.48335937 33.69524414 -44.60546875 34.11376953 C-41.5272247 35.16081094 -39.23194177 35.32924998 -36 35 C-34.09501608 34.03232452 -34.09501608 34.03232452 -32.53125 32.40234375 C-31.85449219 31.76280762 -31.17773438 31.12327148 -30.48046875 30.46435547 C-29.66191406 29.65111816 -28.84335938 28.83788086 -28 28 C-26.9127904 26.93242389 -25.82554826 25.86488092 -24.73828125 24.79736328 C-20.96781415 21.07653801 -17.23318407 17.32066623 -13.5 13.5625 C-12.18773415 12.24520941 -10.87523605 10.92815014 -9.5625 9.61132812 C-6.37231494 6.4102139 -3.18529349 3.20598135 0 0 Z " fill="#F3D2A1" transform="translate(255,101)"/>
<path d="M0 0 C4.4115635 1.57146403 8.6864777 3.39760584 12.95654297 5.32275391 C14.00455078 5.78552734 15.05255859 6.24830078 16.13232422 6.72509766 C41.53360044 18.61856162 60.477154 41.18893385 71.95654297 66.32275391 C72.47216797 65.64212891 72.98779297 64.96150391 73.51904297 64.26025391 C75.95654297 62.32275391 75.95654297 62.32275391 79.20581055 62.52709961 C82.96124719 63.32375183 85.94833386 64.46556887 89.40576172 66.11572266 C90.58332031 66.66292969 91.76087891 67.21013672 92.97412109 67.77392578 C94.82005515 68.64421176 96.66334549 69.51950604 98.50366211 70.40161133 C100.29797199 71.25734451 102.10176883 72.0930958 103.90576172 72.92822266 C105.5042395 73.68848755 105.5042395 73.68848755 107.13500977 74.46411133 C109.82874203 75.5963213 109.82874203 75.5963213 111.90965271 74.59141541 C114.1222548 73.2200458 115.7228733 71.75667336 117.52832031 69.8828125 C118.20937836 69.18223724 118.8904364 68.48166199 119.59213257 67.75985718 C120.31824738 67.00459747 121.04436218 66.24933777 121.79248047 65.47119141 C123.34657624 63.88207084 124.90128258 62.29354719 126.45654297 60.70556641 C128.90115702 58.19895127 131.34084912 55.68809369 133.77001953 53.16650391 C136.11823653 50.73370928 138.48486761 48.32013302 140.85498047 45.90869141 C141.57704681 45.14938324 142.29911316 44.39007507 143.0430603 43.60775757 C145.90620682 40.71583403 148.02510246 38.63072773 151.92041016 37.34277344 C156.96675047 38.9715938 160.01915566 42.6555211 163.63623047 46.41650391 C164.85537643 47.6483844 164.85537643 47.6483844 166.09915161 48.90515137 C168.69103094 51.53060806 171.26127378 54.17615434 173.83154297 56.82275391 C175.58536539 58.60666959 177.3405581 60.38923919 179.09716797 62.17041016 C183.39964693 66.53903162 187.68454588 70.92433132 191.95654297 75.32275391 C196.91634445 73.7382132 201.72269968 72.11627548 206.40185547 69.80712891 C207.33384766 69.36111328 208.26583984 68.91509766 209.22607422 68.45556641 C211.14220173 67.52764693 213.05364649 66.58999965 214.96044922 65.64306641 C220.41797931 63.05433507 224.0740235 61.35671292 229.95654297 63.32275391 C230.61654297 64.31275391 231.27654297 65.30275391 231.95654297 66.32275391 C232.51341797 65.22318359 233.07029297 64.12361328 233.64404297 62.99072266 C240.31532342 49.99144982 247.92348119 39.00132517 257.95654297 28.32275391 C258.47216797 27.73107422 258.98779297 27.13939453 259.51904297 26.52978516 C278.00999934 6.25714809 307.92731572 -3.79823342 334.51904297 -5.61474609 C335.37651123 -5.68467773 336.23397949 -5.75460938 337.11743164 -5.82666016 C341.08393215 -6.0322637 343.30242005 -6.05410703 346.80419922 -4.03662109 C364.88538898 15.78377567 371.13353635 46.96774142 370.10449219 72.86279297 C369.32118012 85.8869718 366.18469756 97.89634076 361.75242615 110.11546326 C359.35846288 116.75484562 357.40163853 123.24110383 356.13232422 130.18994141 C355.98119675 130.99134552 355.83006927 131.79274963 355.67436218 132.61843872 C355.35976986 134.29341014 355.04817536 135.96894724 354.73950195 137.64501953 C354.26615151 140.21344311 353.78300582 142.77988142 353.29833984 145.34619141 C352.99243292 146.98150185 352.68707445 148.61691501 352.38232422 150.25244141 C352.23861893 151.01805389 352.09491364 151.78366638 351.94685364 152.57247925 C351.4035899 155.53523656 350.95654297 158.30342792 350.95654297 161.32275391 C351.72844971 161.66532227 352.50035645 162.00789062 353.2956543 162.36083984 C356.16784675 163.64179054 359.03537589 164.9325259 361.90014648 166.22998047 C363.1389366 166.78860927 364.37948875 167.34334813 365.62182617 167.89404297 C367.41120666 168.68804921 369.19374137 169.49742645 370.97607422 170.30712891 C372.58639526 171.02980957 372.58639526 171.02980957 374.22924805 171.76708984 C377.09396257 173.40113881 378.51515503 174.35991929 379.95654297 177.32275391 C379.77074215 181.99590205 378.13247325 185.26119494 375.78857422 189.24462891 C375.14210938 190.35322266 374.49564453 191.46181641 373.82958984 192.60400391 C373.14292124 193.76036102 372.45607142 194.91661055 371.76904297 196.07275391 C371.10839844 197.20197266 370.44775391 198.33119141 369.76708984 199.49462891 C365.87636965 206.13151389 361.92825488 212.73406598 357.95654297 219.32275391 C363.90220938 224.83888549 369.88805879 230.15863713 376.26513672 235.17431641 C379.52173175 237.77392057 382.7121767 240.44505015 385.89404297 243.13525391 C386.4501123 243.60374756 387.00618164 244.07224121 387.57910156 244.55493164 C389.04763952 245.79987895 390.50274718 247.06062264 391.95654297 248.32275391 C392.59720703 248.78037109 393.23787109 249.23798828 393.89794922 249.70947266 C394.95654297 251.32275391 394.95654297 251.32275391 394.80224609 254.60742188 C393.82623901 258.89520359 392.6184353 260.36508393 389.48388672 263.38134766 C388.58476562 264.26113281 387.68564453 265.14091797 386.75927734 266.04736328 C385.81375 266.94261719 384.86822266 267.83787109 383.89404297 268.76025391 C382.93368787 269.69048149 381.97468804 270.62211042 381.01708984 271.55517578 C378.67652924 273.82516672 376.32313518 276.07996732 373.95654297 278.32275391 C375.42305021 282.93441694 377.28210926 286.85269791 379.83154297 290.94775391 C380.63105665 292.26023288 381.43053374 293.57273415 382.22998047 294.88525391 C383.66359423 297.22088079 385.09949835 299.55508956 386.53564453 301.88916016 C388.18233774 304.57150334 389.8196068 307.25944824 391.45654297 309.94775391 C391.98489746 310.80062988 392.51325195 311.65350586 393.05761719 312.53222656 C393.5502002 313.34224121 394.0427832 314.15225586 394.55029297 314.98681641 C394.99050781 315.70305176 395.43072266 316.41928711 395.88427734 317.15722656 C397.12452929 319.66201589 397.77792335 321.52240722 397.95654297 324.32275391 C396.60172818 328.28691223 394.52971519 329.74852362 390.91577148 331.52685547 C389.22933378 332.2717574 387.5353137 332.99964804 385.83544922 333.71337891 C384.93914291 334.1034613 384.04283661 334.4935437 383.11936951 334.89544678 C380.25864092 336.1358038 377.38905326 337.35405159 374.51904297 338.57275391 C372.59072292 339.4073395 370.66298108 340.24326241 368.73583984 341.08056641 C365.20273799 342.60683045 361.66948866 344.13255168 358.12670898 345.63623047 C357.41627945 345.9386969 356.70584991 346.24116333 355.97389221 346.55279541 C353.98629869 347.31139709 352.02947602 347.85248828 349.95654297 348.32275391 C350.25173828 349.60794922 350.54693359 350.89314453 350.85107422 352.21728516 C351.93962441 357.12584906 352.83631309 362.04848464 353.64404297 367.01025391 C353.78648437 367.82558594 353.92892578 368.64091797 354.07568359 369.48095703 C354.80621818 373.97683404 355.30377048 377.87074828 353.95654297 382.32275391 C350.42152991 384.67942928 347.64103999 384.80483075 343.53857422 385.06884766 C342.78559052 385.124086 342.03260681 385.17932434 341.25680542 385.23623657 C339.62047713 385.35526079 337.98386097 385.47037675 336.34701538 385.58206177 C333.74097415 385.76219405 331.1365663 385.95840978 328.53198242 386.15844727 C320.28637229 386.78277602 312.04532734 387.34075263 303.78405762 387.7102356 C278.56595969 388.49246652 278.56595969 388.49246652 256.1484375 398.94677734 C229.2309373 415.84441948 191.18793404 421.53855959 159.95654297 422.32275391 C158.75513672 422.36271484 157.55373047 422.40267578 156.31591797 422.44384766 C123.21128388 423.02283817 90.02176131 417.04301698 59.39404297 404.44775391 C58.48025879 404.07376465 57.56647461 403.69977539 56.625 403.31445312 C52.42687416 401.5163271 48.61835524 399.80490112 44.90966797 397.10302734 C31.55328048 387.55919144 15.24943018 388.22867132 -0.54498291 387.44525146 C-4.50449474 387.24089679 -8.46127512 386.99334 -12.41845703 386.74853516 C-17.5600273 386.43280018 -22.70178619 386.13202042 -27.84580231 385.85897923 C-46.09917202 384.87797134 -46.09917202 384.87797134 -49.70751953 382.75634766 C-51.65214314 379.21394851 -51.05698411 376.21259286 -50.41845703 372.38525391 C-50.31090088 371.63687256 -50.20334473 370.88849121 -50.0925293 370.11743164 C-49.86976801 368.58804278 -49.63709694 367.06006448 -49.39453125 365.53369141 C-49.06962307 363.48753806 -48.77586405 361.43650411 -48.48486328 359.38525391 C-47.23536534 350.70657052 -47.23536534 350.70657052 -46.04345703 348.32275391 C-46.84759033 348.07058105 -47.65172363 347.8184082 -48.48022461 347.55859375 C-52.76020315 346.07416406 -56.89414368 344.33611846 -61.05517578 342.54931641 C-61.90521683 342.18430023 -62.75525787 341.81928406 -63.63105774 341.44320679 C-65.41934724 340.6731799 -67.20694855 339.90155304 -68.99389648 339.12841797 C-70.82183647 338.33991402 -72.65193563 337.55639721 -74.48413086 336.77783203 C-77.1376837 335.65013744 -79.78445322 334.50774107 -82.43017578 333.36181641 C-83.6583326 332.84441391 -83.6583326 332.84441391 -84.91130066 332.31655884 C-92.10174342 329.16542184 -92.10174342 329.16542184 -94.04345703 325.32275391 C-94.18225609 319.15082246 -90.21850011 314.08277373 -87.10595703 309.01025391 C-86.5270874 308.04490723 -85.94821777 307.07956055 -85.35180664 306.08496094 C-82.56821459 301.4462782 -79.74394858 296.83464728 -76.88720703 292.24072266 C-76.41532959 291.46962158 -75.94345215 290.69852051 -75.45727539 289.90405273 C-74.57377036 288.4615532 -73.67661981 287.02730028 -72.7644043 285.6027832 C-71.41857202 283.48095759 -71.41857202 283.48095759 -70.04345703 280.32275391 C-71.21047385 276.80851186 -73.48744679 274.70698998 -76.14111328 272.20556641 C-76.94226563 271.43341797 -77.74341797 270.66126953 -78.56884766 269.86572266 C-80.25840998 268.25550083 -81.95373176 266.65130041 -83.65478516 265.05322266 C-84.45464844 264.27849609 -85.25451172 263.50376953 -86.07861328 262.70556641 C-86.81474854 262.00834473 -87.55088379 261.31112305 -88.30932617 260.59277344 C-90.43425331 257.81119206 -90.81661818 255.7870132 -91.04345703 252.32275391 C-87.38851987 245.27199826 -79.13224513 240.13314235 -73.04345703 235.32275391 C-71.14422295 233.78527869 -69.24832664 232.24367027 -67.35595703 230.69775391 C-66.52708984 230.02486328 -65.69822266 229.35197266 -64.84423828 228.65869141 C-61.18829425 225.60952191 -57.61509941 222.46990467 -54.04345703 219.32275391 C-56.05111786 215.83945269 -58.05919769 212.35639336 -60.06762695 208.87353516 C-61.07735777 207.12235376 -62.0867791 205.37099392 -63.09619141 203.61962891 C-64.07749023 201.91806641 -64.07749023 201.91806641 -65.07861328 200.18212891 C-65.73104004 199.04195312 -66.3834668 197.90177734 -67.05566406 196.72705078 C-68.37864025 194.46132002 -69.7392521 192.21714251 -71.13671875 189.99658203 C-72.10955811 188.43327148 -72.10955811 188.43327148 -73.10205078 186.83837891 C-73.69171631 185.91831055 -74.28138184 184.99824219 -74.88891602 184.05029297 C-76.35448682 180.5879633 -76.28324618 178.86014788 -75.04345703 175.32275391 C-72.82592773 173.61645508 -72.82592773 173.61645508 -70.04345703 172.32275391 C-68.71737427 171.65433472 -68.71737427 171.65433472 -67.36450195 170.97241211 C-65.95841675 170.30471802 -65.95841675 170.30471802 -64.52392578 169.62353516 C-63.50234375 169.13691406 -62.48076172 168.65029297 -61.42822266 168.14892578 C-60.373125 167.64941406 -59.31802734 167.14990234 -58.23095703 166.63525391 C-57.15652344 166.12414062 -56.08208984 165.61302734 -54.97509766 165.08642578 C-52.33227665 163.82961757 -49.68837502 162.57514148 -47.04345703 161.32275391 C-48.38019871 152.35815822 -49.81696605 143.41359684 -51.42822266 134.49414062 C-51.67087443 133.13457701 -51.9072514 131.7738779 -52.13720703 130.41210938 C-53.68077112 121.29324143 -56.06652048 113.16719646 -59.67480469 104.65332031 C-61.32514926 100.63726597 -62.46169022 96.68598523 -63.35595703 92.44775391 C-63.51128906 91.78001953 -63.66662109 91.11228516 -63.82666016 90.42431641 C-70.38534373 61.14950559 -64.27097753 29.95439874 -49.04345703 4.32275391 C-38.25404955 -11.68188577 -16.49217064 -5.46586396 0 0 Z M149.4387207 54.60679626 C148.84518799 55.20778641 148.25165527 55.80877655 147.64013672 56.42797852 C146.9660376 57.10545639 146.29193848 57.78293427 145.59741211 58.48094177 C144.87030029 59.22151321 144.14318848 59.96208466 143.39404297 60.72509766 C142.64695068 61.47739151 141.8998584 62.22968536 141.13012695 63.004776 C138.73417294 65.41860583 136.3449747 67.83898243 133.95654297 70.26025391 C131.56727461 72.67709812 129.17659151 75.09249792 126.78295898 77.50502014 C125.29111315 79.00916329 123.80194792 80.51597057 122.31567383 82.02561951 C121.64157471 82.70624954 120.96747559 83.38687958 120.27294922 84.08813477 C119.38265015 84.99081337 119.38265015 84.99081337 118.47436523 85.91172791 C116.32222556 87.91243979 115.17792397 88.30426767 112.21704102 88.55151367 C108.48771859 88.28986072 106.1375999 87.30399169 102.78857422 85.66259766 C101.64839844 85.11667969 100.50822266 84.57076172 99.33349609 84.00830078 C97.5690918 83.14301758 97.5690918 83.14301758 95.76904297 82.26025391 C93.42653668 81.11194169 91.07876803 79.97773592 88.72607422 78.85009766 C87.69071533 78.34212646 86.65535645 77.83415527 85.58862305 77.31079102 C82.90764024 75.98935544 82.90764024 75.98935544 79.95654297 77.32275391 C78.71307469 79.30849592 78.71307469 79.30849592 77.76904297 81.69775391 C77.25277344 82.88498047 77.25277344 82.88498047 76.72607422 84.09619141 C75.79321551 86.40269364 75.79321551 86.40269364 75.95654297 89.32275391 C77.22111328 89.67208984 78.48568359 90.02142578 79.78857422 90.38134766 C81.44874182 90.84094208 83.10889745 91.30057975 84.76904297 91.76025391 C85.60242188 91.99035156 86.43580078 92.22044922 87.29443359 92.45751953 C88.096875 92.67988281 88.89931641 92.90224609 89.72607422 93.13134766 C90.46446533 93.3355835 91.20285645 93.53981934 91.96362305 93.75024414 C93.64069299 94.2320191 95.30118693 94.77096856 96.95654297 95.32275391 C97.08154297 98.69775391 97.08154297 98.69775391 96.95654297 102.32275391 C95.96654297 103.31275391 95.96654297 103.31275391 94.95654297 104.32275391 C88.0885466 104.01210707 82.02708369 102.3061769 75.51904297 100.19775391 C65.92642509 97.18197003 56.28335783 94.4702283 46.56420898 91.89428711 C38.43629938 89.73570342 30.34664417 87.46477254 22.27636719 85.09985352 C21.4695752 84.86532471 20.6627832 84.6307959 19.83154297 84.38916016 C19.12771484 84.18234619 18.42388672 83.97553223 17.69873047 83.76245117 C15.9328136 83.24118424 15.9328136 83.24118424 13.95654297 83.32275391 C13.82078857 84.1197168 13.68503418 84.91667969 13.54516602 85.73779297 C12.92295144 89.3515352 12.28370383 92.9620608 11.64404297 96.57275391 C11.43070312 97.82701172 11.21736328 99.08126953 10.99755859 100.37353516 C10.78164062 101.57880859 10.56572266 102.78408203 10.34326172 104.02587891 C10.14949951 105.13608398 9.9557373 106.24628906 9.75610352 107.39013672 C8.92516314 110.4378484 8.20980603 112.11925976 5.95654297 114.32275391 C3.90136719 114.92871094 3.90136719 114.92871094 1.51123047 115.08056641 C0.61025635 115.14775879 -0.29071777 115.21495117 -1.21899414 115.28417969 C-2.19231689 115.33815918 -3.16563965 115.39213867 -4.16845703 115.44775391 C-6.23486333 115.59358661 -8.30126957 115.73941997 -10.36767578 115.88525391 C-11.45097168 115.95486328 -12.53426758 116.02447266 -13.65039062 116.09619141 C-19.43234041 116.4822649 -25.20567823 116.97376954 -30.98095703 117.44775391 C-34.6682795 117.74168264 -38.3558361 118.03259575 -42.04345703 118.32275391 C-41.39023364 122.19712455 -40.73285165 126.07076705 -40.07202148 129.94384766 C-39.74076785 131.89011094 -39.41257342 133.83689413 -39.08447266 135.78369141 C-37.79978373 143.30008035 -36.33109848 150.71141102 -34.50756836 158.1171875 C-33.97127461 161.82131006 -34.16464841 164.68683408 -35.04345703 168.32275391 C-37.61543097 170.11168404 -39.65321627 171.24934258 -42.48095703 172.44775391 C-43.2021875 172.77904297 -43.92341797 173.11033203 -44.66650391 173.45166016 C-46.11171744 174.11550265 -47.56141968 174.76966746 -49.015625 175.41357422 C-51.73496626 176.63279248 -54.38830024 177.97034311 -57.04345703 179.32275391 C-58.37679036 179.98942057 -59.7101237 180.65608724 -61.04345703 181.32275391 C-59.79675388 185.42130923 -58.29504675 188.88406831 -56.05908203 192.53369141 C-55.46039307 193.51950195 -54.8617041 194.5053125 -54.24487305 195.52099609 C-53.60090576 196.56932617 -52.95693848 197.61765625 -52.29345703 198.69775391 C-50.93144344 200.9391298 -49.57080095 203.18133935 -48.21142578 205.42431641 C-47.69170448 206.28029419 -47.69170448 206.28029419 -47.16148376 207.15356445 C-42.96278977 214.08104655 -38.90581387 221.09080216 -34.85449219 228.10522461 C-32.43817755 232.27565381 -30.0175986 236.42506265 -27.39111328 240.46728516 C-26.81671509 241.35625488 -26.81671509 241.35625488 -26.23071289 242.26318359 C-25.26904718 243.73165222 -24.28633821 245.18628689 -23.30126953 246.63916016 C-21.71072945 250.03264164 -21.74719074 252.61942527 -22.04345703 256.32275391 C-23.04345703 257.32275391 -23.04345703 257.32275391 -25.73095703 257.94775391 C-29.04345703 257.32275391 -29.04345703 257.32275391 -30.38720703 255.94775391 C-32.05490474 253.46559917 -33.54278365 250.91023075 -35.04345703 248.32275391 C-35.98112305 246.78531029 -36.92288442 245.2503604 -37.86767578 243.71728516 C-40.61144243 239.26357102 -43.33287775 234.79672926 -46.04345703 230.32275391 C-49.93078145 232.1490767 -52.94844639 234.64459 -56.16845703 237.44775391 C-57.32381791 238.43967588 -58.48007793 239.43055147 -59.63720703 240.42041016 C-60.20955078 240.91041504 -60.78189453 241.40041992 -61.37158203 241.90527344 C-66.09987263 245.91410159 -70.88362683 249.8828671 -76.04345703 253.32275391 C-74.57014254 256.79907569 -72.64362658 258.86323632 -69.87548828 261.40478516 C-69.0653125 262.17242187 -68.25513672 262.94005859 -67.42041016 263.73095703 C-65.71034255 265.33422682 -63.98889623 266.9254453 -62.25634766 268.50439453 C-61.45003906 269.27589844 -60.64373047 270.04740234 -59.81298828 270.84228516 C-59.06637939 271.53427002 -58.31977051 272.22625488 -57.55053711 272.93920898 C-56.04345703 275.32275391 -56.04345703 275.32275391 -56.09619141 278.71289062 C-57.088139 282.49302906 -58.40320305 285.22790109 -60.43017578 288.56103516 C-60.76966751 289.126707 -61.10915924 289.69237885 -61.4589386 290.27519226 C-62.53874172 292.06872821 -63.63434464 293.85195731 -64.73095703 295.63525391 C-65.44753302 296.81884479 -66.16303647 298.0030857 -66.87744141 299.18798828 C-69.53226887 303.5828035 -72.20658276 307.96549999 -74.90136719 312.3359375 C-75.44970215 313.2326416 -75.99803711 314.1293457 -76.56298828 315.05322266 C-77.04485596 315.83463623 -77.52672363 316.6160498 -78.02319336 317.42114258 C-79.20104936 319.25681076 -79.20104936 319.25681076 -79.04345703 321.32275391 C-78.23872704 321.67647316 -78.23872704 321.67647316 -77.41773987 322.03733826 C-71.85286049 324.48392594 -66.28941564 326.93375289 -60.72680664 329.38549805 C-58.64839998 330.30105057 -56.56962436 331.21576601 -54.49047852 332.12963867 C-51.50847394 333.44052703 -48.527793 334.7543834 -45.54736328 336.06884766 C-44.61195206 336.47928818 -43.67654083 336.8897287 -42.71278381 337.31260681 C-41.42155861 337.88308495 -41.42155861 337.88308495 -40.10424805 338.46508789 C-39.34257828 338.80040024 -38.58090851 339.13571259 -37.79615784 339.48118591 C-36.04345703 340.32275391 -36.04345703 340.32275391 -35.04345703 341.32275391 C-35.08261368 343.79865919 -35.18851143 346.2296784 -35.35595703 348.69775391 C-35.42544556 349.78117065 -35.42544556 349.78117065 -35.49633789 350.88647461 C-35.86081299 356.00561548 -36.55767493 360.96894635 -37.64111328 365.99072266 C-38.07020715 368.47780072 -38.07036419 370.80366901 -38.04345703 373.32275391 C-37.47462296 373.35811752 -36.90578888 373.39348114 -36.31971741 373.42991638 C-30.36540445 373.80051831 -24.41128876 374.17417693 -18.45727539 374.54956055 C-16.23922498 374.68900671 -14.02112645 374.82768997 -11.80297852 374.96557617 C-8.60305849 375.16462801 -5.40332514 375.36648031 -2.20361328 375.56884766 C-1.22199722 375.62930771 -0.24038116 375.68976776 0.77098083 375.75205994 C5.87843393 376.077893 10.94939628 376.51384332 16.03242493 377.10877991 C18.34185469 377.36560299 20.64286574 377.50976075 22.96435547 377.60400391 C23.80611328 377.64138672 24.64787109 377.67876953 25.51513672 377.71728516 C27.23387358 377.78791818 28.95262375 377.85822778 30.67138672 377.92822266 C35.49879656 378.14326856 40.18598285 378.54705307 44.95654297 379.32275391 C45.12283203 380.22380859 45.28912109 381.12486328 45.46044922 382.05322266 C47.57706216 386.67882325 50.36823152 387.65315009 54.89404297 389.63525391 C55.720896 390.01061279 56.54774902 390.38597168 57.3996582 390.77270508 C74.42391354 398.25355425 92.58901431 404.25380754 110.95654297 407.32275391 C111.81119141 407.46938477 112.66583984 407.61601562 113.54638672 407.76708984 C160.18239504 415.45706994 206.93535486 408.34402789 249.89404297 389.07275391 C250.94144653 388.61570068 250.94144653 388.61570068 252.01000977 388.14941406 C255.11603228 386.67912163 256.72946987 385.78363818 258.27294922 382.65087891 C258.49853516 381.88259766 258.72412109 381.11431641 258.95654297 380.32275391 C261.12665427 379.23769825 262.60316486 379.05866747 265.00732422 378.82275391 C265.84118652 378.74081787 266.67504883 378.65888184 267.53417969 378.57446289 C268.88793701 378.44986694 268.88793701 378.44986694 270.26904297 378.32275391 C271.66147217 378.19139038 271.66147217 378.19139038 273.08203125 378.05737305 C280.69272934 377.37032282 288.30232558 376.94489877 295.93823242 376.66455078 C299.46767036 376.52830857 302.8786847 376.33404158 306.37841797 375.82666016 C311.18880625 375.14921465 315.98043657 375.00047422 320.83154297 374.82275391 C327.58880357 374.57316973 334.2434306 374.14983141 340.95654297 373.32275391 C341.21579406 366.13573747 340.60245683 359.44705542 339.40185547 352.36181641 C338.85259053 348.6133241 338.80834369 345.10183546 338.95654297 341.32275391 C348.37228043 336.45231129 357.9833988 332.15820308 367.70654297 327.94775391 C369.19365188 327.3009167 370.68063188 326.65378304 372.16748047 326.00634766 C375.76236231 324.44173879 379.35894848 322.88111469 382.95654297 321.32275391 C381.52581294 317.48304317 379.74591764 314.04109643 377.69091797 310.49853516 C376.72605469 308.83081055 376.72605469 308.83081055 375.74169922 307.12939453 C375.06332579 305.96467401 374.38494031 304.7999605 373.70654297 303.63525391 C373.05041016 302.50152344 372.39427734 301.36779297 371.71826172 300.19970703 C371.06986328 299.08144531 370.42146484 297.96318359 369.75341797 296.81103516 C369.11726563 295.71355957 368.48111328 294.61608398 367.82568359 293.48535156 C366.62400692 291.4521071 365.39546319 289.43437759 364.13427734 287.4375 C363.58578125 286.56818848 363.03728516 285.69887695 362.47216797 284.80322266 C361.98522461 284.05322998 361.49828125 283.3032373 360.99658203 282.53051758 C359.71235123 279.80439102 359.44720103 278.30257751 359.95654297 275.32275391 C361.79248047 272.95092773 361.79248047 272.95092773 364.33154297 270.52978516 C365.23388672 269.65257812 366.13623047 268.77537109 367.06591797 267.87158203 C368.01982422 266.96859375 368.97373047 266.06560547 369.95654297 265.13525391 C371.83822481 263.33597457 373.71074252 261.52795273 375.58154297 259.71728516 C376.41943359 258.92169189 377.25732422 258.12609863 378.12060547 257.30639648 C380.18296127 255.52859804 380.18296127 255.52859804 379.95654297 253.32275391 C378.44867136 251.94784092 376.87114536 250.64910929 375.26904297 249.38525391 C374.27388672 248.58990234 373.27873047 247.79455078 372.25341797 246.97509766 C371.71910156 246.54825684 371.18478516 246.12141602 370.63427734 245.68164062 C367.1594622 242.86720217 363.7729809 239.94663037 360.3737793 237.04174805 C358.90815588 235.79406459 357.43270486 234.5579511 355.95654297 233.32275391 C355.23337891 232.70142578 354.51021484 232.08009766 353.76513672 231.43994141 C353.16830078 231.07126953 352.57146484 230.70259766 351.95654297 230.32275391 C347.98685887 231.64598194 347.51072915 233.27829237 345.41748047 236.85400391 C344.75490234 237.97419922 344.09232422 239.09439453 343.40966797 240.24853516 C342.71662366 241.439746 342.02391936 242.63115472 341.33154297 243.82275391 C339.96701704 246.14724465 338.59823903 248.46920568 337.22998047 250.79150391 C336.62589355 251.82726562 336.02180664 252.86302734 335.39941406 253.93017578 C333.95654297 256.32275391 333.95654297 256.32275391 332.95654297 257.32275391 C329.95654297 257.44775391 329.95654297 257.44775391 326.95654297 257.32275391 C325.95654297 256.32275391 325.95654297 256.32275391 325.73608398 253.57836914 C325.97562768 250.04092161 326.71435303 248.27086806 328.48388672 245.23291016 C329.02368164 244.29237793 329.56347656 243.3518457 330.11962891 242.3828125 C330.70518555 241.39361816 331.29074219 240.40442383 331.89404297 239.38525391 C332.4937793 238.34965332 333.09351563 237.31405273 333.71142578 236.24707031 C335.44501754 233.26330115 337.19605019 230.29071338 338.95654297 227.32275391 C339.3608252 226.64035645 339.76510742 225.95795898 340.18164062 225.25488281 C341.51248607 223.01689728 342.85159975 220.78397709 344.20019531 218.55664062 C348.12478256 212.07477601 351.98382987 205.55417991 355.8302002 199.0256958 C356.6206423 197.68566147 357.41270828 196.34658365 358.2064209 195.00848389 C359.32651983 193.11957321 360.44100164 191.22745652 361.55419922 189.33447266 C362.20912354 188.22547607 362.86404785 187.11647949 363.53881836 185.97387695 C365.11373297 183.52987647 365.11373297 183.52987647 364.95654297 181.32275391 C364.20969238 180.96971191 363.4628418 180.61666992 362.69335938 180.25292969 C359.32064853 178.65560627 355.95107608 177.05176913 352.58154297 175.44775391 C351.40591797 174.89216797 350.23029297 174.33658203 349.01904297 173.76416016 C347.89755859 173.22919922 346.77607422 172.69423828 345.62060547 172.14306641 C344.58371582 171.65080566 343.54682617 171.15854492 342.47851562 170.65136719 C339.95654297 169.32275391 339.95654297 169.32275391 337.95654297 167.32275391 C337.43489029 157.44888195 340.63933142 146.79085042 342.51904297 137.13525391 C342.85221413 135.40292598 343.18490029 133.6705047 343.51708984 131.93798828 C344.32465469 127.73181329 345.13876738 123.5269551 345.95654297 119.32275391 C342.8850369 117.27508319 342.03679115 117.04827622 338.53271484 116.88378906 C337.64169067 116.83678864 336.7506665 116.78978821 335.8326416 116.74136353 C334.87321655 116.69861298 333.9137915 116.65586243 332.92529297 116.61181641 C330.89791873 116.50039063 328.8705758 116.388394 326.84326172 116.27587891 C323.64384738 116.10855067 320.44437868 115.94718073 317.24414062 115.79638672 C314.15755742 115.64730394 311.07296838 115.47485789 307.98779297 115.29931641 C307.02836792 115.26061432 306.06894287 115.22191223 305.08044434 115.18203735 C304.18942017 115.1287326 303.298396 115.07542786 302.38037109 115.02050781 C301.59666138 114.98212799 300.81295166 114.94374817 300.00549316 114.90420532 C297.1915317 114.10565889 296.42730406 112.79389476 294.95654297 110.32275391 C294.15698242 107.39013672 294.15698242 107.39013672 293.56982422 104.02587891 C293.35390625 102.82060547 293.13798828 101.61533203 292.91552734 100.37353516 C292.7021875 99.11927734 292.48884766 97.86501953 292.26904297 96.57275391 C292.04410156 95.30302734 291.81916016 94.03330078 291.58740234 92.72509766 C291.03391154 89.59257522 290.49070538 86.4586201 289.95654297 83.32275391 C282.87478187 84.58622941 276.11935215 86.3944404 269.26904297 88.57275391 C260.37437509 91.34469506 251.44313478 93.81969382 242.41333008 96.109375 C234.98063799 98.00994284 227.64453908 100.15998776 220.33666992 102.49487305 C212.77667604 104.85613098 212.77667604 104.85613098 208.95654297 104.32275391 C208.29654297 103.66275391 207.63654297 103.00275391 206.95654297 102.32275391 C207.28654297 100.01275391 207.61654297 97.70275391 207.95654297 95.32275391 C214.55654297 93.34275391 221.15654297 91.36275391 227.95654297 89.32275391 C227.1865307 85.47269254 226.63042877 83.31498817 224.89404297 80.01025391 C224.53181641 79.31287109 224.16958984 78.61548828 223.79638672 77.89697266 C223.38066406 77.11773437 223.38066406 77.11773437 222.95654297 76.32275391 C219.00604202 77.49102171 215.32189172 79.02676412 211.58544922 80.74072266 C210.59867187 81.18996094 209.61189453 81.63919922 208.59521484 82.10205078 C206.54319754 83.0414187 204.49626838 83.99198139 202.45458984 84.95361328 C201.46652344 85.39898437 200.47845703 85.84435547 199.46044922 86.30322266 C198.57172119 86.71467529 197.68299316 87.12612793 196.76733398 87.55004883 C192.91476442 88.60914573 190.81195613 88.47876049 186.95654297 87.32275391 C183.96434332 85.10307251 181.46656771 82.48439159 178.90576172 79.78759766 C177.7957354 78.65772179 177.7957354 78.65772179 176.6632843 77.50502014 C174.30888209 75.10390465 171.97579073 72.68335791 169.64404297 70.26025391 C167.29104303 67.8372085 164.93383261 65.418472 162.57124329 63.004776 C161.10357601 61.50305384 159.64211989 59.99523227 158.18742371 58.48094177 C157.52946304 57.8034639 156.87150238 57.12598602 156.19360352 56.42797852 C155.61515182 55.82698837 155.03670013 55.22599823 154.4407196 54.60679626 C152.36582501 52.8116915 151.52775652 52.83952052 149.4387207 54.60679626 Z " fill="#35383B" transform="translate(104.04345703125,47.67724609375)"/>
<path d="M0 0 C2.98889217 1.33746159 5.0177606 2.79121553 7.28051758 5.14868164 C7.89828568 5.78596695 8.51605377 6.42325226 9.15254211 7.07984924 C10.13857674 8.10960121 10.13857674 8.10960121 11.14453125 9.16015625 C12.55734662 10.60800378 13.97077732 12.05525108 15.38476562 13.50195312 C17.60328649 15.78239306 19.81685068 18.06703354 22.01977539 20.36254883 C24.15198248 22.57955825 26.30275338 24.77711572 28.45703125 26.97265625 C29.10831497 27.66118179 29.75959869 28.34970734 30.43061829 29.05909729 C33.45643685 32.11824376 35.39150887 33.81241627 39.56616211 35.09936523 C43.50894085 34.98527274 45.93290601 34.13607492 49.484375 32.4375 C51.25748047 31.61378906 51.25748047 31.61378906 53.06640625 30.7734375 C54.29489099 30.18358152 55.52275007 29.59242083 56.75 29 C59.17693076 27.84190788 61.60988584 26.69958366 64.046875 25.5625 C65.11776367 25.04816406 66.18865234 24.53382812 67.29199219 24.00390625 C70 23 70 23 73 24 C74.16796875 25.9609375 74.16796875 25.9609375 75.1875 28.375 C75.53167969 29.16648438 75.87585938 29.95796875 76.23046875 30.7734375 C77 33 77 33 77 36 C76.05898438 36.26554687 75.11796875 36.53109375 74.1484375 36.8046875 C72.90320313 37.15789062 71.65796875 37.51109375 70.375 37.875 C69.14523437 38.22304687 67.91546875 38.57109375 66.6484375 38.9296875 C63.40337981 39.88166374 60.19989678 40.90711218 57 42 C56.32326553 45.40320934 56.32326553 45.40320934 56 49 C56.66 49.66 57.32 50.32 58 51 C63.40970375 50.63357117 68.31303401 49.48878012 73.5234375 47.9609375 C74.56688324 47.65835274 74.56688324 47.65835274 75.63140869 47.34965515 C77.1146591 46.91902842 78.59714956 46.4857766 80.07891846 46.05007935 C83.98136832 44.90270577 87.88926191 43.77417128 91.796875 42.64453125 C92.96864792 42.30508736 92.96864792 42.30508736 94.16409302 41.95878601 C102.32452818 39.60232947 110.52374697 37.40038937 118.73974609 35.24560547 C123.95287051 33.86768329 129.06224855 32.37280308 134.13818359 30.54858398 C136 30 136 30 139 30 C139.13575439 30.79696289 139.27150879 31.59392578 139.41137695 32.41503906 C140.03359153 36.02878129 140.67283914 39.63930689 141.3125 43.25 C141.52583984 44.50425781 141.73917969 45.75851563 141.95898438 47.05078125 C142.17490234 48.25605469 142.39082031 49.46132812 142.61328125 50.703125 C142.80704346 51.81333008 143.00080566 52.92353516 143.20043945 54.06738281 C144.04235177 57.15533724 144.8393363 58.67188577 147 61 C149.07563317 61.67227498 149.07563317 61.67227498 151.42382812 61.69775391 C152.31485229 61.75105865 153.20587646 61.8043634 154.12390137 61.85928345 C155.08332642 61.89798553 156.04275146 61.93668762 157.03125 61.9765625 C158.51244324 62.06084 158.51244324 62.06084 160.02355957 62.14682007 C163.18170762 62.32415474 166.34039266 62.47612049 169.5 62.625 C172.65926351 62.7844278 175.81801651 62.94931205 178.97644043 63.12460327 C180.94246647 63.23265731 182.90905724 63.33096119 184.87609863 63.41860962 C185.7671228 63.46561005 186.65814697 63.51261047 187.57617188 63.56103516 C188.35988159 63.59782379 189.14359131 63.63461243 189.9510498 63.67251587 C192 64 192 64 195 66 C194.79318604 67.06323486 194.58637207 68.12646973 194.37329102 69.22192383 C193.598116 73.21485487 192.83014784 77.20914531 192.06420898 81.20385742 C191.73345254 82.92362997 191.40081358 84.64304169 191.06616211 86.36206055 C188.80533651 97.89645664 188.80533651 97.89645664 187.02734375 109.51171875 C186.920271 110.32471436 186.81319824 111.13770996 186.70288086 111.9753418 C186.81133378 114.14384545 186.81133378 114.14384545 188.65942383 115.61181641 C191.1979749 117.11741789 193.75250925 118.43868492 196.421875 119.69921875 C197.44667969 120.18583984 198.47148437 120.67246094 199.52734375 121.17382812 C200.59082031 121.67333984 201.65429688 122.17285156 202.75 122.6875 C203.82894531 123.19861328 204.90789062 123.70972656 206.01953125 124.23632812 C208.67782224 125.49489953 211.33800229 126.74929268 214 128 C212.75329685 132.09855533 211.25158972 135.5613144 209.015625 139.2109375 C208.41693604 140.19674805 207.81824707 141.18255859 207.20141602 142.19824219 C206.23546509 143.7707373 206.23546509 143.7707373 205.25 145.375 C203.88798641 147.61637589 202.52734392 149.85858545 201.16796875 152.1015625 C200.82148788 152.67221436 200.47500702 153.24286621 200.11802673 153.83081055 C196.52431011 159.76013229 193.03931513 165.75151781 189.5625 171.75 C184.82573697 179.90959264 180.02307757 188.01299467 175 196 C169.98071065 195.50496397 166.41976067 194.46578706 162.0625 191.9375 C161.10472656 191.38964844 160.14695312 190.84179688 159.16015625 190.27734375 C158.09087891 189.64505859 158.09087891 189.64505859 157 189 C161.17241888 181.23593849 165.52186066 173.59163858 170 166 C169.29786377 165.89115479 168.59572754 165.78230957 167.87231445 165.67016602 C164.64969809 164.91826785 162.01730585 163.72637977 159.04296875 162.27734375 C157.37524414 161.47006836 157.37524414 161.47006836 155.67382812 160.64648438 C154.52333984 160.08251953 153.37285156 159.51855469 152.1875 158.9375 C151.01767578 158.36966797 149.84785156 157.80183594 148.64257812 157.21679688 C145.75918993 155.81629404 142.87848849 154.41053866 140 153 C140.53810693 145.15017173 141.46021606 137.48820655 142.875 129.75 C143.05135986 128.76362549 143.22771973 127.77725098 143.40942383 126.76098633 C143.93384014 123.83957717 144.46632939 120.91973064 145 118 C145.29831103 116.34247202 145.59649799 114.6849217 145.89453125 113.02734375 C147.84841208 102.30317583 147.84841208 102.30317583 149 100 C148.41959961 99.98018066 147.83919922 99.96036133 147.24121094 99.93994141 C130.4619072 99.34838434 113.73990562 98.28237234 97 97 C95.35131689 93.23377037 94.43889438 89.6475451 93.7109375 85.60546875 C93.49179687 84.40341797 93.27265625 83.20136719 93.046875 81.96289062 C92.82515625 80.71701172 92.6034375 79.47113281 92.375 78.1875 C92.14554687 76.92228516 91.91609375 75.65707031 91.6796875 74.35351562 C91.11509472 71.236493 90.55537625 68.11867567 90 65 C84.23443118 65.91064603 78.82539603 67.47318679 73.2421875 69.16015625 C70 70 70 70 66 70 C66.15597656 70.73605469 66.31195313 71.47210938 66.47265625 72.23046875 C66.76462891 73.69419922 66.76462891 73.69419922 67.0625 75.1875 C67.25972656 76.15042969 67.45695312 77.11335938 67.66015625 78.10546875 C68.02430076 81.2069754 68.01399965 83.04835175 67 86 C64.6550293 87.60913086 64.6550293 87.60913086 61.57421875 88.96484375 C60.46755859 89.45404297 59.36089844 89.94324219 58.22070312 90.44726562 C57.05474609 90.93904297 55.88878906 91.43082031 54.6875 91.9375 C53.53314453 92.45634766 52.37878906 92.97519531 51.18945312 93.50976562 C42.59485784 97.22594292 42.59485784 97.22594292 40.06410217 96.26469421 C37.79412539 94.87385875 36.11692171 93.35718172 34.24121094 91.46826172 C33.52076599 90.74766571 32.80032104 90.0270697 32.05804443 89.28463745 C31.29123352 88.50750397 30.52442261 87.73037048 29.734375 86.9296875 C28.94097717 86.13345978 28.14757935 85.33723206 27.33013916 84.51687622 C24.79869297 81.97424052 22.27429197 79.42473652 19.75 76.875 C18.03431383 75.14928247 16.31817338 73.42401645 14.6015625 71.69921875 C10.39575752 67.47136968 6.19571493 63.23786131 2 59 C-1.18259851 60.40509099 -3.31348466 62.06921342 -5.75878906 64.53173828 C-6.47923401 65.25233429 -7.19967896 65.9729303 -7.94195557 66.71536255 C-8.70876648 67.49249603 -9.47557739 68.26962952 -10.265625 69.0703125 C-11.05902283 69.86654022 -11.85242065 70.66276794 -12.66986084 71.48312378 C-15.20130703 74.02575948 -17.72570803 76.57526348 -20.25 79.125 C-21.96568617 80.85071753 -23.68182662 82.57598355 -25.3984375 84.30078125 C-29.60424248 88.52863032 -33.80428507 92.76213869 -38 97 C-44.28339933 94.93907825 -50.42078036 92.73181769 -56.5 90.125 C-57.30953125 89.79886719 -58.1190625 89.47273438 -58.953125 89.13671875 C-64.70029436 86.65849304 -64.70029436 86.65849304 -66.08984375 83.60546875 C-65.98988913 80.70678478 -65.64473511 78.03017729 -65.0625 75.1875 C-64.77052734 73.72376953 -64.77052734 73.72376953 -64.47265625 72.23046875 C-64.23869141 71.12638672 -64.23869141 71.12638672 -64 70 C-64.55945313 69.90203125 -65.11890625 69.8040625 -65.6953125 69.703125 C-73.27696768 68.28918288 -80.6075605 66.1787856 -88 64 C-88.21934204 65.23302856 -88.21934204 65.23302856 -88.44311523 66.4909668 C-88.98875303 69.55679758 -89.5348672 72.62254303 -90.08129883 75.68823242 C-90.43281968 77.66123053 -90.78379633 79.63432558 -91.13476562 81.60742188 C-91.35712891 82.85458984 -91.57949219 84.10175781 -91.80859375 85.38671875 C-92.01282959 86.53358154 -92.21706543 87.68044434 -92.42749023 88.86206055 C-92.92360085 91.58125448 -93.44770214 94.29174423 -94 97 C-99.9404354 97.43180894 -105.88118621 97.85888224 -111.82226562 98.28173828 C-113.83960969 98.42597257 -115.85686475 98.57145776 -117.87402344 98.71826172 C-120.78818113 98.93012185 -123.70263863 99.13734948 -126.6171875 99.34375 C-127.50614716 99.40937134 -128.39510681 99.47499268 -129.31100464 99.54260254 C-135.21683455 99.954999 -141.08051604 100.07493645 -147 100 C-146.85556961 100.71122513 -146.71113922 101.42245026 -146.56233215 102.15522766 C-144.19561285 113.81801629 -141.86144034 125.48705681 -139.6875 137.1875 C-139.51637695 138.08807129 -139.34525391 138.98864258 -139.16894531 139.91650391 C-139.01393555 140.7626123 -138.85892578 141.6087207 -138.69921875 142.48046875 C-138.49558716 143.57717896 -138.49558716 143.57717896 -138.2878418 144.69604492 C-137.94020496 147.47861393 -137.95495359 150.19881797 -138 153 C-141.78665844 154.85891197 -145.57696762 156.71009176 -149.37084961 158.55419922 C-150.66094388 159.18261934 -151.95001684 159.81314064 -153.23803711 160.44580078 C-155.08963748 161.3548331 -156.94477967 162.2562448 -158.80078125 163.15625 C-159.91622314 163.70087891 -161.03166504 164.24550781 -162.1809082 164.80664062 C-165 166 -165 166 -168 166 C-163.71 173.26 -159.42 180.52 -155 188 C-158.15963139 191.15963139 -160.63990823 192.38411753 -164.6875 194.1875 C-165.86699219 194.71730469 -167.04648438 195.24710938 -168.26171875 195.79296875 C-169.16535156 196.19128906 -170.06898438 196.58960938 -171 197 C-174.2829008 193.98445408 -176.42752949 190.89250088 -178.65234375 187.0390625 C-178.98892502 186.46041946 -179.32550629 185.88177643 -179.67228699 185.28559875 C-180.76638808 183.4019696 -181.85188249 181.51352896 -182.9375 179.625 C-183.69642011 178.31544068 -184.45602961 177.00628065 -185.21630859 175.69750977 C-186.75008048 173.0566035 -188.28133802 170.41426436 -189.81103516 167.77099609 C-192.88139894 162.47289284 -196.00216284 157.20479064 -199.125 151.9375 C-200.16294557 150.18109899 -201.2007151 148.42459393 -202.23828125 146.66796875 C-203.93806986 143.79198454 -205.64343694 140.91949112 -207.35546875 138.05078125 C-208.00128906 136.96152344 -208.64710938 135.87226563 -209.3125 134.75 C-210.11107422 133.41195312 -210.11107422 133.41195312 -210.92578125 132.046875 C-212 130 -212 130 -212 128 C-210.87972412 127.47829224 -210.87972412 127.47829224 -209.73681641 126.94604492 C-206.36208286 125.36852386 -202.99354045 123.77819966 -199.625 122.1875 C-197.8615625 121.36668945 -197.8615625 121.36668945 -196.0625 120.52929688 C-194.94101563 119.99755859 -193.81953125 119.46582031 -192.6640625 118.91796875 C-191.62717285 118.43094482 -190.5902832 117.9439209 -189.52197266 117.44213867 C-186.74692556 116.10457682 -186.74692556 116.10457682 -185 113 C-185.37311248 103.21297267 -187.69875737 93.53123665 -189.5625 83.9375 C-190.05616196 81.37598297 -190.54859408 78.81423394 -191.04026794 76.25233459 C-191.34488511 74.66729274 -191.65088337 73.08251557 -191.95838928 71.49803162 C-193 66.10870842 -193 66.10870842 -193 65 C-191.83017578 64.91435791 -190.66035156 64.82871582 -189.45507812 64.74047852 C-185.08643546 64.42010798 -180.71799537 64.09704343 -176.34960938 63.77319336 C-174.46424635 63.63379409 -172.57883022 63.49511101 -170.69335938 63.35717773 C-167.97251098 63.15800358 -165.25186833 62.95619589 -162.53125 62.75390625 C-161.69758911 62.6934462 -160.86392822 62.63298615 -160.00500488 62.57069397 C-158.42140844 62.45198403 -156.83837025 62.32549995 -155.25610352 62.19021606 C-153.750372 62.06326519 -152.24276408 61.95691033 -150.73413086 61.87106323 C-147.59412325 61.62455922 -145.50348023 61.43917198 -143.08666992 59.33105469 C-141.74877002 56.46107754 -141.15812212 53.82491595 -140.61328125 50.703125 C-140.39736328 49.49785156 -140.18144531 48.29257813 -139.95898438 47.05078125 C-139.74564453 45.79652344 -139.53230469 44.54226562 -139.3125 43.25 C-138.97508789 41.34541016 -138.97508789 41.34541016 -138.63085938 39.40234375 C-138.07736857 36.26982131 -137.53416241 33.13586619 -137 30 C-116.8739762 34.92220795 -96.88558619 40.28664351 -77.09375 46.421875 C-76.25392578 46.68202393 -75.41410156 46.94217285 -74.54882812 47.21020508 C-72.78138969 47.75787398 -71.01449925 48.30731327 -69.24804688 48.8581543 C-68.36181641 49.13054932 -67.47558594 49.40294434 -66.5625 49.68359375 C-65.76972656 49.92907959 -64.97695312 50.17456543 -64.16015625 50.42749023 C-61.3466945 51.17314663 -58.88729526 51.36091191 -56 51 C-53.58878141 49.04366025 -53.58878141 49.04366025 -53.875 45.375 C-53.91625 44.26125 -53.9575 43.1475 -54 42 C-60.96640656 39.86927695 -67.96354423 37.88619822 -75 36 C-74.42655667 32.55330375 -73.56138422 29.77811835 -71.9375 26.6875 C-71.57527344 25.99011719 -71.21304688 25.29273437 -70.83984375 24.57421875 C-70.56269531 24.05472656 -70.28554687 23.53523438 -70 23 C-63.0297511 25.04868802 -56.58222144 28.40040267 -50.0546875 31.54296875 C-49.10851562 31.98511719 -48.16234375 32.42726562 -47.1875 32.8828125 C-46.33542969 33.28902832 -45.48335937 33.69524414 -44.60546875 34.11376953 C-41.5272247 35.16081094 -39.23194177 35.32924998 -36 35 C-34.09501608 34.03232452 -34.09501608 34.03232452 -32.53125 32.40234375 C-31.85449219 31.76280762 -31.17773438 31.12327148 -30.48046875 30.46435547 C-29.66191406 29.65111816 -28.84335938 28.83788086 -28 28 C-26.9127904 26.93242389 -25.82554826 25.86488092 -24.73828125 24.79736328 C-20.96781415 21.07653801 -17.23318407 17.32066623 -13.5 13.5625 C-12.18773415 12.24520941 -10.87523605 10.92815014 -9.5625 9.61132812 C-6.37231494 6.4102139 -3.18529349 3.20598135 0 0 Z " fill="#FEEBD1" transform="translate(255,101)"/>
<path d="M0 0 C5.47989601 4.45684703 9.4929809 9.60784894 11.73828125 16.34375 C12.54884929 25.35263479 12.17007755 31.97994453 6.73828125 39.34375 C6.18140625 40.21 5.62453125 41.07625 5.05078125 41.96875 C-7.10040233 54.44834395 -25.19605427 59.27434911 -42.19921875 59.71875 C-59.15054924 59.26008942 -77.16599419 54.99432431 -89.26171875 42.34375 C-95.53550691 33.59380414 -97.22598442 27.14582133 -96.26171875 16.34375 C-93.86832994 7.49065364 -87.29197309 0.93510911 -79.54736328 -3.67724609 C-54.95188418 -17.11765199 -23.00091225 -16.84350051 0 0 Z " fill="#EBA1C9" transform="translate(298.26171875,370.65625)"/>
<path d="M0 0 C8.88027968 5.29323781 13.55178255 12.20308794 17.95703125 21.4140625 C20.10242918 32.14105213 18.74076053 42.9453617 13.1171875 52.33984375 C7.37517188 60.56568292 0.0092757 65.99176291 -9.79296875 68.3515625 C-11.58734375 68.444375 -11.58734375 68.444375 -13.41796875 68.5390625 C-14.32417969 68.6009375 -15.23039062 68.6628125 -16.1640625 68.7265625 C-27.16954158 69.17519349 -34.77565319 65.87991335 -43.15234375 58.8203125 C-50.4836149 51.43848086 -53.82175919 42.59949655 -53.79296875 32.2890625 C-53.7141434 20.95640198 -50.70292438 14.01599885 -42.7890625 5.73828125 C-31.12805533 -5.07744698 -14.22250531 -6.96533092 0 0 Z " fill="#35373B" transform="translate(365.41796875,304.4609375)"/>
<path d="M0 0 C9.26336281 5.63441656 15.75932476 13.09778612 18.65234375 23.61328125 C19.81916141 35.82187861 18.69067074 46.48093373 10.90234375 56.48828125 C2.96864218 64.76517093 -6.57754806 68.60632232 -17.97265625 68.98828125 C-28.94758613 68.62921527 -38.24746163 63.50484722 -45.7421875 55.6328125 C-50.19770418 50.02818446 -52.97671333 43.78484438 -53.34765625 36.61328125 C-53.42113281 35.73027344 -53.49460937 34.84726562 -53.5703125 33.9375 C-54.06574819 24.14311742 -51.31801149 15.91371219 -45.16015625 8.23828125 C-33.34565418 -4.17082376 -15.39178024 -7.49531137 0 0 Z " fill="#35373A" transform="translate(181.34765625,304.38671875)"/>
<path d="M0 0 C19.91322852 -2.74665221 45.37643678 8.07362242 61.04101562 19.49609375 C75.85408481 30.77722117 86.96036118 44.08533937 95 60.8125 C95.56098389 61.97652344 95.56098389 61.97652344 96.13330078 63.1640625 C98.52901584 68.37493695 99.92374639 73.366485 101 79 C98.99067613 78.72846975 96.99324078 78.37162116 95 78 C94.15308594 77.92007813 93.30617188 77.84015625 92.43359375 77.7578125 C87.57921753 76.98813393 84.86023946 76.183229 81.8984375 72.109375 C80.89957316 70.32360356 79.97405073 68.51106281 79.05249023 66.68432617 C71.32749993 51.50447731 56.60789315 40.45870534 40.73046875 34.84375 C33.21667738 32.43933676 26.19680062 31.00952018 18.3125 30.6875 C16.94544922 30.63142578 16.94544922 30.63142578 15.55078125 30.57421875 C12.09828684 31.15051567 11.16184866 32.26576778 9 35 C-1.80766772 52.6046775 -5.43796074 71.38365829 -0.98022461 91.57080078 C-0.17817339 95.30008353 -0.04917168 97.19668673 -1 101 C-3.97 101 -6.94 101 -10 101 C-18.06468423 79.3879213 -21.32579615 56.53736029 -15 34 C-14.73316406 32.94941406 -14.46632812 31.89882812 -14.19140625 30.81640625 C-11.65962429 21.62322466 -7.51236861 13.35339651 -3 5 C-2.49855469 4.030625 -1.99710938 3.06125 -1.48046875 2.0625 C-0.99191406 1.381875 -0.50335938 0.70125 0 0 Z " fill="#F1D0A0" transform="translate(68,54)"/>
<path d="M0 0 C15.31008562 25.98378365 23.04567933 54.02785747 15.71313477 84.07495117 C14.24772402 89.59288754 12.34737748 94.80223559 10 100 C6.7 100 3.4 100 0 100 C0.2165625 98.76765625 0.433125 97.5353125 0.65625 96.265625 C4.33211755 74.75297515 3.40975373 56.11332296 -8 37 C-8.56589844 36.25492188 -9.13179688 35.50984375 -9.71484375 34.7421875 C-11 33 -11 33 -11 31 C-31.99398361 30.00685491 -50.1722115 35.77213236 -66 50 C-66.91652344 50.77730469 -66.91652344 50.77730469 -67.8515625 51.5703125 C-73.91997886 57.08453559 -80.02703983 65.55574671 -82.828125 73.28515625 C-84.80165235 76.17308461 -87.65626514 76.39667576 -90.9375 77.25 C-92.80728516 77.75273437 -92.80728516 77.75273437 -94.71484375 78.265625 C-98 79 -98 79 -101 79 C-99.7411865 72.36141514 -97.81662958 66.69645887 -94.875 60.625 C-94.47539062 59.79427979 -94.07578125 58.96355957 -93.6640625 58.10766602 C-90.41698241 51.52552127 -86.72921192 45.63305745 -82 40 C-81.29101562 39.15308594 -80.58203125 38.30617187 -79.8515625 37.43359375 C-77.63282096 34.88398725 -75.34981554 32.42906733 -73 30 C-72.28714844 29.26136719 -71.57429688 28.52273437 -70.83984375 27.76171875 C-52.17037927 9.73271617 -25.86333345 -0.53881945 0 0 Z " fill="#F1D0A0" transform="translate(444,54)"/>
<path d="M0 0 C5.47989601 4.45684703 9.4929809 9.60784894 11.73828125 16.34375 C12.54884929 25.35263479 12.17007755 31.97994453 6.73828125 39.34375 C6.18140625 40.21 5.62453125 41.07625 5.05078125 41.96875 C-7.10040233 54.44834395 -25.19605427 59.27434911 -42.19921875 59.71875 C-59.15054924 59.26008942 -77.16599419 54.99432431 -89.26171875 42.34375 C-95.53550691 33.59380414 -97.22598442 27.14582133 -96.26171875 16.34375 C-93.86832994 7.49065364 -87.29197309 0.93510911 -79.54736328 -3.67724609 C-54.95188418 -17.11765199 -23.00091225 -16.84350051 0 0 Z M-80.0546875 10.9921875 C-81.56722044 12.6749653 -81.56722044 12.6749653 -83.26171875 15.34375 C-83.69484375 15.983125 -84.12796875 16.6225 -84.57421875 17.28125 C-86.01330281 21.59850219 -85.6728915 25.26171644 -84.07421875 29.46875 C-78.00809756 39.09087326 -67.36424125 44.2997664 -56.56738281 46.92700195 C-52.35350181 47.6886596 -48.15666826 47.63088 -43.88671875 47.59375 C-42.56414062 47.60535156 -42.56414062 47.60535156 -41.21484375 47.6171875 C-27.90886387 47.57816703 -14.54563411 44.1279277 -4.26171875 35.34375 C-0.22053486 30.02640277 1.39866974 26.05769961 0.73828125 19.34375 C-2.63374266 11.18156129 -9.22910174 6.47031488 -17.13671875 3.09375 C-36.55174335 -4.61814131 -64.19171228 -3.59207294 -80.0546875 10.9921875 Z " fill="#37393D" transform="translate(298.26171875,370.65625)"/>
<path d="M0 0 C15.62942683 0.20066311 29.05334219 8.55983875 39.75 19.3125 C45.75 25.63585329 45.75 25.63585329 45.75 28.3125 C40.68428341 27.41357326 35.79320473 26.41233788 30.9375 24.6875 C26.43763106 23.06321882 26.43763106 23.06321882 21.75 23.3125 C19.16748467 26.89796949 18.16890088 30.09959768 17.3984375 34.41796875 C17.18703125 35.56587891 16.975625 36.71378906 16.7578125 37.89648438 C16.54898438 39.08564453 16.34015625 40.27480469 16.125 41.5 C15.69775317 43.86893107 15.2681852 46.23744506 14.8359375 48.60546875 C14.6507959 49.6524292 14.4656543 50.69938965 14.27490234 51.77807617 C13.75 54.3125 13.75 54.3125 12.75 56.3125 C5.19884951 57.51977293 -2.61667408 57.46757886 -10.25 57.3125 C-10.733059 55.91800891 -11.21125517 54.52183293 -11.6875 53.125 C-12.08775391 51.95904297 -12.08775391 51.95904297 -12.49609375 50.76953125 C-16.48901053 37.75634652 -15.59974543 21.40845203 -9.75 9.17578125 C-4.94320472 0.15148531 -4.94320472 0.15148531 0 0 Z " fill="#ECA1CA" transform="translate(90.25,95.6875)"/>
<path d="M0 0 C2.54963984 2.27790952 3.70289405 4.87590652 5 8 C5.556875 9.134375 6.11375 10.26875 6.6875 11.4375 C11.84118725 25.42607968 11.43762358 40.83639315 7 55 C6.505 55.99 6.505 55.99 6 57 C-1.59 56.67 -9.18 56.34 -17 56 C-18.08276329 51.12756518 -19.16439416 46.25712618 -20.21875 41.37890625 C-20.64553649 39.4400388 -21.07262302 37.50123738 -21.5 35.5625 C-21.71269531 34.57056641 -21.92539062 33.57863281 -22.14453125 32.55664062 C-22.35464844 31.61111328 -22.56476563 30.66558594 -22.78125 29.69140625 C-22.96751953 28.83748291 -23.15378906 27.98355957 -23.34570312 27.10375977 C-23.88035352 24.80950847 -23.88035352 24.80950847 -26 23 C-32.81909753 23.22357697 -38.81806577 25.03728244 -45.27734375 27.16015625 C-48 28 -48 28 -50 28 C-46.64018543 17.79342817 -36.10386198 10.85456955 -27 6 C-18.45593527 2.01276979 -9.61676008 -1.97193595 0 0 Z " fill="#EDA1CA" transform="translate(426,96)"/>
<path d="M0 0 C2.89661046 2.53216143 4.39113647 5.35696915 6.13671875 8.76171875 C6.71357422 9.87998047 7.29042969 10.99824219 7.88476562 12.15039062 C8.47966797 13.31763672 9.07457031 14.48488281 9.6875 15.6875 C10.29960608 16.87852472 10.91223075 18.06928307 11.52539062 19.25976562 C13.02205222 22.17059566 14.51335418 25.08404543 16 28 C15.01 28.66 14.02 29.32 13 30 C1.84189676 39.67335563 -1.86836735 57.20396436 -3.33984375 71.2421875 C-3.56353282 77.84548879 -2.39834982 84.14873028 -0.98022461 90.57080078 C-0.17817339 94.30008353 -0.04917168 96.19668673 -1 100 C-3.97 100 -6.94 100 -10 100 C-18.06468423 78.3879213 -21.32579615 55.53736029 -15 33 C-14.73316406 31.94941406 -14.46632812 30.89882812 -14.19140625 29.81640625 C-11.3677592 19.56343007 -6.78714847 8.30949953 0 0 Z " fill="#FBE9CF" transform="translate(68,55)"/>
<path d="M0 0 C3.73409438 3.27566762 5.8471336 7.03568972 8 11.4375 C8.34957764 12.1476123 8.69915527 12.85772461 9.05932617 13.58935547 C12.08228501 19.88924401 14.27109721 26.22637603 16 33 C16.29777344 34.01449219 16.59554688 35.02898437 16.90234375 36.07421875 C22.32408264 56.78676042 19.75692362 79.60966912 11 99 C7.7 99 4.4 99 1 99 C1.2165625 97.76765625 1.433125 96.5353125 1.65625 95.265625 C5.33211755 73.75297515 4.40975373 55.11332296 -7 36 C-7.56589844 35.25492188 -8.13179688 34.50984375 -8.71484375 33.7421875 C-10 32 -10 32 -10 30 C-11.65 29.67 -13.3 29.34 -15 29 C-13.60941509 26.01835683 -12.21154484 23.04018181 -10.8125 20.0625 C-10.42513672 19.23169922 -10.03777344 18.40089844 -9.63867188 17.54492188 C-2.60443474 2.60443474 -2.60443474 2.60443474 0 0 Z " fill="#FBE9CF" transform="translate(443,55)"/>
<path d="M0 0 C1.83425096 1.4009045 3.44976649 2.6816959 4.91796875 4.46484375 C4.91796875 5.45484375 4.91796875 6.44484375 4.91796875 7.46484375 C-1.35203125 8.12484375 -7.62203125 8.78484375 -14.08203125 9.46484375 C-15.07203125 7.81484375 -16.06203125 6.16484375 -17.08203125 4.46484375 C-20.70802547 4.04758697 -20.70802547 4.04758697 -24.08203125 4.46484375 C-24.74203125 6.77484375 -25.40203125 9.08484375 -26.08203125 11.46484375 C-31.36203125 11.46484375 -36.64203125 11.46484375 -42.08203125 11.46484375 C-42.74203125 9.15484375 -43.40203125 6.84484375 -44.08203125 4.46484375 C-47.45603703 4.04758697 -47.45603703 4.04758697 -51.08203125 4.46484375 C-53.09067484 6.83754115 -53.09067484 6.83754115 -54.08203125 9.46484375 C-60.3331056 9.03529434 -66.12407646 8.45082868 -72.08203125 6.46484375 C-67.81254619 -1.15923672 -61.36702352 -4.68034479 -53.05688477 -7.1328125 C-35.80643674 -11.41057222 -15.05942554 -9.77177871 0 0 Z " fill="#FCC7E5" transform="translate(290.08203125,378.53515625)"/>
<path d="M0 0 C0.495 0.495 0.495 0.495 1 1 C0.96147166 5.44727131 0.30283888 8.11395028 -2.81640625 11.21875 C-4.05046083 12.3289954 -5.30028148 13.42188129 -6.5625 14.5 C-7.93941048 15.7284851 -9.315692 16.95767545 -10.69140625 18.1875 C-11.40441895 18.81527344 -12.11743164 19.44304687 -12.85205078 20.08984375 C-16.30059435 23.15660948 -19.64584734 26.33081292 -23 29.5 C-24.3262327 30.74542048 -25.65305712 31.99021114 -26.98046875 33.234375 C-27.63837402 33.85119141 -28.2962793 34.46800781 -28.97412109 35.10351562 C-31.05978223 37.05596389 -33.14846275 39.00512763 -35.23828125 40.953125 C-35.92212891 41.59056641 -36.60597656 42.22800781 -37.31054688 42.88476562 C-38.61217096 44.09749831 -39.91423059 45.30976374 -41.21679688 46.52148438 C-41.80138672 47.06611328 -42.38597656 47.61074219 -42.98828125 48.171875 C-43.49915283 48.6472168 -44.01002441 49.12255859 -44.53637695 49.61230469 C-46.04488359 51.00188253 -46.04488359 51.00188253 -47.46557617 52.65722656 C-49 54 -49 54 -52.5625 54.3125 C-56 54 -56 54 -58 52 C-58.53125 49.30859375 -58.53125 49.30859375 -58 46 C-56.13839974 43.36400455 -53.86033541 41.25069649 -51.5 39.0625 C-50.85724121 38.4442334 -50.21448242 37.8259668 -49.55224609 37.18896484 C-45.73002809 33.5364946 -41.82389871 29.98704614 -37.7890625 26.5703125 C-35.05635945 24.17173908 -32.54994772 21.55854065 -30 18.96875 C-27.4421272 16.45084396 -24.73815191 14.13353196 -22.015625 11.796875 C-19.16603814 9.25654563 -16.51366305 6.53890811 -13.859375 3.796875 C-8.80313583 -1.08940655 -6.81601782 -1.34085596 0 0 Z " fill="#37393C" transform="translate(343,262)"/>
<path d="M0 0 C1.98046875 1.50390625 1.98046875 1.50390625 4.1875 3.5625 C5.50427734 4.78259766 5.50427734 4.78259766 6.84765625 6.02734375 C7.8989215 7.01771566 8.94965823 8.00864875 10 9 C11.29016611 10.20984711 12.5805443 11.41946807 13.87109375 12.62890625 C16.7612011 15.34141488 19.64588621 18.05955581 22.52734375 20.78125 C25.49174683 23.58042405 28.4628535 26.37213696 31.44140625 29.15625 C32.51140869 30.15664307 32.51140869 30.15664307 33.60302734 31.17724609 C34.95029558 32.43614817 36.29823147 33.69433627 37.64697266 34.95166016 C39.43858425 36.62692724 41.22045399 38.31193306 43 40 C43.58410645 40.54333984 44.16821289 41.08667969 44.77001953 41.64648438 C48.94285955 45.62858709 48.94285955 45.62858709 49.5 49.25 C49 52 49 52 47 54 C43.70625964 54.51502122 41.20959197 54.81173265 38.34033203 52.88623047 C36.6522149 51.30722525 35.10349785 49.6602878 33.5625 47.9375 C32.42768033 46.73388372 31.29097056 45.5320466 30.15234375 44.33203125 C29.61077637 43.75275879 29.06920898 43.17348633 28.51123047 42.57666016 C26.64894675 40.63374767 24.67700876 38.86500743 22.625 37.125 C19.50760002 34.47716655 16.64217177 31.66289144 13.77734375 28.74609375 C11.93406426 26.93522357 10.02177201 25.24678646 8.0625 23.5625 C4.46540337 20.46732383 1.13662951 17.17312127 -2.171875 13.7734375 C-4.08195825 11.8274012 -4.08195825 11.8274012 -6.9375 9.9375 C-9.82282016 7.22704772 -9.77810454 4.84618803 -10 1 C-3.73906188 -1.41899882 -3.73906188 -1.41899882 0 0 Z " fill="#36393C" transform="translate(178,262)"/>
<path d="M0 0 C-2.98283896 6.48721725 -6.77064782 10.90742854 -13.2421875 14.109375 C-19.07864326 16.25008196 -24.62290215 17.2586423 -30.546875 15.05078125 C-37.0994645 11.97804327 -41.99777849 8.10865388 -46 2 C-46 1.34 -46 0.68 -46 0 C-29.8753937 -3.47745039 -16.1522759 -3.24979922 0 0 Z " fill="#C74207" transform="translate(371,346)"/>
<path d="M0 0 C-2.72436295 7.04576624 -6.07162381 10.83342445 -12.94921875 14.04296875 C-19.52198371 16.10484764 -26.97446674 16.41235865 -33.52734375 14.11328125 C-38.09183714 11.47621309 -42.19996108 7.47581979 -45 3 C-45 2.01 -45 1.02 -45 0 C-29.30708374 -3.69245089 -15.69965473 -3.42537921 0 0 Z " fill="#C84207" transform="translate(187,346)"/>
<path d="M0 0 C3.5 -0.3125 3.5 -0.3125 7 0 C9.93146333 2.93146333 9.29161443 5.48440746 9.32226562 9.49414062 C9.31904297 10.46544922 9.31582031 11.43675781 9.3125 12.4375 C9.32861328 13.40494141 9.34472656 14.37238281 9.36132812 15.36914062 C9.36229492 16.76229492 9.36229492 16.76229492 9.36328125 18.18359375 C9.36775269 19.46061157 9.36775269 19.46061157 9.37231445 20.76342773 C8.91944481 23.48391221 8.18592049 24.36423496 6 26 C3.5 26.375 3.5 26.375 1 26 C-1.117333 24.39499133 -1.90992288 23.51506392 -2.37231445 20.87109375 C-2.3693335 20.06800781 -2.36635254 19.26492188 -2.36328125 18.4375 C-2.36263672 17.55835938 -2.36199219 16.67921875 -2.36132812 15.7734375 C-2.34521484 14.85820312 -2.32910156 13.94296875 -2.3125 13 C-2.31572266 12.08476562 -2.31894531 11.16953125 -2.32226562 10.2265625 C-2.26721939 3.40082908 -2.26721939 3.40082908 0 0 Z " fill="#36383C" transform="translate(266,382)"/>
<path d="M0 0 C1.7325 0.1546875 1.7325 0.1546875 3.5 0.3125 C6.34799817 4.58449725 5.83018316 8.29048285 5.8125 13.3125 C5.82861328 14.22773438 5.84472656 15.14296875 5.86132812 16.0859375 C5.86197266 16.96507812 5.86261719 17.84421875 5.86328125 18.75 C5.86775269 19.95462891 5.86775269 19.95462891 5.87231445 21.18359375 C5.40992288 23.82756392 4.617333 24.70749133 2.5 26.3125 C0 26.6875 0 26.6875 -2.5 26.3125 C-4.68592049 24.67673496 -5.41944481 23.79641221 -5.87231445 21.07592773 C-5.8693335 20.22458252 -5.86635254 19.3732373 -5.86328125 18.49609375 C-5.86263672 17.56732422 -5.86199219 16.63855469 -5.86132812 15.68164062 C-5.84521484 14.71419922 -5.82910156 13.74675781 -5.8125 12.75 C-5.81572266 11.77869141 -5.81894531 10.80738281 -5.82226562 9.80664062 C-5.75122704 0.51350241 -5.75122704 0.51350241 0 0 Z " fill="#36383C" transform="translate(242.5,381.6875)"/>
<path d="M0 0 C3.4375 1 3.4375 1 5.4375 2.6875 C6.82656225 5.89970645 6.49271374 7.6936636 5.4375 11 C3.75 12.9375 3.75 12.9375 1.4375 14 C-2.06239972 13.92857348 -3.85513143 13.66021066 -6.4375 11.25 C-7.81113504 8.50272993 -8.09312116 7.03212094 -7.5625 4 C-5.24958684 0.48437199 -4.25397332 0 0 0 Z " fill="#F1F1F1" transform="translate(149.5625,320)"/>
<path d="M0 0 C3.375 0.9375 3.375 0.9375 5.375 3.9375 C5.83943597 7.5755818 5.80343764 9.29484354 3.75 12.375 C1.375 13.9375 1.375 13.9375 -1.6875 13.875 C-6.04403019 12.48461802 -6.04403019 12.48461802 -7.625 9.9375 C-8.16352618 6.32168138 -8.04736225 4.59638511 -6.0625 1.5 C-3.625 -0.0625 -3.625 -0.0625 0 0 Z " fill="#F5F6F6" transform="translate(333.625,320.0625)"/>
</svg>
