<?xml version="1.0" encoding="UTF-8"?>
<svg version="1.1" xmlns="http://www.w3.org/2000/svg" width="512" height="512">
<path d="M0 0 C9.57155895 5.87184745 9.57155895 5.87184745 20.32421875 6.3046875 C24.38264805 4.89938448 28.2011527 3.00736563 32.0625 1.13867188 C60.28539686 -11.1685731 96.940439 -11.76522056 127.06640625 -7.73046875 C127.91146729 -7.62138184 128.75652832 -7.51229492 129.62719727 -7.39990234 C132.66997519 -6.90922506 135.05592405 -6.46020331 137.453125 -4.453125 C139.27668118 -0.61820452 140.67832201 3.30021524 142.00390625 7.33203125 C142.30772217 8.25483887 142.61153809 9.17764648 142.92456055 10.12841797 C157.35897875 55.32863719 156.56416347 105.81318727 138.62890625 150.01953125 C137.98719482 151.25147217 137.98719482 151.25147217 137.33251953 152.50830078 C133.41665966 160.10365907 133.12340375 166.19830099 133.50390625 174.64453125 C133.73249639 185.52457003 133.45107696 195.49486147 130.62890625 206.01953125 C130.44618164 206.71594727 130.26345703 207.41236328 130.07519531 208.12988281 C125.22003539 225.91619118 116.49983603 242.9106393 104.62890625 257.01953125 C103.92266113 257.871521 103.92266113 257.871521 103.20214844 258.74072266 C68.71195496 300.29530625 20.31321126 323.40507923 -31.66625977 335.17236328 C-37.69223148 336.55391921 -43.54353968 338.2736406 -49.43359375 340.14453125 C-77.92459262 348.98386714 -111.02667418 349.09192717 -138.72265625 336.9921875 C-141.92818401 335.81493615 -145.11524668 335.22104028 -148.46362305 334.57519531 C-203.40058082 323.84521025 -259.11700772 294.52224482 -290.95800781 247.22998047 C-299.14796605 234.41866708 -305.5116411 220.72901481 -309.37109375 206.01953125 C-309.54608398 205.36694336 -309.72107422 204.71435547 -309.90136719 204.04199219 C-312.05453975 195.58705913 -312.40629758 187.67479968 -312.11035156 178.96484375 C-311.69217961 165.66912024 -313.34865609 156.31717775 -318.98046875 144.3203125 C-338.66938605 102.36861076 -334.17005129 48.70014021 -320.24609375 5.95703125 C-320.00463623 5.21275879 -319.76317871 4.46848633 -319.5144043 3.70166016 C-316.98820152 -3.70496241 -316.98820152 -3.70496241 -314.37109375 -5.98046875 C-311.42623136 -6.81562549 -308.82100475 -7.34207614 -305.80859375 -7.73046875 C-304.90383301 -7.85043213 -303.99907227 -7.97039551 -303.06689453 -8.09399414 C-272.58349452 -11.61593073 -233.90573654 -11.33551196 -206.19140625 3.08984375 C-199.42263313 6.62300701 -199.42263313 6.62300701 -192.00341797 6.42480469 C-186.45088326 4.26770487 -181.31086385 1.32588222 -176.10644531 -1.54980469 C-125.81029987 -27.8560714 -49.59721948 -28.33997933 0 0 Z " fill="#F3C3B2" transform="translate(345.37109375,92.98046875)"/>
<path d="M0 0 C9.57155895 5.87184745 9.57155895 5.87184745 20.32421875 6.3046875 C24.38264805 4.89938448 28.2011527 3.00736563 32.0625 1.13867188 C60.28539686 -11.1685731 96.940439 -11.76522056 127.06640625 -7.73046875 C127.91146729 -7.62138184 128.75652832 -7.51229492 129.62719727 -7.39990234 C132.66997519 -6.90922506 135.05592405 -6.46020331 137.453125 -4.453125 C139.27668118 -0.61820452 140.67832201 3.30021524 142.00390625 7.33203125 C142.30772217 8.25483887 142.61153809 9.17764648 142.92456055 10.12841797 C157.35897875 55.32863719 156.56416347 105.81318727 138.62890625 150.01953125 C137.98719482 151.25147217 137.98719482 151.25147217 137.33251953 152.50830078 C133.41665966 160.10365907 133.12340375 166.19830099 133.50390625 174.64453125 C133.73249639 185.52457003 133.45107696 195.49486147 130.62890625 206.01953125 C130.44618164 206.71594727 130.26345703 207.41236328 130.07519531 208.12988281 C125.22003539 225.91619118 116.49983603 242.9106393 104.62890625 257.01953125 C103.92266113 257.871521 103.92266113 257.871521 103.20214844 258.74072266 C68.71195496 300.29530625 20.31321126 323.40507923 -31.66625977 335.17236328 C-37.69223148 336.55391921 -43.54353968 338.2736406 -49.43359375 340.14453125 C-77.92459262 348.98386714 -111.02667418 349.09192717 -138.72265625 336.9921875 C-141.92818401 335.81493615 -145.11524668 335.22104028 -148.46362305 334.57519531 C-203.40058082 323.84521025 -259.11700772 294.52224482 -290.95800781 247.22998047 C-299.14796605 234.41866708 -305.5116411 220.72901481 -309.37109375 206.01953125 C-309.54608398 205.36694336 -309.72107422 204.71435547 -309.90136719 204.04199219 C-312.05453975 195.58705913 -312.40629758 187.67479968 -312.11035156 178.96484375 C-311.69217961 165.66912024 -313.34865609 156.31717775 -318.98046875 144.3203125 C-338.66938605 102.36861076 -334.17005129 48.70014021 -320.24609375 5.95703125 C-320.00463623 5.21275879 -319.76317871 4.46848633 -319.5144043 3.70166016 C-316.98820152 -3.70496241 -316.98820152 -3.70496241 -314.37109375 -5.98046875 C-311.42623136 -6.81562549 -308.82100475 -7.34207614 -305.80859375 -7.73046875 C-304.90383301 -7.85043213 -303.99907227 -7.97039551 -303.06689453 -8.09399414 C-272.58349452 -11.61593073 -233.90573654 -11.33551196 -206.19140625 3.08984375 C-199.42263313 6.62300701 -199.42263313 6.62300701 -192.00341797 6.42480469 C-186.45088326 4.26770487 -181.31086385 1.32588222 -176.10644531 -1.54980469 C-125.81029987 -27.8560714 -49.59721948 -28.33997933 0 0 Z M-179.37109375 15.01953125 C-177.39082946 17.11566407 -175.47190797 18.7046509 -173 20.18359375 C-172.34854004 20.57933594 -171.69708008 20.97507812 -171.02587891 21.3828125 C-169.99019775 22.00736328 -169.99019775 22.00736328 -168.93359375 22.64453125 C-161.08260126 27.4583306 -152.91411743 32.47650757 -146.37109375 39.01953125 C-146.12109375 41.51953125 -146.12109375 41.51953125 -146.37109375 44.01953125 C-147.36109375 45.00953125 -147.36109375 45.00953125 -148.37109375 46.01953125 C-154.04484103 45.84307499 -156.87280525 44.28428113 -161.12109375 40.64453125 C-188.41514278 18.36979783 -228.84766064 2.90214674 -264.12890625 2.8515625 C-264.95381561 2.8482341 -265.77872498 2.8449057 -266.62863159 2.84147644 C-268.36830086 2.83643675 -270.10797969 2.8340672 -271.84765625 2.83422852 C-274.46761644 2.83205488 -277.08714606 2.81390298 -279.70703125 2.79492188 C-289.14101381 2.76435967 -298.09007298 3.15508763 -307.37109375 5.01953125 C-311.89361593 17.46304067 -314.8866725 30.02077018 -317.37109375 43.01953125 C-317.50676758 43.71594727 -317.64244141 44.41236328 -317.78222656 45.12988281 C-322.84661986 72.39201125 -320.446461 103.82971711 -311.37109375 130.01953125 C-310.90063738 131.43866812 -310.43061347 132.85794841 -309.9609375 134.27734375 C-307.30584999 142.15942039 -304.42132273 149.72553482 -300.37109375 157.01953125 C-299.38109375 156.68953125 -298.39109375 156.35953125 -297.37109375 156.01953125 C-297.37109375 155.35953125 -297.37109375 154.69953125 -297.37109375 154.01953125 C-293.07529851 156.32019996 -289.84800689 159.29482758 -286.4765625 162.75390625 C-285.92551346 163.31015686 -285.37446442 163.86640747 -284.80671692 164.43951416 C-283.05248472 166.21146588 -281.30509347 167.98996029 -279.55859375 169.76953125 C-269.28386523 180.23281394 -269.28386523 180.23281394 -258.37109375 190.01953125 C-257.22884381 191.01506574 -256.08818815 192.01243273 -254.94921875 193.01171875 C-243.62692604 204.4397523 -243.62692604 204.4397523 -230.37109375 211.01953125 C-230.35691406 210.148125 -230.34273438 209.27671875 -230.328125 208.37890625 C-229.7488603 193.91294464 -224.88312502 182.93087502 -214.37109375 173.01953125 C-215.42296875 172.23578125 -216.47484375 171.45203125 -217.55859375 170.64453125 C-222.73034703 166.24906548 -226.95355134 158.92322699 -227.5390625 152.046875 C-227.55784574 150.03706819 -227.46669469 148.02715091 -227.37109375 146.01953125 C-225.37109375 144.01953125 -225.37109375 144.01953125 -221.74609375 143.89453125 C-220.63234375 143.93578125 -219.51859375 143.97703125 -218.37109375 144.01953125 C-218.2009375 144.89996094 -218.03078125 145.78039062 -217.85546875 146.6875 C-217.613125 147.84894531 -217.37078125 149.01039063 -217.12109375 150.20703125 C-216.8890625 151.35558594 -216.65703125 152.50414062 -216.41796875 153.6875 C-214.65631598 159.29455156 -211.60492062 162.50954106 -206.39208984 165.2734375 C-202.57670998 166.68196623 -198.70614172 166.52373574 -194.68359375 166.51953125 C-182.96639412 166.82433245 -173.19105233 168.82956971 -164.37109375 177.01953125 C-163.75492188 177.58285156 -163.13875 178.14617187 -162.50390625 178.7265625 C-155.44660418 185.9201644 -152.15768928 195.02999656 -151.74609375 205.01953125 C-152.20859131 216.25697202 -156.65025379 225.91088655 -164.37109375 234.01953125 C-166.03422726 235.35726907 -167.69964173 236.69220171 -169.37109375 238.01953125 C-170.02676374 240.07329503 -170.02676374 240.07329503 -170.37109375 242.01953125 C-146.95796044 249.2362418 -146.95796044 249.2362418 -123.03125 247.11328125 C-97.24255733 240.80425221 -67.82803868 242.76628897 -42.45776367 249.92480469 C-40.34721159 250.5267084 -40.34721159 250.5267084 -37.37109375 251.01953125 C-36.38109375 250.35953125 -35.39109375 249.69953125 -34.37109375 249.01953125 C-32.3215332 248.38110352 -32.3215332 248.38110352 -29.984375 247.8359375 C-29.12779297 247.63033203 -28.27121094 247.42472656 -27.38867188 247.21289062 C-26.0496582 246.90061523 -26.0496582 246.90061523 -24.68359375 246.58203125 C-18.37576053 245.10632414 -12.39278433 243.42400141 -6.37109375 241.01953125 C-9.54430863 237.70984582 -9.54430863 237.70984582 -13.05078125 234.7734375 C-20.35324961 229.30470009 -23.93250856 220.63217078 -26.37109375 212.01953125 C-27.61493381 201.32250676 -25.84809252 191.63723089 -19.76171875 182.640625 C-13.17816267 174.68297809 -4.14826577 167.92212057 6.35522461 166.703125 C10.07719839 166.59195217 13.78358572 166.62437146 17.50585938 166.70703125 C24.66601779 166.64673518 29.23409079 164.78084208 34.62890625 160.01953125 C37.75061222 155.48802259 38.62063229 150.35745223 39.62890625 145.01953125 C42.44140625 144.39453125 42.44140625 144.39453125 45.62890625 144.01953125 C46.61890625 144.67953125 47.60890625 145.33953125 48.62890625 146.01953125 C49.53680868 153.28275068 47.49378095 159.79000014 43.390625 165.84765625 C41.01520566 168.75993506 38.33440396 171.41423716 35.62890625 174.01953125 C36.33015625 174.67953125 37.03140625 175.33953125 37.75390625 176.01953125 C48.0456795 186.42792516 51.20986931 196.47894959 51.62890625 211.01953125 C76.06106044 199.64788345 97.10309509 173.72932678 115.62890625 155.01953125 C117.60890625 155.67953125 119.58890625 156.33953125 121.62890625 157.01953125 C125.25083274 150.35364526 128.28534398 143.66183729 130.81640625 136.51953125 C131.05375488 135.85703369 131.29110352 135.19453613 131.53564453 134.51196289 C144.97956276 95.5753318 143.65788874 53.00408519 131.62890625 14.01953125 C131.25765625 12.7351416 131.25765625 12.7351416 130.87890625 11.42480469 C130.63140625 10.60786133 130.38390625 9.79091797 130.12890625 8.94921875 C129.91234375 8.21687012 129.69578125 7.48452148 129.47265625 6.72998047 C129.19421875 6.16553223 128.91578125 5.60108398 128.62890625 5.01953125 C118.98949105 1.80639285 107.77324328 2.77744952 97.69140625 2.76953125 C96.91578339 2.76885651 96.14016052 2.76818176 95.34103394 2.76748657 C83.19720608 2.78422805 71.52286677 3.3886919 59.62890625 6.01953125 C58.8203418 6.1911377 58.01177734 6.36274414 57.17871094 6.53955078 C30.93790715 12.21474588 6.54300615 22.69860647 -15.03125 38.73828125 C-15.65918457 39.19976562 -16.28711914 39.66125 -16.93408203 40.13671875 C-18.15354202 41.03630476 -19.36472716 41.94725486 -20.56591797 42.87109375 C-23.11071941 44.75690058 -24.9937907 45.96449686 -28.15625 46.42578125 C-30.37109375 46.01953125 -30.37109375 46.01953125 -32.37109375 44.01953125 C-32.73706892 41.21372161 -32.8486621 39.67103823 -31.1484375 37.3515625 C-21.31486051 29.2299883 -10.39464194 22.40022032 0.62890625 16.01953125 C-1.82141246 13.16990515 -4.27230309 12.0443494 -7.74609375 10.6796875 C-8.81472656 10.25623047 -9.88335937 9.83277344 -10.984375 9.39648438 C-12.10199219 8.96271484 -13.21960938 8.52894531 -14.37109375 8.08203125 C-15.45777344 7.65212891 -16.54445313 7.22222656 -17.6640625 6.77929688 C-30.13040291 1.87169931 -42.23173388 -2.31719711 -55.37109375 -4.98046875 C-56.12503418 -5.13435059 -56.87897461 -5.28823242 -57.65576172 -5.44677734 C-97.09900513 -13.17501292 -144.89594325 -6.46766546 -179.37109375 15.01953125 Z " fill="#E7B4A5" transform="translate(345.37109375,92.98046875)"/>
<path d="M0 0 C9.57155895 5.87184745 9.57155895 5.87184745 20.32421875 6.3046875 C24.38264805 4.89938448 28.2011527 3.00736563 32.0625 1.13867188 C60.28539686 -11.1685731 96.940439 -11.76522056 127.06640625 -7.73046875 C127.91146729 -7.62138184 128.75652832 -7.51229492 129.62719727 -7.39990234 C132.66997519 -6.90922506 135.05592405 -6.46020331 137.453125 -4.453125 C139.27668118 -0.61820452 140.67832201 3.30021524 142.00390625 7.33203125 C142.30772217 8.25483887 142.61153809 9.17764648 142.92456055 10.12841797 C157.35897875 55.32863719 156.56416347 105.81318727 138.62890625 150.01953125 C137.98719482 151.25147217 137.98719482 151.25147217 137.33251953 152.50830078 C133.41665966 160.10365907 133.12340375 166.19830099 133.50390625 174.64453125 C133.73249639 185.52457003 133.45107696 195.49486147 130.62890625 206.01953125 C130.44618164 206.71594727 130.26345703 207.41236328 130.07519531 208.12988281 C125.22003539 225.91619118 116.49983603 242.9106393 104.62890625 257.01953125 C103.92266113 257.871521 103.92266113 257.871521 103.20214844 258.74072266 C68.71195496 300.29530625 20.31321126 323.40507923 -31.66625977 335.17236328 C-37.69223148 336.55391921 -43.54353968 338.2736406 -49.43359375 340.14453125 C-77.92459262 348.98386714 -111.02667418 349.09192717 -138.72265625 336.9921875 C-141.92818401 335.81493615 -145.11524668 335.22104028 -148.46362305 334.57519531 C-203.40058082 323.84521025 -259.11700772 294.52224482 -290.95800781 247.22998047 C-299.14796605 234.41866708 -305.5116411 220.72901481 -309.37109375 206.01953125 C-309.54608398 205.36694336 -309.72107422 204.71435547 -309.90136719 204.04199219 C-312.05453975 195.58705913 -312.40629758 187.67479968 -312.11035156 178.96484375 C-311.69217961 165.66912024 -313.34865609 156.31717775 -318.98046875 144.3203125 C-338.66938605 102.36861076 -334.17005129 48.70014021 -320.24609375 5.95703125 C-320.00463623 5.21275879 -319.76317871 4.46848633 -319.5144043 3.70166016 C-316.98820152 -3.70496241 -316.98820152 -3.70496241 -314.37109375 -5.98046875 C-311.42623136 -6.81562549 -308.82100475 -7.34207614 -305.80859375 -7.73046875 C-304.90383301 -7.85043213 -303.99907227 -7.97039551 -303.06689453 -8.09399414 C-272.58349452 -11.61593073 -233.90573654 -11.33551196 -206.19140625 3.08984375 C-199.42263313 6.62300701 -199.42263313 6.62300701 -192.00341797 6.42480469 C-186.45088326 4.26770487 -181.31086385 1.32588222 -176.10644531 -1.54980469 C-125.81029987 -27.8560714 -49.59721948 -28.33997933 0 0 Z M-179.37109375 15.01953125 C-177.39082946 17.11566407 -175.47190797 18.7046509 -173 20.18359375 C-172.34854004 20.57933594 -171.69708008 20.97507812 -171.02587891 21.3828125 C-169.99019775 22.00736328 -169.99019775 22.00736328 -168.93359375 22.64453125 C-161.08260126 27.4583306 -152.91411743 32.47650757 -146.37109375 39.01953125 C-146.12109375 41.51953125 -146.12109375 41.51953125 -146.37109375 44.01953125 C-147.36109375 45.00953125 -147.36109375 45.00953125 -148.37109375 46.01953125 C-154.04484103 45.84307499 -156.87280525 44.28428113 -161.12109375 40.64453125 C-188.41514278 18.36979783 -228.84766064 2.90214674 -264.12890625 2.8515625 C-264.95381561 2.8482341 -265.77872498 2.8449057 -266.62863159 2.84147644 C-268.36830086 2.83643675 -270.10797969 2.8340672 -271.84765625 2.83422852 C-274.46761644 2.83205488 -277.08714606 2.81390298 -279.70703125 2.79492188 C-289.14101381 2.76435967 -298.09007298 3.15508763 -307.37109375 5.01953125 C-311.89361593 17.46304067 -314.8866725 30.02077018 -317.37109375 43.01953125 C-317.50676758 43.71594727 -317.64244141 44.41236328 -317.78222656 45.12988281 C-322.84755129 72.39702522 -320.4400279 103.82389916 -311.37109375 130.01953125 C-310.92388997 131.3800148 -310.47731414 132.74070487 -310.03125 134.1015625 C-307.37494776 142.03645996 -304.36505814 149.65297315 -300.55541992 157.11108398 C-298.84671935 160.54538383 -297.81145262 163.17029224 -298.37109375 167.01953125 C-299.36109375 168.00953125 -299.36109375 168.00953125 -300.37109375 169.01953125 C-304.54473958 195.29853473 -293.2564484 222.94797947 -278.37109375 244.01953125 C-275.52523821 247.83702204 -272.52190747 251.45107611 -269.37109375 255.01953125 C-268.5409375 255.98246094 -267.71078125 256.94539063 -266.85546875 257.9375 C-245.29443116 282.55011832 -209.14379228 308.32200513 -176.37109375 314.01953125 C-176.72300781 313.60445313 -177.07492188 313.189375 -177.4375 312.76171875 C-182.8854849 305.96240601 -189.71886008 296.32138121 -189.93359375 287.26953125 C-189.37109375 284.01953125 -189.37109375 284.01953125 -187.37109375 282.01953125 C-183.74609375 282.39453125 -183.74609375 282.39453125 -180.37109375 283.01953125 C-180.16355469 283.85355469 -179.95601562 284.68757813 -179.7421875 285.546875 C-175.40984248 301.37171684 -165.57085612 309.6985037 -151.68359375 317.64453125 C-122.99025729 333.50827976 -89.41283256 339.0962863 -57.50048828 330.22119141 C-37.45388379 324.13897051 -13.74967932 314.89047777 -2.37109375 296.01953125 C-1.01558417 292.96364745 -0.01712492 289.95637688 0.75390625 286.70703125 C1.04265625 285.49015625 1.33140625 284.27328125 1.62890625 283.01953125 C5.00390625 282.39453125 5.00390625 282.39453125 8.62890625 282.01953125 C10.62890625 284.01953125 10.62890625 284.01953125 11.19140625 287.26953125 C10.9652139 296.80440878 3.55307315 307.03205235 -2.37109375 314.01953125 C25.1822548 307.37349743 52.4749166 290.48729999 73.62890625 272.01953125 C74.14018066 271.57528809 74.65145508 271.13104492 75.17822266 270.67333984 C95.96113276 252.48595379 110.78828629 230.67189509 118.62890625 204.01953125 C118.94988281 203.00890625 119.27085937 201.99828125 119.6015625 200.95703125 C122.52593644 190.51089552 121.91108958 179.76709845 121.62890625 169.01953125 C120.96890625 169.01953125 120.30890625 169.01953125 119.62890625 169.01953125 C119.17111732 162.94198854 120.52933465 159.36616689 123.25390625 154.14453125 C126.16520313 148.2669341 128.76838124 142.3981025 130.94140625 136.20703125 C131.17102051 135.56330566 131.40063477 134.91958008 131.63720703 134.25634766 C144.98312951 95.39013157 143.6284831 52.90878486 131.62890625 14.01953125 C131.25765625 12.7351416 131.25765625 12.7351416 130.87890625 11.42480469 C130.63140625 10.60786133 130.38390625 9.79091797 130.12890625 8.94921875 C129.91234375 8.21687012 129.69578125 7.48452148 129.47265625 6.72998047 C129.19421875 6.16553223 128.91578125 5.60108398 128.62890625 5.01953125 C118.98949105 1.80639285 107.77324328 2.77744952 97.69140625 2.76953125 C96.91578339 2.76885651 96.14016052 2.76818176 95.34103394 2.76748657 C83.19720608 2.78422805 71.52286677 3.3886919 59.62890625 6.01953125 C58.8203418 6.1911377 58.01177734 6.36274414 57.17871094 6.53955078 C30.93790715 12.21474588 6.54300615 22.69860647 -15.03125 38.73828125 C-15.65918457 39.19976562 -16.28711914 39.66125 -16.93408203 40.13671875 C-18.15354202 41.03630476 -19.36472716 41.94725486 -20.56591797 42.87109375 C-23.11071941 44.75690058 -24.9937907 45.96449686 -28.15625 46.42578125 C-30.37109375 46.01953125 -30.37109375 46.01953125 -32.37109375 44.01953125 C-32.73706892 41.21372161 -32.8486621 39.67103823 -31.1484375 37.3515625 C-21.31486051 29.2299883 -10.39464194 22.40022032 0.62890625 16.01953125 C-1.82141246 13.16990515 -4.27230309 12.0443494 -7.74609375 10.6796875 C-8.81472656 10.25623047 -9.88335937 9.83277344 -10.984375 9.39648438 C-12.10199219 8.96271484 -13.21960938 8.52894531 -14.37109375 8.08203125 C-15.45777344 7.65212891 -16.54445313 7.22222656 -17.6640625 6.77929688 C-30.13040291 1.87169931 -42.23173388 -2.31719711 -55.37109375 -4.98046875 C-56.12503418 -5.13435059 -56.87897461 -5.28823242 -57.65576172 -5.44677734 C-97.09900513 -13.17501292 -144.89594325 -6.46766546 -179.37109375 15.01953125 Z " fill="#35373B" transform="translate(345.37109375,92.98046875)"/>
<path d="M0 0 C-2.11967058 10.33339406 -11.82383357 17.02336303 -20.10546875 22.58203125 C-46.79261161 39.63497326 -81.53992263 46.81954394 -112.625 40.09765625 C-135.11803895 34.68630244 -159.54413941 25.17098129 -173.828125 6.0078125 C-175.01157079 3.98017537 -175.48277765 2.27187252 -176 0 C-119.16846871 -34.39953417 -56.24677343 -36.1025356 0 0 Z " fill="#F3C3B2" transform="translate(344,385)"/>
<path d="M0 0 C0.74523926 0.24621094 1.49047852 0.49242188 2.25830078 0.74609375 C13.79072541 4.56662357 24.96195221 8.92804787 36 14 C36 14.99 36 15.98 36 17 C35.16339844 17.44988281 34.32679688 17.89976563 33.46484375 18.36328125 C32.28807172 19.01122466 31.11238062 19.66113328 29.9375 20.3125 C28.98955566 20.83142822 28.98955566 20.83142822 28.02246094 21.36083984 C24.5243849 23.33940135 21.39761159 25.40845761 18.36328125 28.05078125 C8.74258207 36.33342467 8.74258207 36.33342467 2.2265625 36.2890625 C-2.27470629 35.92130003 -6.61399934 35.04382277 -11 34 C-24.7458048 30.88434237 -39.79357559 31.76395722 -53.8125 31.75 C-54.7974646 31.74799591 -55.7824292 31.74599182 -56.79724121 31.743927 C-70.95411153 31.73689478 -84.76121493 32.30558201 -98.796875 34.24609375 C-99.68342773 34.36782959 -100.56998047 34.48956543 -101.48339844 34.61499023 C-103.12996605 34.86689527 -104.77035874 35.16437142 -106.39941406 35.51196289 C-110.81802827 36.33373461 -113.30706285 36.22516196 -117.140625 33.75390625 C-118.52801312 32.71315734 -119.89743564 31.64812136 -121.25 30.5625 C-122.72022607 29.45120466 -124.19291183 28.3431564 -125.66796875 27.23828125 C-126.39161621 26.68865723 -127.11526367 26.1390332 -127.86083984 25.57275391 C-130.98380598 23.2766859 -134.24089444 21.24361683 -137.5625 19.25 C-138.61566406 18.61578125 -139.66882813 17.9815625 -140.75390625 17.328125 C-141.49511719 16.88984375 -142.23632812 16.4515625 -143 16 C-139.31488967 11.8442755 -134.34701664 10.33108111 -129.3125 8.25 C-128.24829834 7.80970459 -127.18409668 7.36940918 -126.08764648 6.91577148 C-109.61981083 0.26546231 -92.61358023 -4.61730965 -75 -7 C-74.3301709 -7.0920874 -73.6603418 -7.1841748 -72.97021484 -7.27905273 C-48.68486052 -10.33186495 -23.18166018 -7.85643779 0 0 Z " fill="#FDDBD0" transform="translate(309,93)"/>
<path d="M0 0 C2.9375 0.75 2.9375 0.75 4.9375 2.75 C5.73595608 10.20225678 3.82809851 16.71976605 -0.55859375 22.8359375 C-2.9162792 25.62282753 -5.47503119 28.17788709 -8.0625 30.75 C-7.36125 31.41 -6.66 32.07 -5.9375 32.75 C1.86705019 40.64298701 7.10099615 48.97060621 7.3125 60.3125 C6.86929983 72.89938491 3.3307583 82.05404512 -5.28515625 91.34375 C-14.02835464 98.9187292 -24.19476765 102.14242395 -35.61328125 102.02734375 C-46.15734166 101.17952009 -55.56302167 95.65570809 -62.8125 88.125 C-70.71593983 78.62249211 -73.12458299 66.7625249 -72.0625 54.75 C-69.96605322 46.25139958 -66.39924087 39.74309982 -60.0625 33.75 C-59.54042969 33.20859375 -59.01835937 32.6671875 -58.48046875 32.109375 C-49.46522694 23.42315661 -38.98866275 22.12107021 -26.98022461 22.28979492 C-20.46964424 22.26953438 -16.05661795 21.06830481 -11.0625 16.75 C-8.28032916 12.66948277 -7.47093325 8.50165367 -6.6875 3.703125 C-5.53063302 0.0879157 -3.51527574 -0.28696128 0 0 Z " fill="#35383B" transform="translate(390.0625,236.25)"/>
<path d="M0 0 C2.02464886 3.03697329 2.32895408 4.37859106 2.8125 7.875 C3.70637268 12.6725823 5.03746273 14.95898303 9 18 C9.68320313 18.52851563 10.36640625 19.05703125 11.0703125 19.6015625 C15.22863998 21.58647082 19.01260727 21.39807212 23.5625 21.4375 C35.30379096 21.79924379 45.16945153 23.77781917 54 32 C55.03447266 32.95519531 55.03447266 32.95519531 56.08984375 33.9296875 C63.54248404 41.50723238 67.17653001 50.3901442 67.625 61 C67.12262503 73.20635408 61.92753396 83.31714715 53.23046875 91.70703125 C44.99279541 98.55730697 34.77797102 101.89251196 24.1328125 101.41796875 C12.73436272 99.89722794 2.83753295 94.04599938 -4.4296875 85.20703125 C-8.63182071 79.301048 -11.6280614 73.31479237 -12 66 C-12.07347656 65.04351562 -12.14695312 64.08703125 -12.22265625 63.1015625 C-12.77142975 51.25368333 -8.76663834 41.85183986 -1 33 C0.29871844 31.63292796 1.61444134 30.27897723 3 29 C1.4221875 27.824375 1.4221875 27.824375 -0.1875 26.625 C-5.39439449 22.19966776 -9.48093545 14.95107729 -10.203125 8.0625 C-10.32650448 2.63380282 -10.32650448 2.63380282 -8.9375 -0.0625 C-5.76026699 -1.59987081 -3.32611047 -0.8466463 0 0 Z " fill="#35383B" transform="translate(127,237)"/>
<path d="M0 0 C0.85977448 -0.0010675 1.71954895 -0.00213501 2.6053772 -0.00323486 C17.33851042 0.02309048 31.06504552 1.50752342 45.3125 5.4375 C46.20404785 5.67275391 47.0955957 5.90800781 48.01416016 6.15039062 C69.1013776 11.767459 104.57671364 22.33382046 117.3125 41.4375 C115.83716797 41.82228516 115.83716797 41.82228516 114.33203125 42.21484375 C100.68087852 45.92575576 87.34977228 51.00363378 74.94140625 57.83984375 C71.3125 59.4375 71.3125 59.4375 69.19580078 58.64404297 C66.96079275 57.21217757 65.41758013 55.58483913 63.625 53.625 C38.76903406 28.3222765 3.63324328 11.89853115 -30.6875 4.4375 C-30.6875 3.7775 -30.6875 3.1175 -30.6875 2.4375 C-20.46068824 0.24395608 -10.40907456 -0.00274853 0 0 Z " fill="#FDDBD1" transform="translate(69.6875,95.5625)"/>
<path d="M0 0 C2.28120031 0.01840865 4.56199425 0.02050755 6.84326172 0.02026367 C28.24930909 0.07094361 28.24930909 0.07094361 32.51904297 2.20581055 C32.51904297 2.86581055 32.51904297 3.52581055 32.51904297 4.20581055 C31.63889526 4.40775024 31.63889526 4.40775024 30.7409668 4.61376953 C15.92775901 8.07799801 2.2351857 12.62195554 -11.48095703 19.20581055 C-12.30080078 19.59784668 -13.12064453 19.98988281 -13.96533203 20.39379883 C-33.95185549 30.09665128 -52.1121665 43.12219255 -67.48095703 59.20581055 C-71.47684124 57.98672723 -75.14937011 56.45173449 -78.88745117 54.59057617 C-90.03574042 49.04792389 -101.67482572 45.09997132 -113.48095703 41.20581055 C-110.49401881 36.04450169 -107.31294468 33.2341851 -102.29345703 30.08081055 C-101.56658691 29.61852051 -100.8397168 29.15623047 -100.09082031 28.67993164 C-69.85675765 10.0248717 -35.55179899 -0.29594471 0 0 Z " fill="#FDDBD0" transform="translate(440.48095703125,95.794189453125)"/>
<path d="M0 0 C8.29861111 6.75347222 8.29861111 6.75347222 8.8125 11.25 C6.77296801 14.20732139 3.89003469 15.11630179 0.5625 16.0625 C-6.36900017 17.28207863 -13.40327732 17.22316608 -20.41796875 17.23046875 C-21.54842117 17.23379715 -22.6788736 17.23712555 -23.84358215 17.24055481 C-26.22620235 17.24559571 -28.60882955 17.24796402 -30.99145508 17.24780273 C-34.59663819 17.24998285 -38.20151176 17.26815186 -41.80664062 17.28710938 C-73.29471511 17.36808642 -73.29471511 17.36808642 -79.4375 12.0625 C-79.32955282 8.50024302 -78.16615024 6.35141016 -75.875 3.75 C-55.76011308 -15.16461589 -22.03267285 -15.76120043 0 0 Z " fill="#FEDCD1" transform="translate(291.4375,308.9375)"/>
<path d="M0 0 C-2.39634 6.52834683 -5.90842519 11.19498974 -12.1875 14.375 C-19.67283358 17.77071346 -27.92856457 18.46265119 -35.8984375 16.1640625 C-41.8385443 13.440752 -46.42829715 9.49408726 -50 4 C-50.36213634 2.6741998 -50.6998079 1.34118365 -51 0 C-32.77715788 -4.6280234 -18.26306425 -4.36132878 0 0 Z " fill="#2C9ACA" transform="translate(383,309)"/>
<path d="M0 0 C-2.49619345 6.74896747 -6.19270821 11.26959401 -12.4375 14.9375 C-19.83348907 18.29525673 -28.18129761 18.39691107 -35.9375 16.1484375 C-41.86991498 13.48970274 -46.45220276 9.45731501 -50 4 C-50.36213634 2.6741998 -50.6998079 1.34118365 -51 0 C-32.5846308 -4.58338078 -18.53934949 -3.91837853 0 0 Z " fill="#2C9ACA" transform="translate(180,309)"/>
<path d="M0 0 C1.25554687 0.26554687 2.51109375 0.53109375 3.8046875 0.8046875 C8.10406878 1.71318899 12.40464616 2.6159056 16.70556641 3.51708984 C18.51700505 3.8983439 20.32711386 4.28591619 22.13671875 4.67578125 C33.62507716 7.09925138 45.11586052 7.23743067 56.8125 7.25 C57.63303864 7.25167175 58.45357727 7.25334351 59.29898071 7.25506592 C72.08298791 7.2566258 84.44150014 6.55020415 97 4 C98.36825928 3.72881348 98.36825928 3.72881348 99.76416016 3.45214844 C102.17706344 2.97269648 104.58890031 2.48842716 107 2 C106 5 106 5 104.36791992 5.93554688 C101.98000136 6.81052606 99.59431891 7.67792517 97.1875 8.5 C96.28894287 8.80752197 95.39038574 9.11504395 94.46459961 9.43188477 C65.45834681 18.91688644 35.0110732 16.56194061 7 5 C4.5860422 3.76152998 2.31206034 2.42545725 0 1 C0 0.67 0 0.34 0 0 Z " fill="#F8D7CC" transform="translate(199,412)"/>
<path d="M0 0 C1.05405029 -0.00143509 1.05405029 -0.00143509 2.12939453 -0.00289917 C3.61556081 -0.00357988 5.10173006 -0.0017332 6.58789062 0.00244141 C8.86595319 0.00779125 11.14381859 0.00249278 13.421875 -0.00390625 C14.86458377 -0.00324545 16.30729242 -0.00196425 17.75 0 C19.06742187 0.00112793 20.38484375 0.00225586 21.7421875 0.00341797 C24.875 0.1328125 24.875 0.1328125 26.875 1.1328125 C25.875 4.1328125 25.875 4.1328125 23.79296875 5.30078125 C13.19717779 9.25714955 4.55282221 9.25714955 -6.04296875 5.30078125 C-8.125 4.1328125 -8.125 4.1328125 -9.125 1.1328125 C-6.11895038 -0.37021231 -3.34834028 0.00286673 0 0 Z " fill="#FEDBCF" transform="translate(247.125,363.8671875)"/>
<path d="M0 0 C2.61947644 2.41797825 3.7805279 4.02456844 4.5625 7.5 C3.71291608 11.27592854 2.07076729 12.7132584 -1 15 C-4.95779649 15.62491523 -7.00863886 15.61006839 -10.4375 13.5 C-12.33148168 10.46962931 -12.64334247 8.44169066 -12.4453125 4.91015625 C-12 3 -12 3 -9.9375 0.4375 C-6.0507849 -1.46450952 -4.11088021 -1.2706357 0 0 Z " fill="#F6F6F6" transform="translate(142,280)"/>
<path d="M0 0 C3.71317907 1.14770989 5.2692056 1.85342428 7.4375 5.0625 C8 8 8 8 7.4375 11.0625 C5.375 13.9375 5.375 13.9375 2.4375 16.0625 C-1.55298721 16.69257693 -3.57935857 16.69271887 -7 14.5 C-9.19271887 11.07935857 -9.19257693 9.05298721 -8.5625 5.0625 C-5.90798953 1.20139386 -4.7398766 0.08315573 0 0 Z " fill="#F7F7F7" transform="translate(341.5625,278.9375)"/>
<path d="M0 0 C4.95 0.99 4.95 0.99 10 2 C9.67 2.99 9.34 3.98 9 5 C4.89198233 3.81323934 3.10551666 3.10551666 0 0 Z " fill="#EECDC3" transform="translate(199,412)"/>
</svg>
