<?xml version="1.0" encoding="UTF-8"?>
<svg version="1.1" xmlns="http://www.w3.org/2000/svg" width="512" height="512">
<path d="M0 0 C2.12207409 -0.00962938 4.24314587 -0.04066631 6.36499023 -0.07226562 C24.3605271 -0.21445427 39.18518255 4.17514323 52.37475586 16.87304688 C62.65360285 27.85890451 67.55789098 41.21238908 67.90600586 56.16601562 C67.92678696 56.91360641 67.94756805 57.6611972 67.96897888 58.43144226 C68.0340415 60.80511833 68.09315671 63.17889924 68.15209961 65.55273438 C68.19532607 67.16797932 68.23894165 68.78321391 68.28295898 70.3984375 C68.38967812 74.34559736 68.49106579 78.29286204 68.58959961 82.24023438 C70.71838818 77.32999916 72.84596531 72.41924134 74.97235107 67.50796509 C75.71486119 65.79317439 76.45757638 64.07847246 77.20050049 62.36386108 C83.91112462 46.88073868 83.91112462 46.88073868 90.38061523 31.2956543 C91.54169195 28.47839633 92.41118581 26.41864818 94.58959961 24.24023438 C100.83413143 23.67254966 100.83413143 23.67254966 103.29174805 25.51928711 C105.62960593 28.61927962 104.92697888 32.57422105 104.83959961 36.30273438 C104.82864258 37.26123291 104.81768555 38.21973145 104.80639648 39.20727539 C104.76541309 42.15251115 104.70688081 45.09688398 104.63964844 48.04162598 C104.58352254 50.50719572 104.53083917 52.97282844 104.47827148 55.43847656 C104.21369815 67.70656035 103.91220388 79.9735501 103.58959961 92.24023438 C104.03255371 91.71929199 104.47550781 91.19834961 104.93188477 90.66162109 C123.82822685 68.70620889 151.80674093 55.29728957 180.65576172 53.08154297 C182.8429114 52.96537613 185.02485906 52.90779117 187.21459961 52.86523438 C187.95194336 52.82785156 188.68928711 52.79046875 189.44897461 52.75195312 C193.2576437 52.69052298 195.26323712 52.99511433 198.33569336 55.30273438 C200.87916741 58.61762604 203.02041355 61.95608791 205.02709961 65.61523438 C205.41470459 66.317854 205.80230957 67.02047363 206.20166016 67.74438477 C221.43261597 95.94740126 224.58722314 127.54958099 215.99707031 158.37548828 C211.53482609 173.29846343 204.01706675 189.44296614 192.40209961 199.92773438 C189.39377842 203.04798748 189.39377842 203.04798748 188.57055664 207.15527344 C189.28184631 212.04867233 190.94346224 216.59613167 192.58959961 221.24023438 C192.95923131 222.89922844 193.31070097 224.56359952 193.58959961 226.24023438 C198.5235249 225.64008763 203.03734907 224.63082703 207.80834961 223.17382812 C209.16634809 222.76667872 210.52442337 222.3597854 211.88256836 221.953125 C213.9899874 221.31588981 216.09640054 220.67565007 218.20141602 220.03051758 C220.25545657 219.4031999 222.3128119 218.78788415 224.37084961 218.17382812 C225.58836914 217.80314209 226.80588867 217.43245605 228.06030273 217.05053711 C232.25254283 216.08802709 236.65684457 215.11798952 240.52709961 217.36523438 C242.09773 220.13693506 241.92067263 222.09698819 241.58959961 225.24023438 C239.82397461 227.47851562 239.82397461 227.47851562 237.33959961 229.55273438 C236.42307617 230.32359375 235.50655273 231.09445312 234.56225586 231.88867188 C230.6687261 234.96870461 226.73082636 237.97498835 222.73413086 240.91992188 C219.44836277 243.34445138 216.20044068 245.8122703 212.96459961 248.30273438 C212.42496582 248.71692627 211.88533203 249.13111816 211.3293457 249.55786133 C206.98847986 252.90199911 202.73547052 256.3469272 198.51538086 259.84179688 C196.58959961 261.24023438 196.58959961 261.24023438 194.58959961 261.24023438 C194.56381836 261.93246094 194.53803711 262.6246875 194.51147461 263.33789062 C193.91151921 273.6871213 191.63967385 283.66898269 187.58959961 293.24023438 C188.17789551 293.51770508 188.76619141 293.79517578 189.37231445 294.08105469 C191.46285716 295.1739744 193.20238876 296.34879085 195.06616211 297.78710938 C195.72745117 298.295 196.38874023 298.80289062 197.07006836 299.32617188 C198.13161133 300.14988281 198.13161133 300.14988281 199.21459961 300.99023438 C199.9609668 301.56515625 200.70733398 302.14007813 201.47631836 302.73242188 C207.60628992 307.46037991 213.71368642 312.2177099 219.81835938 316.97827148 C225.97226944 321.77360461 232.16375565 326.51850612 238.37280273 331.2421875 C239.37923828 332.00885742 239.37923828 332.00885742 240.40600586 332.79101562 C240.99841064 333.24130127 241.59081543 333.69158691 242.20117188 334.15551758 C243.58959961 335.24023438 243.58959961 335.24023438 244.58959961 336.24023438 C245.16652269 342.47100361 245.16652269 342.47100361 243.08959961 345.24023438 C236.16865952 348.00861041 226.91236471 343.76135373 220.1681118 341.77041245 C218.09748458 341.15957207 216.02462663 340.55691726 213.95100403 339.95632935 C208.06169939 338.24889447 202.17699502 336.52581669 196.29296875 334.80029297 C192.68076654 333.74159481 189.06622699 332.69121366 185.45018959 331.64569473 C183.4079998 331.05231129 181.36888042 330.44908555 179.32963562 329.84567261 C178.09437637 329.48845123 176.85911713 329.13122986 175.58642578 328.76318359 C174.49802902 328.44421112 173.40963226 328.12523865 172.28825378 327.79660034 C169.50907756 326.98859158 169.50907756 326.98859158 166.58959961 328.24023438 C164.87345112 329.89558648 164.87345112 329.89558648 163.21459961 331.92773438 C162.59713867 332.6521875 161.97967773 333.37664062 161.34350586 334.12304688 C159.92660495 335.83342615 158.5352411 337.56494122 157.15209961 339.30273438 C153.91844825 343.00960301 150.36496565 346.09854285 146.58959961 349.24023438 C145.85999023 349.85769531 145.13038086 350.47515625 144.37866211 351.11132812 C98.10427871 389.31459814 35.85962415 402.97561405 -23.03588867 397.41943359 C-66.9980717 392.64218002 -112.44733749 376.75182729 -144.79711914 345.71289062 C-147.41625901 343.17139608 -147.41625901 343.17139608 -150.43774414 340.78710938 C-155.08209186 336.8079836 -158.61786058 332.0096405 -162.41040039 327.24023438 C-172.14226011 329.53463927 -181.75370262 332.16156265 -191.35571289 334.94726562 C-192.50336121 335.27886688 -193.65100952 335.61046814 -194.83343506 335.95211792 C-199.62196472 337.33646722 -204.40995414 338.72223784 -209.19262695 340.12670898 C-212.72295629 341.1616489 -216.2575447 342.18073857 -219.79321289 343.19726562 C-220.87136261 343.51798538 -221.94951233 343.83870514 -223.06033325 344.16914368 C-232.58042617 346.88152116 -232.58042617 346.88152116 -237.41040039 345.24023438 C-239.41040039 343.24023438 -239.41040039 343.24023438 -239.98852539 340.01367188 C-239.15867938 334.59724457 -236.42354355 332.99719288 -232.16040039 329.86523438 C-231.4267627 329.29925537 -230.693125 328.73327637 -229.93725586 328.15014648 C-227.7773138 326.49142598 -225.59760787 324.86275031 -223.41040039 323.24023438 C-221.87512695 322.07814453 -221.87512695 322.07814453 -220.30883789 320.89257812 C-218.43866597 319.48336407 -216.56219175 318.0824801 -214.67993164 316.68945312 C-208.9795554 312.44903979 -203.40632374 308.03955822 -197.80493164 303.66992188 C-196.73299561 302.83605957 -196.73299561 302.83605957 -195.6394043 301.98535156 C-194.06171865 300.75016021 -192.49181221 299.50500254 -190.92749023 298.25292969 C-190.12134277 297.61194336 -189.31519531 296.97095703 -188.48461914 296.31054688 C-187.75202881 295.72289551 -187.01943848 295.13524414 -186.26464844 294.52978516 C-184.41040039 293.24023438 -184.41040039 293.24023438 -182.41040039 293.24023438 C-182.89959961 291.78617187 -182.89959961 291.78617187 -183.39868164 290.30273438 C-183.84191867 288.94916584 -184.28316832 287.59494561 -184.72290039 286.24023438 C-184.95871826 285.52343506 -185.19453613 284.80663574 -185.4375 284.06811523 C-186.83449407 279.64759584 -187.70507234 275.44879813 -188.22314453 270.84814453 C-188.81256019 266.02104347 -189.42590121 262.33073184 -192.80493164 258.58789062 C-195.90967205 256.27255997 -199.10549299 254.25776505 -202.41040039 252.24023438 C-204.47222844 250.70443682 -206.51363337 249.14089908 -208.53540039 247.55273438 C-209.60757357 246.72364701 -210.68052274 245.8955624 -211.75415039 245.06835938 C-212.32649414 244.62556641 -212.89883789 244.18277344 -213.48852539 243.7265625 C-214.88884248 242.6435937 -216.2899982 241.56170901 -217.69165039 240.48046875 C-220.14135509 238.59019181 -222.58862422 236.69679998 -225.03540039 234.80273438 C-226.2093335 233.89744995 -226.2093335 233.89744995 -227.40698242 232.97387695 C-228.14287598 232.40306396 -228.87876953 231.83225098 -229.63696289 231.24414062 C-230.2926123 230.7369751 -230.94826172 230.22980957 -231.6237793 229.70727539 C-236.33565022 225.83823571 -236.33565022 225.83823571 -236.78540039 222.24023438 C-236.41040039 219.24023438 -236.41040039 219.24023438 -235.34790039 217.36523438 C-231.35196118 215.04501161 -226.86072599 216.13292566 -222.55810547 217.15820312 C-221.17917923 217.57193823 -219.80318674 217.99554837 -218.42993164 218.42773438 C-217.69465744 218.64969482 -216.95938324 218.87165527 -216.201828 219.1003418 C-213.87264119 219.80456672 -211.54760879 220.52137674 -209.22290039 221.24023438 C-206.88708612 221.95761318 -204.55050572 222.67210428 -202.21183777 223.38012695 C-200.76208235 223.81948604 -199.31399559 224.26439999 -197.86787415 224.71557617 C-194.51613104 225.73569532 -191.95593622 226.24023438 -188.41040039 226.24023438 C-187.51197455 223.16323763 -186.6458636 220.07804245 -185.78540039 216.99023438 C-185.53016602 216.11753906 -185.27493164 215.24484375 -185.01196289 214.34570312 C-184.77993164 213.50136719 -184.54790039 212.65703125 -184.30883789 211.78710938 C-184.0888916 211.01206055 -183.86894531 210.23701172 -183.64233398 209.43847656 C-183.35600785 206.7247076 -183.97440655 205.52161664 -185.41040039 203.24023438 C-186.37890538 202.12865478 -187.38282685 201.04744946 -188.41040039 199.99023438 C-208.93846358 176.81614225 -216.97654241 145.61178851 -215.41040039 115.24023438 C-213.84896868 96.39744981 -207.93441446 79.2556572 -198.40209961 62.99755859 C-197.29329323 61.09496315 -197.29329323 61.09496315 -196.13305664 58.40039062 C-194.77257769 55.79395115 -193.99163005 54.67633669 -191.41040039 53.24023438 C-165.11523951 49.26601751 -136.64563072 60.68187515 -115.60180664 75.72070312 C-110.73473499 79.44974114 -106.31332739 83.69038259 -101.89477539 87.93164062 C-99.85354571 90.35368706 -99.85354571 90.35368706 -98.41040039 90.24023438 C-98.44069336 89.1489624 -98.47098633 88.05769043 -98.50219727 86.93334961 C-98.8163447 75.5092024 -99.10268589 64.08458864 -99.35644531 52.65893555 C-99.39035347 51.13889888 -99.42492306 49.61887667 -99.46044922 48.09887695 C-99.55096666 44.2085631 -99.61615747 40.31883429 -99.66040039 36.42773438 C-99.69230469 35.05476196 -99.69230469 35.05476196 -99.72485352 33.65405273 C-99.75747893 27.69816714 -99.75747893 27.69816714 -98.10864258 25.52270508 C-95.26615158 23.37612584 -92.82611484 23.81327007 -89.41040039 24.24023438 C-87.08137931 26.79929876 -85.71451519 29.50876809 -84.38916016 32.68237305 C-84.02190323 33.55395554 -83.6546463 34.42553802 -83.27626038 35.3235321 C-82.69490578 36.72669426 -82.69490578 36.72669426 -82.10180664 38.15820312 C-81.69381332 39.13002029 -81.28582001 40.10183746 -80.86546326 41.10310364 C-79.56267441 44.20913864 -78.26755487 47.31830116 -76.97290039 50.42773438 C-75.68022264 53.51862654 -74.38597287 56.60885491 -73.09104919 59.69880676 C-72.28686871 61.619245 -71.48425403 63.54033995 -70.68348694 65.46220398 C-68.33434111 71.08976242 -65.91385269 76.67956365 -63.41040039 82.24023438 C-63.39581787 81.27311523 -63.38123535 80.30599609 -63.36621094 79.30957031 C-63.30750187 75.66371741 -63.23028629 72.01843626 -63.14794922 68.37304688 C-63.1150366 66.80608516 -63.08690423 65.23901445 -63.06396484 63.671875 C-62.78218214 44.91833684 -59.25517567 28.77434354 -45.54321289 15.00976562 C-32.68097633 3.04862625 -16.97926294 0.04642843 0 0 Z " fill="#E8E2C4" transform="translate(253.410400390625,56.759765625)"/>
<path d="M0 0 C2.12207409 -0.00962938 4.24314587 -0.04066631 6.36499023 -0.07226562 C24.3605271 -0.21445427 39.18518255 4.17514323 52.37475586 16.87304688 C62.65360285 27.85890451 67.55789098 41.21238908 67.90600586 56.16601562 C67.92678696 56.91360641 67.94756805 57.6611972 67.96897888 58.43144226 C68.0340415 60.80511833 68.09315671 63.17889924 68.15209961 65.55273438 C68.19532607 67.16797932 68.23894165 68.78321391 68.28295898 70.3984375 C68.38967812 74.34559736 68.49106579 78.29286204 68.58959961 82.24023438 C70.71838818 77.32999916 72.84596531 72.41924134 74.97235107 67.50796509 C75.71486119 65.79317439 76.45757638 64.07847246 77.20050049 62.36386108 C83.91112462 46.88073868 83.91112462 46.88073868 90.38061523 31.2956543 C91.54169195 28.47839633 92.41118581 26.41864818 94.58959961 24.24023438 C100.83413143 23.67254966 100.83413143 23.67254966 103.29174805 25.51928711 C105.62960593 28.61927962 104.92697888 32.57422105 104.83959961 36.30273438 C104.82864258 37.26123291 104.81768555 38.21973145 104.80639648 39.20727539 C104.76541309 42.15251115 104.70688081 45.09688398 104.63964844 48.04162598 C104.58352254 50.50719572 104.53083917 52.97282844 104.47827148 55.43847656 C104.21369815 67.70656035 103.91220388 79.9735501 103.58959961 92.24023438 C104.03255371 91.71929199 104.47550781 91.19834961 104.93188477 90.66162109 C123.82822685 68.70620889 151.80674093 55.29728957 180.65576172 53.08154297 C182.8429114 52.96537613 185.02485906 52.90779117 187.21459961 52.86523438 C187.95194336 52.82785156 188.68928711 52.79046875 189.44897461 52.75195312 C193.2576437 52.69052298 195.26323712 52.99511433 198.33569336 55.30273438 C200.87916741 58.61762604 203.02041355 61.95608791 205.02709961 65.61523438 C205.41470459 66.317854 205.80230957 67.02047363 206.20166016 67.74438477 C221.43261597 95.94740126 224.58722314 127.54958099 215.99707031 158.37548828 C211.53482609 173.29846343 204.01706675 189.44296614 192.40209961 199.92773438 C189.39377842 203.04798748 189.39377842 203.04798748 188.57055664 207.15527344 C189.28184631 212.04867233 190.94346224 216.59613167 192.58959961 221.24023438 C192.95923131 222.89922844 193.31070097 224.56359952 193.58959961 226.24023438 C198.5235249 225.64008763 203.03734907 224.63082703 207.80834961 223.17382812 C209.16634809 222.76667872 210.52442337 222.3597854 211.88256836 221.953125 C213.9899874 221.31588981 216.09640054 220.67565007 218.20141602 220.03051758 C220.25545657 219.4031999 222.3128119 218.78788415 224.37084961 218.17382812 C225.58836914 217.80314209 226.80588867 217.43245605 228.06030273 217.05053711 C232.25254283 216.08802709 236.65684457 215.11798952 240.52709961 217.36523438 C242.09773 220.13693506 241.92067263 222.09698819 241.58959961 225.24023438 C239.82397461 227.47851562 239.82397461 227.47851562 237.33959961 229.55273438 C236.42307617 230.32359375 235.50655273 231.09445312 234.56225586 231.88867188 C230.6687261 234.96870461 226.73082636 237.97498835 222.73413086 240.91992188 C219.44836277 243.34445138 216.20044068 245.8122703 212.96459961 248.30273438 C212.42496582 248.71692627 211.88533203 249.13111816 211.3293457 249.55786133 C206.98847986 252.90199911 202.73547052 256.3469272 198.51538086 259.84179688 C196.58959961 261.24023438 196.58959961 261.24023438 194.58959961 261.24023438 C194.56381836 261.93246094 194.53803711 262.6246875 194.51147461 263.33789062 C193.91151921 273.6871213 191.63967385 283.66898269 187.58959961 293.24023438 C188.17789551 293.51770508 188.76619141 293.79517578 189.37231445 294.08105469 C191.46285716 295.1739744 193.20238876 296.34879085 195.06616211 297.78710938 C195.72745117 298.295 196.38874023 298.80289062 197.07006836 299.32617188 C198.13161133 300.14988281 198.13161133 300.14988281 199.21459961 300.99023438 C199.9609668 301.56515625 200.70733398 302.14007813 201.47631836 302.73242188 C207.60628992 307.46037991 213.71368642 312.2177099 219.81835938 316.97827148 C225.97226944 321.77360461 232.16375565 326.51850612 238.37280273 331.2421875 C239.37923828 332.00885742 239.37923828 332.00885742 240.40600586 332.79101562 C240.99841064 333.24130127 241.59081543 333.69158691 242.20117188 334.15551758 C243.58959961 335.24023438 243.58959961 335.24023438 244.58959961 336.24023438 C245.16652269 342.47100361 245.16652269 342.47100361 243.08959961 345.24023438 C236.16865952 348.00861041 226.91236471 343.76135373 220.1681118 341.77041245 C218.09748458 341.15957207 216.02462663 340.55691726 213.95100403 339.95632935 C208.06169939 338.24889447 202.17699502 336.52581669 196.29296875 334.80029297 C192.68076654 333.74159481 189.06622699 332.69121366 185.45018959 331.64569473 C183.4079998 331.05231129 181.36888042 330.44908555 179.32963562 329.84567261 C178.09437637 329.48845123 176.85911713 329.13122986 175.58642578 328.76318359 C174.49802902 328.44421112 173.40963226 328.12523865 172.28825378 327.79660034 C169.50907756 326.98859158 169.50907756 326.98859158 166.58959961 328.24023438 C164.87345112 329.89558648 164.87345112 329.89558648 163.21459961 331.92773438 C162.59713867 332.6521875 161.97967773 333.37664062 161.34350586 334.12304688 C159.92660495 335.83342615 158.5352411 337.56494122 157.15209961 339.30273438 C153.91844825 343.00960301 150.36496565 346.09854285 146.58959961 349.24023438 C145.85999023 349.85769531 145.13038086 350.47515625 144.37866211 351.11132812 C98.10427871 389.31459814 35.85962415 402.97561405 -23.03588867 397.41943359 C-66.9980717 392.64218002 -112.44733749 376.75182729 -144.79711914 345.71289062 C-147.41625901 343.17139608 -147.41625901 343.17139608 -150.43774414 340.78710938 C-155.08209186 336.8079836 -158.61786058 332.0096405 -162.41040039 327.24023438 C-172.14226011 329.53463927 -181.75370262 332.16156265 -191.35571289 334.94726562 C-192.50336121 335.27886688 -193.65100952 335.61046814 -194.83343506 335.95211792 C-199.62196472 337.33646722 -204.40995414 338.72223784 -209.19262695 340.12670898 C-212.72295629 341.1616489 -216.2575447 342.18073857 -219.79321289 343.19726562 C-220.87136261 343.51798538 -221.94951233 343.83870514 -223.06033325 344.16914368 C-232.58042617 346.88152116 -232.58042617 346.88152116 -237.41040039 345.24023438 C-239.41040039 343.24023438 -239.41040039 343.24023438 -239.98852539 340.01367188 C-239.15867938 334.59724457 -236.42354355 332.99719288 -232.16040039 329.86523438 C-231.4267627 329.29925537 -230.693125 328.73327637 -229.93725586 328.15014648 C-227.7773138 326.49142598 -225.59760787 324.86275031 -223.41040039 323.24023438 C-221.87512695 322.07814453 -221.87512695 322.07814453 -220.30883789 320.89257812 C-218.43866597 319.48336407 -216.56219175 318.0824801 -214.67993164 316.68945312 C-208.9795554 312.44903979 -203.40632374 308.03955822 -197.80493164 303.66992188 C-196.73299561 302.83605957 -196.73299561 302.83605957 -195.6394043 301.98535156 C-194.06171865 300.75016021 -192.49181221 299.50500254 -190.92749023 298.25292969 C-190.12134277 297.61194336 -189.31519531 296.97095703 -188.48461914 296.31054688 C-187.75202881 295.72289551 -187.01943848 295.13524414 -186.26464844 294.52978516 C-184.41040039 293.24023438 -184.41040039 293.24023438 -182.41040039 293.24023438 C-182.89959961 291.78617187 -182.89959961 291.78617187 -183.39868164 290.30273438 C-183.84191867 288.94916584 -184.28316832 287.59494561 -184.72290039 286.24023438 C-184.95871826 285.52343506 -185.19453613 284.80663574 -185.4375 284.06811523 C-186.83449407 279.64759584 -187.70507234 275.44879813 -188.22314453 270.84814453 C-188.81256019 266.02104347 -189.42590121 262.33073184 -192.80493164 258.58789062 C-195.90967205 256.27255997 -199.10549299 254.25776505 -202.41040039 252.24023438 C-204.47222844 250.70443682 -206.51363337 249.14089908 -208.53540039 247.55273438 C-209.60757357 246.72364701 -210.68052274 245.8955624 -211.75415039 245.06835938 C-212.32649414 244.62556641 -212.89883789 244.18277344 -213.48852539 243.7265625 C-214.88884248 242.6435937 -216.2899982 241.56170901 -217.69165039 240.48046875 C-220.14135509 238.59019181 -222.58862422 236.69679998 -225.03540039 234.80273438 C-226.2093335 233.89744995 -226.2093335 233.89744995 -227.40698242 232.97387695 C-228.14287598 232.40306396 -228.87876953 231.83225098 -229.63696289 231.24414062 C-230.2926123 230.7369751 -230.94826172 230.22980957 -231.6237793 229.70727539 C-236.33565022 225.83823571 -236.33565022 225.83823571 -236.78540039 222.24023438 C-236.41040039 219.24023438 -236.41040039 219.24023438 -235.34790039 217.36523438 C-231.35196118 215.04501161 -226.86072599 216.13292566 -222.55810547 217.15820312 C-221.17917923 217.57193823 -219.80318674 217.99554837 -218.42993164 218.42773438 C-217.69465744 218.64969482 -216.95938324 218.87165527 -216.201828 219.1003418 C-213.87264119 219.80456672 -211.54760879 220.52137674 -209.22290039 221.24023438 C-206.88708612 221.95761318 -204.55050572 222.67210428 -202.21183777 223.38012695 C-200.76208235 223.81948604 -199.31399559 224.26439999 -197.86787415 224.71557617 C-194.51613104 225.73569532 -191.95593622 226.24023438 -188.41040039 226.24023438 C-187.51197455 223.16323763 -186.6458636 220.07804245 -185.78540039 216.99023438 C-185.53016602 216.11753906 -185.27493164 215.24484375 -185.01196289 214.34570312 C-184.77993164 213.50136719 -184.54790039 212.65703125 -184.30883789 211.78710938 C-184.0888916 211.01206055 -183.86894531 210.23701172 -183.64233398 209.43847656 C-183.35600785 206.7247076 -183.97440655 205.52161664 -185.41040039 203.24023438 C-186.37890538 202.12865478 -187.38282685 201.04744946 -188.41040039 199.99023438 C-208.93846358 176.81614225 -216.97654241 145.61178851 -215.41040039 115.24023438 C-213.84896868 96.39744981 -207.93441446 79.2556572 -198.40209961 62.99755859 C-197.29329323 61.09496315 -197.29329323 61.09496315 -196.13305664 58.40039062 C-194.77257769 55.79395115 -193.99163005 54.67633669 -191.41040039 53.24023438 C-165.11523951 49.26601751 -136.64563072 60.68187515 -115.60180664 75.72070312 C-110.73473499 79.44974114 -106.31332739 83.69038259 -101.89477539 87.93164062 C-99.85354571 90.35368706 -99.85354571 90.35368706 -98.41040039 90.24023438 C-98.44069336 89.1489624 -98.47098633 88.05769043 -98.50219727 86.93334961 C-98.8163447 75.5092024 -99.10268589 64.08458864 -99.35644531 52.65893555 C-99.39035347 51.13889888 -99.42492306 49.61887667 -99.46044922 48.09887695 C-99.55096666 44.2085631 -99.61615747 40.31883429 -99.66040039 36.42773438 C-99.69230469 35.05476196 -99.69230469 35.05476196 -99.72485352 33.65405273 C-99.75747893 27.69816714 -99.75747893 27.69816714 -98.10864258 25.52270508 C-95.26615158 23.37612584 -92.82611484 23.81327007 -89.41040039 24.24023438 C-87.08137931 26.79929876 -85.71451519 29.50876809 -84.38916016 32.68237305 C-84.02190323 33.55395554 -83.6546463 34.42553802 -83.27626038 35.3235321 C-82.69490578 36.72669426 -82.69490578 36.72669426 -82.10180664 38.15820312 C-81.69381332 39.13002029 -81.28582001 40.10183746 -80.86546326 41.10310364 C-79.56267441 44.20913864 -78.26755487 47.31830116 -76.97290039 50.42773438 C-75.68022264 53.51862654 -74.38597287 56.60885491 -73.09104919 59.69880676 C-72.28686871 61.619245 -71.48425403 63.54033995 -70.68348694 65.46220398 C-68.33434111 71.08976242 -65.91385269 76.67956365 -63.41040039 82.24023438 C-63.39581787 81.27311523 -63.38123535 80.30599609 -63.36621094 79.30957031 C-63.30750187 75.66371741 -63.23028629 72.01843626 -63.14794922 68.37304688 C-63.1150366 66.80608516 -63.08690423 65.23901445 -63.06396484 63.671875 C-62.78218214 44.91833684 -59.25517567 28.77434354 -45.54321289 15.00976562 C-32.68097633 3.04862625 -16.97926294 0.04642843 0 0 Z M-86.41040039 62.24023438 C-86.40595917 63.06264618 -86.40151794 63.88505798 -86.39694214 64.73239136 C-86.35691367 72.47245354 -86.32644064 80.21246572 -86.30677605 87.95260429 C-86.29632653 91.9321521 -86.28214617 95.91161459 -86.25952148 99.89111328 C-86.23783454 103.72957323 -86.22584057 107.56795096 -86.2206459 111.40646744 C-86.21694266 112.87293925 -86.20971139 114.33940642 -86.19894028 115.80584335 C-86.1844802 117.85552543 -86.1824201 119.90486519 -86.18334961 121.95458984 C-86.17890839 123.12263153 -86.17446716 124.29067322 -86.16989136 125.49411011 C-86.41040039 128.24023438 -86.41040039 128.24023438 -88.41040039 130.24023438 C-90.91040039 130.49023438 -90.91040039 130.49023438 -93.41040039 130.24023438 C-96.18082148 127.46981328 -95.80836145 125.47489632 -96.03540039 121.61523438 C-96.14754883 119.83246094 -96.14754883 119.83246094 -96.26196289 118.01367188 C-96.31094727 117.0984375 -96.35993164 116.18320313 -96.41040039 115.24023438 C-101.46611894 116.81160636 -105.02984262 119.84859033 -109.03540039 123.17773438 C-110.13996582 124.09558716 -110.13996582 124.09558716 -111.2668457 125.03198242 C-142.49897922 151.46245439 -168.55655918 186.30786195 -176.41040039 227.24023438 C-176.41040039 228.89023437 -176.41040039 230.54023438 -176.41040039 232.24023438 C-164.20040039 235.87023437 -151.99040039 239.50023437 -139.41040039 243.24023438 C-138.41040039 249.24023438 -138.41040039 249.24023438 -138.41040039 251.24023438 C-148.04517864 251.95853295 -156.42919395 249.28827597 -165.53540039 246.55273438 C-167.04025925 246.11208599 -168.54546656 245.67262581 -170.05102539 245.234375 C-176.05246037 243.4774268 -182.04222604 241.69688687 -187.98754883 239.75732422 C-188.71956512 239.52055466 -189.45158142 239.2837851 -190.20578003 239.0398407 C-191.59554049 238.5878511 -192.982863 238.12827241 -194.36721802 237.6599884 C-198.34777801 236.35731692 -198.34777801 236.35731692 -202.41040039 237.24023438 C-194.26938049 243.59290379 -186.12745997 249.94439597 -177.92358398 256.21582031 C-176.5393583 257.27409683 -175.1568687 258.33464799 -173.77612305 259.39746094 C-170.07996227 262.23559985 -166.3520198 265.01414026 -162.56665039 267.73242188 C-161.77718018 268.30919678 -160.98770996 268.88597168 -160.17431641 269.48022461 C-158.65768834 270.58685856 -157.12988306 271.67838242 -155.58984375 272.75219727 C-150.60383302 276.4229562 -150.60383302 276.4229562 -149.66430664 280.39257812 C-150.62668089 284.06572383 -151.74040114 284.82338191 -154.91040039 286.86523438 C-155.91458008 287.54199219 -156.91875977 288.21875 -157.95336914 288.91601562 C-158.78553955 289.46829834 -158.78553955 289.46829834 -159.63452148 290.03173828 C-162.91156705 292.26178716 -166.05947561 294.66558911 -169.22290039 297.05273438 C-169.90392822 297.56384766 -170.58495605 298.07496094 -171.28662109 298.6015625 C-176.91834099 302.83847649 -182.46421398 307.17827302 -187.99243164 311.54882812 C-193.42104363 315.83606383 -198.91848293 320.03462981 -204.41040039 324.24023438 C-201.12515242 325.33531703 -200.32786794 325.16882735 -197.11352539 324.27148438 C-195.81523804 323.91425293 -195.81523804 323.91425293 -194.49072266 323.54980469 C-193.55671631 323.28264648 -192.62270996 323.01548828 -191.66040039 322.74023438 C-190.69481201 322.47049805 -189.72922363 322.20076172 -188.734375 321.92285156 C-179.56564902 319.33803151 -170.4530551 316.56773278 -161.35180664 313.75585938 C-159.70495918 313.24971317 -158.05784913 312.74442003 -156.41040039 312.24023438 C-155.72486084 312.02979492 -155.03932129 311.81935547 -154.33300781 311.60253906 C-150.22284286 310.37737805 -146.71233494 309.90282774 -142.41040039 310.24023438 C-140.41040039 312.24023438 -140.41040039 312.24023438 -140.16040039 314.74023438 C-140.41040039 317.24023438 -140.41040039 317.24023438 -142.41040039 319.24023438 C-144.35571289 320.09179687 -144.35571289 320.09179687 -146.53540039 320.86523438 C-147.25985352 321.125625 -147.98430664 321.38601563 -148.73071289 321.65429688 C-149.28500977 321.84765625 -149.83930664 322.04101562 -150.41040039 322.24023438 C-125.67475745 357.1238334 -79.01087151 376.25968921 -38.28686523 383.59814453 C-24.7190481 385.84549048 -11.39912973 386.61078213 2.33959961 386.55273438 C3.21634338 386.5512439 4.09308716 386.54975342 4.99639893 386.54821777 C18.08450708 386.50827047 30.74475796 385.92915677 43.58959961 383.24023438 C45.11559043 382.94700092 46.64163257 382.65403439 48.16772461 382.36132812 C80.6722714 375.85138683 113.59914642 362.41033641 138.58959961 340.24023438 C139.1380957 339.75731934 139.6865918 339.2744043 140.25170898 338.77685547 C142.02021802 337.21297137 143.77596227 335.63603499 145.52709961 334.05273438 C146.34343872 333.32207764 146.34343872 333.32207764 147.17626953 332.57666016 C150.6126804 329.41192562 153.1413445 326.22233607 155.58959961 322.24023438 C154.95151367 321.96308594 154.31342773 321.6859375 153.65600586 321.40039062 C152.8297168 321.03816406 152.00342773 320.6759375 151.15209961 320.30273438 C150.32838867 319.94308594 149.50467773 319.5834375 148.65600586 319.21289062 C146.58959961 318.24023438 146.58959961 318.24023438 145.58959961 317.24023438 C145.40209961 314.80273437 145.40209961 314.80273437 145.58959961 312.24023438 C146.24959961 311.58023438 146.90959961 310.92023438 147.58959961 310.24023438 C154.7352844 310.56067668 161.22521096 312.38666892 168.04663086 314.43554688 C170.23214918 315.0749674 172.41769691 315.71428739 174.60327148 316.35351562 C178.01881158 317.36236657 181.4333431 318.37452041 184.84716797 319.38916016 C188.1612729 320.37127525 191.47870755 321.34142449 194.79663086 322.31054688 C195.81956741 322.61880402 196.84250397 322.92706116 197.8964386 323.24465942 C198.8481041 323.52179779 199.79976959 323.79893616 200.78027344 324.08447266 C201.61472488 324.33238556 202.44917633 324.58029846 203.30891418 324.83572388 C205.75949561 325.27036774 207.25175459 325.0274437 209.58959961 324.24023438 C199.65837288 316.41659917 189.69661061 308.63296281 179.70678711 300.88427734 C177.759088 299.37184586 175.81460076 297.85538983 173.87084961 296.33789062 C172.75654299 295.47164913 171.64197326 294.60574595 170.52709961 293.74023438 C169.51131836 292.95132813 168.49553711 292.16242188 167.44897461 291.34960938 C164.13724701 288.90653164 160.70154458 286.77789874 157.10131836 284.78710938 C155.58959961 283.24023438 155.58959961 283.24023438 155.02319336 280.34960938 C155.80353731 276.06579017 157.43216351 275.21730067 160.96459961 272.74023438 C162.16102652 271.87719384 163.35627297 271.01251524 164.55053711 270.14648438 C165.52458496 269.45232422 165.52458496 269.45232422 166.51831055 268.74414062 C170.28521264 266.0090962 173.92734748 263.11295396 177.58959961 260.24023438 C179.12807165 259.04155948 180.66712754 257.84363354 182.20678711 256.64648438 C182.94767578 256.07027344 183.68856445 255.4940625 184.4519043 254.90039062 C192.11548513 248.94877463 199.80860031 243.0378417 207.58959961 237.24023438 C203.89085574 236.00731975 202.81233966 236.6434857 199.20678711 237.95898438 C192.78025922 240.20875233 186.29811128 242.01337153 179.71459961 243.74023438 C172.59679888 245.62133139 165.50827285 247.53566492 158.46459961 249.67773438 C153.63522833 251.08930434 149.6029784 251.64130468 144.58959961 251.24023438 C143.90209961 248.42773437 143.90209961 248.42773437 143.58959961 245.24023438 C145.89760969 241.91770871 148.98959396 241.30722116 152.76147461 240.26757812 C153.98350586 239.92533203 155.20553711 239.58308594 156.46459961 239.23046875 C157.75619623 238.87929958 159.04786351 238.52839015 160.33959961 238.17773438 C161.60288086 237.82646484 162.86616211 237.47519531 164.16772461 237.11328125 C166.53463295 236.45566859 168.90268201 235.80213793 171.2722168 235.15405273 C174.71808429 234.20484152 178.15432551 233.226991 181.58959961 232.24023438 C181.1837726 224.75785465 179.98661094 218.12509116 177.52709961 211.05273438 C177.21909424 210.1492627 176.91108887 209.24579102 176.59375 208.31494141 C173.62994639 199.88836804 169.83462959 192.08259904 165.58959961 184.24023438 C165.0984668 183.27085937 164.60733398 182.30148438 164.10131836 181.30273438 C150.68108744 155.29394882 127.68496207 131.47591908 103.58959961 115.24023438 C102.92959961 115.24023438 102.26959961 115.24023438 101.58959961 115.24023438 C101.54061523 116.15546875 101.49163086 117.07070312 101.44116211 118.01367188 C101.36639648 119.2021875 101.29163086 120.39070313 101.21459961 121.61523438 C101.14499023 122.79859375 101.07538086 123.98195312 101.00366211 125.20117188 C100.58959961 128.24023438 100.58959961 128.24023438 98.58959961 130.24023438 C96.08959961 130.49023438 96.08959961 130.49023438 93.58959961 130.24023438 C91.58959961 128.24023438 91.58959961 128.24023438 91.34909058 125.49411011 C91.3535318 124.32606842 91.35797302 123.15802673 91.36254883 121.95458984 C91.36225677 121.31056213 91.36196472 120.66653442 91.36166382 120.00299072 C91.36305887 117.8709981 91.37862787 115.73935355 91.39428711 113.60742188 C91.39801663 112.13054597 91.40086389 110.65366759 91.40286255 109.17678833 C91.41050387 105.2870604 91.43015653 101.39748149 91.45227051 97.5078125 C91.47271826 93.53973405 91.48186197 89.57163156 91.49194336 85.60351562 C91.51340205 77.81568722 91.54754389 70.02798167 91.58959961 62.24023438 C88.96184903 63.55410966 88.78831866 64.68560953 87.66601562 67.37353516 C87.29545547 68.25179962 86.92489532 69.13006409 86.54310608 70.03494263 C86.14723801 70.99214203 85.75136993 71.94934143 85.34350586 72.93554688 C84.72583595 74.40675491 84.72583595 74.40675491 84.09568787 75.90768433 C82.77486853 79.05761062 81.46335228 82.21131527 80.15209961 85.36523438 C79.27185836 87.4696597 78.39100645 89.57382971 77.50952148 91.67773438 C75.52477229 96.41661912 73.54039945 101.15563363 71.57998657 105.90464783 C70.9708016 107.34126227 70.33755158 108.76828686 69.66537476 110.17652893 C67.59765336 114.53813233 67.20931784 118.13621494 67.18334961 122.93945312 C67.16709534 124.01390434 67.16709534 124.01390434 67.1505127 125.11006165 C67.11653608 127.38271133 67.10073519 129.65486548 67.08959961 131.92773438 C66.99356068 151.30045678 64.04894932 168.58879781 49.95678711 183.06054688 C36.89474054 195.0879759 22.1653011 198.44230752 4.88232422 198.53540039 C3.41152254 198.54683191 1.94075938 198.56714106 0.47021484 198.59692383 C-16.87727615 198.94727934 -32.26042652 195.23513873 -45.28540039 182.92773438 C-49.48279891 178.45708749 -52.5990859 173.67372294 -55.41040039 168.24023438 C-55.80098633 167.48742187 -56.19157227 166.73460937 -56.59399414 165.95898438 C-60.31705536 158.21283503 -61.62008298 150.8852812 -61.19165039 142.30273438 C-60.12177692 117.0198518 -68.46658757 97.78032681 -79.40673828 75.31964111 C-81.49232736 70.99867697 -83.45170731 66.61991689 -85.41040039 62.24023438 C-85.74040039 62.24023438 -86.07040039 62.24023438 -86.41040039 62.24023438 Z " fill="#34373A" transform="translate(253.410400390625,56.759765625)"/>
<path d="M0 0 C3.79513561 1.8975678 5.90235001 3.61546648 8.9375 6.5 C19.75528412 16.51943712 31.44436757 24.42141925 44.12109375 31.88232422 C45.7138854 32.82980345 47.28187714 33.81878141 48.84375 34.81640625 C51.02835274 36.24059352 51.02835274 36.24059352 54 36 C54.598125 35.0925 55.19625 34.185 55.8125 33.25 C58.69686706 28.96465465 61.35308867 26.56572052 66.50390625 25.46484375 C73.38933486 24.59288991 73.38933486 24.59288991 77 27 C77.3125 30.5 77.3125 30.5 77 34 C75 36 75 36 71.5625 36.9375 C67.46726203 37.98104014 67.46726203 37.98104014 65 41 C65.06352779 45.82172523 65.06352779 45.82172523 67.64624882 49.69409943 C70.76862193 51.42644432 73.03074408 51.38318089 76.59751892 51.39440918 C77.58965695 51.40354584 77.58965695 51.40354584 78.60183817 51.41286707 C80.81668352 51.42950732 83.0309546 51.42472006 85.24584961 51.41992188 C86.83437193 51.42726162 88.4228889 51.43584758 90.01139832 51.44558716 C94.32545633 51.46782138 98.63932345 51.47073292 102.95343089 51.46883965 C106.55441823 51.46872004 110.15536498 51.47728016 113.75634104 51.48561716 C122.25124378 51.50485792 130.74604824 51.50773253 139.2409668 51.50097656 C148.00593392 51.49433415 156.77048039 51.5172065 165.53536218 51.55429029 C173.05989954 51.58497164 180.58430146 51.59634906 188.10890013 51.59245348 C192.60335269 51.59038444 197.0974779 51.59588901 201.59187126 51.62034607 C205.81834185 51.64258515 210.04412774 51.64075954 214.27060127 51.62041855 C215.82140254 51.61700347 217.37224964 51.62211913 218.92298889 51.63640213 C221.04129201 51.6545659 223.15726499 51.64187219 225.27549744 51.62145996 C227.05275664 51.62252872 227.05275664 51.62252872 228.86592007 51.62361908 C232.93204229 50.81454227 234.42922683 49.18051086 237 46 C237.83356413 43.45587964 237.83356413 43.45587964 237 41 C233.71874198 37.62223439 230.45913299 36.31747111 226 35 C225 34 225 34 224.75 30.5625 C224.8325 29.386875 224.915 28.21125 225 27 C228.74183875 24.50544083 230.56243036 24.62393478 235 25 C240.85459919 27.22474769 244.55738178 30.83607267 248 36 C253.27332546 35.49678008 257.17754615 32.74266107 261.5625 30 C262.36461914 29.50234131 263.16673828 29.00468262 263.99316406 28.49194336 C274.74220145 21.74412834 284.41662079 13.93271167 293.96875 5.6015625 C296.26331628 3.6322569 298.54941863 1.76586011 301 0 C303.25861997 4.93387858 305.40109514 9.80355921 307 15 C305.515 15.99 305.515 15.99 304 17 C303.40084726 19.94677298 303.40084726 19.94677298 304 23 C305.71267777 24.8942502 305.71267777 24.8942502 308.1875 26.25 C312.2716605 28.87185968 316.16484753 31.58501822 320 34.5625 C320.53391357 34.9759668 321.06782715 35.38943359 321.61791992 35.81542969 C323.41404094 37.20761108 325.20716641 38.60358795 327 40 C328.45828123 41.13418157 329.91661728 42.26829267 331.375 43.40234375 C333.68578811 45.19959613 335.99633894 46.99714936 338.30615234 48.7956543 C344.85065613 53.89010686 351.41851684 58.95342104 358 64 C354.51495966 65.20157097 352.36420647 64.7841886 348.86767578 63.73657227 C347.84626495 63.43618546 346.82485413 63.13579865 345.77249146 62.8263092 C344.6745224 62.49304123 343.57655334 62.15977325 342.4453125 61.81640625 C341.311008 61.48205063 340.17670349 61.14769501 339.00802612 60.8032074 C335.37747876 59.73239577 331.75095592 58.64874974 328.125 57.5625 C324.50601423 56.48045835 320.88626737 55.40147268 317.26339722 54.33250427 C315.00841127 53.66702929 312.75563284 52.99401678 310.50540161 52.31263733 C309.47768646 52.00909836 308.44997131 51.70555939 307.39111328 51.39282227 C306.49272736 51.12333267 305.59434143 50.85384308 304.66873169 50.57618713 C301.67013432 49.92878101 299.05858725 49.76737274 296 50 C293.79142762 51.82786272 293.79142762 51.82786272 293.5625 54.4375 C293.73444351 57.18925262 293.73444351 57.18925262 296.1875 58.6875 C298.76453169 59.89011479 301.33425408 61.0098658 304 62 C281.39426611 95.90860084 236.82385541 112.85459732 198.875 121.75 C197.62517334 122.04813599 197.62517334 122.04813599 196.35009766 122.35229492 C181.42415462 125.69223595 166.48733024 126.37847186 151.25 126.3125 C149.93239182 126.30976578 149.93239182 126.30976578 148.58816528 126.30697632 C136.36997204 126.26435197 124.40503815 125.95868284 112.39599609 123.49169922 C109.77718491 122.95427455 107.15010591 122.48023748 104.51953125 122.00390625 C83.98949273 118.09791868 64.30415683 111.08463021 46 101 C45.39655762 100.67676758 44.79311523 100.35353516 44.17138672 100.02050781 C35.54126778 95.39599726 27.63873361 90.13082776 20 84 C19.45956055 83.5678418 18.91912109 83.13568359 18.36230469 82.69042969 C10.86863316 76.65808934 4.19994846 70.38546832 -2 63 C0.91361831 60.72625949 3.54043808 59.30902343 7 58 C8.27003323 56.94689723 8.27003323 56.94689723 8.1875 54.5625 C8.26839983 51.83265325 8.26839983 51.83265325 6 50 C-0.30780742 49.3185241 -5.60902409 51.18517127 -11.5625 53.125 C-13.6085606 53.76951816 -15.65546023 54.41137789 -17.703125 55.05078125 C-18.74404297 55.37643066 -19.78496094 55.70208008 -20.85742188 56.03759766 C-25.81701617 57.55645414 -30.80863974 58.94769312 -35.8125 60.3125 C-36.687854 60.55436035 -37.56320801 60.7962207 -38.46508789 61.04541016 C-44.26697988 62.61912415 -50.09190671 63.89218323 -56 65 C-51.85023803 60.61146204 -47.28883084 56.98156951 -42.5 53.3125 C-41.70118408 52.69600586 -40.90236816 52.07951172 -40.0793457 51.44433594 C-37.72209995 49.62623363 -35.36135885 47.81275514 -33 46 C-31.79533307 45.07192583 -30.59088075 44.14357296 -29.38671875 43.21484375 C-27.29523855 41.60245262 -25.20114793 39.99367174 -23.10546875 38.38671875 C-20.89441533 36.687406 -18.68885024 34.98229235 -16.48828125 33.26953125 C-15.90473877 32.81674805 -15.32119629 32.36396484 -14.7199707 31.89746094 C-13.10366943 30.64296337 -11.48926881 29.38601808 -9.875 28.12890625 C-7 26 -7 26 -4.15625 24.40234375 C-3.4446875 23.93957031 -2.733125 23.47679687 -2 23 C-1.33333333 20 -1.33333333 20 -2 17 C-2.99 16.01 -3.98 15.02 -5 14 C-3.35 9.38 -1.7 4.76 0 0 Z " fill="#DCD1B0" transform="translate(105,317)"/>
<path d="M0 0 C2.35092187 0.02683701 4.69707276 0.00010845 7.04785156 -0.03173828 C20.59374467 -0.06297196 32.35472287 2.95757829 42.35253906 12.65185547 C53.46130287 24.08319681 56.00936913 35.64873679 55.79199219 51.01318359 C55.7502374 52.83025391 55.70791296 54.64731122 55.66503906 56.46435547 C55.63990141 58.33216385 55.61709799 60.20000516 55.59667969 62.06787109 C55.54217118 66.59669475 55.45620832 71.12390139 55.35253906 75.65185547 C53.7243496 75.42354846 52.09990416 75.16841971 50.47753906 74.90185547 C49.57261719 74.76263672 48.66769531 74.62341797 47.73535156 74.47998047 C45.35253906 73.65185547 45.35253906 73.65185547 44.15722656 71.63623047 C43.75890625 70.65396484 43.75890625 70.65396484 43.35253906 69.65185547 C40.15540219 68.05328703 36.81176725 68.00281864 33.35253906 68.65185547 C31.15111574 71.09092607 31.15111574 71.09092607 29.35253906 73.65185547 C26.60253906 73.96435547 26.60253906 73.96435547 24.35253906 73.65185547 C23.69253906 72.00185547 23.03253906 70.35185547 22.35253906 68.65185547 C16.99571773 68.57773497 11.63919444 68.52326771 6.28198242 68.48706055 C4.45933839 68.47196787 2.63673071 68.45149152 0.81420898 68.42553711 C-1.80461594 68.38917444 -4.42296101 68.37213423 -7.04199219 68.35888672 C-8.26557182 68.33566093 -8.26557182 68.33566093 -9.51387024 68.31196594 C-13.73070776 68.17025838 -13.73070776 68.17025838 -17.32426453 70.04814148 C-18.72967239 71.6293805 -18.72967239 71.6293805 -19.64746094 73.65185547 C-21.89746094 73.96435547 -21.89746094 73.96435547 -24.64746094 73.65185547 C-25.51371094 72.41435547 -25.51371094 72.41435547 -26.39746094 71.15185547 C-28.34769235 68.50800646 -28.34769235 68.50800646 -30.79199219 68.14404297 C-33.23582362 68.02560203 -35.27181877 68.05565184 -37.64746094 68.65185547 C-38.12183594 69.47685547 -38.59621094 70.30185547 -39.08496094 71.15185547 C-39.60058594 71.97685547 -40.11621094 72.80185547 -40.64746094 73.65185547 C-42.98754883 73.89599609 -42.98754883 73.89599609 -45.74511719 73.80810547 C-46.65914307 73.78554687 -47.57316895 73.76298828 -48.51489258 73.73974609 C-49.21864014 73.71074219 -49.9223877 73.68173828 -50.64746094 73.65185547 C-50.77254013 68.47819502 -50.8624848 63.30544463 -50.92211914 58.13061523 C-50.94701889 56.3762272 -50.98095201 54.6219402 -51.0246582 52.86791992 C-51.36701444 38.75881512 -50.23075206 26.9470569 -40.64355469 15.71044922 C-28.9000588 3.59925091 -16.45447638 -0.22291392 0 0 Z " fill="#E77B1F" transform="translate(253.6474609375,68.34814453125)"/>
<path d="M0 0 C0.33 0 0.66 0 1 0 C1.32282039 16.62524996 0.952182 30.95211271 -11.1875 43.875 C-20.10036751 52.15660202 -30.33292629 56.29965639 -42.42578125 56.3359375 C-43.21341354 56.3425943 -44.00104584 56.3492511 -44.81254578 56.35610962 C-46.47062871 56.36618154 -48.12875174 56.37092834 -49.78686523 56.37060547 C-52.29545428 56.37497034 -54.80226916 56.41132267 -57.31054688 56.44921875 C-65.93376189 56.51019146 -73.28858033 56.35111931 -81 52 C-81.89074219 51.51917969 -82.78148437 51.03835937 -83.69921875 50.54296875 C-94.51388759 43.17029668 -100.84702878 34.45891366 -105 22 C-105.08106686 20.44578271 -105.10756898 18.88832973 -105.09765625 17.33203125 C-105.09443359 16.43935547 -105.09121094 15.54667969 -105.08789062 14.62695312 C-105.07951172 13.69818359 -105.07113281 12.76941406 -105.0625 11.8125 C-105.05798828 10.87212891 -105.05347656 9.93175781 -105.04882812 8.96289062 C-105.03704626 6.64186288 -105.02059558 4.32096356 -105 2 C-103.69930069 1.98969254 -102.39860138 1.97938507 -101.05848694 1.96876526 C-88.82963276 1.87121467 -76.60083156 1.7684985 -64.37206364 1.66066074 C-58.08440509 1.60538163 -51.79674195 1.5519538 -45.5090332 1.50268555 C-39.4465814 1.45511539 -33.38418818 1.40277553 -27.32180595 1.34705925 C-25.00325406 1.32660228 -22.68468608 1.30789487 -20.36610603 1.29092598 C-17.13081134 1.26695569 -13.89562856 1.23689142 -10.66040039 1.20532227 C-9.69151886 1.1995668 -8.72263733 1.19381134 -7.72439575 1.18788147 C-6.40972572 1.17319824 -6.40972572 1.17319824 -5.0684967 1.15821838 C-4.30248673 1.15176583 -3.53647676 1.14531328 -2.74725437 1.1386652 C-0.97159986 1.18791623 -0.97159986 1.18791623 0 0 Z " fill="#E77A1F" transform="translate(308,188)"/>
<path d="M0 0 C6.85143471 5.52535057 11.57726833 12.69486905 13.75 21.25 C14.97465636 32.96077648 12.82713913 42.79347789 5.75 52.25 C-0.98845711 60.02096264 -9.38212875 64.25842569 -19.55078125 65.7265625 C-29.42505563 66.17593068 -38.00081389 63.24517579 -45.625 56.9375 C-54.15663135 48.74287696 -58.50315057 40.94150463 -58.75 29 C-58.68463838 18.79140175 -56.09150651 10.87594565 -49 3.3125 C-35.05935366 -9.48966022 -15.55333017 -10.70022339 0 0 Z " fill="#35373B" transform="translate(370.25,269.75)"/>
<path d="M0 0 C8.28802236 6.06121176 14.26618272 13.02750999 17 23 C17.92900118 33.93196735 17.81744653 43.58304765 11.01171875 52.6484375 C3.86706482 61.06407477 -4.45612848 67.08548003 -15.6640625 68.28515625 C-26.17479585 68.6256448 -34.8777128 65.68805433 -43 59 C-49.78185874 52.52640756 -54.36631055 45.50534168 -55 36 C-55.07476562 35.11441406 -55.14953125 34.22882813 -55.2265625 33.31640625 C-55.71123821 23.50810036 -52.98284919 15.26714143 -46.75 7.625 C-34.83775945 -4.80516406 -15.32660066 -8.82225625 0 0 Z " fill="#35373B" transform="translate(183,267)"/>
<path d="M0 0 C0.3125 3.5 0.3125 3.5 0 7 C-2 9 -2 9 -5.4375 9.9375 C-9.53273797 10.98104014 -9.53273797 10.98104014 -12 14 C-11.93647221 18.82172523 -11.93647221 18.82172523 -9.35375118 22.69409943 C-6.23137807 24.42644432 -3.96925592 24.38318089 -0.40248108 24.39440918 C0.58965695 24.40354584 0.58965695 24.40354584 1.60183817 24.41286707 C3.81668352 24.42950732 6.0309546 24.42472006 8.24584961 24.41992188 C9.83437193 24.42726162 11.4228889 24.43584758 13.01139832 24.44558716 C17.32545633 24.46782138 21.63932345 24.47073292 25.95343089 24.46883965 C29.55441823 24.46872004 33.15536498 24.47728016 36.75634104 24.48561716 C45.25124378 24.50485792 53.74604824 24.50773253 62.2409668 24.50097656 C71.00593392 24.49433415 79.77048039 24.5172065 88.53536218 24.55429029 C96.05989954 24.58497164 103.58430146 24.59634906 111.10890013 24.59245348 C115.60335269 24.59038444 120.0974779 24.59588901 124.59187126 24.62034607 C128.81834185 24.64258515 133.04412774 24.64075954 137.27060127 24.62041855 C138.82140254 24.61700347 140.37224964 24.62211913 141.92298889 24.63640213 C144.04129201 24.6545659 146.15726499 24.64187219 148.27549744 24.62145996 C150.05275664 24.62252872 150.05275664 24.62252872 151.86592007 24.62361908 C155.93204229 23.81454227 157.42922683 22.18051086 160 19 C160.83356413 16.45587964 160.83356413 16.45587964 160 14 C156.71874198 10.62223439 153.45913299 9.31747111 149 8 C148 7 148 7 147.75 3.5625 C147.8325 2.386875 147.915 1.21125 148 0 C151.74183875 -2.49455917 153.56243036 -2.37606522 158 -2 C163.64203855 0.14397465 167.02010581 3.61047253 170.8125 8.1875 C172.88735278 13.101625 172.87441704 18.15443947 171.30859375 23.25 C168.56215218 29.3174525 164.19590849 33.42984537 158 36 C155.640625 36.1953125 155.640625 36.1953125 153.25 36.125 C152.45078125 36.10695313 151.6515625 36.08890625 150.828125 36.0703125 C150.22484375 36.04710937 149.6215625 36.02390625 149 36 C149.0825 37.2375 149.165 38.475 149.25 39.75 C149.24438968 42.90861045 149.1135355 43.82759424 147.3125 46.5625 C145 48 145 48 142.4375 47.9375 C138.48051948 46.41558442 138.48051948 46.41558442 137 44 C137 41.36 137 38.72 137 36 C95.42 36 53.84 36 11 36 C11 38.64 11 41.28 11 44 C9.00994763 46.94822573 7.92256572 47.81998718 4.4375 48.5 C2 48 2 48 0.1875 46.5 C-1.53328032 42.87730459 -1.19948095 39.98961898 -1 36 C-1.56847656 36.04640625 -2.13695312 36.0928125 -2.72265625 36.140625 C-8.54967683 36.4130066 -12.42134378 35.71088098 -17 32 C-21.84050846 27.31356608 -24.04993352 22.86792229 -24.4375 16.1875 C-24.3150838 10.71141527 -22.60722773 7.07814519 -19 3 C-13.28518401 -1.54852701 -6.61250812 -4.40833875 0 0 Z " fill="#36383C" transform="translate(182,344)"/>
<path d="M0 0 C2.38600704 0.00096913 4.76875477 -0.04067488 7.15429688 -0.08496094 C20.87613648 -0.19219972 32.46725235 2.62321612 42.65429688 12.50097656 C49.71429271 19.76598135 55.90309987 29.3247024 55.96679688 39.81347656 C55.86367188 40.70035156 55.76054687 41.58722656 55.65429688 42.50097656 C52.35429687 41.84097656 49.05429687 41.18097656 45.65429688 40.50097656 C45.34492188 39.36660156 45.03554688 38.23222656 44.71679688 37.06347656 C44.02505156 33.71322557 44.02505156 33.71322557 42.65429688 32.50097656 C40.80142186 32.42871155 38.9459581 32.41716436 37.09179688 32.43847656 C35.57392578 32.45201172 35.57392578 32.45201172 34.02539062 32.46582031 C33.24292969 32.47742188 32.46046875 32.48902344 31.65429688 32.50097656 C31.32429688 34.81097656 30.99429688 37.12097656 30.65429688 39.50097656 C28.67429687 39.50097656 26.69429688 39.50097656 24.65429688 39.50097656 C24.36554688 38.53160156 24.07679688 37.56222656 23.77929688 36.56347656 C23.01215006 33.39433453 23.01215006 33.39433453 20.65429688 32.50097656 C17.88269061 32.41414211 15.13654923 32.38541866 12.36523438 32.40332031 C11.54681061 32.40473526 10.72838684 32.40615021 9.88516235 32.40760803 C7.26650363 32.41321367 4.64792984 32.42576708 2.02929688 32.43847656 C0.25586061 32.44349084 -1.517577 32.44805387 -3.29101562 32.45214844 C-7.64261094 32.46318492 -11.99414262 32.48045331 -16.34570312 32.50097656 C-17.83070313 35.96597656 -17.83070313 35.96597656 -19.34570312 39.50097656 C-21.32570312 39.50097656 -23.30570313 39.50097656 -25.34570312 39.50097656 C-25.67570312 37.19097656 -26.00570312 34.88097656 -26.34570312 32.50097656 C-30.09435164 32.08737786 -33.61478199 31.87121824 -37.34570312 32.50097656 C-39.07344172 34.18647216 -40.00377053 35.83237694 -41.15429688 37.94238281 C-41.54746094 38.45671875 -41.940625 38.97105469 -42.34570312 39.50097656 C-46.15820312 39.93847656 -46.15820312 39.93847656 -49.34570312 39.50097656 C-50.36050365 30.7060387 -46.56700269 24.03465743 -41.55273438 16.97753906 C-30.28258247 3.36040707 -16.88633753 -0.04824668 0 0 Z " fill="#FCCE38" transform="translate(253.345703125,68.4990234375)"/>
<path d="M0 0 C0.69577148 0.20399414 1.39154297 0.40798828 2.10839844 0.61816406 C11.66655189 3.496924 19.89414213 7.08254869 28 13 C27.505 15.475 27.505 15.475 27 18 C9.25881704 23.41989016 -9.80328064 22.31455904 -28.16650391 22.26074219 C-32.08155928 22.2493683 -35.99634237 22.25611883 -39.9113884 22.26760101 C-67.42259713 22.33660669 -67.42259713 22.33660669 -79.8203125 21.171875 C-80.58930878 21.10276917 -81.35830505 21.03366333 -82.15060425 20.96246338 C-86.64297611 20.45303046 -90.08449963 19.24467178 -94 17 C-93.68985485 13.99006672 -93.49137607 12.44534302 -91.20703125 10.375 C-65.74102587 -4.24822005 -28.42852086 -8.38357711 0 0 Z " fill="#FAFBF0" transform="translate(289,320)"/>
<path d="M0 0 C0.33 0 0.66 0 1 0 C1 9.24 1 18.48 1 28 C-3.95 27.01 -3.95 27.01 -9 26 C-9.99 24.02 -9.99 24.02 -11 22 C-14.19713687 20.40143156 -17.54077181 20.35096317 -21 21 C-23.20142332 23.4390706 -23.20142332 23.4390706 -25 26 C-27.5 26.625 -27.5 26.625 -30 26 C-30.54398437 25.17580566 -31.08796875 24.35161133 -31.6484375 23.50244141 C-33.86442046 20.64305762 -33.86442046 20.64305762 -37.6953125 20.35302734 C-39.17151978 20.32014383 -40.64855943 20.31612572 -42.125 20.3359375 C-42.90891113 20.33115387 -43.69282227 20.32637024 -44.50048828 20.32144165 C-46.15464286 20.31804558 -47.80886481 20.32722786 -49.46289062 20.34814453 C-51.9924101 20.37491966 -54.51749324 20.3483926 -57.046875 20.31640625 C-58.65625978 20.31971041 -60.2656418 20.32611678 -61.875 20.3359375 C-62.6292627 20.32581635 -63.38352539 20.31569519 -64.16064453 20.30526733 C-66.57771204 20.305311 -66.57771204 20.305311 -70 21 C-72.37783869 23.38823486 -72.37783869 23.38823486 -74 26 C-76.5 26.625 -76.5 26.625 -79 26 C-79.598125 25.175 -80.19625 24.35 -80.8125 23.5 C-82.67648096 20.87566416 -82.67648096 20.87566416 -84.921875 20.5625 C-88.03155981 20.47170628 -90.3590288 20.54511722 -92.9375 22.375 C-94.05923484 24.02249424 -94.05923484 24.02249424 -95 26 C-98.3 26 -101.6 26 -105 26 C-105 18.08 -105 10.16 -105 2 C-101.85476807 1.97494385 -98.70953613 1.9498877 -95.46899414 1.92407227 C-85.10331063 1.84077706 -74.73767862 1.75206854 -64.37206364 1.66066074 C-58.08440509 1.60538163 -51.79674195 1.5519538 -45.5090332 1.50268555 C-39.4465814 1.45511539 -33.38418818 1.40277553 -27.32180595 1.34705925 C-25.00325406 1.32660228 -22.68468608 1.30789487 -20.36610603 1.29092598 C-17.13081134 1.26695569 -13.89562856 1.23689142 -10.66040039 1.20532227 C-9.69151886 1.1995668 -8.72263733 1.19381134 -7.72439575 1.18788147 C-6.40972572 1.17319824 -6.40972572 1.17319824 -5.0684967 1.15821838 C-4.30248673 1.15176583 -3.53647676 1.14531328 -2.74725437 1.1386652 C-0.97159986 1.18791623 -0.97159986 1.18791623 0 0 Z " fill="#FEAF00" transform="translate(308,152)"/>
<path d="M0 0 C0.33 0 0.66 0 1 0 C1.02718316 2.85423192 1.04692705 5.70820015 1.0625 8.5625 C1.07087891 9.36236328 1.07925781 10.16222656 1.08789062 10.98632812 C1.10740557 15.76749038 0.88405525 20.29534233 0 25 C-1 26 -1 26 -2.84765625 26.09765625 C-4.8984375 26.06510417 -6.94921875 26.03255208 -9 26 C-9.28875 25.360625 -9.5775 24.72125 -9.875 24.0625 C-10.82823451 21.84793921 -10.82823451 21.84793921 -13 21 C-17.04419535 20.59174086 -17.04419535 20.59174086 -21 21 C-23.20142332 23.4390706 -23.20142332 23.4390706 -25 26 C-27.5 26.625 -27.5 26.625 -30 26 C-30.54398437 25.17580566 -31.08796875 24.35161133 -31.6484375 23.50244141 C-33.86442046 20.64305762 -33.86442046 20.64305762 -37.6953125 20.35302734 C-39.17151978 20.32014383 -40.64855943 20.31612572 -42.125 20.3359375 C-42.90891113 20.33115387 -43.69282227 20.32637024 -44.50048828 20.32144165 C-46.15464286 20.31804558 -47.80886481 20.32722786 -49.46289062 20.34814453 C-51.9924101 20.37491966 -54.51749324 20.3483926 -57.046875 20.31640625 C-58.65625978 20.31971041 -60.2656418 20.32611678 -61.875 20.3359375 C-62.6292627 20.32581635 -63.38352539 20.31569519 -64.16064453 20.30526733 C-66.57771204 20.305311 -66.57771204 20.305311 -70 21 C-72.37783869 23.38823486 -72.37783869 23.38823486 -74 26 C-76.5 26.625 -76.5 26.625 -79 26 C-79.598125 25.175 -80.19625 24.35 -80.8125 23.5 C-82.67648096 20.87566416 -82.67648096 20.87566416 -84.921875 20.5625 C-88.03155981 20.47170628 -90.3590288 20.54511722 -92.9375 22.375 C-94.05923484 24.02249424 -94.05923484 24.02249424 -95 26 C-97.64 26 -100.28 26 -103 26 C-104.77669223 22.93843346 -105.24050818 20.75963785 -105.1953125 17.234375 C-105.18886719 16.34492188 -105.18242187 15.45546875 -105.17578125 14.5390625 C-105.15902344 13.61867187 -105.14226562 12.69828125 -105.125 11.75 C-105.11597656 10.81414062 -105.10695312 9.87828125 -105.09765625 8.9140625 C-105.07413636 6.60911343 -105.04126853 4.3046884 -105 2 C-103.69930069 1.98969254 -102.39860138 1.97938507 -101.05848694 1.96876526 C-88.82963276 1.87121467 -76.60083156 1.7684985 -64.37206364 1.66066074 C-58.08440509 1.60538163 -51.79674195 1.5519538 -45.5090332 1.50268555 C-39.4465814 1.45511539 -33.38418818 1.40277553 -27.32180595 1.34705925 C-25.00325406 1.32660228 -22.68468608 1.30789487 -20.36610603 1.29092598 C-17.13081134 1.26695569 -13.89562856 1.23689142 -10.66040039 1.20532227 C-9.69151886 1.1995668 -8.72263733 1.19381134 -7.72439575 1.18788147 C-6.40972572 1.17319824 -6.40972572 1.17319824 -5.0684967 1.15821838 C-4.30248673 1.15176583 -3.53647676 1.14531328 -2.74725437 1.1386652 C-0.97159986 1.18791623 -0.97159986 1.18791623 0 0 Z " fill="#FEAE00" transform="translate(308,188)"/>
<path d="M0 0 C13.3145791 1.26488501 27.36555929 7.8443653 37.125 16.8125 C35.83904841 19.65682138 34.52282327 21.63709373 32.25390625 23.7734375 C31.68510742 24.32 31.11630859 24.8665625 30.53027344 25.4296875 C29.9221582 26.00976562 29.31404297 26.58984375 28.6875 27.1875 C16.03591231 39.55967409 5.86138635 54.08593842 -3.875 68.8125 C-6.35872972 65.7639571 -7.92608996 62.74954133 -9.4375 59.125 C-9.85128906 58.15175781 -10.26507813 57.17851562 -10.69140625 56.17578125 C-16.203116 40.51379415 -15.60513241 23.93199413 -8.875 8.8125 C-8.50246094 7.92175781 -8.12992187 7.03101563 -7.74609375 6.11328125 C-5.65937973 1.94712398 -4.69595323 0.98463535 0 0 Z " fill="#ECA1CA" transform="translate(89.875,162.1875)"/>
<path d="M0 0 C2.52382758 -0.30166963 4.11120468 -0.32612469 6.5078125 0.53515625 C9.39230595 3.47115851 10.90259522 6.77826474 12.5078125 10.53515625 C13.12849609 11.93121094 13.12849609 11.93121094 13.76171875 13.35546875 C19.96223349 29.90457779 17.2569245 47.54914289 10.28515625 63.296875 C9.41996596 65.07377119 8.47673472 66.81262786 7.5078125 68.53515625 C4.56300865 65.77519939 2.45188861 63.05478091 0.3828125 59.59765625 C-9.24925 44.18635624 -21.56640637 31.20859024 -34.4921875 18.53515625 C-31.77745809 11.42069298 -22.17996723 7.50921534 -15.58203125 4.37890625 C-10.50430101 2.32883199 -5.33694663 1.14602146 0 0 Z " fill="#ECA1CA" transform="translate(419.4921875,162.46484375)"/>
<path d="M0 0 C2.8716076 2.51998218 4.38549171 5.3177934 6.13671875 8.69140625 C6.71357422 9.80064453 7.29042969 10.90988281 7.88476562 12.05273438 C8.47966797 13.21095703 9.07457031 14.36917969 9.6875 15.5625 C10.29400391 16.72458984 10.90050781 17.88667969 11.52539062 19.08398438 C16 27.73623805 16 27.73623805 16 30 C15.236875 30.23976562 14.47375 30.47953125 13.6875 30.7265625 C6.88218387 33.9511745 3.74583948 44.13890924 1.1015625 50.80078125 C-5.42750115 69.76284909 -4.23363559 89.96315121 4.48828125 108.09375 C6.43937371 111.69576686 8.44783101 115.19495717 10.765625 118.57421875 C12 121 12 121 11.63671875 123.01953125 C10.7578125 124.6796875 9.87890625 126.33984375 9 128 C4.58312738 126.48709421 2.61620283 123.05294701 0.1875 119.3125 C-0.24900879 118.64621582 -0.68551758 117.97993164 -1.13525391 117.29345703 C-17.19061431 92.19332143 -21.74760303 63.06867914 -15.49169922 34.08105469 C-13.03466612 23.68197321 -7.83437756 7.83437756 0 0 Z " fill="#4E4A47" transform="translate(68,122)"/>
<path d="M0 0 C13.74402778 11.73791193 17.81918172 36.14907093 19.16845703 53.11865234 C20.71273752 79.82372038 11.8265981 104.81988161 -4.1171875 125.90234375 C-5.04917969 126.94068359 -5.04917969 126.94068359 -6 128 C-6.66 128 -7.32 128 -8 128 C-9.74754981 125.01225355 -10.69460137 123.37545854 -11 120 C-9.62242019 117.06298166 -7.86289992 114.61960338 -5.984375 111.9765625 C3.76260345 97.35609482 6.07036187 77.81588173 2.8125 60.875 C0.20113062 49.96582136 -4.25817333 35.5574016 -14 29 C-13.39345765 25.05925866 -12.16896413 22.03486705 -10.3125 18.515625 C-9.77882813 17.49855469 -9.24515625 16.48148438 -8.6953125 15.43359375 C-8.13585937 14.38300781 -7.57640625 13.33242187 -7 12.25 C-6.16082031 10.65091797 -6.16082031 10.65091797 -5.3046875 9.01953125 C-1.15928235 1.15928235 -1.15928235 1.15928235 0 0 Z " fill="#4E4A47" transform="translate(443,122)"/>
<path d="M0 0 C0.33 0 0.66 0 1 0 C1 8.25 1 16.5 1 25 C-3.95 24.01 -3.95 24.01 -9 23 C-9.99 21.02 -9.99 21.02 -11 19 C-14.19713687 17.40143156 -17.54077181 17.35096317 -21 18 C-23.20142332 20.4390706 -23.20142332 20.4390706 -25 23 C-27.75 23.3125 -27.75 23.3125 -30 23 C-30.99 20.525 -30.99 20.525 -32 18 C-37.35682133 17.9258795 -42.71334462 17.87141224 -48.07055664 17.83520508 C-49.89320067 17.8201124 -51.71580836 17.79963605 -53.53833008 17.77368164 C-56.157155 17.73731897 -58.77550007 17.72027876 -61.39453125 17.70703125 C-62.61811089 17.68380547 -62.61811089 17.68380547 -63.8664093 17.66011047 C-68.08324682 17.51840291 -68.08324682 17.51840291 -71.67680359 19.39628601 C-73.08221146 20.97752503 -73.08221146 20.97752503 -74 23 C-76.25 23.3125 -76.25 23.3125 -79 23 C-79.5775 22.175 -80.155 21.35 -80.75 20.5 C-82.70023141 17.85615099 -82.70023141 17.85615099 -85.14453125 17.4921875 C-87.58836268 17.37374656 -89.62435783 17.40379637 -92 18 C-92.7115625 19.2375 -92.7115625 19.2375 -93.4375 20.5 C-94.2109375 21.7375 -94.2109375 21.7375 -95 23 C-98.3 23 -101.6 23 -105 23 C-105 16.07 -105 9.14 -105 2 C-101.85476807 1.97494385 -98.70953613 1.9498877 -95.46899414 1.92407227 C-85.10331063 1.84077706 -74.73767862 1.75206854 -64.37206364 1.66066074 C-58.08440509 1.60538163 -51.79674195 1.5519538 -45.5090332 1.50268555 C-39.4465814 1.45511539 -33.38418818 1.40277553 -27.32180595 1.34705925 C-25.00325406 1.32660228 -22.68468608 1.30789487 -20.36610603 1.29092598 C-17.13081134 1.26695569 -13.89562856 1.23689142 -10.66040039 1.20532227 C-9.69151886 1.1995668 -8.72263733 1.19381134 -7.72439575 1.18788147 C-6.40972572 1.17319824 -6.40972572 1.17319824 -5.0684967 1.15821838 C-4.30248673 1.15176583 -3.53647676 1.14531328 -2.74725437 1.1386652 C-0.97159986 1.18791623 -0.97159986 1.18791623 0 0 Z " fill="#FEAE00" transform="translate(308,119)"/>
<path d="M0 0 C0.33 0 0.66 0 1 0 C0.99333817 1.23361771 0.99333817 1.23361771 0.98654175 2.49215698 C0.94651328 10.23221916 0.91604025 17.97223135 0.89637566 25.71236992 C0.88592614 29.69191773 0.87174578 33.67138021 0.84912109 37.65087891 C0.82743415 41.48933886 0.81544018 45.32771659 0.81024551 49.16623306 C0.80654227 50.63270487 0.799311 52.09917205 0.78853989 53.56560898 C0.77407981 55.61529106 0.77201971 57.66463082 0.77294922 59.71435547 C0.76628738 61.466418 0.76628738 61.466418 0.75949097 63.25387573 C0.71625608 66.14473422 0.71625608 66.14473422 3 68 C5.5 68.33333333 5.5 68.33333333 8 68 C10.77042109 65.22957891 10.39796106 63.23466195 10.625 59.375 C10.69976562 58.18648437 10.77453125 56.99796875 10.8515625 55.7734375 C10.90054688 54.85820312 10.94953125 53.94296875 11 53 C16.05571855 54.57137198 19.61944223 57.60835596 23.625 60.9375 C24.36137695 61.54940186 25.09775391 62.16130371 25.85644531 62.79174805 C41.41992405 75.96248095 58.60363433 91.54285315 68 110 C67.67 110.66 67.34 111.32 67 112 C66.13375 111.071875 65.2675 110.14375 64.375 109.1875 C42.41735615 87.40516668 13.80171967 74.41227049 -15.47070312 65.80273438 C-18.03891731 64.98764864 -20.5113981 64.03076862 -23 63 C-23.80986708 54.53984317 -21.61083405 48.35655231 -18.22265625 40.68359375 C-17.73671494 39.54592056 -17.25077362 38.40824738 -16.75010681 37.23609924 C-15.20431935 33.62908615 -13.63359096 30.03355264 -12.0625 26.4375 C-11.00723637 23.98795726 -9.95802882 21.53586808 -8.90820312 19.08398438 C-6.99243988 14.62801334 -5.07370225 10.17346985 -3.13305664 5.72827148 C-2.74444962 4.83687973 -2.35584259 3.94548798 -1.95545959 3.02708435 C-1 1 -1 1 0 0 Z " fill="#F8F9EE" transform="translate(344,119)"/>
<path d="M0 0 C3.08252169 1.54126084 3.42926231 3.99487417 4.72265625 7.140625 C5.11520599 8.0859182 5.11520599 8.0859182 5.51568604 9.05030823 C6.37123417 11.1142116 7.21726313 13.18185458 8.0625 15.25 C9.23197733 18.09343908 10.40472272 20.93552247 11.578125 23.77734375 C12.01461113 24.83721748 12.01461113 24.83721748 12.45991516 25.91850281 C14.19098873 30.10501924 15.98603517 34.25341643 17.859375 38.37890625 C18.27823975 39.30993164 18.69710449 40.24095703 19.12866211 41.20019531 C19.89084248 42.88205343 20.66668562 44.55782055 21.45922852 46.22558594 C24.02094941 51.93612675 24.43287795 56.77422059 24 63 C20.36451142 64.2342331 16.71317456 65.39804479 13.04296875 66.5234375 C-14.75431834 75.21278418 -39.41360423 87.82082633 -61.05859375 107.3828125 C-64 110 -64 110 -67 112 C-65.50799036 107.70044533 -63.26415565 104.16811829 -60.625 100.5 C-59.96516113 99.58250977 -59.96516113 99.58250977 -59.29199219 98.64648438 C-54.82507339 92.56746804 -49.85635209 87.06193041 -44.60498047 81.65625 C-42.96271222 79.96152109 -41.34303764 78.24689163 -39.72265625 76.53125 C-31.39237528 67.83784189 -22.27415418 59.37407756 -12 53 C-11.34 53 -10.68 53 -10 53 C-9.95101562 53.91523438 -9.90203125 54.83046875 -9.8515625 55.7734375 C-9.77679688 56.96195313 -9.70203125 58.15046875 -9.625 59.375 C-9.52058594 61.15003906 -9.52058594 61.15003906 -9.4140625 62.9609375 C-9.29782654 66.10562319 -9.29782654 66.10562319 -7 68 C-4.5 68.33333333 -4.5 68.33333333 -2 68 C0.28374392 66.14473422 0.28374392 66.14473422 0.24050903 63.25387573 C0.23606781 62.08583405 0.23162659 60.91779236 0.22705078 59.71435547 C0.22734283 59.07032776 0.22763489 58.42630005 0.22793579 57.76275635 C0.22654074 55.63076373 0.21097174 53.49911918 0.1953125 51.3671875 C0.19158298 49.89031159 0.18873572 48.41343322 0.18673706 46.93655396 C0.17909574 43.04682602 0.15944308 39.15724712 0.1373291 35.26757812 C0.11688135 31.29949968 0.10773764 27.33139718 0.09765625 23.36328125 C0.07619756 15.57545284 0.04205572 7.78774729 0 0 Z " fill="#F8F9EE" transform="translate(167,119)"/>
<path d="M0 0 C2.47265625 0.01171875 2.47265625 0.01171875 4.6875 0.375 C6.9375 2.8125 6.9375 2.8125 8.6875 5.375 C11.32210948 6.25443404 11.32210948 6.25443404 13.6875 6.375 C13.97625 5.570625 14.265 4.76625 14.5625 3.9375 C15.6875 1.375 15.6875 1.375 17.6875 0.375 C20.33936925 0.23966245 22.96374969 0.16235456 25.6171875 0.13671875 C26.40392853 0.128647 27.19066956 0.12057526 28.00125122 0.11225891 C29.66731564 0.09842096 31.33340839 0.0876975 32.99951172 0.07983398 C35.545794 0.06261299 38.09078037 0.01872583 40.63671875 -0.02539062 C42.25519878 -0.03551702 43.87368985 -0.04403329 45.4921875 -0.05078125 C46.2527243 -0.06828934 47.01326111 -0.08579742 47.79684448 -0.10383606 C51.36671667 -0.08920853 53.3137 0.09205265 56.19970703 2.27661133 C57.6875 4.375 57.6875 4.375 57.6875 6.375 C60.05289052 6.25443404 60.05289052 6.25443404 62.6875 5.375 C63.285625 4.529375 63.88375 3.68375 64.5 2.8125 C66.6875 0.375 66.6875 0.375 68.57421875 -0.09375 C72.31415273 -0.25966204 74.13463309 -0.03965018 77.1875 2.25 C78.6875 4.375 78.6875 4.375 78.6875 6.375 C80.605625 6.313125 80.605625 6.313125 82.5625 6.25 C84.7421875 6.1796875 84.7421875 6.1796875 86.6875 6.375 C88.6875 8.375 88.6875 8.375 88.953125 10.25 C88.94796875 10.95125 88.9428125 11.6525 88.9375 12.375 C88.94523437 13.426875 88.94523437 13.426875 88.953125 14.5 C88.6875 16.375 88.6875 16.375 86.6875 18.375 C84.8171978 18.62109566 84.8171978 18.62109566 82.49874878 18.61550903 C81.18201675 18.61963303 81.18201675 18.61963303 79.83868408 18.62384033 C78.87339783 18.61664978 77.90811157 18.60945923 76.91357422 18.60205078 C75.39157913 18.60248886 75.39157913 18.60248886 73.83883667 18.60293579 C70.47320101 18.60153852 67.10778466 18.5859586 63.7421875 18.5703125 C61.41334148 18.56658378 59.0844939 18.56373615 56.75564575 18.56173706 C50.61696057 18.55408949 44.47836957 18.53443134 38.33972168 18.5123291 C32.07935867 18.49189486 25.81898048 18.48274053 19.55859375 18.47265625 C7.26818772 18.45118652 -5.02214832 18.41703703 -17.3125 18.375 C-17.3125 14.415 -17.3125 10.455 -17.3125 6.375 C-14.0125 6.375 -10.7125 6.375 -7.3125 6.375 C-7.003125 5.570625 -6.69375 4.76625 -6.375 3.9375 C-4.78902552 0.11250273 -4.01282143 0.17075836 0 0 Z " fill="#E5791F" transform="translate(220.3125,135.625)"/>
<path d="M0 0 C2.1875 2.4375 2.1875 2.4375 4 5 C6.63460948 5.87943404 6.63460948 5.87943404 9 6 C9.433125 5.071875 9.433125 5.071875 9.875 4.125 C11 2 11 2 13 0 C15.67783889 -0.22431566 18.24928602 -0.32813506 20.9296875 -0.3359375 C21.71642853 -0.3425943 22.50316956 -0.3492511 23.31375122 -0.35610962 C24.97981424 -0.36624299 26.64591791 -0.37092643 28.31201172 -0.37060547 C30.85843102 -0.37497159 33.40310717 -0.41126123 35.94921875 -0.44921875 C37.5677024 -0.45508826 39.1861943 -0.45905676 40.8046875 -0.4609375 C41.5652243 -0.47530853 42.32576111 -0.48967957 43.10934448 -0.50448608 C46.67586226 -0.47374935 48.63068706 -0.27987389 51.51220703 1.90380859 C53 4 53 4 53 6 C55.36539052 5.87943404 55.36539052 5.87943404 58 5 C58.598125 4.154375 59.19625 3.30875 59.8125 2.4375 C62 0 62 0 63.88671875 -0.46875 C67.62665273 -0.63466204 69.44713309 -0.41465018 72.5 1.875 C74 4 74 4 74 6 C75.918125 5.938125 75.918125 5.938125 77.875 5.875 C80.0546875 5.8046875 80.0546875 5.8046875 82 6 C84 8 84 8 84.265625 9.875 C84.26046875 10.57625 84.2553125 11.2775 84.25 12 C84.25773437 13.051875 84.25773437 13.051875 84.265625 14.125 C84 16 84 16 82 18 C80.1296978 18.24609566 80.1296978 18.24609566 77.81124878 18.24050903 C76.49451675 18.24463303 76.49451675 18.24463303 75.15118408 18.24884033 C74.18589783 18.24164978 73.22061157 18.23445923 72.22607422 18.22705078 C70.70407913 18.22748886 70.70407913 18.22748886 69.15133667 18.22793579 C65.78570101 18.22653852 62.42028466 18.2109586 59.0546875 18.1953125 C56.72584148 18.19158378 54.3969939 18.18873615 52.06814575 18.18673706 C45.92946057 18.17908949 39.79086957 18.15943134 33.65222168 18.1373291 C27.39185867 18.11689486 21.13148048 18.10774053 14.87109375 18.09765625 C2.58068772 18.07618652 -9.70964832 18.04203703 -22 18 C-22 14.04 -22 10.08 -22 6 C-18.7 6 -15.4 6 -12 6 C-11.71125 5.195625 -11.4225 4.39125 -11.125 3.5625 C-9.07538723 -1.10606243 -4.59950503 -0.85380033 0 0 Z " fill="#E77A1F" transform="translate(225,172)"/>
<path d="M0 0 C29.04 0 58.08 0 88 0 C84.19321259 7.61357481 76.94021369 13.04073217 69 16 C63.72566717 17.74636348 59.11342375 18.31931872 53.57421875 18.3359375 C52.78658646 18.3425943 51.99895416 18.3492511 51.18745422 18.35610962 C49.52937129 18.36618154 47.87124826 18.37092834 46.21313477 18.37060547 C43.70454572 18.37497034 41.19773084 18.41132267 38.68945312 18.44921875 C30.06921079 18.51022443 22.70629948 18.35612852 15 14 C14.09765625 13.50757813 13.1953125 13.01515625 12.265625 12.5078125 C7.68399955 9.36460434 3.6942232 6.16784156 0 2 C0 1.34 0 0.68 0 0 Z " fill="#FCAD01" transform="translate(212,226)"/>
<path d="M0 0 C0.33 0 0.66 0 1 0 C1.12815864 21.36108702 0.88485656 42.65518879 0 64 C-0.66 63.01 -1.32 62.02 -2 61 C-4.6036572 59.83832387 -7.13393229 58.82430539 -9.8125 57.875 C-10.52470703 57.61074219 -11.23691406 57.34648437 -11.97070312 57.07421875 C-15.62043155 55.74397546 -19.15014315 54.62021269 -23 54 C-18.0520316 41.35348448 -12.8565374 28.81723021 -7.5625 16.3125 C-7.24609558 15.56292023 -6.92969116 14.81334045 -6.60369873 14.04104614 C-5.69815914 11.89729043 -4.78914754 9.75504417 -3.87890625 7.61328125 C-3.46532112 6.63334198 -3.46532112 6.63334198 -3.04338074 5.63360596 C-1.11503968 1.11503968 -1.11503968 1.11503968 0 0 Z " fill="#E5DFC2" transform="translate(344,119)"/>
<path d="M0 0 C3.09753762 1.54876881 3.45638413 4.05305345 4.7578125 7.2109375 C5.02229187 7.84691864 5.28677124 8.48289978 5.55926514 9.13815308 C6.42104328 11.2144669 7.27327638 13.29454375 8.125 15.375 C8.71053449 16.79417888 9.29663587 18.21312399 9.88330078 19.63183594 C10.76170002 21.75607297 11.6396621 23.88047432 12.51498413 26.00598145 C14.19542252 30.08130004 15.91054954 34.1384392 17.671875 38.1796875 C18.05069824 39.05318848 18.42952148 39.92668945 18.81982422 40.82666016 C19.50705457 42.40496846 20.20106229 43.98034855 20.90283203 45.55224609 C23.11126646 50.66620063 23.11126646 50.66620063 22 54 C20.37353516 54.89135742 20.37353516 54.89135742 18.2890625 55.60546875 C17.53882813 55.86650391 16.78859375 56.12753906 16.015625 56.39648438 C15.22671875 56.65751953 14.4378125 56.91855469 13.625 57.1875 C12.84382812 57.46013672 12.06265625 57.73277344 11.2578125 58.01367188 C5.44319784 60 5.44319784 60 2 60 C1.67 61.32 1.34 62.64 1 64 C-0.19388403 21.1979874 -0.19388403 21.1979874 0 0 Z " fill="#E7E1C2" transform="translate(167,119)"/>
<path d="M0 0 C-1.81611308 3.9808299 -3.48799936 6.89106059 -6.8125 9.75 C-7.45832031 10.32234375 -8.10414063 10.8946875 -8.76953125 11.484375 C-15.205417 15.85762136 -22.51035374 15.71592207 -30 15 C-36.56547909 13.29383932 -41.33111486 8.58358458 -45 3 C-45 2.01 -45 1.02 -45 0 C-29.29585868 -4.009568 -15.7241279 -3.19812771 0 0 Z " fill="#A05516" transform="translate(187,308)"/>
<path d="M0 0 C-1.06283151 5.50739964 -4.38717349 9.22885476 -8.9765625 12.33984375 C-16.22106036 16.04112357 -24.56267021 16.340548 -32.3125 13.9375 C-37.58517872 11.61487952 -41.88526018 7.54277253 -44.1953125 2.2734375 C-44.46085937 1.52320313 -44.72640625 0.77296875 -45 0 C-29.30708374 -3.69245089 -15.69965473 -3.42537921 0 0 Z " fill="#A15516" transform="translate(370,308)"/>
<path d="M0 0 C2.14669337 -0.01182951 4.29043934 -0.06107327 6.43652344 -0.11157227 C16.12165154 -0.22461687 28.29399268 0.41957476 35.96044922 7.09179688 C36.49774658 7.75199829 36.49774658 7.75199829 37.04589844 8.42553711 C35.06589844 8.75553711 33.08589844 9.08553711 31.04589844 9.42553711 C30.71589844 11.73553711 30.38589844 14.04553711 30.04589844 16.42553711 C28.06589844 16.42553711 26.08589844 16.42553711 24.04589844 16.42553711 C23.75714844 15.45616211 23.46839844 14.48678711 23.17089844 13.48803711 C22.40375162 10.31889508 22.40375162 10.31889508 20.04589844 9.42553711 C17.27429218 9.33870266 14.52815079 9.30997921 11.75683594 9.32788086 C10.93841217 9.32929581 10.1199884 9.33071075 9.27676392 9.33216858 C6.65810519 9.33777421 4.0395314 9.35032763 1.42089844 9.36303711 C-0.35253783 9.36805139 -2.12597543 9.37261442 -3.89941406 9.37670898 C-8.25100938 9.38774547 -12.60254106 9.40501386 -16.95410156 9.42553711 C-17.94410156 11.73553711 -18.93410156 14.04553711 -19.95410156 16.42553711 C-21.93410156 16.42553711 -23.91410156 16.42553711 -25.95410156 16.42553711 C-26.28410156 14.11553711 -26.61410156 11.80553711 -26.95410156 9.42553711 C-29.92410156 8.93053711 -29.92410156 8.93053711 -32.95410156 8.42553711 C-25.63355433 -0.61749183 -10.4563833 0.02711962 0 0 Z " fill="#FCAE01" transform="translate(253.9541015625,91.574462890625)"/>
<path d="M0 0 C1.18154663 -0.00430527 1.18154663 -0.00430527 2.38696289 -0.00869751 C4.05127685 -0.01073772 5.71561481 -0.00521082 7.37988281 0.00732422 C9.92827947 0.02337941 12.47509021 0.00747506 15.0234375 -0.01171875 C16.6406285 -0.00973631 18.25781852 -0.00589261 19.875 0 C20.63756104 -0.00607269 21.40012207 -0.01214539 22.18579102 -0.0184021 C27.42341129 0.05127552 27.42341129 0.05127552 29.91796875 1.73583984 C31.52885439 4.36278698 31.31253316 6.3981722 30.9375 9.3984375 C29.91796875 11.06103516 29.91796875 11.06103516 27.9375 12.3984375 C25.17330967 12.69669093 22.63901406 12.81888636 19.875 12.796875 C18.69345337 12.80118027 18.69345337 12.80118027 17.48803711 12.80557251 C15.82372315 12.80761272 14.15938519 12.80208582 12.49511719 12.78955078 C9.94672053 12.77349559 7.39990979 12.78939994 4.8515625 12.80859375 C3.2343715 12.80661131 1.61718148 12.80276761 0 12.796875 C-1.14384155 12.80598404 -1.14384155 12.80598404 -2.31079102 12.8152771 C-7.54841129 12.74559948 -7.54841129 12.74559948 -10.04296875 11.06103516 C-11.65385439 8.43408802 -11.43753316 6.3987028 -11.0625 3.3984375 C-8.53513407 -0.72305723 -4.32407846 -0.03443501 0 0 Z " fill="#3C3A37" transform="translate(246.0625,207.6015625)"/>
<path d="M0 0 C1.18154663 -0.00430527 1.18154663 -0.00430527 2.38696289 -0.00869751 C4.05127685 -0.01073772 5.71561481 -0.00521082 7.37988281 0.00732422 C9.92827947 0.02337941 12.47509021 0.00747506 15.0234375 -0.01171875 C16.6406285 -0.00973631 18.25781852 -0.00589261 19.875 0 C20.63756104 -0.00607269 21.40012207 -0.01214539 22.18579102 -0.0184021 C27.42444561 0.05128928 27.42444561 0.05128928 29.9140625 1.73583984 C31.5513645 4.39567443 31.38030896 6.3620332 30.9375 9.3984375 C28.47593689 12.07157493 26.96670241 12.3953055 23.31811523 12.78662109 C21.87757234 12.80634262 20.43672253 12.8087692 18.99609375 12.796875 C18.23200699 12.79974518 17.46792023 12.80261536 16.68067932 12.80557251 C15.06941993 12.80760962 13.45813561 12.80210442 11.84692383 12.78955078 C9.37981013 12.77346885 6.91432902 12.78942159 4.44726562 12.80859375 C2.88020472 12.80661169 1.31314483 12.80276877 -0.25390625 12.796875 C-1.36023155 12.80598404 -1.36023155 12.80598404 -2.48890686 12.8152771 C-7.55247499 12.74563732 -7.55247499 12.74563732 -10.02709961 11.06103516 C-11.66073101 8.43782605 -11.43843258 6.40589815 -11.0625 3.3984375 C-8.53513407 -0.72305723 -4.32407846 -0.03443501 0 0 Z " fill="#3C3938" transform="translate(246.0625,171.6015625)"/>
<path d="M0 0 C0.7895961 0.00404846 1.5791922 0.00809692 2.39271545 0.01226807 C3.2040242 0.01035461 4.01533295 0.00844116 4.85122681 0.00646973 C6.56859141 0.00510765 8.28596629 0.00880568 10.00331116 0.01715088 C12.63269719 0.02783648 15.26139783 0.01726371 17.89076233 0.00445557 C19.55808155 0.00577743 21.22540034 0.00834038 22.89271545 0.01226807 C23.68028732 0.0082196 24.46785919 0.00417114 25.27929688 0 C29.11561337 0.03294624 30.94169781 0.09961047 34.2091217 2.27789307 C34.5216217 5.77789307 34.5216217 5.77789307 34.2091217 9.27789307 C31.60606279 11.88095198 29.78633631 11.52614284 26.24012756 11.55578613 C25.42552063 11.55173767 24.6109137 11.54768921 23.7716217 11.54351807 C22.93574524 11.54543152 22.09986877 11.54734497 21.23866272 11.54931641 C19.47002359 11.55067842 17.70137448 11.54698083 15.93275452 11.53863525 C13.21996177 11.52793582 10.50783127 11.53852983 7.7950592 11.55133057 C6.0789119 11.55000897 4.36276502 11.54744659 2.6466217 11.54351807 C1.4247113 11.54959076 1.4247113 11.54959076 0.17811584 11.55578613 C-5.56095902 11.50781235 -5.56095902 11.50781235 -7.7908783 9.27789307 C-8.0408783 5.77789307 -8.0408783 5.77789307 -7.7908783 2.27789307 C-5.22135713 -0.2916281 -3.50321257 0.0302153 0 0 Z " fill="#343739" transform="translate(242.79087829589844,99.72210693359375)"/>
<path d="M0 0 C0.78769775 -0.00428513 1.57539551 -0.00857025 2.38696289 -0.01298523 C4.05125976 -0.01872454 5.71558171 -0.01923172 7.37988281 -0.01489258 C9.92816834 -0.01173033 12.47529533 -0.03520324 15.0234375 -0.06054688 C16.64062353 -0.06281967 18.25781269 -0.06352346 19.875 -0.0625 C20.63756104 -0.07170975 21.40012207 -0.08091949 22.18579102 -0.09040833 C27.42281171 -0.04451836 27.42281171 -0.04451836 29.921875 1.63208008 C31.49911159 4.22352529 31.25177849 6.3465634 30.9375 9.30078125 C28.33444108 11.90384017 26.51471461 11.54903103 22.96850586 11.57867432 C22.15389893 11.57462585 21.33929199 11.57057739 20.5 11.56640625 C19.66412354 11.5683197 18.82824707 11.57023315 17.96704102 11.57220459 C16.19840189 11.57356661 14.42975277 11.56986901 12.66113281 11.56152344 C9.94834006 11.550824 7.23620956 11.56141801 4.5234375 11.57421875 C2.8072902 11.57289716 1.09114331 11.57033477 -0.625 11.56640625 C-1.8469104 11.57247894 -1.8469104 11.57247894 -3.09350586 11.57867432 C-8.83258072 11.53070053 -8.83258072 11.53070053 -11.0625 9.30078125 C-11.375 5.80078125 -11.375 5.80078125 -11.0625 2.30078125 C-7.31330161 -0.19868434 -4.34288795 -0.00519059 0 0 Z " fill="#343639" transform="translate(246.0625,135.69921875)"/>
<path d="M0 0 C2.5625 1.6875 2.5625 1.6875 4 4 C3.93170531 6.80008242 3.34402197 8.41313899 1.9375 10.8125 C-1.21174865 12.74268466 -4.41363295 12.53795506 -8 12 C-10 10.875 -10 10.875 -11 9 C-11.38601984 5.91184125 -11.47901666 3.89815624 -10 1.125 C-6.78105257 -0.68565793 -3.54272932 -0.64025229 0 0 Z " fill="#403C37" transform="translate(295,208)"/>
<path d="M0 0 C2 1.125 2 1.125 3 3 C3.4375 6 3.4375 6 3 9 C0.67097984 11.79482419 -0.87963675 11.98495459 -4.5 12.4375 C-8 12 -8 12 -10.5 10.375 C-12 8 -12 8 -11.9375 4.875 C-10.03386463 -0.96281512 -5.25422665 -0.68961725 0 0 Z " fill="#3F3C37" transform="translate(225,208)"/>
<path d="M0 0 C2.4375 1.5625 2.4375 1.5625 4 4 C3.9375 7.625 3.9375 7.625 3 11 C-0.49124017 13.32749345 -1.89222251 13.50299316 -6 13 C-8.7912125 11.01677007 -9.82597224 9.87013879 -10.5 6.5 C-9.33827182 0.69135908 -5.5534724 -0.92557873 0 0 Z " fill="#F4F4F4" transform="translate(152,282)"/>
<path d="M0 0 C1.17369141 -0.02513672 1.17369141 -0.02513672 2.37109375 -0.05078125 C5.07781002 0.39792573 5.94713596 1.12460187 7.5625 3.3125 C7.875 6.375 7.875 6.375 7.5625 9.3125 C5.05237037 11.82262963 4.09444763 11.60971609 0.625 11.625 C-0.68791016 11.65013672 -0.68791016 11.65013672 -2.02734375 11.67578125 C-4.4375 11.3125 -4.4375 11.3125 -6.265625 9.984375 C-7.4375 8.3125 -7.4375 8.3125 -7.25 5.25 C-5.98715713 0.68433733 -4.4813418 0.02207558 0 0 Z " fill="#3A3938" transform="translate(220.4375,135.6875)"/>
<path d="M0 0 C2.5625 1.6875 2.5625 1.6875 4 4 C3.83849795 7.39154295 3.41703243 8.58296757 1 11 C-1.3125 11.265625 -1.3125 11.265625 -4 11.25 C-5.3303125 11.25773438 -5.3303125 11.25773438 -6.6875 11.265625 C-9 11 -9 11 -11 9 C-11.32339354 5.96010077 -11.45670212 3.85631647 -10 1.125 C-6.78105257 -0.68565793 -3.54272932 -0.64025229 0 0 Z " fill="#3A3A38" transform="translate(295,172)"/>
<path d="M0 0 C2 1.125 2 1.125 3 3 C3.3125 6.0625 3.3125 6.0625 3 9 C0.48987037 11.51012963 -0.46805237 11.29721609 -3.9375 11.3125 C-5.25041016 11.33763672 -5.25041016 11.33763672 -6.58984375 11.36328125 C-9 11 -9 11 -10.82421875 9.671875 C-12 8 -12 8 -11.875 4.9375 C-10.11056355 -0.98596522 -5.2564667 -0.68991125 0 0 Z " fill="#3A3A38" transform="translate(225,172)"/>
<path d="M0 0 C2.5625 1.6875 2.5625 1.6875 4 4 C3.83849795 7.39154295 3.41703243 8.58296757 1 11 C-1.3125 11.265625 -1.3125 11.265625 -4 11.25 C-5.3303125 11.25773438 -5.3303125 11.25773438 -6.6875 11.265625 C-9 11 -9 11 -11 9 C-11.32339354 5.96010077 -11.45670212 3.85631647 -10 1.125 C-6.78105257 -0.68565793 -3.54272932 -0.64025229 0 0 Z " fill="#393938" transform="translate(295,136)"/>
<path d="M0 0 C3.4375 0.75 3.4375 0.75 5.4375 2.75 C5.98337156 8.75458716 5.98337156 8.75458716 4.375 11.6875 C1.28256242 13.38335287 -1.11764741 13.18060657 -4.5625 12.75 C-6.5625 11.1875 -6.5625 11.1875 -7.5625 8.75 C-7.4375 5.125 -7.4375 5.125 -6.5625 1.75 C-3.5625 -0.25 -3.5625 -0.25 0 0 Z " fill="#F9F9F9" transform="translate(333.5625,282.25)"/>
<path d="M0 0 C0.7940625 -0.01417969 1.588125 -0.02835937 2.40625 -0.04296875 C4.5 0.1875 4.5 0.1875 6.5 2.1875 C6.75 5.6875 6.75 5.6875 6.5 9.1875 C4.08513057 11.60236943 3.37292211 11.4836925 0.0625 11.5 C-1.11119141 11.52513672 -1.11119141 11.52513672 -2.30859375 11.55078125 C-4.5 11.1875 -4.5 11.1875 -6.296875 9.89453125 C-7.5 8.1875 -7.5 8.1875 -7.3125 4.5625 C-7.044375 3.44875 -6.77625 2.335 -6.5 1.1875 C-4.14653604 0.01076802 -2.6193967 0.02126134 0 0 Z " fill="#373839" transform="translate(291.5,99.8125)"/>
<path d="M0 0 C1.17369141 -0.02513672 1.17369141 -0.02513672 2.37109375 -0.05078125 C4.5625 0.3125 4.5625 0.3125 6.359375 1.60546875 C7.5625 3.3125 7.5625 3.3125 7.375 6.9375 C7.106875 8.05125 6.83875 9.165 6.5625 10.3125 C4.20903604 11.48923198 2.6818967 11.47873866 0.0625 11.5 C-0.7315625 11.51417969 -1.525625 11.52835938 -2.34375 11.54296875 C-4.4375 11.3125 -4.4375 11.3125 -6.4375 9.3125 C-6.6875 5.8125 -6.6875 5.8125 -6.4375 2.3125 C-4.02263057 -0.10236943 -3.31042211 0.0163075 0 0 Z " fill="#373839" transform="translate(220.4375,99.6875)"/>
<path d="M0 0 C0.33 0 0.66 0 1 0 C0.3893407 6.47298854 0.3893407 6.47298854 -1.26489258 8.7121582 C-3.47906498 10.35557447 -4.71254849 10.34806949 -7.44921875 10.29296875 C-8.29677734 10.28330078 -9.14433594 10.27363281 -10.01757812 10.26367188 C-11.33918945 10.2259668 -11.33918945 10.2259668 -12.6875 10.1875 C-13.58017578 10.17396484 -14.47285156 10.16042969 -15.39257812 10.14648438 C-17.59566166 10.11114079 -19.79752582 10.06180493 -22 10 C-19.35559723 8.62101923 -16.7540662 7.50470715 -13.92578125 6.5625 C-13.17619141 6.30726563 -12.42660156 6.05203125 -11.65429688 5.7890625 C-10.08257103 5.25947347 -8.50963066 4.73347641 -6.93554688 4.2109375 C-2.71084318 3.0856862 -2.71084318 3.0856862 0 0 Z " fill="#D8CDAE" transform="translate(342,358)"/>
<path d="M0 0 C0.61875 0.4125 1.2375 0.825 1.875 1.25 C8.20415911 4.7943291 14.99624898 7.17293452 22 9 C22 9.33 22 9.66 22 10 C19.08178537 10.13510253 16.16982348 10.2341305 13.25 10.3125 C12.425 10.35439453 11.6 10.39628906 10.75 10.43945312 C4.61568747 10.56312878 4.61568747 10.56312878 1.4375 7.65625 C-0.11078874 4.79528168 -0.36560033 3.19900291 0 0 Z " fill="#D8CDAE" transform="translate(169,358)"/>
<path d="M0 0 C1.508013 0.92455559 3.00624917 1.8650747 4.5 2.8125 C5.75296875 3.59560547 5.75296875 3.59560547 7.03125 4.39453125 C7.6809375 4.92433594 8.330625 5.45414062 9 6 C9 6.99 9 7.98 9 9 C6 11.1875 6 11.1875 3 13 C1.11345615 8.36224637 -0.21225675 5.04994191 0 0 Z " fill="#D1C6A8" transform="translate(78,329)"/>
<path d="M0 0 C-0.54855348 4.571279 -1.41744803 8.67435795 -3 13 C-6 11.1875 -6 11.1875 -9 9 C-9 8.01 -9 7.02 -9 6 C-7.28515625 4.39453125 -7.28515625 4.39453125 -5.0625 2.8125 C-4.33160156 2.28269531 -3.60070312 1.75289063 -2.84765625 1.20703125 C-1 0 -1 0 0 0 Z " fill="#D3C8AA" transform="translate(434,329)"/>
<path d="M0 0 C0.66 0.33 1.32 0.66 2 1 C1.34 1.66 0.68 2.32 0 3 C0.66 3.66 1.32 4.32 2 5 C-0.64 5.33 -3.28 5.66 -6 6 C-4 4 -2 2 0 0 Z " fill="#C3BA9E" transform="translate(55,376)"/>
</svg>
