<?xml version="1.0" encoding="UTF-8"?>
<svg version="1.1" xmlns="http://www.w3.org/2000/svg" width="512" height="512">
<path d="M0 0 C15.4879856 15.01639629 18.3334143 35.75316109 19.1875 56.4375 C19.2292334 57.43990723 19.2709668 58.44231445 19.31396484 59.47509766 C19.92261357 75.28257465 19.78293265 90.97316768 18.625 106.75 C19.75292969 106.18152344 20.88085938 105.61304688 22.04296875 105.02734375 C65.30067567 83.62665257 115.28200448 77.72682264 161.625 92.75 C172.98205131 96.62842264 184.08141913 100.98704896 194.625 106.75 C194.5528125 105.8734375 194.480625 104.996875 194.40625 104.09375 C188.9281153 29.22590905 188.9281153 29.22590905 209.3671875 3.5625 C218.91813016 -6.89994341 232.18815523 -10.60040296 245.89453125 -11.37890625 C265.25146702 -11.86042207 282.92691873 -6.54292453 299.625 2.75 C301.09066406 3.55050781 301.09066406 3.55050781 302.5859375 4.3671875 C324.91439983 17.5285392 340.03192386 40.06686293 346.8828125 64.7421875 C347.25019531 66.23105469 347.25019531 66.23105469 347.625 67.75 C347.96144531 69.08417969 347.96144531 69.08417969 348.3046875 70.4453125 C353.8763982 97.23531875 347.46489911 123.92294599 333.50390625 146.94140625 C330.22123753 151.84834764 326.53903537 156.33644613 322.625 160.75 C321.70460938 161.79607422 321.70460938 161.79607422 320.765625 162.86328125 C309.15039799 175.24789295 294.23109474 182.66575254 278.625 188.75 C279.13289063 189.73097656 279.64078125 190.71195313 280.1640625 191.72265625 C291.19539822 213.23887549 299.85102945 235.97153521 299.75 260.4375 C299.75386719 261.35466797 299.75773437 262.27183594 299.76171875 263.21679688 C299.75209573 270.10207118 299.28443842 276.89799916 298.625 283.75 C299.74471191 283.41677734 300.86442383 283.08355469 302.01806641 282.74023438 C306.18656584 281.50204492 310.35816256 280.27458853 314.53076172 279.05029297 C316.33370369 278.51967313 318.13580126 277.98617513 319.93701172 277.44970703 C322.53134152 276.67756801 325.12856632 275.91594822 327.7265625 275.15625 C328.5267984 274.91563843 329.3270343 274.67502686 330.15151978 274.42712402 C334.41275743 273.19287264 338.13877628 272.3633893 342.625 272.75 C344.5 273.875 344.5 273.875 345.625 275.75 C346.125 278.625 346.125 278.625 345.625 281.75 C341.65597127 286.26942138 336.88474776 289.79071314 332.125 293.4375 C331.32618408 294.05399414 330.52736816 294.67048828 329.7043457 295.30566406 C327.34709995 297.12376637 324.98635885 298.93724486 322.625 300.75 C321.42033307 301.67807417 320.21588075 302.60642704 319.01171875 303.53515625 C315.88610825 305.94440303 312.75565522 308.34731162 309.625 310.75 C306.91779023 312.83132728 304.21145281 314.91378836 301.50537109 316.99658203 C298.20614145 319.53544623 294.90318367 322.0693647 291.59790039 324.6003418 C289.95256957 325.86343137 288.31182613 327.13228031 286.671875 328.40234375 C284.82066504 329.82872475 282.95873789 331.24152158 281.078125 332.62890625 C272.99062481 338.74739087 266.44001699 346.292297 259.625 353.75 C229.11405284 387.07183844 182.9516902 402.69563974 139.625 409.75 C139.38265625 410.66523438 139.1403125 411.58046875 138.890625 412.5234375 C138.55546875 413.71195312 138.2203125 414.90046875 137.875 416.125 C137.38773437 417.90003906 137.38773437 417.90003906 136.890625 419.7109375 C135.625 422.75 135.625 422.75 133.85717773 423.92376709 C131.30926681 424.86686755 129.35916047 425.00380867 126.64453125 425.00878906 C125.65670654 425.01509338 124.66888184 425.02139771 123.65112305 425.02789307 C122.59062744 425.0238446 121.53013184 425.01979614 120.4375 425.015625 C119.34284424 425.01753845 118.24818848 425.0194519 117.12036133 425.02142334 C114.80712657 425.02278368 112.49388413 425.0190978 110.18066406 425.01074219 C106.63849755 425.00004078 103.09683822 425.01064285 99.5546875 425.0234375 C97.30729055 425.02211588 95.05989391 425.01955343 92.8125 425.015625 C91.75200439 425.01967346 90.69150879 425.02372192 89.59887695 425.02789307 C88.11713989 425.01843658 88.11713989 425.01843658 86.60546875 425.00878906 C85.73817139 425.00719788 84.87087402 425.00560669 83.97729492 425.00396729 C81.38358579 424.72393553 79.7955669 424.19117428 77.625 422.75 C76.359375 419.7109375 76.359375 419.7109375 75.375 416.125 C75.03984375 414.93648438 74.7046875 413.74796875 74.359375 412.5234375 C74.11703125 411.60820312 73.8746875 410.69296875 73.625 409.75 C72.32691406 409.54246094 71.02882812 409.33492188 69.69140625 409.12109375 C33.70381914 403.12428179 -0.22328125 391.04673538 -29.375 368.75 C-30.2928125 368.05648438 -31.210625 367.36296875 -32.15625 366.6484375 C-41.85412601 359.03275252 -50.85415922 350.1541339 -58.7890625 340.71484375 C-62.43909471 336.4998527 -66.55129557 333.2104519 -71 329.875 C-72.18468872 328.97056152 -72.18468872 328.97056152 -73.39331055 328.04785156 C-74.98051303 326.83680689 -76.57022478 325.62904285 -78.16259766 324.42480469 C-80.65798137 322.53578104 -83.13777172 320.62740559 -85.61474609 318.71435547 C-88.19707633 316.72048546 -90.78686195 314.73632196 -93.375 312.75 C-94.99670464 311.50321885 -96.61803677 310.25595483 -98.23925781 309.00854492 C-99.32572567 308.17261331 -100.41231334 307.33683738 -101.49902344 306.5012207 C-104.22114166 304.40800848 -106.94190324 302.3130735 -109.66015625 300.21484375 C-110.7525589 299.37233713 -111.84500654 298.52988886 -112.9375 297.6875 C-113.46762695 297.27822266 -113.99775391 296.86894531 -114.54394531 296.44726562 C-117.28559576 294.33624496 -120.04146774 292.2480172 -122.82421875 290.19140625 C-123.37843506 289.78092041 -123.93265137 289.37043457 -124.50366211 288.94750977 C-126.03623731 287.81555955 -127.57269064 286.6888655 -129.109375 285.5625 C-131.375 283.75 -131.375 283.75 -132.375 281.75 C-132.83283675 276.37041821 -132.83283675 276.37041821 -131.1190033 274.04798889 C-129.375 272.75 -129.375 272.75 -127.41334534 272.59544373 C-122.08991737 273.38272611 -116.9978069 274.5032793 -111.83984375 276.03515625 C-111.07571671 276.25570175 -110.31158966 276.47624725 -109.52430725 276.70347595 C-107.11830824 277.3996001 -104.71542388 278.10584289 -102.3125 278.8125 C-100.66751413 279.29039019 -99.02233328 279.76760976 -97.37695312 280.24414062 C-93.37400957 281.40503159 -89.3738231 282.5749979 -85.375 283.75 C-85.44428711 283.00919189 -85.51357422 282.26838379 -85.58496094 281.50512695 C-86.99378539 265.6959607 -87.5582159 250.17757443 -83.375 234.75 C-83.17100586 233.98478027 -82.96701172 233.21956055 -82.75683594 232.43115234 C-78.59937511 217.05096795 -72.74260606 202.87407428 -65.375 188.75 C-66.39078125 188.32589844 -67.4065625 187.90179688 -68.453125 187.46484375 C-81.7802069 181.82314872 -93.47105838 175.41985211 -104.375 165.75 C-105.07238281 165.13640625 -105.76976563 164.5228125 -106.48828125 163.890625 C-123.79153004 147.66232754 -135.24290252 123.06969505 -136.5 99.39599609 C-137.42326037 68.91109276 -129.05504777 41.76914378 -107.93261719 19.20947266 C-83.22884431 -6.02187232 -30.64976299 -26.25159072 0 0 Z " fill="#35373C" transform="translate(149.375,49.25)"/>
<path d="M0 0 C13.27467251 10.48557908 24.23684332 25.40947412 26.31933594 42.64257812 C26.47190856 45.35298584 26.51921654 48.03542291 26.5 50.75 C26.49033203 52.19016479 26.49033203 52.19016479 26.48046875 53.65942383 C26.11536163 67.95985285 20.67002222 78.91463362 10.8359375 89.28125 C5.76329895 94.08502078 0.44836121 97.35246134 -6 100 C-6.75667969 100.3196875 -7.51335937 100.639375 -8.29296875 100.96875 C-17.18673612 104.18659548 -28.50699222 104.70478371 -37.4375 101.375 C-38.98328425 100.63323105 -40.50592221 99.84107176 -42 99 C-43.16789062 98.34644531 -43.16789062 98.34644531 -44.359375 97.6796875 C-54.32705549 91.55859512 -60.23456421 83.13643977 -63.6171875 71.9609375 C-65.26237845 63.53353081 -63.95336191 54.95428462 -59.55859375 47.58203125 C-54.53844903 40.62837372 -47.57869481 34.75075404 -39 33 C-31.24729107 32.01230759 -25.43268442 33.553245 -19 38 C-13.95951148 42.35831714 -11.24528516 46.80378958 -9.5078125 53.21484375 C-9.1542389 55.00797893 -9.1542389 55.00797893 -8 56 C-5.66702567 56.04092937 -3.33294775 56.04241723 -1 56 C0.7905592 52.4188816 -0.08288799 48.78957604 -1 45 C-4.97217478 35.76006655 -11.8328776 28.44880685 -21.125 24.5 C-31.36059335 21.30764012 -41.63213428 21.82230413 -51.28515625 26.4609375 C-62.00083963 32.53572779 -69.45517488 41.06233099 -73.34375 52.87890625 C-75.3830899 62.57790968 -74.86031032 72.84153098 -71 82 C-70.50693359 83.22589844 -70.50693359 83.22589844 -70.00390625 84.4765625 C-65.00671566 95.64675322 -56.69456714 103.32133548 -46 109 C-45.22914063 109.43441406 -44.45828125 109.86882812 -43.6640625 110.31640625 C-32.625875 115.44255482 -16.65773505 114.9726761 -5.2409668 111.20117188 C11.50765109 104.77693193 23.99891606 94.17698326 31.4765625 77.7578125 C38.5175456 60.25829309 39.18118392 42.53481773 32.17041016 24.91503906 C25.47715605 9.35186285 15.14516997 -1.5436148 2 -12 C30.96733871 -8.67669231 60.10971022 5.25359557 83 23 C83.93972656 23.72832031 84.87945312 24.45664063 85.84765625 25.20703125 C115.14012656 48.59886006 137.83743597 78.38960761 150 114 C150.56074219 115.61455078 150.56074219 115.61455078 151.1328125 117.26171875 C152.14348293 120.45306997 152.50548156 122.67826403 152 126 C149.9375 127.875 149.9375 127.875 147 130 C145.24928621 131.85931887 143.60548892 133.79390905 141.9453125 135.734375 C139.12183749 139.02275955 136.21006834 142.22896656 133.30078125 145.44140625 C131.82536619 147.08214795 130.3631087 148.73487458 128.91796875 150.40234375 C124.44098676 155.52720068 119.71538516 160.29171096 114.75 164.9375 C114.15936768 165.49348877 113.56873535 166.04947754 112.96020508 166.62231445 C109.81925722 169.52065975 106.78883626 171.95602254 103 174 C102.938125 172.7625 102.87625 171.525 102.8125 170.25 C101.68434059 160.43655852 97.36949578 151.58811473 90 145 C81.36370557 138.25344689 71.87527261 135.76227716 61 137 C50.66046025 139.44013138 41.98648818 145.17967126 36 154 C30.58627083 162.91079646 30.59989144 173.96236823 32.58984375 183.96484375 C35.25043733 191.7259301 41.23072665 198.4871511 48 203 C48 203.66 48 204.32 48 205 C25.43670262 214.31142936 1.89522703 212.99787944 -22.05279541 212.77209473 C-26.40277312 212.74260998 -30.7521258 212.75780023 -35.10213947 212.77334213 C-39.35704688 212.78374072 -43.61159381 212.7690824 -47.86644554 212.74695587 C-49.86785457 212.7387255 -51.86930369 212.73701247 -53.87072182 212.74260712 C-69.10678999 212.76080615 -83.86972646 211.1042302 -98 205 C-96.86574523 201.59723568 -95.91594551 200.8894922 -93.1875 198.6875 C-86.27281689 192.78532406 -82.42249992 186.1361737 -81.67578125 177.05859375 C-81.24476038 165.76104382 -82.68290912 157.71376832 -90 148.75 C-97.32143382 141.05279722 -106.55959815 136.98711587 -117.125 136.6875 C-127.37776894 136.82530603 -135.64601307 140.99550948 -143 148 C-149.51370007 155.37975383 -152.51355242 164.27104831 -153 174 C-158.38600428 170.10297437 -163.41269336 165.99613007 -168.25 161.4375 C-168.89259766 160.83470215 -169.53519531 160.2319043 -170.19726562 159.61083984 C-178.43754019 151.79643506 -186.03113744 143.40314921 -193.3984375 134.765625 C-195.66394345 132.26804283 -198.16692775 130.04226476 -200.71484375 127.8359375 C-202.63157075 125.09775607 -202.34648946 123.29558729 -202 120 C-201.27625804 117.3576323 -200.50113109 114.87472543 -199.5625 112.3125 C-199.29735596 111.57990967 -199.03221191 110.84731934 -198.7590332 110.0925293 C-182.29995472 65.88881411 -149.30675815 29.41194494 -108 7 C-107.34708984 6.64067383 -106.69417969 6.28134766 -106.02148438 5.91113281 C-95.86110814 0.37143019 -85.36252543 -3.7508914 -74.33984375 -7.25244141 C-72.88949784 -7.71581361 -71.44315609 -8.19219833 -70.00390625 -8.68896484 C-47.04215841 -16.58358269 -19.86795906 -14.18351522 0 0 Z " fill="#A861E7" transform="translate(281,160)"/>
<path d="M0 0 C0.67740234 -0.020625 1.35480469 -0.04125 2.05273438 -0.0625 C7.19080873 -0.10190997 10.55515445 1.01689529 15.0625 3.25 C16.31714325 14.29086064 8.91251409 24.67089177 3.4375 33.75 C2.19112632 35.85844062 0.94635682 37.96783028 -0.296875 40.078125 C-0.91111328 41.11775391 -1.52535156 42.15738281 -2.15820312 43.22851562 C-15.61260305 66.07588849 -31.15844957 93.02062095 -25.44824219 120.61425781 C-21.84984612 134.49706498 -15.07409724 146.25275834 -5.9375 157.25 C-7.96153462 161.49019486 -10.56657412 165.14017355 -13.3125 168.9375 C-13.79460937 169.62650391 -14.27671875 170.31550781 -14.7734375 171.02539062 C-15.2478125 171.68087891 -15.7221875 172.33636719 -16.2109375 173.01171875 C-16.63810059 173.60944092 -17.06526367 174.20716309 -17.50537109 174.82299805 C-19.28492379 176.59618003 -20.45933728 176.95499483 -22.9375 177.25 C-46.10449057 170.70404443 -65.59152315 153.43308252 -77.26953125 132.72265625 C-80.58194867 125.82631179 -82.8389922 118.59387973 -84.9375 111.25 C-85.34162109 109.85201172 -85.34162109 109.85201172 -85.75390625 108.42578125 C-90.75553759 86.70541018 -86.19263062 62.526155 -74.6875 43.6875 C-59.35781048 20.67641099 -38.17849839 6.17597828 -11.015625 0.65625 C-7.33766136 0.17083348 -3.70361007 0.02803111 0 0 Z " fill="#E1CAA9" transform="translate(111.9375,49.75)"/>
<path d="M0 0 C19.28637268 14.20855958 32.93783599 33.99812241 37.484375 57.76171875 C40.91243555 82.4328141 36.20747489 106.91455453 21.35131836 127.18261719 C9.86650886 142.26363621 -3.74964682 151.65639446 -21 159 C-21.886875 159.41378906 -22.77375 159.82757813 -23.6875 160.25390625 C-26.39316522 161.12684891 -27.36683522 160.98256173 -30 160 C-31.55566406 158.48120117 -31.55566406 158.48120117 -33.015625 156.54296875 C-33.54414063 155.84236328 -34.07265625 155.14175781 -34.6171875 154.41992188 C-35.15601563 153.68322266 -35.69484375 152.94652344 -36.25 152.1875 C-36.80429687 151.46240234 -37.35859375 150.73730469 -37.9296875 149.99023438 C-42 144.51135314 -42 144.51135314 -42 140 C-40.50110511 137.71527672 -38.97802227 135.59272633 -37.3125 133.4375 C-26.43674721 118.76659247 -21.21341631 101.31554906 -23 83 C-26.47119226 60.92379816 -38.04267625 41.72395727 -49.31054688 22.85058594 C-51.82957534 18.60027143 -54.27403879 14.31095677 -56.6875 10 C-57.08509521 9.30116699 -57.48269043 8.60233398 -57.89233398 7.88232422 C-61.59850478 1.23627486 -64.78146896 -5.18531042 -64 -13 C-50.16327321 -26.83672679 -12.79345018 -8.75341328 0 0 Z " fill="#E1CAA9" transform="translate(449,66)"/>
<path d="M0 0 C2.49976112 3.74964168 2.34189254 6.71699608 2.3125 11.0625 C2.31056641 12.24078369 2.31056641 12.24078369 2.30859375 13.44287109 C2.17078434 22.11969626 0.68620503 30.50875324 -1 39 C-4.60332284 40.10693278 -8.20781247 41.21002018 -11.8125 42.3125 C-13.31973633 42.7755957 -13.31973633 42.7755957 -14.85742188 43.24804688 C-20.78253519 45.05796895 -26.70397977 46.73380149 -32.72924805 48.18041992 C-35.2271622 49.08198941 -36.43817407 49.858058 -38 52 C-37.76716851 55.14921909 -37.76716851 55.14921909 -37 58 C-30.78568377 59.86960625 -25.54847501 57.79129935 -19.5625 56 C-18.46808594 55.68329346 -17.37367188 55.36658691 -16.24609375 55.0402832 C-7.70515571 52.55347129 0.80995485 49.97050987 9.29858398 47.31054688 C14.82775821 45.591685 20.33057416 44.18113038 26 43 C21.93464596 47.28898845 17.50029487 50.84991738 12.8125 54.4375 C11.20565206 55.67698338 9.59888358 56.91656978 7.9921875 58.15625 C7.16944336 58.78917969 6.34669922 59.42210937 5.49902344 60.07421875 C1.46740653 63.18103725 -2.54690778 66.31001634 -6.5625 69.4375 C-8.66312493 71.07158333 -10.76390613 72.70541585 -12.86767578 74.33544922 C-14.40504011 75.53555799 -15.93362804 76.74693954 -17.45654297 77.96533203 C-18.26365723 78.60712402 -19.07077148 79.24891602 -19.90234375 79.91015625 C-20.63831787 80.50062744 -21.37429199 81.09109863 -22.13256836 81.69946289 C-24 83 -24 83 -26 83 C-26.30744141 84.28197266 -26.30744141 84.28197266 -26.62109375 85.58984375 C-28.36213697 89.89559653 -30.76312328 92.36885217 -34.0625 95.5625 C-34.6824585 96.16819824 -35.30241699 96.77389648 -35.94116211 97.39794922 C-58.601299 119.06992509 -86.13488226 132.63114833 -115.98632812 141.40673828 C-117.69848267 141.91116791 -119.40464556 142.43586363 -121.109375 142.96484375 C-128.62341523 145.19904802 -136.22930898 146.10862519 -144 147 C-143.1582019 138.41152826 -141.05065077 130.12308477 -139.08398438 121.734375 C-138.68469727 119.99027344 -138.68469727 119.99027344 -138.27734375 118.2109375 C-138.03234131 117.16212402 -137.78733887 116.11331055 -137.53491211 115.03271484 C-136.9924365 111.95711829 -136.90475048 109.11614489 -137 106 C-140.49208181 104.83597273 -143.39147772 104.78881492 -147.07421875 104.68359375 C-148.09996758 104.6524221 -148.09996758 104.6524221 -149.1464386 104.62062073 C-151.3266921 104.55533846 -153.50706405 104.49633983 -155.6875 104.4375 C-157.16732986 104.39429447 -158.64714783 104.35067953 -160.12695312 104.30664062 C-163.75117622 104.19967917 -167.37553189 104.09835177 -171 104 C-166.5631957 98.86037449 -159.47482243 96.27836498 -153.5 93.25 C-152.78604065 92.88729004 -152.0720813 92.52458008 -151.33648682 92.15087891 C-139.53790582 86.21751701 -128.21183678 82.4185079 -115.30078125 79.515625 C-108.05860642 77.87286335 -101.2490642 75.34438444 -94.32128906 72.70605469 C-88.73769111 70.59102377 -83.22914776 68.95811979 -77.40234375 67.62890625 C-69.25047611 65.49484009 -63.42442455 60.52750087 -57.6640625 54.59375 C-54.93812339 51.9397565 -52.11180602 49.71005972 -49.0625 47.4375 C-35.54518125 37.19740169 -22.8691139 26.04188945 -11.8359375 13.125 C-9.45873319 10.37351246 -7.01242465 7.68654314 -4.5625 5 C-3.26505859 3.576875 -3.26505859 3.576875 -1.94140625 2.125 C-1.30074219 1.42375 -0.66007813 0.7225 0 0 Z " fill="#FDF9E9" transform="translate(435,299)"/>
<path d="M0 0 C6.77649338 5.47886699 12.36767731 11.78539658 18.046875 18.375 C27.7972443 29.5182792 38.61292425 39.36841275 50.63305664 48.00537109 C54.43569314 50.74568529 57.75143561 53.5926925 61 57 C67.25944302 63.09819273 74.06749333 67.33908084 82.73828125 68.91015625 C87.93654763 69.88588263 92.51101729 71.65652978 97.375 73.6875 C104.42406232 76.5349577 111.31584137 78.61467401 118.74926758 80.19970703 C132.11739399 83.06830591 143.55026433 87.63746007 155.6875 93.8125 C156.44872162 94.19888641 157.20994324 94.58527283 157.99423218 94.98336792 C160.15257687 96.08731401 162.30303086 97.20465393 164.44921875 98.33203125 C165.09886597 98.67136688 165.74851318 99.01070251 166.41784668 99.36032104 C170.87919031 101.75838063 170.87919031 101.75838063 172 104 C171.07662842 104.02505615 170.15325684 104.0501123 169.2019043 104.07592773 C165.77453584 104.17109045 162.34733539 104.27032214 158.92016602 104.37231445 C157.43713985 104.4156133 155.95406546 104.45729199 154.47094727 104.49731445 C152.33855661 104.55513958 150.20640758 104.61879832 148.07421875 104.68359375 C146.79119873 104.72025146 145.50817871 104.75690918 144.1862793 104.79467773 C140.97888449 104.86561234 140.97888449 104.86561234 138 106 C137.39363296 113.42799624 139.4657666 119.98449149 141.46533203 127.06298828 C142.29481254 130.06805603 143.03046962 133.09195567 143.75 136.125 C143.99234375 137.13820313 144.2346875 138.15140625 144.484375 139.1953125 C144.9763608 141.87141708 145.09937427 144.28708247 145 147 C120.69428841 143.78741899 97.57635089 136.68821751 76 125 C75.06800781 124.53335938 74.13601562 124.06671875 73.17578125 123.5859375 C56.90374813 115.26749905 38.43417332 102.3034542 28 87 C27.86078125 86.3090625 27.7215625 85.618125 27.578125 84.90625 C27.19228915 82.85074133 27.19228915 82.85074133 25.2890625 82.015625 C24.15597656 81.51289063 24.15597656 81.51289063 23 81 C21.09896464 79.61846679 19.227667 78.19575047 17.375 76.75 C16.81651367 76.31598877 16.25802734 75.88197754 15.68261719 75.43481445 C13.78587475 73.95977045 11.89296135 72.47989247 10 71 C7.084375 68.72782797 4.16714609 66.45771865 1.25 64.1875 C0.49976562 63.60307129 -0.25046875 63.01864258 -1.0234375 62.41650391 C-8.97669364 56.22669295 -16.98408624 50.10832922 -25 44 C-22.00526118 42.50263059 -20.24692414 43.6488061 -17.0859375 44.625 C-15.86076416 44.99898926 -14.63559082 45.37297852 -13.37329102 45.75830078 C-12.7209549 45.961026 -12.06861877 46.16375122 -11.39651489 46.37261963 C-9.36812056 47.00213504 -7.33687236 47.62143814 -5.30444336 48.23779297 C0.02013505 49.85421455 5.34011566 51.48506995 10.65478516 53.13378906 C13.9122019 54.14271113 17.17427764 55.13505105 20.4375 56.125 C21.40574707 56.43179688 22.37399414 56.73859375 23.37158203 57.0546875 C28.7260231 58.66739076 32.52938908 59.30933466 38 58 C38.76716851 55.14921909 38.76716851 55.14921909 39 52 C36.73993461 48.80008114 33.98668813 48.21281773 30.30078125 47.28125 C29.17349609 46.98863281 28.04621094 46.69601562 26.88476562 46.39453125 C25.70591797 46.09933594 24.52707031 45.80414063 23.3125 45.5 C18.86501119 44.36773214 14.42955687 43.20036795 10 42 C8.74002197 41.70029297 8.74002197 41.70029297 7.45458984 41.39453125 C5.29296875 40.78125 5.29296875 40.78125 2 39 C0.78787552 35.99603934 0.31188616 34.12417034 0 31 C-0.1040918 30.21560547 -0.20818359 29.43121094 -0.31542969 28.62304688 C-3.00905131 6.01810262 -3.00905131 6.01810262 0 0 Z " fill="#FDF9E9" transform="translate(76,299)"/>
<path d="M0 0 C10.50656377 7.56472591 14.19478295 19.36340402 16.50244141 31.68212891 C17.05072561 35.33825368 17.3173805 38.96834235 17.50390625 42.65625 C17.54326797 43.42296021 17.5826297 44.18967041 17.6231842 44.97961426 C17.75508578 47.65281075 17.87777932 50.32634402 18 53 C18.0742923 54.53358154 18.0742923 54.53358154 18.15008545 56.09814453 C18.47701717 63.02469481 18.70354438 69.94705108 18.84448242 76.87988281 C18.90688335 79.30844158 18.99609204 81.73644867 19.11108398 84.16308594 C20.02278579 103.90030524 20.02278579 103.90030524 16.66204834 109.05026245 C12.98222101 112.78601688 8.7030713 114.80583847 4 117 C2.21149986 118.30289471 0.45177487 119.64820525 -1.25 121.0625 C-2.03632813 121.70316406 -2.82265625 122.34382813 -3.6328125 123.00390625 C-10.20986244 128.54990051 -16.47604371 134.33239841 -22.40625 140.56640625 C-24 142 -24 142 -26 142 C-27.54199757 140.09446666 -28.93690357 138.20897467 -30.3125 136.1875 C-30.71476807 135.600896 -31.11703613 135.01429199 -31.53149414 134.40991211 C-35.00931147 129.21527751 -37.75844471 123.84244733 -40 118 C-40.54720703 116.66582031 -40.54720703 116.66582031 -41.10546875 115.3046875 C-47.37872305 92.12925896 -36.10460261 68.93587238 -25.01141357 49.24523926 C-21.95031099 43.92701553 -18.77691423 38.67591835 -15.60180664 33.42529297 C-9.14109144 22.70639696 -3.59179395 12.04307384 0 0 Z " fill="#8A4EDE" transform="translate(139,57)"/>
<path d="M0 0 C2.35277572 2.35277572 2.60801651 3.75757886 3.5 6.9375 C7.33581112 18.82994044 13.93651655 29.76010151 20.4375 40.375 C34.32997481 63.06136459 48.40575488 88.32568956 42.125 115.83203125 C38.65226615 125.27923815 33.41118271 134.2560769 27 142 C23.79037268 140.93012423 23.30094163 140.41610306 21.3125 137.875 C17.8897514 133.76271709 14.12236306 130.40015062 10 127 C9.46165527 126.55462891 8.92331055 126.10925781 8.36865234 125.65039062 C6.50244258 124.11273534 4.62766099 122.58614639 2.75 121.0625 C2.16677979 120.58466064 1.58355957 120.10682129 0.98266602 119.61450195 C0.38510498 119.13456787 -0.21245605 118.65463379 -0.828125 118.16015625 C-1.4576709 117.63204346 -2.0872168 117.10393066 -2.73583984 116.55981445 C-5.02704311 114.84287648 -5.02704311 114.84287648 -8.12744141 113.85229492 C-11.99724844 112.17602704 -14.88876266 110.69026497 -17 107 C-19.04785115 98.30323413 -18.26713084 89.07321359 -17.94055176 80.20800781 C-17.8329065 76.8900483 -17.8023463 73.57130592 -17.76171875 70.25195312 C-16.90579196 16.90702355 -16.90579196 16.90702355 -2.125 1.875 C-1.42375 1.25625 -0.7225 0.6375 0 0 Z " fill="#8A4EDF" transform="translate(372,57)"/>
<path d="M0 0 C7.13912115 5.63914623 13.65090789 11.91039182 18 20 C18 20.99 18 21.98 18 23 C16.67331299 22.90912109 16.67331299 22.90912109 15.31982422 22.81640625 C-2.13094423 21.63959396 -19.49979626 20.55109556 -37 21 C-37.77843262 21.01401855 -38.55686523 21.02803711 -39.35888672 21.04248047 C-58.54099268 21.43329422 -77.62292048 24.52379438 -96 30 C-97.29069684 30.34093252 -98.58241044 30.67803395 -99.875 31.01171875 C-126.58884419 38.09592932 -150.34113251 51.36965624 -171.4921875 68.921875 C-173.97236392 70.97709907 -176.479545 72.99447666 -179 75 C-178.46376019 70.57402069 -176.88815542 68.07091902 -174.1875 64.5625 C-173.7951416 64.05243408 -173.4027832 63.54236816 -172.99853516 63.0168457 C-154.99124046 39.89201879 -133.83493688 21.0173475 -108 7 C-107.34708984 6.64067383 -106.69417969 6.28134766 -106.02148438 5.91113281 C-95.86110814 0.37143019 -85.36252543 -3.7508914 -74.33984375 -7.25244141 C-72.88949784 -7.71581361 -71.44315609 -8.19219833 -70.00390625 -8.68896484 C-47.04215841 -16.58358269 -19.86795906 -14.18351522 0 0 Z " fill="#BA7CFD" transform="translate(281,160)"/>
<path d="M0 0 C0 14.82218463 -11.31056491 29.09580704 -18.48632812 41.40820312 C-23.35374162 49.78798133 -27.85823226 58.24253089 -32 67 C-32.47695313 67.95132813 -32.95390625 68.90265625 -33.4453125 69.8828125 C-41.20414742 85.81862314 -44.88083383 105.50120582 -39.20141602 122.74951172 C-33.05584086 138.84310162 -21.85217172 151.54881621 -9.60913086 163.31762695 C-8.73526733 164.16587036 -8.73526733 164.16587036 -7.84375 165.03125 C-7.05774414 165.78245117 -7.05774414 165.78245117 -6.25585938 166.54882812 C-5 168 -5 168 -4 171 C-19.44545504 169.11299871 -35.21631411 156.57534854 -45 145 C-53.92407518 133.36190196 -60.28662212 121.24651706 -64 107 C-64.3403125 105.76636719 -64.3403125 105.76636719 -64.6875 104.5078125 C-69.72981523 82.58774767 -65.38656824 58.49137271 -53.75 39.4375 C-42.63022917 22.74583536 -21.92928398 0 0 0 Z " fill="#F0E8C7" transform="translate(91,54)"/>
<path d="M0 0 C12.59673894 1.79953413 24.54931989 8.67482622 34 17 C34.79535156 17.64195313 35.59070313 18.28390625 36.41015625 18.9453125 C53.15731789 32.97461947 62.17288674 52.82961614 66 74 C68.14843093 100.03244964 62.14396167 123.73600839 45.4609375 144.1015625 C36.55641567 154.58911043 26.26403128 162.22467307 13.875 168.125 C12.91581665 168.58628296 12.91581665 168.58628296 11.93725586 169.05688477 C7.37777991 171.12592664 7.37777991 171.12592664 4 170 C8.31853099 165.10974859 12.63729592 160.30175305 17.375 155.8125 C26.20318716 147.06175307 33.67538436 136.69112195 38 125 C38.30421875 124.19820313 38.6084375 123.39640625 38.921875 122.5703125 C40.52893464 118.06751332 41.59445404 113.78544227 42 109 C42.07605469 108.19691406 42.15210938 107.39382812 42.23046875 106.56640625 C43.52353061 81.36917388 28.04663731 57.54950072 15.68945312 36.85498047 C13.16336401 32.5861819 10.72458409 28.27150719 8.3125 23.9375 C7.91490479 23.23028809 7.51730957 22.52307617 7.10766602 21.79443359 C0.80252306 10.43279976 0.80252306 10.43279976 0.3125 4.0625 C0.21388672 2.90427734 0.21388672 2.90427734 0.11328125 1.72265625 C0.07589844 1.15417969 0.03851563 0.58570313 0 0 Z " fill="#F0E8C7" transform="translate(421,54)"/>
<path d="M0 0 C2.49976112 3.74964168 2.34189254 6.71699608 2.3125 11.0625 C2.31056641 12.24078369 2.31056641 12.24078369 2.30859375 13.44287109 C2.17078434 22.11969626 0.68620503 30.50875324 -1 39 C-4.60332284 40.10693278 -8.20781247 41.21002018 -11.8125 42.3125 C-13.31973633 42.7755957 -13.31973633 42.7755957 -14.85742188 43.24804688 C-20.78253519 45.05796895 -26.70397977 46.73380149 -32.72924805 48.18041992 C-35.22488153 49.08116625 -36.42888796 49.8699815 -38 52 C-37.77669287 55.64734979 -37.61627165 57.38372835 -35 60 C-60.79183665 83.38681008 -99.81215816 108.83400073 -136 109 C-136.33 108.01 -136.66 107.02 -137 106 C-140.49208181 104.83597273 -143.39147772 104.78881492 -147.07421875 104.68359375 C-148.09996758 104.6524221 -148.09996758 104.6524221 -149.1464386 104.62062073 C-151.3266921 104.55533846 -153.50706405 104.49633983 -155.6875 104.4375 C-157.16732986 104.39429447 -158.64714783 104.35067953 -160.12695312 104.30664062 C-163.75117622 104.19967917 -167.37553189 104.09835177 -171 104 C-166.5631957 98.86037449 -159.47482243 96.27836498 -153.5 93.25 C-152.78604065 92.88729004 -152.0720813 92.52458008 -151.33648682 92.15087891 C-139.53790582 86.21751701 -128.21183678 82.4185079 -115.30078125 79.515625 C-108.05860642 77.87286335 -101.2490642 75.34438444 -94.32128906 72.70605469 C-88.73769111 70.59102377 -83.22914776 68.95811979 -77.40234375 67.62890625 C-69.25047611 65.49484009 -63.42442455 60.52750087 -57.6640625 54.59375 C-54.93812339 51.9397565 -52.11180602 49.71005972 -49.0625 47.4375 C-35.54518125 37.19740169 -22.8691139 26.04188945 -11.8359375 13.125 C-9.45873319 10.37351246 -7.01242465 7.68654314 -4.5625 5 C-3.26505859 3.576875 -3.26505859 3.576875 -1.94140625 2.125 C-1.30074219 1.42375 -0.66007813 0.7225 0 0 Z " fill="#EFE7C7" transform="translate(435,299)"/>
<path d="M0 0 C6.77649338 5.47886699 12.36767731 11.78539658 18.046875 18.375 C27.7972443 29.5182792 38.61292425 39.36841275 50.63305664 48.00537109 C54.43569314 50.74568529 57.75143561 53.5926925 61 57 C67.25944302 63.09819273 74.06749333 67.33908084 82.73828125 68.91015625 C87.93654763 69.88588263 92.51101729 71.65652978 97.375 73.6875 C104.42406232 76.5349577 111.31584137 78.61467401 118.74926758 80.19970703 C132.11739399 83.06830591 143.55026433 87.63746007 155.6875 93.8125 C156.44872162 94.19888641 157.20994324 94.58527283 157.99423218 94.98336792 C160.15257687 96.08731401 162.30303086 97.20465393 164.44921875 98.33203125 C165.09886597 98.67136688 165.74851318 99.01070251 166.41784668 99.36032104 C170.87919031 101.75838063 170.87919031 101.75838063 172 104 C171.07662842 104.02505615 170.15325684 104.0501123 169.2019043 104.07592773 C165.77453584 104.17109045 162.34733539 104.27032214 158.92016602 104.37231445 C157.43713985 104.4156133 155.95406546 104.45729199 154.47094727 104.49731445 C152.33855661 104.55513958 150.20640758 104.61879832 148.07421875 104.68359375 C146.79119873 104.72025146 145.50817871 104.75690918 144.1862793 104.79467773 C140.97888449 104.86561234 140.97888449 104.86561234 138 106 C137.67 106.99 137.34 107.98 137 109 C100.33283336 108.83180199 62.36596001 83.2937525 36 60 C36.49886719 59.39414062 36.99773437 58.78828125 37.51171875 58.1640625 C39.27973081 56.07522753 39.27973081 56.07522753 38.8125 53.375 C38.14323449 50.84979635 38.14323449 50.84979635 36 49 C34.15440908 48.38993672 32.28127144 47.86193772 30.3984375 47.37890625 C29.26792969 47.08306641 28.13742188 46.78722656 26.97265625 46.48242188 C25.19181641 46.02706055 25.19181641 46.02706055 23.375 45.5625 C18.90575906 44.41178182 14.44995785 43.22299225 10 42 C9.15856445 41.79874512 8.31712891 41.59749023 7.45019531 41.39013672 C5.2890625 40.77734375 5.2890625 40.77734375 2 39 C0.78787552 35.99603934 0.31188616 34.12417034 0 31 C-0.1561377 29.8234082 -0.1561377 29.8234082 -0.31542969 28.62304688 C-3.00905131 6.01810262 -3.00905131 6.01810262 0 0 Z " fill="#EFE7C7" transform="translate(76,299)"/>
<path d="M0 0 C28.96733871 3.32330769 58.10971022 17.25359557 81 35 C81.93972656 35.72832031 82.87945312 36.45664063 83.84765625 37.20703125 C100.86778645 50.79864601 116.41305063 66.4396692 128 85 C128 85.66 128 86.32 128 87 C124.41501644 85.47760972 122.14168082 83.33898213 119.375 80.625 C97.19759532 59.82793171 67.43675573 47.87904807 38.39233398 40.49487305 C35.12111026 39.65779355 32.84509016 38.89672678 30 37 C28.89094879 34.88820561 27.860073 32.73489529 26.875 30.5625 C20.72334617 17.66494191 11.03330876 8.7764956 0 0 Z " fill="#BA7BFC" transform="translate(283,148)"/>
<path d="M0 0 C10.50656377 7.56472591 14.19478295 19.36340402 16.50244141 31.68212891 C17.05072561 35.33825368 17.3173805 38.96834235 17.50390625 42.65625 C17.54326797 43.42296021 17.5826297 44.18967041 17.6231842 44.97961426 C17.75508578 47.65281075 17.87777932 50.32634402 18 53 C18.0495282 54.0223877 18.0990564 55.04477539 18.15008545 56.09814453 C18.47701717 63.02469481 18.70354438 69.94705108 18.84448242 76.87988281 C18.90688335 79.30844158 18.99609204 81.73644867 19.11108398 84.16308594 C20.02263359 103.89701045 20.02263359 103.89701045 16.64190674 109.08349609 C12.97476851 112.83926646 8.78924364 114.96793032 4 117 C2.66277972 117.65883545 1.32848455 118.32372268 0 119 C-0.01213028 117.63722427 -0.01213028 117.63722427 -0.02450562 116.24691772 C-0.10289023 107.62750357 -0.19030788 99.00823638 -0.28752708 90.38901329 C-0.33718266 85.95924297 -0.38351168 81.52949302 -0.421875 77.09960938 C-0.4591208 72.81360187 -0.50557908 68.52777892 -0.55806351 64.24193192 C-0.57640124 62.61795967 -0.59158261 60.99394819 -0.60334396 59.36991501 C-0.69365172 47.31587516 -1.77673845 35.90800445 -4.1875 24.0625 C-5.77244647 15.33895462 -2.88502245 8.17199384 0 0 Z " fill="#A661E4" transform="translate(139,57)"/>
<path d="M0 0 C4.04173167 4.04173167 5.81321828 10.78839205 6.140625 16.41796875 C5.80276434 20.19291184 5.02538017 23.87525674 4.27018738 27.58702087 C2.14460364 38.28917709 1.52982809 48.61305666 1.48828125 59.50390625 C1.47137853 61.20598088 1.45322111 62.90804345 1.43388367 64.61009216 C1.38698326 69.0272138 1.35679038 73.44428663 1.33044434 77.86157227 C1.300331 82.39414114 1.25390907 86.92654239 1.20898438 91.45898438 C1.12363626 100.30590601 1.05599192 109.15284401 1 118 C-2.79261758 116.54659865 -5.82463324 114.88191607 -9.125 112.5 C-9.97320312 111.8915625 -10.82140625 111.283125 -11.6953125 110.65625 C-12.45585937 110.1096875 -13.21640625 109.563125 -14 109 C-14.99 108.34 -15.98 107.68 -17 107 C-17.3742218 104.6474762 -17.3742218 104.6474762 -17.37231445 101.65844727 C-17.37854324 100.5387001 -17.38477203 99.41895294 -17.39118958 98.26527405 C-17.38197983 97.04464767 -17.37277008 95.8240213 -17.36328125 94.56640625 C-17.36377975 93.30473129 -17.36427826 92.04305634 -17.36479187 90.7431488 C-17.36244453 88.05689602 -17.354251 85.3714207 -17.33618164 82.68530273 C-17.31826804 79.96709438 -17.31096237 77.24926947 -17.31567383 74.53100586 C-17.41011857 17.41992228 -17.41011857 17.41992228 -2.125 1.875 C-1.42375 1.25625 -0.7225 0.6375 0 0 Z " fill="#A661E4" transform="translate(372,57)"/>
<path d="M0 0 C0.94576904 -0.00563965 1.89153809 -0.0112793 2.8659668 -0.01708984 C11.9480381 0.07615686 20.66501595 0.98640316 28.8125 5.25 C29.80378906 5.75402344 30.79507813 6.25804687 31.81640625 6.77734375 C34.25 8.3125 34.25 8.3125 36.25 11.3125 C36.5 13.875 36.5 13.875 36.25 16.3125 C33.42334409 19.13915591 31.58838076 18.56617965 27.62890625 18.57128906 C26.94907684 18.5747937 26.26924744 18.57829834 25.56881714 18.58190918 C23.31660824 18.59072781 21.06471222 18.58487705 18.8125 18.578125 C17.25073181 18.57947162 15.68896402 18.58141212 14.12719727 18.58392334 C10.85201023 18.58687477 7.57693219 18.58257639 4.30175781 18.57324219 C0.09816309 18.56184757 -4.10517625 18.56840695 -8.3087616 18.58038712 C-11.53432142 18.58760523 -14.75982045 18.58531803 -17.98538208 18.58013153 C-19.53557363 18.5787949 -21.08577065 18.58044324 -22.63595581 18.58509064 C-24.80042193 18.59015516 -26.96447127 18.5824471 -29.12890625 18.57128906 C-30.97850952 18.56890228 -30.97850952 18.56890228 -32.86547852 18.56646729 C-35.75 18.3125 -35.75 18.3125 -37.75 16.3125 C-38 13.0625 -38 13.0625 -36.75 9.3125 C-27.13500133 0.16342637 -12.46241815 0.07033534 0 0 Z " fill="#BB7CFE" transform="translate(256.75,332.6875)"/>
<path d="M0 0 C7.92 0 15.84 0 24 0 C22.72621814 6.3689093 21.43371837 12.72471264 20.0546875 19.0703125 C19.87994904 19.87741669 19.70521057 20.68452087 19.525177 21.51608276 C18.97585602 24.05254909 18.42544904 26.58877826 17.875 29.125 C17.4986255 30.86196348 17.12232281 32.59894252 16.74609375 34.3359375 C15.83155745 38.55747164 14.91604824 42.7787937 14 47 C9.38 47 4.76 47 0 47 C0 31.49 0 15.98 0 0 Z " fill="#FDFDFD" transform="translate(262,415)"/>
<path d="M0 0 C7.92 0 15.84 0 24 0 C24 15.51 24 31.02 24 47 C19.38 47 14.76 47 10 47 C9.41992188 44.2465625 9.41992188 44.2465625 8.828125 41.4375 C5.04352783 23.55322967 5.04352783 23.55322967 0.6640625 5.80859375 C0 3 0 3 0 0 Z " fill="#FDFDFD" transform="translate(226,415)"/>
<path d="M0 0 C-1.04010165 5.45156728 -4.42379751 8.94979709 -8.68359375 12.33984375 C-14.9114272 16.1033302 -21.96470794 15.78992753 -29 15 C-35.69870114 13.27962732 -40.08857183 8.52134934 -44 3 C-44.33 2.01 -44.66 1.02 -45 0 C-29.40287632 -3.71676139 -15.59712368 -3.71676139 0 0 Z " fill="#A2145C" transform="translate(370,342)"/>
<path d="M0 0 C-1.81611308 3.9808299 -3.48799936 6.89106059 -6.8125 9.75 C-7.45832031 10.32234375 -8.10414063 10.8946875 -8.76953125 11.484375 C-15.16507898 15.83021128 -22.55008842 15.85754378 -30 15 C-36.27708205 12.9138481 -41.5639917 8.68625688 -45 3 C-45 2.01 -45 1.02 -45 0 C-29.40722348 -4.03634277 -15.58907744 -3.44147833 0 0 Z " fill="#A2145C" transform="translate(187,342)"/>
<path d="M0 0 C5.28 0 10.56 0 16 0 C15.34 3.96 14.68 7.92 14 12 C9.38 12 4.76 12 0 12 C0 8.04 0 4.08 0 0 Z " fill="#CDDADC" transform="translate(262,450)"/>
<path d="M0 0 C5.28 0 10.56 0 16 0 C16 3.96 16 7.92 16 12 C11.38 12 6.76 12 2 12 C1.34 8.04 0.68 4.08 0 0 Z " fill="#CDDADC" transform="translate(234,450)"/>
<path d="M0 0 C4.8927433 3.8919549 9.18542839 8.18209968 13.4375 12.75 C13.98180664 13.32903076 14.52611328 13.90806152 15.08691406 14.50463867 C19 18.7570995 19 18.7570995 19 21 C5.70549829 20.10754502 5.70549829 20.10754502 2 17 C-0.0710501 11.64620658 -0.30776156 5.69358887 0 0 Z " fill="#FBF7E7" transform="translate(76,321)"/>
<path d="M0 0 C0.33 0 0.66 0 1 0 C0.85786703 1.89611434 0.71113093 3.79188394 0.5625 5.6875 C0.48128906 6.74324219 0.40007812 7.79898437 0.31640625 8.88671875 C0.03548319 11.65086297 -0.40156852 14.28945741 -1 17 C-3.07914664 17.70005949 -5.16351586 18.38462244 -7.25 19.0625 C-8.41015625 19.44535156 -9.5703125 19.82820313 -10.765625 20.22265625 C-13.80077085 20.95211763 -15.15703213 21.11889082 -18 20 C-4.76595745 4.76595745 -4.76595745 4.76595745 0 0 Z " fill="#FDF9E8" transform="translate(435,321)"/>
<path d="M0 0 C2.7912125 1.98322993 3.82597224 3.12986121 4.5 6.5 C3.82597224 9.87013879 2.7912125 11.01677007 0 13 C-3.70758991 13.61793165 -5.2935202 13.50197249 -8.375 11.3125 C-10 9 -10 9 -10.5 6.5 C-9.33827182 0.69135908 -5.5534724 -0.92557873 0 0 Z " fill="#F5F5F6" transform="translate(152,316)"/>
<path d="M0 0 C3.4375 0.75 3.4375 0.75 5.4375 2.75 C5.98337156 8.75458716 5.98337156 8.75458716 4.375 11.6875 C1.28256242 13.38335287 -1.11764741 13.18060657 -4.5625 12.75 C-6.5625 11.1875 -6.5625 11.1875 -7.5625 8.75 C-7.4375 5.125 -7.4375 5.125 -6.5625 1.75 C-3.5625 -0.25 -3.5625 -0.25 0 0 Z " fill="#F9F9F9" transform="translate(333.5625,316.25)"/>
</svg>
