<?xml version="1.0" encoding="UTF-8"?>
<svg version="1.1" xmlns="http://www.w3.org/2000/svg" width="512" height="512">
<path d="M0 0 C0.78930908 0.45012451 1.57861816 0.90024902 2.3918457 1.36401367 C3.43417358 1.96934937 3.43417358 1.96934937 4.49755859 2.58691406 C6.46795334 3.66516984 6.46795334 3.66516984 9.35668945 3.45385742 C11.03383897 2.50731801 12.67415895 1.49513958 14.29418945 0.45385742 C31.15667041 -9.55824065 50.84051644 -15.68623398 70.35668945 -17.54614258 C71.49050049 -17.65478638 71.49050049 -17.65478638 72.6472168 -17.765625 C86.99221562 -18.92822049 86.99221562 -18.92822049 91.8293457 -16.10083008 C93.75621455 -13.70477094 95.00680745 -11.31087417 96.35668945 -8.54614258 C97.06204458 -7.37551005 97.77902221 -6.2118317 98.50512695 -5.05395508 C111.59856303 16.2478791 117.58176445 40.4804586 117.60668945 65.32885742 C117.60769653 66.02260468 117.60870361 66.71635193 117.60974121 67.43112183 C117.59523855 82.19333581 115.63122994 95.42591476 111.02856445 109.50073242 C109.58346173 115.85246298 112.8091534 120.77427007 115.48168945 126.39135742 C131.0227328 160.08588016 138.87743287 201.89351837 129.35668945 238.45385742 C129.05867432 239.62996582 129.05867432 239.62996582 128.75463867 240.82983398 C115.57282784 291.52303011 79.76605546 331.9660376 35.35668945 358.45385742 C7.24712175 374.91067961 -21.8855968 386.11901727 -53.64331055 393.45385742 C-55.00286865 393.7687915 -55.00286865 393.7687915 -56.38989258 394.09008789 C-133.65509674 411.48687051 -220.79434555 397.83377598 -287.8815918 355.59301758 C-292.28997591 352.7424743 -296.48250703 349.65072112 -300.64331055 346.45385742 C-301.66682617 345.69588867 -302.6903418 344.93791992 -303.74487305 344.15698242 C-311.31744698 338.51311064 -318.33297566 332.41434962 -325.15161133 325.88256836 C-326.52496551 324.56720524 -327.90979294 323.26384893 -329.2956543 321.96166992 C-357.03893926 295.22643481 -378.12999851 255.61314051 -379.80444336 216.71020508 C-379.85046146 212.49954867 -379.8899695 208.2897698 -379.89331055 204.07885742 C-379.89398529 203.31652802 -379.89466003 202.55419861 -379.89535522 201.76876831 C-379.8793533 190.39468874 -379.36727242 179.53041652 -376.64331055 168.45385742 C-376.4717041 167.70749023 -376.30009766 166.96112305 -376.12329102 166.19213867 C-372.78947966 151.77243627 -368.33206563 137.49348592 -361.55419922 124.30297852 C-358.6988732 118.69545337 -356.70642752 114.53302179 -358.69018555 108.25463867 C-359.0047168 107.33038086 -359.31924805 106.40612305 -359.64331055 105.45385742 C-360.38071253 102.56952535 -361.03788575 99.66743237 -361.70581055 96.76635742 C-361.87959229 96.05302246 -362.05337402 95.3396875 -362.23242188 94.60473633 C-362.4002417 93.9117041 -362.56806152 93.21867187 -362.7409668 92.50463867 C-362.89057861 91.89273682 -363.04019043 91.28083496 -363.19433594 90.65039062 C-370.29290689 55.92181921 -361.54111414 18.8721223 -342.26831055 -10.42114258 C-340.49148045 -13.01913718 -338.8668319 -15.32262122 -336.64331055 -17.54614258 C-333.76635423 -17.77883757 -331.0213561 -17.87816146 -328.14331055 -17.85864258 C-327.29397949 -17.85372803 -326.44464844 -17.84881348 -325.56958008 -17.84375 C-300.24616249 -17.38660628 -275.99708568 -8.85180928 -254.64331055 4.45385742 C-253.63655273 3.83639648 -252.62979492 3.21893555 -251.5925293 2.58276367 C-173.83886552 -44.51368769 -78.7288729 -45.25923381 0 0 Z " fill="#F3D6B7" transform="translate(379.643310546875,72.546142578125)"/>
<path d="M0 0 C0.78930908 0.45012451 1.57861816 0.90024902 2.3918457 1.36401367 C3.43417358 1.96934937 3.43417358 1.96934937 4.49755859 2.58691406 C6.46795334 3.66516984 6.46795334 3.66516984 9.35668945 3.45385742 C11.03383897 2.50731801 12.67415895 1.49513958 14.29418945 0.45385742 C31.15667041 -9.55824065 50.84051644 -15.68623398 70.35668945 -17.54614258 C71.49050049 -17.65478638 71.49050049 -17.65478638 72.6472168 -17.765625 C86.99221562 -18.92822049 86.99221562 -18.92822049 91.8293457 -16.10083008 C93.75621455 -13.70477094 95.00680745 -11.31087417 96.35668945 -8.54614258 C97.06204458 -7.37551005 97.77902221 -6.2118317 98.50512695 -5.05395508 C111.59856303 16.2478791 117.58176445 40.4804586 117.60668945 65.32885742 C117.60769653 66.02260468 117.60870361 66.71635193 117.60974121 67.43112183 C117.59523855 82.19333581 115.63122994 95.42591476 111.02856445 109.50073242 C109.58346173 115.85246298 112.8091534 120.77427007 115.48168945 126.39135742 C131.0227328 160.08588016 138.87743287 201.89351837 129.35668945 238.45385742 C129.05867432 239.62996582 129.05867432 239.62996582 128.75463867 240.82983398 C115.57282784 291.52303011 79.76605546 331.9660376 35.35668945 358.45385742 C7.24712175 374.91067961 -21.8855968 386.11901727 -53.64331055 393.45385742 C-55.00286865 393.7687915 -55.00286865 393.7687915 -56.38989258 394.09008789 C-133.65509674 411.48687051 -220.79434555 397.83377598 -287.8815918 355.59301758 C-292.28997591 352.7424743 -296.48250703 349.65072112 -300.64331055 346.45385742 C-301.66682617 345.69588867 -302.6903418 344.93791992 -303.74487305 344.15698242 C-311.31744698 338.51311064 -318.33297566 332.41434962 -325.15161133 325.88256836 C-326.52496551 324.56720524 -327.90979294 323.26384893 -329.2956543 321.96166992 C-357.03893926 295.22643481 -378.12999851 255.61314051 -379.80444336 216.71020508 C-379.85046146 212.49954867 -379.8899695 208.2897698 -379.89331055 204.07885742 C-379.89398529 203.31652802 -379.89466003 202.55419861 -379.89535522 201.76876831 C-379.8793533 190.39468874 -379.36727242 179.53041652 -376.64331055 168.45385742 C-376.4717041 167.70749023 -376.30009766 166.96112305 -376.12329102 166.19213867 C-372.78947966 151.77243627 -368.33206563 137.49348592 -361.55419922 124.30297852 C-358.6988732 118.69545337 -356.70642752 114.53302179 -358.69018555 108.25463867 C-359.0047168 107.33038086 -359.31924805 106.40612305 -359.64331055 105.45385742 C-360.38071253 102.56952535 -361.03788575 99.66743237 -361.70581055 96.76635742 C-361.87959229 96.05302246 -362.05337402 95.3396875 -362.23242188 94.60473633 C-362.4002417 93.9117041 -362.56806152 93.21867187 -362.7409668 92.50463867 C-362.89057861 91.89273682 -363.04019043 91.28083496 -363.19433594 90.65039062 C-370.29290689 55.92181921 -361.54111414 18.8721223 -342.26831055 -10.42114258 C-340.49148045 -13.01913718 -338.8668319 -15.32262122 -336.64331055 -17.54614258 C-333.76635423 -17.77883757 -331.0213561 -17.87816146 -328.14331055 -17.85864258 C-327.29397949 -17.85372803 -326.44464844 -17.84881348 -325.56958008 -17.84375 C-300.24616249 -17.38660628 -275.99708568 -8.85180928 -254.64331055 4.45385742 C-253.63655273 3.83639648 -252.62979492 3.21893555 -251.5925293 2.58276367 C-173.83886552 -44.51368769 -78.7288729 -45.25923381 0 0 Z M-321.91674805 144.72338867 C-343.97847884 168.22392799 -349.67676919 197.34356998 -348.93084717 228.6325531 C-348.33876844 245.60664223 -342.99565228 261.29867969 -335.64331055 276.45385742 C-335.31427734 277.13947754 -334.98524414 277.82509766 -334.64624023 278.53149414 C-330.24839312 287.56615415 -324.99088237 295.64304664 -318.64331055 303.45385742 C-318.22178711 303.97689453 -317.80026367 304.49993164 -317.3659668 305.03881836 C-306.76775333 318.12934167 -295.22631841 329.479844 -281.64331055 339.45385742 C-281.03003906 339.90615723 -280.41676758 340.35845703 -279.78491211 340.82446289 C-249.96182924 362.60041531 -215.24568742 376.36186171 -179.08081055 383.14135742 C-178.00613525 383.34374023 -176.93145996 383.54612305 -175.82421875 383.75463867 C-158.72209565 386.84050405 -142.06778613 387.89349182 -124.70581055 387.89135742 C-123.6122525 387.89275726 -122.51869446 387.8941571 -121.39199829 387.89559937 C-102.05297388 387.87534539 -83.58839159 386.2597282 -64.64331055 382.45385742 C-63.65314941 382.26694336 -62.66298828 382.0800293 -61.64282227 381.88745117 C-6.64728994 371.35452425 47.20216645 340.05919755 78.91772461 293.35083008 C84.30591726 285.17394994 88.49924112 276.44030599 92.35668945 267.45385742 C92.69394043 266.66849609 93.03119141 265.88313477 93.37866211 265.07397461 C104.45735915 238.40786915 105.84158349 204.46858362 95.19750977 177.44848633 C79.41512063 140.0088466 47.01249149 118.3260085 10.59887695 103.47729492 C-5.04674331 97.34619328 -21.4058822 93.4294669 -37.83081055 90.01635742 C-38.66217529 89.84015869 -39.49354004 89.66395996 -40.35009766 89.48242188 C-45.56000634 88.437952 -45.56000634 88.437952 -50.64331055 89.45385742 C-52.26835482 90.65700353 -52.26835482 90.65700353 -53.74142456 92.23158264 C-54.32724304 92.82194809 -54.91306152 93.41231354 -55.51663208 94.02056885 C-56.46274857 94.99700348 -56.46274857 94.99700348 -57.42797852 95.99316406 C-58.1016748 96.67606003 -58.77537109 97.35895599 -59.46948242 98.06254578 C-60.93174933 99.54627532 -62.39064163 101.03333644 -63.8465538 102.52330208 C-66.15077842 104.87963963 -68.46543786 107.22523468 -70.78347778 109.56797791 C-77.37246316 116.23038241 -83.94456661 122.90925391 -90.50317383 129.6015625 C-94.51507977 133.69375531 -98.54142537 137.77126885 -102.5770607 141.84005547 C-104.11296213 143.39460037 -105.64314477 144.95481685 -107.16747665 146.52070808 C-109.2981175 148.70891561 -111.44653194 150.87808692 -113.59985352 153.04394531 C-114.22654938 153.69692596 -114.85324524 154.34990662 -115.49893188 155.02267456 C-118.18766155 157.69361823 -119.93470228 159.26264744 -123.63757324 160.26182556 C-128.1778019 159.0413729 -130.5801652 156.27475332 -133.77856445 152.9362793 C-134.46551895 152.24377579 -135.15247345 151.55127228 -135.86024475 150.83778381 C-138.1274169 148.546043 -140.37303432 146.23427101 -142.61987305 143.92260742 C-144.19194711 142.32918423 -145.76565025 140.73736677 -147.34091187 139.14709473 C-151.4849994 134.95741692 -155.61249778 130.75181719 -159.73504639 126.54095459 C-166.33807602 119.7976076 -172.95602323 113.06919973 -179.59251022 106.35877991 C-181.91032518 104.00747387 -184.21493977 101.64375348 -186.51895142 99.27893066 C-187.93438845 97.84257872 -189.35032604 96.40671982 -190.7668457 94.97143555 C-191.7269883 93.97558189 -191.7269883 93.97558189 -192.70652771 92.95960999 C-193.30076035 92.36220505 -193.89499298 91.76480011 -194.50723267 91.14929199 C-195.019331 90.62571358 -195.53142933 90.10213516 -196.05904579 89.56269073 C-223.52111931 70.34187436 -302.91278197 125.75207545 -321.91674805 144.72338867 Z " fill="#33373B" transform="translate(379.643310546875,72.546142578125)"/>
<path d="M0 0 C0.33 0 0.66 0 1 0 C1.23332031 0.88945312 1.46664062 1.77890625 1.70703125 2.6953125 C3.1666261 6.4258782 4.77752599 8.15664756 7.6875 10.875 C10.78683602 13.84556704 13.78123395 16.79157443 16.5625 20.0625 C22.90346419 27.42333955 29.81710955 33.83260405 37.40234375 39.89453125 C39.55470551 41.6390771 41.59181097 43.4339607 43.625 45.3125 C73.77854609 71.93678094 113.35005419 89.16343435 152.16369629 98.22921753 C154.02562735 98.66428037 155.88544078 99.10837689 157.74511719 99.55297852 C179.19943126 104.38713545 200.75484289 105.54881239 222.6875 105.4375 C223.90692291 105.43545563 225.12634583 105.43341125 226.38272095 105.43130493 C249.64892618 105.36788021 271.33360197 103.37837472 294 98 C295.59992223 97.64171566 297.20015086 97.28479481 298.80078125 96.9296875 C333.27929928 89.01837857 366.474195 73.06736074 394.32128906 51.30859375 C395.75330651 50.19230324 397.1994731 49.0942032 398.6484375 48 C403.52602875 44.30329927 408.07608767 40.31474707 412.59375 36.1875 C414.7209099 34.25371827 416.88003786 32.37068183 419.0625 30.5 C425.67699173 24.7256554 431.74010358 18.45929695 437.4296875 11.77734375 C439 10 439 10 441.875 7.3125 C444.18486727 4.79882092 444.71233553 3.35608552 445 0 C445.33 0 445.66 0 446 0 C450.97782382 30.12893362 448.35908358 58.46329218 435 86 C434.6709668 86.68562012 434.34193359 87.37124023 434.00292969 88.07763672 C429.60508257 97.11229673 424.34757182 105.18918922 418 113 C417.36771484 113.78455566 417.36771484 113.78455566 416.72265625 114.58496094 C406.12714453 127.67214715 394.58791669 139.03743083 381 149 C380.37609375 149.45761719 379.7521875 149.91523438 379.109375 150.38671875 C348.78061822 172.39356056 313.64248308 185.86464092 277 193 C275.43040527 193.31759277 275.43040527 193.31759277 273.82910156 193.64160156 C239.96573191 200.23456245 202.80665305 199.43936249 169 193 C167.59183493 192.7666364 166.18305392 192.53693033 164.7734375 192.3125 C140.01230991 187.99683506 116.10896895 178.78958673 94 167 C93.35111816 166.65888184 92.70223633 166.31776367 92.03369141 165.96630859 C54.52052884 146.13356788 23.82422217 116.19430521 7 77 C6.66274902 76.21463867 6.32549805 75.42927734 5.97802734 74.62011719 C-3.87885618 50.89488176 -4.14057573 25.06137944 0 0 Z " fill="#E9C69C" transform="translate(33,263)"/>
<path d="M0 0 C2.64321741 0.01074777 5.28575766 0.00001589 7.92895508 -0.01269531 C64.38110532 -0.05934971 121.45873218 24.0626088 162.8371582 62.20214844 C164.77679619 63.9829659 166.75452993 65.68866043 168.7668457 67.38574219 C179.11745003 76.43200207 188.6850516 86.38098671 197.0793457 97.26074219 C197.86438477 98.24042969 198.64942383 99.22011719 199.45825195 100.22949219 C219.57807042 125.49531825 244.0793457 162.87418497 244.0793457 196.26074219 C242.6184082 197.86621094 242.6184082 197.86621094 240.7043457 199.44824219 C240.07786133 199.97804687 239.45137695 200.50785156 238.8059082 201.05371094 C237.0793457 202.26074219 237.0793457 202.26074219 235.0793457 202.26074219 C234.7390332 201.26816406 234.3987207 200.27558594 234.0480957 199.25292969 C221.88929051 164.76450441 196.01996946 139.78925218 163.71655273 123.50927734 C152.49751263 118.1978377 140.77770603 113.7245328 128.97705078 109.88452148 C127.43520899 109.37771513 125.90711471 108.82922527 124.3840332 108.26855469 C110.53623882 103.23704097 95.57613137 100.71745162 81.0793457 98.26074219 C80.36294922 98.13803955 79.64655273 98.01533691 78.90844727 97.88891602 C76.10965229 97.62428419 73.82453231 97.75972897 71.45361328 99.35377502 C64.38180586 105.75377321 57.68310363 112.53192086 50.9543457 119.28808594 C49.59836412 120.64593567 48.2421593 122.00356251 46.88574219 123.36097717 C43.33918511 126.91132818 39.79564309 130.46467336 36.25274658 134.01867676 C32.62777211 137.65393297 28.99991821 141.28631318 25.37231445 144.91894531 C18.27185669 152.03008521 11.17458474 159.14439549 4.0793457 166.26074219 C-0.24670696 164.60165633 -3.12695434 161.31286777 -6.30981445 158.08276367 C-6.94116806 157.45009583 -7.57252167 156.81742798 -8.2230072 156.16558838 C-10.30654629 154.07556369 -12.38302237 151.97865982 -14.4597168 149.88183594 C-15.90601553 148.42926686 -17.35283058 146.9772117 -18.80014038 145.52565002 C-22.60777696 141.70471168 -26.40980628 137.87824615 -30.21026611 134.0501709 C-36.29954907 127.91776022 -42.39557464 121.79206997 -48.49482346 115.66957283 C-50.62773264 113.52641372 -52.75721171 111.37988875 -54.88638306 109.23301697 C-56.18756854 107.92500606 -57.48886263 106.61710318 -58.7902832 105.30932617 C-59.38460648 104.70826553 -59.97892975 104.1072049 -60.59126282 103.4879303 C-65.04551495 99.01480321 -65.04551495 99.01480321 -70.9831543 98.08886719 C-75.79550391 98.14652313 -80.24265862 98.93779836 -84.9206543 100.01074219 C-85.74243164 100.19266113 -86.56420898 100.37458008 -87.41088867 100.56201172 C-89.10135757 100.93850162 -90.79082718 101.31950752 -92.47924805 101.70507812 C-94.73820624 102.21921701 -97.00031992 102.71508611 -99.2644043 103.20605469 C-120.58033272 107.91579337 -140.77640459 115.25581598 -160.13256836 125.33203125 C-161.70939222 126.15101513 -163.29487085 126.95328931 -164.8815918 127.75292969 C-176.74709369 133.91185589 -187.29091322 142.02958311 -196.9206543 151.26074219 C-198.15041992 152.39576172 -198.15041992 152.39576172 -199.4050293 153.55371094 C-213.50228532 166.97237234 -222.97814579 183.80768945 -228.9206543 202.26074219 C-232.35660596 200.73365256 -235.03977884 198.66147173 -237.9206543 196.26074219 C-234.86314457 157.12461768 -209.33821703 118.0003572 -183.9206543 89.26074219 C-183.19620117 88.42542969 -182.47174805 87.59011719 -181.7253418 86.72949219 C-177.27534363 81.6719297 -172.60682033 76.8484124 -167.8581543 72.07324219 C-167.29249756 71.5029126 -166.72684082 70.93258301 -166.14404297 70.3449707 C-122.63048972 26.99427227 -61.58827453 -0.29689351 0 0 Z " fill="#0D5C9D" transform="translate(252.920654296875,51.7392578125)"/>
<path d="M0 0 C2.64321741 0.01074777 5.28575766 0.00001589 7.92895508 -0.01269531 C64.38110532 -0.05934971 121.45873218 24.0626088 162.8371582 62.20214844 C164.77679619 63.9829659 166.75452993 65.68866043 168.7668457 67.38574219 C179.11745003 76.43200207 188.6850516 86.38098671 197.0793457 97.26074219 C197.86438477 98.24042969 198.64942383 99.22011719 199.45825195 100.22949219 C204.35159856 106.38082543 208.84435658 112.74143881 213.1418457 119.32324219 C213.61928223 120.04979004 214.09671875 120.77633789 214.58862305 121.52490234 C215.03028809 122.21245605 215.47195313 122.90000977 215.92700195 123.60839844 C216.5149353 124.52117554 216.5149353 124.52117554 217.11474609 125.45239258 C218.13826483 127.37119877 218.64138073 129.13762141 219.0793457 131.26074219 C215.31355796 128.18662975 211.89883064 125.16933857 208.7668457 121.44824219 C176.89266067 84.40149204 120.4288838 62.00298912 73.31079102 54.62304688 C70.74496184 54.20645054 68.19083291 53.73734528 65.6340332 53.26855469 C-13.24269919 39.20985004 -104.86606815 49.75193156 -172.08129883 95.96826172 C-187.5612309 106.84571863 -202.77346805 118.80426029 -213.9206543 134.26074219 C-213.9206543 119.76814731 -193.17873521 99.72884583 -183.9206543 89.26074219 C-183.19620117 88.42542969 -182.47174805 87.59011719 -181.7253418 86.72949219 C-177.27534363 81.6719297 -172.60682033 76.8484124 -167.8581543 72.07324219 C-167.29249756 71.5029126 -166.72684082 70.93258301 -166.14404297 70.3449707 C-122.63048972 26.99427227 -61.58827453 -0.29689351 0 0 Z " fill="#009AE6" transform="translate(252.920654296875,51.7392578125)"/>
<path d="M0 0 C1.83653476 1.69365042 3.59610641 3.44374727 5.34692001 5.22593307 C6.35750977 6.23082779 6.35750977 6.23082779 7.38851547 7.25602341 C9.61134666 9.4714489 11.81945708 11.70093977 14.02733994 13.93125534 C15.5664613 15.47276064 17.1063224 17.01352766 18.64689255 18.55358505 C21.87166284 21.78148314 25.08960196 25.01599019 28.30248642 28.25571823 C32.42966164 32.41692991 36.56993803 36.56479681 40.714921 40.70826244 C43.89383603 43.88772009 47.06752119 47.07235392 50.23944283 50.25878716 C51.76493898 51.790665 53.29166483 53.32131924 54.81961632 54.85074806 C56.94839555 56.98384246 59.07047003 59.12337813 61.19067001 61.26499557 C61.82801575 61.90143494 62.46536148 62.5378743 63.12202072 63.1935997 C67.44530869 67.58120694 67.44530869 67.58120694 67.44530869 69.81016159 C18.60202355 71.28364617 -27.79124033 56.85190985 -70.24219131 33.56016159 C-71.37455215 32.94165329 -71.37455215 32.94165329 -72.52978897 32.31064987 C-76.50541117 30.09698176 -80.08743699 27.79186353 -83.55469131 24.81016159 C-82.55469131 21.81016159 -82.55469131 21.81016159 -79.58203506 20.04844284 C-78.22629784 19.39073262 -76.86217534 18.75015654 -75.49219131 18.12266159 C-74.74195694 17.77670944 -73.99172256 17.43075729 -73.21875381 17.07432175 C-55.09060166 8.97302919 -35.8978335 4.0288674 -16.55469131 -0.18983841 C-15.64042374 -0.40156693 -14.72615616 -0.61329544 -13.7841835 -0.83143997 C-12.91181046 -1.02447708 -12.03943741 -1.21751419 -11.14062881 -1.41640091 C-10.37540909 -1.58994095 -9.61018936 -1.76348099 -8.82178116 -1.94227982 C-5.37937644 -2.31817884 -2.84542265 -2.17766262 0 0 Z " fill="#FAE4C6" transform="translate(184.55469131469727,163.18983840942383)"/>
<path d="M0 0 C1.30505493 0.26623169 1.30505493 0.26623169 2.63647461 0.5378418 C23.81306119 5.02603661 44.72685819 12.13164575 63.8125 22.375 C62.04720024 27.67089928 56.45202842 29.6459387 51.8125 32.375 C50.84981201 32.94661865 50.84981201 32.94661865 49.86767578 33.52978516 C16.44755723 53.21909566 -19.92862813 63.33635945 -58.1875 68.375 C-58.97697021 68.48175049 -59.76644043 68.58850098 -60.57983398 68.69848633 C-66.15103241 69.3935893 -71.64018479 69.49407688 -77.25 69.4375 C-78.11560547 69.43298828 -78.98121094 69.42847656 -79.87304688 69.42382812 C-81.97789539 69.41219913 -84.08270758 69.39427073 -86.1875 69.375 C-82.21488714 64.63101995 -78.08849008 60.10822984 -73.74243164 55.70532227 C-73.12857101 55.08007156 -72.51471039 54.45482086 -71.88224792 53.81062317 C-65.53485874 47.3536235 -59.15652092 40.92704544 -52.77563477 34.50317383 C-49.75087702 31.45603407 -46.736208 28.39940985 -43.72973633 25.33422852 C-40.08779689 21.6213421 -36.4290773 17.9258099 -32.757658 14.24207878 C-31.36459343 12.83860639 -29.97755416 11.4291264 -28.59675789 10.01358223 C-26.66786557 8.03863091 -24.71816601 6.08676675 -22.76196289 4.13891602 C-21.91618179 3.25774109 -21.91618179 3.25774109 -21.05331421 2.35876465 C-14.78435535 -3.78157678 -7.91247106 -1.6236506 0 0 Z " fill="#FBE5C7" transform="translate(347.1875,163.625)"/>
<path d="M0 0 C0.96679688 0.00902344 1.93359375 0.01804687 2.9296875 0.02734375 C3.65414062 0.03894531 4.37859375 0.05054687 5.125 0.0625 C25.25074378 34.38122862 30.89641201 65.82306995 23.125 105.0625 C19.60314529 101.83747587 17.11493389 98.18227951 14.5625 94.1875 C9.50338902 86.45164566 3.99004463 79.20132752 -1.875 72.0625 C-2.34131836 71.49176758 -2.80763672 70.92103516 -3.28808594 70.33300781 C-14.25891697 56.98277897 -26.22143072 44.68398458 -39.875 34.0625 C-41.84850652 32.50128305 -43.81783539 30.93497114 -45.78515625 29.3659668 C-47.1041304 28.31463131 -48.42562023 27.26644159 -49.75 26.22192383 C-52.98307309 23.65597237 -56.02843463 21.06601884 -58.875 18.0625 C-41.20015693 8.08636309 -20.68057408 -0.25220212 0 0 Z " fill="#0D5B9C" transform="translate(457.875,66.9375)"/>
<path d="M0 0 C1.78475853 0.15013221 3.56587037 0.35083419 5.33984375 0.59765625 C6.18530762 0.69449707 7.03077148 0.79133789 7.90185547 0.89111328 C26.38327644 3.31369222 43.31446379 9.13203685 59.33984375 18.59765625 C55.7703374 22.31339936 51.99844215 25.53181736 47.90234375 28.66015625 C30.80497445 41.95585396 14.56297642 56.34613377 1.33984375 73.59765625 C0.30273457 74.91848036 -0.73508127 76.23874978 -1.7734375 77.55859375 C-7.56157041 84.97043255 -13.09119682 92.4197213 -17.9453125 100.48364258 C-18.8020543 101.88560257 -19.7247131 103.24693627 -20.66015625 104.59765625 C-21.32015625 104.59765625 -21.98015625 104.59765625 -22.66015625 104.59765625 C-23.14307946 102.26504602 -23.62155484 99.93166037 -24.09765625 97.59765625 C-24.23236328 96.94925781 -24.36707031 96.30085938 -24.50585938 95.6328125 C-30.56077529 65.80127555 -24.86834562 37.62320287 -10.890625 10.95263672 C-10.07523668 9.39207407 -9.30577559 7.80658196 -8.5859375 6.19970703 C-6.41323446 1.86097154 -5.01136806 0.10129936 0 0 Z " fill="#0D5B9D" transform="translate(53.66015625,66.40234375)"/>
<path d="M0 0 C2.35473715 1.64183507 2.92862028 2.75341551 3.73046875 5.5234375 C3.88128906 6.46445312 4.03210938 7.40546875 4.1875 8.375 C4.34605469 9.31085938 4.50460938 10.24671875 4.66796875 11.2109375 C4.98101323 13.84051116 5.06251264 16.35523459 5 19 C6.16144531 19.1340625 7.32289063 19.268125 8.51953125 19.40625 C13.90749133 20.07900474 19.19389725 21.19487176 24.51171875 22.28125 C36.75579118 24.428789 49.29687663 24.23908428 61.6875 24.25 C63.03853821 24.25200912 63.03853821 24.25200912 64.41687012 24.25405884 C83.79369225 24.24783208 103.25120957 23.35137541 122 18 C122.18175781 16.95199219 122.36351562 15.90398437 122.55078125 14.82421875 C122.80407058 13.44519905 123.05801096 12.06629881 123.3125 10.6875 C123.43044922 9.99720703 123.54839844 9.30691406 123.66992188 8.59570312 C124.2074299 5.74277591 124.69502124 3.42679988 126.3984375 1.04296875 C131.85825164 -2.51256875 141.12226823 0.86498237 146.92578125 2.05078125 C149.91507496 2.97377791 151.21926584 3.47938334 153 6 C153.583638 9.7519586 153.19716893 11.62143565 151.4375 15 C145.40539602 22.42412797 138.96509028 25.76439787 130 29 C129.03126953 29.36448242 129.03126953 29.36448242 128.04296875 29.73632812 C121.72429574 32.00442323 115.3730756 33.11661456 108.75 34.125 C107.18572266 34.37830078 107.18572266 34.37830078 105.58984375 34.63671875 C91.73602715 36.80618202 77.99682967 37.21228373 64.00170898 37.24023438 C61.099148 37.24987824 58.19731595 37.28097098 55.29492188 37.3125 C32.15008462 37.44341831 -1.10202619 36.40998611 -19.37890625 19.84375 C-22.44271677 16.42713706 -24.85251307 13.73297147 -25.25 9.0625 C-25 6 -25 6 -23.83203125 4.4140625 C-18.04429324 -0.05323208 -7.10254377 -1.37468589 0 0 Z " fill="#36393C" transform="translate(192,323)"/>
<path d="M0 0 C2.79739333 2.54380527 4.90233837 4.85350755 7 8 C6.8125 11.0625 6.8125 11.0625 6 14 C2.09782822 16.60144785 -1.19460322 16.29539439 -5.72241211 16.29052734 C-6.61375351 16.29724457 -7.50509491 16.30396179 -8.42344666 16.31088257 C-11.37480212 16.32990639 -14.32593076 16.33378885 -17.27734375 16.3359375 C-19.32613723 16.34236193 -21.37492978 16.34909002 -23.42372131 16.35610962 C-27.72024666 16.36809304 -32.01669154 16.3717893 -36.31323242 16.37060547 C-41.82269381 16.37040212 -47.3316403 16.39771627 -52.84097958 16.43214989 C-57.07286456 16.45436998 -61.30462461 16.45844453 -65.53656197 16.45738602 C-67.56797627 16.4597489 -69.59939366 16.46861086 -71.63075066 16.48405075 C-74.47026689 16.50361359 -77.30865962 16.49791118 -80.14819336 16.48583984 C-81.40995392 16.50269836 -81.40995392 16.50269836 -82.69720459 16.51989746 C-86.34982436 16.48037326 -88.54925709 16.32652442 -91.54933167 14.15322876 C-93 12 -93 12 -93.0625 9.0625 C-90.95449539 2.98648672 -86.96062563 0.80368429 -81.5 -2.125 C-58.49282036 -13.13335533 -22.27839904 -13.10138914 0 0 Z " fill="#FBE5C7" transform="translate(299,319)"/>
<path d="M0 0 C-7.72672143 16.66657546 -16.1130311 32.92397902 -25 49 C-28.39658355 46.09761492 -31.78888244 43.1913251 -35.1484375 40.24609375 C-44.12370061 32.41384133 -53.46911389 25.14207956 -63 18 C-59.64128984 14.33363172 -55.63287711 12.65038821 -51.1875 10.5625 C-50.33671875 10.16216553 -49.4859375 9.76183105 -48.609375 9.34936523 C-41.53961365 6.10219195 -34.60257429 3.72439342 -27 2 C-26.09507812 1.77699219 -25.19015625 1.55398437 -24.2578125 1.32421875 C-16.21980826 -0.42887713 -8.17844791 -0.18470773 0 0 Z " fill="#0099E5" transform="translate(462,68)"/>
<path d="M0 0 C22.88246393 -0.8118614 43.34572729 5.3909233 63 17 C59.43063631 20.7155946 55.6595535 23.93551222 51.5625 27.0625 C45.79498022 31.52367153 40.21282894 36.15972393 34.70727539 40.93969727 C31.52641324 43.70134317 28.31029508 46.39244913 25 49 C19.25374334 38.14295506 13.55737156 27.2601491 7.90237427 16.35531616 C7.21612835 15.03254225 6.52917475 13.71013526 5.84152222 12.38809204 C4.86888728 10.51758168 3.89892781 8.6457086 2.9296875 6.7734375 C2.08253174 5.14027588 2.08253174 5.14027588 1.21826172 3.47412109 C0 1 0 1 0 0 Z " fill="#0099E6" transform="translate(50,68)"/>
<path d="M0 0 C1.07507813 0.78697266 1.07507813 0.78697266 2.171875 1.58984375 C7.56006037 5.89431515 10.81179254 10.93834441 14 17 C14.37769531 17.69609375 14.75539063 18.3921875 15.14453125 19.109375 C16.39035665 21.86270603 16.31690438 24.0210988 16 27 C14.875 28.875 14.875 28.875 13 30 C10.125 30.6875 10.125 30.6875 7 30 C4.89771808 27.59193162 3.5077022 24.80600132 2 22 C-2.9058584 13.41474779 -8.39098994 8.11279662 -18.07421875 5.359375 C-23.97556449 3.82787877 -29.55248983 3.55193504 -35.625 3.625 C-37.08292969 3.60759766 -37.08292969 3.60759766 -38.5703125 3.58984375 C-44.17079936 3.61242636 -48.78249157 4.24831036 -53.99780273 6.32641602 C-57.43717645 7.48349833 -60.40150455 7.3156575 -64 7 C-66 5 -66 5 -66.3125 1.5625 C-66 -2 -66 -2 -64.93359375 -3.58984375 C-62.1318885 -5.63310758 -59.06568368 -6.31392278 -55.75 -7.125 C-55.10675781 -7.29386719 -54.46351563 -7.46273438 -53.80078125 -7.63671875 C-35.64207464 -12.27687114 -15.46175482 -11.54069829 0 0 Z " fill="#393B3E" transform="translate(205,264)"/>
<path d="M0 0 C1 1 1 1 1.25 4.4375 C1.1675 5.613125 1.085 6.78875 1 8 C-2.79239856 10.52826571 -4.48083222 10.36444901 -9 10 C-10.33351863 9.53177015 -11.65609497 9.03169025 -12.96875 8.5078125 C-18.74982679 6.52510503 -24.31282689 6.52223194 -30.375 6.5625 C-31.43460937 6.54251953 -32.49421875 6.52253906 -33.5859375 6.50195312 C-43.44948324 6.50799696 -52.43689991 8.89087641 -60.22265625 15.1640625 C-64.07052862 19.1387878 -66.47713602 24.12474189 -69.046875 28.9765625 C-70 30.625 -70 30.625 -72 33 C-75.2726009 33.60108996 -77.0079475 33.5952315 -79.875 31.875 C-81.51017118 29.1497147 -81.22512082 27.14406024 -81 24 C-76.31233927 12.08338261 -68.17345222 3.92555435 -57 -2 C-54.04498694 -3.25623744 -51.09992846 -4.17721525 -48 -5 C-46.80375 -5.391875 -45.6075 -5.78375 -44.375 -6.1875 C-30.66220564 -9.38534532 -12.25209881 -7.06484659 0 0 Z " fill="#383A3D" transform="translate(372,261)"/>
<path d="M0 0 C4.37859255 0.50522222 6.81651224 3.17827222 10 6 C9.71125 6.95390625 9.4225 7.9078125 9.125 8.890625 C3.1921186 30.89348633 3.45009522 57.20031692 10 79 C10.44124103 81.03649705 10.86191448 83.07770825 11.25 85.125 C11.4975 86.40375 11.745 87.6825 12 89 C-0.877219 76.122781 -2.32782493 45.15992555 -2.375 28.0625 C-2.29493005 18.58688824 -1.74884419 9.32196414 0 0 Z " fill="#083A63" transform="translate(14,248)"/>
<path d="M0 0 C2.69306275 19.69302136 2.94134067 38.46404063 -1 58 C-1.20496094 59.05058594 -1.40992188 60.10117187 -1.62109375 61.18359375 C-3.75620473 70.74517771 -7.51316336 79.86735391 -11 89 C-12.31285786 85.06142642 -11.24179704 82.24194711 -10.1875 78.375 C-9.63665244 76.29490417 -9.0902144 74.21404362 -8.55493164 72.12988281 C-8.19917976 70.76447172 -7.82493725 69.40366684 -7.42749023 68.04980469 C-5.37101844 60.34010946 -5.65229245 52.41666838 -5.6875 44.5 C-5.68799347 43.74354187 -5.68848694 42.98708374 -5.68899536 42.20770264 C-5.71101072 31.21956178 -6.23476399 20.6884252 -9 10 C-9.29583984 8.80503906 -9.29583984 8.80503906 -9.59765625 7.5859375 C-9.73042969 7.06257812 -9.86320312 6.53921875 -10 6 C-8.90398831 4.99106869 -7.79786082 3.99311775 -6.6875 3 C-6.07261719 2.443125 -5.45773437 1.88625 -4.82421875 1.3125 C-3 0 -3 0 0 0 Z " fill="#083A63" transform="translate(498,248)"/>
</svg>
