<?xml version="1.0" encoding="UTF-8"?>
<svg version="1.1" xmlns="http://www.w3.org/2000/svg" width="512" height="512">
<path d="M0 0 C0.97324219 0.25523438 1.94648438 0.51046875 2.94921875 0.7734375 C23.35767007 6.84307241 40.9602064 18.13858416 56 33 C56.92683594 33.90234375 57.85367187 34.8046875 58.80859375 35.734375 C74.34346447 51.687916 83.07676097 71.57396449 88.46435547 92.9230957 C88.9738699 94.89868333 89.54399849 96.8583445 90.1171875 98.81640625 C95.16341641 119.26268034 89.4759575 140.37953878 79 158 C75.52539088 163.18331608 71.57396511 167.75274668 67 172 C66.4121875 172.59296875 65.824375 173.1859375 65.21875 173.796875 C58.63459633 180.13535129 51.11208604 183.98136449 43 188 C47.08967304 191.43596312 51.42746299 194.22987134 55.9375 197.0625 C69.93357032 206.01920394 82.04874224 216.49029117 94 228 C95.19109375 229.12921875 95.19109375 229.12921875 96.40625 230.28125 C101.75647776 235.46162926 106.42077593 241.13472761 111 247 C111.42152344 247.53447754 111.84304688 248.06895508 112.27734375 248.61962891 C138.99183841 282.73609965 155.88080894 325.33180346 150.98632812 369.04223633 C147.2096371 399.21512131 131.78680071 425.46005433 111 447 C110.23429687 447.82886719 109.46859375 448.65773438 108.6796875 449.51171875 C97.87128275 460.88802273 84.67523593 470.3771849 71 478 C70.20948242 478.44698242 69.41896484 478.89396484 68.60449219 479.35449219 C40.63206167 495.03021332 10.72793429 503.86874067 -21 508 C-22.1960083 508.17200928 -23.3920166 508.34401855 -24.62426758 508.52124023 C-29.43968563 509.11735414 -34.22280801 509.18012961 -39.0703125 509.203125 C-40.02783417 509.20882507 -40.98535583 509.21452515 -41.97189331 509.22039795 C-43.99736442 509.22980776 -46.02285057 509.23636586 -48.04833984 509.24023438 C-51.0676765 509.24981805 -54.08629496 509.28082861 -57.10546875 509.3125 C-70.63848206 509.38629844 -83.65761198 508.24156747 -97 506 C-98.13630859 505.81179688 -99.27261719 505.62359375 -100.44335938 505.4296875 C-143.00141583 497.7948855 -181.78049623 478.75743335 -213 449 C-213.85335937 448.21109375 -214.70671875 447.4221875 -215.5859375 446.609375 C-240.88722024 422.50531384 -255.30568469 387.99723554 -256.1875 353.3125 C-255.44543702 301.61544576 -227.06975554 256.40608879 -191.296875 221.140625 C-187.0547521 217.18708189 -182.54824494 213.59232197 -178 210 C-177.04738281 209.21882812 -176.09476562 208.43765625 -175.11328125 207.6328125 C-145.62889377 184 -145.62889377 184 -135 184 C-135.27674561 183.44763672 -135.55349121 182.89527344 -135.83862305 182.32617188 C-152.13885408 149.56966181 -158.90366749 115.54146128 -147.17993164 79.82275391 C-139.70514494 58.5888528 -126.97693648 37.92531633 -109 24 C-107.824375 23.06994141 -107.824375 23.06994141 -106.625 22.12109375 C-76.5969703 -0.7127205 -36.90772982 -10.26454396 0 0 Z M-61 144 C-62.15524418 146.37081442 -63.29925208 148.74603957 -64.4375 151.125 C-64.76298828 151.79015625 -65.08847656 152.4553125 -65.42382812 153.140625 C-67.30584433 157.09867971 -68.51226706 160.58979513 -69 165 C-61.92278069 165.12109311 -55.02804699 164.85373239 -48 164 C-48.45890625 163.31035156 -48.9178125 162.62070313 -49.390625 161.91015625 C-53.17205567 156.11884752 -56.44343314 150.43111539 -59 144 C-59.66 144 -60.32 144 -61 144 Z " fill="#33383C" transform="translate(308,3)"/>
<path d="M0 0 C1.85564575 0.0151062 1.85564575 0.0151062 3.7487793 0.03051758 C7.18713553 0.0675331 10.62455404 0.12361376 14.0625 0.1875 C14.81241211 0.19620117 15.56232422 0.20490234 16.33496094 0.21386719 C33.91071611 0.48369085 51.85251952 5.63190544 68.0625 12.1875 C68.7332959 12.45820313 69.4040918 12.72890625 70.09521484 13.0078125 C99.99785086 25.25208728 128.41502657 44.06400086 149.0625 69.1875 C150.12404297 70.38246094 150.12404297 70.38246094 151.20703125 71.6015625 C163.37966411 85.56371004 173.45840743 101.31012381 181.0625 118.1875 C181.52914063 119.19554687 181.99578125 120.20359375 182.4765625 121.2421875 C185.02475196 127.01078818 187.02885721 132.91451629 188.875 138.9375 C189.09438232 139.63480225 189.31376465 140.33210449 189.53979492 141.05053711 C190.96755687 145.91138349 191.51169465 150.11801752 191.0625 155.1875 C189.77734375 157.21875 189.77734375 157.21875 188 158.6875 C185.43938291 160.96247056 183.09390215 163.20009796 180.875 165.8125 C150.96869885 200.3916607 150.96869885 200.3916607 138.0625 206.1875 C138.03671875 205.22070312 138.0109375 204.25390625 137.984375 203.2578125 C137.41375939 190.15959058 134.58994881 180.66592248 125.0625 171.1875 C114.62977797 163.28540695 102.82541597 161.49829053 90.0625 163.1875 C85.58563209 164.59868662 81.9279118 166.545628 78.0625 169.1875 C77.37800781 169.64382813 76.69351562 170.10015625 75.98828125 170.5703125 C69.73843005 175.31531884 64.79935601 183.08164501 63.31640625 190.80859375 C62.03542416 202.81041058 62.72678618 212.67110315 69.859375 222.71875 C74.22956238 227.96297486 79.20458329 231.72970194 85.0625 235.1875 C68.42902113 246.27648592 41.13770966 248.59025402 21.875 248.20214844 C17.84060074 248.01028709 17.84060074 248.01028709 14.0625 249.1875 C12.41887388 249.28352313 10.77142734 249.31824561 9.125 249.3203125 C8.14789063 249.32160156 7.17078125 249.32289063 6.1640625 249.32421875 C5.14054688 249.32035156 4.11703125 249.31648437 3.0625 249.3125 C1.52722656 249.31830078 1.52722656 249.31830078 -0.0390625 249.32421875 C-1.01617187 249.32292969 -1.99328125 249.32164062 -3 249.3203125 C-3.89847656 249.31918457 -4.79695312 249.31805664 -5.72265625 249.31689453 C-7.9375 249.1875 -7.9375 249.1875 -9.9375 248.1875 C-11.70608237 248.21085463 -13.47482926 248.24062353 -15.24243164 248.30395508 C-36.12909748 248.96125147 -57.83270859 244.65941907 -76.9375 236.1875 C-75.55471864 232.88575676 -74.15727675 231.39432964 -71.1875 229.4375 C-63.969792 224.20727681 -58.93885534 216.92375338 -56.9375 208.1875 C-55.48971513 195.80676455 -57.11619885 186.11210178 -64.5625 175.9375 C-70.66561305 168.70923204 -78.50739545 164.09958135 -87.98999023 162.93554688 C-98.61893606 162.17158762 -106.9050591 163.01414669 -115.9375 169.1875 C-116.62199219 169.64382813 -117.30648437 170.10015625 -118.01171875 170.5703125 C-124.40045629 175.42076399 -129.03373851 183.04154722 -130.63671875 190.89453125 C-131.30284761 195.97268239 -131.64142478 201.07630665 -131.9375 206.1875 C-136.08231899 203.87286082 -139.66432792 201.08676476 -143.25 198 C-143.8488501 197.4853418 -144.4477002 196.97068359 -145.06469727 196.44042969 C-150.01504208 192.11915534 -154.72661539 187.58043707 -159.375 182.9375 C-160.0244458 182.28885986 -160.6738916 181.64021973 -161.34301758 180.97192383 C-165.14195169 177.12912775 -168.74118103 173.1622578 -172.27026367 169.07128906 C-173.80427777 167.3380261 -175.38491865 165.69244829 -177.02734375 164.0625 C-177.50107422 163.58296875 -177.97480469 163.1034375 -178.46289062 162.609375 C-179.41797238 161.64768825 -180.38730102 160.69997694 -181.36914062 159.765625 C-184.13197374 156.91465713 -184.92608883 155.28689727 -185.3828125 151.30859375 C-185.09655999 147.15325187 -184.11328821 143.21506671 -182.875 139.25 C-182.65166992 138.51982666 -182.42833984 137.78965332 -182.19824219 137.03735352 C-171.53042071 103.15794905 -149.62043779 70.57457143 -121.9375 48.1875 C-120.88633453 47.30123676 -119.83559415 46.41446922 -118.78515625 45.52734375 C-86.03226714 18.21529808 -43.10471158 -0.48891712 0 0 Z " fill="#7EE4D7" transform="translate(252.9375,179.8125)"/>
<path d="M0 0 C0.50917969 0.66386719 1.01835938 1.32773437 1.54296875 2.01171875 C4.63681222 5.77450135 7.9600281 9.28060938 11.3125 12.8125 C15.14366596 16.85242778 18.94298248 20.901342 22.58984375 25.109375 C25.69055539 28.67918994 28.90456949 32.09675205 32.25 35.4375 C32.80284668 35.99026611 33.35569336 36.54303223 33.92529297 37.11254883 C39.83588567 42.94285753 46.08141221 48.38760814 53 53 C53.08636719 51.88882813 53.17273438 50.77765625 53.26171875 49.6328125 C54.39738137 36.93481874 57.15802952 26.83691377 67 18 C70.20995338 15.73946945 73.49593059 13.76893536 77 12 C77.74507813 11.62230469 78.49015625 11.24460937 79.2578125 10.85546875 C83.10901428 9.65402546 86.73740281 9.65852818 90.75 9.6875 C91.55622803 9.69313965 92.36245605 9.6987793 93.19311523 9.70458984 C98.92200547 9.82170712 103.86455994 10.27697432 109 13 C109.7425 13.39058594 110.485 13.78117187 111.25 14.18359375 C119.5126917 19.11050282 126.16685234 26.91878358 129.37109375 36.04296875 C131.71462998 47.06195588 131.02106935 58.28007511 125 68 C118.11178537 77.20504631 118.11178537 77.20504631 113.28125 79.0234375 C112.5284375 79.34570312 111.775625 79.66796875 111 80 C110.11306697 82.04105639 110.11306697 82.04105639 110 84 C120.75766318 87.97707548 131.46374024 90.57253992 142.7421875 92.59326172 C144.67517146 92.94148309 146.60375004 93.31400858 148.53125 93.69140625 C155.75374942 94.99546865 162.77078718 95.16057406 170.08642578 95.01464844 C175.81432867 94.90716433 175.81432867 94.90716433 178 96 C179.64362612 96.09602313 181.29107266 96.13074561 182.9375 96.1328125 C183.91460937 96.13410156 184.89171875 96.13539063 185.8984375 96.13671875 C187.43371094 96.13091797 187.43371094 96.13091797 189 96.125 C190.02351562 96.12886719 191.04703125 96.13273437 192.1015625 96.13671875 C193.07867187 96.13542969 194.05578125 96.13414062 195.0625 96.1328125 C196.41021484 96.13112061 196.41021484 96.13112061 197.78515625 96.12939453 C200.04131125 96.14363084 200.04131125 96.14363084 202 95 C203.76850102 95.02335355 205.5371667 95.05311892 207.3046875 95.11645508 C228.24499616 95.77536834 250.83987745 91.58473023 270 83 C269.35933594 82.5875 268.71867187 82.175 268.05859375 81.75 C258.02483887 75.05086112 251.13936844 67.95750556 248 56 C246.6395889 43.54899937 248.46992498 33.38032098 255.984375 23.32421875 C259.25167331 19.55669453 262.81812128 16.69498851 267 14 C267.64066406 13.56558594 268.28132813 13.13117188 268.94140625 12.68359375 C277.00572699 8.15431772 287.97597013 9.00012673 296.84765625 10.47265625 C299.0668602 11.12628422 300.95759485 11.91703114 303 13 C303.7425 13.39058594 304.485 13.78117187 305.25 14.18359375 C313.69221082 19.21754716 319.97331112 26.95448353 323.32421875 36.1953125 C324.65362848 41.71274711 324.83702733 47.34484838 325 53 C338.74629961 42.38615362 351.82395242 30.41007892 363.10546875 17.1796875 C366.08135412 13.75588536 369.17777537 10.44247331 372.26953125 7.12329102 C374.39596418 4.82431194 376.25770594 2.61344109 378 0 C385.53303368 26.84038892 378.06599694 56.89659198 365.09594727 80.70117188 C359.10420208 91.31681267 351.3880515 100.23843844 343 109 C342.11183594 109.94101562 341.22367187 110.88203125 340.30859375 111.8515625 C330.10062741 122.40128026 318.75280872 130.74853411 306 138 C305.32791504 138.38655762 304.65583008 138.77311523 303.96337891 139.17138672 C279.44044319 153.12991482 252.71268247 161.37103178 225 166 C224.31115723 166.12004395 223.62231445 166.24008789 222.91259766 166.36376953 C177.47060107 174.10078544 128.46788078 165.03666302 87 146 C85.86949219 145.48566406 84.73898438 144.97132813 83.57421875 144.44140625 C71.18490457 138.5233712 59.3676009 131.00063982 49 122 C48.2059375 121.31550781 47.411875 120.63101563 46.59375 119.92578125 C44.02106357 117.6583978 41.50349903 115.34354292 39 113 C37.55947266 111.65808594 37.55947266 111.65808594 36.08984375 110.2890625 C19.39288271 94.39119353 6.97921883 74.33700044 1 52 C0.68289062 50.82566406 0.36578125 49.65132813 0.0390625 48.44140625 C-3.41968322 33.70207243 -4.12487333 14.69702766 0 0 Z " fill="#6FD1DE" transform="translate(67,332)"/>
<path d="M0 0 C29.37245052 -1.080366 56.88972143 10.4185222 78.34277344 30.1484375 C93.04150001 44.08158331 103.56442707 61.51931472 108.95996094 81.078125 C109.14042969 81.70267578 109.32089844 82.32722656 109.50683594 82.97070312 C113.59768031 97.3301197 115.29552598 111.76423968 109.95996094 126.078125 C109.60804688 127.06296875 109.25613281 128.0478125 108.89355469 129.0625 C106.1613861 136.16794173 102.59031981 142.05974286 97.95996094 148.078125 C97.23808594 149.08875 96.51621094 150.099375 95.77246094 151.140625 C88.93814765 159.02809476 79.57182927 164.36675502 69.95996094 168.078125 C69.1775 168.408125 68.39503906 168.738125 67.58886719 169.078125 C58.26860714 172.69638887 51.42247476 170.01489101 42.46777344 166.41015625 C35.04806352 163.59264948 27.37041067 161.52081704 19.51074219 160.41015625 C10.8988585 159.1917487 4.77154799 158.04617396 -1.04003906 151.078125 C-1.54148437 150.58828125 -2.04292969 150.0984375 -2.55957031 149.59375 C-13.10144805 138.80153744 -17.90408317 123.66606649 -18.35253906 108.890625 C-18.28374518 107.28455253 -18.17841544 105.6797034 -18.04003906 104.078125 C-17.97042969 103.15902344 -17.90082031 102.23992187 -17.82910156 101.29296875 C-16.44993944 89.66203485 -10.85028613 77.93686538 -2.04003906 70.078125 C9.28930764 61.16618667 19.4574141 56.80425264 33.95996094 58.078125 C44.36740263 59.99912475 53.5392205 64.39090216 60.12792969 72.8671875 C66.30241675 82.31351615 67.90151244 89.88284802 66.95996094 101.078125 C64.66649509 110.24016639 60.07092226 115.79564296 52.18261719 120.78515625 C46.36334834 124.17035482 40.59490756 125.03884125 33.95996094 124.078125 C26.5299403 121.4066569 21.4877508 116.44430749 17.58496094 109.703125 C16.22471255 103.99008176 16.02087654 99.06305983 18.95996094 93.828125 C21.48833298 90.15181393 24.44423617 88.44112979 28.27636719 86.296875 C30.28823906 85.07522293 30.28823906 85.07522293 31.14746094 81.953125 C31.1668817 79.13165276 31.1668817 79.13165276 29.89746094 77.140625 C27.93550683 75.86275206 27.93550683 75.86275206 25.27246094 76.078125 C17.76442451 78.34470203 13.20829668 82.12604675 9.14746094 88.82421875 C5.4181327 95.90258188 4.61908941 103.43894894 6.83496094 111.10546875 C10.53381925 120.75413534 15.46473563 127.24943796 24.65136719 132.0703125 C32.72686202 135.59565542 40.69592328 136.64176222 49.26074219 134.09765625 C54.57613572 131.94634504 59.31219781 129.41498058 63.95996094 126.078125 C64.94996094 125.748125 65.93996094 125.418125 66.95996094 125.078125 C68.01908384 123.24204241 68.01908384 123.24204241 68.95996094 121.078125 C70.41457755 118.92253716 71.91444194 116.80432554 73.42480469 114.6875 C77.2582388 108.17163744 78.49338131 102.2854779 78.39746094 94.765625 C78.3898877 93.93111816 78.38231445 93.09661133 78.37451172 92.23681641 C78.05911412 80.38293147 73.4367338 71.11661816 65.52246094 62.390625 C64.67683594 61.6275 63.83121094 60.864375 62.95996094 60.078125 C62.22712891 59.35689453 62.22712891 59.35689453 61.47949219 58.62109375 C50.87754675 48.67390029 37.34509242 46.45951701 23.37792969 46.76171875 C17.70444587 47.04918168 13.04975177 48.61084277 7.95996094 51.078125 C7.1465625 51.40554687 6.33316406 51.73296875 5.49511719 52.0703125 C-8.17526769 57.98766709 -19.33654974 70.94938574 -24.91503906 84.515625 C-27.4604131 91.76737856 -29.01728263 98.93190255 -29.05957031 106.63671875 C-29.17945662 117.11042233 -32.31409337 122.85607263 -37.90625 131.28466797 C-42.65247344 138.79236767 -45.61538825 147.17956102 -47.88769531 155.71484375 C-49.04003906 158.078125 -49.04003906 158.078125 -51.02832031 159.26171875 C-55.3828274 160.44212339 -59.76363322 161.46371871 -64.16503906 162.453125 C-70.99345626 164.02264004 -77.57768244 165.71732205 -84.07910156 168.37890625 C-86.04003906 169.078125 -86.04003906 169.078125 -89.04003906 169.078125 C-94.86796431 158.70467201 -99.97686654 148.64179815 -103.04003906 137.078125 C-103.29897949 136.13428955 -103.55791992 135.1904541 -103.82470703 134.21801758 C-105.88697586 126.14171375 -106.5152431 118.58371205 -106.41503906 110.265625 C-106.4048877 109.03875977 -106.39473633 107.81189453 -106.38427734 106.54785156 C-105.9468878 80.90800842 -96.96482029 57.42073212 -80.04003906 38.078125 C-79.4509375 37.3459375 -78.86183594 36.61375 -78.25488281 35.859375 C-62.29990537 16.61855294 -37.11203534 3.9289024 -12.57519531 0.609375 C-8.3828322 0.26361309 -4.20158123 0.16090306 0 0 Z " fill="#6FD2DF" transform="translate(274.0400390625,11.921875)"/>
<path d="M0 0 C1.85564575 0.0151062 1.85564575 0.0151062 3.7487793 0.03051758 C7.18713553 0.0675331 10.62455404 0.12361376 14.0625 0.1875 C14.81241211 0.19620117 15.56232422 0.20490234 16.33496094 0.21386719 C33.91071611 0.48369085 51.85251952 5.63190544 68.0625 12.1875 C68.7332959 12.45820313 69.4040918 12.72890625 70.09521484 13.0078125 C99.96400788 25.23822955 128.47580992 44.04707202 149.0625 69.1875 C149.82820313 70.07695312 150.59390625 70.96640625 151.3828125 71.8828125 C157.46527728 79.00692262 162.86536086 86.40434477 168.0625 94.1875 C167.7325 94.8475 167.4025 95.5075 167.0625 96.1875 C166.37027344 95.52105469 165.67804688 94.85460937 164.96484375 94.16796875 C133.65482927 64.48409537 92.28210728 46.57604274 49.73828125 40.73046875 C46.0625 40.1875 46.0625 40.1875 43.0625 39.1875 C40.62213258 38.9658471 38.19910839 38.78896983 35.75390625 38.65234375 C35.03194565 38.60936661 34.30998505 38.56638947 33.56614685 38.52210999 C32.03387888 38.43193169 30.50148904 38.34380432 28.96899414 38.25756836 C26.66450583 38.12723432 24.36059971 37.98895076 22.05664062 37.84960938 C13.71644378 37.35874731 5.42044532 37.03787327 -2.9375 37.1875 C-3.70618408 37.19837646 -4.47486816 37.20925293 -5.2668457 37.22045898 C-20.97407053 37.54322213 -36.43300865 39.78539571 -51.9375 42.1875 C-53.09523926 42.36104004 -53.09523926 42.36104004 -54.27636719 42.53808594 C-74.64545783 45.67416501 -94.55877231 53.03897777 -112.9375 62.1875 C-113.62908203 62.5278125 -114.32066406 62.868125 -115.03320312 63.21875 C-131.40085706 71.34701267 -146.31198136 81.92717875 -158.9375 95.1875 C-159.5975 94.5275 -160.2575 93.8675 -160.9375 93.1875 C-149.89044561 76.76055624 -137.41333607 60.70274134 -121.9375 48.1875 C-120.88633453 47.30123676 -119.83559415 46.41446922 -118.78515625 45.52734375 C-86.03226714 18.21529808 -43.10471158 -0.48891712 0 0 Z " fill="#92F7E8" transform="translate(252.9375,179.8125)"/>
<path d="M0 0 C29.37245052 -1.080366 56.88972143 10.4185222 78.34277344 30.1484375 C96.11552431 46.99549756 110.22340342 71.61372137 112.14355469 96.453125 C112.14666533 97.99600271 112.06734276 99.53898549 111.95996094 101.078125 C110.14703936 98.35874264 108.72034104 95.6188743 107.29614258 92.68432617 C93.51884785 64.33786263 72.56252306 42.73099778 42.49145508 32.0390625 C12.7361107 21.91866364 -18.51875828 22.27589753 -47.08886719 36.09375 C-71.98533557 48.65413044 -89.15029408 67.5940868 -102.04003906 92.078125 C-102.70003906 92.078125 -103.36003906 92.078125 -104.04003906 92.078125 C-104.31439992 85.99417298 -103.53808872 81.24828213 -101.54003906 75.515625 C-101.27231689 74.73622559 -101.00459473 73.95682617 -100.72875977 73.15380859 C-96.19325246 60.44818397 -89.58981533 49.51474844 -81.04003906 39.078125 C-80.35425781 38.22734375 -79.66847656 37.3765625 -78.96191406 36.5 C-61.88532957 16.38757827 -35.4548708 2.49635855 -9.16503906 0.328125 C-6.11012723 0.19020573 -3.05548918 0.11701251 0 0 Z " fill="#91F6E8" transform="translate(274.0400390625,11.921875)"/>
<path d="M0 0 C0.7425 0.39058594 1.485 0.78117187 2.25 1.18359375 C10.5126917 6.11050282 17.16685234 13.91878358 20.37109375 23.04296875 C22.71646678 34.07059227 22.01249777 45.26814315 16 55 C8.15023555 65.62553668 -0.0176713 70.80817827 -13 73 C-22.67205553 74.20533215 -31.95176377 71.56099759 -39.8125 65.8125 C-48.03047754 58.81530898 -54.30271832 50.33730492 -55.34375 39.3828125 C-55.64688279 26.82806267 -53.31305066 17.58578517 -45 8 C-42.18769616 5.31599469 -39.26498973 3.10410449 -36 1 C-35.03900391 0.34837891 -35.03900391 0.34837891 -34.05859375 -0.31640625 C-24.8527838 -5.48679266 -9.22461572 -4.8912781 0 0 Z " fill="#34373B" transform="translate(370,345)"/>
<path d="M0 0 C0.7425 0.39058594 1.485 0.78117187 2.25 1.18359375 C10.5126917 6.11050282 17.16685234 13.91878358 20.37109375 23.04296875 C22.71646678 34.07059227 22.01249777 45.26814315 16 55 C8.15023555 65.62553668 -0.0176713 70.80817827 -13 73 C-22.73260515 74.21287785 -32.02184742 71.54766764 -39.875 65.6875 C-41.27637457 64.48848999 -42.6536719 63.26050639 -44 62 C-44.56460938 61.47664063 -45.12921875 60.95328125 -45.7109375 60.4140625 C-52.38251594 53.47155702 -55.28869985 44.88350669 -55.5 35.375 C-55.02718654 23.48192296 -51.60939832 14.30787468 -42.859375 5.95703125 C-40.64833257 4.14413108 -38.40257605 2.54832679 -36 1 C-35.03900391 0.34837891 -35.03900391 0.34837891 -34.05859375 -0.31640625 C-24.8527838 -5.48679266 -9.22461572 -4.8912781 0 0 Z " fill="#34373B" transform="translate(176,345)"/>
<path d="M0 0 C4.77683001 1.59227667 6.03313013 3.79159517 8.89453125 7.77734375 C17.29206926 18.96816809 31.81908074 26.44363652 45.57861328 28.52685547 C51.19074016 29.23622831 56.77989334 29.409163 62.43139648 29.54003906 C105.69104397 30.5699602 105.69104397 30.5699602 116.77734375 39.96875 C118.70635245 41.50218625 118.70635245 41.50218625 121.23046875 41.08203125 C123.73127654 40.2561831 125.78150937 39.24613228 128.0625 37.9375 C140.75897503 31.38999046 155.02956025 30.25054457 169.07452393 30.0861969 C183.20939137 29.91527087 196.4321296 29.50554671 209.75 24.25 C211.39355469 23.61771484 211.39355469 23.61771484 213.0703125 22.97265625 C222.07647381 18.99934979 230.50206124 12.26845418 235.87109375 3.97265625 C237.75 1.25 237.75 1.25 241.3125 0.1875 C244.75 0.25 244.75 0.25 246.75 1.25 C248.4294132 4.6088264 247.74614889 6.67558341 246.75 10.25 C245.03084123 13.17659469 242.97890899 15.69688607 240.75 18.25 C240.2446875 18.8378125 239.739375 19.425625 239.21875 20.03125 C230.07058205 29.89692132 218.41835897 35.39868597 205.75 39.25 C204.88963135 39.51925293 204.0292627 39.78850586 203.14282227 40.06591797 C195.3730433 42.27347285 187.85241786 42.67288873 179.82473755 42.73135376 C154.90513724 42.41357306 154.90513724 42.41357306 131.75 50.25 C131.15058594 50.94222656 130.55117188 51.63445312 129.93359375 52.34765625 C126.8796848 55.00821736 124.74457181 54.7838523 120.75 54.75 C118.9246875 54.76546875 118.9246875 54.76546875 117.0625 54.78125 C113.1180827 54.14865477 112.40664787 53.09417596 109.75 50.25 C106.52927354 48.75318992 106.52927354 48.75318992 102.875 47.625 C101.68132812 47.22023438 100.48765625 46.81546875 99.2578125 46.3984375 C88.49723589 43.37409027 77.35628485 42.95236532 66.25 42.75 C41.63209743 42.30144229 20.24923359 37.56030073 2.125 20.125 C-2.03879813 15.70781284 -5.7061952 11.66820161 -6.6875 5.5 C-6.25 3.25 -6.25 3.25 -5.1875 1.375 C-3.25 0.25 -3.25 0.25 0 0 Z " fill="#34393E" transform="translate(135.25,422.75)"/>
<path d="M0 0 C2.56989307 2.01716662 4.67120071 4.03008124 6.3125 6.875 C6 9.625 6 9.625 5.3125 11.875 C3.83683205 12.3648355 2.35667897 12.8411592 0.875 13.3125 C0.05128906 13.57933594 -0.77242188 13.84617187 -1.62109375 14.12109375 C-8.87515787 15.90457703 -16.26257093 16.03347912 -23.69921875 16.04296875 C-25.09525078 16.04796135 -25.09525078 16.04796135 -26.51948547 16.05305481 C-28.47839875 16.05808773 -30.4373205 16.06046427 -32.39624023 16.06030273 C-35.34959503 16.06248126 -38.30257081 16.08065437 -41.25585938 16.09960938 C-69.47002552 16.18785199 -69.47002552 16.18785199 -76.6875 10.875 C-77.0175 9.885 -77.3475 8.895 -77.6875 7.875 C-73.01481151 -1.2085453 -61.56935076 -6.01374744 -52.43359375 -9.29296875 C-34.85565641 -14.17445591 -14.80513191 -10.66402554 0 0 Z " fill="#92F8E9" transform="translate(291.6875,403.125)"/>
<path d="M0 0 C-1.98165495 7.3112638 -6.55605864 11.41271499 -13.01953125 15.17578125 C-19.3579805 17.89963622 -26.49142958 18.01181878 -33.0625 16 C-38.11770301 13.82760115 -42.47040961 10.18131973 -46 6 C-47.2578125 2.73828125 -47.2578125 2.73828125 -48 0 C-32.39645567 -3.29735276 -15.60354433 -3.29735276 0 0 Z " fill="#863015" transform="translate(377,389)"/>
<path d="M0 0 C-1.98165495 7.3112638 -6.55605864 11.41271499 -13.01953125 15.17578125 C-19.3579805 17.89963622 -26.49142958 18.01181878 -33.0625 16 C-38.11770301 13.82760115 -42.47040961 10.18131973 -46 6 C-47.2578125 2.73828125 -47.2578125 2.73828125 -48 0 C-32.39645567 -3.29735276 -15.60354433 -3.29735276 0 0 Z " fill="#863015" transform="translate(183,389)"/>
<path d="M0 0 C2.63165084 1.63343845 2.94962977 2.79393996 3.6875 5.8125 C2.77588763 10.03906643 1.11972229 11.00041712 -2.3828125 13.34375 C-3.24648438 13.8903125 -4.11015625 14.436875 -5 15 C-6.04929687 15.7115625 -7.09859375 16.423125 -8.1796875 17.15625 C-9.30580027 17.8981022 -10.43340637 18.63769257 -11.5625 19.375 C-12.61566406 20.06335938 -13.66882813 20.75171875 -14.75390625 21.4609375 C-18.48611492 23.23048048 -20.91667898 23.4454532 -25 23 C-27 21 -27 21 -27.75 17.8125 C-26.87856982 13.38272994 -26.28711566 13.01112538 -22.75 10.5 C-20.84922289 9.30762062 -18.93111279 8.142596 -17 7 C-15.95714844 6.34128906 -14.91429687 5.68257813 -13.83984375 5.00390625 C-4.80954048 -0.55750729 -4.80954048 -0.55750729 0 0 Z " fill="#353B3E" transform="translate(337,309)"/>
<path d="M0 0 C4.42936098 1.332651 8.16277066 4.09815033 11.9855957 6.63500977 C12.8518457 7.19446289 13.7180957 7.75391602 14.6105957 8.33032227 C20.86331613 12.38773019 20.86331613 12.38773019 22.1105957 13.63500977 C22.3605957 17.07250977 22.3605957 17.07250977 22.1105957 20.63500977 C18.46742475 23.0637904 17.42212918 23.25516184 13.1105957 22.63500977 C9.68144336 20.94443466 6.54072038 18.87525251 3.3605957 16.76000977 C2.49821289 16.20442383 1.63583008 15.64883789 0.74731445 15.07641602 C-5.51520647 11.00920759 -5.51520647 11.00920759 -7.8894043 8.63500977 C-8.21894862 5.53729311 -8.3427503 3.46169954 -6.8269043 0.69750977 C-4.3987794 -0.6340426 -2.68792983 -0.43679295 0 0 Z " fill="#353A3E" transform="translate(179.889404296875,309.364990234375)"/>
<path d="M0 0 C1.875 1.1875 1.875 1.1875 3 3 C3.40565289 6.20736222 3.21955984 7.64642311 1.49609375 10.421875 C-4.74438651 17.47942003 -4.74438651 17.47942003 -9 18.0625 C-9.99 18.041875 -10.98 18.02125 -12 18 C-13.90941287 15.85191052 -14.93513927 14.50641262 -15.3046875 11.62109375 C-14.92185903 8.32778731 -13.86906891 7.14977981 -11.625 4.75 C-10.99851562 4.06421875 -10.37203125 3.3784375 -9.7265625 2.671875 C-6.62568766 -0.33078209 -4.22935453 -0.34525343 0 0 Z " fill="#353C40" transform="translate(275,427)"/>
<path d="M0 0 C2.625 2.25 2.625 2.25 5 5 C5.78375 5.61875 6.5675 6.2375 7.375 6.875 C9 9 9 9 8.875 12.625 C8 16 8 16 6 18 C1.8058902 18.25164659 -0.00797898 17.8431313 -3.23828125 15.09765625 C-8.88297231 9.0719736 -8.88297231 9.0719736 -9.29296875 5.31640625 C-9 3 -9 3 -7.875 1.1875 C-5.04051261 -0.60767534 -3.29069071 -0.52651051 0 0 Z " fill="#353C40" transform="translate(243,427)"/>
<path d="M0 0 C2.375 1.625 2.375 1.625 4 4 C4.61195145 7.6717087 4.48706506 9.28813568 2.375 12.375 C-0.71186432 14.48706506 -2.3282913 14.61195145 -6 14 C-8.375 12.375 -8.375 12.375 -10 10 C-10.61195145 6.3282913 -10.48706506 4.71186432 -8.375 1.625 C-5.28813568 -0.48706506 -3.6717087 -0.61195145 0 0 Z " fill="#F6F6F6" transform="translate(340,362)"/>
<path d="M0 0 C2.375 1.625 2.375 1.625 4 4 C4.61195145 7.6717087 4.48706506 9.28813568 2.375 12.375 C-0.71186432 14.48706506 -2.3282913 14.61195145 -6 14 C-8.375 12.375 -8.375 12.375 -10 10 C-10.61195145 6.3282913 -10.48706506 4.71186432 -8.375 1.625 C-5.28813568 -0.48706506 -3.6717087 -0.61195145 0 0 Z " fill="#F6F6F6" transform="translate(146,362)"/>
</svg>
