<?xml version="1.0" encoding="UTF-8"?>
<svg version="1.1" xmlns="http://www.w3.org/2000/svg" width="512" height="512">
<path d="M0 0 C28.42713936 18.43724026 49.25649115 45.71616689 56.55151367 79.04956055 C57.30206554 82.69945758 57.99367159 86.35512163 58.6484375 90.0234375 C58.86757812 89.46914062 59.08671875 88.91484375 59.3125 88.34375 C59.78816406 87.25707031 59.78816406 87.25707031 60.2734375 86.1484375 C60.72589844 85.06949219 60.72589844 85.06949219 61.1875 83.96875 C63.2300709 81.24896309 65.43027186 80.86104226 68.6484375 80.0234375 C68.71653666 67.45062949 68.51548618 54.90304367 68.1484375 42.3359375 C68.00601539 37.42810983 67.86811006 32.52057203 67.76171875 27.61181641 C67.69658774 24.61081008 67.58652502 21.61678936 67.44140625 18.61865234 C67.39518114 17.26792581 67.34957287 15.91717797 67.3046875 14.56640625 C67.22444336 12.80913208 67.22444336 12.80913208 67.14257812 11.01635742 C67.6484375 8.0234375 67.6484375 8.0234375 69.79492188 5.55200195 C72.6484375 4.0234375 72.6484375 4.0234375 75.7512207 3.90771484 C79.70182963 5.42910043 80.26940672 7.05295875 82.00390625 10.875 C82.29049606 11.49307526 82.57708588 12.11115051 82.87236023 12.74795532 C83.82538994 14.82851562 84.73930666 16.92334937 85.6484375 19.0234375 C85.97217346 19.75864624 86.29590942 20.49385498 86.62945557 21.25134277 C89.13257452 26.94233462 91.55269038 32.66679991 93.9609375 38.3984375 C94.70921383 40.17006561 95.45783312 41.94154889 96.20678711 43.71289062 C101.73365255 56.79689861 107.22331891 69.8968982 112.6484375 83.0234375 C116.92765992 79.52118531 120.86285398 75.84877741 124.71484375 71.87890625 C126.0615918 70.49348633 126.0615918 70.49348633 127.43554688 69.08007812 C128.83059773 67.63790381 130.22555154 66.19556761 131.6081543 64.74145508 C132.96525789 63.31760478 134.33987192 61.91050935 135.71484375 60.50390625 C136.51865479 59.66754639 137.32246582 58.83118652 138.15063477 57.96948242 C141.10564202 55.66722821 142.91529236 55.08457013 146.6484375 55.0234375 C148.59765625 56.07250977 148.59765625 56.07250977 150.3359375 57.77734375 C151.35107422 58.75018311 151.35107422 58.75018311 152.38671875 59.74267578 C153.13308594 60.49532715 153.87945312 61.24797852 154.6484375 62.0234375 C155.50824219 62.86503418 156.36804688 63.70663086 157.25390625 64.57373047 C160.07272929 67.34931698 162.86389402 70.15109735 165.6484375 72.9609375 C166.62346136 73.9409906 167.5987203 74.9208099 168.57421875 75.90039062 C170.93460368 78.27246063 173.29260655 80.6468461 175.6484375 83.0234375 C177.50044923 80.24541991 178.73791106 77.70057518 180.0546875 74.64453125 C180.78667358 72.95046143 180.78667358 72.95046143 181.53344727 71.22216797 C181.79553986 70.6116156 182.05763245 70.00106323 182.32766724 69.37200928 C183.16160101 67.43028773 184.00018011 65.49062525 184.83959961 63.55126953 C187.97938024 56.285822 191.08331378 49.00586848 194.1567688 41.71211243 C195.77020774 37.88543067 197.39062336 34.06171816 199.01123047 30.23806763 C199.80931873 28.34904355 200.60377105 26.4584791 201.39453125 24.56637573 C202.51344258 21.88944749 203.64420157 19.21780418 204.77734375 16.546875 C205.10920181 15.74394516 205.44105988 14.94101532 205.78297424 14.11375427 C207.51647482 10.06099143 209.02337868 6.74461503 212.6484375 4.0234375 C215.75205923 4.08677672 217.74762839 4.40116805 220.31835938 6.17700195 C222.31100037 8.94321778 221.95365512 11.1268399 221.8671875 14.50390625 C221.84827454 15.48716133 221.84827454 15.48716133 221.82897949 16.49028015 C221.78337442 18.66860526 221.71595906 20.84569024 221.6484375 23.0234375 C221.61197685 24.55416871 221.57684383 26.08493205 221.54296875 27.61572266 C221.41022404 33.35344976 221.24323883 39.09010538 221.07568359 44.8269043 C220.73650937 56.56302461 220.58484338 68.28237253 220.6484375 80.0234375 C221.58945312 80.26835938 222.53046875 80.51328125 223.5 80.765625 C226.6484375 82.0234375 226.6484375 82.0234375 228.109375 83.96875 C228.41101563 84.68804687 228.71265625 85.40734375 229.0234375 86.1484375 C229.34054687 86.87289062 229.65765625 87.59734375 229.984375 88.34375 C230.20351563 88.89804688 230.42265625 89.45234375 230.6484375 90.0234375 C230.85597656 88.86070313 231.06351562 87.69796875 231.27734375 86.5 C237.68515492 52.50638276 255.90067053 22.69061949 284.6484375 3.0234375 C304.55415664 -10.15812468 332.31886781 -21.09907412 356.6484375 -17.9765625 C361.24038682 -16.91891582 364.84119624 -14.66636558 367.69921875 -10.83984375 C369.98613634 -6.35070921 370.37123417 -1.48310299 368.98046875 3.33984375 C367.0614971 7.59291152 365.10956888 10.2597344 360.6484375 12.0234375 C355.00252982 13.48719134 351.70385916 12.92562401 346.6484375 10.0234375 C341.74180973 5.43680719 341.26239826 2.36552157 340.6484375 -3.9765625 C307.63034834 3.59916151 279.68639538 17.85562463 260.80517578 47.15673828 C250.37930483 63.98160306 245.12517542 82.3675465 243.6484375 102.0234375 C244.69515625 101.683125 245.741875 101.3428125 246.8203125 100.9921875 C256.99049756 97.71537017 267.21105271 94.60358889 277.4609375 91.5859375 C278.67040039 91.21984375 279.87986328 90.85375 281.12597656 90.4765625 C282.27420898 90.14269531 283.42244141 89.80882813 284.60546875 89.46484375 C285.62616455 89.16263916 286.64686035 88.86043457 287.69848633 88.54907227 C291.11212096 87.94081642 293.34002224 87.96068563 296.6484375 89.0234375 C299.43667166 92.42299979 300.23340163 95.82307857 301 100.09375 C301.21140625 101.23714844 301.4228125 102.38054687 301.640625 103.55859375 C301.84945313 104.74324219 302.05828125 105.92789063 302.2734375 107.1484375 C302.70153073 109.50549844 303.1311468 111.86228347 303.5625 114.21875 C303.7476416 115.26047363 303.9327832 116.30219727 304.12353516 117.37548828 C304.60864489 120.1135999 304.60864489 120.1135999 305.6484375 123.0234375 C306.93943359 123.10907959 308.23042969 123.19472168 309.56054688 123.28295898 C314.37645973 123.60305372 319.19216383 123.9262012 324.0078125 124.25024414 C326.08718435 124.3897418 328.166611 124.5284252 330.24609375 124.66625977 C333.24494161 124.8651776 336.24357646 125.06707839 339.2421875 125.26953125 C340.16334351 125.3299913 341.08449951 125.39045135 342.03356934 125.45274353 C344.57347767 125.62582004 347.11054932 125.82324188 349.6484375 126.0234375 C350.41389893 126.06598663 351.17936035 126.10853577 351.96801758 126.15237427 C355.1990001 126.40590463 357.19219579 126.61633892 359.65209961 128.8112793 C363.72027873 137.84381325 357.430134 154.27001223 355.5859375 163.7109375 C355.2045849 165.68414953 354.82372129 167.65745613 354.44335938 169.63085938 C353.5173574 174.4294952 352.58473153 179.22679968 351.6484375 184.0234375 C352.53450684 184.30719238 353.42057617 184.59094727 354.33349609 184.88330078 C359.15127812 186.54032259 363.67361174 188.71923828 368.2734375 190.8984375 C369.21445312 191.33285156 370.15546875 191.76726562 371.125 192.21484375 C372.0325 192.64410156 372.94 193.07335937 373.875 193.515625 C374.69564941 193.90089355 375.51629883 194.28616211 376.36181641 194.68310547 C379.0537054 196.26099043 380.81540741 197.47292111 382.6484375 200.0234375 C382.61175494 205.46282305 380.77486614 209.14000932 378.0078125 213.734375 C377.64375305 214.34681061 377.2796936 214.95924622 376.90460205 215.59024048 C375.74669088 217.53302682 374.57320285 219.46580583 373.3984375 221.3984375 C372.62520143 222.68684008 371.85305649 223.97589817 371.08203125 225.265625 C369.96085249 227.14092352 368.83902768 229.01577274 367.71252441 230.88787842 C364.91569522 235.54189503 362.22990202 240.24692643 359.6484375 245.0234375 C360.29167969 245.54550781 360.93492187 246.06757813 361.59765625 246.60546875 C367.38078869 251.31612299 373.10560473 256.08525304 378.78735352 260.91723633 C383.27506817 264.7265989 387.82549241 268.45120882 392.40625 272.1484375 C393.14617187 272.7671875 393.88609375 273.3859375 394.6484375 274.0234375 C395.54175781 274.673125 395.54175781 274.673125 396.453125 275.3359375 C397.6484375 277.0234375 397.6484375 277.0234375 398.38671875 280.13671875 C397.23876301 286.18018944 393.23822721 289.13772818 388.8359375 293.2109375 C387.1817399 294.78581549 385.52932666 296.36257034 383.87890625 297.94140625 C383.14051514 298.63000732 382.40212402 299.3186084 381.64135742 300.02807617 C379.7090538 301.96274694 378.03623838 303.66345394 376.6484375 306.0234375 C376.8743413 309.63094029 378.96222063 312.57229137 380.74609375 315.64453125 C381.3795874 316.73918701 382.01308105 317.83384277 382.66577148 318.96166992 C383.0003537 319.53404388 383.33493591 320.10641785 383.67965698 320.69613647 C384.71504139 322.46796038 385.74298383 324.24393706 386.76977539 326.02075195 C390.7892156 332.95545763 394.90989551 339.78493959 399.42578125 346.41015625 C401.04425932 349.86945921 401.13593436 352.24857241 400.6484375 356.0234375 C397.70831225 359.68942136 394.4672 361.23505315 390.1875 363.046875 C389.56048187 363.31553375 388.93346375 363.5841925 388.28744507 363.86099243 C386.28650297 364.71590127 384.28023968 365.55739043 382.2734375 366.3984375 C380.96446536 366.95483983 379.65586801 367.51212472 378.34765625 368.0703125 C375.75112479 369.17658888 373.1524646 370.27759978 370.55175781 371.37402344 C364.57235769 373.89660052 358.61126216 376.46198319 352.6484375 379.0234375 C352.7817749 380.17481201 352.9151123 381.32618652 353.05249023 382.51245117 C353.30666949 384.70770534 353.55945513 386.90307131 353.80883789 389.09887695 C354.24233891 392.85291948 354.71959309 396.5870488 355.33203125 400.31640625 C355.48986084 401.31788696 355.48986084 401.31788696 355.65087891 402.33959961 C355.94580057 404.17902833 356.25950805 406.01541599 356.57421875 407.8515625 C356.6616333 411.58738413 355.97883234 413.14069173 353.6484375 416.0234375 C350.27848073 417.14675642 347.38909379 417.34193515 343.84130859 417.58007812 C343.15307007 417.62738571 342.46483154 417.6746933 341.7557373 417.72343445 C339.47801338 417.87914498 337.19995939 418.02935111 334.921875 418.1796875 C333.33343844 418.28756504 331.74502932 418.39584737 330.15664673 418.5045166 C325.96817758 418.79023068 321.77942581 419.0715493 317.59057617 419.35162354 C310.90762762 419.79890124 304.22504685 420.25156672 297.54262161 420.70658875 C295.21809898 420.8640562 292.89341264 421.01890275 290.56869507 421.17346191 C276.254487 421.56927528 276.254487 421.56927528 263.2109375 426.5859375 C210.55035738 458.5084377 141.46665418 462.62362835 82.6484375 449.0234375 C63.418617 444.09542846 43.56834597 437.40824554 26.66143799 426.77359009 C20.89847366 423.22898414 16.16710065 422.17238354 9.46875 421.83203125 C7.99536667 421.7302079 7.99536667 421.7302079 6.49221802 421.62632751 C3.21195486 421.40459957 -0.06935538 421.21405623 -3.3515625 421.0234375 C-5.75826795 420.86804763 -8.16484131 420.71060055 -10.57128906 420.55126953 C-15.62922872 420.21958581 -20.68744 419.89287998 -25.74609375 419.57226562 C-27.01533691 419.49177979 -28.28458008 419.41129395 -29.59228516 419.32836914 C-32.21379632 419.16475125 -34.83555202 419.00501153 -37.45751953 418.84887695 C-41.30067271 418.61836357 -45.14245404 418.37120229 -48.984375 418.12109375 C-50.15509552 418.0553566 -51.32581604 417.98961945 -52.53201294 417.92189026 C-54.16189651 417.81178871 -54.16189651 417.81178871 -55.82470703 417.69946289 C-56.77459503 417.64109756 -57.72448303 417.58273224 -58.70315552 417.52259827 C-61.82339296 416.93450885 -63.80579812 415.90690807 -66.3515625 414.0234375 C-67.62593644 409.85308763 -67.31574348 406.35940064 -66.57421875 402.109375 C-66.39052734 401.01882813 -66.20683594 399.92828125 -66.01757812 398.8046875 C-65.81841797 397.680625 -65.61925781 396.5565625 -65.4140625 395.3984375 C-65.02725027 393.15671381 -64.64302524 390.91454175 -64.26171875 388.671875 C-64.08777588 387.68364746 -63.91383301 386.69541992 -63.73461914 385.67724609 C-63.25632139 382.81049434 -63.25632139 382.81049434 -63.3515625 379.0234375 C-64.25285889 378.63075684 -65.15415527 378.23807617 -66.08276367 377.83349609 C-69.4922322 376.34759764 -72.90088792 374.85984209 -76.30932617 373.37158203 C-77.77232824 372.73307045 -79.23553757 372.09503353 -80.69897461 371.45751953 C-85.58942501 369.32686018 -90.47300206 367.1811739 -95.3515625 365.0234375 C-96.32032318 364.5973822 -96.32032318 364.5973822 -97.30865479 364.16271973 C-99.11406846 363.36603012 -100.91458832 362.55827795 -102.71484375 361.75 C-103.73489502 361.29447754 -104.75494629 360.83895508 -105.8059082 360.36962891 C-108.18415155 359.11196766 -109.70894853 358.13522436 -111.3515625 356.0234375 C-112.6170403 349.031897 -109.10099673 344.3943984 -105.5390625 338.7109375 C-104.66677002 337.2724646 -104.66677002 337.2724646 -103.77685547 335.80493164 C-100.90738604 331.08734918 -97.97066305 326.41467337 -95.00390625 321.7578125 C-94.49255127 320.94610596 -93.98119629 320.13439941 -93.4543457 319.2980957 C-92.48931482 317.77187058 -91.51050201 316.25424922 -90.51635742 314.74682617 C-90.08299072 314.06338135 -89.64962402 313.37993652 -89.203125 312.67578125 C-88.81979004 312.08788818 -88.43645508 311.49999512 -88.04150391 310.89428711 C-87.04294456 308.18658709 -87.40311394 306.73584001 -88.3515625 304.0234375 C-90.30259057 301.63519735 -90.30259057 301.63519735 -92.82421875 299.40625 C-93.72333984 298.55160156 -94.62246094 297.69695312 -95.54882812 296.81640625 C-97.45719011 295.03943115 -99.37126176 293.26856799 -101.29101562 291.50390625 C-102.63776367 290.21806641 -102.63776367 290.21806641 -104.01171875 288.90625 C-104.84324463 288.13684082 -105.67477051 287.36743164 -106.53149414 286.57470703 C-108.94177072 283.19611678 -108.84751755 281.08649914 -108.3515625 277.0234375 C-106.59490763 274.84677963 -105.16165644 273.37548498 -103.0390625 271.6484375 C-102.49290283 271.17784912 -101.94674316 270.70726074 -101.3840332 270.22241211 C-99.72329199 268.8012863 -98.04099617 267.41024834 -96.3515625 266.0234375 C-95.454375 265.26933594 -94.5571875 264.51523437 -93.6328125 263.73828125 C-90.89684054 261.46791898 -88.12988369 259.24178698 -85.3515625 257.0234375 C-84.0102657 255.94810494 -82.66913021 254.87257116 -81.328125 253.796875 C-77.67323564 250.86740962 -74.0134973 247.94408995 -70.3515625 245.0234375 C-71.37148037 243.23124954 -72.39262004 241.43975697 -73.4140625 239.6484375 C-73.75042725 239.05281006 -74.08679199 238.45718262 -74.43334961 237.84350586 C-76.97232326 233.36908955 -79.59487964 228.95265518 -82.2578125 224.55078125 C-83.29717055 222.81181302 -84.33394731 221.07134056 -85.36935425 219.33001709 C-86.06320328 218.17167654 -86.76379898 217.01734944 -87.47122192 215.86724854 C-88.48136896 214.22289215 -89.46571476 212.56277287 -90.44921875 210.90234375 C-91.03195557 209.9388501 -91.61469238 208.97535645 -92.21508789 207.98266602 C-93.6657129 204.20543171 -93.39468182 201.90185006 -92.3515625 198.0234375 C-89.82026804 196.25184273 -87.82807238 195.14034109 -85.0390625 193.9609375 C-83.58185083 193.29336243 -82.12482137 192.62538951 -80.66796875 191.95703125 C-79.94109863 191.63460449 -79.21422852 191.31217773 -78.46533203 190.97998047 C-75.41220149 189.59834897 -72.45411074 188.06105354 -69.4765625 186.5234375 C-64.59624335 184.0234375 -64.59624335 184.0234375 -62.3515625 184.0234375 C-62.52069153 183.16019363 -62.52069153 183.16019363 -62.6932373 182.2795105 C-63.86783335 176.27846113 -65.03456245 170.27592016 -66.19677734 164.27246094 C-66.63129192 162.03346338 -67.06779706 159.79485115 -67.50634766 157.55664062 C-68.13710432 154.3356338 -68.76064133 151.11329977 -69.3828125 147.890625 C-69.57967651 146.89352509 -69.77654053 145.89642517 -69.97937012 144.86911011 C-72.20506844 133.25161672 -72.20506844 133.25161672 -70.46875 128.71875 C-66.92454189 125.88076786 -62.8955465 126.14746764 -58.4765625 125.8984375 C-56.98854126 125.79233154 -56.98854126 125.79233154 -55.47045898 125.68408203 C-53.29223204 125.53111242 -51.11338049 125.38685956 -48.93408203 125.25 C-45.08090516 125.00632083 -41.22990763 124.73636455 -37.37890625 124.4609375 C-30.37105468 123.96251868 -23.36181172 123.48686348 -16.3515625 123.0234375 C-16.21580811 122.3435376 -16.08005371 121.6636377 -15.94018555 120.96313477 C-15.31235227 117.83619027 -14.67576837 114.71108693 -14.0390625 111.5859375 C-13.82572266 110.51666016 -13.61238281 109.44738281 -13.39257812 108.34570312 C-9.84207128 91.01711002 -9.84207128 91.01711002 -5.3515625 88.0234375 C0.43917225 88.41331785 5.8949089 90.09979922 11.44921875 91.7109375 C12.36680466 91.97350342 13.28439056 92.23606934 14.2297821 92.5065918 C16.15747746 93.05917707 18.08453693 93.613985 20.01098633 94.17089844 C22.967461 95.0253228 25.92591517 95.87259378 28.88476562 96.71875 C30.76053601 97.25739707 32.63619123 97.79644541 34.51171875 98.3359375 C35.39813553 98.59012451 36.28455231 98.84431152 37.1978302 99.10620117 C38.01595688 99.34314697 38.83408356 99.58009277 39.67700195 99.82421875 C40.39757278 100.03216064 41.11814362 100.24010254 41.86054993 100.4543457 C43.6484375 101.0234375 43.6484375 101.0234375 45.6484375 102.0234375 C42.360444 72.77760061 33.07731766 49.72212008 12.6484375 28.0234375 C12.09800781 27.40855469 11.54757813 26.79367188 10.98046875 26.16015625 C-5.00342433 8.99227109 -29.02269115 0.65488974 -51.3515625 -3.9765625 C-51.3928125 -2.8009375 -51.4340625 -1.6253125 -51.4765625 -0.4140625 C-52.04088387 3.87935548 -53.50047151 6.48916556 -56.484375 9.6015625 C-59.8478481 12.16286838 -63.15769195 12.98086013 -67.3515625 13.0234375 C-71.93691041 12.2956045 -74.62991599 10.80059528 -77.7890625 7.3984375 C-80.41867271 1.71847946 -81.03696874 -2.77604773 -79.1640625 -8.7890625 C-76.84555272 -12.86644178 -75.02372654 -15.16087272 -70.7890625 -17.2265625 C-47.58884529 -22.28842807 -19.74612517 -11.64515074 0 0 Z M-67.3515625 -3.9765625 C-67.3515625 -2.9865625 -67.3515625 -1.9965625 -67.3515625 -0.9765625 C-66.3615625 -0.9765625 -65.3715625 -0.9765625 -64.3515625 -0.9765625 C-64.6815625 -1.9665625 -65.0115625 -2.9565625 -65.3515625 -3.9765625 C-66.0115625 -3.9765625 -66.6715625 -3.9765625 -67.3515625 -3.9765625 Z M354.6484375 -3.9765625 C354.3184375 -2.9865625 353.9884375 -1.9965625 353.6484375 -0.9765625 C354.6384375 -0.9765625 355.6284375 -0.9765625 356.6484375 -0.9765625 C356.6484375 -1.9665625 356.6484375 -2.9565625 356.6484375 -3.9765625 C355.9884375 -3.9765625 355.3284375 -3.9765625 354.6484375 -3.9765625 Z " fill="#5E1DA9" transform="translate(111.3515625,36.9765625)"/>
<path d="M0 0 C2.64754277 1.32377139 2.83188779 2.50559527 3.97338867 5.21362305 C4.55380669 6.57675377 4.55380669 6.57675377 5.14595032 7.96742249 C5.5657164 8.97204025 5.98548248 9.97665802 6.41796875 11.01171875 C6.86339523 12.06278305 7.30882172 13.11384735 7.76774597 14.19676208 C9.24705439 17.6911477 10.71712058 21.18934898 12.1875 24.6875 C13.21558887 27.11928227 14.24440713 29.55075629 15.27392578 31.98193359 C17.4275146 37.06880331 19.57744707 42.15720263 21.72509766 47.24658203 C26.43045268 58.39474806 31.16434717 69.53075066 35.90322876 80.66470337 C37.33639508 84.03423557 38.76643112 87.40508236 40.19604492 90.77612305 C44.78227291 101.57160612 49.42585708 112.32961246 54.34115601 122.98025513 C54.69215363 123.74715668 55.04315125 124.51405823 55.40478516 125.30419922 C55.86892319 126.30784012 55.86892319 126.30784012 56.34243774 127.33175659 C57 129 57 129 57 131 C60.96 131 64.92 131 69 131 C69.23162842 130.23872803 69.46325684 129.47745605 69.7019043 128.69311523 C71.47385439 123.65187224 73.62481718 118.80244362 75.76953125 113.91015625 C76.24193741 112.82642731 76.71434357 111.74269836 77.20106506 110.62612915 C78.21189518 108.30723831 79.223742 105.98879045 80.23651123 103.67074585 C90.69177658 79.73734826 90.69177658 79.73734826 100.875 55.6875 C101.59260498 53.96744751 101.59260498 53.96744751 102.32470703 52.21264648 C103.31622058 49.83476157 104.30742389 47.45674728 105.29833984 45.07861328 C108.52449013 37.3423151 111.76472689 29.61203138 115.02325439 21.88931274 C115.79475925 20.05749935 116.56379339 18.22464325 117.33026123 16.39071655 C118.39499694 13.84376758 119.46797312 11.30044463 120.54296875 8.7578125 C120.86316483 7.98658554 121.1833609 7.21535858 121.51325989 6.42076111 C123.77196031 1.11401984 123.77196031 1.11401984 126 0 C126.11948947 18.88967665 126.01245594 37.76332357 125.5625 56.6484375 C125.54052551 57.57236549 125.51855103 58.49629349 125.49591064 59.4482193 C125.33637217 66.09062667 125.16873961 72.73282108 125 79.375 C124.20724203 109.73477474 124.20724203 109.73477474 123.8125 140.1015625 C123.79952881 141.3005014 123.78655762 142.49944031 123.77319336 143.73471069 C123.77198486 144.8104837 123.77077637 145.88625671 123.76953125 146.99462891 C123.76542236 147.92143463 123.76131348 148.84824036 123.75708008 149.8031311 C123.79132855 152.20806729 123.79132855 152.20806729 126 154 C129.59679066 153.67673447 129.59679066 153.67673447 133 153 C134.16402249 149.50793253 134.20197951 146.64332688 134.29711914 142.95825195 C134.31677231 142.24580322 134.33642548 141.53335449 134.35667419 140.79931641 C134.42051687 138.44573104 134.47786169 136.09203437 134.53515625 133.73828125 C134.5781677 132.10588033 134.62158428 130.47349003 134.66539001 128.84111023 C134.77957437 124.54549774 134.88824948 120.24976279 134.99578857 115.95397949 C135.10650377 111.57014411 135.22241395 107.18644646 135.33789062 102.80273438 C135.56368632 94.20194937 135.78366364 85.60102811 136 77 C150.7102919 72.46045775 165.46040627 68.09176884 180.27856445 63.91772461 C183.38534097 63.04196713 186.4905487 62.16078658 189.59570312 61.27929688 C191.58063942 60.71843229 193.56566198 60.15787288 195.55078125 59.59765625 C196.47450027 59.3352565 197.3982193 59.07285675 198.34992981 58.80250549 C199.19649643 58.56482956 200.04306305 58.32715363 200.9152832 58.08227539 C201.65865433 57.87244522 202.40202545 57.66261505 203.16792297 57.44642639 C205 57 205 57 207 57 C207.21934204 58.18758911 207.21934204 58.18758911 207.44311523 59.39916992 C208.10753222 62.99534989 208.77251024 66.5914259 209.4375 70.1875 C209.78264648 72.05631836 209.78264648 72.05631836 210.13476562 73.96289062 C210.35712891 75.16494141 210.57949219 76.36699219 210.80859375 77.60546875 C211.01282959 78.71043701 211.21706543 79.81540527 211.42749023 80.95385742 C211.93237259 83.64017602 212.45724724 86.3211119 213 89 C216.5064231 90.1688077 219.80098834 90.29755677 223.45703125 90.46484375 C224.97852092 90.54351737 226.50000512 90.62229708 228.02148438 90.70117188 C230.3992339 90.81948842 232.77705719 90.93580451 235.1550293 91.04956055 C245.21770788 91.53781387 255.04730704 92.35642682 265 94 C263.85992783 104.81947327 262.03851233 115.32814912 259.67700195 125.95288086 C258.23132795 132.73626194 257.707375 139.06855219 258 146 C259.01578125 146.50789062 260.0315625 147.01578125 261.078125 147.5390625 C269.38541667 151.69270833 277.69270833 155.84635417 286 160 C281.80298051 167.77652 277.4821394 175.47298184 273.0625 183.125 C272.41933838 184.23939453 271.77617676 185.35378906 271.11352539 186.50195312 C264.75532979 197.49384128 258.22567312 208.38107663 251.65966797 219.25 C249.09784157 223.49483856 246.54854789 227.74717984 244 232 C237.69622553 229.25176045 237.69622553 229.25176045 234.96630859 228.04858398 C231.08606885 226.3394408 227.19772912 224.65971569 223.28125 223.03515625 C215.3949455 219.71907102 208.79100472 216.50428199 202.28515625 210.82421875 C190.77256062 201.6338219 175.11803233 200.70536155 161 202 C152.84219786 203.61322829 145.78168253 207.26779029 139 212 C138.31292969 212.47824219 137.62585938 212.95648438 136.91796875 213.44921875 C127.08087651 221.15203062 120.05535529 233.77748722 118 246 C116.40558386 262.32116619 119.78099574 276.94553967 129.6875 290.1875 C137.14046417 299.09197779 147.09056941 304.36352314 158 308 C158 308.66 158 309.32 158 310 C123.84688464 323.36534547 123.84688464 323.36534547 112 324 C112.99281767 322.00100837 113.9947869 320.00989505 115.03515625 318.03515625 C118.2738668 311.81633941 119.92958228 306.11830817 119 299 C117.25238952 293.57606904 114.68482647 289.34283119 111 285 C111 284.34 111 283.68 111 283 C110.44441406 282.73960937 109.88882812 282.47921875 109.31640625 282.2109375 C106.71816128 280.85266441 104.36792859 279.26437598 101.9375 277.625 C85.43511084 267.06961544 63.80428261 265.15240085 44.79296875 268.875 C35.43795983 271.10468623 25.19800447 274.74197238 18.30859375 281.7109375 C17 283 17 283 15 283 C14.62875 283.804375 14.62875 283.804375 14.25 284.625 C13 287 13 287 11 289.875 C7.48501665 295.36716148 6.23041965 300.50000595 7 307 C8.34221172 312.77053068 10.60454151 317.19952421 14 322 C14 322.66 14 323.32 14 324 C-2.13223343 321.97547929 -17.12584522 316.34961929 -32 310 C-32 309.34 -32 308.68 -32 308 C-30.96101562 307.5875 -29.92203125 307.175 -28.8515625 306.75 C-14.38159758 300.83552346 -2.86924918 293.28890607 3.5703125 278.359375 C9.18297391 263.02879128 10.10020791 247.43993018 3.78125 232.02734375 C-3.24027385 218.15983415 -14.23603743 209.38915757 -28.515625 203.7265625 C-42.36659737 199.67580643 -58.02484123 200.81348583 -70.7421875 207.42578125 C-74.35226985 209.49863269 -77.54233647 211.5924223 -80.65917969 214.36816406 C-84.08732532 217.23592657 -87.7309528 218.98700138 -91.8046875 220.76953125 C-92.5286673 221.09539719 -93.25264709 221.42126312 -93.99856567 221.75700378 C-96.28680755 222.78450416 -98.58067501 223.79866682 -100.875 224.8125 C-102.43789257 225.51149269 -104.00039682 226.21135434 -105.5625 226.91210938 C-109.37058589 228.61814815 -113.18377092 230.31226015 -117 232 C-119.55934356 229.66759564 -121.17748484 227.22665358 -122.8984375 224.23046875 C-123.45345947 223.27060059 -124.00848145 222.31073242 -124.58032227 221.32177734 C-125.17256592 220.28746582 -125.76480957 219.2531543 -126.375 218.1875 C-127.6413606 215.99576634 -128.90830008 213.80436707 -130.17578125 211.61328125 C-130.81596191 210.5042041 -131.45614258 209.39512695 -132.11572266 208.25244141 C-134.90222389 203.44267599 -137.72924972 198.65733182 -140.5625 193.875 C-141.08465088 192.99271729 -141.60680176 192.11043457 -142.14477539 191.20141602 C-143.20762128 189.40562926 -144.27069226 187.60997571 -145.33398438 185.81445312 C-148.3300038 180.75318233 -151.32088268 175.68887357 -154.3125 170.625 C-155.41273945 168.76300845 -156.51299783 166.90102808 -157.61328125 165.0390625 C-158.40885417 163.69270833 -159.20442708 162.34635417 -160 161 C-157.47530483 158.08164921 -154.70508578 156.71864456 -151.23828125 155.08203125 C-150.12001953 154.55029297 -149.00175781 154.01855469 -147.84960938 153.47070312 C-146.09874023 152.64989258 -146.09874023 152.64989258 -144.3125 151.8125 C-143.13365234 151.25369141 -141.95480469 150.69488281 -140.74023438 150.11914062 C-137.82947402 148.7403594 -134.9160376 147.3675757 -132 146 C-131.27651731 135.75353292 -133.47759329 126.09936252 -135.5 116.125 C-136.00310587 113.61188248 -136.50315052 111.09823695 -136.9979248 108.58346558 C-137.30423452 107.02977962 -137.61557482 105.47707413 -137.93273926 103.92556763 C-138.67086807 100.21301734 -139.06702762 96.77712881 -139 93 C-138.11130219 92.94695457 -138.11130219 92.94695457 -137.20465088 92.89283752 C-131.04012618 92.52414321 -124.87593608 92.15019642 -118.71191406 91.77319336 C-116.41121455 91.63317194 -114.11043302 91.4944915 -111.80957031 91.35717773 C-108.50303037 91.15961269 -105.19681506 90.95723238 -101.890625 90.75390625 C-100.86132874 90.6934462 -99.83203247 90.63298615 -98.77154541 90.57069397 C-97.81085144 90.51070724 -96.85015747 90.45072052 -95.86035156 90.38891602 C-95.01651917 90.33784195 -94.17268677 90.28676788 -93.30328369 90.23414612 C-91.11507188 90.01169792 -89.11477392 89.59307039 -87 89 C-86.78065796 87.85785034 -86.78065796 87.85785034 -86.55688477 86.69262695 C-85.89228578 83.23254697 -85.22739589 79.77252294 -84.5625 76.3125 C-84.33240234 75.11431641 -84.10230469 73.91613281 -83.86523438 72.68164062 C-83.64287109 71.52470703 -83.42050781 70.36777344 -83.19140625 69.17578125 C-82.88505249 67.58117065 -82.88505249 67.58117065 -82.57250977 65.9543457 C-82.05829152 63.30080413 -81.53337702 60.64974848 -81 58 C-75.12200831 57.52314306 -70.25963456 59.27587061 -64.75 61.0625 C-55.05839841 64.11592183 -45.31860029 66.86629125 -35.48535156 69.42602539 C-29.47157009 71.0076094 -23.52664356 72.74117645 -17.59741211 74.61083984 C-16.86334892 74.84131516 -16.12928574 75.07179047 -15.37297821 75.30924988 C-13.58166938 75.87182775 -11.79078978 76.43577205 -10 77 C-9.97716446 77.90788773 -9.95432892 78.81577545 -9.93080139 79.75117493 C-9.71495277 88.30044521 -9.49470965 96.84958848 -9.26950932 105.39861774 C-9.15388284 109.79392597 -9.03996581 114.18926474 -8.92993164 118.5847168 C-8.82371228 122.82528331 -8.71303373 127.06571196 -8.59924126 131.30608177 C-8.55658027 132.92518176 -8.5155357 134.54432517 -8.4761219 136.16350746 C-8.4207123 138.42855793 -8.3595963 140.69338696 -8.29711914 142.95825195 C-8.26380997 144.24842728 -8.23050079 145.5386026 -8.19618225 146.86787415 C-8.13245379 150.02981237 -8.13245379 150.02981237 -7 153 C-3.59679066 153.67673447 -3.59679066 153.67673447 0 154 C2.15442402 152.25259548 2.15442402 152.25259548 2.23399353 150.19148445 C2.22630447 149.46105368 2.21861542 148.7306229 2.21069336 147.97805786 C2.20447716 146.73582112 2.20447716 146.73582112 2.19813538 145.46848869 C2.18302414 144.56768137 2.1679129 143.66687405 2.15234375 142.73876953 C2.13988869 141.32960361 2.13988869 141.32960361 2.12718201 139.89196968 C2.09688229 136.9276788 2.05069705 133.96400728 2 131 C1.97888153 129.65377689 1.97888153 129.65377689 1.95733643 128.28035736 C1.86962251 122.87658243 1.75542173 117.47365565 1.62960815 112.07064438 C1.55992038 109.06855993 1.49357052 106.0664161 1.42797852 103.0642395 C1.24128053 94.54353865 1.04918153 86.02296316 0.85449219 77.50244141 C0.26599682 51.66385574 -0.16828183 25.8458243 0 0 Z " fill="#7B34C0" transform="translate(193,82)"/>
<path d="M0 0 C28.42713936 18.43724026 49.25649115 45.71616689 56.55151367 79.04956055 C57.30206554 82.69945758 57.99367159 86.35512163 58.6484375 90.0234375 C58.86757812 89.46914062 59.08671875 88.91484375 59.3125 88.34375 C59.78816406 87.25707031 59.78816406 87.25707031 60.2734375 86.1484375 C60.72589844 85.06949219 60.72589844 85.06949219 61.1875 83.96875 C63.2300709 81.24896309 65.43027186 80.86104226 68.6484375 80.0234375 C68.71653666 67.45062949 68.51548618 54.90304367 68.1484375 42.3359375 C68.00601539 37.42810983 67.86811006 32.52057203 67.76171875 27.61181641 C67.69658774 24.61081008 67.58652502 21.61678936 67.44140625 18.61865234 C67.39518114 17.26792581 67.34957287 15.91717797 67.3046875 14.56640625 C67.22444336 12.80913208 67.22444336 12.80913208 67.14257812 11.01635742 C67.6484375 8.0234375 67.6484375 8.0234375 69.79492188 5.55200195 C72.6484375 4.0234375 72.6484375 4.0234375 75.7512207 3.90771484 C79.70182963 5.42910043 80.26940672 7.05295875 82.00390625 10.875 C82.29049606 11.49307526 82.57708588 12.11115051 82.87236023 12.74795532 C83.82538994 14.82851562 84.73930666 16.92334937 85.6484375 19.0234375 C85.97217346 19.75864624 86.29590942 20.49385498 86.62945557 21.25134277 C89.13257452 26.94233462 91.55269038 32.66679991 93.9609375 38.3984375 C94.70921383 40.17006561 95.45783312 41.94154889 96.20678711 43.71289062 C101.73365255 56.79689861 107.22331891 69.8968982 112.6484375 83.0234375 C116.92765992 79.52118531 120.86285398 75.84877741 124.71484375 71.87890625 C126.0615918 70.49348633 126.0615918 70.49348633 127.43554688 69.08007812 C128.83059773 67.63790381 130.22555154 66.19556761 131.6081543 64.74145508 C132.96525789 63.31760478 134.33987192 61.91050935 135.71484375 60.50390625 C136.51865479 59.66754639 137.32246582 58.83118652 138.15063477 57.96948242 C141.10564202 55.66722821 142.91529236 55.08457013 146.6484375 55.0234375 C148.59765625 56.07250977 148.59765625 56.07250977 150.3359375 57.77734375 C151.35107422 58.75018311 151.35107422 58.75018311 152.38671875 59.74267578 C153.13308594 60.49532715 153.87945312 61.24797852 154.6484375 62.0234375 C155.50824219 62.86503418 156.36804688 63.70663086 157.25390625 64.57373047 C160.07272929 67.34931698 162.86389402 70.15109735 165.6484375 72.9609375 C166.62346136 73.9409906 167.5987203 74.9208099 168.57421875 75.90039062 C170.93460368 78.27246063 173.29260655 80.6468461 175.6484375 83.0234375 C177.50044923 80.24541991 178.73791106 77.70057518 180.0546875 74.64453125 C180.78667358 72.95046143 180.78667358 72.95046143 181.53344727 71.22216797 C181.79553986 70.6116156 182.05763245 70.00106323 182.32766724 69.37200928 C183.16160101 67.43028773 184.00018011 65.49062525 184.83959961 63.55126953 C187.97938024 56.285822 191.08331378 49.00586848 194.1567688 41.71211243 C195.77020774 37.88543067 197.39062336 34.06171816 199.01123047 30.23806763 C199.80931873 28.34904355 200.60377105 26.4584791 201.39453125 24.56637573 C202.51344258 21.88944749 203.64420157 19.21780418 204.77734375 16.546875 C205.10920181 15.74394516 205.44105988 14.94101532 205.78297424 14.11375427 C207.51647482 10.06099143 209.02337868 6.74461503 212.6484375 4.0234375 C215.75205923 4.08677672 217.74762839 4.40116805 220.31835938 6.17700195 C222.31100037 8.94321778 221.95365512 11.1268399 221.8671875 14.50390625 C221.84827454 15.48716133 221.84827454 15.48716133 221.82897949 16.49028015 C221.78337442 18.66860526 221.71595906 20.84569024 221.6484375 23.0234375 C221.61197685 24.55416871 221.57684383 26.08493205 221.54296875 27.61572266 C221.41022404 33.35344976 221.24323883 39.09010538 221.07568359 44.8269043 C220.73650937 56.56302461 220.58484338 68.28237253 220.6484375 80.0234375 C221.58945312 80.26835938 222.53046875 80.51328125 223.5 80.765625 C226.6484375 82.0234375 226.6484375 82.0234375 228.109375 83.96875 C228.41101563 84.68804687 228.71265625 85.40734375 229.0234375 86.1484375 C229.34054687 86.87289062 229.65765625 87.59734375 229.984375 88.34375 C230.20351563 88.89804688 230.42265625 89.45234375 230.6484375 90.0234375 C230.85597656 88.86070313 231.06351562 87.69796875 231.27734375 86.5 C237.68515492 52.50638276 255.90067053 22.69061949 284.6484375 3.0234375 C304.55415664 -10.15812468 332.31886781 -21.09907412 356.6484375 -17.9765625 C361.24038682 -16.91891582 364.84119624 -14.66636558 367.69921875 -10.83984375 C369.98613634 -6.35070921 370.37123417 -1.48310299 368.98046875 3.33984375 C367.0614971 7.59291152 365.10956888 10.2597344 360.6484375 12.0234375 C355.00252982 13.48719134 351.70385916 12.92562401 346.6484375 10.0234375 C341.74180973 5.43680719 341.26239826 2.36552157 340.6484375 -3.9765625 C307.63034834 3.59916151 279.68639538 17.85562463 260.80517578 47.15673828 C250.37930483 63.98160306 245.12517542 82.3675465 243.6484375 102.0234375 C244.69515625 101.683125 245.741875 101.3428125 246.8203125 100.9921875 C256.99049756 97.71537017 267.21105271 94.60358889 277.4609375 91.5859375 C278.67040039 91.21984375 279.87986328 90.85375 281.12597656 90.4765625 C282.27420898 90.14269531 283.42244141 89.80882813 284.60546875 89.46484375 C285.62616455 89.16263916 286.64686035 88.86043457 287.69848633 88.54907227 C291.11212096 87.94081642 293.34002224 87.96068563 296.6484375 89.0234375 C299.43667166 92.42299979 300.23340163 95.82307857 301 100.09375 C301.21140625 101.23714844 301.4228125 102.38054687 301.640625 103.55859375 C301.84945313 104.74324219 302.05828125 105.92789063 302.2734375 107.1484375 C302.70153073 109.50549844 303.1311468 111.86228347 303.5625 114.21875 C303.7476416 115.26047363 303.9327832 116.30219727 304.12353516 117.37548828 C304.60864489 120.1135999 304.60864489 120.1135999 305.6484375 123.0234375 C306.93943359 123.10907959 308.23042969 123.19472168 309.56054688 123.28295898 C314.37645973 123.60305372 319.19216383 123.9262012 324.0078125 124.25024414 C326.08718435 124.3897418 328.166611 124.5284252 330.24609375 124.66625977 C333.24494161 124.8651776 336.24357646 125.06707839 339.2421875 125.26953125 C340.16334351 125.3299913 341.08449951 125.39045135 342.03356934 125.45274353 C344.57347767 125.62582004 347.11054932 125.82324188 349.6484375 126.0234375 C350.41389893 126.06598663 351.17936035 126.10853577 351.96801758 126.15237427 C355.1990001 126.40590463 357.19219579 126.61633892 359.65209961 128.8112793 C363.72027873 137.84381325 357.430134 154.27001223 355.5859375 163.7109375 C355.2045849 165.68414953 354.82372129 167.65745613 354.44335938 169.63085938 C353.5173574 174.4294952 352.58473153 179.22679968 351.6484375 184.0234375 C352.53450684 184.30719238 353.42057617 184.59094727 354.33349609 184.88330078 C359.15127812 186.54032259 363.67361174 188.71923828 368.2734375 190.8984375 C369.21445312 191.33285156 370.15546875 191.76726562 371.125 192.21484375 C372.0325 192.64410156 372.94 193.07335937 373.875 193.515625 C374.69564941 193.90089355 375.51629883 194.28616211 376.36181641 194.68310547 C379.0537054 196.26099043 380.81540741 197.47292111 382.6484375 200.0234375 C382.61175494 205.46282305 380.77486614 209.14000932 378.0078125 213.734375 C377.64375305 214.34681061 377.2796936 214.95924622 376.90460205 215.59024048 C375.74669088 217.53302682 374.57320285 219.46580583 373.3984375 221.3984375 C372.62520143 222.68684008 371.85305649 223.97589817 371.08203125 225.265625 C369.96085249 227.14092352 368.83902768 229.01577274 367.71252441 230.88787842 C364.91569522 235.54189503 362.22990202 240.24692643 359.6484375 245.0234375 C360.29167969 245.54550781 360.93492187 246.06757813 361.59765625 246.60546875 C367.38078869 251.31612299 373.10560473 256.08525304 378.78735352 260.91723633 C383.27506817 264.7265989 387.82549241 268.45120882 392.40625 272.1484375 C393.14617187 272.7671875 393.88609375 273.3859375 394.6484375 274.0234375 C395.54175781 274.673125 395.54175781 274.673125 396.453125 275.3359375 C397.6484375 277.0234375 397.6484375 277.0234375 398.38671875 280.13671875 C397.23876301 286.18018944 393.23822721 289.13772818 388.8359375 293.2109375 C387.1817399 294.78581549 385.52932666 296.36257034 383.87890625 297.94140625 C383.14051514 298.63000732 382.40212402 299.3186084 381.64135742 300.02807617 C379.7090538 301.96274694 378.03623838 303.66345394 376.6484375 306.0234375 C376.8743413 309.63094029 378.96222063 312.57229137 380.74609375 315.64453125 C381.3795874 316.73918701 382.01308105 317.83384277 382.66577148 318.96166992 C383.0003537 319.53404388 383.33493591 320.10641785 383.67965698 320.69613647 C384.71504139 322.46796038 385.74298383 324.24393706 386.76977539 326.02075195 C390.7892156 332.95545763 394.90989551 339.78493959 399.42578125 346.41015625 C401.04425932 349.86945921 401.13593436 352.24857241 400.6484375 356.0234375 C397.70831225 359.68942136 394.4672 361.23505315 390.1875 363.046875 C389.56048187 363.31553375 388.93346375 363.5841925 388.28744507 363.86099243 C386.28650297 364.71590127 384.28023968 365.55739043 382.2734375 366.3984375 C380.96446536 366.95483983 379.65586801 367.51212472 378.34765625 368.0703125 C375.75112479 369.17658888 373.1524646 370.27759978 370.55175781 371.37402344 C364.57235769 373.89660052 358.61126216 376.46198319 352.6484375 379.0234375 C352.7817749 380.17481201 352.9151123 381.32618652 353.05249023 382.51245117 C353.30666949 384.70770534 353.55945513 386.90307131 353.80883789 389.09887695 C354.24233891 392.85291948 354.71959309 396.5870488 355.33203125 400.31640625 C355.48986084 401.31788696 355.48986084 401.31788696 355.65087891 402.33959961 C355.94580057 404.17902833 356.25950805 406.01541599 356.57421875 407.8515625 C356.6616333 411.58738413 355.97883234 413.14069173 353.6484375 416.0234375 C350.27848073 417.14675642 347.38909379 417.34193515 343.84130859 417.58007812 C343.15307007 417.62738571 342.46483154 417.6746933 341.7557373 417.72343445 C339.47801338 417.87914498 337.19995939 418.02935111 334.921875 418.1796875 C333.33343844 418.28756504 331.74502932 418.39584737 330.15664673 418.5045166 C325.96817758 418.79023068 321.77942581 419.0715493 317.59057617 419.35162354 C310.90762762 419.79890124 304.22504685 420.25156672 297.54262161 420.70658875 C295.21809898 420.8640562 292.89341264 421.01890275 290.56869507 421.17346191 C276.254487 421.56927528 276.254487 421.56927528 263.2109375 426.5859375 C210.55035738 458.5084377 141.46665418 462.62362835 82.6484375 449.0234375 C63.418617 444.09542846 43.56834597 437.40824554 26.66143799 426.77359009 C20.89847366 423.22898414 16.16710065 422.17238354 9.46875 421.83203125 C7.99536667 421.7302079 7.99536667 421.7302079 6.49221802 421.62632751 C3.21195486 421.40459957 -0.06935538 421.21405623 -3.3515625 421.0234375 C-5.75826795 420.86804763 -8.16484131 420.71060055 -10.57128906 420.55126953 C-15.62922872 420.21958581 -20.68744 419.89287998 -25.74609375 419.57226562 C-27.01533691 419.49177979 -28.28458008 419.41129395 -29.59228516 419.32836914 C-32.21379632 419.16475125 -34.83555202 419.00501153 -37.45751953 418.84887695 C-41.30067271 418.61836357 -45.14245404 418.37120229 -48.984375 418.12109375 C-50.15509552 418.0553566 -51.32581604 417.98961945 -52.53201294 417.92189026 C-54.16189651 417.81178871 -54.16189651 417.81178871 -55.82470703 417.69946289 C-56.77459503 417.64109756 -57.72448303 417.58273224 -58.70315552 417.52259827 C-61.82339296 416.93450885 -63.80579812 415.90690807 -66.3515625 414.0234375 C-67.62593644 409.85308763 -67.31574348 406.35940064 -66.57421875 402.109375 C-66.39052734 401.01882813 -66.20683594 399.92828125 -66.01757812 398.8046875 C-65.81841797 397.680625 -65.61925781 396.5565625 -65.4140625 395.3984375 C-65.02725027 393.15671381 -64.64302524 390.91454175 -64.26171875 388.671875 C-64.08777588 387.68364746 -63.91383301 386.69541992 -63.73461914 385.67724609 C-63.25632139 382.81049434 -63.25632139 382.81049434 -63.3515625 379.0234375 C-64.25285889 378.63075684 -65.15415527 378.23807617 -66.08276367 377.83349609 C-69.4922322 376.34759764 -72.90088792 374.85984209 -76.30932617 373.37158203 C-77.77232824 372.73307045 -79.23553757 372.09503353 -80.69897461 371.45751953 C-85.58942501 369.32686018 -90.47300206 367.1811739 -95.3515625 365.0234375 C-96.32032318 364.5973822 -96.32032318 364.5973822 -97.30865479 364.16271973 C-99.11406846 363.36603012 -100.91458832 362.55827795 -102.71484375 361.75 C-103.73489502 361.29447754 -104.75494629 360.83895508 -105.8059082 360.36962891 C-108.18415155 359.11196766 -109.70894853 358.13522436 -111.3515625 356.0234375 C-112.6170403 349.031897 -109.10099673 344.3943984 -105.5390625 338.7109375 C-104.66677002 337.2724646 -104.66677002 337.2724646 -103.77685547 335.80493164 C-100.90738604 331.08734918 -97.97066305 326.41467337 -95.00390625 321.7578125 C-94.49255127 320.94610596 -93.98119629 320.13439941 -93.4543457 319.2980957 C-92.48931482 317.77187058 -91.51050201 316.25424922 -90.51635742 314.74682617 C-90.08299072 314.06338135 -89.64962402 313.37993652 -89.203125 312.67578125 C-88.81979004 312.08788818 -88.43645508 311.49999512 -88.04150391 310.89428711 C-87.04294456 308.18658709 -87.40311394 306.73584001 -88.3515625 304.0234375 C-90.30259057 301.63519735 -90.30259057 301.63519735 -92.82421875 299.40625 C-93.72333984 298.55160156 -94.62246094 297.69695312 -95.54882812 296.81640625 C-97.45719011 295.03943115 -99.37126176 293.26856799 -101.29101562 291.50390625 C-102.63776367 290.21806641 -102.63776367 290.21806641 -104.01171875 288.90625 C-104.84324463 288.13684082 -105.67477051 287.36743164 -106.53149414 286.57470703 C-108.94177072 283.19611678 -108.84751755 281.08649914 -108.3515625 277.0234375 C-106.59490763 274.84677963 -105.16165644 273.37548498 -103.0390625 271.6484375 C-102.49290283 271.17784912 -101.94674316 270.70726074 -101.3840332 270.22241211 C-99.72329199 268.8012863 -98.04099617 267.41024834 -96.3515625 266.0234375 C-95.454375 265.26933594 -94.5571875 264.51523437 -93.6328125 263.73828125 C-90.89684054 261.46791898 -88.12988369 259.24178698 -85.3515625 257.0234375 C-84.0102657 255.94810494 -82.66913021 254.87257116 -81.328125 253.796875 C-77.67323564 250.86740962 -74.0134973 247.94408995 -70.3515625 245.0234375 C-71.37148037 243.23124954 -72.39262004 241.43975697 -73.4140625 239.6484375 C-73.75042725 239.05281006 -74.08679199 238.45718262 -74.43334961 237.84350586 C-76.97232326 233.36908955 -79.59487964 228.95265518 -82.2578125 224.55078125 C-83.29717055 222.81181302 -84.33394731 221.07134056 -85.36935425 219.33001709 C-86.06320328 218.17167654 -86.76379898 217.01734944 -87.47122192 215.86724854 C-88.48136896 214.22289215 -89.46571476 212.56277287 -90.44921875 210.90234375 C-91.03195557 209.9388501 -91.61469238 208.97535645 -92.21508789 207.98266602 C-93.6657129 204.20543171 -93.39468182 201.90185006 -92.3515625 198.0234375 C-89.82026804 196.25184273 -87.82807238 195.14034109 -85.0390625 193.9609375 C-83.58185083 193.29336243 -82.12482137 192.62538951 -80.66796875 191.95703125 C-79.94109863 191.63460449 -79.21422852 191.31217773 -78.46533203 190.97998047 C-75.41220149 189.59834897 -72.45411074 188.06105354 -69.4765625 186.5234375 C-64.59624335 184.0234375 -64.59624335 184.0234375 -62.3515625 184.0234375 C-62.52069153 183.16019363 -62.52069153 183.16019363 -62.6932373 182.2795105 C-63.86783335 176.27846113 -65.03456245 170.27592016 -66.19677734 164.27246094 C-66.63129192 162.03346338 -67.06779706 159.79485115 -67.50634766 157.55664062 C-68.13710432 154.3356338 -68.76064133 151.11329977 -69.3828125 147.890625 C-69.57967651 146.89352509 -69.77654053 145.89642517 -69.97937012 144.86911011 C-72.20506844 133.25161672 -72.20506844 133.25161672 -70.46875 128.71875 C-66.92454189 125.88076786 -62.8955465 126.14746764 -58.4765625 125.8984375 C-56.98854126 125.79233154 -56.98854126 125.79233154 -55.47045898 125.68408203 C-53.29223204 125.53111242 -51.11338049 125.38685956 -48.93408203 125.25 C-45.08090516 125.00632083 -41.22990763 124.73636455 -37.37890625 124.4609375 C-30.37105468 123.96251868 -23.36181172 123.48686348 -16.3515625 123.0234375 C-16.21580811 122.3435376 -16.08005371 121.6636377 -15.94018555 120.96313477 C-15.31235227 117.83619027 -14.67576837 114.71108693 -14.0390625 111.5859375 C-13.82572266 110.51666016 -13.61238281 109.44738281 -13.39257812 108.34570312 C-9.84207128 91.01711002 -9.84207128 91.01711002 -5.3515625 88.0234375 C0.43917225 88.41331785 5.8949089 90.09979922 11.44921875 91.7109375 C12.36680466 91.97350342 13.28439056 92.23606934 14.2297821 92.5065918 C16.15747746 93.05917707 18.08453693 93.613985 20.01098633 94.17089844 C22.967461 95.0253228 25.92591517 95.87259378 28.88476562 96.71875 C30.76053601 97.25739707 32.63619123 97.79644541 34.51171875 98.3359375 C35.39813553 98.59012451 36.28455231 98.84431152 37.1978302 99.10620117 C38.01595688 99.34314697 38.83408356 99.58009277 39.67700195 99.82421875 C40.39757278 100.03216064 41.11814362 100.24010254 41.86054993 100.4543457 C43.6484375 101.0234375 43.6484375 101.0234375 45.6484375 102.0234375 C42.360444 72.77760061 33.07731766 49.72212008 12.6484375 28.0234375 C12.09800781 27.40855469 11.54757813 26.79367188 10.98046875 26.16015625 C-5.00342433 8.99227109 -29.02269115 0.65488974 -51.3515625 -3.9765625 C-51.3928125 -2.8009375 -51.4340625 -1.6253125 -51.4765625 -0.4140625 C-52.04088387 3.87935548 -53.50047151 6.48916556 -56.484375 9.6015625 C-59.8478481 12.16286838 -63.15769195 12.98086013 -67.3515625 13.0234375 C-71.93691041 12.2956045 -74.62991599 10.80059528 -77.7890625 7.3984375 C-80.41867271 1.71847946 -81.03696874 -2.77604773 -79.1640625 -8.7890625 C-76.84555272 -12.86644178 -75.02372654 -15.16087272 -70.7890625 -17.2265625 C-47.58884529 -22.28842807 -19.74612517 -11.64515074 0 0 Z M-67.3515625 -3.9765625 C-67.3515625 -2.9865625 -67.3515625 -1.9965625 -67.3515625 -0.9765625 C-66.3615625 -0.9765625 -65.3715625 -0.9765625 -64.3515625 -0.9765625 C-64.6815625 -1.9665625 -65.0115625 -2.9565625 -65.3515625 -3.9765625 C-66.0115625 -3.9765625 -66.6715625 -3.9765625 -67.3515625 -3.9765625 Z M354.6484375 -3.9765625 C354.3184375 -2.9865625 353.9884375 -1.9965625 353.6484375 -0.9765625 C354.6384375 -0.9765625 355.6284375 -0.9765625 356.6484375 -0.9765625 C356.6484375 -1.9665625 356.6484375 -2.9565625 356.6484375 -3.9765625 C355.9884375 -3.9765625 355.3284375 -3.9765625 354.6484375 -3.9765625 Z M81.6484375 45.0234375 C81.47325297 71.92942374 81.96095243 98.80640378 82.57556152 125.70458984 C82.76935545 134.19776291 82.95850936 142.6910344 83.14407349 151.18439102 C83.20846268 154.0913936 83.27581566 156.99831563 83.34350586 159.90524292 C83.46558623 165.27770212 83.56414741 170.65026057 83.6484375 176.0234375 C83.6650946 176.99729652 83.68175171 177.97115555 83.69891357 178.97452545 C83.74443504 181.90375005 83.77488893 184.83274984 83.80078125 187.76220703 C83.81589249 188.66301435 83.83100372 189.56382168 83.84657288 190.49192619 C83.85278908 191.73416293 83.85278908 191.73416293 83.85913086 193.00149536 C83.86681992 193.73192614 83.87450897 194.46235691 83.88243103 195.21492195 C83.6484375 197.0234375 83.6484375 197.0234375 81.6484375 199.0234375 C78.0234375 198.6484375 78.0234375 198.6484375 74.6484375 198.0234375 C73.48441501 194.53137003 73.44645799 191.66676438 73.35131836 187.98168945 C73.33166519 187.26924072 73.31201202 186.55679199 73.29176331 185.82275391 C73.22792063 183.46916854 73.17057581 181.11547187 73.11328125 178.76171875 C73.0702698 177.12931783 73.02685322 175.49692753 72.98304749 173.86454773 C72.86886313 169.56893524 72.76018802 165.27320029 72.65264893 160.97741699 C72.54193373 156.59358161 72.42602355 152.20988396 72.31054688 147.82617188 C72.08475118 139.22538687 71.86477386 130.62446561 71.6484375 122.0234375 C59.54944977 118.2941329 47.46752767 114.5790086 35.2109375 111.3984375 C26.64844127 109.14545143 18.20433256 106.71763331 9.8203125 103.87109375 C6.60175009 103.01096069 3.95948626 102.96082879 0.6484375 103.0234375 C0.50220947 103.78487061 0.35598145 104.54630371 0.20532227 105.33081055 C-0.45927672 108.79089053 -1.12416661 112.25091456 -1.7890625 115.7109375 C-2.01916016 116.90912109 -2.24925781 118.10730469 -2.48632812 119.34179688 C-2.70869141 120.49873047 -2.93105469 121.65566406 -3.16015625 122.84765625 C-3.46651001 124.44226685 -3.46651001 124.44226685 -3.77905273 126.0690918 C-4.29327098 128.72263337 -4.81818548 131.37368902 -5.3515625 134.0234375 C-17.00570882 135.66104599 -28.60103004 136.56566818 -40.3515625 137.1484375 C-42.01304847 137.23514914 -43.6745071 137.32238626 -45.3359375 137.41015625 C-49.34085819 137.62061143 -53.34607565 137.82406067 -57.3515625 138.0234375 C-56.79102788 148.59721466 -54.6988234 158.65652453 -52.43554688 168.97851562 C-50.86212724 176.44940161 -49.93226258 183.38583498 -50.3515625 191.0234375 C-51.16423584 191.40677246 -51.97690918 191.79010742 -52.81420898 192.18505859 C-55.82261778 193.6077013 -58.82829262 195.0358231 -61.83227539 196.46777344 C-63.13395309 197.08686207 -64.43668666 197.70373562 -65.74047852 198.31835938 C-67.61234819 199.2012496 -69.48029911 200.09198793 -71.34765625 200.984375 C-72.47357178 201.51853027 -73.5994873 202.05268555 -74.75952148 202.60302734 C-77.45808015 203.76192148 -77.45808015 203.76192148 -78.3515625 206.0234375 C-77.3703551 208.2318465 -77.3703551 208.2318465 -75.84375 210.6953125 C-75.2758374 211.65840332 -74.7079248 212.62149414 -74.12280273 213.61376953 C-73.49704346 214.65645996 -72.87128418 215.69915039 -72.2265625 216.7734375 C-71.58855713 217.85093262 -70.95055176 218.92842773 -70.29321289 220.03857422 C-68.96558333 222.27932827 -67.63455832 224.51807372 -66.30029297 226.75488281 C-63.97809524 230.64984438 -61.67494949 234.5558143 -59.37280273 238.46264648 C-57.78807601 241.15011044 -56.19934354 243.83516562 -54.609375 246.51953125 C-52.30824652 250.40505477 -50.01197937 254.2934029 -47.71875 258.18359375 C-47.12392822 259.19212402 -46.52910645 260.2006543 -45.91625977 261.23974609 C-44.77291146 263.17851561 -43.63014354 265.11762755 -42.48803711 267.05712891 C-41.9750708 267.92644043 -41.46210449 268.79575195 -40.93359375 269.69140625 C-40.48218018 270.45735107 -40.0307666 271.2232959 -39.56567383 272.01245117 C-38.54004293 273.71124902 -37.4523081 275.3723191 -36.3515625 277.0234375 C-36.1015625 279.5859375 -36.1015625 279.5859375 -36.3515625 282.0234375 C-38.3515625 284.0234375 -38.3515625 284.0234375 -41.26953125 284.3984375 C-44.3515625 284.0234375 -44.3515625 284.0234375 -46.15234375 282.3984375 C-46.65121094 281.6146875 -47.15007812 280.8309375 -47.6640625 280.0234375 C-48.24285156 279.12496094 -48.82164063 278.22648438 -49.41796875 277.30078125 C-52.11015999 272.73765307 -54.72656761 268.13307364 -57.2434082 263.47070312 C-59.00812393 260.23072449 -60.65960457 257.54081038 -63.3515625 255.0234375 C-64.30675781 255.85746094 -65.26195313 256.69148437 -66.24609375 257.55078125 C-84.6410224 273.5756354 -84.6410224 273.5756354 -93.3515625 280.0234375 C-91.84964791 283.58582579 -89.79440318 285.75059594 -87 288.39453125 C-86.14921875 289.21630859 -85.2984375 290.03808594 -84.421875 290.88476562 C-82.62285858 292.6042603 -80.81813791 294.31780639 -79.0078125 296.02539062 C-77.73550781 297.25999023 -77.73550781 297.25999023 -76.4375 298.51953125 C-75.2626001 299.63606079 -75.2626001 299.63606079 -74.06396484 300.77514648 C-72.3515625 303.0234375 -72.3515625 303.0234375 -71.91088867 305.46557617 C-72.4596872 308.65103996 -73.61887014 310.70172284 -75.31640625 313.453125 C-76.26374634 315.00749268 -76.26374634 315.00749268 -77.23022461 316.59326172 C-77.90964111 317.68396973 -78.58905762 318.77467773 -79.2890625 319.8984375 C-79.9704126 321.0136377 -80.6517627 322.12883789 -81.35375977 323.27783203 C-83.34321058 326.53252548 -85.3454548 329.77899171 -87.3515625 333.0234375 C-88.78079075 335.3424304 -90.20782577 337.66254064 -91.62524414 339.98876953 C-92.3806516 341.22829065 -93.14250504 342.46391483 -93.91186523 343.69482422 C-95.56392174 346.39774866 -96.3515625 347.78445402 -96.3515625 351.0234375 C-95.79001968 351.27177841 -95.22847687 351.52011932 -94.6499176 351.77598572 C-88.82551781 354.35235305 -83.00255094 356.93193761 -77.18041992 359.51342773 C-75.0050078 360.47747725 -72.82922696 361.4406952 -70.65307617 362.40307617 C-67.53207522 363.78347791 -64.412396 365.16682764 -61.29296875 366.55078125 C-60.31380997 366.98309555 -59.33465118 367.41540985 -58.32582092 367.86082458 C-57.42496262 368.26116409 -56.52410431 368.6615036 -55.59594727 369.07397461 C-54.79874771 369.42705185 -54.00154816 369.78012909 -53.18019104 370.14390564 C-51.3515625 371.0234375 -51.3515625 371.0234375 -50.3515625 372.0234375 C-50.07810518 378.08051711 -50.80243072 383.69390579 -51.8515625 389.6484375 C-52.75592443 394.83018693 -53.55684662 399.73737151 -53.3515625 405.0234375 C-36.27410883 406.4870454 -36.27410883 406.4870454 -19.1640625 407.4609375 C-9.73704847 407.87670031 -0.32890512 408.55316966 9.07974243 409.26370239 C10.82819232 409.39476668 12.57687387 409.52277783 14.32577515 409.64767456 C16.79996588 409.8253639 19.27300636 410.01466344 21.74609375 410.20703125 C22.87445145 410.28522095 22.87445145 410.28522095 24.02560425 410.36499023 C27.66437571 410.66120417 29.54687756 410.95573087 32.6484375 413.0234375 C33.0403125 413.80203125 33.4321875 414.580625 33.8359375 415.3828125 C36.42276107 419.15154684 39.55276489 420.41670994 43.6484375 422.2734375 C44.4744043 422.6540332 45.30037109 423.03462891 46.15136719 423.42675781 C61.36412884 430.21210595 77.3977674 435.34037969 93.6484375 438.9609375 C94.48149414 439.14817383 95.31455078 439.33541016 96.17285156 439.52832031 C111.66668985 442.71770218 127.38150853 443.37539842 143.15429688 443.33911133 C146.01471009 443.33594715 148.87408794 443.35955084 151.734375 443.38476562 C184.6738368 443.49605474 216.76471342 435.34843248 246.7109375 421.7734375 C247.70879272 421.33499512 247.70879272 421.33499512 248.72680664 420.88769531 C253.15863858 418.75890385 255.22041308 416.23900029 257.6484375 412.0234375 C259.74065928 409.93121572 264.11746418 410.50483569 267.01171875 410.3046875 C267.87290817 410.24188599 268.7340976 410.17908447 269.62138367 410.11437988 C271.46154406 409.98113949 273.30186859 409.85015038 275.14233398 409.72119141 C277.88369464 409.52885688 280.62447199 409.32956521 283.36523438 409.12890625 C293.14676571 408.42269309 302.92630114 407.8395015 312.7223053 407.37745667 C319.29670416 407.06020862 325.84474323 406.57449418 332.3984375 405.9609375 C333.40519531 405.87005859 334.41195313 405.77917969 335.44921875 405.68554688 C337.84930746 405.46839599 340.24901159 405.24777141 342.6484375 405.0234375 C341.97415254 397.88854061 341.08650176 390.82565852 340.05078125 383.734375 C339.62154779 379.77542566 339.58257621 376.00145916 339.6484375 372.0234375 C354.57512919 364.13088966 370.12974481 357.64312985 385.6484375 351.0234375 C384.96961888 347.37079834 383.40808533 344.60104864 381.55078125 341.40234375 C380.9172876 340.30752686 380.28379395 339.21270996 379.63110352 338.0847168 C378.94938656 336.91845408 378.26766447 335.75219436 377.5859375 334.5859375 C376.89929076 333.40101038 376.21301168 332.21587012 375.52709961 331.03051758 C371.47884769 324.05369684 367.33483862 317.16071647 362.87109375 310.44140625 C361.41729201 307.5663159 361.21366091 306.21257784 361.6484375 303.0234375 C363.57617188 300.52807617 363.57617188 300.52807617 366.2421875 297.94140625 C366.70830444 297.48236404 367.17442139 297.02332184 367.65466309 296.55036926 C369.14123844 295.09170841 370.64426058 293.65141885 372.1484375 292.2109375 C373.16129261 291.22316909 374.17302558 290.23424864 375.18359375 289.24414062 C377.65900995 286.82375267 380.14947919 284.41953848 382.6484375 282.0234375 C381.40989239 278.30780216 379.95826572 277.42885159 376.8984375 275.0234375 C375.90972656 274.23582031 374.92101562 273.44820312 373.90234375 272.63671875 C373.37398926 272.21600098 372.84563477 271.7952832 372.30126953 271.36181641 C368.88414242 268.59480151 365.5649903 265.70810875 362.24121094 262.83007812 C358.86586819 259.94178861 355.35844973 257.45949297 351.6484375 255.0234375 C351.17422363 255.83087402 350.70000977 256.63831055 350.21142578 257.47021484 C348.45082762 260.46465538 346.68752621 263.45746861 344.92236328 266.44921875 C344.15890214 267.74447454 343.39652467 269.0403697 342.63525391 270.33691406 C341.54093035 272.2002603 340.44273222 274.06127356 339.34375 275.921875 C338.68391113 277.04255371 338.02407227 278.16323242 337.34423828 279.31787109 C335.6484375 282.0234375 335.6484375 282.0234375 333.6484375 284.0234375 C330.6484375 284.2734375 330.6484375 284.2734375 327.6484375 284.0234375 C325.6484375 282.0234375 325.6484375 282.0234375 325.33325195 279.74975586 C325.72815293 276.33390825 326.90418526 274.33742477 328.69140625 271.40234375 C329.3464917 270.31332764 330.00157715 269.22431152 330.67651367 268.10229492 C331.39621006 266.93010728 332.11602077 265.75798983 332.8359375 264.5859375 C333.57186796 263.36959066 334.3066374 262.15254066 335.0402832 260.93481445 C336.52872602 258.46639092 338.02213433 256.00108727 339.51953125 253.53808594 C342.50348308 248.62237926 345.42070087 243.66761064 348.3359375 238.7109375 C351.65614698 233.07028035 354.99416763 227.44207943 358.37890625 221.83984375 C358.98839111 220.82510986 359.59787598 219.81037598 360.22583008 218.76489258 C361.40273578 216.80636677 362.58593791 214.85160753 363.77612305 212.90112305 C364.55983276 211.59268433 364.55983276 211.59268433 365.359375 210.2578125 C365.82649902 209.48663086 366.29362305 208.71544922 366.77490234 207.92089844 C367.06316895 207.29473633 367.35143555 206.66857422 367.6484375 206.0234375 C366.21043571 203.14743391 364.32163566 202.79259601 361.40625 201.4921875 C360.34019531 201.01136719 359.27414062 200.53054687 358.17578125 200.03515625 C357.05300781 199.53628906 355.93023437 199.03742188 354.7734375 198.5234375 C352.56668474 197.53613887 350.36090962 196.54665136 348.15625 195.5546875 C347.17285645 195.11705078 346.18946289 194.67941406 345.17626953 194.22851562 C342.6484375 193.0234375 342.6484375 193.0234375 339.6484375 191.0234375 C337.61846331 181.57762449 341.27164478 170.37003343 343.1484375 161.0859375 C343.65106458 158.56244114 344.15069918 156.03840803 344.6463623 153.51353455 C344.95340122 151.95335374 345.26480073 150.39402286 345.58117676 148.83570862 C346.25081716 145.46727208 346.6484375 142.47554839 346.6484375 139.0234375 C335.91904113 137.25160066 325.30781544 136.4798241 314.4609375 135.9609375 C312.08916206 135.84496475 309.71754021 135.72707795 307.34611511 135.60414124 C305.88613302 135.52864806 304.42593502 135.4571883 302.9655304 135.3903656 C299.96857703 135.23711086 297.51364678 134.97850726 294.6484375 134.0234375 C293.8347049 129.81534154 293.02266922 125.60691985 292.2109375 121.3984375 C291.86579102 119.61373047 291.86579102 119.61373047 291.51367188 117.79296875 C291.29130859 116.63925781 291.06894531 115.48554688 290.83984375 114.296875 C290.53348999 112.71011963 290.53348999 112.71011963 290.22094727 111.09130859 C289.65792009 108.07425123 289.14268677 105.05245108 288.6484375 102.0234375 C275.29773632 105.20505062 262.10745216 108.92860558 248.90722656 112.67895508 C245.23337658 113.72231465 241.55817387 114.76080663 237.8828125 115.79882812 C235.54679419 116.46065234 233.21085372 117.12275136 230.875 117.78515625 C229.22680771 118.25075203 229.22680771 118.25075203 227.5453186 118.72575378 C226.53601288 119.01307877 225.52670715 119.30040375 224.48681641 119.59643555 C223.5979776 119.8486235 222.70913879 120.10081146 221.79336548 120.36064148 C219.62703594 120.96613187 219.62703594 120.96613187 217.6484375 122.0234375 C217.61418419 123.38526909 217.61418419 123.38526909 217.57923889 124.77461243 C217.36339027 133.32388271 217.14314715 141.87302598 216.91794682 150.42205524 C216.80232034 154.81736347 216.68840331 159.21270224 216.57836914 163.6081543 C216.47214978 167.84872081 216.36147123 172.08914946 216.24767876 176.32951927 C216.20501777 177.94861926 216.1639732 179.56776267 216.1245594 181.18694496 C216.0691498 183.45199543 216.0080338 185.71682446 215.94555664 187.98168945 C215.91224747 189.27186478 215.87893829 190.5620401 215.84461975 191.89131165 C215.6484375 195.0234375 215.6484375 195.0234375 214.6484375 198.0234375 C211.2734375 198.6484375 211.2734375 198.6484375 207.6484375 199.0234375 C205.6484375 197.0234375 205.6484375 197.0234375 205.40551758 194.8265686 C205.40962646 193.89976288 205.41373535 192.97295715 205.41796875 192.01806641 C205.41917725 190.9422934 205.42038574 189.86652039 205.42163086 188.75814819 C205.43460205 187.55920929 205.44757324 186.36027039 205.4609375 185.125 C205.46810791 183.8521817 205.47527832 182.5793634 205.48266602 181.26797485 C205.62222701 161.35220634 206.21554172 141.43872384 206.72131348 121.52978516 C206.88933474 114.91059438 207.05350201 108.29132656 207.2109375 101.671875 C207.23275085 100.75634605 207.25456421 99.84081711 207.27703857 98.89754486 C207.69625929 80.93818716 207.76206716 62.98675737 207.6484375 45.0234375 C205.00089473 46.34720889 204.81654971 47.52903277 203.67504883 50.23706055 C203.28810349 51.14581436 202.90115814 52.05456818 202.50248718 52.99085999 C202.0827211 53.99547775 201.66295502 55.00009552 201.23046875 56.03515625 C200.78504227 57.08622055 200.33961578 58.13728485 199.88069153 59.22019958 C198.40138311 62.7145852 196.93131692 66.21278648 195.4609375 69.7109375 C194.43284863 72.14271977 193.40403037 74.57419379 192.37451172 77.00537109 C190.2209229 82.09224081 188.07099043 87.18064013 185.92333984 92.27001953 C181.21798482 103.41818556 176.48409033 114.55418816 171.74520874 125.68814087 C170.31204242 129.05767307 168.88200638 132.42851986 167.45239258 135.79956055 C162.86616459 146.59504362 158.22258042 157.35304996 153.30728149 168.00369263 C152.78078506 169.15404495 152.78078506 169.15404495 152.24365234 170.32763672 C151.93422699 170.99673065 151.62480164 171.66582458 151.30599976 172.35519409 C150.52620224 174.03468976 150.52620224 174.03468976 150.6484375 176.0234375 C146.6884375 176.0234375 142.7284375 176.0234375 138.6484375 176.0234375 C138.41680908 175.26216553 138.18518066 174.50089355 137.9465332 173.71655273 C136.17458311 168.67530974 134.02362032 163.82588112 131.87890625 158.93359375 C131.40650009 157.84986481 130.93409393 156.76613586 130.44737244 155.64956665 C129.43654232 153.33067581 128.4246955 151.01222795 127.41192627 148.69418335 C113.39706179 116.60697717 113.39706179 116.60697717 106.7734375 100.7109375 C106.29503418 99.56423584 105.81663086 98.41753418 105.32373047 97.23608398 C104.33221692 94.85819907 103.34101361 92.48018478 102.35009766 90.10205078 C99.12394737 82.3657526 95.88371061 74.63546888 92.62518311 66.91275024 C91.85367825 65.08093685 91.08464411 63.24808075 90.31817627 61.41415405 C89.25344056 58.86720508 88.18046438 56.32388213 87.10546875 53.78125 C86.78527267 53.01002304 86.4650766 52.23879608 86.13517761 51.44419861 C84.71403357 47.5369115 84.71403357 47.5369115 81.6484375 45.0234375 Z " fill="#33363B" transform="translate(111.3515625,36.9765625)"/>
<path d="M0 0 C0.14622803 0.79172607 0.29245605 1.58345215 0.44311523 2.39916992 C1.10753222 5.99534989 1.77251024 9.5914259 2.4375 13.1875 C2.66759766 14.43337891 2.89769531 15.67925781 3.13476562 16.96289062 C3.35712891 18.16494141 3.57949219 19.36699219 3.80859375 20.60546875 C4.11494751 22.26292114 4.11494751 22.26292114 4.42749023 23.95385742 C4.93237259 26.64017602 5.45724724 29.3211119 6 32 C9.5064231 33.1688077 12.80098834 33.29755677 16.45703125 33.46484375 C17.97852092 33.54351737 19.50000512 33.62229708 21.02148438 33.70117188 C23.3992339 33.81948842 25.77705719 33.93580451 28.1550293 34.04956055 C38.21770788 34.53781387 48.04730704 35.35642682 58 37 C56.85992783 47.81947327 55.03851233 58.32814912 52.67700195 68.95288086 C51.23132795 75.73626194 50.707375 82.06855219 51 89 C52.52367187 89.76183594 52.52367187 89.76183594 54.078125 90.5390625 C66.5390625 96.76953125 66.5390625 96.76953125 79 103 C74.80298051 110.77652 70.4821394 118.47298184 66.0625 126.125 C65.09775757 127.7965918 65.09775757 127.7965918 64.11352539 129.50195312 C57.75532979 140.49384128 51.22567312 151.38107663 44.65966797 162.25 C42.09784157 166.49483856 39.54854789 170.74717984 37 175 C34.37472029 173.85480395 31.74976607 172.70887219 29.125 171.5625 C28.37863281 171.23701172 27.63226563 170.91152344 26.86328125 170.57617188 C25.79013672 170.10727539 25.79013672 170.10727539 24.6953125 169.62890625 C24.03547363 169.34088135 23.37563477 169.05285645 22.69580078 168.75610352 C21.45008125 168.20067688 20.21993963 167.60996982 19 167 C21.00823564 161.21766633 24.38566133 156.18025259 27.54296875 150.97460938 C27.98511719 150.23662109 28.42726563 149.49863281 28.8828125 148.73828125 C29.28902832 148.06837158 29.69524414 147.39846191 30.11376953 146.70825195 C31.15350324 145.0248577 31.15350324 145.0248577 31 143 C30.12674072 142.58113525 29.25348145 142.16227051 28.35375977 141.73071289 C25.12308609 140.18041892 21.89374047 138.62737601 18.66479492 137.07348633 C17.26541813 136.40053089 15.86567925 135.72832784 14.46557617 135.05688477 C12.45656865 134.09327231 10.44886635 133.12698741 8.44140625 132.16015625 C7.81222794 131.85908463 7.18304962 131.558013 6.5348053 131.24781799 C2.11387171 129.11387171 2.11387171 129.11387171 1 128 C1.08934554 119.33103479 3.2886036 110.66655306 4.9375 102.1875 C5.47047983 99.43156493 6.00054245 96.67509159 6.52734375 93.91796875 C6.65450775 93.25280243 6.78167175 92.58763611 6.91268921 91.90231323 C8.09806105 85.62456782 9.08330267 79.32188679 10 73 C8.90429688 73.02320313 7.80859375 73.04640625 6.6796875 73.0703125 C-4.22298535 73.22279744 -15.0601373 72.81724069 -25.9375 72.125 C-27.2467041 72.04652832 -28.5559082 71.96805664 -29.90478516 71.88720703 C-31.14147949 71.80325684 -32.37817383 71.71930664 -33.65234375 71.6328125 C-34.75570068 71.55949707 -35.85905762 71.48618164 -36.99584961 71.41064453 C-42.35490496 70.67810239 -42.35490496 70.67810239 -45 69 C-45.89457443 66.49417613 -46.40105064 64.46577513 -46.80078125 61.875 C-46.92688278 61.1722998 -47.05298431 60.46959961 -47.1829071 59.74560547 C-47.5805385 57.50015759 -47.94657532 55.25080922 -48.3125 53 C-48.57676042 51.48402226 -48.84301351 49.96839044 -49.11132812 48.453125 C-51 37.64794524 -51 37.64794524 -51 35 C-52.03447266 35.39832031 -52.03447266 35.39832031 -53.08984375 35.8046875 C-54.02957031 36.15789062 -54.96929687 36.51109375 -55.9375 36.875 C-56.85402344 37.22304687 -57.77054687 37.57109375 -58.71484375 37.9296875 C-62.72821455 39.23725421 -66.87951039 40.08433564 -71 41 C-71 34.07 -71 27.14 -71 20 C-55.29636545 15.10683851 -39.51261373 10.54397373 -23.6875 6.0625 C-22.63657166 5.76397125 -21.58564331 5.4654425 -20.50286865 5.15786743 C-17.48581399 4.30149987 -14.46771659 3.44892119 -11.44921875 2.59765625 C-10.52619461 2.33547302 -9.60317047 2.07328979 -8.6521759 1.80316162 C-7.8049144 1.56526917 -6.95765289 1.32737671 -6.0847168 1.08227539 C-5.34134567 0.87244522 -4.59797455 0.66261505 -3.83207703 0.44642639 C-2 0 -2 0 0 0 Z " fill="#8743D7" transform="translate(400,139)"/>
<path d="M0 0 C5.87799169 -0.47685694 10.74036544 1.27587061 16.25 3.0625 C24.92916865 5.79694619 33.63893943 8.30349703 42.4375 10.625 C52.0529734 13.1693103 61.53663809 15.93832409 71 19 C71 25.93 71 32.86 71 40 C60.875 37.75 60.875 37.75 55.9375 35.875 C54.52791016 35.34519531 54.52791016 35.34519531 53.08984375 34.8046875 C52.40019531 34.53914063 51.71054688 34.27359375 51 34 C50.85304687 35.16789062 50.85304687 35.16789062 50.703125 36.359375 C50.18350211 40.24758765 49.60955019 44.12506081 49 48 C48.86577637 48.8559375 48.73155273 49.711875 48.59326172 50.59375 C48.15147745 53.31784172 47.67401019 56.03356987 47.1875 58.75 C47.04666992 59.63139648 46.90583984 60.51279297 46.76074219 61.42089844 C46.60637695 62.2462207 46.45201172 63.07154297 46.29296875 63.921875 C46.09997192 65.02934082 46.09997192 65.02934082 45.90307617 66.15917969 C45 68 45 68 43.03808594 69.20166016 C38.74545873 70.32966489 34.51816993 70.5852253 30.09765625 70.8515625 C29.14233505 70.91532074 28.18701385 70.97907898 27.20274353 71.04476929 C24.15644358 71.24591466 21.10953529 71.43535749 18.0625 71.625 C16.01622887 71.75970192 13.97000415 71.89511098 11.92382812 72.03125 C9.96097896 72.15949027 7.99808945 72.2871149 6.03515625 72.4140625 C4.66146629 72.50308334 4.66146629 72.50308334 3.26002502 72.59390259 C-1.1684363 72.86856425 -5.56019607 73.06852254 -10 73 C-9.88724731 73.60277267 -9.77449463 74.20554535 -9.6583252 74.82658386 C-8.48509081 81.10352821 -7.31812569 87.381615 -6.15478516 93.66040039 C-5.7198681 96.00314709 -5.28335637 98.34559834 -4.84521484 100.68774414 C-4.21552212 104.05538652 -3.59158213 107.42405167 -2.96875 110.79296875 C-2.77188599 111.83897751 -2.57502197 112.88498627 -2.37219238 113.96269226 C-2.19200562 114.94333145 -2.01181885 115.92397064 -1.82617188 116.93432617 C-1.58634583 118.22339119 -1.58634583 118.22339119 -1.3416748 119.53849792 C-0.99195778 122.05793793 -0.93992642 124.45981437 -1 127 C-11 132 -21 137 -31 142 C-28.99176436 147.78233367 -25.61433867 152.81974741 -22.45703125 158.02539062 C-22.01488281 158.76337891 -21.57273438 159.50136719 -21.1171875 160.26171875 C-20.71097168 160.93162842 -20.30475586 161.60153809 -19.88623047 162.29174805 C-19 164 -19 164 -19 166 C-24.94 168.64 -30.88 171.28 -37 174 C-46.1327854 158.59501923 -55.25927479 143.18639446 -64.36621094 127.76611328 C-67.34749762 122.71859713 -70.33009891 117.67185774 -73.3125 112.625 C-74.41276566 110.76302393 -75.51302658 108.90104507 -76.61328125 107.0390625 C-77.07516846 106.25740723 -77.53705566 105.47575195 -78.01293945 104.67041016 C-78.33866943 104.1191748 -78.66439941 103.56793945 -79 103 C-76.47530483 100.08164921 -73.70508578 98.71864456 -70.23828125 97.08203125 C-69.12001953 96.55029297 -68.00175781 96.01855469 -66.84960938 95.47070312 C-65.09874023 94.64989258 -65.09874023 94.64989258 -63.3125 93.8125 C-62.13365234 93.25369141 -60.95480469 92.69488281 -59.74023438 92.11914062 C-56.82947402 90.7403594 -53.9160376 89.3675757 -51 88 C-50.27651731 77.75353292 -52.47759329 68.09936252 -54.5 58.125 C-55.00310587 55.61188248 -55.50315052 53.09823695 -55.9979248 50.58346558 C-56.30423452 49.02977962 -56.61557482 47.47707413 -56.93273926 45.92556763 C-57.67086807 42.21301734 -58.06702762 38.77712881 -58 35 C-57.40753479 34.96463638 -56.81506958 34.92927277 -56.20465088 34.89283752 C-50.04012618 34.52414321 -43.87593608 34.15019642 -37.71191406 33.77319336 C-35.41121455 33.63317194 -33.11043302 33.4944915 -30.80957031 33.35717773 C-27.50303037 33.15961269 -24.19681506 32.95723238 -20.890625 32.75390625 C-19.86132874 32.6934462 -18.83203247 32.63298615 -17.77154541 32.57069397 C-16.81085144 32.51070724 -15.85015747 32.45072052 -14.86035156 32.38891602 C-14.01651917 32.33784195 -13.17268677 32.28676788 -12.30328369 32.23414612 C-10.11507188 32.01169792 -8.11477392 31.59307039 -6 31 C-5.78065796 29.85785034 -5.78065796 29.85785034 -5.55688477 28.69262695 C-4.89228578 25.23254697 -4.22739589 21.77252294 -3.5625 18.3125 C-3.33240234 17.11431641 -3.10230469 15.91613281 -2.86523438 14.68164062 C-2.64287109 13.52470703 -2.42050781 12.36777344 -2.19140625 11.17578125 C-1.98717041 10.11270752 -1.78293457 9.04963379 -1.57250977 7.9543457 C-1.05829152 5.30080413 -0.53337702 2.64974848 0 0 Z " fill="#8743D7" transform="translate(112,140)"/>
<path d="M0 0 C11.90401926 8.97525262 19.44853138 20.57399318 23 35 C23.29415 37.90159196 23.33402529 40.77253964 23.3125 43.6875 C23.30512817 44.87279297 23.30512817 44.87279297 23.29760742 46.08203125 C22.98330337 61.91650807 16.91560231 74.62958093 6 86 C-6.18903368 96.7477628 -21.0318847 100.92797161 -37 100 C-53.11653353 98.03939492 -66.19346772 90.62509116 -76.1875 77.9375 C-84.96950115 65.43870703 -87.2095853 50.91371373 -86 36 C-84.36034702 26.85350207 -80.50020117 19.41282257 -75 12 C-74.41476562 11.20722656 -73.82953125 10.41445313 -73.2265625 9.59765625 C-55.13437248 -12.73131244 -23.38766285 -14.66369337 0 0 Z " fill="#34363A" transform="translate(396,292)"/>
<path d="M0 0 C1.40958984 0.47759766 1.40958984 0.47759766 2.84765625 0.96484375 C17.7665351 6.56649611 27.97987042 17.18443527 34.5546875 31.48828125 C40.20665829 45.2210427 39.35594462 60.94514054 33.96875 74.6171875 C27.38636567 88.8938454 16.43862937 98.46060678 1.8359375 104.03515625 C-12.74945304 108.99740345 -27.38150716 108.09001627 -41.1875 101.3125 C-55.49626795 93.94378357 -63.9743038 83.52802316 -69.08984375 68.1640625 C-73.05857265 54.36719378 -71.93185898 40.25346974 -65.71484375 27.328125 C-57.87396616 13.26259529 -46.20722412 4.04196736 -31 -1 C-21.73668527 -3.62696383 -9.05521074 -3.17347752 0 0 Z " fill="#34363A" transform="translate(164,285)"/>
<path d="M0 0 C1.03769531 -0.01160156 2.07539063 -0.02320313 3.14453125 -0.03515625 C20.04948311 0.02800048 35.68854047 5.65370264 48.3125 16.875 C54.01297636 23.38983012 58.03927631 29.17077427 57.74609375 38.2421875 C56.86684768 45.8623201 53.36083668 52.5173558 48.5 58.375 C47.69046875 58.94863281 46.8809375 59.52226562 46.046875 60.11328125 C42.583337 63.18903049 41.34265623 66.515922 39.625 70.75 C38.93864565 72.36302289 38.24980747 73.97499096 37.55859375 75.5859375 C37.21683105 76.38870117 36.87506836 77.19146484 36.52294922 78.01855469 C35.00398058 81.5176204 33.37386758 84.95397878 31.6875 88.375 C31.14480469 89.48875 30.60210937 90.6025 30.04296875 91.75 C28.5 94.375 28.5 94.375 25.5 96.375 C23.125 96.5 23.125 96.5 20.5 95.375 C16.24847455 90.41048581 10.5 80.94498183 10.5 74.375 C3.9 74.375 -2.7 74.375 -9.5 74.375 C-10.16 76.355 -10.82 78.335 -11.5 80.375 C-12.6085652 82.82185717 -13.73954799 85.22400913 -14.9375 87.625 C-15.23720703 88.24890625 -15.53691406 88.8728125 -15.84570312 89.515625 C-17.46188735 92.76902839 -18.41199618 94.31633079 -21.5 96.375 C-23.875 96.5 -23.875 96.5 -26.5 95.375 C-32.13539527 88.5002214 -35.01079394 79.43967516 -38.30664062 71.31054688 C-40.95287652 65.04591182 -42.96967569 61.31658545 -48.5 57.375 C-53.61633432 50.57508559 -57.06784343 43.14667011 -56.81640625 34.48046875 C-56.20413219 30.4062006 -54.45398949 26.96382737 -52.5 23.375 C-52.19578125 22.77816406 -51.8915625 22.18132812 -51.578125 21.56640625 C-44.97682031 10.57269497 -30.71841424 4.98576857 -18.97265625 1.796875 C-12.58510127 0.22721358 -6.5543917 -0.07327891 0 0 Z " fill="#35363B" transform="translate(255.5,348.625)"/>
<path d="M0 0 C2.36333818 1.80819163 3.29080027 3.03113327 4.328125 5.78125 C4.988125 5.78125 5.648125 5.78125 6.328125 5.78125 C10.18678224 15.10633834 10.18678224 15.10633834 9.328125 19.78125 C5.49642553 27.95554221 -0.98826903 33.28968482 -9.17578125 36.87890625 C-12.93909247 38.2118748 -15.62062594 38.78125 -19.671875 38.78125 C-20.14625 38.12125 -20.620625 37.46125 -21.109375 36.78125 C-22.515625 34.52083333 -22.515625 34.52083333 -25.171875 34.34375 C-28.09905314 34.85600617 -28.95960642 35.38407399 -30.671875 37.78125 C-31.38635143 39.88457891 -31.38635143 39.88457891 -31.671875 41.78125 C-34.311875 41.78125 -36.951875 41.78125 -39.671875 41.78125 C-39.960625 40.9975 -40.249375 40.21375 -40.546875 39.40625 C-41.52099754 36.68453368 -41.52099754 36.68453368 -43.671875 34.78125 C-46.12929037 34.28110047 -46.12929037 34.28110047 -48.671875 34.78125 C-50.51503171 36.6816967 -50.51503171 36.6816967 -51.671875 38.78125 C-61.44321173 38.23839796 -69.98784412 33.96039428 -76.671875 26.78125 C-79.96691817 22.91481206 -80.97728258 19.81142136 -80.671875 14.71875 C-79.57628666 7.81132638 -76.5761853 4.26200161 -71.046875 0.15625 C-49.78358781 -13.98805117 -21.46843787 -12.62849287 0 0 Z " fill="#A63B11" transform="translate(291.671875,370.21875)"/>
<path d="M0 0 C3.84612073 1.57859826 6.24153346 4.02655255 9.1328125 6.97265625 C9.61072235 7.45576767 10.0886322 7.93887909 10.58102417 8.43663025 C12.10053614 9.97389041 13.6131639 11.51769326 15.125 13.0625 C16.64484559 14.60997477 18.16613419 16.15595926 19.69039917 17.69908142 C21.06918742 19.09570801 22.44316065 20.49708323 23.81689453 21.89868164 C25.81680452 24.03259545 25.81680452 24.03259545 28 25 C27.28316963 28.29205516 26.13150113 31.23699479 24.80688477 34.33178711 C24.12596519 35.92880714 24.12596519 35.92880714 23.43128967 37.55809021 C22.93962814 38.70294388 22.44796661 39.84779755 21.94140625 41.02734375 C21.17081172 42.83189101 20.40021757 44.63643843 19.62964535 46.44099522 C18.55025016 48.9666341 17.46808009 51.49108036 16.38598633 54.01556396 C14.49522394 58.42841726 12.60924408 62.84331719 10.72264099 67.25794983 C9.71857339 69.60668419 8.71360998 71.95503584 7.70765686 74.30296326 C7.25055832 75.37079544 6.79345978 76.43862762 6.32250977 77.53881836 C5.72080711 78.94302284 5.72080711 78.94302284 5.10694885 80.37559509 C4.03991579 82.90536581 3.01086552 85.44733134 2 88 C1.34 88 0.68 88 0 88 C-0.28148392 87.33680756 -0.56296783 86.67361511 -0.85298157 85.99032593 C-3.51376629 79.72230622 -6.17638867 73.45507004 -8.84104633 67.18869591 C-10.21071018 63.96753177 -11.57967666 60.74607508 -12.94702148 57.52392578 C-14.52116901 53.81453238 -16.09839916 50.1064566 -17.67578125 46.3984375 C-18.16339432 45.24822113 -18.65100739 44.09800476 -19.15339661 42.91293335 C-19.84377266 41.29193222 -19.84377266 41.29193222 -20.5480957 39.63818359 C-20.9500264 38.69220306 -21.35195709 37.74622253 -21.7660675 36.77157593 C-22.66103471 34.76136097 -23.63442775 32.78548371 -24.65324402 30.83511353 C-26 28 -26 28 -26 25 C-24.58398438 23.50756836 -24.58398438 23.50756836 -22.59375 21.90234375 C-17.61023966 17.72634666 -13.07063429 13.18152049 -8.5 8.5625 C-7.26636719 7.32209961 -7.26636719 7.32209961 -6.0078125 6.05664062 C-4.00287887 4.04005041 -2.00033747 2.02114764 0 0 Z " fill="#8743D7" transform="translate(255,108)"/>
<path d="M0 0 C4.86893598 0.9737872 9.72177815 1.42432574 14.671875 1.734375 C13.52737421 10.3181309 7.04590118 17.04545474 0.421875 22.171875 C-10.1132029 29.20971168 -20.89481004 31.11857657 -33.328125 29.734375 C-45.91324954 26.7366011 -54.82338686 19.65539361 -62.05078125 9.12890625 C-63.38085054 6.63553477 -63.92753104 4.5187503 -64.328125 1.734375 C-63.38453125 1.61320312 -62.4409375 1.49203125 -61.46875 1.3671875 C-60.18484375 1.19960938 -58.9009375 1.03203125 -57.578125 0.859375 C-56.5415979 0.72619873 -56.5415979 0.72619873 -55.48413086 0.59033203 C-51.57502526 0.07634449 -47.75134892 -0.58270071 -43.890625 -1.390625 C-29.45201119 -3.82958004 -14.27315767 -2.98022681 0 0 Z " fill="#C94206" transform="translate(389.328125,350.265625)"/>
<path d="M0 0 C1.14025635 0.00201416 2.2805127 0.00402832 3.45532227 0.00610352 C11.46968633 0.1005765 19.01032444 0.91814647 26.8359375 2.578125 C31.67922785 3.56569396 36.51016461 4.0038764 41.4375 4.3125 C39.88157266 13.25908222 33.79258495 19.84722647 26.6875 25.1875 C16.29381116 31.86915711 5.56066278 33.66217231 -6.5625 32.3125 C-19.14762454 29.3147261 -28.05776186 22.23351861 -35.28515625 11.70703125 C-36.61522554 9.21365977 -37.16190604 7.0968753 -37.5625 4.3125 C-36.59570312 4.19132812 -35.62890625 4.07015625 -34.6328125 3.9453125 C-33.33085938 3.77773438 -32.02890625 3.61015625 -30.6875 3.4375 C-29.41132812 3.27507812 -28.13515625 3.11265625 -26.8203125 2.9453125 C-23.78132828 2.53313172 -20.83122564 1.93419995 -17.83984375 1.26171875 C-11.89297938 0.0477946 -6.05325202 -0.02910002 0 0 Z " fill="#C94206" transform="translate(145.5625,347.6875)"/>
<path d="M0 0 C0.33 0 0.66 0 1 0 C5.78410597 30.88068399 -5.97538759 54.69947988 -18.84277344 82.18017578 C-23.3479229 91.83862202 -27.5092592 101.64315367 -31.68661499 111.44656372 C-33.65843799 116.06278182 -35.65507777 120.66818403 -37.65234375 125.2734375 C-38.30854304 126.78823541 -38.96471522 128.30304507 -39.62084961 129.81787109 C-40.30352905 131.3930249 -40.30352905 131.3930249 -41 133 C-42.60433809 132.52140759 -44.20846416 132.04210442 -45.8125 131.5625 C-46.70582031 131.29566406 -47.59914063 131.02882812 -48.51953125 130.75390625 C-50.35473055 130.19612127 -52.18033726 129.60655425 -54 129 C-53.42707333 122.8646408 -50.89916034 117.64266599 -48.4609375 112.0625 C-47.99171875 110.97371048 -47.5225 109.88492096 -47.0390625 108.76313782 C-45.75732999 105.79165968 -44.46989301 102.82273294 -43.18004608 99.85477066 C-41.82818446 96.74017471 -40.48374531 93.62238123 -39.13916016 90.50463867 C-38.58835739 89.22764199 -38.03754556 87.95064922 -37.48672485 86.67366028 C-37.21146595 86.03548685 -36.93620705 85.39731342 -36.65260696 84.73980141 C-35.80646184 82.77897615 -34.95941096 80.81854432 -34.1121521 78.85820007 C-30.21178546 69.83074455 -26.34436873 60.7897166 -22.5 51.73828125 C-22.23969624 51.12561275 -21.97939247 50.51294426 -21.71120071 49.88171005 C-19.44347669 44.54400756 -17.17736759 39.20562218 -14.91424561 33.8659668 C-5.05014281 10.59853516 -5.05014281 10.59853516 0 0 Z " fill="#9859E2" transform="translate(318,82)"/>
<path d="M0 0 C2.64754277 1.32377139 2.83188779 2.50559527 3.97338867 5.21362305 C4.36032394 6.12235672 4.74725922 7.03109039 5.1459198 7.96736145 C5.56569595 8.97199936 5.98547211 9.97663727 6.41796875 11.01171875 C6.86348587 12.06296432 7.30900299 13.1142099 7.76802063 14.1973114 C9.24727855 17.69149713 10.71727151 21.18950657 12.1875 24.6875 C13.21413883 27.11634626 14.24149192 29.54489072 15.26953125 31.97314453 C17.14708477 36.40888608 19.02250622 40.84551698 20.89519691 45.28331375 C25.90803147 57.16162834 30.95881996 69.02369605 36.01309204 80.88442993 C37.46732267 84.29828878 38.91978756 87.71289387 40.37182617 91.12768555 C40.82780685 92.19893173 41.28378754 93.27017792 41.75358582 94.37388611 C42.6321062 96.43851753 43.5094379 98.50365524 44.38545227 100.5693512 C46.29054917 105.04981414 48.21814512 109.51422687 50.2421875 113.94238281 C50.57915649 114.68549713 50.91612549 115.42861145 51.26330566 116.19424438 C51.87669517 117.53910499 52.49953557 118.87971754 53.13415527 120.21469116 C54.2765145 122.7240968 55.03526894 124.56035363 54.81225586 127.34033203 C53.54585004 129.92795654 51.70712547 130.29383699 49.0625 131.25 C48.16660156 131.58515625 47.27070313 131.9203125 46.34765625 132.265625 C44 133 44 133 42 133 C29.31045053 103.88496092 16.67456999 74.75335275 4.44433594 45.44189453 C3.47194475 43.12465806 2.43231405 40.8346362 1.33178711 38.57543945 C-0.22991119 34.38275906 -0.38675792 31.07861723 -0.29296875 26.66015625 C-0.28872391 25.89319931 -0.28447906 25.12624237 -0.28010559 24.33604431 C-0.2634507 21.91115668 -0.22582553 19.48713202 -0.1875 17.0625 C-0.17243601 15.40821522 -0.15875062 13.75391727 -0.14648438 12.09960938 C-0.11359077 8.06607897 -0.06190249 4.03318527 0 0 Z " fill="#9859E2" transform="translate(193,82)"/>
<path d="M0 0 C1.03722081 1.64376117 2.04268748 3.30845322 3 5 C-24.63614015 10.56035354 -50.44487542 12.20190756 -78 5 C-73.06115564 -3.5152489 -65.57092438 -7.23653728 -56.25 -9.875 C-37.12206668 -13.69144548 -15.86447292 -12.28794119 0 0 Z " fill="#CA4206" transform="translate(294,372)"/>
<path d="M0 0 C4.40830916 2.16407904 7.12843553 4.42506462 9 9 C9.53218983 14.58799317 9.25015553 18.23310522 6 23 C2.53672571 26.20986397 -0.31274899 27.31574613 -4.9375 27.625 C-9.7189573 27.43749187 -12.21031402 25.95364339 -15.625 22.703125 C-18.94756344 18.5876771 -19.54658193 15.28362537 -19 10 C-14.52037036 1.53847735 -9.40690802 -1.49244214 0 0 Z " fill="#FBFBFB" transform="translate(128,308)"/>
<path d="M0 0 C4.40830916 2.16407904 7.12843553 4.42506462 9 9 C9.53218983 14.58799317 9.25015553 18.23310522 6 23 C1.7801376 26.91109198 -1.93659351 27.73379419 -7.5234375 27.53125 C-11.67789911 26.64007212 -14.30334368 24.18320899 -17 21 C-18.99765403 17.00469193 -18.64943255 12.33153639 -18 8 C-13.6790292 0.35520551 -8.37786068 -0.92658367 0 0 Z " fill="#FCFCFC" transform="translate(345,308)"/>
<path d="M0 0 C4 2 4 2 10 7 C7.36 13.6 4.72 20.2 2 27 C1.34 27 0.68 27 0 27 C-2.64 20.4 -5.28 13.8 -8 7 C-5.36 4.69 -2.72 2.38 0 0 Z " fill="#7B34BF" transform="translate(255,169)"/>
<path d="M0 0 C3.10916259 4.14555012 4.31562636 7.18750388 6 12 C5.67 12.33 5.34 12.66 5 13 C3.35 13 1.7 13 0 13 C0 8.71 0 4.42 0 0 Z " fill="#8143CC" transform="translate(330,133)"/>
<path d="M0 0 C0.33 0 0.66 0 1 0 C1 4.29 1 8.58 1 13 C-0.65 13 -2.3 13 -4 13 C-4.33 12.34 -4.66 11.68 -5 11 C-4.00390625 8.3984375 -4.00390625 8.3984375 -2.5625 5.375 C-2.08941406 4.37210938 -1.61632812 3.36921875 -1.12890625 2.3359375 C-0.75636719 1.56507813 -0.38382813 0.79421875 0 0 Z " fill="#8143CC" transform="translate(181,133)"/>
</svg>
