<?xml version="1.0" encoding="UTF-8"?>
<svg version="1.1" xmlns="http://www.w3.org/2000/svg" width="512" height="512">
<path d="M0 0 C3.92911149 3.99589106 5.90190062 8.75759331 8.09765625 13.8203125 C8.67719055 15.13171204 8.67719055 15.13171204 9.26843262 16.46960449 C10.54013673 19.35170396 11.80127429 22.23830164 13.0625 25.125 C13.95688354 27.15705417 14.85199576 29.18878777 15.74780273 31.22021484 C17.5973809 35.41728937 19.44292554 39.61610163 21.28515625 43.81640625 C23.80476121 49.55928157 26.33694898 55.29650647 28.875 61.03125 C29.26437241 61.91114594 29.65374481 62.79104187 30.05491638 63.69760132 C30.83492742 65.4602516 31.61495156 67.22289608 32.39498901 68.98553467 C34.36066102 73.42945268 36.32290308 77.87488405 38.28515625 82.3203125 C41.0417699 88.56495257 43.79876785 94.80942156 46.55793762 101.05293274 C47.35058812 102.84700598 48.14281373 104.641267 48.93461609 106.43571472 C50.90339438 110.89598913 52.87933587 115.35280458 54.87084961 119.80297852 C58.58433347 128.12152459 62.21859366 136.45301111 65.61175537 144.90823364 C67.20149767 148.85697816 68.83124004 152.7886543 70.46411133 156.71972656 C71.22457313 158.58193838 71.96578127 160.45215648 72.68530273 162.33056641 C77.76881338 175.58258683 83.03916499 181.93360939 95.95697021 187.96261597 C99.3462894 189.68360194 102.37799633 191.88185677 105.4375 194.125 C106.00910355 194.54221817 106.58070709 194.95943634 107.16963196 195.38929749 C117.04102598 202.665847 126.10629828 210.57861219 135 219 C135.68191406 219.639375 136.36382812 220.27875 137.06640625 220.9375 C149.30687545 232.7519668 159.56025746 247.29710105 168 262 C168.36625488 262.63534668 168.73250977 263.27069336 169.10986328 263.92529297 C187.55048764 296.29673471 195.76887569 334.0467797 185.81640625 370.53125 C173.82434833 410.93946279 142.9807395 440.49422904 106.97363281 460.38232422 C85.95411128 471.65902553 63.39869246 478.72871749 40 483 C38.63705811 483.24991699 38.63705811 483.24991699 37.24658203 483.50488281 C-18.71958236 493.24075798 -82.95170205 482.7026597 -130.11328125 450.08203125 C-162.2570143 426.8985269 -187.91400616 396.99008642 -194.75 356.8125 C-200.80050572 317.23210843 -186.50586398 277.48449001 -163.5390625 245.5234375 C-152.09892581 230.08179727 -139.16285316 215.8227214 -124 204 C-123.3905957 203.52481934 -122.78119141 203.04963867 -122.15332031 202.56005859 C-101.55214205 186.59799853 -101.55214205 186.59799853 -93.12451172 183.25634766 C-84.85440907 179.41601052 -82.41996031 170.13183196 -79.125 162.25 C-78.38954472 160.5426571 -77.6516178 158.83637702 -76.91137695 157.13110352 C-75.36356939 153.55680362 -73.82886537 149.97729712 -72.30419922 146.39306641 C-70.10417505 141.22930913 -67.85999016 136.08593937 -65.59765625 130.94921875 C-65.23557571 130.12707886 -64.87349518 129.30493896 -64.5004425 128.45788574 C-63.76606586 126.79100791 -63.03153282 125.12419897 -62.29684448 123.4574585 C-61.17562677 120.91052907 -60.05801642 118.36204773 -58.94165039 115.81298828 C-52.94736847 102.1260486 -46.88894586 88.46817931 -40.81280518 74.81741333 C-33.57085635 58.54738084 -26.36307127 42.26250579 -19.17797852 25.96728516 C-17.42343114 21.98858508 -15.66321887 18.0124313 -13.90020752 14.03747559 C-13.06998478 12.15839935 -12.24915504 10.27518053 -11.42919922 8.39160156 C-10.76621826 6.88678223 -10.76621826 6.88678223 -10.08984375 5.3515625 C-9.72624756 4.51705566 -9.36265137 3.68254883 -8.98803711 2.82275391 C-7.00221721 -0.84073296 -3.78635157 -0.45436219 0 0 Z " fill="#DCC289" transform="translate(259,13)"/>
<path d="M0 0 C3.92911149 3.99589106 5.90190062 8.75759331 8.09765625 13.8203125 C8.67719055 15.13171204 8.67719055 15.13171204 9.26843262 16.46960449 C10.54013673 19.35170396 11.80127429 22.23830164 13.0625 25.125 C13.95688354 27.15705417 14.85199576 29.18878777 15.74780273 31.22021484 C17.5973809 35.41728937 19.44292554 39.61610163 21.28515625 43.81640625 C23.80476121 49.55928157 26.33694898 55.29650647 28.875 61.03125 C29.26437241 61.91114594 29.65374481 62.79104187 30.05491638 63.69760132 C30.83492742 65.4602516 31.61495156 67.22289608 32.39498901 68.98553467 C34.36066102 73.42945268 36.32290308 77.87488405 38.28515625 82.3203125 C41.0417699 88.56495257 43.79876785 94.80942156 46.55793762 101.05293274 C47.35058812 102.84700598 48.14281373 104.641267 48.93461609 106.43571472 C50.90339438 110.89598913 52.87933587 115.35280458 54.87084961 119.80297852 C58.58433347 128.12152459 62.21859366 136.45301111 65.61175537 144.90823364 C67.20149767 148.85697816 68.83124004 152.7886543 70.46411133 156.71972656 C71.22457313 158.58193838 71.96578127 160.45215648 72.68530273 162.33056641 C77.76881338 175.58258683 83.03916499 181.93360939 95.95697021 187.96261597 C99.3462894 189.68360194 102.37799633 191.88185677 105.4375 194.125 C106.00910355 194.54221817 106.58070709 194.95943634 107.16963196 195.38929749 C117.04102598 202.665847 126.10629828 210.57861219 135 219 C135.68191406 219.639375 136.36382812 220.27875 137.06640625 220.9375 C149.30687545 232.7519668 159.56025746 247.29710105 168 262 C168.36625488 262.63534668 168.73250977 263.27069336 169.10986328 263.92529297 C187.55048764 296.29673471 195.76887569 334.0467797 185.81640625 370.53125 C173.82434833 410.93946279 142.9807395 440.49422904 106.97363281 460.38232422 C85.95411128 471.65902553 63.39869246 478.72871749 40 483 C38.63705811 483.24991699 38.63705811 483.24991699 37.24658203 483.50488281 C-18.71958236 493.24075798 -82.95170205 482.7026597 -130.11328125 450.08203125 C-162.2570143 426.8985269 -187.91400616 396.99008642 -194.75 356.8125 C-200.80050572 317.23210843 -186.50586398 277.48449001 -163.5390625 245.5234375 C-152.09892581 230.08179727 -139.16285316 215.8227214 -124 204 C-123.3905957 203.52481934 -122.78119141 203.04963867 -122.15332031 202.56005859 C-101.55214205 186.59799853 -101.55214205 186.59799853 -93.12451172 183.25634766 C-84.85440907 179.41601052 -82.41996031 170.13183196 -79.125 162.25 C-78.38954472 160.5426571 -77.6516178 158.83637702 -76.91137695 157.13110352 C-75.36356939 153.55680362 -73.82886537 149.97729712 -72.30419922 146.39306641 C-70.10417505 141.22930913 -67.85999016 136.08593937 -65.59765625 130.94921875 C-65.23557571 130.12707886 -64.87349518 129.30493896 -64.5004425 128.45788574 C-63.76606586 126.79100791 -63.03153282 125.12419897 -62.29684448 123.4574585 C-61.17562677 120.91052907 -60.05801642 118.36204773 -58.94165039 115.81298828 C-52.94736847 102.1260486 -46.88894586 88.46817931 -40.81280518 74.81741333 C-33.57085635 58.54738084 -26.36307127 42.26250579 -19.17797852 25.96728516 C-17.42343114 21.98858508 -15.66321887 18.0124313 -13.90020752 14.03747559 C-13.06998478 12.15839935 -12.24915504 10.27518053 -11.42919922 8.39160156 C-10.76621826 6.88678223 -10.76621826 6.88678223 -10.08984375 5.3515625 C-9.72624756 4.51705566 -9.36265137 3.68254883 -8.98803711 2.82275391 C-7.00221721 -0.84073296 -3.78635157 -0.45436219 0 0 Z M-103.75 203.25 C-104.51425293 203.79358154 -105.27850586 204.33716309 -106.06591797 204.8972168 C-139.48881581 228.98964253 -170.38082927 264.99761305 -180 306 C-180.28230469 307.17949219 -180.56460938 308.35898437 -180.85546875 309.57421875 C-187.64670879 339.57683321 -183.78050069 369.67407824 -167.35693359 396.02124023 C-163.9180866 401.31523527 -160.13657454 406.2381293 -156 411 C-154.97132813 412.21042969 -154.97132813 412.21042969 -153.921875 413.4453125 C-124.56906411 447.12713506 -83.24978466 464.36013523 -40 472 C-38.95593994 472.19505127 -37.91187988 472.39010254 -36.83618164 472.59106445 C-26.82691881 474.26734231 -16.88869826 474.33838249 -6.76147461 474.31567383 C-3.83474064 474.31252394 -0.90903104 474.33602036 2.01757812 474.36132812 C13.58480167 474.39952348 24.61912628 473.53624264 35.98675537 471.3815918 C37.99695887 471.00057642 40.01019856 470.64373895 42.02587891 470.29296875 C52.60257896 468.41589589 62.79603827 465.31262084 73 462 C73.68674805 461.78005371 74.37349609 461.56010742 75.08105469 461.33349609 C93.32604434 455.37566765 111.03633495 446.02643868 126 434 C126.55864746 433.55269531 127.11729492 433.10539063 127.69287109 432.64453125 C153.8218568 411.52243015 172.98882362 384.41250745 177.75 350.5625 C179.69381337 325.6722068 174.89230866 302.34904189 164 280 C163.67016113 279.31583008 163.34032227 278.63166016 163.00048828 277.92675781 C147.04887585 245.23542478 120.8620734 217.1704597 90 198 C89.34 198 88.68 198 88 198 C87.97421875 198.65226563 87.9484375 199.30453125 87.921875 199.9765625 C87.41815697 207.73839943 85.24630546 211.97536942 79.6875 217.4375 C52.7145602 240.09878028 6.23708779 238.84352347 -26.625 236.1875 C-46.1814964 234.42846666 -72.47687567 230.70077723 -87 216 C-87.66 216 -88.32 216 -89 216 C-89.66666667 214.66666667 -90.33333333 213.33333333 -91 212 C-91.3403125 211.401875 -91.680625 210.80375 -92.03125 210.1875 C-93.15674272 207.64606483 -93.40675506 205.51443591 -93.625 202.75 C-93.73714844 201.41195312 -93.73714844 201.41195312 -93.8515625 200.046875 C-93.90054688 199.37140625 -93.94953125 198.6959375 -94 198 C-97.75250827 198 -100.77888266 201.13669491 -103.75 203.25 Z " fill="#34373B" transform="translate(259,13)"/>
<path d="M0 0 C0.66 0 1.32 0 2 0 C11.87719429 22.19814947 21.74658417 44.39967239 31.5625 66.625 C31.94988342 67.50210632 32.33726685 68.37921265 32.73638916 69.28289795 C35.09475088 74.6230851 37.45244511 79.96356678 39.80993652 85.30413818 C49.48038741 107.21070015 59.15278237 129.11635099 68.875 151 C69.20438568 151.74176483 69.53377136 152.48352966 69.87313843 153.24777222 C70.5066494 154.67416811 71.1405131 156.10040741 71.77476501 157.526474 C72.36822575 158.86172812 72.96044291 160.1975358 73.55128479 161.53395081 C74.84481253 164.45135396 76.16716976 167.34717446 77.55175781 170.22265625 C78.01163086 171.18042969 78.47150391 172.13820312 78.9453125 173.125 C79.34508301 173.93195313 79.74485352 174.73890625 80.15673828 175.5703125 C81.17922896 178.51641186 81.21527577 180.90174891 81 184 C75.90497427 193.04135475 63.5090165 196.37716251 54.16992188 199.09423828 C50.46174894 200.12573709 46.73790086 201.08263294 43 202 C42.03835938 202.2371875 41.07671875 202.474375 40.0859375 202.71875 C27.8352813 205.4322504 15.08629202 205.21272073 2.60083008 205.24023438 C-0.03401824 205.24989557 -2.66806919 205.281009 -5.30273438 205.3125 C-20.71455 205.40845156 -36.02312731 203.79371633 -50.9375 199.75 C-51.71053467 199.54238037 -52.48356934 199.33476074 -53.2800293 199.12084961 C-62.85114718 196.38865647 -72.91148109 192.17601111 -79 184 C-79.95658146 178.00542282 -77.17143158 173.42575778 -74.625 168.1875 C-73.6019714 166.01987632 -72.58272436 163.85046557 -71.56640625 161.6796875 C-71.28750046 161.08555557 -71.00859467 160.49142365 -70.72123718 159.87928772 C-66.8479908 151.59239368 -63.22258572 143.19502201 -59.5625 134.8125 C-58.00120308 131.24296226 -56.43843582 127.67407014 -54.875 124.10546875 C-54.4770372 123.19702713 -54.0790744 122.28858551 -53.66905212 121.35261536 C-49.17063421 111.09358963 -44.6180543 100.85875031 -40.0625 90.625 C-26.63301242 60.44999306 -13.28190922 30.24026557 0 0 Z " fill="#D8E6E7" transform="translate(255,34)"/>
<path d="M0 0 C0.81597656 0.60457031 1.63195312 1.20914062 2.47265625 1.83203125 C10.78223515 8.9600317 17.20090985 20.3343096 18.3359375 31.22265625 C18.77759557 45.74641201 13.40426117 57.05191043 3.57421875 67.515625 C-7.2489276 77.96102876 -19.43482135 83.66763419 -33.5625 88.25 C-34.31732666 88.49645264 -35.07215332 88.74290527 -35.84985352 88.99682617 C-47.69382915 92.66738016 -59.37886683 93.37269388 -71.6875 93.3125 C-72.43978882 93.31100952 -73.19207764 93.30951904 -73.96716309 93.3079834 C-84.92898309 93.26889447 -95.3441361 92.78136109 -106 90 C-107.17175781 89.73316406 -108.34351563 89.46632813 -109.55078125 89.19140625 C-127.66552267 84.65768343 -146.913626 74.33667662 -157.1875 58.3125 C-163.1818385 47.67375446 -166.17494572 36.80434758 -163.1875 24.7109375 C-157.13337544 7.09511674 -143.89961583 -3.83683333 -127.82763672 -12.12011719 C-122.72829828 -14.57510192 -117.39423961 -16.32349848 -112 -18 C-111.08863281 -18.29648437 -110.17726562 -18.59296875 -109.23828125 -18.8984375 C-73.79165961 -29.60130382 -28.78034324 -23.78451008 0 0 Z " fill="#913BB6" transform="translate(329,385)"/>
<path d="M0 0 C0.27239502 0.59458008 0.54479004 1.18916016 0.82543945 1.80175781 C1.97029488 3.94440556 3.12644698 5.42006637 4.79296875 7.171875 C5.61571289 8.04585938 5.61571289 8.04585938 6.45507812 8.9375 C7.02677734 9.535625 7.59847656 10.13375 8.1875 10.75 C11.66865113 14.42206607 15.11379424 18.1038523 18.421875 21.93359375 C28.78639124 33.85070099 40.1557438 44.79841719 53 54 C53.56831543 54.41266113 54.13663086 54.82532227 54.72216797 55.25048828 C64.89064218 62.5641541 75.79624002 68.29999498 86.96972656 73.921875 C89 75 89 75 92 77 C91.505 78.216875 91.01 79.43375 90.5 80.6875 C86.72439031 92.21304536 89.10840724 103.06713784 94.3203125 113.69140625 C104.80711893 132.45877842 125.2767784 141.38661413 145.0625 147.140625 C155.87208846 149.70106668 166.70279546 150.34918738 177.75854492 150.31567383 C179.93263714 150.31250708 182.10537052 150.33611538 184.27929688 150.36132812 C193.88800978 150.40480708 202.65567932 149.28513871 212 147 C212.79639893 146.80656006 213.59279785 146.61312012 214.41333008 146.41381836 C228.8997285 142.63174282 243.02433262 136.3439743 254 126 C254.71671875 125.32453125 255.4334375 124.6490625 256.171875 123.953125 C264.48417211 115.39083399 269.07616314 104.70583877 269.25 92.8125 C269.27578125 91.76707031 269.3015625 90.72164063 269.328125 89.64453125 C268.89706296 84.85666362 267.51107358 80.54632582 266 76 C266.54188965 75.75991211 267.0837793 75.51982422 267.64208984 75.27246094 C285.3881724 67.32801547 301.34411947 57.83277423 316 45 C316.76699219 44.34257812 317.53398437 43.68515625 318.32421875 43.0078125 C323.81819776 38.19490526 329.01233948 33.08771999 334.1875 27.9375 C334.85289795 27.2767749 335.5182959 26.6160498 336.20385742 25.93530273 C340.67162555 21.45309558 344.87043964 16.79346406 349 12 C352.8125 7.75 352.8125 7.75 354.51953125 5.859375 C356.00785754 3.99013142 357.01562491 2.17042702 358 0 C361.77698122 23.16773305 360.61265452 45.34318813 351 67 C350.4740625 68.19238281 349.948125 69.38476562 349.40625 70.61328125 C331.84144329 107.85564264 295.47082449 133.8488155 257.5078125 147.48046875 C236.12793468 154.81300294 213.80467921 160.0389292 191.12109375 160.23828125 C190.19953995 160.24802979 189.27798615 160.25777832 188.32850647 160.26782227 C169.14129526 160.42920088 150.76477286 160.41033769 132 156 C130.22729047 155.63060372 128.45383873 155.26475252 126.6796875 154.90234375 C99.18703292 149.07844105 72.00441491 137.68762524 50 120 C49.44425293 119.55414551 48.88850586 119.10829102 48.31591797 118.64892578 C22.18171055 97.52716324 3.01177393 70.41675573 -1.75 36.5625 C-2.71451121 24.21205164 -1.98887547 12.19962004 0 0 Z " fill="#C4A76C" transform="translate(77,327)"/>
<path d="M0 0 C0.81597656 0.60457031 1.63195312 1.20914062 2.47265625 1.83203125 C10.78223515 8.9600317 17.20090985 20.3343096 18.3359375 31.22265625 C18.77759557 45.74641201 13.40426117 57.05191043 3.57421875 67.515625 C-7.2489276 77.96102876 -19.43482135 83.66763419 -33.5625 88.25 C-34.31732666 88.49645264 -35.07215332 88.74290527 -35.84985352 88.99682617 C-47.69382915 92.66738016 -59.37886683 93.37269388 -71.6875 93.3125 C-72.43978882 93.31100952 -73.19207764 93.30951904 -73.96716309 93.3079834 C-84.92898309 93.26889447 -95.3441361 92.78136109 -106 90 C-107.17175781 89.73316406 -108.34351563 89.46632813 -109.55078125 89.19140625 C-127.66552267 84.65768343 -146.913626 74.33667662 -157.1875 58.3125 C-163.1818385 47.67375446 -166.17494572 36.80434758 -163.1875 24.7109375 C-157.13337544 7.09511674 -143.89961583 -3.83683333 -127.82763672 -12.12011719 C-122.72829828 -14.57510192 -117.39423961 -16.32349848 -112 -18 C-111.08863281 -18.29648437 -110.17726562 -18.59296875 -109.23828125 -18.8984375 C-73.79165961 -29.60130382 -28.78034324 -23.78451008 0 0 Z M-143 13 C-143.6084375 13.598125 -144.216875 14.19625 -144.84375 14.8125 C-151.58178319 21.94688809 -152.65996188 29.98051945 -152.40234375 39.57421875 C-151.26536443 49.25510088 -144.98042109 56.57151918 -138 63 C-134.48313754 65.63893037 -130.839194 67.86345284 -127 70 C-126.23300781 70.44988281 -125.46601563 70.89976562 -124.67578125 71.36328125 C-119.57915698 74.15820424 -114.29101397 76.00391772 -108.75 77.6875 C-108.09563965 77.89004395 -107.4412793 78.09258789 -106.76708984 78.30126953 C-85.55350429 84.41106753 -60.07374288 84.82309809 -39 78 C-38.30100586 77.77505859 -37.60201172 77.55011719 -36.88183594 77.31835938 C-21.17907763 72.11516333 -5.49342786 64.83196318 3.09765625 49.88671875 C6.76588664 42.21678247 7.25539974 34.49519289 5.34765625 26.14453125 C3.12946863 20.00405479 -0.38758764 15.54570391 -5 11 C-5.56203125 10.41605469 -6.1240625 9.83210938 -6.703125 9.23046875 C-23.65090714 -7.09098231 -48.77269347 -11.18153502 -71.3059082 -11.24023438 C-73.53310483 -11.24987279 -75.75934967 -11.28093614 -77.98632812 -11.3125 C-101.97417973 -11.49012865 -125.83986515 -4.40883245 -143 13 Z " fill="#36373C" transform="translate(329,385)"/>
<path d="M0 0 C3.39573546 1.00740775 4.0590585 2.10816377 5.7890625 5.27661133 C6.41444504 6.7059615 7.02537126 8.14168733 7.625 9.58203125 C8.13370888 10.7581472 8.13370888 10.7581472 8.6526947 11.95802307 C9.39069248 13.66840397 10.12265247 15.38139958 10.84933472 17.09661865 C12.01902502 19.85740419 13.20370404 22.61130044 14.39282227 25.36376953 C15.64785809 28.26908915 16.90197156 31.17476725 18.15150452 34.0824585 C22.2507449 43.61788026 26.46096769 53.10235784 30.69067383 62.58047485 C32.78566656 67.276005 34.87520944 71.97395833 36.96484375 76.671875 C37.37979095 77.6045369 37.79473816 78.53719879 38.22225952 79.49812317 C42.83304434 89.86570436 47.41734912 100.24496002 52 110.625 C57.36482423 122.77536403 62.73249332 134.92439145 68.125 147.0625 C68.86169922 148.72176514 68.86169922 148.72176514 69.61328125 150.41455078 C70.05285156 151.40310059 70.49242187 152.39165039 70.9453125 153.41015625 C71.32187988 154.25715088 71.69844727 155.10414551 72.08642578 155.97680664 C72.69757477 157.33025176 73.33587399 158.67174798 74 160 C74.5664503 163.04467035 74.58844783 165.07470217 72.89453125 167.73828125 C64.82301193 176.72656572 51.48429796 180.6103664 40 183 C38.0008864 183.05953832 35.9984639 183.07837113 34 183 C31.05532758 169.35792921 28.35970426 155.69411962 25.95092773 141.94726562 C24.35185645 132.86239786 22.64013205 123.80370537 20.875 114.75 C20.74506653 114.0831015 20.61513306 113.416203 20.48126221 112.72909546 C19.86419772 109.56277906 19.24645735 106.39659499 18.62841797 103.23046875 C17.38276644 96.82702623 16.18593097 90.41474594 15 84 C14.60550302 81.86978532 14.21096808 79.73957767 13.81640625 77.609375 C13.17320031 74.13649381 12.53022618 70.66357128 11.88842773 67.19042969 C10.79354424 61.26828545 9.68944799 55.34803594 8.57421875 49.4296875 C6.93445813 40.70758488 5.3527745 31.97516588 3.78295898 23.24023438 C3.30424697 20.57912223 2.82301616 17.91847225 2.34179688 15.2578125 C2.03630468 13.55992347 1.73096032 11.86200784 1.42578125 10.1640625 C1.28207596 9.37150055 1.13837067 8.5789386 0.99031067 7.76235962 C0 2.22856063 0 2.22856063 0 0 Z " fill="#FDFDFD" transform="translate(262,52)"/>
<path d="M0 0 C-0.49320735 9.06490775 -1.73942909 17.73886893 -3.5625 26.625 C-4.10680151 29.34166836 -4.64509629 32.05951975 -5.18359375 34.77734375 C-5.3271228 35.49829727 -5.47065186 36.21925079 -5.61853027 36.96205139 C-7.72439937 47.58211014 -9.66089937 58.23468765 -11.62112427 68.88238525 C-13.38376067 78.45212004 -15.18650654 88.00946616 -17.1171875 97.546875 C-18.56343438 104.69822622 -19.868812 111.85374738 -21 119.0625 C-22.28481486 127.01611577 -23.76523461 134.88577115 -25.49560547 142.75341797 C-27.14121655 150.36659411 -28.39088438 158.03810108 -29.60546875 165.73046875 C-30.4874019 171.24440375 -31.55377563 176.6054551 -33 182 C-46.47907901 181.3914637 -60.46633565 177.122628 -70.6875 168 C-73.4879147 164.36702957 -73.54755144 163.48787492 -73 159 C-71.77555109 155.61712619 -70.19676887 152.42078167 -68.625 149.1875 C-67.6019714 147.01987632 -66.58272436 144.85046557 -65.56640625 142.6796875 C-65.28750046 142.08555557 -65.00859467 141.49142365 -64.72123718 140.87928772 C-60.8479908 132.59239368 -57.22258572 124.19502201 -53.5625 115.8125 C-52.00120308 112.24296226 -50.43843582 108.67407014 -48.875 105.10546875 C-48.4770372 104.19702713 -48.0790744 103.28858551 -47.66905212 102.35261536 C-43.17063393 92.09358898 -38.61797354 81.8587868 -34.0625 71.625 C-27.57465954 57.04616396 -21.09621597 42.4632697 -14.64352417 27.86883545 C-13.80475867 25.97192229 -12.96567308 24.07515063 -12.12625122 22.17852783 C-10.96607392 19.55691803 -9.8070721 16.93479191 -8.6484375 14.3125 C-8.30669998 13.54070404 -7.96496246 12.76890808 -7.61286926 11.97372437 C-7.13813423 10.89811752 -7.13813423 10.89811752 -6.65380859 9.80078125 C-6.36254089 9.14158691 -6.07127319 8.48239258 -5.7711792 7.80322266 C-5.10062357 6.23528474 -4.49296958 4.64073651 -3.89697266 3.04296875 C-2.99249838 0.98291412 -2.4195068 0 0 0 Z " fill="#FDFDFD" transform="translate(249,53)"/>
<path d="M0 0 C7.67790675 5.49334426 12.30748222 12.68524837 15.53515625 21.4921875 C15.97991232 24.23519151 16.06021369 26.9040209 16.03515625 29.6796875 C16.02943604 30.4214624 16.02371582 31.1632373 16.01782227 31.92749023 C15.70897499 41.55375041 12.22856326 49.75182644 5.55859375 56.7421875 C-3.50688258 64.58259946 -12.7362735 67.09802327 -24.48046875 66.8046875 C-33.95796304 66.06135461 -41.66305119 61.54963105 -48.15234375 54.71484375 C-55.08669373 46.2376009 -57.22667401 37.04548458 -56.91796875 26.21875 C-55.77303556 16.80266151 -51.64591706 8.63346063 -44.20703125 2.6875 C-30.59171749 -7.34702788 -14.92935704 -9.13269701 0 0 Z " fill="#34373A" transform="translate(184.46484375,317.5078125)"/>
<path d="M0 0 C8.4498794 6.14090073 15.20012152 13.80844235 18 24 C19.43856296 35.71219398 17.62090498 44.20310966 11 54 C3.67358191 61.89790156 -3.63768549 67.3446731 -14.5546875 68.31640625 C-26.04746354 68.67483287 -34.09204506 66.31766416 -42.9609375 58.984375 C-50.88120898 51.27652459 -54.27021172 42.51994406 -54.4375 31.625 C-54.34421815 21.06822481 -51.63681908 13.79650705 -44.28125 6.04296875 C-32.14506762 -4.82556444 -14.60632626 -8.28285574 0 0 Z " fill="#35373B" transform="translate(366,316)"/>
<path d="M0 0 C2.22508592 -0.00960642 4.44920623 -0.04064066 6.67407227 -0.07226562 C30.09658803 -0.24579102 54.33494489 5.63720126 71.70336914 22.12695312 C72.40333008 22.82433594 73.10329102 23.52171875 73.82446289 24.24023438 C74.57598633 24.92730469 75.32750977 25.614375 76.10180664 26.32226562 C77.82446289 28.24023438 77.82446289 28.24023438 77.82446289 31.24023438 C77.08325195 31.27761719 76.34204102 31.315 75.57836914 31.35351562 C69.33640981 31.74316058 63.22533833 32.42631969 57.07446289 33.55273438 C56.36813721 33.67922363 55.66181152 33.80571289 54.93408203 33.93603516 C51.6693877 34.52472149 48.40840011 35.12425855 45.15454102 35.77050781 C13.62651712 41.9951593 -17.49173033 39.75080812 -48.91674805 34.00512695 C-55.99611089 32.71907847 -62.99587555 31.73875846 -70.17553711 31.24023438 C-68.78031151 24.5635223 -62.95233102 19.8970675 -57.52563477 16.07958984 C-39.63758655 4.61341751 -21.07159887 0.05473735 0 0 Z " fill="#AE49D0" transform="translate(252.175537109375,373.759765625)"/>
<path d="M0 0 C12.88988457 -0.52256289 25.61339368 3.26076563 35.90625 11.234375 C38.14269035 13.46631547 39.98753819 15.7097542 41.90625 18.234375 C40.96381744 20.58367359 40.38268369 21.94983063 38.17477417 23.26847839 C31.6075983 25.41126538 25.47532818 25.65519507 18.6015625 25.59765625 C17.44179901 25.59815475 16.28203552 25.59865326 15.08712769 25.59916687 C12.64481892 25.59683648 10.20250728 25.58716951 7.76025391 25.57055664 C4.04958278 25.54699143 0.33963317 25.55000115 -3.37109375 25.55664062 C-5.75521256 25.55106178 -8.13932838 25.54395061 -10.5234375 25.53515625 C-11.61961395 25.53606766 -12.71579041 25.53697906 -13.84518433 25.53791809 C-32.00859132 25.37322331 -32.00859132 25.37322331 -38.09375 20.234375 C-36.42815381 13.94212274 -31.72989094 10.86405978 -26.43359375 7.58984375 C-17.78244809 2.69903101 -9.82982406 0.74468364 0 0 Z " fill="#F1D8A6" transform="translate(254.09375,330.765625)"/>
<path d="M0 0 C4.56833649 1.53143098 8.17845035 4.08233059 12 6.9375 C12.65863037 7.42694092 13.31726074 7.91638184 13.99584961 8.4206543 C30.74196198 20.98879175 45.58023957 35.09930459 58 52 C58.73734375 53.0003125 59.4746875 54.000625 60.234375 55.03125 C65 61.665 65 61.665 65 64 C61.65083066 62.5656979 59.74099776 60.81457359 57.3125 58.125 C41.41913223 41.94596712 19.9864367 31.60060276 -0.99560547 23.80273438 C-3.06166916 22.97530229 -5.02372294 22.02165823 -7 21 C-6.42435345 17.11438576 -4.48746646 14.95386643 -2 12 C-0.78306124 9.56612247 -0.68040104 7.58161154 -0.4375 4.875 C-0.35371094 3.96492187 -0.26992188 3.05484375 -0.18359375 2.1171875 C-0.12300781 1.41851562 -0.06242187 0.71984375 0 0 Z " fill="#EED6A4" transform="translate(347,211)"/>
<path d="M0 0 C0.02578125 0.65226563 0.0515625 1.30453125 0.078125 1.9765625 C0.46571197 7.94892542 1.34394871 11.28251446 5 16 C5 16.66 5 17.32 5 18 C5.66 18 6.32 18 7 18 C7 18.99 7 19.98 7 21 C6.36723145 21.25056152 5.73446289 21.50112305 5.08251953 21.75927734 C-19.65095636 31.6231432 -41.99040291 42.99040291 -61 62 C-61.99 62 -62.98 62 -64 62 C-58.91840267 50.82594996 -49.9332741 41.24095578 -41.47607422 32.52294922 C-40.06738922 31.06952926 -38.67580525 29.59959261 -37.28515625 28.12890625 C-10.11382979 0 -10.11382979 0 0 0 Z " fill="#EED5A4" transform="translate(165,211)"/>
<path d="M0 0 C-1.36893025 5.64683729 -5.52743924 8.6824412 -10 12 C-15.81566988 15.40161823 -21.41335236 15.94999726 -28 15 C-34.75014246 12.81784188 -40.2802898 9.13546296 -44 3 C-44.65234375 0.78515625 -44.65234375 0.78515625 -45 -1 C-30.59113092 -4.07194163 -13.87015217 -6.93507608 0 0 Z " fill="#6B5A4C" transform="translate(370,358)"/>
<path d="M0 0 C-2.9034393 7.67337529 -6.84103064 11.68885376 -14.2578125 15.078125 C-20.91251914 17.31531983 -26.86804161 16.84287238 -33.25 14 C-38.14096998 11.27324517 -41.892968 7.660548 -45 3 C-45 2.34 -45 1.68 -45 1 C-43.10454608 0.51933465 -41.20861961 0.04053257 -39.3125 -0.4375 C-38.25675781 -0.70433594 -37.20101562 -0.97117187 -36.11328125 -1.24609375 C-23.59034888 -4.27862317 -12.4043435 -2.64458085 0 0 Z " fill="#6B5A4C" transform="translate(187,357)"/>
<path d="M0 0 C1.9375 1.6875 1.9375 1.6875 3 4 C2.92857348 7.49989972 2.66021066 9.29263143 0.25 11.875 C-2.52316728 13.26158364 -3.94430168 13.61113966 -7 13 C-9.375 10.875 -9.375 10.875 -11 8 C-11 4.45665039 -10.64741834 2.74333217 -8.3125 0.0625 C-5.10056066 -1.41325591 -3.33525198 -1.06444212 0 0 Z " fill="#F2F2F2" transform="translate(153,332)"/>
<path d="M0 0 C1.9375 1.125 1.9375 1.125 3 3 C3.54624158 6.66762206 3.47898298 8.3258758 1.3125 11.375 C-1 13 -1 13 -3.5 13.5 C-6.87013879 12.82597224 -8.01677007 11.7912125 -10 9 C-10.45319325 5.82764724 -10.52990283 3.93512264 -8.9375 1.125 C-5.8930714 -0.64273274 -3.4368988 -0.36823916 0 0 Z " fill="#F8F8F8" transform="translate(336,332)"/>
</svg>
